<?xml version="1.0" encoding="UTF-8"?>
<svg width="70px" height="66px" viewBox="0 0 70 66" version="1.1" xmlns="http://www.w3.org/2000/svg" xmlns:xlink="http://www.w3.org/1999/xlink">
    <!-- Generator: Sketch 53 (72520) - https://sketchapp.com -->
    <title>Group 91</title>
    <desc>Created with Sketch.</desc>
    <defs>
        <polygon id="path-1" points="0.0268981279 0.110817251 22.3509415 0.110817251 22.3509415 9.14230019 0.0268981279 9.14230019"></polygon>
        <polygon id="path-3" points="0 0.110867446 69.8718713 0.110867446 69.8718713 2.45994425 0 2.45994425"></polygon>
        <polygon id="path-5" points="0.101245519 0.0350682261 22.6488131 0.0350682261 22.6488131 13.2315146 0.101245519 13.2315146"></polygon>
        <polygon id="path-7" points="0.0268571923 0.123407407 22.3509674 0.123407407 22.3509674 6.95906433 0.0268571923 6.95906433"></polygon>
    </defs>
    <g id="Page-1" stroke="none" stroke-width="1" fill="none" fill-rule="evenodd">
        <g id="bundle-copy" transform="translate(-581.000000, -876.000000)">
            <g id="Group-91" transform="translate(581.000000, 876.000000)">
                <g id="Group-3" transform="translate(23.742690, 56.183255)">
                    <mask id="mask-2" fill="white">
                        <use xlink:href="#path-1"></use>
                    </mask>
                    <g id="Clip-2"></g>
                    <path d="M1.64475439,2.30731189 C1.12268811,4.39257505 0.614267057,6.48124951 0.0687309942,8.56037232 C-0.0654015595,9.07152242 0.129452242,9.14261404 0.561050682,9.14220468 C7.64674269,9.13579142 14.7325712,9.13579142 21.8185361,9.14234113 C22.2517719,9.14275049 22.4426686,9.06906628 22.308809,8.55914425 C21.763,6.4804308 21.2547154,4.39161988 20.7326491,2.30662963 C20.6221228,1.82181481 20.4791209,1.34163938 20.4096667,0.850957115 C20.3261579,0.261892788 20.0346959,0.10865692 19.450271,0.110840156 C14.068731,0.131444444 8.68691813,0.12080117 3.30524172,0.11288694 C2.16531969,0.111249513 2.163,0.0985594542 1.87822417,1.24939766 C1.79144055,1.59980702 1.72198635,1.95458285 1.64475439,2.30731189" id="Fill-1" fill="#F8F8F8" mask="url(#mask-2)"></path>
                </g>
                <path d="M0,6.78230409 C2.65495127,6.76893177 5.31003899,6.755423 7.96499025,6.74246004 C8.30557505,6.74068616 8.64615984,6.74150487 8.98674464,6.74136842 C8.99302144,8.19581287 8.99834308,9.65012086 9.0057115,11.1044288 C9.01267057,12.4831423 9.80846004,13.3530253 11.1825341,13.4870214 C11.1769396,13.9665146 11.4569396,14.5734542 10.6447758,14.6931228 C8.90678363,14.9702573 7.76740741,16.4859688 7.90495127,18.3374893 C8.028577,20.0028889 9.47401559,21.3293411 11.1965887,21.3584055 C11.3245809,22.4594386 11.4181871,23.5645653 11.7864717,24.6245263 C12.7107992,27.2837076 14.4891813,29.1917193 16.9324951,30.5222651 C14.7884211,30.5724795 12.6432554,30.4260663 10.5032749,30.7787953 C7.30251462,31.3061832 4.37001949,32.4126745 1.76637427,34.3820897 C1.17990253,34.8256959 0.697270955,35.4142144 0,35.7101793 L0,6.78230409 Z" id="Fill-4" fill="#2EA2DB"></path>
                <g id="Group-8" transform="translate(0.000000, 49.360643)">
                    <mask id="mask-4" fill="white">
                        <use xlink:href="#path-3"></use>
                    </mask>
                    <g id="Clip-7"></g>
                    <path d="M69.8492885,0.267787524 C69.8529727,0.790263158 69.8320955,1.31451267 69.8679825,1.83480507 C69.9003216,2.30652047 69.7390351,2.4698538 69.2553119,2.45948343 C67.9154873,2.43110136 66.5745712,2.44979532 65.2340643,2.44979532 C46.0795809,2.44979532 26.9252339,2.44979532 7.77075049,2.44979532 C5.18047758,2.44979532 2.59020468,2.45047758 -6.82261209e-05,2.45088694 L-6.82261209e-05,0.13119883 C2.04630604,0.125467836 4.09254386,0.119736842 6.13864522,0.114005848 C11.2333626,0.117417154 16.3280799,0.120692008 21.4229337,0.123966862 L36.6833431,0.110867446 C36.7373782,0.126150097 36.7914133,0.141569201 36.8455848,0.156988304 C36.9945906,0.300672515 37.1830312,0.266695906 37.3612378,0.266695906 C40.0602632,0.267787524 42.759425,0.267787524 45.4584503,0.266013645 C45.6362476,0.265877193 45.8250975,0.303128655 45.9753314,0.160672515 C46.0712573,0.159853801 46.1673197,0.158898635 46.2632456,0.15794347 C46.4349025,0.317729045 46.6485867,0.265604288 46.8475341,0.265740741 C50.4551949,0.268196881 54.0631287,0.268060429 57.6707895,0.265194932 C57.8696004,0.26505848 58.0831481,0.318138402 58.2560331,0.160672515 C58.3519591,0.159853801 58.4480214,0.158898635 58.5439474,0.15794347 C58.7842398,0.350614035 59.0671053,0.263148148 59.3299123,0.263557505 C62.8363255,0.269697856 66.3428752,0.267787524 69.8492885,0.267787524" id="Fill-6" fill="#CACCCC" mask="url(#mask-4)"></path>
                </g>
                <path d="M6.13875439,49.4745263 C4.09251657,49.4802573 2.04627875,49.4859883 4.09356725e-05,49.4918558 L4.09356725e-05,35.7101793 C0.697311891,35.4142144 1.17994347,34.8256959 1.7664152,34.3820897 C4.37006043,32.4126745 7.3024191,31.3061832 10.5031793,30.7787953 C12.6432963,30.4260663 14.788462,30.5724795 16.9323996,30.5222651 C17.2914055,30.6602183 17.6505478,30.7981715 18.0098265,30.9362612 C18.0125556,31.8835127 18.0151481,32.831037 18.0178772,33.778425 C16.9194366,33.7967096 15.8209961,33.8149942 14.7224191,33.8334152 C14.6880331,33.8249552 14.6536472,33.8250916 14.6193977,33.8340975 C13.1009571,33.8218168 11.582653,33.7964366 10.0642125,33.8012125 C8.76914425,33.805306 7.75625926,34.7887173 7.63686355,36.0777817 C7.51187329,37.4267485 7.36450487,38.7738051 7.21222417,40.1199064 C6.85908577,43.2386589 6.49707797,46.3563197 6.13875439,49.4745263" id="Fill-9" fill="#52B8E9"></path>
                <path d="M33.8516179,6.75238012 C40.6278363,6.74896881 47.4040546,6.74460234 54.1802729,6.74255556 C59.1831579,6.74091813 64.18577,6.74105458 69.1885185,6.74473879 C69.5031774,6.74487524 69.8722807,6.61715595 69.8700975,7.19980702 C69.8481287,12.7478187 69.847037,18.2958304 69.8399415,23.8438421 C67.9268811,24.1118343 66.0767251,24.612614 64.289883,25.3471365 C64.2825146,25.0749142 64.2688694,24.8028285 64.2687329,24.5307427 C64.2670955,21.2377407 64.2735088,17.9448752 64.2643665,14.6520097 C64.2606823,13.3623996 63.3371735,12.3843099 62.0698051,12.3605673 C60.7084211,12.3350507 59.3460819,12.3682086 57.9840156,12.3757135 C52.5552632,12.3664347 47.1265107,12.346922 41.6977583,12.3549727 C40.3088109,12.3570195 39.4364717,13.3000409 39.4363353,14.6989493 C39.4360624,19.9009181 39.4376998,25.1028869 39.4407018,30.3049922 C39.4415205,31.6944854 40.3755361,32.6639786 41.7733528,32.6848558 C43.1358285,32.7050507 44.4989864,32.6774873 45.8620078,32.6804893 C48.2683431,32.6860838 50.6748148,32.6989103 53.0812865,32.7087349 C53.0725536,32.8601969 52.9890448,32.9518928 52.8573684,33.021347 C51.7969981,33.5803918 50.7550487,34.1820097 49.5953411,34.5221852 C47.2476803,35.2104503 44.8679532,35.5526725 42.4029435,35.4669805 C40.6544444,35.4061228 38.9460624,35.1429064 37.2307212,34.8798265 C36.2740546,34.7331404 35.3265302,34.5266881 34.3749123,34.347117 C33.6069591,33.7326725 32.6894542,33.7745634 31.7853216,33.7570975 C31.6058869,33.6082281 31.3896101,33.5672924 31.1681481,33.5112105 C29.0581871,32.9778187 26.9516374,32.4306452 24.8438596,31.8872924 C24.8253021,31.7902749 24.8066082,31.6932573 24.7877778,31.5962398 C24.7514815,31.1067856 24.9849513,30.8752261 25.4404288,30.6674094 C29.0059259,29.0408986 31.0270565,26.2511326 31.4967251,22.3677018 C31.5689084,21.7704503 31.5768226,21.2669415 32.3359064,21.2492027 C33.9221637,20.9120292 34.9748928,19.5316784 34.9321832,17.8454016 C34.8924756,16.2782476 33.7419103,14.9558889 32.19154,14.6954016 C32.0279337,14.5888324 31.8491813,14.5749142 31.6626511,14.6095731 C31.6483236,14.5719123 31.6210331,14.5519903 31.5809162,14.5500799 C31.5972904,14.1966686 31.6131189,13.8429844 31.6289474,13.4893002 C32.7518129,13.3804113 33.4160624,12.8490663 33.7075244,11.8263567 C33.8323782,11.7028674 33.8387914,11.5429454 33.8378363,11.3837057 C33.8284211,9.88873489 33.817232,8.39376413 33.8065887,6.89879337 C33.8215984,6.84994347 33.8366082,6.80109357 33.8516179,6.75238012" id="Fill-11" fill="#2EA2DB"></path>
                <path d="M45.0293762,39.4594094 C45.0131384,38.2354327 45.1877973,38.2998382 44.1547173,38.3067973 C42.7263353,38.3164854 42.8475049,38.1238148 42.8510526,39.2288051 C42.8555556,40.6069727 42.6657505,40.4856667 43.8231384,40.4825283 C45.1662378,40.4789805 45.0145029,40.6595068 45.0293762,39.4594094 M39.4381092,40.486076 C40.5847173,40.4716121 40.5317739,40.6364464 40.5238596,39.6118265 C40.5129435,38.1845361 40.707115,38.3027037 39.6011696,38.3063879 C38.2204094,38.3110273 38.3429435,38.1220409 38.3466277,39.2790195 C38.3511306,40.6449064 38.1636452,40.4684737 39.4381092,40.486076 M56.3621442,40.486076 L63.9915984,40.486076 C65.3626706,40.486076 65.3292398,40.4849844 65.3745419,39.1302865 C65.3959649,38.486232 65.2234893,38.2841462 64.5540546,38.287694 C59.3088304,38.3149844 54.0636062,38.3027037 48.8182456,38.3027037 C47.338694,38.3027037 47.3734893,38.3037953 47.3328265,39.7598772 C47.3150877,40.3973821 47.5527875,40.5031326 48.1194737,40.4978109 C50.8668031,40.4717485 53.6145419,40.486076 56.3621442,40.486076 M52.9361014,44.989 C56.6162183,44.989 60.2963353,44.9891365 63.9763158,44.9891365 C65.3653996,44.9891365 65.3303314,44.9880448 65.3754971,43.5810858 C65.3962378,42.9351209 65.1802339,42.7928012 64.568655,42.7943021 C57.0723782,42.8134055 49.5758285,42.806037 42.0795517,42.8056277 C40.6533528,42.8056277 40.685692,42.8065828 40.6469396,44.2483372 C40.6304288,44.8651014 40.8300585,45.0059201 41.4189864,45.0020994 C45.2579337,44.9768558 49.097154,44.989 52.9361014,44.989 M64.289883,25.3471092 C66.0767251,24.6125867 67.9268811,24.111807 69.8399415,23.8438148 C69.8471735,25.5251793 69.8608187,27.2065439 69.8605458,28.8877719 C69.8591813,35.7510468 69.8534503,42.6143216 69.8493567,49.47746 C69.3725926,49.4826452 68.8959649,49.4911053 68.4193372,49.4924698 C65.1275634,49.5020214 61.8357895,49.5100721 58.5440156,49.5186686 C58.4480897,49.5196238 58.3520273,49.5204425 58.2561014,49.5213977 C54.2585965,49.5204425 50.2609552,49.5196238 46.2633138,49.5186686 C46.1673879,49.5196238 46.0713255,49.5204425 45.9753996,49.5213977 C42.9322417,49.5200331 39.8888109,49.5188051 36.8455166,49.517577 C36.7914815,49.5022943 36.7373099,49.4867388 36.6835478,49.4714561 C36.4659064,47.5811832 36.2414425,45.691729 36.0321248,43.800501 C35.7830994,41.5484932 35.5471735,39.294848 35.3053801,37.041885 C35.20154,36.0725283 35.1473684,35.0858421 34.3749123,34.3472261 C35.3265302,34.5267973 36.2740546,34.7331131 37.2307212,34.8797992 C38.9460624,35.1428791 40.6544444,35.4060955 42.4029435,35.4669532 C44.8679532,35.5527817 47.2476803,35.210423 49.5953411,34.5221579 C50.7550487,34.1821189 51.7969981,33.580501 52.8573684,33.0213197 C52.9890448,32.9518655 53.0725536,32.860306 53.0812865,32.7087076 C54.6584016,32.5401891 56.239883,32.6505789 57.8194542,32.6339318 C58.8341131,32.7999942 59.855731,32.693152 60.8733918,32.6950624 C61.3597076,32.6958811 61.8669006,32.8360175 62.3379337,32.5867193 C63.4983236,32.3906374 64.2490838,31.5193899 64.2621832,30.3191559 C64.2804678,28.6619435 64.2815595,27.0044581 64.289883,25.3471092" id="Fill-13" fill="#52B8E9"></path>
                <g id="Group-17" transform="translate(11.189084, 0.101384)">
                    <mask id="mask-6" fill="white">
                        <use xlink:href="#path-5"></use>
                    </mask>
                    <g id="Clip-16"></g>
                    <path d="M22.6174912,6.79738207 C22.6281345,8.29235283 22.6393236,9.78746004 22.6487388,11.2824308 C22.649694,11.4415341 22.6432807,11.6014561 22.5184269,11.7249454 C22.5960682,11.1751793 22.2531637,11.1712222 21.8491287,11.1721774 C17.8116433,11.180501 13.7741579,11.200423 9.73708187,11.1672651 C7.84912865,11.151846 6.07661404,10.6469727 4.4707076,9.61593957 C4.24979142,9.47416569 4.05903119,9.24246979 3.75064912,9.27521832 C3.65881676,9.17861014 3.52782261,8.98498441 3.48183821,9.00340546 C3.33788109,9.0609883 3.41333918,9.23482846 3.41170175,9.35954581 C3.40446979,9.94424366 3.41988889,10.5294873 3.40610721,11.1139123 C3.38045419,12.2008908 2.64879727,13.0608129 1.62281287,13.2315146 C0.665054581,12.8854717 0.133436647,12.1733275 0.130434698,11.1996043 C0.124430799,9.17915595 0.185424951,7.15638791 0.10682846,5.13894152 C0.0566140351,3.85001365 0.330746589,2.81379532 1.51747173,2.1578694 C2.38121442,2.27576413 2.96222807,2.75239181 3.29380702,3.55077388 C3.33624366,3.65324951 3.40337817,3.74549123 3.45891423,3.84250877 C3.50380702,3.75354191 3.55402144,3.66689474 3.59291033,3.57533528 C4.01195517,2.58742105 4.74879727,2.12948733 5.82963548,2.13480897 C9.25554191,2.15159259 12.6818577,2.12048148 16.1074912,2.1492729 C18.3607271,2.16810331 20.412423,1.62379532 22.2021306,0.215335283 C22.3018772,0.136738791 22.3894795,-0.0192261209 22.5413509,0.0541851852 C22.6929493,0.127596491 22.6271793,0.295978558 22.6275887,0.421651072 C22.6300448,1.28348343 22.6236316,2.14545224 22.6200838,3.0072846 C22.5349376,3.03375634 22.4340994,3.03948733 22.366692,3.08983821 C19.5316238,5.20402924 16.2603177,5.82024756 12.8258148,5.86241131 C11.5318382,5.87837622 10.2374522,5.85954581 8.94320273,5.85859064 C8.83144834,5.85859064 8.6307271,5.85176803 8.62253996,5.88492593 C8.5795575,6.06217739 8.76253996,6.07759649 8.86869981,6.13940936 C10.7597914,7.24180702 12.8344113,7.82200195 14.9824425,8.01753801 C17.6095575,8.25673879 20.1781345,7.86525731 22.6174912,6.79738207" id="Fill-15" fill="#FEAB4B" mask="url(#mask-6)"></path>
                </g>
                <g id="Group-20" transform="translate(23.742690, 58.366491)">
                    <mask id="mask-8" fill="white">
                        <use xlink:href="#path-7"></use>
                    </mask>
                    <g id="Clip-19"></g>
                    <path d="M20.7326082,0.123407407 C21.2546745,2.20839766 21.7630955,4.29707212 22.3089045,6.37592203 C22.4426277,6.88584405 22.251731,6.95952827 21.8184951,6.95911891 C14.7325302,6.9525692 7.64683821,6.9525692 0.561009747,6.95898246 C0.129411306,6.95939181 -0.0654424951,6.88830019 0.0686900585,6.3771501 C0.614362573,4.29802729 1.12264717,2.20935283 1.64471345,0.124089669 C8.00734503,0.123816764 14.3699766,0.123680312 20.7326082,0.123407407" id="Fill-18" fill="#CACCCC" mask="url(#mask-8)"></path>
                </g>
                <path d="M44.4752982,58.4898986 C38.1126667,58.4901715 31.7500351,58.490308 25.3874035,58.4905809 C25.4647719,58.1378519 25.5340897,57.783076 25.6208733,57.4326667 C25.9056491,56.2818285 25.9081053,56.2945185 27.0478908,56.2961559 C32.4297037,56.3040702 37.8113801,56.3147135 43.1930565,56.2941092 C43.7774815,56.2919259 44.068807,56.4451618 44.1523158,57.0342261 C44.2219064,57.5249084 44.3647719,58.0050838 44.4752982,58.4898986" id="Fill-21" fill="#989898"></path>
                <path d="M33.806575,6.89876608 C31.3672183,7.96664133 28.7986413,8.35812281 26.1715263,8.11892203 C24.0234951,7.92338596 21.9488752,7.34319103 20.0577836,6.24079337 C19.9516238,6.17898051 19.7686413,6.1635614 19.8116238,5.98630994 C19.8198109,5.95315205 20.0205322,5.95997466 20.1322865,5.95997466 C21.4265361,5.96092982 22.720922,5.97976023 24.0148986,5.96379532 C27.4494016,5.92163158 30.7207076,5.30541326 33.5557758,3.19122222 C33.6231832,3.14087135 33.7240214,3.13514035 33.8091676,3.10866862 C33.8232222,4.32323002 33.8374133,5.53792788 33.8516043,6.75248928 C33.8365945,6.80120273 33.8215848,6.84991618 33.806575,6.89876608" id="Fill-23" fill="#FE940A"></path>
                <path d="M12.7065828,2.25918519 C11.5198577,2.91524756 11.2457251,3.95146589 11.2959396,5.24025731 C11.3745361,7.2577037 11.3135419,9.28047173 11.3195458,11.3010565 C11.3224113,12.2746433 11.8541657,12.986924 12.811924,13.3328304 C12.3407544,13.6332982 11.81323,13.3809981 11.3218655,13.4844288 C11.2754717,13.4852476 11.229078,13.4862027 11.1825478,13.4870214 C9.80847368,13.3530253 9.01268421,12.4831423 9.00572515,11.1044288 C8.99835673,9.65012086 8.99303509,8.19581287 8.98675828,6.74136842 C8.99439961,6.01489669 9.00204094,5.28869786 9.00995517,4.56249903 C9.02387329,3.29294737 9.77463353,2.3911345 11.0197602,2.2205692 C11.5762125,2.14442885 12.147538,2.11249903 12.7065828,2.25918519" id="Fill-25" fill="#FE940A"></path>
                <path d="M58.5440019,49.5186413 C61.8357758,49.5101813 65.1275497,49.5019942 68.4193236,49.4924425 C68.8959513,49.491078 69.3725789,49.4826179 69.8493431,49.4775692 C69.8493431,49.5277836 69.8494795,49.5781345 69.8494795,49.6284854 C66.3427934,49.6284854 62.8363801,49.6303957 59.3299669,49.6241189 C59.0671598,49.623846 58.7842943,49.7113119 58.5440019,49.5186413" id="Fill-27" fill="#BBD4D9"></path>
                <path d="M18.4130565,25.7637524 C18.8555712,26.2612573 19.4106589,26.562271 20.0563509,26.7044542 C22.6220624,27.6817251 25.643115,25.7507895 25.8037193,23.0310234 C25.9506784,22.842037 26.0183587,22.6576901 25.7730175,22.4912183 C23.0256881,22.4890351 20.2784951,22.4871248 17.5313021,22.4846686 C17.2105029,22.4843957 16.8379883,22.4310429 16.9365068,22.949152 C17.1428226,24.0353119 17.4799961,25.0569298 18.4130565,25.7637524 M11.1825887,13.4870078 C11.2291189,13.4861891 11.2753762,13.4853704 11.32177,13.4844152 C11.3229981,14.0300877 11.3378713,14.576306 11.3205419,15.1215692 C11.3090799,15.4842593 11.4110097,15.6728363 11.8155906,15.6568713 C13.9271891,15.573499 16.0370136,15.8328947 18.1424717,15.7571637 C19.3420234,15.7140448 20.5422573,15.6598733 21.7427641,15.6567349 C24.7852398,15.6486842 27.8282612,15.6198928 30.8681442,15.7873197 C31.2257856,15.8071053 31.5820624,15.8202047 31.5255712,15.2853119 C31.5149279,15.1843372 31.4870916,15.0611209 31.6067602,14.9879825 C31.6224522,15.0983723 31.6515166,15.2086257 31.6517895,15.319152 C31.6547914,17.0702437 31.6756686,18.8217446 31.6415556,20.572154 C31.6309123,21.1211014 31.807345,21.3270078 32.3358246,21.24923 C31.5768772,21.2669688 31.568963,21.7704776 31.4967797,22.367729 C31.0269747,26.2511598 29.0059805,29.0409259 25.4404834,30.6674366 C24.9848694,30.8752534 24.7513996,31.1068129 24.7878324,31.5964035 C24.6602495,31.3469688 24.6940897,30.96654 24.1855322,31.1130897 C22.1133684,31.7099318 20.0511657,31.5989961 18.0098402,30.9362476 C17.6505614,30.7981579 17.2914191,30.6602047 16.9322768,30.5222515 C14.4890994,29.1917057 12.7108538,27.283694 11.7865263,24.6245127 C11.4181053,23.5645517 11.3246355,22.459425 11.1965068,21.3583918 C11.1948694,19.3387622 11.1849084,17.3189961 11.1980078,15.2995029 C11.2006004,14.8886452 11.1248694,14.6266569 10.644694,14.6931092 C11.4568577,14.5734405 11.1769942,13.966501 11.1825887,13.4870078" id="Fill-29" fill="#FDC496"></path>
                <path d="M10.6447349,14.6930682 C11.1249103,14.626616 11.2005049,14.8886043 11.1980487,15.299462 C11.1849493,17.3190916 11.1947739,19.3387212 11.1965478,21.3584873 C9.47397466,21.329423 8.02853606,20.0029708 7.90491033,18.3374347 C7.76736647,16.4860507 8.90687914,14.9702027 10.6447349,14.6930682" id="Fill-31" fill="#FEB67D"></path>
                <path d="M34.3748986,34.3471852 C35.1473548,35.0858012 35.2015263,36.0724873 35.3053665,37.0419805 C35.5471598,39.294807 35.7830858,41.5484522 36.0322476,43.80046 C36.2414288,45.6916881 36.4658928,47.5812788 36.6835341,49.4714152 C31.5965945,49.4759181 26.509655,49.4802846 21.4228519,49.4847875 C21.4244893,47.9462885 21.4261267,46.407653 21.4276277,44.869154 C21.5161852,44.7714542 21.6046062,44.6737544 21.6930273,44.576191 C21.8302982,44.7778674 21.9772573,44.6504211 22.1018382,44.5726433 C24.7477836,42.9193879 27.3878616,41.2565809 30.0398109,39.6131501 C30.3419162,39.4259376 30.3716628,39.2731111 30.2305712,38.9651384 C29.9863216,38.4320195 29.8257173,37.8601481 29.5772378,37.3292125 C29.0524425,36.2082573 28.7879981,34.9740468 28.0926374,33.9284133 C28.088271,33.8951189 28.0900448,33.8622339 28.0983684,33.8297583 C29.3273938,33.8054698 30.5564191,33.7813177 31.7854444,33.7570292 C32.6894405,33.7746316 33.6069454,33.7327407 34.3748986,34.3471852" id="Fill-33" fill="#616296"></path>
                <path d="M21.4276686,44.8691267 C21.4260312,46.4076257 21.4245302,47.9462612 21.4228928,49.4847602 C16.328039,49.4813489 11.2333216,49.4780741 6.13860429,49.4746628 C6.49706433,46.3563197 6.85907212,43.2386589 7.21221053,40.1199064 C7.36449123,38.7738051 7.51185965,37.4267485 7.6368499,36.0777817 C7.75624561,34.7887173 8.7691306,33.805306 10.0641988,33.8012125 C11.5826394,33.7964366 13.1010799,33.8218168 14.619384,33.8340975 C13.9551345,35.5105497 13.290885,37.1868655 12.6271813,38.8635906 C12.5207485,39.132538 12.3620546,39.3879766 12.7416647,39.6093021 C13.5981754,40.1088538 14.438039,40.636924 15.2845887,41.1535322 C15.8014698,41.5175867 16.316577,41.8842339 16.9016842,42.1357154 C17.2890721,42.398386 17.6626784,42.6849357 18.0667135,42.9190877 C19.1490526,43.5466316 20.135193,44.3349162 21.2882144,44.8437466 C21.3346082,44.8522066 21.3811384,44.8606667 21.4276686,44.8691267" id="Fill-35" fill="#8586CD"></path>
                <path d="M46.2633002,49.5186413 C50.2609415,49.5195965 54.2585828,49.5204152 58.2560877,49.5213704 C58.0830663,49.6786998 57.869655,49.6257563 57.6708441,49.6258928 C54.0630468,49.6287583 50.4552495,49.6288947 46.8474522,49.6264386 C46.6485049,49.6263021 46.4349571,49.6784269 46.2633002,49.5186413" id="Fill-37" fill="#BBD4D9"></path>
                <path d="M36.8455712,49.5175634 C39.8888655,49.5187914 42.9321598,49.5201559 45.9753177,49.521384 C45.8250838,49.6637037 45.6362339,49.6265887 45.4584366,49.6267251 C42.7594113,49.6283626 40.060386,49.628499 37.3612242,49.6274074 C37.1830175,49.627271 36.994577,49.661384 36.8455712,49.5175634" id="Fill-39" fill="#BBD4D9"></path>
                <path d="M18.0098265,30.9362066 C20.051152,31.5989552 22.1133548,31.7098908 24.1855185,31.1130487 C24.694076,30.966499 24.6602359,31.3470643 24.7878187,31.5963626 C24.8066491,31.6932437 24.8252066,31.7902612 24.8439006,31.8872788 C24.8353041,32.5224639 24.8265712,33.1573762 24.8181111,33.7925614 C23.6901969,34.4456218 22.6225945,35.1902417 21.5620877,35.9453684 C21.4697096,35.9463236 21.3776043,35.9472788 21.2852261,35.9480975 C20.2243099,35.1826004 19.1481111,34.4397544 18.0178772,33.7783704 C18.0151481,32.8309825 18.0125556,31.8835945 18.0098265,30.9362066" id="Fill-41" fill="#FEB67D"></path>
                <path d="M18.0178226,33.778384 C19.1480565,34.439768 20.2242554,35.182614 21.285308,35.9485205 C20.7884854,36.9423021 20.025308,37.746961 19.3685634,38.6258499 C19.0548596,39.0458499 18.8758343,39.602848 18.3084659,39.7979747 C18.103924,39.4822242 17.8995185,39.1666101 17.6951131,38.8509961 L14.722501,33.8333743 C15.8209415,33.8150897 16.9193821,33.7966686 18.0178226,33.778384" id="Fill-43" fill="#F8F8F8"></path>
                <path d="M14.7224464,33.8333606 L17.6950585,38.8509825 C16.6374172,39.3524444 15.9461501,40.2373372 15.2847661,41.1534776 C14.4380799,40.6370058 13.5982164,40.1087992 12.7415692,39.609384 C12.3619591,39.387922 12.520653,39.1326199 12.6272222,38.8635361 C13.2909259,37.1869474 13.9551754,35.5104951 14.619425,33.8340429 C14.6536745,33.8251735 14.6880604,33.8249006 14.7224464,33.8333606" id="Fill-45" fill="#45496E"></path>
                <path d="M49.563616,22.4724425 C49.563616,23.8111754 49.5700292,25.1497719 49.5595224,26.4883684 C49.5565205,26.855425 49.5903606,27.0115263 49.9856628,26.7450351 C51.9784113,25.4015263 53.9790741,24.0693431 55.9871053,22.7482125 C56.3170468,22.531117 56.2541423,22.422501 55.9731871,22.2365166 C53.9873977,20.9231637 52.004883,19.6047622 50.0301462,18.2748986 C49.6632261,18.0277836 49.549152,18.0530273 49.5562476,18.5248791 C49.5767154,19.8404152 49.5633431,21.1564971 49.563616,22.4724425 M57.8195224,32.6341774 C56.2399513,32.6505517 54.6584698,32.5402982 53.0812183,32.7088168 C50.674883,32.6989922 48.2684113,32.6860292 45.8619396,32.6805712 C44.4990546,32.6774327 43.1358967,32.7051326 41.7732846,32.6848012 C40.3754678,32.6640604 39.4414522,31.6944308 39.4406335,30.3049376 C39.4376316,25.1029688 39.4359942,19.901 39.4362671,14.6988947 C39.4364035,13.2999864 40.3088791,12.3569649 41.6976901,12.3549181 C47.1265789,12.3468674 52.5553314,12.3663801 57.9842203,12.3757953 C59.0496394,12.7776472 59.7508674,13.492384 59.7548246,14.6769259 C59.7713353,19.8717992 59.7740643,25.066809 59.7515497,30.2616823 C59.7471832,31.2875302 59.283655,32.0930078 58.2634016,32.481078 C58.1153509,32.5321111 57.9674366,32.5831442 57.8195224,32.6341774" id="Fill-47" fill="#F8F8F8"></path>
                <path d="M58.2633743,32.4810234 C59.2837641,32.0929532 59.7471559,31.2874756 59.7515224,30.2616277 C59.774037,25.0668908 59.771308,19.8717446 59.7547973,14.6768713 C59.7508402,13.4924659 59.0496121,12.7775926 57.984193,12.3757407 C59.3461228,12.3682359 60.708462,12.3349415 62.069846,12.3604581 C63.3372144,12.3843372 64.2607232,13.3624269 64.2644074,14.6519006 C64.2735497,17.9449025 64.2671365,21.237768 64.2687739,24.5306335 C64.2689103,24.8028558 64.2824191,25.0749415 64.289924,25.3471637 C64.2814639,27.0045127 64.2805088,28.6618616 64.2622242,30.3190741 C64.2489883,31.519308 63.4982281,32.390692 62.3381111,32.586501 C62.002848,32.583499 61.6664932,32.5933236 61.3316394,32.5754483 C60.3094756,32.5211404 59.2802164,32.6968908 58.2633743,32.4810234" id="Fill-49" fill="#CACCCC"></path>
                <path d="M32.3358519,21.2491754 C31.8073723,21.3270897 31.6309396,21.1210468 31.6415828,20.5722359 C31.6756959,18.8216901 31.6548187,17.0701891 31.6516803,15.3190975 C31.6514074,15.2087076 31.6223431,15.0983177 31.6067875,14.9879279 C31.4871189,15.0612027 31.5148187,15.1844191 31.5255984,15.2852573 C31.5820897,15.8202865 31.2258129,15.8070507 30.8681715,15.7874016 C27.8282885,15.6198382 24.7852671,15.6486296 21.7427914,15.6566803 C20.5421481,15.6598187 19.3419142,15.7139903 18.1423626,15.7571092 C16.0370409,15.8329766 13.9272164,15.5734444 11.8156179,15.6568168 C11.4109006,15.6727817 11.3091072,15.4842047 11.3205692,15.1215146 C11.3378986,14.5763879 11.3230253,14.0301696 11.3217973,13.4844971 C11.8132982,13.3810663 12.3408226,13.6333665 12.8119922,13.3328986 C13.8379766,13.1621969 14.5694971,12.3022749 14.5951501,11.2152963 C14.6089318,10.6308713 14.5936491,10.0456277 14.6007446,9.46092982 C14.6023821,9.33621248 14.526924,9.16237232 14.6708811,9.10478947 C14.7168655,9.08636842 14.8478596,9.27999415 14.9401014,9.37660234 C16.5009786,11.8866413 18.6161248,13.4735809 21.7026745,13.4708519 C24.9763002,13.4679864 28.2500624,13.4799942 31.5236881,13.4855887 C31.5395166,13.840501 31.4550526,14.2008713 31.5807251,14.5499162 C31.621115,14.551963 31.648269,14.571885 31.66246,14.6095458 C31.8229279,14.7354912 32.0113684,14.6899162 32.1914854,14.6953743 C33.7419922,14.9558616 34.8924211,16.2782203 34.9321287,17.8455107 C34.9749747,19.5317875 33.9221092,20.9120019 32.3358519,21.2491754" id="Fill-51" fill="#FEB67D"></path>
                <path d="M31.5236608,13.4855205 C28.2500351,13.4799259 24.9764094,13.4679181 21.7026472,13.4707836 C18.6160975,13.4735127 16.5009513,11.8867096 14.9400741,9.37667057 C15.2481832,9.34378558 15.438807,9.57561793 15.6597232,9.71739181 C17.2657661,10.7482885 19.0381442,11.2531618 20.9262339,11.2687173 C24.9633099,11.3018752 29.0007953,11.2819532 33.0382807,11.2734932 C33.4423158,11.2726745 33.7850838,11.2766316 33.7075789,11.8263977 C33.4159805,12.8491072 32.7518674,13.3803158 31.6292749,13.4892047 C31.5948889,13.4687368 31.5596842,13.4676452 31.5236608,13.4855205" id="Fill-53" fill="#FE940A"></path>
                <path d="M24.8179201,33.7924522 C24.8265166,33.1574035 24.8352495,32.5223548 24.843846,31.887306 C26.9516238,32.4306589 29.0581735,32.9778324 31.1681345,33.5112242 C31.3895965,33.567306 31.6058733,33.6082417 31.7854444,33.7571111 L28.0983684,33.8297037 C27.0048402,33.8172865 25.9114483,33.8048694 24.8179201,33.7924522" id="Fill-55" fill="#00C7F7"></path>
                <path d="M31.5236608,13.4855205 C31.5596842,13.4676452 31.5948889,13.4687368 31.6292749,13.4892047 C31.613037,13.8430253 31.5972086,14.1965731 31.5809708,14.5501209 C31.4550253,14.2008031 31.5394893,13.8404327 31.5236608,13.4855205" id="Fill-57" fill="#FDC496"></path>
                <path d="M32.19154,14.6954016 C32.011423,14.6899435 31.8229825,14.7355185 31.6625146,14.6095731 C31.8491813,14.5749142 32.0279337,14.5888324 32.19154,14.6954016" id="Fill-59" fill="#FDC496"></path>
                <path d="M52.9361423,44.9890546 C49.0970585,44.9890546 45.2578382,44.9767739 41.4190273,45.0020175 C40.829963,45.0059747 40.6303333,44.8650195 40.6468441,44.2482554 C40.6857329,42.806501 40.6532573,42.8056823 42.0795926,42.8056823 C49.5758694,42.8060916 57.0722827,42.81346 64.5686959,42.7943567 C65.1801384,42.7927193 65.3961423,42.935039 65.375538,43.5810039 C65.3303723,44.987963 65.3654405,44.9890546 63.9763567,44.9890546 C60.2962398,44.9890546 56.6162593,44.9890546 52.9361423,44.9890546" id="Fill-61" fill="#1ED5FE"></path>
                <path d="M56.3621033,40.486076 C53.614501,40.486076 50.8668986,40.471885 48.1195692,40.4978109 C47.5527466,40.5031326 47.3150468,40.3973821 47.3327856,39.7598772 C47.3734483,38.3037953 47.338653,38.3028402 48.8182047,38.3028402 C54.0635653,38.3028402 59.3089259,38.3149844 64.5540136,38.287694 C65.2234483,38.2841462 65.395924,38.486232 65.374501,39.1302865 C65.3291988,40.4849844 65.3626296,40.486076 63.9915575,40.486076 L56.3621033,40.486076 Z" id="Fill-63" fill="#1ED5FE"></path>
                <path d="M39.4381637,40.486076 C38.1635634,40.4684737 38.3510487,40.6449064 38.3466823,39.2790195 C38.3429981,38.1220409 38.2203275,38.3111637 39.6010877,38.3063879 C40.7071696,38.3028402 40.5129981,38.1845361 40.5239142,39.6118265 C40.5318285,40.6365828 40.5846355,40.4716121 39.4381637,40.486076" id="Fill-65" fill="#1ED5FE"></path>
                <path d="M45.0293762,39.4594094 C45.0145029,40.6595068 45.1662378,40.4789805 43.8231384,40.4825283 C42.6657505,40.4856667 42.8555556,40.6069727 42.8510526,39.2288051 C42.8475049,38.1238148 42.7263353,38.3164854 44.1547173,38.3067973 C45.1877973,38.2998382 45.0131384,38.2354327 45.0293762,39.4594094" id="Fill-67" fill="#1ED5FE"></path>
                <path d="M58.2633743,32.4810234 C59.2802164,32.6968908 60.3094756,32.5211404 61.3316394,32.5754483 C61.6664932,32.5933236 62.002848,32.583499 62.3381111,32.586501 C61.8668051,32.8360721 61.3596121,32.6959357 60.8734327,32.6949805 C59.8557719,32.6932066 58.834154,32.8000487 57.8194951,32.6339864 C57.9674094,32.5830897 58.1153236,32.5320565 58.2633743,32.4810234" id="Fill-69" fill="#9BE3F6"></path>
                <path d="M25.8037329,23.0310507 C25.6431287,25.7508168 22.622076,27.6817524 20.056501,26.7044815 C21.0714327,25.6674444 22.0938694,24.6375029 23.0962476,23.5884581 C23.3518226,23.3208752 23.8932651,23.0693938 23.7561306,22.7434094 C23.6221345,22.4249298 23.0573587,22.6137797 22.689347,22.6245595 C22.2289571,22.6380682 21.7004776,22.4170156 21.3163645,22.801538 C20.3393665,23.7794912 19.3061501,24.7034094 18.4130702,25.7637797 C17.4800097,25.0569571 17.1428363,24.0352027 16.9365205,22.9490429 C16.8380019,22.4310702 17.2103801,22.484423 17.5313158,22.4846959 C20.2785088,22.487152 23.0257018,22.4890624 25.7730312,22.4909727 C25.7834016,22.6709532 25.7936355,22.8510702 25.8037329,23.0310507" id="Fill-71" fill="#FD6470"></path>
                <path d="M18.4130565,25.7637524 C19.3061365,24.7033821 20.3393528,23.7794639 21.3163509,22.8015107 C21.7004639,22.4171248 22.2289435,22.6380409 22.6893333,22.6246686 C23.057345,22.6138889 23.6221209,22.4249025 23.756117,22.7433821 C23.8932515,23.0693665 23.351809,23.320848 23.0962339,23.5884308 C22.0938558,24.6374756 21.0714191,25.6674172 20.0564873,26.7044542 C19.4106589,26.562271 18.8555712,26.2612573 18.4130565,25.7637524" id="Fill-73" fill="#FE5D69"></path>
                <path d="M25.8037329,23.0310507 C25.7936355,22.8510702 25.7834016,22.6709532 25.7730312,22.4909727 C26.0183723,22.6577173 25.950692,22.8420643 25.8037329,23.0310507" id="Fill-75" fill="#F58C90"></path>
                <path d="M28.0926374,33.9283723 C28.7879981,34.9740058 29.0524425,36.2082164 29.5772378,37.3291715 C29.8257173,37.8601072 29.9863216,38.4319786 30.2305712,38.9652339 C30.3716628,39.2730702 30.3419162,39.4258967 30.0399474,39.6131092 C27.3878616,41.2566764 24.7477836,42.919347 22.1018382,44.5726023 C21.9772573,44.6503801 21.8302982,44.777963 21.6931637,44.5761501 C22.6173548,43.003538 23.5415458,41.4307895 24.4658733,39.8581774 C24.5527934,39.7280019 24.6443528,39.6008285 24.7256784,39.4672417 C25.8489532,37.6214522 26.9705906,35.7748441 28.0926374,33.9283723" id="Fill-77" fill="#45496E"></path>
                <path d="M24.4658596,39.8581092 C23.5416686,41.4308577 22.6173411,43.0034698 21.6931501,44.5762183 C21.6045926,44.6737817 21.5161715,44.771345 21.427614,44.8691813 C21.3812203,44.8607212 21.3346901,44.8522612 21.2881598,44.8439376 C20.3795244,43.3428265 19.4710253,41.8415789 18.5622534,40.3403314 L18.3084522,39.7980702 C18.8758207,39.602807 19.054846,39.045809 19.3686862,38.625809 C20.0252943,37.7469201 20.7884717,36.9422612 21.2852943,35.9484795 C21.3775361,35.9472515 21.4697778,35.9462963 21.561883,35.9457505 C22.3634035,37.3735867 23.3581404,38.6578752 24.4658596,39.8581092" id="Fill-79" fill="#CACCCC"></path>
                <path d="M24.4658596,39.8581092 C23.3581404,38.6578752 22.3634035,37.3735867 21.561883,35.9457505 C22.6225263,35.1902144 23.6901287,34.4455945 24.8180429,33.7925341 C25.9114347,33.8048148 27.0048265,33.817232 28.0983548,33.8296491 C28.0901676,33.8622612 28.0882573,33.8951462 28.0926238,33.9283041 C26.970577,35.7747758 25.8489396,37.621384 24.7256647,39.4671735 C24.6444756,39.6007602 24.5527797,39.7279337 24.4658596,39.8581092" id="Fill-81" fill="#F8F8F8"></path>
                <path d="M18.562308,40.3402904 C19.4709435,41.841538 20.3794425,43.3427856 21.2882144,44.8438967 C20.135193,44.3349298 19.1490526,43.5466452 18.0667135,42.9191014 C17.6626784,42.6849493 17.2890721,42.3983996 16.9016842,42.1355926 C17.499345,41.5779123 18.2042573,41.1194327 18.562308,40.3402904" id="Fill-83" fill="#45496E"></path>
                <path d="M18.562308,40.3402904 C18.2042573,41.1194327 17.499345,41.5779123 16.9016842,42.1355926 C16.316577,41.8841111 15.8014698,41.5174639 15.2845887,41.1534094 C15.9461092,40.237269 16.6375127,39.3523762 17.695154,38.8509142 C17.8995595,39.1666647 18.1039649,39.4822788 18.3085068,39.7978928 C18.3931072,39.9788285 18.4777076,40.1594912 18.562308,40.3402904" id="Fill-85" fill="#414367"></path>
                <path d="M49.5634795,22.4724425 C49.5633431,21.1564971 49.5767154,19.8404152 49.5562476,18.5248791 C49.549152,18.0530273 49.6632261,18.0277836 50.0301462,18.2748986 C52.004883,19.6047622 53.9873977,20.9231637 55.9731871,22.2365166 C56.2541423,22.422501 56.3170468,22.531117 55.9871053,22.7482125 C53.9790741,24.0693431 51.9784113,25.4015263 49.9856628,26.7450351 C49.5903606,27.0115263 49.5565205,26.855425 49.5595224,26.4883684 C49.5700292,25.1497719 49.563616,23.8111754 49.5634795,22.4724425" id="Fill-87" fill="#FD6470"></path>
                <polygon id="Fill-89" fill="#F8F8F8" points="0 56.2940546 69.8493567 56.2940546 69.8493567 51.811462 0 51.811462"></polygon>
            </g>
        </g>
    </g>
</svg>