<?xml version="1.0" encoding="UTF-8"?>
<svg width="95px" height="102px" viewBox="0 0 95 102" version="1.1" xmlns="http://www.w3.org/2000/svg" xmlns:xlink="http://www.w3.org/1999/xlink">
    <!-- Generator: Sketch 53 (72520) - https://sketchapp.com -->
    <title>Group 59</title>
    <desc>Created with Sketch.</desc>
    <defs>
        <polygon id="path-1" points="0.179696818 1.13686838e-13 14.5575252 1.13686838e-13 14.5575252 58.9635105 0.179696818 58.9635105"></polygon>
        <polygon id="path-3" points="0.00861979379 0.00105068695 21.123718 0.00105068695 21.123718 35.0625 0.00861979379 35.0625"></polygon>
    </defs>
    <g id="Page-1" stroke="none" stroke-width="1" fill="none" fill-rule="evenodd">
        <g id="bundle-copy" transform="translate(-202.000000, -2871.000000)">
            <g id="Group-59" transform="translate(202.000000, 2871.000000)">
                <path d="M11.3508071,89.6517445 L11.3508071,89.6463656 C11.5820335,89.6463656 11.81326,89.6473617 12.0444864,89.6461664 C13.4955765,89.6383969 14.072348,89.0156391 13.9606184,87.5776781 C13.9177987,87.0294281 13.3495912,86.3431195 12.8192243,86.2628344 C12.0175996,86.1417094 11.2368868,85.9841273 10.398218,86.2285688 C9.4912369,86.4933305 8.73601677,87.2107172 8.77903564,88.0324945 C8.82484277,88.9014867 9.6925891,89.6497523 10.6571279,89.6515453 C10.8883543,89.6519438 11.1195807,89.6517445 11.3508071,89.6517445 L11.3508071,89.6517445 Z M26.3534382,89.648557 C28.6075472,89.648557 30.8618553,89.6487563 33.1161635,89.648557 C33.3149266,89.648557 33.5162788,89.6674828 33.7122537,89.6429789 C34.5363836,89.5397836 35.053805,88.9006898 35.074717,87.9791039 C35.094434,87.111307 34.6011111,86.2835531 33.921174,86.2875375 C33.0241509,86.2929164 32.1564046,86.0986781 31.2689413,86.0582367 C29.2500419,85.9661977 27.2518553,86.3305688 25.2319602,86.2674164 C23.2118658,86.2042641 21.1879874,86.2423148 19.1661006,86.2646273 C18.1368344,86.276182 17.3778302,87.35535 17.676174,88.319768 C17.9621698,89.2443422 18.492935,89.6433773 19.4913312,89.6463656 C21.7787002,89.6531391 24.0660692,89.6483578 26.3534382,89.648557 L26.3534382,89.648557 Z M12.356174,79.0857797 C11.792348,79.0881703 11.2271279,79.0686469 10.664696,79.0971352 C9.20145702,79.1710453 8.43627883,80.44485 8.98437107,81.6256195 C9.36596436,82.4473969 10.0461006,82.6868578 10.9236059,82.6850648 C18.2553354,82.6695258 25.5872642,82.6800844 32.9189937,82.6826742 C33.117956,82.6826742 33.327673,82.7223188 33.5140881,82.6735102 C34.0460482,82.5338578 34.5879665,82.4467992 34.8948742,81.8559164 C35.5533019,80.5884867 34.80326,79.1837953 33.3669078,79.097932 C32.8048742,79.0642641 32.2392558,79.0873734 31.6754298,79.0843852 C31.6776205,75.7333266 31.684392,72.3820688 31.6798113,69.0310102 C31.6776205,67.4932406 31.0974633,66.8973773 29.60674,66.8957836 C24.5317086,66.8904047 19.4562788,66.9256664 14.3818449,66.8684906 C13.0030503,66.8529516 12.3045912,67.7414672 12.3276939,68.933393 C12.3930189,72.3163266 12.3541824,75.7016508 12.356174,79.0857797 L12.356174,79.0857797 Z M3.59904612,56.3840063 C5.19273585,57.4777172 6.92484277,58.0154086 8.88857442,58.0434984 C12.5097275,58.0950961 15.8803354,55.5466898 17.0010168,52.4006273 C17.1993816,51.8436117 17.3272432,51.2612953 17.492348,50.6921273 C17.5281971,50.5682133 17.5837631,50.4500766 17.6301677,50.32935 C17.797065,50.4279633 17.7126205,50.5961039 17.7355241,50.7311742 C18.4646541,55.0279242 22.4616247,58.7481352 27.8632809,57.9072328 C31.5722642,57.3300961 34.3925891,54.3796664 35.067348,50.6451117 C35.0894549,50.5215961 35.1296855,50.4014672 35.1617505,50.2797445 C35.2001887,50.4026625 35.2471908,50.5235883 35.2760692,50.6486977 C35.6285849,52.1709281 36.1059748,53.633393 37.2403983,54.7840805 C35.9205556,58.0052484 35.2380294,61.3537172 35.2414151,64.8378539 C35.2424109,65.9905336 35.5359748,66.3835922 36.6604403,66.7696781 C36.8568134,67.0370297 37.1434067,66.9220805 37.3907652,66.9250688 C38.4435325,66.9370219 39.496499,66.9230766 40.5490671,66.9360258 C40.7908491,66.9388148 41.0887945,66.8117133 41.2491195,67.1322563 C40.5586268,67.5338813 40.4377358,68.1715805 40.4383333,68.910682 C40.4484906,79.9404281 40.4451048,90.9701742 40.4449057,101.99992 L4.59584906,101.99992 C4.54526205,101.830584 4.41720126,101.731174 4.281174,101.631565 C3.80199161,101.279944 3.55523061,100.830905 3.59068134,100.207948 C3.62991614,99.5130727 3.54965409,98.8098305 3.61139413,98.1183422 L3.59904612,56.3840063 Z" id="Fill-1" fill="#E2E7EA"></path>
                <g id="Group-5" transform="translate(57.756813, 0.000000)">
                    <mask id="mask-2" fill="white">
                        <use xlink:href="#path-1"></use>
                    </mask>
                    <g id="Clip-4"></g>
                    <path d="M9.00092138,11.3789168 C9.00092138,11.0818816 9.01247275,10.7842488 8.99873061,10.4878113 C8.95810168,9.60507305 8.20188574,8.8225418 7.38313312,8.80461211 C6.46021908,8.7842918 5.65341614,9.49450664 5.59804927,10.4358152 C5.55742034,11.1265066 5.55025052,11.8247684 5.60183333,12.5140652 C5.6691499,13.417323 6.41222117,13.9984441 7.38054403,13.9809129 C8.29230503,13.964577 8.9280283,13.3794715 8.9951457,12.4676473 C9.02163417,12.1066629 8.99932809,11.7418934 9.00092138,11.3789168 M1.49612055,3.98730352 C2.24934906,2.29792852 3.85757757,1.15421367 5.55602621,0.305541797 C5.65939099,0.253944141 5.71356289,0.104131641 5.79083753,-5.97656249e-05 L8.57909748,-5.97656249e-05 C8.76790252,0.304744922 9.11245178,0.371283984 9.40063836,0.503366016 C10.8754287,1.17931523 11.6921897,2.45112773 12.3362778,3.83051836 C12.7616866,4.74134648 13.1094224,5.6956043 13.374108,6.67874883 L14.2671478,12.4158504 C14.5027558,13.5517957 14.3280912,14.724198 14.3492023,15.8802645 C14.3593595,16.4406668 14.3398417,16.9984793 14.5575252,17.5299949 C14.1956488,17.8867957 14.4531646,18.3344402 14.3812673,18.7336746 C14.372305,19.596491 14.3555755,20.4595066 14.3553763,21.322323 C14.3527872,33.8695184 14.3523889,46.4165145 14.3515922,58.9635105 C13.0391184,58.313659 11.6615189,57.9558621 10.1863302,57.9727957 C8.56216876,57.9915223 6.93701153,58.0054676 5.31344759,57.9688113 C3.82053354,57.9349441 2.35450629,58.0686199 0.960575472,58.6057137 C0.432598532,58.8093152 0.435585954,58.6146785 0.400334382,58.2076746 C0.347357442,57.596073 0.599495807,56.9579754 0.251361635,56.3718738 C0.24498847,55.9413621 0.233437107,55.5106512 0.233237945,55.0801395 C0.223479036,43.1479324 0.215114256,31.2159246 0.206351153,19.2839168 L0.196393082,17.5594793 C0.149590147,15.416284 0.193803983,13.2710965 0.42383543,11.1426434 C0.617818658,9.3442957 0.759820755,5.63942461 1.49612055,3.98730352" id="Fill-3" fill="#E2E7EA" mask="url(#mask-2)"></path>
                </g>
                <path d="M70.1559266,86.4560766 C71.1278344,86.4730102 71.7790922,85.9401 72.0310314,85.0298695 C72.2098784,84.3832055 71.8017966,83.4956859 71.1065241,83.1753422 C69.5066604,82.4378344 67.8703501,82.461143 66.2583375,83.1165727 C65.4063249,83.4632133 65.0627715,84.3413695 65.3415975,85.1912367 C65.6451195,86.1160102 66.5017128,86.6839828 67.3800147,86.4110531 C67.8434633,86.2672172 68.2863983,86.3072602 68.7376981,86.254268 C69.2738407,86.1913148 69.767761,86.4042797 70.1559266,86.4560766 M73.9027505,93.4255453 C74.0815975,93.3769359 74.4000566,93.5343188 74.6647421,93.3390844 C75.2524675,92.9053852 75.6248994,92.3947875 75.5147631,91.5821742 C75.4207589,90.8876977 75.1285891,90.4047914 74.4900776,90.145807 C74.003327,89.9479828 73.4697736,89.9270648 72.9698784,89.8077328 C71.6779182,89.4997406 70.5136205,89.8414008 69.3716289,90.3294867 C68.5757799,90.6697523 68.2346164,91.7168461 68.5713983,92.5161117 C68.8665556,93.2163656 69.8326876,93.6709828 70.6032432,93.4940766 C71.4614298,93.2972484 72.3172264,93.037268 73.2022998,93.4153852 C73.3701929,93.4871039 73.594847,93.4255453 73.9027505,93.4255453 M57.8796164,96.6166313 C58.9847631,96.6210141 59.636021,96.154643 59.760696,95.2754906 C59.8831803,94.4110805 59.3398679,93.5110102 58.4261153,93.2342953 C56.8557275,92.7589594 55.2704025,92.8097602 53.7378553,93.3874945 C52.7482222,93.7606313 52.4204025,94.6336078 52.7771006,95.6336859 C53.1102977,96.5680219 53.8559581,96.9274125 54.8780545,96.6817758 C55.6711153,96.4913227 56.4647736,96.2387133 57.2875094,96.6058734 C57.4536101,96.6799828 57.6806541,96.6166313 57.8796164,96.6166313 M59.7328134,85.8502523 C58.8170692,85.9126078 57.911283,86.0391117 57.071021,86.4337641 C56.3520482,86.7714398 56.0867652,87.3463852 56.1791761,88.2384867 C56.2458952,88.8833578 56.6822579,89.4620883 57.3058323,89.5971586 C57.7844172,89.7005531 58.2797317,89.6981625 58.7716604,89.5541273 C59.4145535,89.3654672 60.0825409,89.3690531 60.7208532,89.5485492 C61.0187987,89.6324203 61.3037987,89.6547328 61.5969644,89.6487563 C62.4238826,89.6326195 62.9363249,89.151307 63.2474151,88.4404945 C63.5447631,87.7617563 63.2296897,87.2372133 62.7582746,86.7600844 C62.4748679,86.4734086 62.1842914,86.2345453 61.7660524,86.1642211 C61.0908952,86.0508656 60.43426,85.8175805 59.7328134,85.8502523 M76.8913669,101.99992 L53.5894801,101.99992 C53.5179811,101.937963 53.4542495,101.834967 53.3737883,101.819827 C50.7108008,101.314209 48.4616709,98.1526078 49.5592495,95.0774672 C50.0832432,93.6096234 51.0659057,92.6452055 52.3833585,91.9401703 C53.046566,91.5851625 53.0607065,91.5512953 52.9171111,90.885307 C52.5219748,89.0526938 52.9372264,87.4539633 54.2477086,86.0773617 C54.8091447,85.487475 55.4623941,85.0754906 56.1929182,84.7617211 C56.5199413,84.6210727 56.5990084,84.4579125 56.5026143,84.0778031 C56.2658113,83.1446625 56.2357379,82.1740688 56.501021,81.2475023 C57.1634319,78.9337758 58.7694696,77.6812875 61.22513,77.4866508 C61.3675304,77.4752953 61.478065,77.4342563 61.5535472,77.3119359 C64.6108742,77.3199047 67.6684004,77.3280727 70.7257275,77.3362406 C70.6936625,77.5017914 70.3594696,77.5964203 70.4445115,77.6326781 C71.1254444,77.9217445 71.6285262,78.5602406 72.4932851,78.5128266 C73.5741342,78.4532602 73.9226667,78.9419438 73.6316918,79.9976039 C73.5402767,80.3289047 73.4410943,80.6502445 73.5556122,80.9604281 C73.9312306,81.9778383 73.9915765,83.015768 73.6733166,84.0343734 C73.5281279,84.4997484 73.6129706,84.6904008 74.0286205,84.8346352 C75.6758847,85.4069906 76.6511782,86.6021039 77.1745744,88.2245414 C77.3950461,88.9080609 77.2576247,89.6035336 77.2855073,90.2926313 C77.3205597,91.1562445 77.3054235,91.1570414 78.1626143,91.242307 C78.8447421,91.3102406 79.2378868,91.5144398 79.1546373,92.0581078 C79.0462935,92.7657328 79.4754864,93.1312992 79.7714403,93.5815336 C80.2281174,94.2760102 80.5800356,94.9927992 80.7752138,95.8078031 C81.1607904,97.4182875 80.2422579,99.8501508 78.8917442,100.813971 C78.254826,101.268588 77.5211153,101.543311 76.8913669,101.99992" id="Fill-6" fill="#C7CFD7"></path>
                <g id="Group-10" transform="translate(40.429769, 66.937500)">
                    <mask id="mask-4" fill="white">
                        <use xlink:href="#path-3"></use>
                    </mask>
                    <g id="Clip-9"></g>
                    <path d="M8.01152725,13.967884 L8.01152725,13.9461691 C7.6803218,13.9461691 7.34712474,13.9228605 7.01830922,13.9503527 C6.10754403,14.0264543 5.4674392,14.5998059 5.39235535,15.3791496 C5.29257547,16.418673 5.65783753,17.0460129 6.59529036,17.3476301 C7.48912683,17.6349035 8.39969287,17.6576145 9.30189413,17.3667551 C10.1475335,17.0940246 10.5807096,16.5220676 10.5733407,15.7172238 C10.5665692,14.9681613 9.93940985,14.1282551 9.19852935,13.9810324 C8.81713522,13.9055285 8.40805765,13.967884 8.01152725,13.967884 M21.123718,10.3743762 C21.0482358,10.4966965 20.9377013,10.5377355 20.7953008,10.549091 C18.3396405,10.7437277 16.7336027,11.9964152 16.071391,14.3101418 C15.806108,15.236509 15.8359822,16.2071027 16.0729843,17.1404426 C16.1691792,17.5203527 16.0901122,17.6835129 15.7630891,17.8241613 C15.032565,18.1381301 14.3795147,18.5499152 13.8178795,19.139802 C12.5073973,20.5164035 12.0921457,22.115134 12.4874811,23.9479465 C12.6308774,24.6137355 12.6167369,24.6476027 11.9535294,25.0028098 C10.6362757,25.7078449 9.65341405,26.6722629 9.12942034,28.1401066 C8.03204088,31.215048 10.2811709,34.3766496 12.9441583,34.8822668 C13.0244203,34.8976066 13.088152,35.0004035 13.1598501,35.0625598 L0.0151960168,35.0625598 C0.0153951782,24.0326145 0.0187809224,13.0028684 0.00862368973,1.97312227 C0.00782704402,1.2340207 0.128718029,0.596321484 0.819409853,0.194696484 C1.10859224,-0.00870585937 1.43860273,0.00225117188 1.77120231,0.00245039063 C5.64748113,0.00504023438 9.52395912,0.00384492188 13.4002379,0.00364570313 C13.4996195,0.00364570313 13.5995985,0.0122121094 13.6981834,0.00404414063 C14.049305,-0.0246433594 14.164022,0.154255078 14.1552589,0.480774609 C14.1437075,0.911286328 14.1433092,1.34279414 14.1568522,1.77310664 C14.1883197,2.77079414 14.7694727,3.35430586 15.7668732,3.38438789 C16.3629633,3.4025168 16.9594518,3.39673945 17.5555419,3.40191914 C17.5507621,5.08810664 17.5350283,6.77429414 17.5451855,8.46028242 C17.5521562,9.62172773 18.2980157,10.3556496 19.4386132,10.3658098 C20.0002484,10.3707902 20.5620828,10.3715871 21.123718,10.3743762" id="Fill-8" fill="#B7937C" mask="url(#mask-4)"></path>
                </g>
                <path d="M87.8441499,102 L76.8914665,102 C77.5212149,101.543391 78.2549256,101.268469 78.8918438,100.814051 C80.2421583,99.8502305 81.1606908,97.4183672 80.7753134,95.8078828 C80.5799361,94.9926797 80.228217,94.2760898 79.7715398,93.5814141 C79.4753868,93.1311797 79.0461939,92.7656133 79.1545377,92.0581875 C79.2377872,91.5143203 78.8446426,91.3103203 78.1627138,91.2423867 C77.3055231,91.1569219 77.3204602,91.156125 77.2854078,90.2925117 C77.2577243,89.6034141 77.3949465,88.9079414 77.174674,88.2246211 C76.6512778,86.6021836 75.6757851,85.4070703 74.0287201,84.8347148 C73.6130702,84.6902813 73.5280283,84.4996289 73.6734161,84.0342539 C73.9914769,83.0158477 73.9313302,81.9777188 73.5557117,80.9605078 C73.4411939,80.6503242 73.5403763,80.3289844 73.6317914,79.9976836 C73.9227662,78.9420234 73.5742338,78.4533398 72.4933847,78.5129063 C71.6284266,78.5603203 71.125544,77.9218242 70.4446111,77.6327578 C70.3595692,77.5965 70.6937621,77.5016719 70.725827,77.3361211 C71.7262149,77.0456602 72.1123889,76.3302656 72.1103973,75.3419414 C72.1070115,73.6695 72.1070115,71.9968594 72.1056174,70.3246172 C72.5698627,70.3246172 73.0360996,70.2949336 73.4975566,70.3305938 C74.703479,70.4238281 75.2852296,69.9299648 75.6096635,68.7254883 C75.6994853,68.3921953 75.6757851,68.0706563 75.6857432,67.7437383 C75.7100409,66.9430781 75.7038669,66.9323203 76.5088774,66.9323203 C80.2881646,66.9323203 84.0674518,66.9386953 87.846739,66.9426797 L87.8461415,79.0715156 C87.8461415,79.2703359 87.8572945,79.4699531 87.8439507,79.6677773 L87.8308061,85.5554883 C87.8742233,89.3990156 87.8473365,93.2435391 87.8441499,97.0876641 L87.8441499,102 Z" id="Fill-11" fill="#E2E7EA"></path>
                <path d="M37.2403187,54.7839809 C36.1060943,53.6334926 35.6287044,52.1710277 35.2761887,50.648598 C35.2471111,50.5234887 35.2003082,50.4025629 35.1616709,50.2798441 C35.129805,50.4013676 35.0895744,50.5214965 35.0672683,50.6450121 C34.3927086,54.379766 31.5721845,57.3299965 27.8632013,57.9073324 C22.4615451,58.7480355 18.4645744,55.0280238 17.7354444,50.7310746 C17.7125409,50.5960043 17.7969853,50.4278637 17.6302872,50.3294496 C17.5836834,50.4501762 17.5281174,50.5683129 17.4922683,50.6920277 C17.3273627,51.2611957 17.199501,51.8435121 17.0009371,52.4005277 C15.8804549,55.5465902 12.5096478,58.0949965 8.88849476,58.0433988 C6.92496226,58.0155082 5.19265618,57.4776176 3.59896646,56.3839066 C1.72187002,54.7823871 0.535465409,52.7844223 0.107069182,50.3420004 C0.0317861635,49.9132816 0.0180440252,49.4865551 0.0176457023,49.0564418 C0.0148574423,46.7032699 0.049312369,44.3495004 0.00111530398,41.9971254 C-0.02178826,40.883891 0.310213836,39.9354105 0.890171908,39.0144223 C3.51492034,34.8463676 6.11995178,30.6657621 8.73135639,26.4893402 C8.76620964,26.4333598 8.79210063,26.3720004 8.822174,26.3130316 C12.2593019,26.308848 15.6964298,26.3046645 19.1335577,26.3004809 C19.2644067,26.5644457 19.4281174,26.8068949 19.2241761,27.1286332 C19.0680335,27.3742699 18.9825933,27.6601488 18.8981488,27.949016 C18.4854864,29.3584887 18.0150671,30.7510277 17.6008113,32.160102 C17.0110943,34.1652387 16.4460734,36.1767504 15.8075618,38.1679418 C15.4446897,39.2999027 16.3867233,40.4125395 17.5701405,40.4513871 C18.868673,40.4940199 19.2554444,39.625227 19.5245115,38.7279457 C20.0021006,37.1349926 20.4490189,35.5328754 20.8981279,33.9315551 C21.5149308,31.7319809 22.1126143,29.5270277 22.7413669,27.3310395 C22.856283,26.929016 22.8752034,26.4658324 23.5740608,26.476391 C26.5917547,26.5222113 29.6104444,26.490934 32.628935,26.4995004 C33.3857484,26.501891 33.4646164,26.591141 33.4717862,27.3738715 C33.4825409,28.5681879 33.4749727,29.7625043 33.4747736,30.9570199 C33.4745744,33.5448715 33.4687987,36.132723 33.4763669,38.7207738 C33.4793543,39.7262309 34.2234214,40.4525824 35.2032956,40.4416254 C36.2365451,40.4300707 36.8537463,39.8304223 36.8567338,38.771973 C36.866891,35.1555551 36.8704759,31.5389379 36.8491656,27.9227191 C36.845979,27.381641 36.6989979,26.841559 36.8625094,26.3012777 C43.1683585,26.3000824 49.4740084,26.2990863 55.7798574,26.2984887 C56.0120797,26.2984887 56.2443019,26.3018754 56.4765241,26.3086488 C56.7491761,26.3166176 56.7609266,26.5347621 56.8047421,26.7256137 C56.1739979,30.4665434 55.031608,34.0331566 53.1895639,37.3623012 C52.1857904,39.1767855 50.9478029,40.8069926 49.343956,42.130602 C47.9649623,43.2687387 46.5335891,44.3435238 45.1567862,45.4840512 C41.9753816,48.1187191 39.0118595,50.945434 37.2403187,54.7839809" id="Fill-13" fill="#E92D4C"></path>
                <path d="M56.8047222,26.7256535 C56.7609067,26.534802 56.7491562,26.3166574 56.4767034,26.3086887 C56.2444811,26.3019152 56.0122589,26.2983293 55.7798375,26.2983293 C49.4739885,26.298927 43.1683386,26.3001223 36.8624895,26.3013176 C30.9529717,26.3011184 25.0432547,26.3007199 19.1337369,26.3005207 C15.6964099,26.3047043 12.259282,26.3088879 8.82215409,26.3130715 C8.81080189,24.5220949 8.71759434,22.727134 8.80980608,20.9415363 C8.91137841,18.9782355 10.2284329,17.7428801 12.2825839,17.5582043 C12.6117977,17.5287199 12.9457914,17.5512316 13.2773952,17.5512316 C22.8644287,17.5510324 32.4516614,17.5518293 42.038695,17.5496379 C42.7680241,17.5496379 43.4975524,17.5301145 44.2270807,17.5197551 C45.0912421,17.5201535 45.9552044,17.520552 46.8193658,17.5209504 C50.5305398,17.5337004 54.241913,17.5466496 57.9532862,17.5593996 L57.9630451,19.2838371 C57.9152463,19.3677082 57.8276153,19.4509816 57.8256237,19.5358488 C57.7941562,20.9875559 57.5734853,22.4199387 57.3643658,23.8513254 C57.2233595,24.8161418 57.1482757,25.7984895 56.8047222,26.7256535" id="Fill-15" fill="#FE5E7F"></path>
                <path d="M82.5453606,54.3781523 C82.8582432,54.3432891 83.1968176,54.4795547 83.4957589,54.2450742 C84.3437883,53.5810781 84.8761468,52.5050977 83.7937044,51.4111875 C82.6315975,50.2371914 81.2227296,49.3757695 79.9905178,48.2900273 C79.3428449,47.7194648 78.1488721,47.9266523 77.7063354,48.6135586 C77.1096478,49.540125 77.0214193,50.1867891 77.882195,50.9756953 C78.8029182,51.8193867 79.776021,52.6037109 80.6875828,53.462543 C81.180109,53.9265234 81.6730335,54.5881289 82.5453606,54.3781523 M72.1085052,58.9635703 C72.1093019,46.416375 72.1097002,33.8693789 72.1120901,21.3223828 C72.1122893,20.4593672 72.1290189,19.5965508 72.1379811,18.7337344 C72.1827925,18.8178047 72.2660419,18.901875 72.2664403,18.9863438 C72.2712201,20.512957 72.5036415,22.0182539 72.7211258,23.5215586 C72.8663145,24.5240273 72.9579287,25.5414375 73.2783795,26.5132266 C73.3759686,27.5340234 73.6575828,28.5169688 73.9075304,29.5050938 C74.5149727,31.9070742 75.3470692,34.2253828 76.4317023,36.4580273 C77.8533166,39.3853477 80.0233795,41.6357227 82.5776247,43.5954375 C85.6472998,45.9504023 88.5903082,48.4559766 90.9880126,51.5313164 C92.6404549,53.9440547 93.7884214,56.578125 94.3363145,59.4500625 C94.5755073,60.7047422 94.8093229,61.9693828 94.8248574,63.2583281 C94.829239,63.6195117 94.8644906,63.9828867 94.9184633,64.3402852 C95.1084633,65.5991484 94.7949832,66.1972031 93.6169434,66.7785234 C91.8266813,66.7815117 90.0362201,66.7841016 88.2459581,66.7868906 C87.9163459,66.7731445 87.5865346,66.7478438 87.2567233,66.7474453 C83.7162306,66.744457 80.1755388,66.7456523 76.634847,66.7454531 C75.5992075,66.7452539 75.6796688,66.8123906 75.6888302,65.7664922 C75.6961992,64.9076602 75.5410524,64.0765195 75.3458742,63.2457773 C74.8973627,61.3378594 73.7175304,59.9899453 72.1085052,58.9635703" id="Fill-17" fill="#449CEF"></path>
                <path d="M72.1084455,58.9634906 C73.7174706,59.9898656 74.8973029,61.3377797 75.3458145,63.2456977 C75.5409927,64.0764398 75.6963386,64.9077797 75.6889696,65.7664125 C75.6798082,66.8123109 75.5991478,66.7453734 76.6349864,66.7455727 C80.175479,66.7455727 83.7161709,66.7445766 87.2568627,66.7473656 C87.586674,66.7477641 87.9162862,66.7730648 88.2458983,66.7870102 C88.2433092,66.8328305 88.2379319,66.8786508 88.2305629,66.9242719 C88.1027013,66.9304477 87.9746405,66.9364242 87.8465797,66.9427992 C84.0674916,66.9386156 80.2880052,66.9322406 76.5089172,66.9322406 C75.7039067,66.9322406 75.7100807,66.9431977 75.685783,67.7436586 C75.6758249,68.0707758 75.699326,68.3921156 75.6097034,68.7254086 C75.2852694,69.9300844 74.7033197,70.4237484 73.4975964,70.3307133 C73.0361394,70.2948539 72.5697034,70.3245375 72.1054581,70.3245375 C67.3988753,70.329518 62.6920933,70.3344984 57.9853113,70.3394789 C57.3892212,70.3342992 56.7927327,70.3398773 56.1966426,70.3219477 C55.1992421,70.2916664 54.6180891,69.7083539 54.5866216,68.7106664 C54.5730786,68.2803539 54.5734769,67.8488461 54.5850283,67.4181352 C54.5937914,67.0918148 54.4790744,66.9127172 54.1279528,66.9416039 C54.0293679,66.9497719 53.9293889,66.9412055 53.8300073,66.9412055 C49.9537285,66.9414047 46.0772505,66.9426 42.2009717,66.9400102 C41.8683721,66.9398109 41.5383616,66.9286547 41.2491792,67.1322563 C41.0888543,66.8117133 40.7907096,66.9388148 40.5491268,66.9360258 C39.4963595,66.9230766 38.4433931,66.9370219 37.3908249,66.9250688 C37.1434665,66.9220805 36.856674,67.0370297 36.6603008,66.7696781 C36.9584455,66.7617094 37.2565901,66.7463695 37.5547348,66.7463695 C42.6982778,66.7451742 47.8418208,66.7455727 52.9851646,66.7455727 C54.5686971,66.7455727 54.5559507,66.7453734 54.5832358,65.2056117 C54.5929948,64.6479984 54.5234874,64.0897875 54.6856048,63.5303813 C55.1639906,61.8770648 55.8927222,60.406432 57.3918103,59.426475 C57.793718,59.1641039 58.0277327,58.8033188 57.9869046,58.2604477 C57.9395042,57.6351 57.9966635,57.0017836 58.0082149,56.3718539 C58.3563491,56.9579555 58.1042107,57.5960531 58.1571876,58.2076547 C58.1924392,58.6146586 58.1892526,58.8092953 58.7174287,58.6056938 C60.1113595,58.0686 61.5773868,57.9349242 63.0703008,57.9687914 C64.6938648,58.0054477 66.319022,57.9915023 67.9431834,57.9727758 C69.4183721,57.9558422 70.7959717,58.3136391 72.1084455,58.9634906" id="Fill-19" fill="#A6AFBB"></path>
                <path d="M90.9879528,51.5313164 C88.5902484,48.4559766 85.6474392,45.9504023 82.577565,43.5954375 C80.0233197,41.6357227 77.853456,39.3853477 76.4316426,36.4580273 C75.3472086,34.2253828 74.514913,31.9070742 73.9074706,29.5050938 C73.6575231,28.5169688 73.3759088,27.5340234 73.2783197,26.5132266 C73.4418312,26.2040391 73.735196,26.3026523 73.9849444,26.3026523 C76.865217,26.3020547 79.7454895,26.3086289 82.6259612,26.3134102 C85.2632568,30.5414297 87.8897977,34.7764219 90.5466111,38.9926875 C91.147282,39.94575 91.4747034,40.9235156 91.4512023,42.0652383 C91.4032044,44.4142266 91.4304895,46.7648086 91.4292945,49.1145938 C91.4286971,49.9475273 91.2960556,50.7551602 90.9879528,51.5313164" id="Fill-21" fill="#E32D4A"></path>
                <path d="M82.6258816,26.3133105 C79.7454099,26.3087285 76.8651373,26.3021543 73.9848648,26.3025527 C73.7351164,26.3025527 73.4419507,26.2041387 73.27824,26.513127 C72.9579885,25.5413379 72.8663742,24.524127 72.7211855,23.5216582 C72.5037013,22.0183535 72.2712799,20.5130566 72.2663008,18.9864434 C72.2659025,18.9019746 72.182653,18.8179043 72.1380409,18.7336348 C72.2099382,18.3344004 71.9524224,17.8867559 72.3144979,17.5299551 C74.5014895,17.5367285 76.6896761,17.5917129 78.8752736,17.5369277 C81.0766048,17.4815449 82.7461751,19.315752 82.6738795,21.343998 C82.6149277,22.9989082 82.6386279,24.6568066 82.6258816,26.3133105" id="Fill-23" fill="#FE5D7F"></path>
                <path d="M88.2306027,66.9242719 C88.2379717,66.8786508 88.2431499,66.8328305 88.2459382,66.7870102 C90.0362002,66.7842211 91.8266614,66.781432 93.6169235,66.778643 C93.4886635,66.9932016 93.2761583,66.9406078 93.0851625,66.9402094 C91.4669759,66.9366234 89.8487893,66.9300492 88.2306027,66.9242719" id="Fill-25" fill="#E2E7EA"></path>
                <path d="M47.4458878,54.3871172 C48.154305,54.3835313 48.3136342,54.3108164 48.8669046,53.8338867 C49.7633302,53.060918 50.6565692,52.2833672 51.5792841,51.5426719 C51.8597034,51.3175547 52.1897138,51.1500117 52.4207411,50.864332 C52.9652484,50.1901758 52.9417474,49.1564297 52.3745356,48.492832 C51.9592841,48.0071367 50.694609,47.7517383 50.2030786,48.1487813 C48.8220933,49.2640078 47.3813595,50.3158828 46.1457621,51.5964609 C45.7159717,52.0419141 45.4524811,52.6072969 45.774326,53.2963945 C46.1162862,54.0285234 46.6002484,54.4650117 47.4458878,54.3871172 M58.0082149,56.3719336 C57.9966635,57.0018633 57.9395042,57.6351797 57.9869046,58.2603281 C58.0277327,58.8033984 57.793718,59.1641836 57.3918103,59.4265547 C55.8927222,60.4065117 55.1639906,61.8771445 54.6856048,63.5304609 C54.5234874,64.0898672 54.5929948,64.6480781 54.5832358,65.2056914 C54.5559507,66.7452539 54.5686971,66.7454531 52.9851646,66.7454531 C47.8418208,66.7454531 42.6982778,66.7450547 37.5547348,66.7464492 C37.2565901,66.7464492 36.9584455,66.7615898 36.6603008,66.7695586 C35.5358354,66.3836719 35.2424706,65.9906133 35.2414748,64.8379336 C35.2380891,61.3537969 35.9206153,58.0053281 37.2402589,54.7839609 C39.0117998,50.9456133 41.975521,48.1188984 45.1567264,45.4840313 C46.5335294,44.3435039 47.9649025,43.2687188 49.3438962,42.1307813 C50.9477432,40.8069727 52.1857306,39.1767656 53.1895042,37.3622813 C55.0315482,34.0331367 56.1739382,30.4665234 56.8046824,26.7255938 C57.1482358,25.7984297 57.2233197,24.816082 57.364326,23.8512656 C57.5736447,22.4200781 57.7941164,20.9876953 57.8255839,19.5359883 C57.8275755,19.4509219 57.9152065,19.3678477 57.9632044,19.2837773 C57.9719675,31.2157852 57.9803323,43.1479922 57.989892,55.0801992 C57.9900912,55.5107109 58.0018417,55.9414219 58.0082149,56.3719336" id="Fill-27" fill="#449CEF"></path>
                <path d="M12.3562338,79.0857598 C12.354043,75.7016309 12.3930786,72.3165059 12.3275545,68.933373 C12.3046509,67.7414473 13.0031101,66.8529316 14.3819046,66.8684707 C19.4561394,66.9256465 24.5315692,66.8903848 29.6066006,66.8959629 C31.0975231,66.8973574 31.6776803,67.4934199 31.6796719,69.0309902 C31.6844518,72.382248 31.6774811,75.7333066 31.6752904,79.0843652 C25.2356048,79.0849629 18.7959193,79.0853613 12.3562338,79.0857598" id="Fill-29" fill="#00C2EB"></path>
                <path d="M12.3562338,79.0857598 C18.7959193,79.0853613 25.2356048,79.0849629 31.6752904,79.0843652 C32.2393155,79.0873535 32.8047348,79.0644434 33.3669675,79.0981113 C34.8033197,79.1837754 35.5533616,80.5884668 34.894934,81.8558965 C34.5880262,82.4467793 34.046108,82.5340371 33.5141478,82.6734902 C33.3277327,82.7222988 33.1180157,82.6826543 32.9190535,82.6826543 C25.5873239,82.6800645 18.2553952,82.6695059 10.9236656,82.6850449 C10.0459612,82.6868379 9.36602411,82.447377 8.98443082,81.6255996 C8.43633857,80.4448301 9.20151677,79.1710254 10.6645566,79.0971152 C11.2271876,79.068627 11.7922086,79.0881504 12.3562338,79.0857598" id="Fill-31" fill="#A6AFBC"></path>
                <path d="M26.3534382,89.6486367 C24.0660692,89.6484375 21.7787002,89.6530195 19.4913312,89.6462461 C18.492935,89.643457 17.9621698,89.2444219 17.676174,88.3198477 C17.3778302,87.3552305 18.1368344,86.2760625 19.1661006,86.264707 C21.1879874,86.2421953 23.2118658,86.2043438 25.2319602,86.2672969 C27.2518553,86.3306484 29.2500419,85.9662773 31.2689413,86.0583164 C32.1564046,86.0987578 33.0241509,86.2927969 33.921174,86.2876172 C34.6011111,86.2834336 35.094434,87.1113867 35.074717,87.9789844 C35.053805,88.9007695 34.5363836,89.5396641 33.7122537,89.6430586 C33.5162788,89.6675625 33.3149266,89.6486367 33.1161635,89.6486367 C30.8618553,89.6488359 28.6075472,89.6486367 26.3534382,89.6486367" id="Fill-33" fill="#A4ADB9"></path>
                <path d="M11.3508071,89.6517445 C11.1195807,89.6517445 10.8883543,89.6519438 10.6571279,89.6515453 C9.6925891,89.6497523 8.82484277,88.9014867 8.77903564,88.0324945 C8.73601677,87.2107172 9.4912369,86.4933305 10.398218,86.2285688 C11.2368868,85.9841273 12.0175996,86.1417094 12.8192243,86.2628344 C13.3495912,86.3431195 13.9177987,87.0294281 13.9606184,87.5776781 C14.072348,89.0156391 13.4955765,89.6383969 12.0444864,89.6461664 C11.81326,89.6473617 11.5820335,89.6463656 11.3508071,89.6463656 L11.3508071,89.6517445 Z" id="Fill-35" fill="#9EA7B2"></path>
                <path d="M66.7569581,11.3789168 C66.7561614,11.7418934 66.7782683,12.1066629 66.751979,12.4676473 C66.6848616,13.3794715 66.0491384,13.964577 65.1373774,13.9809129 C64.1690545,13.9984441 63.4259832,13.417323 63.3586667,12.5140652 C63.3070839,11.8247684 63.3142537,11.1265066 63.3548826,10.4358152 C63.4102495,9.49450664 64.2170524,8.7842918 65.1399665,8.80461211 C65.9587191,8.8225418 66.714935,9.60507305 66.7555639,10.4878113 C66.7693061,10.7842488 66.7577547,11.0818816 66.7569581,11.3789168" id="Fill-37" fill="#02D6F4"></path>
                <path d="M57.9852914,70.3393992 C62.6920734,70.334618 67.3988553,70.3294383 72.1054382,70.324657 C72.1070314,71.9968992 72.1070314,73.6695398 72.1104172,75.341782 C72.1124088,76.3303055 71.7262348,77.0457 70.725847,77.3361609 C67.6683208,77.327993 64.6109937,77.319825 61.5534675,77.3118563 C60.9918323,77.3090672 60.4299979,77.3082703 59.8683627,77.3032898 C58.7279644,77.2931297 57.9819057,76.5592078 57.974935,75.3979617 C57.9647778,73.7117742 57.9807107,72.0255867 57.9852914,70.3393992" id="Fill-39" fill="#616C77"></path>
                <path d="M59.7328333,85.8502523 C60.4342799,85.8175805 61.0909151,86.0508656 61.7660723,86.1642211 C62.1843113,86.2345453 62.4748878,86.4734086 62.7582945,86.7600844 C63.2297096,87.2372133 63.544783,87.7617562 63.247435,88.4404945 C62.9363449,89.151307 62.4239025,89.6326195 61.5969843,89.6487562 C61.3038187,89.6547328 61.0188187,89.6324203 60.7208732,89.5485492 C60.0825608,89.3690531 59.4145734,89.3654672 58.7716803,89.5541273 C58.2797516,89.6981625 57.7844371,89.7005531 57.3058522,89.5971586 C56.6822778,89.4620883 56.2459151,88.8833578 56.179196,88.2384867 C56.0867851,87.3463852 56.3520681,86.7714398 57.0710409,86.4337641 C57.9113029,86.0391117 58.8170891,85.9126078 59.7328333,85.8502523" id="Fill-41" fill="#A6AFBB"></path>
                <path d="M57.879696,96.6166113 C57.6807338,96.6166113 57.4534906,96.6799629 57.2873899,96.6058535 C56.4648532,96.2388926 55.671195,96.4913027 54.8781342,96.6817559 C53.8560377,96.9273926 53.1103774,96.568002 52.7771803,95.633666 C52.4204822,94.6335879 52.7481027,93.7606113 53.737935,93.3874746 C55.270283,92.8097402 56.855608,92.7589395 58.4259958,93.2342754 C59.3399476,93.5109902 59.88326,94.4110605 59.7605765,95.2754707 C59.6359015,96.154623 58.9848428,96.6209941 57.879696,96.6166113" id="Fill-43" fill="#A1AAB5"></path>
                <path d="M73.9028501,93.425625 C73.5947474,93.425625 73.3700933,93.4871836 73.2022002,93.4152656 C72.3171268,93.0373477 71.4613302,93.2971289 70.6033428,93.4941563 C69.8325881,93.6708633 68.8666551,93.2162461 68.5712987,92.5161914 C68.2345168,91.7169258 68.5758795,90.669832 69.3717285,90.3295664 C70.513521,89.8414805 71.6778187,89.4998203 72.9697788,89.8078125 C73.469674,89.9269453 74.0034266,89.9480625 74.489978,90.1456875 C75.1284895,90.4048711 75.4206593,90.8877773 75.5148627,91.5822539 C75.6247998,92.394668 75.2523679,92.9054648 74.6646426,93.3389648 C74.399957,93.5343984 74.0814979,93.3770156 73.9028501,93.425625" id="Fill-45" fill="#A7AFBB"></path>
                <path d="M70.1559266,86.4560766 C69.767761,86.4042797 69.2738407,86.1913148 68.7376981,86.254268 C68.2863983,86.3072602 67.8434633,86.2672172 67.3800147,86.4110531 C66.5017128,86.6839828 65.6451195,86.1160102 65.3415975,85.1912367 C65.0627715,84.3413695 65.4063249,83.4632133 66.2583375,83.1165727 C67.8703501,82.461143 69.5066604,82.4378344 71.1065241,83.1753422 C71.8017966,83.4956859 72.2098784,84.3832055 72.0310314,85.0298695 C71.7790922,85.9401 71.1278344,86.4730102 70.1559266,86.4560766" id="Fill-47" fill="#9FA8B3"></path>
                <path d="M48.4412966,80.905384 C48.837827,80.905384 49.2469046,80.8430285 49.6282987,80.9185324 C50.3691792,81.0657551 50.9963386,81.9056613 51.0031101,82.6547238 C51.010479,83.4595676 50.5773029,84.0315246 49.7316635,84.3042551 C48.8294623,84.5951145 47.9188962,84.5724035 47.0250597,84.2851301 C46.0876069,83.9835129 45.7223449,83.356173 45.8221247,82.3166496 C45.8972086,81.5373059 46.5373134,80.9639543 47.4480786,80.8878527 C47.7768941,80.8603605 48.1100912,80.8836691 48.4412966,80.8836691 L48.4412966,80.905384 Z" id="Fill-49" fill="#98755E"></path>
                <path d="M36.0633344,34.4649434 C36.0633344,33.4359785 36.0681143,32.4072129 36.0613428,31.3784473 C36.0577579,30.8515137 36.0334602,30.3247793 36.0185231,29.7980449 C35.469435,30.0068262 35.1868249,30.5234004 34.7689843,30.8839863 C34.4652631,31.145959 34.2503679,31.4248652 34.2569403,31.8954199 C34.2880094,34.1517715 34.2704832,36.4089199 34.2718774,38.6656699 C34.2718774,38.8619004 34.2555461,39.0559395 34.3790262,39.238623 C34.639131,39.6223184 35.0149486,39.7300957 35.4222338,39.6237129 C35.8402736,39.5143418 36.0709025,39.216709 36.0673176,38.7463535 C36.0559654,37.3193496 36.0631352,35.8921465 36.0633344,34.4649434 M19.1336174,26.3005605 C25.0431352,26.3007598 30.9528522,26.3011582 36.8625692,26.3013574 C36.6990577,26.8414395 36.8460388,27.3817207 36.8490262,27.9227988 C36.8703365,31.5390176 36.8669507,35.1554355 36.8565943,38.7720527 C36.8536069,39.830502 36.2366048,40.4301504 35.2033553,40.4415059 C34.223282,40.4526621 33.479414,39.7263105 33.4764266,38.7206543 C33.4686593,36.1328027 33.474435,33.5449512 33.4748333,30.9570996 C33.4748333,29.762584 33.4826006,28.5680684 33.4716468,27.373752 C33.4644769,26.5912207 33.3858082,26.5017715 32.6287956,26.4995801 C29.6105042,26.4910137 26.5918145,26.522291 23.5741205,26.4764707 C22.8752631,26.4659121 22.8563428,26.9290957 22.7412275,27.3311191 C22.112674,29.5271074 21.5147914,31.7320605 20.8981876,33.9314355 C20.4490786,35.5327559 20.0019612,37.1350723 19.5245713,38.7278262 C19.2555042,39.6251074 18.8687327,40.4939004 17.5702002,40.4512676 C16.386783,40.4124199 15.4447495,39.2999824 15.8076216,38.1680215 C16.4461331,36.1768301 17.0111541,34.1653184 17.6006719,32.1601816 C18.0149277,30.7509082 18.4855461,29.3585684 18.8982086,27.9488965 C18.982653,27.6600293 19.0680933,27.3743496 19.2240367,27.1285137 C19.4281771,26.8069746 19.2642673,26.5645254 19.1336174,26.3005605" id="Fill-51" fill="#FE415E"></path>
                <path d="M82.5453606,54.3781523 C81.6730335,54.5881289 81.180109,53.9265234 80.6875828,53.462543 C79.776021,52.6037109 78.8029182,51.8193867 77.882195,50.9756953 C77.0214193,50.1867891 77.1096478,49.540125 77.7063354,48.6135586 C78.1488721,47.9266523 79.3428449,47.7194648 79.9905178,48.2900273 C81.2227296,49.3757695 82.6315975,50.2371914 83.7937044,51.4111875 C84.8761468,52.5050977 84.3437883,53.5810781 83.4957589,54.2450742 C83.1968176,54.4795547 82.8582432,54.3432891 82.5453606,54.3781523" id="Fill-53" fill="#2A82D5"></path>
                <path d="M47.4458878,54.3871172 C46.6002484,54.4650117 46.1162862,54.0285234 45.774326,53.2963945 C45.4524811,52.6072969 45.7159717,52.0419141 46.1457621,51.5964609 C47.3813595,50.3158828 48.8220933,49.2640078 50.2030786,48.1487813 C50.694609,47.7517383 51.9592841,48.0071367 52.3745356,48.492832 C52.9417474,49.1564297 52.9652484,50.1901758 52.4207411,50.864332 C52.1897138,51.1500117 51.8597034,51.3175547 51.5792841,51.5426719 C50.6565692,52.2833672 49.7633302,53.060918 48.8669046,53.8338867 C48.3136342,54.3108164 48.154305,54.3835313 47.4458878,54.3871172" id="Fill-55" fill="#2A82D5"></path>
                <path d="M36.0632547,34.4649434 C36.0632547,35.8921465 36.0558857,37.3193496 36.0672379,38.7463535 C36.071022,39.216709 35.8401939,39.5143418 35.4221541,39.6237129 C35.0150681,39.7300957 34.6390514,39.6223184 34.3791457,39.238623 C34.2554665,39.0559395 34.2719969,38.8619004 34.2717977,38.6656699 C34.2704036,36.4089199 34.2881289,34.1517715 34.2568606,31.8954199 C34.2502883,31.4248652 34.4653826,31.145959 34.7689046,30.8839863 C35.1869444,30.5234004 35.4695545,30.0068262 36.0186426,29.7980449 C36.0335797,30.3247793 36.0578774,30.8515137 36.0612631,31.3784473 C36.0682338,32.4072129 36.0632547,33.4359785 36.0632547,34.4649434" id="Fill-57" fill="#FE415F"></path>
            </g>
        </g>
    </g>
</svg>