<?xml version="1.0" encoding="UTF-8"?>
<svg width="70px" height="71px" viewBox="0 0 70 71" version="1.1" xmlns="http://www.w3.org/2000/svg" xmlns:xlink="http://www.w3.org/1999/xlink">
    <!-- Generator: Sketch 53 (72520) - https://sketchapp.com -->
    <title>work copy 2</title>
    <desc>Created with Sketch.</desc>
    <g id="Page-1" stroke="none" stroke-width="1" fill="none" fill-rule="evenodd">
        <g id="bundle-copy" transform="translate(-201.000000, -881.000000)" fill-rule="nonzero">
            <g id="work-copy-2" transform="translate(201.000000, 881.000000)">
                <rect id="Rectangle" fill="#87CED9" x="21.9130435" y="4.85470085" width="45.6521739" height="29.1282051"></rect>
                <polygon id="Path" fill="#7DC6D1" points="26.173913 33.982906 67.5652174 33.982906 67.5652174 4.85470085 60.6216259 4.85470085"></polygon>
                <path d="M58.1250382,12.1048393 L53.2722344,10.9230769 L52.6826414,13.2158318 L54.9549985,13.7689736 L45.7467132,20.047978 L40.3903312,15.8737931 C39.9656593,15.5440408 39.3688155,15.5286681 38.9272249,15.8359845 L30.4347826,21.7450736 L31.8445738,23.6666667 L39.5908903,18.2776195 L44.9398792,22.4470956 C45.3608546,22.7756015 45.9541441,22.794575 46.3957346,22.4919674 L56.6170052,15.5216049 L56.6170052,17.9786127 L59.0434783,17.9786127 L59.0434783,13.2511475 C59.0434783,12.7086697 58.6648706,12.2359924 58.1250382,12.1048393 Z" id="Path" fill="#88B337"></path>
                <path d="M61.4782609,50.3675214 L61.4782609,50.3675214 C64.1674855,50.3675214 66.3478261,52.5411937 66.3478261,55.2221938 L66.3478261,57.6496011 C66.3478261,60.3306012 64.1674855,62.5042735 61.4782609,62.5042735 L61.4782609,62.5042735 C58.7890362,62.5042735 56.6086957,60.3306012 56.6086957,57.6496011 L56.6086957,55.2221938 C56.6086957,52.5413359 58.7890362,50.3675214 61.4782609,50.3675214 Z" id="SVGCleanerId_0" fill="#FEC9A3"></path>
                <path d="M65.1303533,62.5042735 L57.8260258,62.5042735 C55.1368349,62.5042735 52.9565217,64.6779495 52.9565217,67.358954 L52.9565217,71 L70,71 L70,67.358954 C70,64.6779495 67.8196868,62.5042735 65.1303533,62.5042735 Z" id="Path" fill="#4398D1"></path>
                <path d="M44.4347826,50.3675214 L44.4347826,50.3675214 C47.1240072,50.3675214 49.3043478,52.5411937 49.3043478,55.2221938 L49.3043478,57.6496011 C49.3043478,60.3306012 47.1240072,62.5042735 44.4347826,62.5042735 L44.4347826,62.5042735 C41.745558,62.5042735 39.5652174,60.3306012 39.5652174,57.6496011 L39.5652174,55.2221938 C39.5650747,52.5413359 41.745558,50.3675214 44.4347826,50.3675214 Z" id="Path" fill="#FEC9A3"></path>
                <path d="M48.0869769,62.5042735 L40.7825883,62.5042735 C38.0933749,62.5042735 35.9130435,64.6779495 35.9130435,67.358954 L35.9130435,71 L52.9565217,71 L52.9565217,67.358954 C52.9565217,64.6779495 50.7761903,62.5042735 48.0869769,62.5042735 Z" id="Path" fill="#4398D1"></path>
                <path d="M28,50.3675214 L28,50.3675214 C30.6892246,50.3675214 32.8695652,52.5411937 32.8695652,55.2221938 L32.8695652,57.6496011 C32.8695652,60.3306012 30.6892246,62.5042735 28,62.5042735 L28,62.5042735 C25.3107754,62.5042735 23.1304348,60.3306012 23.1304348,57.6496011 L23.1304348,55.2221938 C23.1304348,52.5413359 25.3107754,50.3675214 28,50.3675214 Z" id="Path" fill="#FEC9A3"></path>
                <g id="Group" transform="translate(26.782609, 50.367521)" fill="#FABD91">
                    <path d="M2.29539887,0.0682513826 C2.97580718,1.07831473 3.33993195,2.27728306 3.33867297,3.50295224 L3.33867297,6.54899145 C3.33391682,8.82741679 2.07815501,10.9097979 0.0893875236,11.9429925 C2.6546276,12.45345 5.13873346,10.7440241 5.63882798,8.12562695 C5.69967864,7.80764404 5.72835539,7.48352137 5.72597732,7.15825641 L5.72597732,4.72133937 C5.72122117,2.56485269 4.32347448,0.670091503 2.29539887,0.0682513826 Z" id="Path"></path>
                    <path d="M19.0070888,0.0682513826 C19.6874972,1.07831473 20.0516219,2.27728306 20.0503629,3.50295224 L20.0503629,6.54899145 C20.0456068,8.82741679 18.789845,10.9097979 16.8010775,11.9429925 C19.3663176,12.45345 21.8504234,10.7440241 22.350518,8.12562695 C22.4113686,7.80764404 22.4400454,7.48352137 22.4376673,7.15825641 L22.4376673,4.72133937 C22.433051,2.56485269 21.0351645,0.670091503 19.0070888,0.0682513826 Z" id="Path"></path>
                </g>
                <path d="M61.4782609,50.3675214 L61.4782609,50.3675214 C64.1674855,50.3675214 66.3478261,52.5411937 66.3478261,55.2221938 L66.3478261,57.6496011 C66.3478261,60.3306012 64.1674855,62.5042735 61.4782609,62.5042735 L61.4782609,62.5042735 C58.7890362,62.5042735 56.6086957,60.3306012 56.6086957,57.6496011 L56.6086957,55.2221938 C56.6086957,52.5413359 58.7890362,50.3675214 61.4782609,50.3675214 Z" id="SVGCleanerId_0_1_" fill="#FEC9A3"></path>
                <path d="M63.0135589,50.974359 C63.6748389,51.9477033 64.028727,53.1030852 64.0275034,54.2841974 L64.0275034,57.2195032 C64.022881,59.4151005 62.8024224,61.4217803 60.8695652,62.4174149 C63.3626886,62.9093157 65.7769588,61.262033 66.2629941,58.738823 C66.3221341,58.4323998 66.3500046,58.12006 66.3476934,57.8066195 L66.3476934,55.4582922 C66.3432069,53.3802008 64.9846192,51.5543203 63.0135589,50.974359 Z" id="Path" fill="#FABD91"></path>
                <path d="M31.6520924,62.5042735 L24.3477649,62.5042735 C21.6585741,62.5042735 19.4782609,64.6779495 19.4782609,67.358954 L19.4782609,71 L36.5217391,71 L36.5217391,67.358954 C36.5215965,64.6779495 34.3412833,62.5042735 31.6520924,62.5042735 Z" id="Path" fill="#4398D1"></path>
                <polygon id="Path" fill="#3B86B8" points="53.5652174 44.4593723 45.6527734 39.9541399 45.6527734 33.3760684 43.2166491 33.3760684 43.2166491 39.9541399 35.3043478 44.4593723 36.5126324 46.5663464 43.2166491 42.7493581 43.2166491 46.7264957 45.6527734 46.7264957 45.6527734 42.7493581 52.3567901 46.5663464"></polygon>
                <g id="Group" transform="translate(19.478261, 0.000000)" fill="#4398D1">
                    <rect id="Rectangle" x="0.00942884825" y="0.0756442652" width="50.4373017" height="4.84421333"></rect>
                    <rect id="Rectangle" x="0.00942884825" y="32.7744036" width="50.4373017" height="2.42217763"></rect>
                </g>
                <path d="M9.73913043,12.1367521 L9.73913043,12.1367521 C12.4283551,12.1367521 14.6086957,14.3104245 14.6086957,16.9914245 L14.6086957,19.4188319 C14.6086957,22.0998319 12.4283551,24.2735043 9.73913043,24.2735043 L9.73913043,24.2735043 C7.0499058,24.2735043 4.86956522,22.0998319 4.86956522,19.4188319 L4.86956522,16.9914245 C4.86956522,14.3104245 7.0499058,12.1367521 9.73913043,12.1367521 Z" id="Path" fill="#FEC9A3"></path>
                <polygon id="Path" fill="#4398D1" points="17.0434783 60.0769231 2.43478261 60.0769231 4.86961277 56.4358885 4.86961277 40.6581197 14.6086481 40.6581197 14.6086481 56.4358885"></polygon>
                <rect id="Rectangle" fill="#3685BA" x="8.52173913" y="44.2991453" width="2.43478261" height="15.7777778"></rect>
                <rect id="Rectangle" fill="#FEC9A3" x="0" y="38.2307692" width="4.86956522" height="4.85470085"></rect>
                <path d="M20.9597712,29.1281442 L20.3086501,30.9486519 L19.1438839,27.6947788 C18.4079253,25.6413029 16.4870411,24.2735043 14.3354436,24.2735043 L4.7784812,24.2735043 C2.13955785,24.2735043 0,26.4471621 0,29.1281442 L0,38.8375662 L4.7784812,38.8375662 L4.7784812,41.2649573 L14.3355836,41.2649573 L14.3355836,29.1282864 L16.8993291,34.3386364 C17.8108426,36.1907186 20.0280982,36.9406825 21.8498653,36.0147836 C22.6586218,35.6046005 23.2905635,34.9066918 23.6262737,34.053471 L25.5652174,29.1284286 L20.9597712,29.1284286 L20.9597712,29.1281442 Z" id="Path" fill="#F0E4D6"></path>
                <polygon id="Path" fill="#FEC9A3" points="28 24.2735043 23.090277 24.2735043 21.3043478 29.1282051 26.0361396 29.1282051"></polygon>
                <rect id="Rectangle" fill="#E0D2C1" x="3.65217391" y="29.1282051" width="2.43478261" height="12.1367521"></rect>
                <rect id="Rectangle" fill="#4398D1" x="8.52173913" y="24.2735043" width="2.43478261" height="13.3504274"></rect>
                <rect id="Rectangle" fill="#7DC6D1" x="21.9130435" y="4.85470085" width="45.6521739" height="2.42735043"></rect>
                <g id="Group" transform="translate(23.739130, 62.504274)" fill="#3E8FC9">
                    <path d="M12.589284,4.80944517 C12.5856281,2.60502014 11.1433858,0.674618282 9.06769288,0.0934529915 C6.7266679,3.55726148 3.64785939,6.43011299 0.0638371878,8.4957265 L12.589284,8.4957265 L12.589284,4.80944517 Z" id="Path"></path>
                    <path d="M29.3876041,4.80944517 C29.3839482,2.60502014 27.9417058,0.674618282 25.866013,0.0934529915 C23.524988,3.55726148 20.4461795,6.43011299 16.8621573,8.4957265 L29.3876041,8.4957265 L29.3876041,4.80944517 Z" id="Path"></path>
                    <path d="M46.1859241,4.80944517 C46.1822683,2.60502014 44.7400259,0.674618282 42.664333,0.0934529915 C40.323308,3.55726148 37.2444995,6.43011299 33.6604773,8.4957265 L46.1859241,8.4957265 L46.1859241,4.80944517 Z" id="Path"></path>
                </g>
                <path d="M11.2744285,12.7435897 C11.9357084,13.7169224 12.2895966,14.8722906 12.288373,16.0533886 L12.288373,18.9887971 C12.2837505,21.1843681 11.063292,23.191024 9.13043478,24.1866467 C11.6235582,24.6785416 14.0378283,23.0312785 14.5238637,20.5080987 C14.5830036,20.2016791 14.6108742,19.8893431 14.608563,19.5759063 L14.608563,17.2276071 C14.6039405,15.1494028 13.2454887,13.3236817 11.2744285,12.7435897 Z" id="Path" fill="#FABD91"></path>
                <path d="M40.3903312,15.8731396 C39.9656593,15.5434124 39.3688155,15.5280408 38.9272249,15.8353338 L30.4347826,21.7439734 L31.8445738,23.6666667 L39.5908903,18.2767831 L44.9398792,22.445942 C45.3608546,22.7744229 45.9541441,22.793395 46.3957346,22.4908104 L56.6170052,15.5209782 L56.6170052,17.977799 L59.0434783,17.977799 L59.0434783,13.2509704 C59.0434783,12.7085338 58.6650127,12.2358925 58.1250382,12.1047495 L53.2722344,10.9230769 L52.6826414,13.2156573 L54.9549985,13.7687571 L45.7467132,20.0472839 L40.3903312,15.8731396 Z" id="Path" fill="#000000"></path>
            </g>
        </g>
    </g>
</svg>