<?xml version="1.0" encoding="UTF-8"?>
<svg width="112px" height="47px" viewBox="0 0 112 47" version="1.1" xmlns="http://www.w3.org/2000/svg" xmlns:xlink="http://www.w3.org/1999/xlink">
    <!-- Generator: Sketch 52.4 (67378) - http://www.bohemiancoding.com/sketch -->
    <title>adtrics-color</title>
    <desc>Created with Sketch.</desc>
    <g id="Page-1" stroke="none" stroke-width="1" fill="none" fill-rule="evenodd">
        <g id="web-reg2" transform="translate(-664.000000, -33.000000)">
            <g id="header" transform="translate(170.000000, 33.000000)">
                <g id="adtrics-color" transform="translate(494.000000, 0.000000)">
                    <path d="M7.43818002,0 L39.56182,0 C43.6698134,-7.54850135e-16 47,3.33117511 47,7.44038785 L47,39.5596121 C47,43.6688249 43.6698134,47 39.56182,47 L7.43818002,47 C3.33018663,47 5.03084096e-16,43.6688249 0,39.5596121 L0,7.44038785 C-5.03084096e-16,3.33117511 3.33018663,7.54850135e-16 7.43818002,0 Z" id="Rectangle" fill="#4E69A2"></path>
                    <path d="M41,12 L41,32.6845494 L37.5811966,32.6845494 L37.3532764,30.6566524 C36.2136752,32.4141631 34.3903134,33 32.6125356,33 C28.2820513,33 25,30.1609442 25,25.3841202 C25,20.6072961 28.1908832,17.723176 32.5213675,17.723176 C34.0712251,17.723176 36.4871795,18.5793991 37.3532764,20.0665236 L37.3532764,12 L41,12 Z M28.6467236,25.3841202 C28.6467236,26.8814157 29.4547327,28.2649738 30.7663817,29.0136216 C32.0780308,29.7622694 33.694049,29.7622694 35.005698,29.0136216 C36.3173471,28.2649738 37.1253562,26.8814157 37.1253561,25.3841202 C37.1632195,24.245502 36.7254794,23.1416504 35.914953,22.3318399 C35.1044267,21.5220294 33.9925404,21.0776232 32.8404558,21.1030043 C30.5156695,21.1030043 28.6467236,22.7253219 28.6467236,25.3841202 Z" id="Shape" fill="#FFFFFF" fill-rule="nonzero"></path>
                    <path d="M55.382716,14 L55.382716,18.1802475 L59.4115226,18.1802475 L59.4115226,21.3154331 L55.3374486,21.3154331 L55.3374486,27.6312418 C55.3374486,29.0398034 56.1069959,29.7213655 57.2386831,29.7213655 C57.8529476,29.6996697 58.4552384,29.5446563 59.0041152,29.2669908 L60,32.4021764 C59.0536104,32.7980361 58.0376025,32.9989104 57.0123457,32.9928635 C53.8436214,33.1291759 51.7613169,31.311677 51.7613169,27.6312418 L51.7613169,21.3154331 L49,21.3154331 L49,18.1802475 L51.7613169,18.1802475 L51.7613169,14.4089373 L55.382716,14 Z" id="Path" fill="#FFFFFF"></path>
                    <path d="M66.496063,18.3619856 L66.7795276,20.0787898 C67.9606299,18.2716275 69.519685,18.0005531 71.0787402,18.0005531 C72.5231751,17.9809927 73.9226304,18.4808342 75,19.4011039 L73.2992126,22.5184588 C72.560949,21.8555886 71.5699626,21.5124666 70.5590551,21.5696986 C68.5748031,21.5696986 66.7795276,22.5636379 66.7795276,25.2743813 L66.7795276,33 L63,33 L63,18.3619856 L66.496063,18.3619856 Z" id="Path" fill="#FFFFFF"></path>
                    <rect id="Rectangle" fill="#FFFFFF" x="77" y="18" width="4" height="15"></rect>
                    <path d="M98,30.6109372 C96.4634471,32.2028991 94.3123744,33.0704994 92.0878378,32.995512 C87.6891892,32.995512 84,30.3771553 84,25.0001729 C84,19.6231905 87.6891892,17.0048339 92.0878378,17.0048339 C94.1735106,16.9290578 96.1907193,17.7471658 97.6216216,19.2491396 L95.2567568,21.7272271 C94.4136263,20.9690533 93.3219029,20.5373583 92.1824324,20.5115615 C89.6283784,20.5115615 87.7837838,22.3818163 87.7837838,25.0001729 C87.7837838,27.6185296 89.7702703,29.4420279 92.0878378,29.4420279 C93.3324804,29.4793705 94.5409076,29.0250835 95.4459459,28.179606 L98,30.6109372 Z" id="Path" fill="#FFFFFF"></path>
                    <path d="M109.336806,21.4186047 C108.349655,20.5013233 107.053983,20.0173588 105.725694,20.0697674 C104.010417,20.0697674 103.0625,20.627907 103.0625,21.5581395 C103.0625,22.4883721 103.920139,23.0930233 105.770833,23.2325581 C108.524306,23.4186047 112,24.0697674 112,28.0232558 C112,30.6744186 109.923611,33 105.725694,33 C103.423611,33 101.121528,32.5813953 99,30.3023256 L100.760417,27.6511628 C101.798611,28.8139535 104.190972,29.744186 105.815972,29.744186 C107.440972,29.744186 108.434028,29.0465116 108.434028,27.9302326 C108.434028,26.8139535 107.621528,26.4883721 105.545139,26.3488372 C103.46875,26.2093023 99.4965278,25.1395349 99.4965278,21.6976744 C99.4965278,18.255814 102.972222,17 105.635417,17 C108.298611,17 109.652778,17.4651163 111.322917,19 L109.336806,21.4186047 Z" id="Path" fill="#FFFFFF"></path>
                    <path d="M81,14 C81,16.6666667 77,16.6666667 77,14 C77,11.3333333 81,11.3333333 81,14 Z" id="Path" fill="#4E69A2"></path>
                    <path d="M86,7 C86,9.66666667 82,9.66666667 82,7 C82,4.33333333 86,4.33333333 86,7 Z" id="Path" fill="#4E69A2"></path>
                    <path d="M73,13.5 C73,15.5 70,15.5 70,13.5 C70,11.5 73,11.5 73,13.5 Z" id="Path" fill="#4E69A2"></path>
                    <path d="M76,8.5 C76,10.5 73,10.5 73,8.5 C73,6.5 76,6.5 76,8.5 Z" id="Path" fill="#4E69A2"></path>
                    <polygon id="Path" fill="#4E69A2" points="79.039604 14 74.7887789 9.12087912 71.8778878 13.4725275 71 12.9450549 74.6963696 7.45054945 78.9933993 12.4175824 84.1683168 6 85 6.57142857 79.039604 14"></polygon>
                    <path d="M18.2534435,17.3641791 L22,17.3641791 L22,32.5449364 L18.3471074,32.5449364 L18.1597796,30.3178193 C17.2699725,32.135874 14.7878788,32.99945 13.0550964,32.99945 C8.41873278,33.0449014 5,30.2723679 5,24.9545577 C5,19.6367476 8.60606061,16.9551168 13.1487603,17.0005682 C15.2561983,17.0005682 17.2699725,17.9550469 18.1597796,19.4549421 L18.2534435,17.3641791 Z M8.88705234,24.9545577 C8.88705234,27.817994 10.9476584,29.545146 13.523416,29.545146 C19.6115702,29.545146 19.6115702,20.3639695 13.523416,20.3639695 C10.9476584,20.3639695 8.88705234,22.0456701 8.88705234,24.9545577 Z" id="Shape" fill="#FFFFFF" fill-rule="nonzero"></path>
                </g>
            </g>
        </g>
    </g>
</svg>