<?xml version="1.0" encoding="UTF-8"?>
<svg width="338px" height="70px" viewBox="0 0 338 70" version="1.1" xmlns="http://www.w3.org/2000/svg" xmlns:xlink="http://www.w3.org/1999/xlink">
    <!-- Generator: Sketch 52.4 (67378) - http://www.bohemiancoding.com/sketch -->
    <title>rich-dad-logo</title>
    <desc>Created with Sketch.</desc>
    <defs>
        <filter x="-7.2%" y="-46.0%" width="114.4%" height="192.0%" filterUnits="objectBoundingBox" id="filter-1">
            <feOffset dx="0" dy="2" in="SourceAlpha" result="shadowOffsetOuter1"></feOffset>
            <feGaussianBlur stdDeviation="5" in="shadowOffsetOuter1" result="shadowBlurOuter1"></feGaussianBlur>
            <feColorMatrix values="0 0 0 0 0   0 0 0 0 0   0 0 0 0 0  0 0 0 0.3 0" type="matrix" in="shadowBlurOuter1" result="shadowMatrixOuter1"></feColorMatrix>
            <feMerge>
                <feMergeNode in="shadowMatrixOuter1"></feMergeNode>
                <feMergeNode in="SourceGraphic"></feMergeNode>
            </feMerge>
        </filter>
    </defs>
    <g id="Page-1" stroke="none" stroke-width="1" fill="none" fill-rule="evenodd">
        <g id="Landing" transform="translate(-644.000000, -15.000000)" fill="#FFFFFF">
            <g id="Navbar">
                <g id="Group-4" transform="translate(467.000000, 23.000000)">
                    <g id="rich-dad-logo" filter="url(#filter-1)" transform="translate(186.000000, 0.000000)">
                        <path d="M162.379358,25.5918208 C165.132497,24.32826 184.541144,14.5780969 192,0 L150,5.62001666 C152.089261,12.5035941 154.861925,18.9911301 158.767085,24.8374562 C158.767085,24.8374562 159.801953,26.8365225 162.379358,25.5918208 Z" id="Path"></path>
                        <path d="M153.346594,26.7917059 C150.085787,20.269557 147.251991,13.4269557 145.796273,6 C145.796273,6 139.002926,7.30065975 137.838352,7.58341188 C136.673778,7.866164 133.296514,9.67577757 134.131125,12.6918002 C134.965736,15.726673 140.400414,37.5739868 141.079749,38.931197 C141.759084,40.2884072 143.001296,42.8331762 147.71782,43.4740811 C152.434344,44.1149859 170,46 170,46 C166.331592,42.663525 161.09101,37.7436381 158.41249,34.7276155 C157.07323,33.2196041 154.569396,33.3892554 154.569396,33.3892554 C150.493388,33.9736098 148.300107,34.1055608 144.437604,34.3129123 L143.855317,32.5221489 C146.805571,31.6550424 149.833463,30.8633365 152.62844,29.732328 C152.60903,29.7134779 154.472349,29.0537229 153.346594,26.7917059 Z" id="Path"></path>
                        <path d="M166.036198,30.8651982 C178.144381,26.4099936 188.96446,19.5825371 197.961376,11 L199.982709,45.9858928 C200.260147,49.9396459 197.129062,49.9589325 195.603154,49.9975057 C194.077245,50.0553655 186.388251,49.0910355 184.109297,48.7245901 C181.830342,48.3581446 170.613924,39.2548693 165.243518,33.0831573 C165.243518,33.0638707 164.331936,31.6559488 166.036198,30.8651982 Z" id="Path"></path>
                        <path d="M0.0587155963,42.4807692 L0,42.0961538 C1.50703364,39.2884615 1.50703364,39.8076923 1.50703364,38.0576923 L1.50703364,8.78846154 C1.50703364,7.51923077 1.50703364,6.59615385 0.0391437309,4.42307692 L0.0978593272,4 L14.6201835,4 C23.0165138,4 26.5394495,9 26.5394495,13.9615385 C26.5394495,18.75 23.2318043,22.2115385 18.9651376,23.2692308 L18.906422,23.5384615 L22.5859327,30.3461538 C25.9327217,36.4230769 28.4966361,40.8269231 31.569419,40.8269231 L32,40.8269231 L32,41.4615385 C31.1388379,42.3076923 30.1602446,43 28.4183486,43 C23.6623853,43 21.4311927,38.8461538 18.1235474,32.7307692 L13.8960245,24.2115385 L7.57431193,24.2115385 C7.24159021,24.2115385 6.98715596,24.4230769 6.98715596,24.6923077 L6.98715596,38.0576923 C6.98715596,39.7692308 6.98715596,39.3846154 8.6116208,42.0576923 L8.6116208,42.4807692 L0.0587155963,42.4807692 Z M13.9155963,20.5961538 C17.7125382,20.5961538 21.0201835,18.4615385 21.0201835,14.3653846 C21.0201835,10.6346154 18.7889908,7.61538462 13.6611621,7.61538462 L7.59388379,7.61538462 C7.31987768,7.61538462 7.00672783,7.82692308 7.00672783,8.03846154 L7.00672783,20.2307692 C7.00672783,20.3846154 7.28073394,20.5961538 7.55474006,20.5961538 L13.9155963,20.5961538 Z" id="Shape" fill-rule="nonzero"></path>
                        <path d="M43.9036145,42 L36.1156627,42 L36,41.6398104 C37.4457831,39.0236967 37.4457831,38.6445498 37.4457831,37.2417062 L37.4457831,14.4549763 C37.4457831,13.2417062 37.4457831,12.6161137 36.0578313,10.3601896 L36.2120482,10 L43.8457831,10 L43.9421687,10.3601896 C42.6120482,12.6161137 42.6120482,13.2417062 42.6120482,14.4549763 L42.6120482,37.4312796 C42.6120482,38.8530806 42.6120482,39.0047393 44,41.6208531 L43.9036145,42 Z" id="Path"></path>
                        <path d="M76.5825627,42.6938073 L76.4240423,42.7522936 C75.334214,42.4793578 74.660502,42.7522936 74.660502,42.7522936 C72.5204756,43.5711009 70.1030383,44 66.655218,44 C57.34214,44 49,38.1123853 49,27 C49,17.0183486 57.34214,10 66.5957728,10 C68.5178336,10 71.3712021,10.2144495 73.1149273,10.8577982 C73.1149273,10.8577982 74.0462351,11.0137615 75.0964333,10.7018349 L75.2549538,10.7603211 L77.6327609,16.141055 L76.9194188,16.8428899 C74.7199472,14.7373853 70.2219287,13.4311927 66.7741083,13.4311927 C60.0369881,13.4311927 54.5482166,18.831422 54.5482166,26.9805046 C54.5482166,35.0711009 60.0369881,40.4713303 66.8335535,40.4713303 C71.9260238,40.4713303 76.0475561,38.7362385 78.4055482,36.5917431 L79,37.0791284 L76.5825627,42.6938073 Z" id="Path"></path>
                        <path d="M113.88404,42 L106.07606,42 L105.9601,41.6398104 C107.409601,39.0236967 107.409601,38.6445498 107.409601,37.2417062 L107.409601,27.6872038 L89.6483791,27.6872038 L89.6483791,37.2417062 C89.6483791,38.6635071 89.6483791,39.0236967 91.0399002,41.6398104 L90.9239401,42 L83.1159601,42 L83,41.6398104 C84.4495012,39.0236967 84.4495012,38.6445498 84.4495012,37.2417062 L84.4495012,14.4549763 C84.4495012,13.2417062 84.4495012,12.6161137 83.05798,10.3601896 L83.1546135,10 L90.8852868,10 L91.0012469,10.3601896 C89.6677057,12.6161137 89.6677057,13.2417062 89.6677057,14.4549763 L89.6677057,24.0473934 L107.428928,24.0473934 L107.428928,14.4549763 C107.428928,13.2417062 107.428928,12.6161137 106.037406,10.3601896 L106.19202,10 L113.845387,10 L113.94202,10.3601896 C112.608479,12.6161137 112.608479,13.2417062 112.608479,14.4549763 L112.608479,37.2227488 C112.608479,38.6445498 112.608479,39.0047393 114,41.6208531 L113.88404,42 Z" id="Path"></path>
                        <path d="M252,23.4122939 C252,34.1904048 244.658596,43 231.622276,43 L220.096852,43 L220,42.5712144 C221.491525,39.7061469 221.491525,39.3748126 221.491525,37.874063 L221.491525,8.7946027 C221.491525,7.50824588 221.491525,6.84557721 220.038741,4.37031484 L220.154964,4 L232.707022,4 C245.782082,4 252,12.6731634 252,23.4122939 Z M246.246973,23.4122939 C246.246973,13.2188906 240.397094,7.66416792 232.145278,7.66416792 L227.631961,7.66416792 C227.322034,7.66416792 226.934625,7.93703148 226.934625,8.36581709 L226.934625,39.0044978 L230.847458,39.3163418 L231.699758,39.3163418 C240.242131,39.3358321 246.246973,33.8785607 246.246973,23.4122939 Z" id="Shape" fill-rule="nonzero"></path>
                        <path d="M271.769611,33.5829384 L257.874614,33.5829384 L255.186535,39.9905213 L255.838789,41.6777251 L255.838789,42 L249,42 L249,41.6777251 L250.976529,39.2701422 L262.361334,13.0331754 L260.997529,10.3601896 L261.155652,10 L267.164299,10 L279.478073,39.2701422 L281,41.7345972 L280.901174,42 L273.568252,42 L273.44966,41.7914692 L274.437925,40.0094787 L271.769611,33.5829384 Z M259.455837,29.9052133 L270.227918,29.9052133 L264.970352,17.4123223 L264.693638,17.4123223 L259.455837,29.9052133 Z" id="Shape" fill-rule="nonzero"></path>
                        <path d="M313,25.9336303 C313,35.2282243 306.167331,42 293.916335,42 L283.059761,42 L283,41.6395974 C284.434263,39.2305903 284.434263,38.8701877 284.434263,37.6561999 L284.434263,14.1351864 C284.434263,12.9781042 284.434263,12.4659531 283,10.3604431 L283.099602,10.0000404 L294.952191,10.0000404 C307.203187,9.98107187 313,16.6390362 313,25.9336303 Z M307.422311,25.9336303 C307.422311,17.37881 302.023904,13.4902553 294.513944,13.4902553 L290.390438,13.4902553 C290.171315,13.4902553 289.792829,13.6989095 289.792829,14.0593121 L289.792829,38.1493825 L293.258964,38.4528794 L294.035857,38.4528794 C301.864542,38.471848 307.422311,34.7540103 307.422311,25.9336303 Z" id="Shape" fill-rule="nonzero"></path>
                        <path d="M316,36 C318.175824,36 320,37.2928177 320,38.9834254 C320,40.7071823 318.175824,42 316,42 C313.824176,42 312,40.7071823 312,38.9834254 C312,37.2928177 313.824176,36 316,36 Z M316,41.5524862 C317.846154,41.5524862 319.274725,40.441989 319.274725,38.9834254 C319.274725,37.5414365 317.846154,36.4475138 316,36.4475138 C314.131868,36.4475138 312.725275,37.558011 312.725275,38.9834254 C312.725275,40.441989 314.153846,41.5524862 316,41.5524862 Z M314.461538,37.2430939 L316.263736,37.2430939 C317.362637,37.2430939 317.89011,37.5745856 317.89011,38.2541436 C317.89011,38.8839779 317.362637,39.1491713 316.659341,39.2154696 L317.978022,40.7569061 L317.208791,40.7569061 L315.934066,39.2486188 L315.164835,39.2486188 L315.164835,40.7569061 L314.43956,40.7569061 L314.43956,37.2430939 L314.461538,37.2430939 Z M315.186813,38.7845304 L315.934066,38.7845304 C316.571429,38.7845304 317.164835,38.7679558 317.164835,38.2044199 C317.164835,37.7403315 316.637363,37.6740331 316.153846,37.6740331 L315.186813,37.6740331 L315.186813,38.7845304 Z" id="Shape" fill-rule="nonzero"></path>
                    </g>
                </g>
            </g>
        </g>
    </g>
</svg>