<svg xmlns="http://www.w3.org/2000/svg" viewBox="0 0 200 82.77"><defs><style>.cls-1{fill:#4e69a2;}.cls-2{fill:#fff;}</style></defs><title>adtrics-logo-dark</title><g id="Layer_2" data-name="Layer 2"><g id="Layer_1-2" data-name="Layer 1"><g id="adtrics-logo-dark"><rect class="cls-1" width="82.77" height="82.77" rx="13.07" ry="13.07"/><path class="cls-2" d="M72.56,20.65V58.18H66.44L66,54.53c-2,3.17-5.32,4.24-8.54,4.24-7.78,0-13.64-5.15-13.64-13.85,0-9.13,5.75-13.85,13.48-13.85,2.79,0,7.14,1.5,8.7,4.24V20.65ZM50.39,44.92a7.6,7.6,0,1,0,15.19,0,7.55,7.55,0,0,0-7.68-7.73C53.71,37.19,50.39,40.14,50.39,44.92Z"/><path d="M98.65,24.25v7.52H106v5.64H98.59V48.84c0,2.53,1.4,3.76,3.44,3.76a7.41,7.41,0,0,0,3.17-.81L107,57.38a14.73,14.73,0,0,1-5.42,1.13c-5.74.21-9.5-3.06-9.5-9.67V37.41H87.16V31.77H92.1V25Z"/><path d="M118.31,31.71l.48,3.06c2-3.27,4.78-3.75,7.46-3.75a10,10,0,0,1,6.82,2.52l-2.95,5.69a6.53,6.53,0,0,0-4.72-1.72c-3.44,0-6.61,1.83-6.61,6.71v14h-6.55V31.71Z"/><rect x="136.95" y="31.61" width="6.55" height="26.58"/><path d="M173.52,54.8A13.61,13.61,0,0,1,163.32,59c-7.68,0-14.07-4.62-14.07-14s6.39-14,14.07-14a12.6,12.6,0,0,1,9.56,3.92l-4.14,4.35a8,8,0,0,0-5.31-2.09A7.45,7.45,0,0,0,155.8,45c0,5,3.44,7.73,7.52,7.73a8,8,0,0,0,5.8-2.2Z"/><path d="M195.11,38.75a8.92,8.92,0,0,0-6.55-2.36c-3.11,0-4.83,1-4.83,2.63s1.56,2.68,4.94,2.89c5,.33,11.33,1.45,11.33,8.49,0,4.67-3.81,8.7-11.38,8.7-4.19,0-8.38-.7-12.24-4.73l3.22-4.67c1.88,2.09,6.17,3.65,9.12,3.71,2.47.05,4.78-1.24,4.78-3.17s-1.5-2.58-5.26-2.8c-5-.37-11-2.2-11-8.21S183.63,31,188.46,31c4.13,0,7.24.81,10.3,3.49Z"/><path class="cls-1" d="M144.09,24.25c0,5.1-7.73,5.1-7.73,0S144.09,19.15,144.09,24.25Z"/><path class="cls-1" d="M152.3,13c0,4.27-6.47,4.27-6.47,0S152.3,8.74,152.3,13Z"/><path class="cls-1" d="M129.73,24.48c0,3.86-5.85,3.86-5.85,0S129.73,20.62,129.73,24.48Z"/><path class="cls-1" d="M135.57,15.9c0,3.86-5.84,3.86-5.84,0S135.57,12.05,135.57,15.9Z"/><polygon class="cls-1" points="140.25 25.97 132.75 16.9 127.59 24.98 126.02 23.98 132.55 13.74 140.2 22.98 149.38 11.03 150.86 12.16 140.25 25.97 140.25 25.97"/><path class="cls-2" d="M32.62,31h6.49V58.32H32.73l-.33-4c-1.56,3.22-5.83,4.77-8.88,4.83-8.1.05-14.1-4.94-14.1-14.54,0-9.44,6.27-14.38,14.26-14.32,3.67,0,7.16,1.72,8.72,4.44ZM16.19,44.61c0,5.21,3.61,8.32,8.1,8.32,10.66,0,10.66-16.59,0-16.59C19.8,36.34,16.19,39.39,16.19,44.61Z"/></g></g></g></svg>