<svg xmlns="http://www.w3.org/2000/svg" xmlns:xlink="http://www.w3.org/1999/xlink" viewBox="0 0 600 450"><defs><style>.cls-1{isolation:isolate;}.cls-2{fill:#8686f2;mix-blend-mode:lighten;}.cls-10,.cls-11,.cls-12,.cls-13,.cls-14,.cls-15,.cls-16,.cls-23,.cls-24,.cls-3,.cls-31,.cls-4,.cls-46,.cls-5{opacity:0.5;}.cls-3{fill:url(#_ÂÁ_Ï_ÌÌ_È_ËÂÌÚ_209);}.cls-4{fill:url(#_ÂÁ_Ï_ÌÌ_È_ËÂÌÚ_254);}.cls-5{fill:url(#_ÂÁ_Ï_ÌÌ_È_ËÂÌÚ_209-2);}.cls-6{fill:url(#_ÂÁ_Ï_ÌÌ_È_ËÂÌÚ_18);}.cls-7{fill:#bcbeff;}.cls-8{fill:#fff;}.cls-9{fill:#0f054c;}.cls-10{fill:url(#_ÂÁ_Ï_ÌÌ_È_ËÂÌÚ_254-2);}.cls-11{fill:url(#_ÂÁ_Ï_ÌÌ_È_ËÂÌÚ_254-3);}.cls-12{fill:url(#_ÂÁ_Ï_ÌÌ_È_ËÂÌÚ_254-4);}.cls-13{fill:url(#_ÂÁ_Ï_ÌÌ_È_ËÂÌÚ_254-5);}.cls-14,.cls-17,.cls-25,.cls-33,.cls-34,.cls-35,.cls-36{fill:#42e8e0;}.cls-15{fill:url(#_ÂÁ_Ï_ÌÌ_È_ËÂÌÚ_254-6);}.cls-16{fill:url(#_ÂÁ_Ï_ÌÌ_È_ËÂÌÚ_254-7);}.cls-17{opacity:0.8;}.cls-18,.cls-41{opacity:0.11;}.cls-19{fill:url(#_ÂÁ_Ï_ÌÌ_È_ËÂÌÚ_209-3);}.cls-20{fill:url(#_ÂÁ_Ï_ÌÌ_È_ËÂÌÚ_209-4);}.cls-21{fill:url(#_ÂÁ_Ï_ÌÌ_È_ËÂÌÚ_209-5);}.cls-22{fill:url(#_ÂÁ_Ï_ÌÌ_È_ËÂÌÚ_209-6);}.cls-23{fill:url(#_ÂÁ_Ï_ÌÌ_È_ËÂÌÚ_209-7);}.cls-26{fill:url(#_ÂÁ_Ï_ÌÌ_È_ËÂÌÚ_209-9);}.cls-27{fill:url(#_ÂÁ_Ï_ÌÌ_È_ËÂÌÚ_209-10);}.cls-28{fill:url(#_ÂÁ_Ï_ÌÌ_È_ËÂÌÚ_209-11);}.cls-29{fill:url(#_ÂÁ_Ï_ÌÌ_È_ËÂÌÚ_209-12);}.cls-30{fill:url(#_ÂÁ_Ï_ÌÌ_È_ËÂÌÚ_209-13);}.cls-31{fill:url(#_ÂÁ_Ï_ÌÌ_È_ËÂÌÚ_209-14);}.cls-32{fill:url(#_ÂÁ_Ï_ÌÌ_È_ËÂÌÚ_209-16);}.cls-33{opacity:0.5;}.cls-34{opacity:0.75;}.cls-35{opacity:0.88;}.cls-36{opacity:0.97;}.cls-37{fill:url(#_ÂÁ_Ï_ÌÌ_È_ËÂÌÚ_209-17);}.cls-38{fill:url(#_ÂÁ_Ï_ÌÌ_È_ËÂÌÚ_209-18);}.cls-39{fill:url(#_ÂÁ_Ï_ÌÌ_È_ËÂÌÚ_209-19);}.cls-40{fill:url(#_ÂÁ_Ï_ÌÌ_È_ËÂÌÚ_209-20);}.cls-41{fill:url(#_ÂÁ_Ï_ÌÌ_È_ËÂÌÚ_209-21);}.cls-42{fill:url(#_ÂÁ_Ï_ÌÌ_È_ËÂÌÚ_209-22);}.cls-43{fill:url(#_ÂÁ_Ï_ÌÌ_È_ËÂÌÚ_209-23);}.cls-44{fill:url(#_ÂÁ_Ï_ÌÌ_È_ËÂÌÚ_209-24);}.cls-45{fill:url(#_ÂÁ_Ï_ÌÌ_È_ËÂÌÚ_209-25);}.cls-46{fill:url(#_ÂÁ_Ï_ÌÌ_È_ËÂÌÚ_209-26);}.cls-47{fill:url(#_ÂÁ_Ï_ÌÌ_È_ËÂÌÚ_209-28);}.cls-48{fill:#180d5b;opacity:0.2;}.cls-49{fill:#160a5b;}.cls-50{fill:#24126a;}.cls-51{fill:#453c9e;}.cls-52{fill:url(#_ÂÁ_Ï_ÌÌ_È_ËÂÌÚ_209-29);}.cls-53{fill:url(#_ÂÁ_Ï_ÌÌ_È_ËÂÌÚ_209-30);}.cls-54{fill:#f0f6ff;}.cls-55{fill:#fcd1c5;}.cls-56{fill:#4846a5;}.cls-57{fill:#aa8383;}.cls-58{fill:#c4ccd6;}.cls-59{fill:#e2b1a6;}.cls-60{fill:url(#_ÂÁ_Ï_ÌÌ_È_ËÂÌÚ_209-31);}.cls-61{fill:#936d6d;}</style><linearGradient id="_ÂÁ_Ï_ÌÌ_È_ËÂÌÚ_209" x1="192.8" y1="275.94" x2="251.57" y2="275.94" gradientUnits="userSpaceOnUse"><stop offset="0" stop-color="#5761d7"/><stop offset="0.07" stop-color="#5472d8"/><stop offset="0.28" stop-color="#4e9cdb"/><stop offset="0.48" stop-color="#49bddd"/><stop offset="0.67" stop-color="#45d5df"/><stop offset="0.85" stop-color="#43e3e0"/><stop offset="1" stop-color="#42e8e0"/></linearGradient><linearGradient id="_ÂÁ_Ï_ÌÌ_È_ËÂÌÚ_254" x1="349.28" y1="275.85" x2="407.71" y2="275.85" gradientUnits="userSpaceOnUse"><stop offset="0" stop-color="#42e8e0"/><stop offset="0.15" stop-color="#43e3e0"/><stop offset="0.33" stop-color="#45d5df"/><stop offset="0.52" stop-color="#49bddd"/><stop offset="0.72" stop-color="#4e9cdb"/><stop offset="0.93" stop-color="#5472d8"/><stop offset="1" stop-color="#5761d7"/></linearGradient><linearGradient id="_ÂÁ_Ï_ÌÌ_È_ËÂÌÚ_209-2" x1="189.83" y1="372.27" x2="409.98" y2="372.27" xlink:href="#_ÂÁ_Ï_ÌÌ_È_ËÂÌÚ_209"/><linearGradient id="_ÂÁ_Ï_ÌÌ_È_ËÂÌÚ_18" x1="155.99" y1="225.98" x2="403.11" y2="225.98" gradientUnits="userSpaceOnUse"><stop offset="0" stop-color="#5761d7"/><stop offset="0.16" stop-color="#5e67da"/><stop offset="0.41" stop-color="#727ae2"/><stop offset="0.69" stop-color="#9297ee"/><stop offset="1" stop-color="#bcbeff"/></linearGradient><linearGradient id="_ÂÁ_Ï_ÌÌ_È_ËÂÌÚ_254-2" x1="225.92" y1="192.59" x2="374.25" y2="192.59" xlink:href="#_ÂÁ_Ï_ÌÌ_È_ËÂÌÚ_254"/><linearGradient id="_ÂÁ_Ï_ÌÌ_È_ËÂÌÚ_254-3" x1="300.09" y1="165.78" x2="374.25" y2="165.78" xlink:href="#_ÂÁ_Ï_ÌÌ_È_ËÂÌÚ_254"/><linearGradient id="_ÂÁ_Ï_ÌÌ_È_ËÂÌÚ_254-4" x1="225.92" y1="165.78" x2="300.09" y2="165.78" xlink:href="#_ÂÁ_Ï_ÌÌ_È_ËÂÌÚ_254"/><linearGradient id="_ÂÁ_Ï_ÌÌ_È_ËÂÌÚ_254-5" x1="225.92" y1="181.79" x2="374.25" y2="181.79" xlink:href="#_ÂÁ_Ï_ÌÌ_È_ËÂÌÚ_254"/><linearGradient id="_ÂÁ_Ï_ÌÌ_È_ËÂÌÚ_254-6" x1="300.09" y1="208.6" x2="374.25" y2="208.6" xlink:href="#_ÂÁ_Ï_ÌÌ_È_ËÂÌÚ_254"/><linearGradient id="_ÂÁ_Ï_ÌÌ_È_ËÂÌÚ_254-7" x1="225.92" y1="208.6" x2="300.09" y2="208.6" xlink:href="#_ÂÁ_Ï_ÌÌ_È_ËÂÌÚ_254"/><linearGradient id="_ÂÁ_Ï_ÌÌ_È_ËÂÌÚ_209-3" x1="69.23" y1="316.42" x2="233.01" y2="316.42" xlink:href="#_ÂÁ_Ï_ÌÌ_È_ËÂÌÚ_209"/><linearGradient id="_ÂÁ_Ï_ÌÌ_È_ËÂÌÚ_209-4" x1="69.23" y1="303.82" x2="233.01" y2="303.82" xlink:href="#_ÂÁ_Ï_ÌÌ_È_ËÂÌÚ_209"/><linearGradient id="_ÂÁ_Ï_ÌÌ_È_ËÂÌÚ_209-5" x1="69.23" y1="291.22" x2="233.01" y2="291.22" xlink:href="#_ÂÁ_Ï_ÌÌ_È_ËÂÌÚ_209"/><linearGradient id="_ÂÁ_Ï_ÌÌ_È_ËÂÌÚ_209-6" x1="69.23" y1="278.62" x2="233.01" y2="278.62" xlink:href="#_ÂÁ_Ï_ÌÌ_È_ËÂÌÚ_209"/><linearGradient id="_ÂÁ_Ï_ÌÌ_È_ËÂÌÚ_209-7" x1="69.23" y1="291.28" x2="233.01" y2="291.28" xlink:href="#_ÂÁ_Ï_ÌÌ_È_ËÂÌÚ_209"/><linearGradient id="_ÂÁ_Ï_ÌÌ_È_ËÂÌÚ_209-9" x1="69.23" y1="301.33" x2="233" y2="301.33" xlink:href="#_ÂÁ_Ï_ÌÌ_È_ËÂÌÚ_209"/><linearGradient id="_ÂÁ_Ï_ÌÌ_È_ËÂÌÚ_209-10" x1="367.17" y1="316.42" x2="530.95" y2="316.42" xlink:href="#_ÂÁ_Ï_ÌÌ_È_ËÂÌÚ_209"/><linearGradient id="_ÂÁ_Ï_ÌÌ_È_ËÂÌÚ_209-11" x1="367.17" y1="303.82" x2="530.95" y2="303.82" xlink:href="#_ÂÁ_Ï_ÌÌ_È_ËÂÌÚ_209"/><linearGradient id="_ÂÁ_Ï_ÌÌ_È_ËÂÌÚ_209-12" x1="367.17" y1="291.22" x2="530.95" y2="291.22" xlink:href="#_ÂÁ_Ï_ÌÌ_È_ËÂÌÚ_209"/><linearGradient id="_ÂÁ_Ï_ÌÌ_È_ËÂÌÚ_209-13" x1="367.17" y1="278.62" x2="530.95" y2="278.62" xlink:href="#_ÂÁ_Ï_ÌÌ_È_ËÂÌÚ_209"/><linearGradient id="_ÂÁ_Ï_ÌÌ_È_ËÂÌÚ_209-14" x1="367.17" y1="291.28" x2="530.95" y2="291.28" xlink:href="#_ÂÁ_Ï_ÌÌ_È_ËÂÌÚ_209"/><linearGradient id="_ÂÁ_Ï_ÌÌ_È_ËÂÌÚ_209-16" x1="367.17" y1="301.33" x2="530.95" y2="301.33" xlink:href="#_ÂÁ_Ï_ÌÌ_È_ËÂÌÚ_209"/><linearGradient id="_ÂÁ_Ï_ÌÌ_È_ËÂÌÚ_209-17" x1="142.91" y1="406.36" x2="296.89" y2="406.36" gradientTransform="matrix(-1, 0, 0, 1, 519.67, 0)" xlink:href="#_ÂÁ_Ï_ÌÌ_È_ËÂÌÚ_209"/><linearGradient id="_ÂÁ_Ï_ÌÌ_È_ËÂÌÚ_209-18" x1="142.91" y1="394.51" x2="296.89" y2="394.51" gradientTransform="matrix(-1, 0, 0, 1, 519.67, 0)" xlink:href="#_ÂÁ_Ï_ÌÌ_È_ËÂÌÚ_209"/><linearGradient id="_ÂÁ_Ï_ÌÌ_È_ËÂÌÚ_209-19" x1="142.91" y1="382.67" x2="296.89" y2="382.67" gradientTransform="matrix(-1, 0, 0, 1, 519.67, 0)" xlink:href="#_ÂÁ_Ï_ÌÌ_È_ËÂÌÚ_209"/><linearGradient id="_ÂÁ_Ï_ÌÌ_È_ËÂÌÚ_209-20" x1="142.91" y1="370.82" x2="296.89" y2="370.82" gradientTransform="matrix(-1, 0, 0, 1, 519.67, 0)" xlink:href="#_ÂÁ_Ï_ÌÌ_È_ËÂÌÚ_209"/><linearGradient id="_ÂÁ_Ï_ÌÌ_È_ËÂÌÚ_209-21" x1="142.91" y1="388.59" x2="296.89" y2="388.59" gradientTransform="matrix(-1, 0, 0, 1, 519.67, 0)" xlink:href="#_ÂÁ_Ï_ÌÌ_È_ËÂÌÚ_209"/><linearGradient id="_ÂÁ_Ï_ÌÌ_È_ËÂÌÚ_209-22" x1="126.55" y1="350.72" x2="313.25" y2="350.72" gradientTransform="matrix(-1, 0, 0, 1, 519.67, 0)" xlink:href="#_ÂÁ_Ï_ÌÌ_È_ËÂÌÚ_209"/><linearGradient id="_ÂÁ_Ï_ÌÌ_È_ËÂÌÚ_209-23" x1="126.55" y1="336.36" x2="313.25" y2="336.36" gradientTransform="matrix(-1, 0, 0, 1, 519.67, 0)" xlink:href="#_ÂÁ_Ï_ÌÌ_È_ËÂÌÚ_209"/><linearGradient id="_ÂÁ_Ï_ÌÌ_È_ËÂÌÚ_209-24" x1="126.55" y1="322" x2="313.25" y2="322" gradientTransform="matrix(-1, 0, 0, 1, 519.67, 0)" xlink:href="#_ÂÁ_Ï_ÌÌ_È_ËÂÌÚ_209"/><linearGradient id="_ÂÁ_Ï_ÌÌ_È_ËÂÌÚ_209-25" x1="126.55" y1="307.63" x2="313.25" y2="307.63" gradientTransform="matrix(-1, 0, 0, 1, 519.67, 0)" xlink:href="#_ÂÁ_Ï_ÌÌ_È_ËÂÌÚ_209"/><linearGradient id="_ÂÁ_Ï_ÌÌ_È_ËÂÌÚ_209-26" x1="126.55" y1="329.18" x2="313.25" y2="329.18" gradientTransform="matrix(-1, 0, 0, 1, 519.67, 0)" xlink:href="#_ÂÁ_Ï_ÌÌ_È_ËÂÌÚ_209"/><linearGradient id="_ÂÁ_Ï_ÌÌ_È_ËÂÌÚ_209-28" x1="126.55" y1="333.52" x2="313.25" y2="333.52" gradientTransform="matrix(-1, 0, 0, 1, 519.67, 0)" xlink:href="#_ÂÁ_Ï_ÌÌ_È_ËÂÌÚ_209"/><linearGradient id="_ÂÁ_Ï_ÌÌ_È_ËÂÌÚ_209-29" x1="148.77" y1="248.35" x2="168.47" y2="248.35" gradientTransform="matrix(-1, 0.06, 0.06, 1, 475.44, -53.73)" xlink:href="#_ÂÁ_Ï_ÌÌ_È_ËÂÌÚ_209"/><linearGradient id="_ÂÁ_Ï_ÌÌ_È_ËÂÌÚ_209-30" x1="176.63" y1="254.74" x2="217.84" y2="254.74" gradientTransform="matrix(-1, 0.06, 0.06, 1, 475.44, -53.73)" xlink:href="#_ÂÁ_Ï_ÌÌ_È_ËÂÌÚ_209"/><linearGradient id="_ÂÁ_Ï_ÌÌ_È_ËÂÌÚ_209-31" x1="157.68" y1="202.48" x2="224.72" y2="202.48" gradientTransform="matrix(-1, 0.06, 0.06, 1, 475.44, -53.73)" xlink:href="#_ÂÁ_Ï_ÌÌ_È_ËÂÌÚ_209"/></defs><title>banner-Artboard 18</title><g class="cls-1"><g id="_ÎÓÈ_1" data-name="—ÎÓÈ_1"><path class="cls-2" d="M300.08,287.18a8.15,8.15,0,0,1-4-.95l-90.79-52.42a3.2,3.2,0,0,1-1.82-2.73,4.13,4.13,0,0,1,2.42-3.37L295.43,176c2.74-1.58,6.77-1.74,9.17-.35l90.8,52.42a3.17,3.17,0,0,1,1.81,2.73,4.13,4.13,0,0,1-2.42,3.37l-89.58,51.72A10.46,10.46,0,0,1,300.08,287.18ZM296.75,285c1.94,1.13,5.49,1,7.76-.35l89.58-51.72c1.08-.62,1.72-1.42,1.72-2.15a1.9,1.9,0,0,0-1.11-1.51l-90.8-52.42c-1.94-1.12-5.5-1-7.76.35l-89.58,51.71c-1.08.63-1.72,1.43-1.72,2.16a1.88,1.88,0,0,0,1.11,1.51Z"/><path class="cls-3" d="M193.51,293.2a.68.68,0,0,1-.61-.35.7.7,0,0,1,.26-1l57.35-33.11a.7.7,0,0,1,.71,1.21l-57.36,33.12A.73.73,0,0,1,193.51,293.2Z"/><path class="cls-4" d="M407,293a.64.64,0,0,1-.35-.1l-57-32.93a.7.7,0,1,1,.7-1.21l57,32.92A.71.71,0,0,1,407,293Z"/><path class="cls-5" d="M300.09,403.62a13.42,13.42,0,0,1-6.69-1.79C270,388.28,192.17,343.27,190.31,342.44a.67.67,0,0,1-.45-.86.72.72,0,0,1,.9-.47c1.21.35,102.33,58.91,103.35,59.5a12,12,0,0,0,12,0L408.92,341a.72.72,0,0,1,1,.26.7.7,0,0,1-.26,1L306.79,401.83A13.46,13.46,0,0,1,300.09,403.62Z"/><polygon class="cls-6" points="396.51 192.57 396.51 203.72 300.09 259.39 203.66 203.72 203.66 192.57 396.51 192.57"/><polygon class="cls-7" points="300.09 248.24 203.66 192.57 300.09 136.9 396.51 192.57 300.09 248.24"/><polygon class="cls-8" points="300.09 246.94 204.79 191.92 203.66 192.57 300.09 248.24 396.51 192.57 395.38 191.92 300.09 246.94"/><polygon class="cls-9" points="300.09 235.4 225.93 192.59 300.09 149.77 374.25 192.59 300.09 235.4"/><polygon class="cls-10" points="300.09 235.41 225.93 192.59 300.09 149.77 374.25 192.59 300.09 235.41"/><polygon class="cls-11" points="300.09 138.97 374.25 181.79 374.25 192.59 300.09 149.77 300.09 138.97"/><polygon class="cls-12" points="300.09 149.77 225.93 192.59 225.93 181.79 300.09 138.97 300.09 149.77"/><polygon class="cls-13" points="300.09 224.61 225.93 181.79 300.09 138.97 374.25 181.79 300.09 224.61"/><polygon class="cls-14" points="300.09 198.9 270.45 181.79 300.09 164.68 329.72 181.79 300.09 198.9"/><polygon class="cls-14" points="300.09 166.25 328.36 182.58 329.72 181.79 300.09 164.68 270.45 181.79 271.82 182.58 300.09 166.25"/><polygon class="cls-15" points="300.09 224.61 300.09 235.4 374.25 192.59 374.25 181.79 300.09 224.61"/><polygon class="cls-16" points="225.93 181.79 225.93 192.59 300.09 235.4 300.09 224.61 225.93 181.79"/><polygon class="cls-17" points="300.09 223.43 226.94 181.2 225.93 181.79 300.09 224.61 374.25 181.79 373.23 181.2 300.09 223.43"/><g class="cls-18"><path class="cls-19" d="M157.45,271.68a12.58,12.58,0,0,0-12.55,0L70.11,314.75a1.77,1.77,0,0,0,0,3.06l75.41,43.54a11.08,11.08,0,0,0,11.08,0l75.52-43.5a1.77,1.77,0,0,0,0-3.06Z"/></g><g class="cls-18"><path class="cls-20" d="M157.45,259.08a12.56,12.56,0,0,0-12.55,0L70.11,302.15a1.77,1.77,0,0,0,0,3.06l75.41,43.54a11.08,11.08,0,0,0,11.08,0l75.52-43.5a1.76,1.76,0,0,0,0-3.05Z"/></g><g class="cls-18"><path class="cls-21" d="M157.45,246.48a12.56,12.56,0,0,0-12.55,0L70.11,289.56a1.76,1.76,0,0,0,0,3.05l75.41,43.54a11.08,11.08,0,0,0,11.08,0l75.52-43.49a1.77,1.77,0,0,0,0-3.06Z"/></g><g class="cls-18"><path class="cls-22" d="M157.45,233.88a12.56,12.56,0,0,0-12.55,0L70.11,277a1.77,1.77,0,0,0,0,3.06l75.41,43.53a11.08,11.08,0,0,0,11.08,0l75.52-43.49a1.77,1.77,0,0,0,0-3.06Z"/></g><path class="cls-23" d="M232.12,277l-74.67-43.12a12.56,12.56,0,0,0-12.55,0L70.11,277a1.74,1.74,0,0,0-.88,1.53v25.33a1.75,1.75,0,0,0,.88,1.53l75.41,43.53a11.08,11.08,0,0,0,11.08,0l75.52-43.49a1.76,1.76,0,0,0,.89-1.53V278.53h0A1.75,1.75,0,0,0,232.12,277Z"/><g class="cls-18"><path class="cls-22" d="M157.45,233.88a12.56,12.56,0,0,0-12.55,0L70.11,277a1.77,1.77,0,0,0,0,3.06l75.41,43.53a11.08,11.08,0,0,0,11.08,0l75.52-43.49a1.77,1.77,0,0,0,0-3.06Z"/></g><g class="cls-24"><path class="cls-25" d="M153.8,258.58a5.32,5.32,0,0,0-5.32,0L115,277.88a.78.78,0,0,0,0,1.36l33.64,19.43a5,5,0,0,0,4.94,0l33.7-19.41a.78.78,0,0,0,0-1.36Z"/></g><path class="cls-25" d="M115,279.09l33.5-19.3a5.32,5.32,0,0,1,5.32,0l33.46,19.32.08.07a.77.77,0,0,0-.08-1.28L153.8,258.58a5.32,5.32,0,0,0-5.32,0L115,277.88a.77.77,0,0,0-.08,1.29S114.94,279.11,115,279.09Z"/><path class="cls-26" d="M232.12,278.32,156.6,321.81a11.08,11.08,0,0,1-11.08,0L70.11,278.28a1.71,1.71,0,0,1-.65-.66,1.77,1.77,0,0,0,.65,2.4l75.41,43.53a11.08,11.08,0,0,0,11.08,0l75.52-43.49a1.77,1.77,0,0,0,.66-2.4A1.81,1.81,0,0,1,232.12,278.32Z"/><g class="cls-18"><path class="cls-27" d="M455.39,271.68a12.58,12.58,0,0,0-12.55,0l-74.79,43.08a1.77,1.77,0,0,0,0,3.06l75.41,43.54a11.08,11.08,0,0,0,11.08,0l75.52-43.5a1.77,1.77,0,0,0,0-3.06Z"/></g><g class="cls-18"><path class="cls-28" d="M455.39,259.08a12.56,12.56,0,0,0-12.55,0l-74.79,43.07a1.77,1.77,0,0,0,0,3.06l75.41,43.54a11.08,11.08,0,0,0,11.08,0l75.52-43.5a1.76,1.76,0,0,0,0-3.05Z"/></g><g class="cls-18"><path class="cls-29" d="M455.39,246.48a12.56,12.56,0,0,0-12.55,0l-74.79,43.08a1.76,1.76,0,0,0,0,3.05l75.41,43.54a11.08,11.08,0,0,0,11.08,0l75.52-43.49a1.77,1.77,0,0,0,0-3.06Z"/></g><g class="cls-18"><path class="cls-30" d="M455.39,233.88a12.56,12.56,0,0,0-12.55,0L368.05,277a1.77,1.77,0,0,0,0,3.06l75.41,43.53a11.08,11.08,0,0,0,11.08,0l75.52-43.49a1.77,1.77,0,0,0,0-3.06Z"/></g><path class="cls-31" d="M530.06,277l-74.67-43.12a12.56,12.56,0,0,0-12.55,0L368.05,277a1.76,1.76,0,0,0-.88,1.53v25.33a1.77,1.77,0,0,0,.88,1.53l75.41,43.53a11.08,11.08,0,0,0,11.08,0l75.52-43.49a1.76,1.76,0,0,0,.89-1.53V278.53h0A1.75,1.75,0,0,0,530.06,277Z"/><g class="cls-18"><path class="cls-30" d="M455.39,233.88a12.56,12.56,0,0,0-12.55,0L368.05,277a1.77,1.77,0,0,0,0,3.06l75.41,43.53a11.08,11.08,0,0,0,11.08,0l75.52-43.49a1.77,1.77,0,0,0,0-3.06Z"/></g><g class="cls-24"><path class="cls-25" d="M451.74,258.58a5.32,5.32,0,0,0-5.32,0l-33.5,19.3a.78.78,0,0,0,0,1.36l33.64,19.43a5,5,0,0,0,4.94,0l33.7-19.41a.78.78,0,0,0,0-1.36Z"/></g><path class="cls-25" d="M412.92,279.09l33.5-19.3a5.32,5.32,0,0,1,5.32,0l33.46,19.32s.05.05.08.07a.77.77,0,0,0-.08-1.28l-33.46-19.32a5.32,5.32,0,0,0-5.32,0l-33.5,19.3a.77.77,0,0,0-.08,1.29S412.88,279.11,412.92,279.09Z"/><path class="cls-32" d="M530.06,278.32l-75.52,43.49a11.08,11.08,0,0,1-11.08,0l-75.41-43.53a1.79,1.79,0,0,1-.65-.66,1.77,1.77,0,0,0,.65,2.4l75.41,43.53a11.08,11.08,0,0,0,11.08,0l75.52-43.49a1.77,1.77,0,0,0,.66-2.4A1.81,1.81,0,0,1,530.06,278.32Z"/><path class="cls-33" d="M510.67,172.94V128.15c-1-15.27-7.08-29.82-17.22-43.12v44.79c10.14,13.3,16.18,27.85,17.22,43.12Zm-22.41-49.41V78.73A127.37,127.37,0,0,0,476.4,67.05v44.79a128.71,128.71,0,0,1,11.86,11.69Zm-19.2-17.66V61.08A175.24,175.24,0,0,0,454,50.79v44.8a172.93,172.93,0,0,1,15.11,10.28Zm-25.26-2.81V31.79c41.27,21.89,67,53.2,67,87.84V190.9c0-34.64-25.76-65.95-67-87.84Z"/><path class="cls-33" d="M368.33,68.84V56q-4.72-.9-9.54-1.68V67.16q4.81.78,9.54,1.68ZM351.16,53.15V41.76c-3.26-.45-6.56-.85-9.88-1.22V51.93c3.32.36,6.62.77,9.88,1.22Zm33.7,6.45V44.07q-4.53-1.12-9.18-2.13V57.47q4.65,1,9.18,2.13ZM333.4,51.17V28.24q-5-.43-10.17-.73V50.44c3.42.19,6.81.44,10.17.73Zm-36.88-1.3V27c-3.46.05-6.89.15-10.31.3V50.18c3.42-.15,6.85-.25,10.31-.31Zm-18.32.74V21.78q-5.07.33-10.06.8V51.42q5-.48,10.06-.81Zm36.93-.55v-33c-3.08-.11-6.19-.18-9.31-.21h-1.11v33h1.11c3.12,0,6.23.1,9.31.21Zm-54.8,2.18V11c-3.28.39-6.55.81-9.78,1.29V53.52c3.23-.47,6.5-.9,9.78-1.28ZM229.54,7.45A350.68,350.68,0,0,1,305.82,0c35.82.36,69.37,5.87,98.54,15.29V86.58c-29.17-9.42-62.72-14.94-98.54-15.29a350.68,350.68,0,0,0-76.28,7.43V7.45Z"/><path class="cls-33" d="M108.29,104.12V89.77a87,87,0,0,0-10.13,19.12v42.5a86.52,86.52,0,0,1,10.13-19.12V117.92c1.24-1.78,2.54-3.53,3.92-5.27v7.74a115.6,115.6,0,0,1,8.57-9.62V103c13.45-13.53,31.35-25.4,52.55-35V54.28q-5.66,2.55-11,5.32-2.67,1.38-5.25,2.82A162.87,162.87,0,0,0,122,88c-.41.4-.82.8-1.22,1.21V81.5a115.49,115.49,0,0,0-8.57,9.61v7.74c-1.38,1.73-2.68,3.49-3.92,5.27Zm-12.9-.45c8.1-34.78,42.17-64.73,90.5-83.37V91.57c-48.33,18.64-82.4,48.59-90.5,83.37V103.67Z"/><path class="cls-34" d="M120.78,89.24c.4-.41.81-.81,1.22-1.21v13.8a154.66,154.66,0,0,1,25.09-19.68q4.82-3.06,10-5.93V62.42q2.58-1.44,5.25-2.82V73.4q5.34-2.76,11-5.32v0c-21.2,9.56-39.1,21.43-52.55,35V89.24Zm-12.49,14.88c1.24-1.78,2.54-3.54,3.92-5.27v13.8c-1.38,1.74-2.68,3.49-3.92,5.27v-13.8Z"/><path class="cls-35" d="M162.33,59.6q5.34-2.76,11-5.32v13.8q-5.66,2.55-11,5.32V59.6Z"/><path class="cls-35" d="M122,88a154.66,154.66,0,0,1,25.09-19.68v13.8A154.66,154.66,0,0,0,122,101.83V88Z"/><path class="cls-36" d="M147.09,68.35q4.82-3.06,10-5.93v13.8q-5.18,2.86-10,5.93V68.35Z"/><path class="cls-34" d="M98.16,108.89a87,87,0,0,1,10.13-19.12v14.35a86.74,86.74,0,0,0-10.13,19.12V137a87,87,0,0,1,10.13-19.12v14.35a86.52,86.52,0,0,0-10.13,19.12v-42.5Z"/><path class="cls-35" d="M98.16,123.24a86.74,86.74,0,0,1,10.13-19.12v13.8A87,87,0,0,0,98.16,137v-13.8Z"/><path class="cls-34" d="M112.21,112.65a115.49,115.49,0,0,1,8.57-9.61v7.73a115.6,115.6,0,0,0-8.57,9.62v-7.74Zm0-21.54a115.49,115.49,0,0,1,8.57-9.61v7.74a115.49,115.49,0,0,0-8.57,9.61V91.11Z"/><path class="cls-35" d="M112.21,98.85a115.49,115.49,0,0,1,8.57-9.61V103a115.49,115.49,0,0,0-8.57,9.61V98.85Z"/><path class="cls-34" d="M493.45,85c10.14,13.3,16.18,27.85,17.22,43.12v44.79c-1-15.27-7.08-29.82-17.22-43.12V85Z"/><path class="cls-25" d="M476.4,67.05a127.37,127.37,0,0,1,11.86,11.68v44.8a128.71,128.71,0,0,0-11.86-11.69V67.05Z"/><path class="cls-34" d="M454,50.79a175.24,175.24,0,0,1,15.11,10.29v44.79A172.93,172.93,0,0,0,454,95.59V50.79Z"/><path class="cls-34" d="M375.68,41.94q4.65,1,9.18,2.13V59.6q-4.53-1.12-9.18-2.13V41.94Z"/><path class="cls-34" d="M358.79,54.29q4.81.78,9.54,1.68V68.84q-4.72-.9-9.54-1.68V54.29Z"/><path class="cls-34" d="M341.28,40.54c3.32.37,6.62.77,9.88,1.22V53.15c-3.26-.45-6.56-.86-9.88-1.22V40.54Z"/><path class="cls-34" d="M323.23,27.51q5.13.3,10.17.73V51.17c-3.36-.29-6.75-.54-10.17-.73V27.51Z"/><path class="cls-34" d="M304.71,16.86h1.11c3.12,0,6.23.1,9.31.21v33c-3.08-.11-6.19-.18-9.31-.21h-1.11v-33Z"/><path class="cls-25" d="M286.21,27.25c3.42-.15,6.85-.25,10.31-.3V49.87c-3.46.06-6.89.16-10.31.31V27.25Z"/><path class="cls-34" d="M268.14,22.58q5-.46,10.06-.8V50.61q-5.07.33-10.06.81V22.58Z"/><path class="cls-25" d="M250.55,12.27c3.23-.48,6.5-.9,9.78-1.29V52.24c-3.28.38-6.55.81-9.78,1.28V12.27Z"/><g class="cls-18"><path class="cls-37" d="M293.82,364.3a11.79,11.79,0,0,1,11.8,0l70.31,40.5a1.65,1.65,0,0,1,0,2.87L305,448.61a10.46,10.46,0,0,1-10.41,0l-71-40.9a1.67,1.67,0,0,1,0-2.88Z"/></g><g class="cls-18"><path class="cls-38" d="M293.82,352.46a11.81,11.81,0,0,1,11.8,0L375.93,393a1.66,1.66,0,0,1,0,2.88L305,436.76a10.41,10.41,0,0,1-10.41,0l-71-40.89a1.67,1.67,0,0,1,0-2.88Z"/></g><g class="cls-18"><path class="cls-39" d="M293.82,340.61a11.79,11.79,0,0,1,11.8,0l70.31,40.5a1.65,1.65,0,0,1,0,2.87L305,424.92a10.41,10.41,0,0,1-10.41,0l-71-40.9a1.66,1.66,0,0,1,0-2.87Z"/></g><g class="cls-18"><path class="cls-40" d="M293.82,328.77a11.81,11.81,0,0,1,11.8,0l70.31,40.5a1.66,1.66,0,0,1,0,2.88L305,413.07a10.41,10.41,0,0,1-10.41,0l-71-40.89a1.67,1.67,0,0,1,0-2.88Z"/></g><path class="cls-41" d="M223.61,369.3l70.21-40.53a11.81,11.81,0,0,1,11.8,0l70.31,40.5a1.65,1.65,0,0,1,.83,1.44v35.53a1.65,1.65,0,0,1-.83,1.44L305,448.61a10.46,10.46,0,0,1-10.41,0l-71-40.9a1.65,1.65,0,0,1-.83-1.44V370.74h0A1.65,1.65,0,0,1,223.61,369.3Z"/><g class="cls-18"><path class="cls-42" d="M292.56,299.72a14.32,14.32,0,0,1,14.3,0l85.26,49.11a2,2,0,0,1,0,3.49l-86,49.64a12.64,12.64,0,0,1-12.62,0l-86.1-49.59a2,2,0,0,1,0-3.49Z"/></g><g class="cls-18"><path class="cls-43" d="M292.56,285.36a14.3,14.3,0,0,1,14.3,0l85.26,49.11a2,2,0,0,1,0,3.49l-86,49.63a12.59,12.59,0,0,1-12.62,0L207.43,338a2,2,0,0,1,0-3.49Z"/></g><g class="cls-18"><path class="cls-44" d="M292.56,271a14.3,14.3,0,0,1,14.3,0l85.26,49.11a2,2,0,0,1,0,3.49l-86,49.63a12.59,12.59,0,0,1-12.62,0l-86.1-49.59a2,2,0,0,1,0-3.48Z"/></g><g class="cls-18"><path class="cls-45" d="M292.56,256.63a14.32,14.32,0,0,1,14.3,0l85.26,49.11a2,2,0,0,1,0,3.48l-86,49.64a12.64,12.64,0,0,1-12.62,0l-86.1-49.59a2,2,0,0,1,0-3.49Z"/></g><path class="cls-46" d="M207.43,305.78l85.13-49.15a14.32,14.32,0,0,1,14.3,0l85.26,49.11a2,2,0,0,1,1,1.74v43.09a2,2,0,0,1-1,1.74l-86,49.64a12.64,12.64,0,0,1-12.62,0l-86.1-49.59a2,2,0,0,1-1-1.74V307.53h0A2,2,0,0,1,207.43,305.78Z"/><g class="cls-18"><path class="cls-45" d="M292.56,256.63a14.32,14.32,0,0,1,14.3,0l85.26,49.11a2,2,0,0,1,0,3.48l-86,49.64a12.64,12.64,0,0,1-12.62,0l-86.1-49.59a2,2,0,0,1,0-3.49Z"/></g><path class="cls-47" d="M207.43,307.29l86.1,49.58a12.59,12.59,0,0,0,12.62,0l86-49.63a2,2,0,0,0,.75-.75,2,2,0,0,1-.75,2.73l-86,49.64a12.64,12.64,0,0,1-12.62,0l-86.1-49.59a2,2,0,0,1-.75-2.73A2.07,2.07,0,0,0,207.43,307.29Z"/><ellipse class="cls-48" cx="299.77" cy="307.63" rx="46.94" ry="27.1"/><path class="cls-49" d="M317.64,284.65s1.14,1.19,2.32,2.6,4.52,3.35,5.91,4.22,7.81,5.72,9.15,10.5-3.24,5.42-7.92,4.59-9.06-5.16-10.34-6.71-5.7-5.11-11.45-8.08-2.27-7-2.27-7Z"/><path class="cls-49" d="M275,298.86a17.75,17.75,0,0,0-1.22,4.91c-.26,2.77-.65,8.77-.79,10.52a14.76,14.76,0,0,0,2.88,10.15c3.09,4.11,4.68,5.74,8.79,4.12s4-8.5,3.28-12a98.64,98.64,0,0,1-1.33-12.3,2.42,2.42,0,0,0-.23-1.36Z"/><path class="cls-50" d="M331.8,203.41s-.87,31.58-8.23,48.34a121.68,121.68,0,0,0-6,32.32,6.32,6.32,0,0,1-.51,5.49c-1.73,2.45-12.53,4.7-14.32-3.37s-1.1-23.18.86-29.48S303,233,303,233s-3,1.89-6.83,14.36-6.72,17.24-8.05,20.68-2.55,24.59-1.71,34.92c0,0-8.75,1.24-11.28-2.94s-3.37-25.82-2.73-32.72,3.52-29,3.13-35.83-1.83-12.39-.26-19.22,47.73-22,47.73-22Z"/><path class="cls-49" d="M275.48,231.51c-.4-6.84-1.83-12.39-.26-19.22.59-2.57,7.48-6.31,15.85-10,14.13-1.29,32.05-2.79,33.28-2.6a46.36,46.36,0,0,1,6.46,2.25l1,1.46s-.06,1.92-.25,5.06c-3.29,1-9.63,0-9.63,0-.89,2.21-6.4,10.09-13.25,13.49s-26.88,2.23-28,3.52-1.38,18.58-1.25,20.78-1.89,16-3.75,28.27c-1.83,12,1,26.67,1.05,27.14a5,5,0,0,1-1.61-1.58c-2.53-4.19-3.37-25.82-2.73-32.72S275.87,238.35,275.48,231.51Z"/><path class="cls-51" d="M316.34,100.13s10.24,2.34,13.69,3.15a1.77,1.77,0,0,1,1.25,1.08c1,2.52,3.49,10.34,1.61,21.77a108.38,108.38,0,0,0-1.58,23.49l4.74,24.66s5.95,23.48,5.44,24.12-13.71,10.69-17.84,9.27-2.77-3.75-2.77-3.75-3.34,17-18.13,16.86-26.88-.12-29.39-6.1.68-31.11,3.29-41.07,8.81-29.79,8.81-29.79l-21.67-24,18.52-14.14s4.43-8.22,6.24-9.26,2.77-.16,2.77-.16Z"/><path class="cls-52" d="M323.4,202.25c0,.86.48,2.13,3.14,3,2.87,1,9.91-3.29,14.53-6.51-2.31,1.91-13.65,10.19-17.42,8.89a6.68,6.68,0,0,1-1.86-.92A30.59,30.59,0,0,0,323.4,202.25Z"/><path class="cls-53" d="M273.47,212.69c2.65,6.31,15.4,6.26,31,6.43a16.66,16.66,0,0,0,9.71-2.8,15.76,15.76,0,0,1-11.44,4.46c-14.8-.16-26.88-.12-29.39-6.1-.83-2-1-6-.85-10.87C272.47,207.77,272.75,211,273.47,212.69Z"/><path class="cls-54" d="M289,96.23s-3.78,4.58,1.66,10.76c3.35,3.8,9.12,12,14,20.51,3.07,5.32,5.9,8.16,7.51,12.73,0,0,.22-5.43.44-13.81.2-7.92.31-16.14,0-18.21C311.82,104,293.13,94.16,289,96.23Z"/><path class="cls-55" d="M303.1,110s1.94,1.2,2.61,1.1,2.81-2.18,2.81-2.18,5.37-.1,6-2.4a49.08,49.08,0,0,1,1.51-5.81c.55-1.2,2.86-6.94,2.88-9.27s-.07-6.49.94-8.69,2.36-24.24-18.92-23.62-14.67,22.72-14.67,22.72-1.56.66-.62,3.51,1.16,3.14,1.64,4.55a6.29,6.29,0,0,0,2.06,3.46l.36,2.62a10.53,10.53,0,0,0,1.63,7.89C293.94,107.77,303.1,110,303.1,110Z"/><path class="cls-50" d="M330.62,103.53s2.26.34,9.63,18.86c4.11,10.34,10.45,21,11.79,28.72s.59,15.89-.92,16.47S323.2,178,314.92,181.16a.78.78,0,0,1-1-.59l-2.28-12.78L328,161.45s3.13-3.82,6.07-5.26c0,0-3.29-6.06-3.08-7.72s-.29-18.79,1.63-25.76S330.62,103.53,330.62,103.53Z"/><path class="cls-55" d="M321,152.48a31.51,31.51,0,0,1,2.82-1.73c.56-.22,3.58-1.25,4.16-1.51a11.8,11.8,0,0,1,3.07,0,1,1,0,0,1,.75.5c.7,1.3,2.65,5.07,2.43,6.51,0,0-5.47,3.45-6.08,5l-.87.19S323.62,153.62,321,152.48Z"/><path class="cls-50" d="M276.65,173.61c.63-2.39,1.47-5.36,2.37-8.48l33.25,14.25a35,35,0,0,1-27.39,11.45,23.12,23.12,0,0,1-10.81-3.41A133.37,133.37,0,0,1,276.65,173.61Z"/><path class="cls-50" d="M263.79,119.84s8.77,1.21,15.86,12.44a169.41,169.41,0,0,1,12.24,24.22l.25,1.46a5.91,5.91,0,0,0,8.24,4.43c7.48-3.34,18.56-8.39,20.62-9.91a19,19,0,0,1,8.43,12.32c1.45,6.9,1.08,6.92,1.08,6.92S301,185.5,289.58,185.36,263.72,147.74,262.12,140,258.78,122,263.79,119.84Z"/><path class="cls-56" d="M263.79,119.84s8.77,1.21,15.86,12.44a169.41,169.41,0,0,1,12.24,24.22l.25,1.46a5.91,5.91,0,0,0,8.24,4.43c7.48-3.34,18.56-8.39,20.62-9.91a19,19,0,0,1,8.43,12.32c1.45,6.9,1.08,6.92,1.08,6.92S301,185.5,289.58,185.36,263.72,147.74,262.12,140,258.78,122,263.79,119.84Z"/><path class="cls-51" d="M296.14,164.13s-3.73,3.49-5.35,1.58-1.14-2.12-1.14-2.12-3.35,0-3.76-2.13-2.06-1-2.15-3.33,2.71-1.86,2.71-1.86Z"/><path class="cls-55" d="M300.64,162.27s-1-1-2.35-2.07-3.45-5.74-3.81-6.15-4.82-3.82-7-3.88-.55,2.34-.06,2.68,2.6,1.38,2.6,1.38,2.15,1.81,2.4,2.08-6-.43-7,.18a1.69,1.69,0,0,0-.06,2.64,2.41,2.41,0,0,0,1.23.41,2.17,2.17,0,0,0,1.17,2.75c1.88.88,2.31.39,2.31.39s.16,3.25,3.25,2.6Z"/><path class="cls-57" d="M320.29,71.48s2.78,8.85-4.54,6.33-13.92-6.73-16.22-5.12c-1.75,1.22-1.67,5-1.53,6.68a2.52,2.52,0,0,1-.44,1.64l-2.17,3.16a2.44,2.44,0,0,0-.42,1.2l-.15,2.19a1.1,1.1,0,0,1-1,1l-.5,0a1.11,1.11,0,0,1-1.15-.91l-.56-3.22s-1.73-4.33-5.36-2.63c0,0-2.44-3.27-1.63-10.26s3.94-14.25,17.66-15.42S320.29,71.48,320.29,71.48Z"/><path class="cls-58" d="M299.33,117.78l2.05-1.59a11.1,11.1,0,0,1,2.64,3.25c.74,1.67,0,7,0,7l.63,1.07.77-1.4.65-6.29s-.7-4.64-.77-4.76-4,.41-4,.41A8.09,8.09,0,0,0,299.33,117.78Z"/><path class="cls-58" d="M309.19,111.53a6.92,6.92,0,0,1,3.18,1s-2.3.12-2.66.16S309.19,111.53,309.19,111.53Z"/><path class="cls-50" d="M305,112l-3.68,3.44s3.23,1.49,4.13,4.38c0,0,4,.74,4.37-.71s0-5.1.47-6.72S305,112,305,112Z"/><path class="cls-50" d="M309.69,119.05a20.34,20.34,0,0,0,1.43,4.26c.75,1.24,1.51,2.63,1.51,2.63l-.09,17.66s-6.49-13.39-7.9-16.1c0,0,.22-6.44.83-7.66S309.69,119.05,309.69,119.05Z"/><path class="cls-59" d="M292.25,93c4.27,12.31,16.27,16,16.27,16s-2.14,2.08-2.81,2.18-2.61-1.1-2.61-1.1-9.16-2.23-11.81-6.12A10.53,10.53,0,0,1,289.66,96l-.36-2.62A2.88,2.88,0,0,0,292.25,93Z"/><path class="cls-50" d="M282.49,107.36s1.68,5.81,1.9,6,4.23-.24,4.23-.24l-1.95,3.69s20.21,21.67,24.4,33.33a246.69,246.69,0,0,0-26.39-32.42l2.38-3.61-4.13.81Z"/><path class="cls-50" d="M315.68,102.23l1.07,1.23-1.26,1.17,3.74,3.38s1.14,23.7-3.42,39.4c0,0,6.19-14.4,4.79-40l-4.05-2.75,1.33-1.3Z"/><path class="cls-49" d="M303,233l-.14.11,5.23-5.57c-2.42,3.41.37,19,.66,22.58s-2.8,11-3.95,19.59,1.21,20.95,1.21,21a6.7,6.7,0,0,1-3.18-4.55c-1.78-8.07-1.1-23.18.86-29.48S303,233,303,233Z"/><path class="cls-60" d="M289.58,185.36c-11.4-.13-25.86-37.62-27.46-45.37-.26-1.29-.53-2.66-.77-4,0,.12,3,8.21,5.84,15.39s18.11,29.12,25.89,30.55c7,1.29,32.28-10.5,37.18-12.83.44,2.63.25,2.66.25,2.66S301,185.5,289.58,185.36Z"/><path class="cls-61" d="M293.29,88.61a1.11,1.11,0,0,1-1.15-.91l-.56-3.22s-1.73-4.33-5.36-2.63c0,0-2.3-3.11-1.68-9.71,4,6.07,13,8.87,13,8.87l-2.17,3.16a2.44,2.44,0,0,0-.42,1.2l-.15,2.19a1.1,1.1,0,0,1-1,1Z"/><path class="cls-33" d="M159.79,267.84v-12c2.41,1.29,4.88,2.55,7.39,3.78v12c-2.51-1.22-5-2.48-7.39-3.78Zm-23.72-15V230.61c2,1.51,4.07,3,6.2,4.44v22.19c-2.13-1.45-4.19-2.93-6.2-4.44Zm11.31,7.81V234.43c2.21,1.41,4.49,2.79,6.82,4.13v26.17c-2.33-1.34-4.61-2.72-6.82-4.12Zm-30.33-25v-29q2.31,2.55,4.82,5v29q-2.5-2.46-4.82-5Zm8.89,8.84V213q2.67,2.41,5.53,4.74v31.46q-2.86-2.33-5.53-4.74Zm-22.66-27.83V182.51q1.53,2.78,3.29,5.49v34.1q-1.75-2.7-3.29-5.48Zm6.19,9.7V182c1.29,1.77,2.65,3.53,4.08,5.26v44.37c-1.43-1.73-2.79-3.49-4.08-5.26ZM98.54,206.56V156.44c.75,1.92,1.57,3.81,2.47,5.69v50.11q-1.35-2.82-2.47-5.68Zm83.86,11.12c-47.68-19.21-80.62-49.56-87.52-84.32v71.27c6.9,34.76,39.84,65.11,87.52,84.31V217.68Z"/><path class="cls-33" d="M322.2,296.84V280.77q12.32-.67,24.18-2.15V294.7c-7.91,1-16,1.7-24.18,2.14Zm-38.55.08v-29.3q7.37.38,14.89.45c3.42,0,6.83,0,10.21,0v29.3c-3.38.06-6.79.07-10.21,0q-7.52-.08-14.89-.45Zm-37.16-3.85V248.28q11.65,1.84,23.84,2.92V296q-12.18-1.08-23.84-2.93Zm112.59-.19V245.57c7.71-1.25,15.25-2.75,22.57-4.48V288.4c-7.32,1.73-14.86,3.23-22.57,4.48Zm41.59-67.68c-30.38,9.35-65.22,14.5-102.13,14.13a347.71,347.71,0,0,1-72.9-8.29v71.27a347.71,347.71,0,0,0,72.9,8.29c36.91.37,71.75-4.78,102.13-14.13V225.2Z"/><path class="cls-33" d="M451.87,245.58v-13.8c33.25-19.63,54.9-45.82,58.44-74.94v13.8c-3.54,29.12-25.19,55.31-58.44,74.94ZM510.79,193V121.76c-1.06,34.86-28,66-70.13,87.43v71.27C482.79,259,509.73,227.89,510.79,193Z"/><path class="cls-34" d="M510.31,156.84c-3.54,29.12-25.19,55.31-58.44,74.94v13.8c33.25-19.63,54.9-45.82,58.44-74.94v-13.8Z"/><path class="cls-25" d="M270.33,251.2q-12.18-1.06-23.84-2.92v44.79q11.65,1.85,23.84,2.93V251.2Z"/><path class="cls-25" d="M346.38,278.62q-11.86,1.47-24.18,2.15v16.07c8.21-.44,16.27-1.17,24.18-2.14V278.62Z"/><path class="cls-25" d="M381.65,241.09c-7.32,1.73-14.86,3.23-22.57,4.48v47.31c7.71-1.25,15.25-2.75,22.57-4.48V241.09Z"/><path class="cls-34" d="M308.75,268c-3.38.06-6.79.07-10.21,0q-7.52-.07-14.89-.45v29.3q7.37.38,14.89.45c3.42,0,6.83,0,10.21,0V268Z"/><path class="cls-25" d="M101,162.13c-.9-1.88-1.72-3.77-2.47-5.69v50.12q1.13,2.87,2.47,5.68V162.13Z"/><path class="cls-25" d="M106.57,188q-1.75-2.72-3.29-5.49v34.11q1.53,2.77,3.29,5.48V188Z"/><path class="cls-34" d="M113.55,187.21c-1.43-1.73-2.79-3.49-4.08-5.26v44.37c1.29,1.77,2.65,3.53,4.08,5.26V187.21Z"/><path class="cls-25" d="M121.87,211.58q-2.5-2.46-4.82-5v29q2.31,2.55,4.82,5v-29Z"/><path class="cls-34" d="M131.47,217.73q-2.86-2.32-5.53-4.74v31.46q2.67,2.42,5.53,4.74V217.73Z"/><path class="cls-34" d="M142.27,235.05c-2.13-1.45-4.19-2.93-6.2-4.44V252.8c2,1.51,4.07,3,6.2,4.44V235.05Z"/><path class="cls-34" d="M154.2,238.56c-2.33-1.34-4.61-2.72-6.82-4.13v26.18c2.21,1.4,4.49,2.78,6.82,4.12V238.56Z"/><path class="cls-34" d="M167.18,259.58c-2.51-1.23-5-2.49-7.39-3.78v12c2.41,1.3,4.88,2.56,7.39,3.78v-12Z"/></g></g></svg>