<svg xmlns="http://www.w3.org/2000/svg" xmlns:xlink="http://www.w3.org/1999/xlink" viewBox="0 0 886.48 133.87"><defs><style>.cls-1{fill:url(#New_Gradient_Swatch_1);}.cls-2{fill:#e6e6e6;}.cls-3{fill:#ccc;}.cls-4{fill:#f2f2f2;}.cls-5{fill:#4d4d4d;}</style><linearGradient id="New_Gradient_Swatch_1" x1="58.51" x2="58.51" y2="133.87" gradientUnits="userSpaceOnUse"><stop offset="0" stop-color="#094a80"/><stop offset="1" stop-color="#00091a"/></linearGradient></defs><title>OnlineProfitMachine-horizontal</title><g id="Layer_2" data-name="Layer 2"><g id="Layer_1-2" data-name="Layer 1"><path class="cls-1" d="M117,36.28v65.06L98.24,112.18V68.81L88.85,85.08l-9.39-5.43V123L60.68,133.87V68.81L79.46,58l9.39,5.42,9.39-16.26Zm-2.17-3.75L58.51,65.05,2.18,32.53,58.51,0ZM58.51,43.37,77.29,32.53,58.51,21.68,39.74,32.53ZM56.34,68.8v43.37L18.78,90.49v21.68L0,101.33V36.27L18.78,47.12Zm-18.78,0L18.78,58V79.64L37.56,90.49Z"/><polygon class="cls-2" points="98.24 112.18 79.46 101.34 79.46 79.65 88.85 85.08 98.24 68.81 98.24 112.18"/><polygon class="cls-2" points="58.52 21.68 58.52 43.37 77.3 32.53 58.52 21.68"/><polygon class="cls-3" points="39.73 32.53 58.52 21.68 58.52 43.37 39.73 32.53"/><polygon class="cls-4" points="18.78 79.64 37.56 68.8 37.56 90.48 18.78 79.64"/><polygon class="cls-3" points="18.78 57.96 18.78 79.64 37.56 68.8 18.78 57.96"/><polygon class="cls-3" points="18.78 112.17 37.56 101.33 18.78 90.48 18.78 112.17"/><polygon class="cls-4" points="117.02 36.28 114.85 35.03 96.07 45.9 98.24 47.13 117.02 36.28"/><polygon class="cls-4" points="77.3 56.75 79.46 57.97 60.68 68.81 58.52 67.62 77.3 56.75"/><polygon class="cls-2" points="58.52 67.62 60.68 68.81 60.68 133.87 58.52 132.61 58.52 67.62"/><polygon class="cls-2" points="96.07 45.9 98.24 47.13 88.85 63.39 86.7 62.15 96.07 45.9"/><path class="cls-2" d="M58.51,65.06v2.57L2.17,35V32.52Z"/><path class="cls-3" d="M114.85,32.52V35L96.07,45.9,86.7,62.15l-9.4-5.4L58.51,67.63V65.06Z"/><polygon class="cls-4" points="0 36.27 2.18 35.03 58.52 67.62 56.34 68.8 0 36.27"/><polygon class="cls-3" points="56.34 68.8 58.52 67.62 58.52 110.92 56.34 112.17 56.34 68.8"/><path class="cls-5" d="M187,88.65a19.07,19.07,0,0,1-7.08-1.26A14.8,14.8,0,0,1,174.68,84a19.65,19.65,0,0,1-3.48-5,23,23,0,0,1-2-5.85,33.06,33.06,0,0,1,0-12.54,23,23,0,0,1,2-5.85,19.65,19.65,0,0,1,3.48-5,14.8,14.8,0,0,1,5.25-3.39A19.07,19.07,0,0,1,187,45.21a18.5,18.5,0,0,1,8.55,1.89,14.6,14.6,0,0,1,5.76,5.1,24.82,24.82,0,0,1,3.09,6.93,30.33,30.33,0,0,1,0,15.6,24.82,24.82,0,0,1-3.09,6.93,14.6,14.6,0,0,1-5.76,5.1A18.5,18.5,0,0,1,187,88.65Zm0-6.9a9.46,9.46,0,0,0,5.1-1.38,9.69,9.69,0,0,0,3.45-3.63A19.23,19.23,0,0,0,197.39,72a21.57,21.57,0,0,0,.6-5.07,22.35,22.35,0,0,0-.6-5.25A18.72,18.72,0,0,0,195.56,57a9.37,9.37,0,0,0-3.42-3.54A9.75,9.75,0,0,0,187,52.11a9,9,0,0,0-6.42,2.43A12.89,12.89,0,0,0,177,60.15a23.4,23.4,0,0,0-.39,12,18.64,18.64,0,0,0,1.83,4.74,9.37,9.37,0,0,0,3.42,3.54A9.75,9.75,0,0,0,187,81.75Z"/><path class="cls-5" d="M246.77,87.93h-6.54l-17.4-26.52a26.48,26.48,0,0,1-1.74-3.12,25.22,25.22,0,0,1,.18,3.12V87.93h-7.14v-42h7l17,26.1a33.41,33.41,0,0,1,1.74,3.18,28.79,28.79,0,0,1-.18-3.18V45.93h7.14Z"/><path class="cls-5" d="M257,87.93v-42h7.2V81h20.4v6.9Z"/><path class="cls-5" d="M291.17,87.93v-42h7.2v42Z"/><path class="cls-5" d="M341.51,87.93H335l-17.4-26.52a26.48,26.48,0,0,1-1.74-3.12,25.22,25.22,0,0,1,.18,3.12V87.93h-7.14v-42h7l17,26.1a33.41,33.41,0,0,1,1.74,3.18,28.79,28.79,0,0,1-.18-3.18V45.93h7.14Z"/><path class="cls-5" d="M351.71,87.93v-42h27.36v6.78H358.91V62.85h12.42v6.78H358.91V81.15h21.48v6.78Z"/><path class="cls-5" d="M403.19,87.93v-42h17.45q7.26,0,10.69,3.78a13.8,13.8,0,0,1-.15,18.36q-3.57,4-10.54,4H410.39v15.9ZM421,65.19a5.85,5.85,0,0,0,4.74-1.86A6.65,6.65,0,0,0,427.31,59a6.86,6.86,0,0,0-1.47-4.29c-1-1.26-2.59-1.89-4.83-1.89H410.39V65.19Z"/><path class="cls-5" d="M441.34,87.93v-42h18.6q7.26,0,10.54,3.6a13.92,13.92,0,0,1,1,16.5,11.2,11.2,0,0,1-6.42,4.68l8.4,17.22h-8.1l-8.1-16.44h-8.76V87.93Zm7.2-23.28h11.52c2.17,0,3.74-.56,4.74-1.68a6.16,6.16,0,0,0,1.5-4.26,6.34,6.34,0,0,0-1.44-4.23q-1.44-1.71-4.8-1.71H448.54Z"/><path class="cls-5" d="M499.06,88.65A19,19,0,0,1,492,87.39,14.71,14.71,0,0,1,486.74,84a19.16,19.16,0,0,1-3.48-5,22.28,22.28,0,0,1-2-5.85,32.53,32.53,0,0,1,0-12.54,22.28,22.28,0,0,1,2-5.85,19.16,19.16,0,0,1,3.48-5A14.71,14.71,0,0,1,492,46.47a19,19,0,0,1,7.07-1.26,18.52,18.52,0,0,1,8.56,1.89,14.6,14.6,0,0,1,5.76,5.1,25.11,25.11,0,0,1,3.09,6.93,30.33,30.33,0,0,1,0,15.6,25.11,25.11,0,0,1-3.09,6.93,14.6,14.6,0,0,1-5.76,5.1A18.52,18.52,0,0,1,499.06,88.65Zm0-6.9a9.47,9.47,0,0,0,5.11-1.38,9.76,9.76,0,0,0,3.45-3.63A19.23,19.23,0,0,0,509.45,72a21.57,21.57,0,0,0,.6-5.07,22.35,22.35,0,0,0-.6-5.25A18.72,18.72,0,0,0,507.62,57a9.45,9.45,0,0,0-3.42-3.54,9.81,9.81,0,0,0-5.14-1.32,9,9,0,0,0-6.42,2.43,13,13,0,0,0-3.56,5.61,22.69,22.69,0,0,0-1,6.78,21.93,21.93,0,0,0,.6,5.22,17.93,17.93,0,0,0,1.83,4.74,9.3,9.3,0,0,0,3.42,3.54A9.68,9.68,0,0,0,499.06,81.75Z"/><path class="cls-5" d="M526.19,87.93v-42h27.12v6.78H533.39V62.85H546.1v6.78H533.39v18.3Z"/><path class="cls-5" d="M560.5,87.93v-42h7.2v42Z"/><path class="cls-5" d="M594.64,52.83v35.1h-7.2V52.83H575.5v-6.9h31.08v6.9Z"/><path class="cls-5" d="M665.8,87.93h-7.2V65.61a48.41,48.41,0,0,1,.24-5q-.72,2.16-1.92,5.16l-10.2,22.92-10.2-23q-1.08-2.4-2-5a48.41,48.41,0,0,1,.24,5V87.93h-7.2v-42h7.26l10.8,24.66q.66,1.68,1.14,3.12.48-1.44,1.14-3.12l10.86-24.66h7Z"/><path class="cls-5" d="M703.06,87.93l-3.3-9.18H683.14l-3.3,9.18h-7.62l15.66-42H695l15.6,42Zm-5.58-15.66-4.62-12.6a32.62,32.62,0,0,1-1.38-4.26q-.48,1.74-1.38,4.26l-4.68,12.6Z"/><path class="cls-5" d="M731.44,88.65a17.81,17.81,0,0,1-6.84-1.26,14,14,0,0,1-5-3.36,18.7,18.7,0,0,1-3.27-5,25.5,25.5,0,0,1-1.89-5.88,33.37,33.37,0,0,1-.57-6.24,29.44,29.44,0,0,1,1-7.5,26.1,26.1,0,0,1,2.94-6.93,14.91,14.91,0,0,1,5.52-5.28,17.84,17.84,0,0,1,17.52.6,14.09,14.09,0,0,1,5.28,6.33l-6.48,2.94a12.72,12.72,0,0,0-3.51-3.78,8.32,8.32,0,0,0-4.65-1.2,8.64,8.64,0,0,0-4.83,1.35,8.93,8.93,0,0,0-3.18,3.6,19.52,19.52,0,0,0-1.62,4.74,25.5,25.5,0,0,0-.51,5.13,20,20,0,0,0,2.61,10.32,8.27,8.27,0,0,0,7.53,4.44q4.8,0,8-5.4l6.66,2.52Q741.76,88.65,731.44,88.65Z"/><path class="cls-5" d="M779.62,87.93V69.69H761.26V87.93h-7.2v-42h7.2v17h18.36v-17h7.14v42Z"/><path class="cls-5" d="M797.26,87.93v-42h7.2v42Z"/><path class="cls-5" d="M847.6,87.93h-6.54l-17.4-26.52a26.48,26.48,0,0,1-1.74-3.12,25.22,25.22,0,0,1,.18,3.12V87.93H815v-42h7l17,26.1a33.41,33.41,0,0,1,1.74,3.18,28.79,28.79,0,0,1-.18-3.18V45.93h7.14Z"/><path class="cls-5" d="M857.8,87.93v-42h27.36v6.78H865V62.85h12.42v6.78H865V81.15h21.48v6.78Z"/></g></g></svg>