<svg xmlns="http://www.w3.org/2000/svg" xmlns:xlink="http://www.w3.org/1999/xlink" viewBox="0 0 397.35 292.44"><defs><style>.cls-1{fill:url(#linear-gradient);}.cls-2{fill:#b3b3b3;}.cls-3{fill:#999;}.cls-4{fill:#ccc;}.cls-5{font-size:30.27px;fill:#fff;font-family:Overpass-Bold, Overpass;font-weight:700;letter-spacing:0.05em;}.cls-6{letter-spacing:0.04em;}.cls-7{letter-spacing:0.03em;}.cls-8{letter-spacing:0.05em;}.cls-9{letter-spacing:0.03em;}.cls-10{letter-spacing:0.01em;}.cls-11{letter-spacing:0.05em;}</style><linearGradient id="linear-gradient" x1="198.65" x2="198.65" y2="235.87" gradientUnits="userSpaceOnUse"><stop offset="0" stop-color="#fff"/><stop offset="1" stop-color="#e6e6e6"/></linearGradient></defs><title>OnlineProfitMachine_Light</title><g id="Layer_2" data-name="Layer 2"><g id="Layer_1-2" data-name="Layer 1"><g id="OnlineProfitMachine"><path class="cls-1" d="M301.74,63.93V178.56l-33.09,19.11V121.25L252.1,149.9l-16.54-9.55v76.42l-33.09,19.1V121.25l33.09-19.11,16.54,9.56L268.65,83Zm-3.81-6.62-99.27,57.32L99.39,57.31,198.66,0ZM198.66,76.42l33.09-19.11-33.09-19.1-33.09,19.1Zm-3.84,44.81v76.42l-66.18-38.21v38.21L95.55,178.54V63.91L128.64,83Zm-33.09,0-33.09-19.11v38.21l33.09,19.11Z"/><polygon class="cls-2" points="268.65 197.67 235.56 178.56 235.56 140.35 252.1 149.91 268.65 121.25 268.65 197.67"/><polygon class="cls-2" points="198.66 38.21 198.66 76.42 231.75 57.31 198.66 38.21"/><polygon class="cls-3" points="165.57 57.31 198.66 38.21 198.66 76.42 165.57 57.31"/><polygon class="cls-4" points="128.64 140.33 161.73 121.23 161.73 159.44 128.64 140.33"/><polygon class="cls-3" points="128.64 102.12 128.64 140.33 161.73 121.23 128.64 102.12"/><polygon class="cls-3" points="128.64 197.65 161.73 178.54 128.64 159.44 128.64 197.65"/><polygon class="cls-4" points="301.74 63.93 297.93 61.72 264.83 80.87 268.65 83.04 301.74 63.93"/><polygon class="cls-4" points="231.75 100 235.56 102.14 202.47 121.25 198.66 119.16 231.75 100"/><polygon class="cls-2" points="198.66 119.16 202.47 121.25 202.47 235.87 198.66 233.66 198.66 119.16"/><polygon class="cls-2" points="264.83 80.87 268.65 83.04 252.1 111.7 248.32 109.51 264.83 80.87"/><path class="cls-2" d="M198.65,114.63v4.53L99.38,61.72V57.31Z"/><path class="cls-3" d="M297.92,57.31v4.41l-33.1,19.15-16.51,28.64L231.75,100l-33.1,19.16v-4.53Z"/><polygon class="cls-4" points="95.55 63.91 99.39 61.72 198.66 119.16 194.82 121.23 95.55 63.91"/><polygon class="cls-3" points="194.82 121.23 198.66 119.16 198.66 195.45 194.82 197.65 194.82 121.23"/><text class="cls-5" transform="translate(0 281)">ONLINE P<tspan class="cls-6" x="148.98" y="0">R</tspan><tspan x="171.08" y="0">OFI</tspan><tspan class="cls-7" x="224.09" y="0">T</tspan><tspan class="cls-8" x="243.1" y="0"> </tspan><tspan class="cls-9" x="252.03" y="0">M</tspan><tspan class="cls-10" x="277.52" y="0">A</tspan><tspan class="cls-11" x="299.35" y="0">CHINE</tspan></text></g></g></g></svg>