<?xml version="1.0" encoding="UTF-8"?>
<svg width="132px" height="55px" viewBox="0 0 132 55" version="1.1" xmlns="http://www.w3.org/2000/svg" xmlns:xlink="http://www.w3.org/1999/xlink">
    <!-- Generator: Sketch 52.2 (67145) - http://www.bohemiancoding.com/sketch -->
    <title>adtrics-color</title>
    <desc>Created with Sketch.</desc>
    <g id="offer" stroke="none" stroke-width="1" fill="none" fill-rule="evenodd">
        <g transform="translate(-654.000000, -41.000000)" id="adtrics-color">
            <g transform="translate(654.000000, 41.000000)">
                <path d="M8.70425321,0 L46.2957468,0 C51.1029731,-8.83335264e-16 55,3.89818364 55,8.70683685 L55,46.2931632 C55,51.1018164 51.1029731,55 46.2957468,55 L8.70425321,55 C3.89702691,55 5.88715431e-16,51.1018164 0,46.2931632 L0,8.70683685 C-5.88715431e-16,3.89818364 3.89702691,8.83335264e-16 8.70425321,0 Z" id="Rectangle" fill="#4E69A2"></path>
                <path d="M48,14 L48,38.6244635 L43.9401709,38.6244635 L43.6695157,36.2103004 C42.3162393,38.3025751 40.1509972,39 38.039886,39 C32.8974359,39 29,35.6201717 29,29.9334764 C29,24.2467811 32.7891738,20.8133047 37.9316239,20.8133047 C39.7720798,20.8133047 42.6410256,21.832618 43.6695157,23.6030043 L43.6695157,14 L48,14 Z M33.3304843,29.9334764 C33.3304843,31.7159711 34.2899951,33.3630641 35.8475783,34.2543114 C37.4051615,35.1455588 39.3241832,35.1455588 40.8817664,34.2543114 C42.4393496,33.3630641 43.3988605,31.7159711 43.3988604,29.9334764 C43.4438231,28.5779785 42.9240068,27.2638695 41.9615067,26.2998094 C40.9990067,25.3357493 39.6786417,24.8066943 38.3105413,24.8369099 C35.5498575,24.8369099 33.3304843,26.7682403 33.3304843,29.9334764 Z" id="Shape" fill="#FFFFFF" fill-rule="nonzero"></path>
                <path d="M65.5432099,16 L65.5432099,20.8402865 L70.3045267,20.8402865 L70.3045267,24.4705015 L65.4897119,24.4705015 L65.4897119,31.7835431 C65.4897119,33.4145092 66.399177,34.2036864 67.7366255,34.2036864 C68.4625745,34.1785649 69.1743727,33.9990757 69.8230453,33.6775683 L71,37.3077832 C69.8815396,37.7661471 68.680803,37.9987383 67.4691358,37.9917367 C63.7242798,38.1495721 61.2633745,36.0450997 61.2633745,31.7835431 L61.2633745,24.4705015 L58,24.4705015 L58,20.8402865 L61.2633745,20.8402865 L61.2633745,16.4735063 L65.5432099,16 Z" id="Path" fill="#FFFFFF"></path>
                <path d="M78.0787402,21.4343827 L78.4094488,23.4945477 C79.7874016,21.325953 81.6062992,21.0006638 83.4251969,21.0006638 C85.1103709,20.9771912 86.7430689,21.577001 88,22.6813247 L86.015748,26.4221506 C85.1544405,25.6267063 83.9982897,25.2149599 82.8188976,25.2836384 C80.503937,25.2836384 78.4094488,26.4763655 78.4094488,29.7292575 L78.4094488,39 L74,39 L74,21.4343827 L78.0787402,21.4343827 Z" id="Path" fill="#FFFFFF"></path>
                <rect id="Rectangle" fill="#FFFFFF" x="91" y="21" width="5" height="18"></rect>
                <path d="M116,36.1629879 C114.134186,38.0534427 111.522169,39.083718 108.820946,38.9946704 C103.47973,38.9946704 99,35.8853719 99,29.5002053 C99,23.1150387 103.47973,20.0057402 108.820946,20.0057402 C111.353549,19.9157561 113.803016,20.8872594 115.540541,22.6708532 L112.668919,25.6135822 C111.645118,24.7132508 110.319453,24.2006129 108.935811,24.1699793 C105.834459,24.1699793 103.594595,26.3909068 103.594595,29.5002053 C103.594595,32.6095039 106.006757,34.7749082 108.820946,34.7749082 C110.332298,34.8192525 111.799674,34.2797866 112.898649,33.2757821 L116,36.1629879 Z" id="Path" fill="#FFFFFF"></path>
                <path d="M128.927083,25.247093 C127.788063,24.1578214 126.293058,23.5831135 124.760417,23.6453488 C122.78125,23.6453488 121.6875,24.3081395 121.6875,25.4127907 C121.6875,26.5174419 122.677083,27.2354651 124.8125,27.4011628 C127.989583,27.622093 132,28.3953488 132,33.0901163 C132,36.2383721 129.604167,39 124.760417,39 C122.104167,39 119.447917,38.502907 117,35.7965116 L119.03125,32.6482558 C120.229167,34.0290698 122.989583,35.1337209 124.864583,35.1337209 C126.739583,35.1337209 127.885417,34.3052326 127.885417,32.9796512 C127.885417,31.6540698 126.947917,31.2674419 124.552083,31.1017442 C122.15625,30.9360465 117.572917,29.6656977 117.572917,25.5784884 C117.572917,21.4912791 121.583333,20 124.65625,20 C127.729167,20 129.291667,20.5523256 131.21875,22.375 L128.927083,25.247093 Z" id="Path" fill="#FFFFFF"></path>
                <path d="M96,16.5 C96,19.8333333 91,19.8333333 91,16.5 C91,13.1666667 96,13.1666667 96,16.5 Z" id="Path" fill="#4E69A2"></path>
                <path d="M102,8.5 C102,11.8333333 97,11.8333333 97,8.5 C97,5.16666667 102,5.16666667 102,8.5 Z" id="Path" fill="#4E69A2"></path>
                <path d="M86,16 C86,18.6666667 82,18.6666667 82,16 C82,13.3333333 86,13.3333333 86,16 Z" id="Path" fill="#4E69A2"></path>
                <path d="M90,10 C90,12.6666667 86,12.6666667 86,10 C86,7.33333333 90,7.33333333 90,10 Z" id="Path" fill="#4E69A2"></path>
                <polygon id="Path" fill="#4E69A2" points="92.7623762 16 87.6006601 10.510989 84.0660066 15.4065934 83 14.8131868 87.4884488 8.63186813 92.7062706 14.2197802 98.990099 7 100 7.64285714 92.7623762 16"></polygon>
                <path d="M21.5922865,20.4324627 L26,20.4324627 L26,38.4596119 L21.7024793,38.4596119 L21.4820937,35.8149104 C20.4352617,37.9738504 17.5151515,38.9993469 15.476584,38.9993469 C10.0220386,39.0533204 6,35.7609369 6,29.4460373 C6,23.1311378 10.2424242,19.9467012 15.5867769,20.0006747 C18.0661157,20.0006747 20.4352617,21.1341182 21.4820937,22.9152438 L21.5922865,20.4324627 Z M10.5730028,29.4460373 C10.5730028,32.8463679 12.9972452,34.8973609 16.0275482,34.8973609 C23.1900826,34.8973609 23.1900826,23.9947138 16.0275482,23.9947138 C12.9972452,23.9947138 10.5730028,25.9917333 10.5730028,29.4460373 Z" id="Shape" fill="#FFFFFF" fill-rule="nonzero"></path>
            </g>
        </g>
    </g>
</svg>