<?xml version="1.0" ?><svg data-name="004" id="_004" viewBox="0 0 128 128" xmlns="http://www.w3.org/2000/svg" xmlns:xlink="http://www.w3.org/1999/xlink"><defs><style>.cls-1{fill:#97c1ff;}.cls-2{fill:none;}.cls-3{opacity:0.5;}.cls-4{fill:#6d6daa;}.cls-5{fill:#fff;}.cls-6{fill:#96d7ff;}.cls-7{fill:#ff99b1;}.cls-8{fill:#b1f1a8;}.cls-9{opacity:0.3;}.cls-10{clip-path:url(#clip-path);}.cls-11{clip-path:url(#clip-path-2);}.cls-12{fill:#ced8ee;}.cls-13{fill:#efdcd2;}.cls-14{fill:#cc7e54;}.cls-15{fill:#f9e2dc;}.cls-16{fill:#d6b5b0;}.cls-17{fill:#fff27d;}.cls-18{opacity:0.8;}.cls-19{fill:#f7a706;}.cls-20{fill:#eef6ff;}.cls-21{fill:#939fc6;}</style><clipPath id="clip-path"><circle class="cls-1" cx="64.01" cy="68.11" r="44.88"/></clipPath><clipPath id="clip-path-2"><path class="cls-2" d="M109,68a45,45,0,0,1-90,0c0-24.85,20.15-52,45-52S109,43.14,109,68Z"/></clipPath></defs><title/><g class="cls-3"><path class="cls-4" d="M64.12,126H64a1,1,0,0,1-1-1h0a1,1,0,0,1,1-1h.24a1,1,0,0,1,1,1h0a1,1,0,0,1-1,1h-.12ZM60,125.86a1,1,0,0,1-.93-1.07h0a1,1,0,0,1,1.07-.92h0a1,1,0,0,1,.92,1.06h0a1,1,0,0,1-1,.93H60Zm7.26-.94a1,1,0,0,1,.92-1.07h0a1,1,0,0,1,1.07.92h0a1,1,0,0,1-.92,1.07h-.08A1,1,0,0,1,67.22,124.92Zm-11.28.52a1,1,0,0,1-.86-1.13h0a1,1,0,0,1,1.13-.85h0a1,1,0,0,1,.85,1.13h0a1,1,0,0,1-1,.86h-.13Zm15.24-.88a1,1,0,0,1,.84-1.13h0a1,1,0,0,1,1.14.85h0a1,1,0,0,1-.85,1.13h-.14A1,1,0,0,1,71.18,124.56Zm-19.23.19h0a1,1,0,0,1-.77-1.19h0a1,1,0,0,1,1.18-.77h0a1,1,0,0,1,.77,1.18h0a1,1,0,0,1-1,.8h0Zm23.15-.82a1,1,0,0,1,.77-1.19h0a1,1,0,0,1,1.19.77h0a1,1,0,0,1-.77,1.18h0a.75.75,0,0,1-.21,0h0A1,1,0,0,1,75.1,123.93ZM48,123.77h0a1,1,0,0,1-.69-1.24h0a1,1,0,0,1,1.24-.68h0a1,1,0,0,1,.69,1.23h0a1,1,0,0,1-1,.73h0A.88.88,0,0,1,48,123.77ZM79,123a1,1,0,0,1,.69-1.24h0a1,1,0,0,1,1.25.68h0a1,1,0,0,1-.69,1.24h0a.88.88,0,0,1-.28,0h0A1,1,0,0,1,79,123Zm-34.8-.5h0a1,1,0,0,1-.6-1.28h0a1,1,0,0,1,1.29-.6h0a1,1,0,0,1,.59,1.28h0a1,1,0,0,1-.93.66h0A1.07,1.07,0,0,1,44.17,122.52Zm38.6-.68a1,1,0,0,1,.6-1.28h0a1,1,0,0,1,1.28.59h0a1,1,0,0,1-.59,1.29h0a1.08,1.08,0,0,1-.35.06h0A1,1,0,0,1,82.77,121.84ZM40.42,121a1,1,0,0,1-.51-1.32h0a1,1,0,0,1,1.32-.5h0a1,1,0,0,1,.51,1.32h0a1,1,0,0,1-.92.59h0A1,1,0,0,1,40.42,121Zm46.06-.59a1,1,0,0,1,.5-1.33h0a1,1,0,0,1,1.32.5h0a1,1,0,0,1-.5,1.33h0a1.06,1.06,0,0,1-.41.09h0A1,1,0,0,1,86.48,120.41Zm-49.7-1.18h0a1,1,0,0,1-.41-1.36h0a1,1,0,0,1,1.35-.41h0a1,1,0,0,1,.41,1.35h0a1,1,0,0,1-.88.53h0A1,1,0,0,1,36.78,119.23Zm53.29-.52a1,1,0,0,1,.41-1.35h0a1,1,0,0,1,1.35.41h0a1,1,0,0,1-.41,1.35h0a1,1,0,0,1-.47.12h0A1,1,0,0,1,90.07,118.71Zm-56.8-1.51a1,1,0,0,1-.32-1.38h0a1,1,0,0,1,1.38-.32h0a1,1,0,0,1,.32,1.38h0a1,1,0,0,1-.85.47h0A1,1,0,0,1,33.27,117.2Zm60.27-.43a1,1,0,0,1,.31-1.38h0a1,1,0,0,1,1.38.31h0a1,1,0,0,1-.31,1.38h0a1,1,0,0,1-.54.16h0A1,1,0,0,1,93.54,116.77Zm-63.62-1.84h0a1,1,0,0,1-.22-1.4h0a1,1,0,0,1,1.39-.22h0a1,1,0,0,1,.22,1.39h0a1,1,0,0,1-.81.41h0A1,1,0,0,1,29.92,114.93Zm66.94-.34a1,1,0,0,1,.22-1.4h0a1,1,0,0,1,1.39.22h0a1,1,0,0,1-.21,1.4h0a1,1,0,0,1-.59.19h0A1,1,0,0,1,96.86,114.59Zm-70.13-2.15h0a1,1,0,0,1-.12-1.41h0a1,1,0,0,1,1.41-.12h0a1,1,0,0,1,.12,1.41h0a1,1,0,0,1-.77.35h0A1,1,0,0,1,26.73,112.44Zm73.3-.26a1,1,0,0,1,.11-1.4h0a1,1,0,0,1,1.41.11h0a1,1,0,0,1-.11,1.41h0a1,1,0,0,1-.65.24h0A1,1,0,0,1,100,112.18Zm-76.31-2.45h0a1,1,0,0,1,0-1.41h0a1,1,0,0,1,1.41,0h0a1,1,0,0,1,0,1.42h0a1,1,0,0,1-.72.3h0A1,1,0,0,1,23.72,109.73Zm79.3-.17a1,1,0,0,1,0-1.41h0a1,1,0,0,1,1.41,0h0a1,1,0,0,1,0,1.41h0a1,1,0,0,1-.7.29h0A1,1,0,0,1,103,109.56Zm-82.11-2.74a1,1,0,0,1,.07-1.41h0a1,1,0,0,1,1.42.07h0a1,1,0,0,1-.08,1.42h0a1,1,0,0,1-.67.25h0A1,1,0,0,1,20.91,106.82Zm84.91-.08a1,1,0,0,1-.08-1.41h0a1,1,0,0,1,1.42-.08h0a1,1,0,0,1,.07,1.41h0a1,1,0,0,1-.74.34h0A1,1,0,0,1,105.82,106.74Zm-87.51-3h0a1,1,0,0,1,.17-1.41h0a1,1,0,0,1,1.4.17h0a1,1,0,0,1-.17,1.41h0a1,1,0,0,1-.62.21h0A1,1,0,0,1,18.31,103.73Zm90.11,0a1,1,0,0,1-.17-1.4h0a1,1,0,0,1,1.4-.18h0a1,1,0,0,1,.18,1.41h0a1,1,0,0,1-.79.38h0A1,1,0,0,1,108.42,103.73Zm-92.49-3.27a1,1,0,0,1,.26-1.39h0a1,1,0,0,1,1.39.27h0a1,1,0,0,1-.26,1.39h0a1.07,1.07,0,0,1-.56.17h0A1,1,0,0,1,15.93,100.46Zm94.88.09a1,1,0,0,1-.27-1.39h0a1,1,0,0,1,1.38-.27h0a1,1,0,0,1,.28,1.39h0a1,1,0,0,1-.83.44h0A1,1,0,0,1,110.81,100.55ZM13.78,97a1,1,0,0,1,.36-1.37h0a1,1,0,0,1,1.37.37h0a1,1,0,0,1-.37,1.36h0a.9.9,0,0,1-.5.14h0A1,1,0,0,1,13.78,97Zm99.19.18a1,1,0,0,1-.37-1.37h0a1,1,0,0,1,1.37-.37h0a1,1,0,0,1,.36,1.37h0a1,1,0,0,1-.86.5h0A1,1,0,0,1,113,97.21ZM11.87,93.46h0a1,1,0,0,1,.45-1.33h0a1,1,0,0,1,1.34.45h0a1,1,0,0,1-.46,1.34h0a1,1,0,0,1-.44.1h0A1,1,0,0,1,11.87,93.46Zm103,.26a1,1,0,0,1-.46-1.34h0a1,1,0,0,1,1.33-.46h0a1,1,0,0,1,.47,1.34h0a1,1,0,0,1-.9.56h0A1,1,0,0,1,114.89,93.72Zm-104.66-4h0a1,1,0,0,1,.55-1.3h0a1,1,0,0,1,1.3.55h0a1,1,0,0,1-.55,1.3h0a1,1,0,0,1-.38.08h0A1,1,0,0,1,10.23,89.77Zm106.33.34a1,1,0,0,1-.55-1.3h0a1,1,0,0,1,1.3-.56h0a1,1,0,0,1,.55,1.3h0a1,1,0,0,1-.93.63h0A1,1,0,0,1,116.56,90.11ZM8.84,86h0a1,1,0,0,1,.64-1.26h0a1,1,0,0,1,1.26.64h0a1,1,0,0,1-.64,1.26h0a.84.84,0,0,1-.31.05h0A1,1,0,0,1,8.84,86ZM118,86.39a1,1,0,0,1-.65-1.26h0a1,1,0,0,1,1.26-.65h0a1,1,0,0,1,.65,1.26h0a1,1,0,0,1-1,.69h0A1,1,0,0,1,118,86.39ZM7.72,82.08a1,1,0,0,1,.73-1.21h0a1,1,0,0,1,1.21.73h0a1,1,0,0,1-.72,1.21h0l-.25,0h0A1,1,0,0,1,7.72,82.08Zm111.41.5a1,1,0,0,1-.73-1.21h0a1,1,0,0,1,1.2-.73h0a1,1,0,0,1,.74,1.2h0a1,1,0,0,1-1,.76h0ZM6.88,78.13h0A1,1,0,0,1,7.69,77h0a1,1,0,0,1,1.16.81h0A1,1,0,0,1,8,78.94H7.86A1,1,0,0,1,6.88,78.13ZM120,78.7a1,1,0,0,1-.82-1.15h0a1,1,0,0,1,1.16-.82h0a1,1,0,0,1,.81,1.15h0a1,1,0,0,1-1,.84h0ZM6.32,74.12A1,1,0,0,1,7.21,73h0a1,1,0,0,1,1.1.89h0A1,1,0,0,1,7.42,75H7.31A1,1,0,0,1,6.32,74.12Zm114.29.65a1,1,0,0,1-.89-1.1h0a1,1,0,0,1,1.09-.89h0a1,1,0,0,1,.9,1.09h0a1,1,0,0,1-1,.9h-.1ZM6,70.08a1,1,0,0,1,1-1H7a1,1,0,0,1,1,1H8a1,1,0,0,1-1,1H7A1,1,0,0,1,6,70.08Zm114.9.73a1,1,0,0,1-1-1h0a1,1,0,0,1,1-1h0a1,1,0,0,1,1,1h0a1,1,0,0,1-1,1h0ZM7,67.07a1,1,0,0,1-1-1H6a1,1,0,0,1,1-1h0a1,1,0,0,1,1,1H8a1,1,0,0,1-1,1H7Zm113-1.2a1,1,0,0,1,1-1h0a1,1,0,0,1,1,1h0a1,1,0,0,1-1,1h0A1,1,0,0,1,120,65.87ZM7.2,63.1A1,1,0,0,1,6.31,62h0a1,1,0,0,1,1.09-.89h0a1,1,0,0,1,.9,1.1h0a1,1,0,0,1-1,.89H7.2ZM119.68,62a1,1,0,0,1,.89-1.1h0a1,1,0,0,1,1.1.89h0a1,1,0,0,1-.89,1.1h-.11A1,1,0,0,1,119.68,62Zm-112-2.82A1,1,0,0,1,6.86,58h0A1,1,0,0,1,8,57.18H8a1,1,0,0,1,.81,1.16h0a1,1,0,0,1-1,.83h0Zm111.46-1h0a1,1,0,0,1,.81-1.17h0a1,1,0,0,1,1.16.81h0a1,1,0,0,1-.81,1.16h0l-.18,0h0A1,1,0,0,1,119.13,58.1ZM8.43,55.25A1,1,0,0,1,7.69,54h0a1,1,0,0,1,1.21-.72h0a1,1,0,0,1,.74,1.21h0a1,1,0,0,1-1,.76h0A.87.87,0,0,1,8.43,55.25Zm109.88-1a1,1,0,0,1,.72-1.22h0a1,1,0,0,1,1.22.73h0a1,1,0,0,1-.73,1.21h0a1,1,0,0,1-.24,0h0A1,1,0,0,1,118.31,54.29ZM9.45,51.4a1,1,0,0,1-.65-1.26h0a1,1,0,0,1,1.26-.64h0a1,1,0,0,1,.64,1.26h0a1,1,0,0,1-.95.69h0A.79.79,0,0,1,9.45,51.4Zm107.77-.87a1,1,0,0,1,.64-1.26h0a1,1,0,0,1,1.26.64h0a1,1,0,0,1-.64,1.26h0a.81.81,0,0,1-.31,0h0A1,1,0,0,1,117.22,50.53ZM10.74,47.64a1,1,0,0,1-.56-1.3h0a1,1,0,0,1,1.3-.55h0a1,1,0,0,1,.56,1.3h0a1,1,0,0,1-.93.63h0A1,1,0,0,1,10.74,47.64Zm105.14-.77a1,1,0,0,1,.54-1.3h0a1,1,0,0,1,1.31.54h0a1,1,0,0,1-.55,1.31h0a1,1,0,0,1-.38.07h0A1,1,0,0,1,115.88,46.87ZM12.29,44a1,1,0,0,1-.46-1.34h0a1,1,0,0,1,1.33-.46h0a1,1,0,0,1,.47,1.34h0a1,1,0,0,1-.91.56h0A1,1,0,0,1,12.29,44Zm102-.66a1,1,0,0,1,.45-1.34h0a1,1,0,0,1,1.34.46h0a1,1,0,0,1-.45,1.33h0a1.06,1.06,0,0,1-.45.11h0A1,1,0,0,1,114.28,43.31ZM14.09,40.42a1,1,0,0,1-.36-1.36h0a1,1,0,0,1,1.36-.37h0a1,1,0,0,1,.37,1.37h0a1,1,0,0,1-.87.51h0A1,1,0,0,1,14.09,40.42Zm98.34-.55h0a1,1,0,0,1,.36-1.37h0a1,1,0,0,1,1.37.36h0a1,1,0,0,1-.36,1.37h0a1,1,0,0,1-.5.14h0A1,1,0,0,1,112.43,39.87ZM16.14,37a1,1,0,0,1-.27-1.39h0a1,1,0,0,1,1.39-.27h0a1,1,0,0,1,.27,1.39h0a1,1,0,0,1-.83.44h0A1,1,0,0,1,16.14,37Zm94.21-.45a1,1,0,0,1,.27-1.38h0a1,1,0,0,1,1.39.26h0a1,1,0,0,1-.27,1.39h0a1,1,0,0,1-.56.17h0A1,1,0,0,1,110.35,36.56ZM18.42,33.75a1,1,0,0,1-.17-1.4h0a1,1,0,0,1,1.4-.18h0a1,1,0,0,1,.18,1.41h0A1,1,0,0,1,19,34h0A1,1,0,0,1,18.42,33.75ZM108,33.41a1,1,0,0,1,.16-1.4h0a1,1,0,0,1,1.41.17h0a1,1,0,0,1-.17,1.4h0a1,1,0,0,1-.62.21h0A1,1,0,0,1,108,33.41ZM20.92,30.66a1,1,0,0,1-.07-1.42h0a1,1,0,0,1,1.41-.07h0a1,1,0,0,1,.08,1.41h0a1,1,0,0,1-.75.33h0A1,1,0,0,1,20.92,30.66Zm84.61-.23A1,1,0,0,1,105.6,29h0a1,1,0,0,1,1.41.07h0a1,1,0,0,1-.07,1.41h0a1,1,0,0,1-.67.26h0A1,1,0,0,1,105.53,30.43Zm-81.9-2.69a1,1,0,0,1,0-1.41h0a1,1,0,0,1,1.41,0h0a1,1,0,0,1,0,1.42h0a1.05,1.05,0,0,1-.7.28h0A1,1,0,0,1,23.63,27.74Zm79.17-.12h0a1,1,0,0,1,0-1.42h0a1,1,0,0,1,1.41,0h0a1,1,0,0,1,0,1.42h0a1,1,0,0,1-.72.3h0A1,1,0,0,1,102.8,27.62ZM26.54,25a1,1,0,0,1,.12-1.41h0a1,1,0,0,1,1.41.12h0a1,1,0,0,1-.12,1.41h0a1,1,0,0,1-.65.23h0A1,1,0,0,1,26.54,25ZM99.9,25a1,1,0,0,1-.13-1.41h0a1,1,0,0,1,1.41-.13h0a1,1,0,0,1,.12,1.41h0a1,1,0,0,1-.76.36h0A1,1,0,0,1,99.9,25Zm-70.28-2.5a1,1,0,0,1,.22-1.4h0a1,1,0,0,1,1.4.22h0a1,1,0,0,1-.22,1.4h0a1,1,0,0,1-.59.19h0A1,1,0,0,1,29.62,22.52Zm67.19.09a1,1,0,0,1-.22-1.39h0A1,1,0,0,1,98,21h0a1,1,0,0,1,.23,1.4h0a1,1,0,0,1-.81.41h0A1,1,0,0,1,96.81,22.61ZM32.87,20.23a1,1,0,0,1,.32-1.38h0a1,1,0,0,1,1.38.32h0a1,1,0,0,1-.32,1.38h0a1,1,0,0,1-.53.15h0A1,1,0,0,1,32.87,20.23Zm60.7.2a1,1,0,0,1-.32-1.37h0a1,1,0,0,1,1.38-.33h0a1,1,0,0,1,.32,1.38h0a1,1,0,0,1-.85.47h0A.9.9,0,0,1,93.57,20.43Zm-57.3-2.25a1,1,0,0,1,.42-1.36h0a1,1,0,0,1,1.35.41h0a1,1,0,0,1-.41,1.36h0a1,1,0,0,1-.47.11h0A1,1,0,0,1,36.27,18.18Zm53.91.3h0a1,1,0,0,1-.42-1.35h0a1,1,0,0,1,1.36-.41h0a1,1,0,0,1,.41,1.36h0a1,1,0,0,1-.88.53h0A1,1,0,0,1,90.18,18.48ZM39.81,16.36a1,1,0,0,1,.5-1.32h0a1,1,0,0,1,1.32.5h0a1,1,0,0,1-.5,1.33h0a1,1,0,0,1-.41.08h0A1,1,0,0,1,39.81,16.36Zm46.85.41h0a1,1,0,0,1-.51-1.32h0A1,1,0,0,1,87.47,15h0A1,1,0,0,1,88,16.27h0a1,1,0,0,1-.91.59h0A1,1,0,0,1,86.66,16.77Zm-43.2-2a1,1,0,0,1,.6-1.28h0a1,1,0,0,1,1.28.59h0a1,1,0,0,1-.59,1.29h0a1.07,1.07,0,0,1-.35.06h0A1,1,0,0,1,43.46,14.8ZM83,15.32a1,1,0,0,1-.6-1.28h0a1,1,0,0,1,1.28-.6h0a1,1,0,0,1,.6,1.28h0a1,1,0,0,1-.94.66h0A1.06,1.06,0,0,1,83,15.32ZM47.22,13.5a1,1,0,0,1,.68-1.24h0a1,1,0,0,1,1.24.69h0a1,1,0,0,1-.68,1.23h0a.9.9,0,0,1-.28,0h0A1,1,0,0,1,47.22,13.5Zm32.09.62a1,1,0,0,1-.68-1.24h0a1,1,0,0,1,1.23-.68h0a1,1,0,0,1,.69,1.23h0a1,1,0,0,1-1,.73h0A1,1,0,0,1,79.31,14.12ZM51.06,12.46a1,1,0,0,1,.77-1.18h0A1,1,0,0,1,53,12h0a1,1,0,0,1-.77,1.19h0l-.22,0h0A1,1,0,0,1,51.06,12.46Zm24.46.73A1,1,0,0,1,74.75,12h0a1,1,0,0,1,1.18-.77h0a1,1,0,0,1,.77,1.18h0a1,1,0,0,1-1,.8h0ZM55,11.7a1,1,0,0,1,.85-1.13h0a1,1,0,0,1,1.13.85h0a1,1,0,0,1-.85,1.13h-.14A1,1,0,0,1,55,11.7Zm16.71.82a1,1,0,0,1-.85-1.12h0a1,1,0,0,1,1.12-.86h0a1,1,0,0,1,.86,1.13h0a1,1,0,0,1-1,.86h-.14Zm-12.76-1.3a1,1,0,0,1,.93-1.07h0a1,1,0,0,1,1.06.92h0A1,1,0,0,1,60,12.14h-.07A1,1,0,0,1,58.91,11.22Zm8.88.91h0a1,1,0,0,1-.93-1.07h0a1,1,0,0,1,1.06-.93h0a1,1,0,0,1,.93,1.06h0a1,1,0,0,1-1,.94h-.06ZM63.88,12Zm-1-1a1,1,0,0,1,1-1h0a1,1,0,0,1,1,1h0a1,1,0,0,1-1,1h0A1,1,0,0,1,62.88,11Z"/><polygon class="cls-5" points="113 120 98 120 98 101 109 101 113 105 113 120"/><path class="cls-4" d="M113,121H98a1,1,0,0,1-1-1V101a1,1,0,0,1,1-1h11a1,1,0,0,1,.71.29l4,4a1,1,0,0,1,.29.71v15A1,1,0,0,1,113,121Zm-14-2h13V105.41L108.59,102H99Z"/><g class="cls-3"><path class="cls-4" d="M109,111h-7a1,1,0,0,1,0-2h7a1,1,0,0,1,0,2Z"/><path class="cls-4" d="M109,114h-7a1,1,0,0,1,0-2h7a1,1,0,0,1,0,2Z"/></g><path class="cls-4" d="M113,106h-4a1,1,0,0,1-1-1v-4a1,1,0,0,1,1.71-.71l4,4A1,1,0,0,1,113,106Zm-3-2h.59l-.59-.59Z"/><ellipse class="cls-6" cx="13.4" cy="117.66" rx="2.69" ry="2.31" transform="translate(-30.49 7.67) rotate(-15.26)"/><path class="cls-4" d="M13.2,121a3.38,3.38,0,0,1-3.36-2.36,3.52,3.52,0,0,1,2.69-4.16,3.92,3.92,0,0,1,2.71.21,3.13,3.13,0,0,1,1.73,2h0a3.52,3.52,0,0,1-2.69,4.16A4.09,4.09,0,0,1,13.2,121Zm.42-4.67a2.12,2.12,0,0,0-.56.08,1.35,1.35,0,1,0,.69,2.52A1.56,1.56,0,0,0,15,117.22h0a1.16,1.16,0,0,0-.65-.73A1.79,1.79,0,0,0,13.61,116.33Z"/><ellipse class="cls-6" cx="25.62" cy="115.36" rx="2.69" ry="2.31" transform="translate(-37.49 15.45) rotate(-19.76)"/><path class="cls-4" d="M25.37,118.71a3.34,3.34,0,0,1-3.23-2.11,3.52,3.52,0,0,1,2.36-4.36,3.92,3.92,0,0,1,2.71,0,3.13,3.13,0,0,1,1.88,1.87,3.52,3.52,0,0,1-2.36,4.36A4.06,4.06,0,0,1,25.37,118.71Zm.51-4.71a2.08,2.08,0,0,0-.7.13,1.35,1.35,0,1,0,2,.66h0a1.16,1.16,0,0,0-.71-.67A1.76,1.76,0,0,0,25.88,114Z"/><path class="cls-4" d="M16.07,118.28a1,1,0,0,1-1-1V108.2a1,1,0,1,1,2,0v9.08A1,1,0,0,1,16.07,118.28Z"/><path class="cls-4" d="M28.27,116a1,1,0,0,1-1-1v-9.85a1,1,0,0,1,2,0V115A1,1,0,0,1,28.27,116Z"/><polygon class="cls-6" points="28.27 105.12 16.07 108.19 16.07 103.08 28.27 100 28.27 105.12"/><path class="cls-4" d="M16.07,109.2a1,1,0,0,1-1-1v-5.12a1,1,0,0,1,.76-1L28,99a1,1,0,0,1,1.24,1v5.12a1,1,0,0,1-.76,1l-12.2,3.08A1,1,0,0,1,16.07,109.2Zm1-5.34v3.06l10.2-2.57v-3.06Zm11.2,1.26h0Z"/><circle class="cls-7" cx="117" cy="47" r="10"/><path class="cls-4" d="M117,58a11,11,0,1,1,11-11A11,11,0,0,1,117,58Zm0-20a9,9,0,1,0,9,9A9,9,0,0,0,117,38Z"/><polygon class="cls-5" points="114.27 51.55 114.27 42.45 121.55 47 114.27 51.55"/><path class="cls-4" d="M114.27,52.54a1,1,0,0,1-1-1V42.45a1,1,0,0,1,1.53-.85l7.27,4.55a1,1,0,0,1,0,1.7l-7.27,4.54A1,1,0,0,1,114.27,52.54Zm1-8.29v5.48L119.66,47Z"/><rect class="cls-5" height="19" width="18" x="1" y="37"/><path class="cls-4" d="M19,57H1a1,1,0,0,1-1-1V37a1,1,0,0,1,1-1H19a1,1,0,0,1,1,1V56A1,1,0,0,1,19,57ZM2,55H18V38H2Z"/><rect class="cls-6" height="10" width="12" x="4" y="40"/><path class="cls-4" d="M16,51H4a1,1,0,0,1-1-1V40a1,1,0,0,1,1-1H16a1,1,0,0,1,1,1V50A1,1,0,0,1,16,51ZM5,49H15V41H5Z"/><polygon class="cls-8" points="16 50 4 50 7.23 45.67 9.38 47.42 12.23 43.56 16 50"/><path class="cls-4" d="M16,51H4a1,1,0,0,1-.8-1.6l3.23-4.33a1,1,0,0,1,1.43-.18L9.2,46l2.23-3a1,1,0,0,1,.86-.4,1,1,0,0,1,.81.49l3.77,6.43A1,1,0,0,1,16,51ZM6,49h8.26l-2.12-3.62-2,2.64a1,1,0,0,1-.68.4,1,1,0,0,1-.76-.22L7.41,47.11Z"/></g><g class="cls-9"><circle class="cls-1" cx="64.01" cy="68.11" r="44.88"/><g class="cls-10"><circle class="cls-4" cx="15.12" cy="15.21" r="0.8"/><path class="cls-4" d="M15.12,17a1.8,1.8,0,1,1,1.8-1.8A1.8,1.8,0,0,1,15.12,17Zm0-2a.2.2,0,0,0-.2.2c0,.22.4.22.4,0A.2.2,0,0,0,15.12,15Z"/><circle class="cls-4" cx="21.53" cy="15.21" r="0.8"/><path class="cls-4" d="M21.53,17a1.8,1.8,0,1,1,1.8-1.8A1.8,1.8,0,0,1,21.53,17Zm0-2a.2.2,0,0,0-.2.2c0,.22.4.22.4,0A.2.2,0,0,0,21.53,15Z"/><circle class="cls-4" cx="27.94" cy="15.21" r="0.8"/><path class="cls-4" d="M27.94,17a1.8,1.8,0,1,1,1.8-1.8A1.8,1.8,0,0,1,27.94,17Zm0-2a.2.2,0,0,0-.2.2c0,.22.4.22.4,0A.2.2,0,0,0,27.94,15Z"/><circle class="cls-4" cx="34.36" cy="15.21" r="0.8"/><path class="cls-4" d="M34.36,17a1.8,1.8,0,1,1,1.8-1.8A1.8,1.8,0,0,1,34.36,17Zm0-2a.2.2,0,0,0-.2.2c0,.22.4.22.4,0A.2.2,0,0,0,34.36,15Z"/><circle class="cls-4" cx="40.77" cy="15.21" r="0.8"/><path class="cls-4" d="M40.77,17a1.8,1.8,0,1,1,1.8-1.8A1.8,1.8,0,0,1,40.77,17Zm0-2a.2.2,0,0,0-.2.2c0,.22.4.22.4,0A.2.2,0,0,0,40.77,15Z"/><circle class="cls-4" cx="47.18" cy="15.21" r="0.8"/><path class="cls-4" d="M47.18,17a1.8,1.8,0,1,1,1.8-1.8A1.8,1.8,0,0,1,47.18,17Zm0-2a.2.2,0,0,0-.2.2c0,.22.4.22.4,0A.2.2,0,0,0,47.18,15Z"/><circle class="cls-4" cx="53.59" cy="15.21" r="0.8"/><path class="cls-4" d="M53.59,17a1.8,1.8,0,1,1,1.8-1.8A1.8,1.8,0,0,1,53.59,17Zm0-2a.2.2,0,0,0-.2.2c0,.22.4.22.4,0A.2.2,0,0,0,53.59,15Z"/><circle class="cls-4" cx="60" cy="15.21" r="0.8"/><path class="cls-4" d="M60,17a1.8,1.8,0,1,1,1.8-1.8A1.8,1.8,0,0,1,60,17Zm0-2a.2.2,0,0,0-.2.2c0,.22.4.22.4,0A.2.2,0,0,0,60,15Z"/><circle class="cls-4" cx="66.42" cy="15.21" r="0.8"/><path class="cls-4" d="M66.42,17a1.8,1.8,0,1,1,1.8-1.8A1.8,1.8,0,0,1,66.42,17Zm0-2a.2.2,0,0,0-.2.2c0,.22.4.22.4,0A.2.2,0,0,0,66.42,15Z"/><circle class="cls-4" cx="72.83" cy="15.21" r="0.8"/><path class="cls-4" d="M72.83,17a1.8,1.8,0,1,1,1.8-1.8A1.8,1.8,0,0,1,72.83,17Zm0-2a.2.2,0,0,0-.2.2c0,.22.4.22.4,0A.2.2,0,0,0,72.83,15Z"/><circle class="cls-4" cx="79.24" cy="15.21" r="0.8"/><path class="cls-4" d="M79.24,17a1.8,1.8,0,1,1,1.8-1.8A1.8,1.8,0,0,1,79.24,17Zm0-2a.2.2,0,0,0-.2.2c0,.22.4.22.4,0A.2.2,0,0,0,79.24,15Z"/><circle class="cls-4" cx="85.65" cy="15.21" r="0.8"/><path class="cls-4" d="M85.65,17a1.8,1.8,0,1,1,1.8-1.8A1.8,1.8,0,0,1,85.65,17Zm0-2a.2.2,0,0,0-.2.2c0,.22.4.22.4,0A.2.2,0,0,0,85.65,15Z"/><circle class="cls-4" cx="92.06" cy="15.21" r="0.8"/><path class="cls-4" d="M92.06,17a1.8,1.8,0,1,1,1.8-1.8A1.8,1.8,0,0,1,92.06,17Zm0-2a.2.2,0,0,0-.2.2c0,.22.4.22.4,0A.2.2,0,0,0,92.06,15Z"/><circle class="cls-4" cx="98.48" cy="15.21" r="0.8"/><path class="cls-4" d="M98.48,17a1.8,1.8,0,1,1,1.8-1.8A1.8,1.8,0,0,1,98.48,17Zm0-2a.2.2,0,0,0-.2.2c0,.22.4.22.4,0A.2.2,0,0,0,98.48,15Z"/><circle class="cls-4" cx="104.89" cy="15.21" r="0.8"/><path class="cls-4" d="M104.89,17a1.8,1.8,0,1,1,1.8-1.8A1.8,1.8,0,0,1,104.89,17Zm0-2a.2.2,0,0,0-.2.2c0,.22.4.22.4,0A.2.2,0,0,0,104.89,15Z"/><circle class="cls-4" cx="111.3" cy="15.21" r="0.8"/><path class="cls-4" d="M111.3,17a1.8,1.8,0,1,1,1.8-1.8A1.8,1.8,0,0,1,111.3,17Zm0-2a.2.2,0,0,0-.2.2c0,.22.4.22.4,0A.2.2,0,0,0,111.3,15Z"/><circle class="cls-4" cx="18.33" cy="20.02" r="0.8"/><path class="cls-4" d="M18.33,21.82a1.8,1.8,0,1,1,1.8-1.8A1.8,1.8,0,0,1,18.33,21.82Zm0-2a.2.2,0,0,0-.2.2c0,.22.4.22.4,0A.2.2,0,0,0,18.33,19.82Z"/><circle class="cls-4" cx="24.74" cy="20.02" r="0.8"/><path class="cls-4" d="M24.74,21.82a1.8,1.8,0,1,1,1.8-1.8A1.8,1.8,0,0,1,24.74,21.82Zm0-2a.2.2,0,0,0-.2.2c0,.22.4.22.4,0A.2.2,0,0,0,24.74,19.82Z"/><circle class="cls-4" cx="31.15" cy="20.02" r="0.8"/><path class="cls-4" d="M31.15,21.82A1.8,1.8,0,1,1,33,20,1.8,1.8,0,0,1,31.15,21.82Zm0-2a.2.2,0,0,0-.2.2c0,.22.4.22.4,0A.2.2,0,0,0,31.15,19.82Z"/><circle class="cls-4" cx="37.56" cy="20.02" r="0.8"/><path class="cls-4" d="M37.56,21.82a1.8,1.8,0,1,1,1.8-1.8A1.8,1.8,0,0,1,37.56,21.82Zm0-2a.2.2,0,0,0-.2.2c0,.22.4.22.4,0A.2.2,0,0,0,37.56,19.82Z"/><circle class="cls-4" cx="43.97" cy="20.02" r="0.8"/><path class="cls-4" d="M44,21.82a1.8,1.8,0,1,1,1.8-1.8A1.8,1.8,0,0,1,44,21.82Zm0-2a.2.2,0,0,0-.2.2c0,.22.4.22.4,0A.2.2,0,0,0,44,19.82Z"/><circle class="cls-4" cx="50.39" cy="20.02" r="0.8"/><path class="cls-4" d="M50.39,21.82a1.8,1.8,0,1,1,1.8-1.8A1.8,1.8,0,0,1,50.39,21.82Zm0-2a.2.2,0,0,0-.2.2c0,.22.4.22.4,0A.2.2,0,0,0,50.39,19.82Z"/><circle class="cls-4" cx="56.8" cy="20.02" r="0.8"/><path class="cls-4" d="M56.8,21.82A1.8,1.8,0,1,1,58.6,20,1.8,1.8,0,0,1,56.8,21.82Zm0-2a.2.2,0,0,0-.2.2c0,.22.4.22.4,0A.2.2,0,0,0,56.8,19.82Z"/><circle class="cls-4" cx="63.21" cy="20.02" r="0.8"/><path class="cls-4" d="M63.21,21.82A1.8,1.8,0,1,1,65,20,1.8,1.8,0,0,1,63.21,21.82Zm0-2a.2.2,0,0,0-.2.2c0,.22.4.22.4,0A.2.2,0,0,0,63.21,19.82Z"/><circle class="cls-4" cx="69.62" cy="20.02" r="0.8"/><path class="cls-4" d="M69.62,21.82a1.8,1.8,0,1,1,1.8-1.8A1.8,1.8,0,0,1,69.62,21.82Zm0-2a.2.2,0,0,0-.2.2c0,.22.4.22.4,0A.2.2,0,0,0,69.62,19.82Z"/><circle class="cls-4" cx="76.03" cy="20.02" r="0.8"/><path class="cls-4" d="M76,21.82a1.8,1.8,0,1,1,1.8-1.8A1.8,1.8,0,0,1,76,21.82Zm0-2a.2.2,0,0,0-.2.2c0,.22.4.22.4,0A.2.2,0,0,0,76,19.82Z"/><circle class="cls-4" cx="82.45" cy="20.02" r="0.8"/><path class="cls-4" d="M82.45,21.82a1.8,1.8,0,1,1,1.8-1.8A1.8,1.8,0,0,1,82.45,21.82Zm0-2a.2.2,0,0,0-.2.2c0,.22.4.22.4,0A.2.2,0,0,0,82.45,19.82Z"/><circle class="cls-4" cx="88.86" cy="20.02" r="0.8"/><path class="cls-4" d="M88.86,21.82a1.8,1.8,0,1,1,1.8-1.8A1.8,1.8,0,0,1,88.86,21.82Zm0-2a.2.2,0,0,0-.2.2c0,.22.4.22.4,0A.2.2,0,0,0,88.86,19.82Z"/><circle class="cls-4" cx="95.27" cy="20.02" r="0.8"/><path class="cls-4" d="M95.27,21.82a1.8,1.8,0,1,1,1.8-1.8A1.8,1.8,0,0,1,95.27,21.82Zm0-2a.2.2,0,0,0-.2.2c0,.22.4.22.4,0A.2.2,0,0,0,95.27,19.82Z"/><circle class="cls-4" cx="101.68" cy="20.02" r="0.8"/><path class="cls-4" d="M101.68,21.82a1.8,1.8,0,1,1,1.8-1.8A1.8,1.8,0,0,1,101.68,21.82Zm0-2a.2.2,0,0,0-.2.2c0,.22.4.22.4,0A.2.2,0,0,0,101.68,19.82Z"/><circle class="cls-4" cx="108.09" cy="20.02" r="0.8"/><path class="cls-4" d="M108.09,21.82a1.8,1.8,0,1,1,1.8-1.8A1.8,1.8,0,0,1,108.09,21.82Zm0-2a.2.2,0,0,0-.2.2c0,.22.4.22.4,0A.2.2,0,0,0,108.09,19.82Z"/><circle class="cls-4" cx="114.51" cy="20.02" r="0.8"/><path class="cls-4" d="M114.51,21.82a1.8,1.8,0,1,1,1.8-1.8A1.8,1.8,0,0,1,114.51,21.82Zm0-2a.2.2,0,0,0-.2.2c0,.22.4.22.4,0A.2.2,0,0,0,114.51,19.82Z"/><circle class="cls-4" cx="15.12" cy="24.83" r="0.8"/><path class="cls-4" d="M15.12,26.63a1.8,1.8,0,1,1,1.8-1.8A1.8,1.8,0,0,1,15.12,26.63Zm0-2a.2.2,0,0,0-.2.2c0,.22.4.22.4,0A.2.2,0,0,0,15.12,24.63Z"/><circle class="cls-4" cx="21.53" cy="24.83" r="0.8"/><path class="cls-4" d="M21.53,26.63a1.8,1.8,0,1,1,1.8-1.8A1.8,1.8,0,0,1,21.53,26.63Zm0-2a.2.2,0,0,0-.2.2c0,.22.4.22.4,0A.2.2,0,0,0,21.53,24.63Z"/><circle class="cls-4" cx="27.94" cy="24.83" r="0.8"/><path class="cls-4" d="M27.94,26.63a1.8,1.8,0,1,1,1.8-1.8A1.8,1.8,0,0,1,27.94,26.63Zm0-2a.2.2,0,0,0-.2.2c0,.22.4.22.4,0A.2.2,0,0,0,27.94,24.63Z"/><circle class="cls-4" cx="34.36" cy="24.83" r="0.8"/><path class="cls-4" d="M34.36,26.63a1.8,1.8,0,1,1,1.8-1.8A1.8,1.8,0,0,1,34.36,26.63Zm0-2a.2.2,0,0,0-.2.2c0,.22.4.22.4,0A.2.2,0,0,0,34.36,24.63Z"/><circle class="cls-4" cx="40.77" cy="24.83" r="0.8"/><path class="cls-4" d="M40.77,26.63a1.8,1.8,0,1,1,1.8-1.8A1.8,1.8,0,0,1,40.77,26.63Zm0-2a.2.2,0,0,0-.2.2c0,.22.4.22.4,0A.2.2,0,0,0,40.77,24.63Z"/><circle class="cls-4" cx="47.18" cy="24.83" r="0.8"/><path class="cls-4" d="M47.18,26.63a1.8,1.8,0,1,1,1.8-1.8A1.8,1.8,0,0,1,47.18,26.63Zm0-2a.2.2,0,0,0-.2.2c0,.22.4.22.4,0A.2.2,0,0,0,47.18,24.63Z"/><circle class="cls-4" cx="53.59" cy="24.83" r="0.8"/><path class="cls-4" d="M53.59,26.63a1.8,1.8,0,1,1,1.8-1.8A1.8,1.8,0,0,1,53.59,26.63Zm0-2a.2.2,0,0,0-.2.2c0,.22.4.22.4,0A.2.2,0,0,0,53.59,24.63Z"/><circle class="cls-4" cx="60" cy="24.83" r="0.8"/><path class="cls-4" d="M60,26.63a1.8,1.8,0,1,1,1.8-1.8A1.8,1.8,0,0,1,60,26.63Zm0-2a.2.2,0,0,0-.2.2c0,.22.4.22.4,0A.2.2,0,0,0,60,24.63Z"/><circle class="cls-4" cx="66.42" cy="24.83" r="0.8"/><path class="cls-4" d="M66.42,26.63a1.8,1.8,0,1,1,1.8-1.8A1.8,1.8,0,0,1,66.42,26.63Zm0-2a.2.2,0,0,0-.2.2c0,.22.4.22.4,0A.2.2,0,0,0,66.42,24.63Z"/><circle class="cls-4" cx="72.83" cy="24.83" r="0.8"/><path class="cls-4" d="M72.83,26.63a1.8,1.8,0,1,1,1.8-1.8A1.8,1.8,0,0,1,72.83,26.63Zm0-2a.2.2,0,0,0-.2.2c0,.22.4.22.4,0A.2.2,0,0,0,72.83,24.63Z"/><circle class="cls-4" cx="79.24" cy="24.83" r="0.8"/><path class="cls-4" d="M79.24,26.63a1.8,1.8,0,1,1,1.8-1.8A1.8,1.8,0,0,1,79.24,26.63Zm0-2a.2.2,0,0,0-.2.2c0,.22.4.22.4,0A.2.2,0,0,0,79.24,24.63Z"/><circle class="cls-4" cx="85.65" cy="24.83" r="0.8"/><path class="cls-4" d="M85.65,26.63a1.8,1.8,0,1,1,1.8-1.8A1.8,1.8,0,0,1,85.65,26.63Zm0-2a.2.2,0,0,0-.2.2c0,.22.4.22.4,0A.2.2,0,0,0,85.65,24.63Z"/><circle class="cls-4" cx="92.06" cy="24.83" r="0.8"/><path class="cls-4" d="M92.06,26.63a1.8,1.8,0,1,1,1.8-1.8A1.8,1.8,0,0,1,92.06,26.63Zm0-2a.2.2,0,0,0-.2.2c0,.22.4.22.4,0A.2.2,0,0,0,92.06,24.63Z"/><circle class="cls-4" cx="98.48" cy="24.83" r="0.8"/><path class="cls-4" d="M98.48,26.63a1.8,1.8,0,1,1,1.8-1.8A1.8,1.8,0,0,1,98.48,26.63Zm0-2a.2.2,0,0,0-.2.2c0,.22.4.22.4,0A.2.2,0,0,0,98.48,24.63Z"/><circle class="cls-4" cx="104.89" cy="24.83" r="0.8"/><path class="cls-4" d="M104.89,26.63a1.8,1.8,0,1,1,1.8-1.8A1.8,1.8,0,0,1,104.89,26.63Zm0-2a.2.2,0,0,0-.2.2c0,.22.4.22.4,0A.2.2,0,0,0,104.89,24.63Z"/><circle class="cls-4" cx="111.3" cy="24.83" r="0.8"/><path class="cls-4" d="M111.3,26.63a1.8,1.8,0,1,1,1.8-1.8A1.8,1.8,0,0,1,111.3,26.63Zm0-2a.2.2,0,0,0-.2.2c0,.22.4.22.4,0A.2.2,0,0,0,111.3,24.63Z"/><circle class="cls-4" cx="18.33" cy="29.63" r="0.8"/><path class="cls-4" d="M18.33,31.44a1.8,1.8,0,1,1,1.8-1.8A1.8,1.8,0,0,1,18.33,31.44Zm0-2a.2.2,0,0,0-.2.2c0,.22.4.22.4,0A.2.2,0,0,0,18.33,29.44Z"/><circle class="cls-4" cx="24.74" cy="29.63" r="0.8"/><path class="cls-4" d="M24.74,31.44a1.8,1.8,0,1,1,1.8-1.8A1.8,1.8,0,0,1,24.74,31.44Zm0-2a.2.2,0,0,0-.2.2c0,.22.4.22.4,0A.2.2,0,0,0,24.74,29.44Z"/><circle class="cls-4" cx="31.15" cy="29.63" r="0.8"/><path class="cls-4" d="M31.15,31.44a1.8,1.8,0,1,1,1.8-1.8A1.8,1.8,0,0,1,31.15,31.44Zm0-2a.2.2,0,0,0-.2.2c0,.22.4.22.4,0A.2.2,0,0,0,31.15,29.44Z"/><circle class="cls-4" cx="37.56" cy="29.63" r="0.8"/><path class="cls-4" d="M37.56,31.44a1.8,1.8,0,1,1,1.8-1.8A1.8,1.8,0,0,1,37.56,31.44Zm0-2a.2.2,0,0,0-.2.2c0,.22.4.22.4,0A.2.2,0,0,0,37.56,29.44Z"/><circle class="cls-4" cx="43.97" cy="29.63" r="0.8"/><path class="cls-4" d="M44,31.44a1.8,1.8,0,1,1,1.8-1.8A1.8,1.8,0,0,1,44,31.44Zm0-2a.2.2,0,0,0-.2.2c0,.22.4.22.4,0A.2.2,0,0,0,44,29.44Z"/><circle class="cls-4" cx="50.39" cy="29.63" r="0.8"/><path class="cls-4" d="M50.39,31.44a1.8,1.8,0,1,1,1.8-1.8A1.8,1.8,0,0,1,50.39,31.44Zm0-2a.2.2,0,0,0-.2.2c0,.22.4.22.4,0A.2.2,0,0,0,50.39,29.44Z"/><circle class="cls-4" cx="56.8" cy="29.63" r="0.8"/><path class="cls-4" d="M56.8,31.44a1.8,1.8,0,1,1,1.8-1.8A1.8,1.8,0,0,1,56.8,31.44Zm0-2a.2.2,0,0,0-.2.2c0,.22.4.22.4,0A.2.2,0,0,0,56.8,29.44Z"/><circle class="cls-4" cx="63.21" cy="29.63" r="0.8"/><path class="cls-4" d="M63.21,31.44a1.8,1.8,0,1,1,1.8-1.8A1.8,1.8,0,0,1,63.21,31.44Zm0-2a.2.2,0,0,0-.2.2c0,.22.4.22.4,0A.2.2,0,0,0,63.21,29.44Z"/><circle class="cls-4" cx="69.62" cy="29.63" r="0.8"/><path class="cls-4" d="M69.62,31.44a1.8,1.8,0,1,1,1.8-1.8A1.8,1.8,0,0,1,69.62,31.44Zm0-2a.2.2,0,0,0-.2.2c0,.22.4.22.4,0A.2.2,0,0,0,69.62,29.44Z"/><circle class="cls-4" cx="76.03" cy="29.63" r="0.8"/><path class="cls-4" d="M76,31.44a1.8,1.8,0,1,1,1.8-1.8A1.8,1.8,0,0,1,76,31.44Zm0-2a.2.2,0,0,0-.2.2c0,.22.4.22.4,0A.2.2,0,0,0,76,29.44Z"/><circle class="cls-4" cx="82.45" cy="29.63" r="0.8"/><path class="cls-4" d="M82.45,31.44a1.8,1.8,0,1,1,1.8-1.8A1.8,1.8,0,0,1,82.45,31.44Zm0-2a.2.2,0,0,0-.2.2c0,.22.4.22.4,0A.2.2,0,0,0,82.45,29.44Z"/><circle class="cls-4" cx="88.86" cy="29.63" r="0.8"/><path class="cls-4" d="M88.86,31.44a1.8,1.8,0,1,1,1.8-1.8A1.8,1.8,0,0,1,88.86,31.44Zm0-2a.2.2,0,0,0-.2.2c0,.22.4.22.4,0A.2.2,0,0,0,88.86,29.44Z"/><circle class="cls-4" cx="95.27" cy="29.63" r="0.8"/><path class="cls-4" d="M95.27,31.44a1.8,1.8,0,1,1,1.8-1.8A1.8,1.8,0,0,1,95.27,31.44Zm0-2a.2.2,0,0,0-.2.2c0,.22.4.22.4,0A.2.2,0,0,0,95.27,29.44Z"/><circle class="cls-4" cx="101.68" cy="29.63" r="0.8"/><path class="cls-4" d="M101.68,31.44a1.8,1.8,0,1,1,1.8-1.8A1.8,1.8,0,0,1,101.68,31.44Zm0-2a.2.2,0,0,0-.2.2c0,.22.4.22.4,0A.2.2,0,0,0,101.68,29.44Z"/><circle class="cls-4" cx="108.09" cy="29.63" r="0.8"/><path class="cls-4" d="M108.09,31.44a1.8,1.8,0,1,1,1.8-1.8A1.8,1.8,0,0,1,108.09,31.44Zm0-2a.2.2,0,0,0-.2.2c0,.22.4.22.4,0A.2.2,0,0,0,108.09,29.44Z"/><circle class="cls-4" cx="114.51" cy="29.63" r="0.8"/><path class="cls-4" d="M114.51,31.44a1.8,1.8,0,1,1,1.8-1.8A1.8,1.8,0,0,1,114.51,31.44Zm0-2a.2.2,0,0,0-.2.2c0,.22.4.22.4,0A.2.2,0,0,0,114.51,29.44Z"/><circle class="cls-4" cx="15.12" cy="34.44" r="0.8"/><path class="cls-4" d="M15.12,36.25a1.8,1.8,0,1,1,1.8-1.8A1.8,1.8,0,0,1,15.12,36.25Zm0-2a.2.2,0,0,0-.2.2c0,.22.4.22.4,0A.2.2,0,0,0,15.12,34.25Z"/><circle class="cls-4" cx="21.53" cy="34.44" r="0.8"/><path class="cls-4" d="M21.53,36.25a1.8,1.8,0,1,1,1.8-1.8A1.8,1.8,0,0,1,21.53,36.25Zm0-2a.2.2,0,0,0-.2.2c0,.22.4.22.4,0A.2.2,0,0,0,21.53,34.25Z"/><circle class="cls-4" cx="27.94" cy="34.44" r="0.8"/><path class="cls-4" d="M27.94,36.25a1.8,1.8,0,1,1,1.8-1.8A1.8,1.8,0,0,1,27.94,36.25Zm0-2a.2.2,0,0,0-.2.2c0,.22.4.22.4,0A.2.2,0,0,0,27.94,34.25Z"/><circle class="cls-4" cx="34.36" cy="34.44" r="0.8"/><path class="cls-4" d="M34.36,36.25a1.8,1.8,0,1,1,1.8-1.8A1.8,1.8,0,0,1,34.36,36.25Zm0-2a.2.2,0,0,0-.2.2c0,.22.4.22.4,0A.2.2,0,0,0,34.36,34.25Z"/><circle class="cls-4" cx="40.77" cy="34.44" r="0.8"/><path class="cls-4" d="M40.77,36.25a1.8,1.8,0,1,1,1.8-1.8A1.8,1.8,0,0,1,40.77,36.25Zm0-2a.2.2,0,0,0-.2.2c0,.22.4.22.4,0A.2.2,0,0,0,40.77,34.25Z"/><circle class="cls-4" cx="47.18" cy="34.44" r="0.8"/><path class="cls-4" d="M47.18,36.25a1.8,1.8,0,1,1,1.8-1.8A1.8,1.8,0,0,1,47.18,36.25Zm0-2a.2.2,0,0,0-.2.2c0,.22.4.22.4,0A.2.2,0,0,0,47.18,34.25Z"/><circle class="cls-4" cx="53.59" cy="34.44" r="0.8"/><path class="cls-4" d="M53.59,36.25a1.8,1.8,0,1,1,1.8-1.8A1.8,1.8,0,0,1,53.59,36.25Zm0-2a.2.2,0,0,0-.2.2c0,.22.4.22.4,0A.2.2,0,0,0,53.59,34.25Z"/><circle class="cls-4" cx="60" cy="34.44" r="0.8"/><path class="cls-4" d="M60,36.25a1.8,1.8,0,1,1,1.8-1.8A1.8,1.8,0,0,1,60,36.25Zm0-2a.2.2,0,0,0-.2.2c0,.22.4.22.4,0A.2.2,0,0,0,60,34.25Z"/><circle class="cls-4" cx="66.42" cy="34.44" r="0.8"/><path class="cls-4" d="M66.42,36.25a1.8,1.8,0,1,1,1.8-1.8A1.8,1.8,0,0,1,66.42,36.25Zm0-2a.2.2,0,0,0-.2.2c0,.22.4.22.4,0A.2.2,0,0,0,66.42,34.25Z"/><circle class="cls-4" cx="72.83" cy="34.44" r="0.8"/><path class="cls-4" d="M72.83,36.25a1.8,1.8,0,1,1,1.8-1.8A1.8,1.8,0,0,1,72.83,36.25Zm0-2a.2.2,0,0,0-.2.2c0,.22.4.22.4,0A.2.2,0,0,0,72.83,34.25Z"/><circle class="cls-4" cx="79.24" cy="34.44" r="0.8"/><path class="cls-4" d="M79.24,36.25a1.8,1.8,0,1,1,1.8-1.8A1.8,1.8,0,0,1,79.24,36.25Zm0-2a.2.2,0,0,0-.2.2c0,.22.4.22.4,0A.2.2,0,0,0,79.24,34.25Z"/><circle class="cls-4" cx="85.65" cy="34.44" r="0.8"/><path class="cls-4" d="M85.65,36.25a1.8,1.8,0,1,1,1.8-1.8A1.8,1.8,0,0,1,85.65,36.25Zm0-2a.2.2,0,0,0-.2.2c0,.22.4.22.4,0A.2.2,0,0,0,85.65,34.25Z"/><circle class="cls-4" cx="92.06" cy="34.44" r="0.8"/><path class="cls-4" d="M92.06,36.25a1.8,1.8,0,1,1,1.8-1.8A1.8,1.8,0,0,1,92.06,36.25Zm0-2a.2.2,0,0,0-.2.2c0,.22.4.22.4,0A.2.2,0,0,0,92.06,34.25Z"/><circle class="cls-4" cx="98.48" cy="34.44" r="0.8"/><path class="cls-4" d="M98.48,36.25a1.8,1.8,0,1,1,1.8-1.8A1.8,1.8,0,0,1,98.48,36.25Zm0-2a.2.2,0,0,0-.2.2c0,.22.4.22.4,0A.2.2,0,0,0,98.48,34.25Z"/><circle class="cls-4" cx="104.89" cy="34.44" r="0.8"/><path class="cls-4" d="M104.89,36.25a1.8,1.8,0,1,1,1.8-1.8A1.8,1.8,0,0,1,104.89,36.25Zm0-2a.2.2,0,0,0-.2.2c0,.22.4.22.4,0A.2.2,0,0,0,104.89,34.25Z"/><circle class="cls-4" cx="111.3" cy="34.44" r="0.8"/><path class="cls-4" d="M111.3,36.25a1.8,1.8,0,1,1,1.8-1.8A1.8,1.8,0,0,1,111.3,36.25Zm0-2a.2.2,0,0,0-.2.2c0,.22.4.22.4,0A.2.2,0,0,0,111.3,34.25Z"/><circle class="cls-4" cx="18.33" cy="39.25" r="0.8"/><path class="cls-4" d="M18.33,41.05a1.8,1.8,0,1,1,1.8-1.8A1.8,1.8,0,0,1,18.33,41.05Zm0-2a.2.2,0,0,0-.2.2c0,.22.4.22.4,0A.2.2,0,0,0,18.33,39.05Z"/><circle class="cls-4" cx="24.74" cy="39.25" r="0.8"/><path class="cls-4" d="M24.74,41.05a1.8,1.8,0,1,1,1.8-1.8A1.8,1.8,0,0,1,24.74,41.05Zm0-2a.2.2,0,0,0-.2.2c0,.22.4.22.4,0A.2.2,0,0,0,24.74,39.05Z"/><circle class="cls-4" cx="31.15" cy="39.25" r="0.8"/><path class="cls-4" d="M31.15,41.05a1.8,1.8,0,1,1,1.8-1.8A1.8,1.8,0,0,1,31.15,41.05Zm0-2a.2.2,0,0,0-.2.2c0,.22.4.22.4,0A.2.2,0,0,0,31.15,39.05Z"/><circle class="cls-4" cx="37.56" cy="39.25" r="0.8"/><path class="cls-4" d="M37.56,41.05a1.8,1.8,0,1,1,1.8-1.8A1.8,1.8,0,0,1,37.56,41.05Zm0-2a.2.2,0,0,0-.2.2c0,.22.4.22.4,0A.2.2,0,0,0,37.56,39.05Z"/><circle class="cls-4" cx="43.97" cy="39.25" r="0.8"/><path class="cls-4" d="M44,41.05a1.8,1.8,0,1,1,1.8-1.8A1.8,1.8,0,0,1,44,41.05Zm0-2a.2.2,0,0,0-.2.2c0,.22.4.22.4,0A.2.2,0,0,0,44,39.05Z"/><circle class="cls-4" cx="50.39" cy="39.25" r="0.8"/><path class="cls-4" d="M50.39,41.05a1.8,1.8,0,1,1,1.8-1.8A1.8,1.8,0,0,1,50.39,41.05Zm0-2a.2.2,0,0,0-.2.2c0,.22.4.22.4,0A.2.2,0,0,0,50.39,39.05Z"/><circle class="cls-4" cx="56.8" cy="39.25" r="0.8"/><path class="cls-4" d="M56.8,41.05a1.8,1.8,0,1,1,1.8-1.8A1.8,1.8,0,0,1,56.8,41.05Zm0-2a.2.2,0,0,0-.2.2c0,.22.4.22.4,0A.2.2,0,0,0,56.8,39.05Z"/><circle class="cls-4" cx="63.21" cy="39.25" r="0.8"/><path class="cls-4" d="M63.21,41.05a1.8,1.8,0,1,1,1.8-1.8A1.8,1.8,0,0,1,63.21,41.05Zm0-2a.2.2,0,0,0-.2.2c0,.22.4.22.4,0A.2.2,0,0,0,63.21,39.05Z"/><circle class="cls-4" cx="69.62" cy="39.25" r="0.8"/><path class="cls-4" d="M69.62,41.05a1.8,1.8,0,1,1,1.8-1.8A1.8,1.8,0,0,1,69.62,41.05Zm0-2a.2.2,0,0,0-.2.2c0,.22.4.22.4,0A.2.2,0,0,0,69.62,39.05Z"/><circle class="cls-4" cx="76.03" cy="39.25" r="0.8"/><path class="cls-4" d="M76,41.05a1.8,1.8,0,1,1,1.8-1.8A1.8,1.8,0,0,1,76,41.05Zm0-2a.2.2,0,0,0-.2.2c0,.22.4.22.4,0A.2.2,0,0,0,76,39.05Z"/><circle class="cls-4" cx="82.45" cy="39.25" r="0.8"/><path class="cls-4" d="M82.45,41.05a1.8,1.8,0,1,1,1.8-1.8A1.8,1.8,0,0,1,82.45,41.05Zm0-2a.2.2,0,0,0-.2.2c0,.22.4.22.4,0A.2.2,0,0,0,82.45,39.05Z"/><circle class="cls-4" cx="88.86" cy="39.25" r="0.8"/><path class="cls-4" d="M88.86,41.05a1.8,1.8,0,1,1,1.8-1.8A1.8,1.8,0,0,1,88.86,41.05Zm0-2a.2.2,0,0,0-.2.2c0,.22.4.22.4,0A.2.2,0,0,0,88.86,39.05Z"/><circle class="cls-4" cx="95.27" cy="39.25" r="0.8"/><path class="cls-4" d="M95.27,41.05a1.8,1.8,0,1,1,1.8-1.8A1.8,1.8,0,0,1,95.27,41.05Zm0-2a.2.2,0,0,0-.2.2c0,.22.4.22.4,0A.2.2,0,0,0,95.27,39.05Z"/><circle class="cls-4" cx="101.68" cy="39.25" r="0.8"/><path class="cls-4" d="M101.68,41.05a1.8,1.8,0,1,1,1.8-1.8A1.8,1.8,0,0,1,101.68,41.05Zm0-2a.2.2,0,0,0-.2.2c0,.22.4.22.4,0A.2.2,0,0,0,101.68,39.05Z"/><circle class="cls-4" cx="108.09" cy="39.25" r="0.8"/><path class="cls-4" d="M108.09,41.05a1.8,1.8,0,1,1,1.8-1.8A1.8,1.8,0,0,1,108.09,41.05Zm0-2a.2.2,0,0,0-.2.2c0,.22.4.22.4,0A.2.2,0,0,0,108.09,39.05Z"/><circle class="cls-4" cx="114.51" cy="39.25" r="0.8"/><path class="cls-4" d="M114.51,41.05a1.8,1.8,0,1,1,1.8-1.8A1.8,1.8,0,0,1,114.51,41.05Zm0-2a.2.2,0,0,0-.2.2c0,.22.4.22.4,0A.2.2,0,0,0,114.51,39.05Z"/><circle class="cls-4" cx="15.12" cy="44.06" r="0.8"/><path class="cls-4" d="M15.12,45.86a1.8,1.8,0,1,1,1.8-1.8A1.8,1.8,0,0,1,15.12,45.86Zm0-2a.2.2,0,0,0-.2.2c0,.22.4.22.4,0A.2.2,0,0,0,15.12,43.86Z"/><circle class="cls-4" cx="21.53" cy="44.06" r="0.8"/><path class="cls-4" d="M21.53,45.86a1.8,1.8,0,1,1,1.8-1.8A1.8,1.8,0,0,1,21.53,45.86Zm0-2a.2.2,0,0,0-.2.2c0,.22.4.22.4,0A.2.2,0,0,0,21.53,43.86Z"/><circle class="cls-4" cx="27.94" cy="44.06" r="0.8"/><path class="cls-4" d="M27.94,45.86a1.8,1.8,0,1,1,1.8-1.8A1.8,1.8,0,0,1,27.94,45.86Zm0-2a.2.2,0,0,0-.2.2c0,.22.4.22.4,0A.2.2,0,0,0,27.94,43.86Z"/><circle class="cls-4" cx="34.36" cy="44.06" r="0.8"/><path class="cls-4" d="M34.36,45.86a1.8,1.8,0,1,1,1.8-1.8A1.8,1.8,0,0,1,34.36,45.86Zm0-2a.2.2,0,0,0-.2.2c0,.22.4.22.4,0A.2.2,0,0,0,34.36,43.86Z"/><circle class="cls-4" cx="40.77" cy="44.06" r="0.8"/><path class="cls-4" d="M40.77,45.86a1.8,1.8,0,1,1,1.8-1.8A1.8,1.8,0,0,1,40.77,45.86Zm0-2a.2.2,0,0,0-.2.2c0,.22.4.22.4,0A.2.2,0,0,0,40.77,43.86Z"/><circle class="cls-4" cx="47.18" cy="44.06" r="0.8"/><path class="cls-4" d="M47.18,45.86a1.8,1.8,0,1,1,1.8-1.8A1.8,1.8,0,0,1,47.18,45.86Zm0-2a.2.2,0,0,0-.2.2c0,.22.4.22.4,0A.2.2,0,0,0,47.18,43.86Z"/><circle class="cls-4" cx="53.59" cy="44.06" r="0.8"/><path class="cls-4" d="M53.59,45.86a1.8,1.8,0,1,1,1.8-1.8A1.8,1.8,0,0,1,53.59,45.86Zm0-2a.2.2,0,0,0-.2.2c0,.22.4.22.4,0A.2.2,0,0,0,53.59,43.86Z"/><circle class="cls-4" cx="60" cy="44.06" r="0.8"/><path class="cls-4" d="M60,45.86a1.8,1.8,0,1,1,1.8-1.8A1.8,1.8,0,0,1,60,45.86Zm0-2a.2.2,0,0,0-.2.2c0,.22.4.22.4,0A.2.2,0,0,0,60,43.86Z"/><circle class="cls-4" cx="66.42" cy="44.06" r="0.8"/><path class="cls-4" d="M66.42,45.86a1.8,1.8,0,1,1,1.8-1.8A1.8,1.8,0,0,1,66.42,45.86Zm0-2a.2.2,0,0,0-.2.2c0,.22.4.22.4,0A.2.2,0,0,0,66.42,43.86Z"/><circle class="cls-4" cx="72.83" cy="44.06" r="0.8"/><path class="cls-4" d="M72.83,45.86a1.8,1.8,0,1,1,1.8-1.8A1.8,1.8,0,0,1,72.83,45.86Zm0-2a.2.2,0,0,0-.2.2c0,.22.4.22.4,0A.2.2,0,0,0,72.83,43.86Z"/><circle class="cls-4" cx="79.24" cy="44.06" r="0.8"/><path class="cls-4" d="M79.24,45.86a1.8,1.8,0,1,1,1.8-1.8A1.8,1.8,0,0,1,79.24,45.86Zm0-2a.2.2,0,0,0-.2.2c0,.22.4.22.4,0A.2.2,0,0,0,79.24,43.86Z"/><circle class="cls-4" cx="85.65" cy="44.06" r="0.8"/><path class="cls-4" d="M85.65,45.86a1.8,1.8,0,1,1,1.8-1.8A1.8,1.8,0,0,1,85.65,45.86Zm0-2a.2.2,0,0,0-.2.2c0,.22.4.22.4,0A.2.2,0,0,0,85.65,43.86Z"/><circle class="cls-4" cx="92.06" cy="44.06" r="0.8"/><path class="cls-4" d="M92.06,45.86a1.8,1.8,0,1,1,1.8-1.8A1.8,1.8,0,0,1,92.06,45.86Zm0-2a.2.2,0,0,0-.2.2c0,.22.4.22.4,0A.2.2,0,0,0,92.06,43.86Z"/><circle class="cls-4" cx="98.48" cy="44.06" r="0.8"/><path class="cls-4" d="M98.48,45.86a1.8,1.8,0,1,1,1.8-1.8A1.8,1.8,0,0,1,98.48,45.86Zm0-2a.2.2,0,0,0-.2.2c0,.22.4.22.4,0A.2.2,0,0,0,98.48,43.86Z"/><circle class="cls-4" cx="104.89" cy="44.06" r="0.8"/><path class="cls-4" d="M104.89,45.86a1.8,1.8,0,1,1,1.8-1.8A1.8,1.8,0,0,1,104.89,45.86Zm0-2a.2.2,0,0,0-.2.2c0,.22.4.22.4,0A.2.2,0,0,0,104.89,43.86Z"/><circle class="cls-4" cx="111.3" cy="44.06" r="0.8"/><path class="cls-4" d="M111.3,45.86a1.8,1.8,0,1,1,1.8-1.8A1.8,1.8,0,0,1,111.3,45.86Zm0-2a.2.2,0,0,0-.2.2c0,.22.4.22.4,0A.2.2,0,0,0,111.3,43.86Z"/><circle class="cls-4" cx="18.33" cy="48.87" r="0.8"/><path class="cls-4" d="M18.33,50.67a1.8,1.8,0,1,1,1.8-1.8A1.8,1.8,0,0,1,18.33,50.67Zm0-2a.2.2,0,0,0-.2.2c0,.22.4.22.4,0A.2.2,0,0,0,18.33,48.67Z"/><circle class="cls-4" cx="24.74" cy="48.87" r="0.8"/><path class="cls-4" d="M24.74,50.67a1.8,1.8,0,1,1,1.8-1.8A1.8,1.8,0,0,1,24.74,50.67Zm0-2a.2.2,0,0,0-.2.2c0,.22.4.22.4,0A.2.2,0,0,0,24.74,48.67Z"/><circle class="cls-4" cx="31.15" cy="48.87" r="0.8"/><path class="cls-4" d="M31.15,50.67a1.8,1.8,0,1,1,1.8-1.8A1.8,1.8,0,0,1,31.15,50.67Zm0-2a.2.2,0,0,0-.2.2c0,.22.4.22.4,0A.2.2,0,0,0,31.15,48.67Z"/><circle class="cls-4" cx="37.56" cy="48.87" r="0.8"/><path class="cls-4" d="M37.56,50.67a1.8,1.8,0,1,1,1.8-1.8A1.8,1.8,0,0,1,37.56,50.67Zm0-2a.2.2,0,0,0-.2.2c0,.22.4.22.4,0A.2.2,0,0,0,37.56,48.67Z"/><circle class="cls-4" cx="43.97" cy="48.87" r="0.8"/><path class="cls-4" d="M44,50.67a1.8,1.8,0,1,1,1.8-1.8A1.8,1.8,0,0,1,44,50.67Zm0-2a.2.2,0,0,0-.2.2c0,.22.4.22.4,0A.2.2,0,0,0,44,48.67Z"/><circle class="cls-4" cx="50.39" cy="48.87" r="0.8"/><path class="cls-4" d="M50.39,50.67a1.8,1.8,0,1,1,1.8-1.8A1.8,1.8,0,0,1,50.39,50.67Zm0-2a.2.2,0,0,0-.2.2c0,.22.4.22.4,0A.2.2,0,0,0,50.39,48.67Z"/><circle class="cls-4" cx="56.8" cy="48.87" r="0.8"/><path class="cls-4" d="M56.8,50.67a1.8,1.8,0,1,1,1.8-1.8A1.8,1.8,0,0,1,56.8,50.67Zm0-2a.2.2,0,0,0-.2.2c0,.22.4.22.4,0A.2.2,0,0,0,56.8,48.67Z"/><circle class="cls-4" cx="63.21" cy="48.87" r="0.8"/><path class="cls-4" d="M63.21,50.67a1.8,1.8,0,1,1,1.8-1.8A1.8,1.8,0,0,1,63.21,50.67Zm0-2a.2.2,0,0,0-.2.2c0,.22.4.22.4,0A.2.2,0,0,0,63.21,48.67Z"/><circle class="cls-4" cx="69.62" cy="48.87" r="0.8"/><path class="cls-4" d="M69.62,50.67a1.8,1.8,0,1,1,1.8-1.8A1.8,1.8,0,0,1,69.62,50.67Zm0-2a.2.2,0,0,0-.2.2c0,.22.4.22.4,0A.2.2,0,0,0,69.62,48.67Z"/><circle class="cls-4" cx="76.03" cy="48.87" r="0.8"/><path class="cls-4" d="M76,50.67a1.8,1.8,0,1,1,1.8-1.8A1.8,1.8,0,0,1,76,50.67Zm0-2a.2.2,0,0,0-.2.2c0,.22.4.22.4,0A.2.2,0,0,0,76,48.67Z"/><circle class="cls-4" cx="82.45" cy="48.87" r="0.8"/><path class="cls-4" d="M82.45,50.67a1.8,1.8,0,1,1,1.8-1.8A1.8,1.8,0,0,1,82.45,50.67Zm0-2a.2.2,0,0,0-.2.2c0,.22.4.22.4,0A.2.2,0,0,0,82.45,48.67Z"/><circle class="cls-4" cx="88.86" cy="48.87" r="0.8"/><path class="cls-4" d="M88.86,50.67a1.8,1.8,0,1,1,1.8-1.8A1.8,1.8,0,0,1,88.86,50.67Zm0-2a.2.2,0,0,0-.2.2c0,.22.4.22.4,0A.2.2,0,0,0,88.86,48.67Z"/><circle class="cls-4" cx="95.27" cy="48.87" r="0.8"/><path class="cls-4" d="M95.27,50.67a1.8,1.8,0,1,1,1.8-1.8A1.8,1.8,0,0,1,95.27,50.67Zm0-2a.2.2,0,0,0-.2.2c0,.22.4.22.4,0A.2.2,0,0,0,95.27,48.67Z"/><circle class="cls-4" cx="101.68" cy="48.87" r="0.8"/><path class="cls-4" d="M101.68,50.67a1.8,1.8,0,1,1,1.8-1.8A1.8,1.8,0,0,1,101.68,50.67Zm0-2a.2.2,0,0,0-.2.2c0,.22.4.22.4,0A.2.2,0,0,0,101.68,48.67Z"/><circle class="cls-4" cx="108.09" cy="48.87" r="0.8"/><path class="cls-4" d="M108.09,50.67a1.8,1.8,0,1,1,1.8-1.8A1.8,1.8,0,0,1,108.09,50.67Zm0-2a.2.2,0,0,0-.2.2c0,.22.4.22.4,0A.2.2,0,0,0,108.09,48.67Z"/><circle class="cls-4" cx="114.51" cy="48.87" r="0.8"/><path class="cls-4" d="M114.51,50.67a1.8,1.8,0,1,1,1.8-1.8A1.8,1.8,0,0,1,114.51,50.67Zm0-2a.2.2,0,0,0-.2.2c0,.22.4.22.4,0A.2.2,0,0,0,114.51,48.67Z"/><circle class="cls-4" cx="15.12" cy="53.68" r="0.8"/><path class="cls-4" d="M15.12,55.48a1.8,1.8,0,1,1,1.8-1.8A1.8,1.8,0,0,1,15.12,55.48Zm0-2a.2.2,0,0,0-.2.2c0,.22.4.22.4,0A.2.2,0,0,0,15.12,53.48Z"/><circle class="cls-4" cx="21.53" cy="53.68" r="0.8"/><path class="cls-4" d="M21.53,55.48a1.8,1.8,0,1,1,1.8-1.8A1.8,1.8,0,0,1,21.53,55.48Zm0-2a.2.2,0,0,0-.2.2c0,.22.4.22.4,0A.2.2,0,0,0,21.53,53.48Z"/><circle class="cls-4" cx="27.94" cy="53.68" r="0.8"/><path class="cls-4" d="M27.94,55.48a1.8,1.8,0,1,1,1.8-1.8A1.8,1.8,0,0,1,27.94,55.48Zm0-2a.2.2,0,0,0-.2.2c0,.22.4.22.4,0A.2.2,0,0,0,27.94,53.48Z"/><circle class="cls-4" cx="34.36" cy="53.68" r="0.8"/><path class="cls-4" d="M34.36,55.48a1.8,1.8,0,1,1,1.8-1.8A1.8,1.8,0,0,1,34.36,55.48Zm0-2a.2.2,0,0,0-.2.2c0,.22.4.22.4,0A.2.2,0,0,0,34.36,53.48Z"/><circle class="cls-4" cx="40.77" cy="53.68" r="0.8"/><path class="cls-4" d="M40.77,55.48a1.8,1.8,0,1,1,1.8-1.8A1.8,1.8,0,0,1,40.77,55.48Zm0-2a.2.2,0,0,0-.2.2c0,.22.4.22.4,0A.2.2,0,0,0,40.77,53.48Z"/><circle class="cls-4" cx="47.18" cy="53.68" r="0.8"/><path class="cls-4" d="M47.18,55.48a1.8,1.8,0,1,1,1.8-1.8A1.8,1.8,0,0,1,47.18,55.48Zm0-2a.2.2,0,0,0-.2.2c0,.22.4.22.4,0A.2.2,0,0,0,47.18,53.48Z"/><circle class="cls-4" cx="53.59" cy="53.68" r="0.8"/><path class="cls-4" d="M53.59,55.48a1.8,1.8,0,1,1,1.8-1.8A1.8,1.8,0,0,1,53.59,55.48Zm0-2a.2.2,0,0,0-.2.2c0,.22.4.22.4,0A.2.2,0,0,0,53.59,53.48Z"/><circle class="cls-4" cx="60" cy="53.68" r="0.8"/><path class="cls-4" d="M60,55.48a1.8,1.8,0,1,1,1.8-1.8A1.8,1.8,0,0,1,60,55.48Zm0-2a.2.2,0,0,0-.2.2c0,.22.4.22.4,0A.2.2,0,0,0,60,53.48Z"/><circle class="cls-4" cx="66.42" cy="53.68" r="0.8"/><path class="cls-4" d="M66.42,55.48a1.8,1.8,0,1,1,1.8-1.8A1.8,1.8,0,0,1,66.42,55.48Zm0-2a.2.2,0,0,0-.2.2c0,.22.4.22.4,0A.2.2,0,0,0,66.42,53.48Z"/><circle class="cls-4" cx="72.83" cy="53.68" r="0.8"/><path class="cls-4" d="M72.83,55.48a1.8,1.8,0,1,1,1.8-1.8A1.8,1.8,0,0,1,72.83,55.48Zm0-2a.2.2,0,0,0-.2.2c0,.22.4.22.4,0A.2.2,0,0,0,72.83,53.48Z"/><circle class="cls-4" cx="79.24" cy="53.68" r="0.8"/><path class="cls-4" d="M79.24,55.48a1.8,1.8,0,1,1,1.8-1.8A1.8,1.8,0,0,1,79.24,55.48Zm0-2a.2.2,0,0,0-.2.2c0,.22.4.22.4,0A.2.2,0,0,0,79.24,53.48Z"/><circle class="cls-4" cx="85.65" cy="53.68" r="0.8"/><path class="cls-4" d="M85.65,55.48a1.8,1.8,0,1,1,1.8-1.8A1.8,1.8,0,0,1,85.65,55.48Zm0-2a.2.2,0,0,0-.2.2c0,.22.4.22.4,0A.2.2,0,0,0,85.65,53.48Z"/><circle class="cls-4" cx="92.06" cy="53.68" r="0.8"/><path class="cls-4" d="M92.06,55.48a1.8,1.8,0,1,1,1.8-1.8A1.8,1.8,0,0,1,92.06,55.48Zm0-2a.2.2,0,0,0-.2.2c0,.22.4.22.4,0A.2.2,0,0,0,92.06,53.48Z"/><circle class="cls-4" cx="98.48" cy="53.68" r="0.8"/><path class="cls-4" d="M98.48,55.48a1.8,1.8,0,1,1,1.8-1.8A1.8,1.8,0,0,1,98.48,55.48Zm0-2a.2.2,0,0,0-.2.2c0,.22.4.22.4,0A.2.2,0,0,0,98.48,53.48Z"/><circle class="cls-4" cx="104.89" cy="53.68" r="0.8"/><path class="cls-4" d="M104.89,55.48a1.8,1.8,0,1,1,1.8-1.8A1.8,1.8,0,0,1,104.89,55.48Zm0-2a.2.2,0,0,0-.2.2c0,.22.4.22.4,0A.2.2,0,0,0,104.89,53.48Z"/><circle class="cls-4" cx="111.3" cy="53.68" r="0.8"/><path class="cls-4" d="M111.3,55.48a1.8,1.8,0,1,1,1.8-1.8A1.8,1.8,0,0,1,111.3,55.48Zm0-2a.2.2,0,0,0-.2.2c0,.22.4.22.4,0A.2.2,0,0,0,111.3,53.48Z"/><circle class="cls-4" cx="18.33" cy="58.49" r="0.8"/><path class="cls-4" d="M18.33,60.29a1.8,1.8,0,1,1,1.8-1.8A1.8,1.8,0,0,1,18.33,60.29Zm0-2a.2.2,0,0,0-.2.2c0,.22.4.22.4,0A.2.2,0,0,0,18.33,58.29Z"/><circle class="cls-4" cx="24.74" cy="58.49" r="0.8"/><path class="cls-4" d="M24.74,60.29a1.8,1.8,0,1,1,1.8-1.8A1.8,1.8,0,0,1,24.74,60.29Zm0-2a.2.2,0,0,0-.2.2c0,.22.4.22.4,0A.2.2,0,0,0,24.74,58.29Z"/><circle class="cls-4" cx="31.15" cy="58.49" r="0.8"/><path class="cls-4" d="M31.15,60.29a1.8,1.8,0,1,1,1.8-1.8A1.8,1.8,0,0,1,31.15,60.29Zm0-2a.2.2,0,0,0-.2.2c0,.22.4.22.4,0A.2.2,0,0,0,31.15,58.29Z"/><circle class="cls-4" cx="37.56" cy="58.49" r="0.8"/><path class="cls-4" d="M37.56,60.29a1.8,1.8,0,1,1,1.8-1.8A1.8,1.8,0,0,1,37.56,60.29Zm0-2a.2.2,0,0,0-.2.2c0,.22.4.22.4,0A.2.2,0,0,0,37.56,58.29Z"/><circle class="cls-4" cx="43.97" cy="58.49" r="0.8"/><path class="cls-4" d="M44,60.29a1.8,1.8,0,1,1,1.8-1.8A1.8,1.8,0,0,1,44,60.29Zm0-2a.2.2,0,0,0-.2.2c0,.22.4.22.4,0A.2.2,0,0,0,44,58.29Z"/><circle class="cls-4" cx="50.39" cy="58.49" r="0.8"/><path class="cls-4" d="M50.39,60.29a1.8,1.8,0,1,1,1.8-1.8A1.8,1.8,0,0,1,50.39,60.29Zm0-2a.2.2,0,0,0-.2.2c0,.22.4.22.4,0A.2.2,0,0,0,50.39,58.29Z"/><circle class="cls-4" cx="56.8" cy="58.49" r="0.8"/><path class="cls-4" d="M56.8,60.29a1.8,1.8,0,1,1,1.8-1.8A1.8,1.8,0,0,1,56.8,60.29Zm0-2a.2.2,0,0,0-.2.2c0,.22.4.22.4,0A.2.2,0,0,0,56.8,58.29Z"/><circle class="cls-4" cx="63.21" cy="58.49" r="0.8"/><path class="cls-4" d="M63.21,60.29a1.8,1.8,0,1,1,1.8-1.8A1.8,1.8,0,0,1,63.21,60.29Zm0-2a.2.2,0,0,0-.2.2c0,.22.4.22.4,0A.2.2,0,0,0,63.21,58.29Z"/><circle class="cls-4" cx="69.62" cy="58.49" r="0.8"/><path class="cls-4" d="M69.62,60.29a1.8,1.8,0,1,1,1.8-1.8A1.8,1.8,0,0,1,69.62,60.29Zm0-2a.2.2,0,0,0-.2.2c0,.22.4.22.4,0A.2.2,0,0,0,69.62,58.29Z"/><circle class="cls-4" cx="76.03" cy="58.49" r="0.8"/><path class="cls-4" d="M76,60.29a1.8,1.8,0,1,1,1.8-1.8A1.8,1.8,0,0,1,76,60.29Zm0-2a.2.2,0,0,0-.2.2c0,.22.4.22.4,0A.2.2,0,0,0,76,58.29Z"/><circle class="cls-4" cx="82.45" cy="58.49" r="0.8"/><path class="cls-4" d="M82.45,60.29a1.8,1.8,0,1,1,1.8-1.8A1.8,1.8,0,0,1,82.45,60.29Zm0-2a.2.2,0,0,0-.2.2c0,.22.4.22.4,0A.2.2,0,0,0,82.45,58.29Z"/><circle class="cls-4" cx="88.86" cy="58.49" r="0.8"/><path class="cls-4" d="M88.86,60.29a1.8,1.8,0,1,1,1.8-1.8A1.8,1.8,0,0,1,88.86,60.29Zm0-2a.2.2,0,0,0-.2.2c0,.22.4.22.4,0A.2.2,0,0,0,88.86,58.29Z"/><circle class="cls-4" cx="95.27" cy="58.49" r="0.8"/><path class="cls-4" d="M95.27,60.29a1.8,1.8,0,1,1,1.8-1.8A1.8,1.8,0,0,1,95.27,60.29Zm0-2a.2.2,0,0,0-.2.2c0,.22.4.22.4,0A.2.2,0,0,0,95.27,58.29Z"/><circle class="cls-4" cx="101.68" cy="58.49" r="0.8"/><path class="cls-4" d="M101.68,60.29a1.8,1.8,0,1,1,1.8-1.8A1.8,1.8,0,0,1,101.68,60.29Zm0-2a.2.2,0,0,0-.2.2c0,.22.4.22.4,0A.2.2,0,0,0,101.68,58.29Z"/><circle class="cls-4" cx="108.09" cy="58.49" r="0.8"/><path class="cls-4" d="M108.09,60.29a1.8,1.8,0,1,1,1.8-1.8A1.8,1.8,0,0,1,108.09,60.29Zm0-2a.2.2,0,0,0-.2.2c0,.22.4.22.4,0A.2.2,0,0,0,108.09,58.29Z"/><circle class="cls-4" cx="114.51" cy="58.49" r="0.8"/><path class="cls-4" d="M114.51,60.29a1.8,1.8,0,1,1,1.8-1.8A1.8,1.8,0,0,1,114.51,60.29Zm0-2a.2.2,0,0,0-.2.2c0,.22.4.22.4,0A.2.2,0,0,0,114.51,58.29Z"/><circle class="cls-4" cx="15.12" cy="63.3" r="0.8"/><path class="cls-4" d="M15.12,65.1a1.8,1.8,0,1,1,1.8-1.8A1.8,1.8,0,0,1,15.12,65.1Zm0-2a.2.2,0,0,0-.2.2c0,.22.4.22.4,0A.2.2,0,0,0,15.12,63.1Z"/><circle class="cls-4" cx="21.53" cy="63.3" r="0.8"/><path class="cls-4" d="M21.53,65.1a1.8,1.8,0,1,1,1.8-1.8A1.8,1.8,0,0,1,21.53,65.1Zm0-2a.2.2,0,0,0-.2.2c0,.22.4.22.4,0A.2.2,0,0,0,21.53,63.1Z"/><circle class="cls-4" cx="27.94" cy="63.3" r="0.8"/><path class="cls-4" d="M27.94,65.1a1.8,1.8,0,1,1,1.8-1.8A1.8,1.8,0,0,1,27.94,65.1Zm0-2a.2.2,0,0,0-.2.2c0,.22.4.22.4,0A.2.2,0,0,0,27.94,63.1Z"/><circle class="cls-4" cx="34.36" cy="63.3" r="0.8"/><path class="cls-4" d="M34.36,65.1a1.8,1.8,0,1,1,1.8-1.8A1.8,1.8,0,0,1,34.36,65.1Zm0-2a.2.2,0,0,0-.2.2c0,.22.4.22.4,0A.2.2,0,0,0,34.36,63.1Z"/><circle class="cls-4" cx="40.77" cy="63.3" r="0.8"/><path class="cls-4" d="M40.77,65.1a1.8,1.8,0,1,1,1.8-1.8A1.8,1.8,0,0,1,40.77,65.1Zm0-2a.2.2,0,0,0-.2.2c0,.22.4.22.4,0A.2.2,0,0,0,40.77,63.1Z"/><circle class="cls-4" cx="47.18" cy="63.3" r="0.8"/><path class="cls-4" d="M47.18,65.1A1.8,1.8,0,1,1,49,63.3,1.8,1.8,0,0,1,47.18,65.1Zm0-2a.2.2,0,0,0-.2.2c0,.22.4.22.4,0A.2.2,0,0,0,47.18,63.1Z"/><circle class="cls-4" cx="53.59" cy="63.3" r="0.8"/><path class="cls-4" d="M53.59,65.1a1.8,1.8,0,1,1,1.8-1.8A1.8,1.8,0,0,1,53.59,65.1Zm0-2a.2.2,0,0,0-.2.2c0,.22.4.22.4,0A.2.2,0,0,0,53.59,63.1Z"/><circle class="cls-4" cx="60" cy="63.3" r="0.8"/><path class="cls-4" d="M60,65.1a1.8,1.8,0,1,1,1.8-1.8A1.8,1.8,0,0,1,60,65.1Zm0-2a.2.2,0,0,0-.2.2c0,.22.4.22.4,0A.2.2,0,0,0,60,63.1Z"/><circle class="cls-4" cx="66.42" cy="63.3" r="0.8"/><path class="cls-4" d="M66.42,65.1a1.8,1.8,0,1,1,1.8-1.8A1.8,1.8,0,0,1,66.42,65.1Zm0-2a.2.2,0,0,0-.2.2c0,.22.4.22.4,0A.2.2,0,0,0,66.42,63.1Z"/><circle class="cls-4" cx="72.83" cy="63.3" r="0.8"/><path class="cls-4" d="M72.83,65.1a1.8,1.8,0,1,1,1.8-1.8A1.8,1.8,0,0,1,72.83,65.1Zm0-2a.2.2,0,0,0-.2.2c0,.22.4.22.4,0A.2.2,0,0,0,72.83,63.1Z"/><circle class="cls-4" cx="79.24" cy="63.3" r="0.8"/><path class="cls-4" d="M79.24,65.1A1.8,1.8,0,1,1,81,63.3,1.8,1.8,0,0,1,79.24,65.1Zm0-2a.2.2,0,0,0-.2.2c0,.22.4.22.4,0A.2.2,0,0,0,79.24,63.1Z"/><circle class="cls-4" cx="85.65" cy="63.3" r="0.8"/><path class="cls-4" d="M85.65,65.1a1.8,1.8,0,1,1,1.8-1.8A1.8,1.8,0,0,1,85.65,65.1Zm0-2a.2.2,0,0,0-.2.2c0,.22.4.22.4,0A.2.2,0,0,0,85.65,63.1Z"/><circle class="cls-4" cx="92.06" cy="63.3" r="0.8"/><path class="cls-4" d="M92.06,65.1a1.8,1.8,0,1,1,1.8-1.8A1.8,1.8,0,0,1,92.06,65.1Zm0-2a.2.2,0,0,0-.2.2c0,.22.4.22.4,0A.2.2,0,0,0,92.06,63.1Z"/><circle class="cls-4" cx="98.48" cy="63.3" r="0.8"/><path class="cls-4" d="M98.48,65.1a1.8,1.8,0,1,1,1.8-1.8A1.8,1.8,0,0,1,98.48,65.1Zm0-2a.2.2,0,0,0-.2.2c0,.22.4.22.4,0A.2.2,0,0,0,98.48,63.1Z"/><circle class="cls-4" cx="104.89" cy="63.3" r="0.8"/><path class="cls-4" d="M104.89,65.1a1.8,1.8,0,1,1,1.8-1.8A1.8,1.8,0,0,1,104.89,65.1Zm0-2a.2.2,0,0,0-.2.2c0,.22.4.22.4,0A.2.2,0,0,0,104.89,63.1Z"/><circle class="cls-4" cx="111.3" cy="63.3" r="0.8"/><path class="cls-4" d="M111.3,65.1a1.8,1.8,0,1,1,1.8-1.8A1.8,1.8,0,0,1,111.3,65.1Zm0-2a.2.2,0,0,0-.2.2c0,.22.4.22.4,0A.2.2,0,0,0,111.3,63.1Z"/><circle class="cls-4" cx="18.33" cy="68.11" r="0.8"/><path class="cls-4" d="M18.33,69.91a1.8,1.8,0,1,1,1.8-1.8A1.8,1.8,0,0,1,18.33,69.91Zm0-2a.2.2,0,0,0-.2.2c0,.22.4.22.4,0A.2.2,0,0,0,18.33,67.91Z"/><circle class="cls-4" cx="24.74" cy="68.11" r="0.8"/><path class="cls-4" d="M24.74,69.91a1.8,1.8,0,1,1,1.8-1.8A1.8,1.8,0,0,1,24.74,69.91Zm0-2a.2.2,0,0,0-.2.2c0,.22.4.22.4,0A.2.2,0,0,0,24.74,67.91Z"/><circle class="cls-4" cx="31.15" cy="68.11" r="0.8"/><path class="cls-4" d="M31.15,69.91a1.8,1.8,0,1,1,1.8-1.8A1.8,1.8,0,0,1,31.15,69.91Zm0-2a.2.2,0,0,0-.2.2c0,.22.4.22.4,0A.2.2,0,0,0,31.15,67.91Z"/><circle class="cls-4" cx="37.56" cy="68.11" r="0.8"/><path class="cls-4" d="M37.56,69.91a1.8,1.8,0,1,1,1.8-1.8A1.8,1.8,0,0,1,37.56,69.91Zm0-2a.2.2,0,0,0-.2.2c0,.22.4.22.4,0A.2.2,0,0,0,37.56,67.91Z"/><circle class="cls-4" cx="43.97" cy="68.11" r="0.8"/><path class="cls-4" d="M44,69.91a1.8,1.8,0,1,1,1.8-1.8A1.8,1.8,0,0,1,44,69.91Zm0-2a.2.2,0,0,0-.2.2c0,.22.4.22.4,0A.2.2,0,0,0,44,67.91Z"/><circle class="cls-4" cx="50.39" cy="68.11" r="0.8"/><path class="cls-4" d="M50.39,69.91a1.8,1.8,0,1,1,1.8-1.8A1.8,1.8,0,0,1,50.39,69.91Zm0-2a.2.2,0,0,0-.2.2c0,.22.4.22.4,0A.2.2,0,0,0,50.39,67.91Z"/><circle class="cls-4" cx="56.8" cy="68.11" r="0.8"/><path class="cls-4" d="M56.8,69.91a1.8,1.8,0,1,1,1.8-1.8A1.8,1.8,0,0,1,56.8,69.91Zm0-2a.2.2,0,0,0-.2.2c0,.22.4.22.4,0A.2.2,0,0,0,56.8,67.91Z"/><circle class="cls-4" cx="63.21" cy="68.11" r="0.8"/><path class="cls-4" d="M63.21,69.91a1.8,1.8,0,1,1,1.8-1.8A1.8,1.8,0,0,1,63.21,69.91Zm0-2a.2.2,0,0,0-.2.2c0,.22.4.22.4,0A.2.2,0,0,0,63.21,67.91Z"/><circle class="cls-4" cx="69.62" cy="68.11" r="0.8"/><path class="cls-4" d="M69.62,69.91a1.8,1.8,0,1,1,1.8-1.8A1.8,1.8,0,0,1,69.62,69.91Zm0-2a.2.2,0,0,0-.2.2c0,.22.4.22.4,0A.2.2,0,0,0,69.62,67.91Z"/><circle class="cls-4" cx="76.03" cy="68.11" r="0.8"/><path class="cls-4" d="M76,69.91a1.8,1.8,0,1,1,1.8-1.8A1.8,1.8,0,0,1,76,69.91Zm0-2a.2.2,0,0,0-.2.2c0,.22.4.22.4,0A.2.2,0,0,0,76,67.91Z"/><circle class="cls-4" cx="82.45" cy="68.11" r="0.8"/><path class="cls-4" d="M82.45,69.91a1.8,1.8,0,1,1,1.8-1.8A1.8,1.8,0,0,1,82.45,69.91Zm0-2a.2.2,0,0,0-.2.2c0,.22.4.22.4,0A.2.2,0,0,0,82.45,67.91Z"/><circle class="cls-4" cx="88.86" cy="68.11" r="0.8"/><path class="cls-4" d="M88.86,69.91a1.8,1.8,0,1,1,1.8-1.8A1.8,1.8,0,0,1,88.86,69.91Zm0-2a.2.2,0,0,0-.2.2c0,.22.4.22.4,0A.2.2,0,0,0,88.86,67.91Z"/><circle class="cls-4" cx="95.27" cy="68.11" r="0.8"/><path class="cls-4" d="M95.27,69.91a1.8,1.8,0,1,1,1.8-1.8A1.8,1.8,0,0,1,95.27,69.91Zm0-2a.2.2,0,0,0-.2.2c0,.22.4.22.4,0A.2.2,0,0,0,95.27,67.91Z"/><circle class="cls-4" cx="101.68" cy="68.11" r="0.8"/><path class="cls-4" d="M101.68,69.91a1.8,1.8,0,1,1,1.8-1.8A1.8,1.8,0,0,1,101.68,69.91Zm0-2a.2.2,0,0,0-.2.2c0,.22.4.22.4,0A.2.2,0,0,0,101.68,67.91Z"/><circle class="cls-4" cx="108.09" cy="68.11" r="0.8"/><path class="cls-4" d="M108.09,69.91a1.8,1.8,0,1,1,1.8-1.8A1.8,1.8,0,0,1,108.09,69.91Zm0-2a.2.2,0,0,0-.2.2c0,.22.4.22.4,0A.2.2,0,0,0,108.09,67.91Z"/><circle class="cls-4" cx="114.51" cy="68.11" r="0.8"/><path class="cls-4" d="M114.51,69.91a1.8,1.8,0,1,1,1.8-1.8A1.8,1.8,0,0,1,114.51,69.91Zm0-2a.2.2,0,0,0-.2.2c0,.22.4.22.4,0A.2.2,0,0,0,114.51,67.91Z"/><circle class="cls-4" cx="15.12" cy="72.92" r="0.8"/><path class="cls-4" d="M15.12,74.72a1.8,1.8,0,1,1,1.8-1.8A1.8,1.8,0,0,1,15.12,74.72Zm0-2a.2.2,0,0,0-.2.2c0,.22.4.22.4,0A.2.2,0,0,0,15.12,72.72Z"/><circle class="cls-4" cx="21.53" cy="72.92" r="0.8"/><path class="cls-4" d="M21.53,74.72a1.8,1.8,0,1,1,1.8-1.8A1.8,1.8,0,0,1,21.53,74.72Zm0-2a.2.2,0,0,0-.2.2c0,.22.4.22.4,0A.2.2,0,0,0,21.53,72.72Z"/><circle class="cls-4" cx="27.94" cy="72.92" r="0.8"/><path class="cls-4" d="M27.94,74.72a1.8,1.8,0,1,1,1.8-1.8A1.8,1.8,0,0,1,27.94,74.72Zm0-2a.2.2,0,0,0-.2.2c0,.22.4.22.4,0A.2.2,0,0,0,27.94,72.72Z"/><circle class="cls-4" cx="34.36" cy="72.92" r="0.8"/><path class="cls-4" d="M34.36,74.72a1.8,1.8,0,1,1,1.8-1.8A1.8,1.8,0,0,1,34.36,74.72Zm0-2a.2.2,0,0,0-.2.2c0,.22.4.22.4,0A.2.2,0,0,0,34.36,72.72Z"/><circle class="cls-4" cx="40.77" cy="72.92" r="0.8"/><path class="cls-4" d="M40.77,74.72a1.8,1.8,0,1,1,1.8-1.8A1.8,1.8,0,0,1,40.77,74.72Zm0-2a.2.2,0,0,0-.2.2c0,.22.4.22.4,0A.2.2,0,0,0,40.77,72.72Z"/><circle class="cls-4" cx="47.18" cy="72.92" r="0.8"/><path class="cls-4" d="M47.18,74.72a1.8,1.8,0,1,1,1.8-1.8A1.8,1.8,0,0,1,47.18,74.72Zm0-2a.2.2,0,0,0-.2.2c0,.22.4.22.4,0A.2.2,0,0,0,47.18,72.72Z"/><circle class="cls-4" cx="53.59" cy="72.92" r="0.8"/><path class="cls-4" d="M53.59,74.72a1.8,1.8,0,1,1,1.8-1.8A1.8,1.8,0,0,1,53.59,74.72Zm0-2a.2.2,0,0,0-.2.2c0,.22.4.22.4,0A.2.2,0,0,0,53.59,72.72Z"/><circle class="cls-4" cx="60" cy="72.92" r="0.8"/><path class="cls-4" d="M60,74.72a1.8,1.8,0,1,1,1.8-1.8A1.8,1.8,0,0,1,60,74.72Zm0-2a.2.2,0,0,0-.2.2c0,.22.4.22.4,0A.2.2,0,0,0,60,72.72Z"/><circle class="cls-4" cx="66.42" cy="72.92" r="0.8"/><path class="cls-4" d="M66.42,74.72a1.8,1.8,0,1,1,1.8-1.8A1.8,1.8,0,0,1,66.42,74.72Zm0-2a.2.2,0,0,0-.2.2c0,.22.4.22.4,0A.2.2,0,0,0,66.42,72.72Z"/><circle class="cls-4" cx="72.83" cy="72.92" r="0.8"/><path class="cls-4" d="M72.83,74.72a1.8,1.8,0,1,1,1.8-1.8A1.8,1.8,0,0,1,72.83,74.72Zm0-2a.2.2,0,0,0-.2.2c0,.22.4.22.4,0A.2.2,0,0,0,72.83,72.72Z"/><circle class="cls-4" cx="79.24" cy="72.92" r="0.8"/><path class="cls-4" d="M79.24,74.72a1.8,1.8,0,1,1,1.8-1.8A1.8,1.8,0,0,1,79.24,74.72Zm0-2a.2.2,0,0,0-.2.2c0,.22.4.22.4,0A.2.2,0,0,0,79.24,72.72Z"/><circle class="cls-4" cx="85.65" cy="72.92" r="0.8"/><path class="cls-4" d="M85.65,74.72a1.8,1.8,0,1,1,1.8-1.8A1.8,1.8,0,0,1,85.65,74.72Zm0-2a.2.2,0,0,0-.2.2c0,.22.4.22.4,0A.2.2,0,0,0,85.65,72.72Z"/><circle class="cls-4" cx="92.06" cy="72.92" r="0.8"/><path class="cls-4" d="M92.06,74.72a1.8,1.8,0,1,1,1.8-1.8A1.8,1.8,0,0,1,92.06,74.72Zm0-2a.2.2,0,0,0-.2.2c0,.22.4.22.4,0A.2.2,0,0,0,92.06,72.72Z"/><circle class="cls-4" cx="98.48" cy="72.92" r="0.8"/><path class="cls-4" d="M98.48,74.72a1.8,1.8,0,1,1,1.8-1.8A1.8,1.8,0,0,1,98.48,74.72Zm0-2a.2.2,0,0,0-.2.2c0,.22.4.22.4,0A.2.2,0,0,0,98.48,72.72Z"/><circle class="cls-4" cx="104.89" cy="72.92" r="0.8"/><path class="cls-4" d="M104.89,74.72a1.8,1.8,0,1,1,1.8-1.8A1.8,1.8,0,0,1,104.89,74.72Zm0-2a.2.2,0,0,0-.2.2c0,.22.4.22.4,0A.2.2,0,0,0,104.89,72.72Z"/><circle class="cls-4" cx="111.3" cy="72.92" r="0.8"/><path class="cls-4" d="M111.3,74.72a1.8,1.8,0,1,1,1.8-1.8A1.8,1.8,0,0,1,111.3,74.72Zm0-2a.2.2,0,0,0-.2.2c0,.22.4.22.4,0A.2.2,0,0,0,111.3,72.72Z"/><circle class="cls-4" cx="18.33" cy="77.72" r="0.8"/><path class="cls-4" d="M18.33,79.53a1.8,1.8,0,1,1,1.8-1.8A1.8,1.8,0,0,1,18.33,79.53Zm0-2a.2.2,0,0,0-.2.2c0,.22.4.22.4,0A.2.2,0,0,0,18.33,77.53Z"/><circle class="cls-4" cx="24.74" cy="77.72" r="0.8"/><path class="cls-4" d="M24.74,79.53a1.8,1.8,0,1,1,1.8-1.8A1.8,1.8,0,0,1,24.74,79.53Zm0-2a.2.2,0,0,0-.2.2c0,.22.4.22.4,0A.2.2,0,0,0,24.74,77.53Z"/><circle class="cls-4" cx="31.15" cy="77.72" r="0.8"/><path class="cls-4" d="M31.15,79.53a1.8,1.8,0,1,1,1.8-1.8A1.8,1.8,0,0,1,31.15,79.53Zm0-2a.2.2,0,0,0-.2.2c0,.22.4.22.4,0A.2.2,0,0,0,31.15,77.53Z"/><circle class="cls-4" cx="37.56" cy="77.72" r="0.8"/><path class="cls-4" d="M37.56,79.53a1.8,1.8,0,1,1,1.8-1.8A1.8,1.8,0,0,1,37.56,79.53Zm0-2a.2.2,0,0,0-.2.2c0,.22.4.22.4,0A.2.2,0,0,0,37.56,77.53Z"/><circle class="cls-4" cx="43.97" cy="77.72" r="0.8"/><path class="cls-4" d="M44,79.53a1.8,1.8,0,1,1,1.8-1.8A1.8,1.8,0,0,1,44,79.53Zm0-2a.2.2,0,0,0-.2.2c0,.22.4.22.4,0A.2.2,0,0,0,44,77.53Z"/><circle class="cls-4" cx="50.39" cy="77.72" r="0.8"/><path class="cls-4" d="M50.39,79.53a1.8,1.8,0,1,1,1.8-1.8A1.8,1.8,0,0,1,50.39,79.53Zm0-2a.2.2,0,0,0-.2.2c0,.22.4.22.4,0A.2.2,0,0,0,50.39,77.53Z"/><circle class="cls-4" cx="56.8" cy="77.72" r="0.8"/><path class="cls-4" d="M56.8,79.53a1.8,1.8,0,1,1,1.8-1.8A1.8,1.8,0,0,1,56.8,79.53Zm0-2a.2.2,0,0,0-.2.2c0,.22.4.22.4,0A.2.2,0,0,0,56.8,77.53Z"/><circle class="cls-4" cx="63.21" cy="77.72" r="0.8"/><path class="cls-4" d="M63.21,79.53a1.8,1.8,0,1,1,1.8-1.8A1.8,1.8,0,0,1,63.21,79.53Zm0-2a.2.2,0,0,0-.2.2c0,.22.4.22.4,0A.2.2,0,0,0,63.21,77.53Z"/><circle class="cls-4" cx="69.62" cy="77.72" r="0.8"/><path class="cls-4" d="M69.62,79.53a1.8,1.8,0,1,1,1.8-1.8A1.8,1.8,0,0,1,69.62,79.53Zm0-2a.2.2,0,0,0-.2.2c0,.22.4.22.4,0A.2.2,0,0,0,69.62,77.53Z"/><circle class="cls-4" cx="76.03" cy="77.72" r="0.8"/><path class="cls-4" d="M76,79.53a1.8,1.8,0,1,1,1.8-1.8A1.8,1.8,0,0,1,76,79.53Zm0-2a.2.2,0,0,0-.2.2c0,.22.4.22.4,0A.2.2,0,0,0,76,77.53Z"/><circle class="cls-4" cx="82.45" cy="77.72" r="0.8"/><path class="cls-4" d="M82.45,79.53a1.8,1.8,0,1,1,1.8-1.8A1.8,1.8,0,0,1,82.45,79.53Zm0-2a.2.2,0,0,0-.2.2c0,.22.4.22.4,0A.2.2,0,0,0,82.45,77.53Z"/><circle class="cls-4" cx="88.86" cy="77.72" r="0.8"/><path class="cls-4" d="M88.86,79.53a1.8,1.8,0,1,1,1.8-1.8A1.8,1.8,0,0,1,88.86,79.53Zm0-2a.2.2,0,0,0-.2.2c0,.22.4.22.4,0A.2.2,0,0,0,88.86,77.53Z"/><circle class="cls-4" cx="95.27" cy="77.72" r="0.8"/><path class="cls-4" d="M95.27,79.53a1.8,1.8,0,1,1,1.8-1.8A1.8,1.8,0,0,1,95.27,79.53Zm0-2a.2.2,0,0,0-.2.2c0,.22.4.22.4,0A.2.2,0,0,0,95.27,77.53Z"/><circle class="cls-4" cx="101.68" cy="77.72" r="0.8"/><path class="cls-4" d="M101.68,79.53a1.8,1.8,0,1,1,1.8-1.8A1.8,1.8,0,0,1,101.68,79.53Zm0-2a.2.2,0,0,0-.2.2c0,.22.4.22.4,0A.2.2,0,0,0,101.68,77.53Z"/><circle class="cls-4" cx="108.09" cy="77.72" r="0.8"/><path class="cls-4" d="M108.09,79.53a1.8,1.8,0,1,1,1.8-1.8A1.8,1.8,0,0,1,108.09,79.53Zm0-2a.2.2,0,0,0-.2.2c0,.22.4.22.4,0A.2.2,0,0,0,108.09,77.53Z"/><circle class="cls-4" cx="114.51" cy="77.72" r="0.8"/><path class="cls-4" d="M114.51,79.53a1.8,1.8,0,1,1,1.8-1.8A1.8,1.8,0,0,1,114.51,79.53Zm0-2a.2.2,0,0,0-.2.2c0,.22.4.22.4,0A.2.2,0,0,0,114.51,77.53Z"/><circle class="cls-4" cx="15.12" cy="82.53" r="0.8"/><path class="cls-4" d="M15.12,84.34a1.8,1.8,0,1,1,1.8-1.8A1.8,1.8,0,0,1,15.12,84.34Zm0-2a.2.2,0,0,0-.2.2c0,.22.4.22.4,0A.2.2,0,0,0,15.12,82.34Z"/><circle class="cls-4" cx="21.53" cy="82.53" r="0.8"/><path class="cls-4" d="M21.53,84.34a1.8,1.8,0,1,1,1.8-1.8A1.8,1.8,0,0,1,21.53,84.34Zm0-2a.2.2,0,0,0-.2.2c0,.22.4.22.4,0A.2.2,0,0,0,21.53,82.34Z"/><circle class="cls-4" cx="27.94" cy="82.53" r="0.8"/><path class="cls-4" d="M27.94,84.34a1.8,1.8,0,1,1,1.8-1.8A1.8,1.8,0,0,1,27.94,84.34Zm0-2a.2.2,0,0,0-.2.2c0,.22.4.22.4,0A.2.2,0,0,0,27.94,82.34Z"/><circle class="cls-4" cx="34.36" cy="82.53" r="0.8"/><path class="cls-4" d="M34.36,84.34a1.8,1.8,0,1,1,1.8-1.8A1.8,1.8,0,0,1,34.36,84.34Zm0-2a.2.2,0,0,0-.2.2c0,.22.4.22.4,0A.2.2,0,0,0,34.36,82.34Z"/><circle class="cls-4" cx="40.77" cy="82.53" r="0.8"/><path class="cls-4" d="M40.77,84.34a1.8,1.8,0,1,1,1.8-1.8A1.8,1.8,0,0,1,40.77,84.34Zm0-2a.2.2,0,0,0-.2.2c0,.22.4.22.4,0A.2.2,0,0,0,40.77,82.34Z"/><circle class="cls-4" cx="47.18" cy="82.53" r="0.8"/><path class="cls-4" d="M47.18,84.34a1.8,1.8,0,1,1,1.8-1.8A1.8,1.8,0,0,1,47.18,84.34Zm0-2a.2.2,0,0,0-.2.2c0,.22.4.22.4,0A.2.2,0,0,0,47.18,82.34Z"/><circle class="cls-4" cx="53.59" cy="82.53" r="0.8"/><path class="cls-4" d="M53.59,84.34a1.8,1.8,0,1,1,1.8-1.8A1.8,1.8,0,0,1,53.59,84.34Zm0-2a.2.2,0,0,0-.2.2c0,.22.4.22.4,0A.2.2,0,0,0,53.59,82.34Z"/><circle class="cls-4" cx="60" cy="82.53" r="0.8"/><path class="cls-4" d="M60,84.34a1.8,1.8,0,1,1,1.8-1.8A1.8,1.8,0,0,1,60,84.34Zm0-2a.2.2,0,0,0-.2.2c0,.22.4.22.4,0A.2.2,0,0,0,60,82.34Z"/><circle class="cls-4" cx="66.42" cy="82.53" r="0.8"/><path class="cls-4" d="M66.42,84.34a1.8,1.8,0,1,1,1.8-1.8A1.8,1.8,0,0,1,66.42,84.34Zm0-2a.2.2,0,0,0-.2.2c0,.22.4.22.4,0A.2.2,0,0,0,66.42,82.34Z"/><circle class="cls-4" cx="72.83" cy="82.53" r="0.8"/><path class="cls-4" d="M72.83,84.34a1.8,1.8,0,1,1,1.8-1.8A1.8,1.8,0,0,1,72.83,84.34Zm0-2a.2.2,0,0,0-.2.2c0,.22.4.22.4,0A.2.2,0,0,0,72.83,82.34Z"/><circle class="cls-4" cx="79.24" cy="82.53" r="0.8"/><path class="cls-4" d="M79.24,84.34a1.8,1.8,0,1,1,1.8-1.8A1.8,1.8,0,0,1,79.24,84.34Zm0-2a.2.2,0,0,0-.2.2c0,.22.4.22.4,0A.2.2,0,0,0,79.24,82.34Z"/><circle class="cls-4" cx="85.65" cy="82.53" r="0.8"/><path class="cls-4" d="M85.65,84.34a1.8,1.8,0,1,1,1.8-1.8A1.8,1.8,0,0,1,85.65,84.34Zm0-2a.2.2,0,0,0-.2.2c0,.22.4.22.4,0A.2.2,0,0,0,85.65,82.34Z"/><circle class="cls-4" cx="92.06" cy="82.53" r="0.8"/><path class="cls-4" d="M92.06,84.34a1.8,1.8,0,1,1,1.8-1.8A1.8,1.8,0,0,1,92.06,84.34Zm0-2a.2.2,0,0,0-.2.2c0,.22.4.22.4,0A.2.2,0,0,0,92.06,82.34Z"/><circle class="cls-4" cx="98.48" cy="82.53" r="0.8"/><path class="cls-4" d="M98.48,84.34a1.8,1.8,0,1,1,1.8-1.8A1.8,1.8,0,0,1,98.48,84.34Zm0-2a.2.2,0,0,0-.2.2c0,.22.4.22.4,0A.2.2,0,0,0,98.48,82.34Z"/><circle class="cls-4" cx="104.89" cy="82.53" r="0.8"/><path class="cls-4" d="M104.89,84.34a1.8,1.8,0,1,1,1.8-1.8A1.8,1.8,0,0,1,104.89,84.34Zm0-2a.2.2,0,0,0-.2.2c0,.22.4.22.4,0A.2.2,0,0,0,104.89,82.34Z"/><circle class="cls-4" cx="111.3" cy="82.53" r="0.8"/><path class="cls-4" d="M111.3,84.34a1.8,1.8,0,1,1,1.8-1.8A1.8,1.8,0,0,1,111.3,84.34Zm0-2a.2.2,0,0,0-.2.2c0,.22.4.22.4,0A.2.2,0,0,0,111.3,82.34Z"/><circle class="cls-4" cx="18.33" cy="87.34" r="0.8"/><path class="cls-4" d="M18.33,89.14a1.8,1.8,0,1,1,1.8-1.8A1.8,1.8,0,0,1,18.33,89.14Zm0-2a.2.2,0,0,0-.2.2c0,.22.4.22.4,0A.2.2,0,0,0,18.33,87.14Z"/><circle class="cls-4" cx="24.74" cy="87.34" r="0.8"/><path class="cls-4" d="M24.74,89.14a1.8,1.8,0,1,1,1.8-1.8A1.8,1.8,0,0,1,24.74,89.14Zm0-2a.2.2,0,0,0-.2.2c0,.22.4.22.4,0A.2.2,0,0,0,24.74,87.14Z"/><circle class="cls-4" cx="31.15" cy="87.34" r="0.8"/><path class="cls-4" d="M31.15,89.14a1.8,1.8,0,1,1,1.8-1.8A1.8,1.8,0,0,1,31.15,89.14Zm0-2a.2.2,0,0,0-.2.2c0,.22.4.22.4,0A.2.2,0,0,0,31.15,87.14Z"/><circle class="cls-4" cx="37.56" cy="87.34" r="0.8"/><path class="cls-4" d="M37.56,89.14a1.8,1.8,0,1,1,1.8-1.8A1.8,1.8,0,0,1,37.56,89.14Zm0-2a.2.2,0,0,0-.2.2c0,.22.4.22.4,0A.2.2,0,0,0,37.56,87.14Z"/><circle class="cls-4" cx="43.97" cy="87.34" r="0.8"/><path class="cls-4" d="M44,89.14a1.8,1.8,0,1,1,1.8-1.8A1.8,1.8,0,0,1,44,89.14Zm0-2a.2.2,0,0,0-.2.2c0,.22.4.22.4,0A.2.2,0,0,0,44,87.14Z"/><circle class="cls-4" cx="50.39" cy="87.34" r="0.8"/><path class="cls-4" d="M50.39,89.14a1.8,1.8,0,1,1,1.8-1.8A1.8,1.8,0,0,1,50.39,89.14Zm0-2a.2.2,0,0,0-.2.2c0,.22.4.22.4,0A.2.2,0,0,0,50.39,87.14Z"/><circle class="cls-4" cx="56.8" cy="87.34" r="0.8"/><path class="cls-4" d="M56.8,89.14a1.8,1.8,0,1,1,1.8-1.8A1.8,1.8,0,0,1,56.8,89.14Zm0-2a.2.2,0,0,0-.2.2c0,.22.4.22.4,0A.2.2,0,0,0,56.8,87.14Z"/><circle class="cls-4" cx="63.21" cy="87.34" r="0.8"/><path class="cls-4" d="M63.21,89.14a1.8,1.8,0,1,1,1.8-1.8A1.8,1.8,0,0,1,63.21,89.14Zm0-2a.2.2,0,0,0-.2.2c0,.22.4.22.4,0A.2.2,0,0,0,63.21,87.14Z"/><circle class="cls-4" cx="69.62" cy="87.34" r="0.8"/><path class="cls-4" d="M69.62,89.14a1.8,1.8,0,1,1,1.8-1.8A1.8,1.8,0,0,1,69.62,89.14Zm0-2a.2.2,0,0,0-.2.2c0,.22.4.22.4,0A.2.2,0,0,0,69.62,87.14Z"/><circle class="cls-4" cx="76.03" cy="87.34" r="0.8"/><path class="cls-4" d="M76,89.14a1.8,1.8,0,1,1,1.8-1.8A1.8,1.8,0,0,1,76,89.14Zm0-2a.2.2,0,0,0-.2.2c0,.22.4.22.4,0A.2.2,0,0,0,76,87.14Z"/><circle class="cls-4" cx="82.45" cy="87.34" r="0.8"/><path class="cls-4" d="M82.45,89.14a1.8,1.8,0,1,1,1.8-1.8A1.8,1.8,0,0,1,82.45,89.14Zm0-2a.2.2,0,0,0-.2.2c0,.22.4.22.4,0A.2.2,0,0,0,82.45,87.14Z"/><circle class="cls-4" cx="88.86" cy="87.34" r="0.8"/><path class="cls-4" d="M88.86,89.14a1.8,1.8,0,1,1,1.8-1.8A1.8,1.8,0,0,1,88.86,89.14Zm0-2a.2.2,0,0,0-.2.2c0,.22.4.22.4,0A.2.2,0,0,0,88.86,87.14Z"/><circle class="cls-4" cx="95.27" cy="87.34" r="0.8"/><path class="cls-4" d="M95.27,89.14a1.8,1.8,0,1,1,1.8-1.8A1.8,1.8,0,0,1,95.27,89.14Zm0-2a.2.2,0,0,0-.2.2c0,.22.4.22.4,0A.2.2,0,0,0,95.27,87.14Z"/><circle class="cls-4" cx="101.68" cy="87.34" r="0.8"/><path class="cls-4" d="M101.68,89.14a1.8,1.8,0,1,1,1.8-1.8A1.8,1.8,0,0,1,101.68,89.14Zm0-2a.2.2,0,0,0-.2.2c0,.22.4.22.4,0A.2.2,0,0,0,101.68,87.14Z"/><circle class="cls-4" cx="108.09" cy="87.34" r="0.8"/><path class="cls-4" d="M108.09,89.14a1.8,1.8,0,1,1,1.8-1.8A1.8,1.8,0,0,1,108.09,89.14Zm0-2a.2.2,0,0,0-.2.2c0,.22.4.22.4,0A.2.2,0,0,0,108.09,87.14Z"/><circle class="cls-4" cx="114.51" cy="87.34" r="0.8"/><path class="cls-4" d="M114.51,89.14a1.8,1.8,0,1,1,1.8-1.8A1.8,1.8,0,0,1,114.51,89.14Zm0-2a.2.2,0,0,0-.2.2c0,.22.4.22.4,0A.2.2,0,0,0,114.51,87.14Z"/><circle class="cls-4" cx="15.12" cy="92.15" r="0.8"/><path class="cls-4" d="M15.12,94a1.8,1.8,0,1,1,1.8-1.8A1.8,1.8,0,0,1,15.12,94Zm0-2a.2.2,0,0,0-.2.2c0,.22.4.22.4,0A.2.2,0,0,0,15.12,92Z"/><circle class="cls-4" cx="21.53" cy="92.15" r="0.8"/><path class="cls-4" d="M21.53,94a1.8,1.8,0,1,1,1.8-1.8A1.8,1.8,0,0,1,21.53,94Zm0-2a.2.2,0,0,0-.2.2c0,.22.4.22.4,0A.2.2,0,0,0,21.53,92Z"/><circle class="cls-4" cx="27.94" cy="92.15" r="0.8"/><path class="cls-4" d="M27.94,94a1.8,1.8,0,1,1,1.8-1.8A1.8,1.8,0,0,1,27.94,94Zm0-2a.2.2,0,0,0-.2.2c0,.22.4.22.4,0A.2.2,0,0,0,27.94,92Z"/><circle class="cls-4" cx="34.36" cy="92.15" r="0.8"/><path class="cls-4" d="M34.36,94a1.8,1.8,0,1,1,1.8-1.8A1.8,1.8,0,0,1,34.36,94Zm0-2a.2.2,0,0,0-.2.2c0,.22.4.22.4,0A.2.2,0,0,0,34.36,92Z"/><circle class="cls-4" cx="40.77" cy="92.15" r="0.8"/><path class="cls-4" d="M40.77,94a1.8,1.8,0,1,1,1.8-1.8A1.8,1.8,0,0,1,40.77,94Zm0-2a.2.2,0,0,0-.2.2c0,.22.4.22.4,0A.2.2,0,0,0,40.77,92Z"/><circle class="cls-4" cx="47.18" cy="92.15" r="0.8"/><path class="cls-4" d="M47.18,94a1.8,1.8,0,1,1,1.8-1.8A1.8,1.8,0,0,1,47.18,94Zm0-2a.2.2,0,0,0-.2.2c0,.22.4.22.4,0A.2.2,0,0,0,47.18,92Z"/><circle class="cls-4" cx="53.59" cy="92.15" r="0.8"/><path class="cls-4" d="M53.59,94a1.8,1.8,0,1,1,1.8-1.8A1.8,1.8,0,0,1,53.59,94Zm0-2a.2.2,0,0,0-.2.2c0,.22.4.22.4,0A.2.2,0,0,0,53.59,92Z"/><circle class="cls-4" cx="60" cy="92.15" r="0.8"/><path class="cls-4" d="M60,94a1.8,1.8,0,1,1,1.8-1.8A1.8,1.8,0,0,1,60,94Zm0-2a.2.2,0,0,0-.2.2c0,.22.4.22.4,0A.2.2,0,0,0,60,92Z"/><circle class="cls-4" cx="66.42" cy="92.15" r="0.8"/><path class="cls-4" d="M66.42,94a1.8,1.8,0,1,1,1.8-1.8A1.8,1.8,0,0,1,66.42,94Zm0-2a.2.2,0,0,0-.2.2c0,.22.4.22.4,0A.2.2,0,0,0,66.42,92Z"/><circle class="cls-4" cx="72.83" cy="92.15" r="0.8"/><path class="cls-4" d="M72.83,94a1.8,1.8,0,1,1,1.8-1.8A1.8,1.8,0,0,1,72.83,94Zm0-2a.2.2,0,0,0-.2.2c0,.22.4.22.4,0A.2.2,0,0,0,72.83,92Z"/><circle class="cls-4" cx="79.24" cy="92.15" r="0.8"/><path class="cls-4" d="M79.24,94a1.8,1.8,0,1,1,1.8-1.8A1.8,1.8,0,0,1,79.24,94Zm0-2a.2.2,0,0,0-.2.2c0,.22.4.22.4,0A.2.2,0,0,0,79.24,92Z"/><circle class="cls-4" cx="85.65" cy="92.15" r="0.8"/><path class="cls-4" d="M85.65,94a1.8,1.8,0,1,1,1.8-1.8A1.8,1.8,0,0,1,85.65,94Zm0-2a.2.2,0,0,0-.2.2c0,.22.4.22.4,0A.2.2,0,0,0,85.65,92Z"/><circle class="cls-4" cx="92.06" cy="92.15" r="0.8"/><path class="cls-4" d="M92.06,94a1.8,1.8,0,1,1,1.8-1.8A1.8,1.8,0,0,1,92.06,94Zm0-2a.2.2,0,0,0-.2.2c0,.22.4.22.4,0A.2.2,0,0,0,92.06,92Z"/><circle class="cls-4" cx="98.48" cy="92.15" r="0.8"/><path class="cls-4" d="M98.48,94a1.8,1.8,0,1,1,1.8-1.8A1.8,1.8,0,0,1,98.48,94Zm0-2a.2.2,0,0,0-.2.2c0,.22.4.22.4,0A.2.2,0,0,0,98.48,92Z"/><circle class="cls-4" cx="104.89" cy="92.15" r="0.8"/><path class="cls-4" d="M104.89,94a1.8,1.8,0,1,1,1.8-1.8A1.8,1.8,0,0,1,104.89,94Zm0-2a.2.2,0,0,0-.2.2c0,.22.4.22.4,0A.2.2,0,0,0,104.89,92Z"/><circle class="cls-4" cx="111.3" cy="92.15" r="0.8"/><path class="cls-4" d="M111.3,94a1.8,1.8,0,1,1,1.8-1.8A1.8,1.8,0,0,1,111.3,94Zm0-2a.2.2,0,0,0-.2.2c0,.22.4.22.4,0A.2.2,0,0,0,111.3,92Z"/><circle class="cls-4" cx="18.33" cy="96.96" r="0.8"/><path class="cls-4" d="M18.33,98.76a1.8,1.8,0,1,1,1.8-1.8A1.8,1.8,0,0,1,18.33,98.76Zm0-2a.2.2,0,0,0-.2.2c0,.22.4.22.4,0A.2.2,0,0,0,18.33,96.76Z"/><circle class="cls-4" cx="24.74" cy="96.96" r="0.8"/><path class="cls-4" d="M24.74,98.76a1.8,1.8,0,1,1,1.8-1.8A1.8,1.8,0,0,1,24.74,98.76Zm0-2a.2.2,0,0,0-.2.2c0,.22.4.22.4,0A.2.2,0,0,0,24.74,96.76Z"/><circle class="cls-4" cx="31.15" cy="96.96" r="0.8"/><path class="cls-4" d="M31.15,98.76A1.8,1.8,0,1,1,33,97,1.8,1.8,0,0,1,31.15,98.76Zm0-2a.2.2,0,0,0-.2.2c0,.22.4.22.4,0A.2.2,0,0,0,31.15,96.76Z"/><circle class="cls-4" cx="37.56" cy="96.96" r="0.8"/><path class="cls-4" d="M37.56,98.76a1.8,1.8,0,1,1,1.8-1.8A1.8,1.8,0,0,1,37.56,98.76Zm0-2a.2.2,0,0,0-.2.2c0,.22.4.22.4,0A.2.2,0,0,0,37.56,96.76Z"/><circle class="cls-4" cx="43.97" cy="96.96" r="0.8"/><path class="cls-4" d="M44,98.76a1.8,1.8,0,1,1,1.8-1.8A1.8,1.8,0,0,1,44,98.76Zm0-2a.2.2,0,0,0-.2.2c0,.22.4.22.4,0A.2.2,0,0,0,44,96.76Z"/><circle class="cls-4" cx="50.39" cy="96.96" r="0.8"/><path class="cls-4" d="M50.39,98.76a1.8,1.8,0,1,1,1.8-1.8A1.8,1.8,0,0,1,50.39,98.76Zm0-2a.2.2,0,0,0-.2.2c0,.22.4.22.4,0A.2.2,0,0,0,50.39,96.76Z"/><circle class="cls-4" cx="56.8" cy="96.96" r="0.8"/><path class="cls-4" d="M56.8,98.76A1.8,1.8,0,1,1,58.6,97,1.8,1.8,0,0,1,56.8,98.76Zm0-2a.2.2,0,0,0-.2.2c0,.22.4.22.4,0A.2.2,0,0,0,56.8,96.76Z"/><circle class="cls-4" cx="63.21" cy="96.96" r="0.8"/><path class="cls-4" d="M63.21,98.76A1.8,1.8,0,1,1,65,97,1.8,1.8,0,0,1,63.21,98.76Zm0-2a.2.2,0,0,0-.2.2c0,.22.4.22.4,0A.2.2,0,0,0,63.21,96.76Z"/><circle class="cls-4" cx="69.62" cy="96.96" r="0.8"/><path class="cls-4" d="M69.62,98.76a1.8,1.8,0,1,1,1.8-1.8A1.8,1.8,0,0,1,69.62,98.76Zm0-2a.2.2,0,0,0-.2.2c0,.22.4.22.4,0A.2.2,0,0,0,69.62,96.76Z"/><circle class="cls-4" cx="76.03" cy="96.96" r="0.8"/><path class="cls-4" d="M76,98.76a1.8,1.8,0,1,1,1.8-1.8A1.8,1.8,0,0,1,76,98.76Zm0-2a.2.2,0,0,0-.2.2c0,.22.4.22.4,0A.2.2,0,0,0,76,96.76Z"/><circle class="cls-4" cx="82.45" cy="96.96" r="0.8"/><path class="cls-4" d="M82.45,98.76a1.8,1.8,0,1,1,1.8-1.8A1.8,1.8,0,0,1,82.45,98.76Zm0-2a.2.2,0,0,0-.2.2c0,.22.4.22.4,0A.2.2,0,0,0,82.45,96.76Z"/><circle class="cls-4" cx="88.86" cy="96.96" r="0.8"/><path class="cls-4" d="M88.86,98.76a1.8,1.8,0,1,1,1.8-1.8A1.8,1.8,0,0,1,88.86,98.76Zm0-2a.2.2,0,0,0-.2.2c0,.22.4.22.4,0A.2.2,0,0,0,88.86,96.76Z"/><circle class="cls-4" cx="95.27" cy="96.96" r="0.8"/><path class="cls-4" d="M95.27,98.76a1.8,1.8,0,1,1,1.8-1.8A1.8,1.8,0,0,1,95.27,98.76Zm0-2a.2.2,0,0,0-.2.2c0,.22.4.22.4,0A.2.2,0,0,0,95.27,96.76Z"/><circle class="cls-4" cx="101.68" cy="96.96" r="0.8"/><path class="cls-4" d="M101.68,98.76a1.8,1.8,0,1,1,1.8-1.8A1.8,1.8,0,0,1,101.68,98.76Zm0-2a.2.2,0,0,0-.2.2c0,.22.4.22.4,0A.2.2,0,0,0,101.68,96.76Z"/><circle class="cls-4" cx="108.09" cy="96.96" r="0.8"/><path class="cls-4" d="M108.09,98.76a1.8,1.8,0,1,1,1.8-1.8A1.8,1.8,0,0,1,108.09,98.76Zm0-2a.2.2,0,0,0-.2.2c0,.22.4.22.4,0A.2.2,0,0,0,108.09,96.76Z"/><circle class="cls-4" cx="114.51" cy="96.96" r="0.8"/><path class="cls-4" d="M114.51,98.76a1.8,1.8,0,1,1,1.8-1.8A1.8,1.8,0,0,1,114.51,98.76Zm0-2a.2.2,0,0,0-.2.2c0,.22.4.22.4,0A.2.2,0,0,0,114.51,96.76Z"/><circle class="cls-4" cx="15.12" cy="101.77" r="0.8"/><path class="cls-4" d="M15.12,103.57a1.8,1.8,0,1,1,1.8-1.8A1.8,1.8,0,0,1,15.12,103.57Zm0-2a.2.2,0,0,0-.2.2c0,.22.4.22.4,0A.2.2,0,0,0,15.12,101.57Z"/><circle class="cls-4" cx="21.53" cy="101.77" r="0.8"/><path class="cls-4" d="M21.53,103.57a1.8,1.8,0,1,1,1.8-1.8A1.8,1.8,0,0,1,21.53,103.57Zm0-2a.2.2,0,0,0-.2.2c0,.22.4.22.4,0A.2.2,0,0,0,21.53,101.57Z"/><circle class="cls-4" cx="27.94" cy="101.77" r="0.8"/><path class="cls-4" d="M27.94,103.57a1.8,1.8,0,1,1,1.8-1.8A1.8,1.8,0,0,1,27.94,103.57Zm0-2a.2.2,0,0,0-.2.2c0,.22.4.22.4,0A.2.2,0,0,0,27.94,101.57Z"/><circle class="cls-4" cx="34.36" cy="101.77" r="0.8"/><path class="cls-4" d="M34.36,103.57a1.8,1.8,0,1,1,1.8-1.8A1.8,1.8,0,0,1,34.36,103.57Zm0-2a.2.2,0,0,0-.2.2c0,.22.4.22.4,0A.2.2,0,0,0,34.36,101.57Z"/><circle class="cls-4" cx="40.77" cy="101.77" r="0.8"/><path class="cls-4" d="M40.77,103.57a1.8,1.8,0,1,1,1.8-1.8A1.8,1.8,0,0,1,40.77,103.57Zm0-2a.2.2,0,0,0-.2.2c0,.22.4.22.4,0A.2.2,0,0,0,40.77,101.57Z"/><circle class="cls-4" cx="47.18" cy="101.77" r="0.8"/><path class="cls-4" d="M47.18,103.57a1.8,1.8,0,1,1,1.8-1.8A1.8,1.8,0,0,1,47.18,103.57Zm0-2a.2.2,0,0,0-.2.2c0,.22.4.22.4,0A.2.2,0,0,0,47.18,101.57Z"/><circle class="cls-4" cx="53.59" cy="101.77" r="0.8"/><path class="cls-4" d="M53.59,103.57a1.8,1.8,0,1,1,1.8-1.8A1.8,1.8,0,0,1,53.59,103.57Zm0-2a.2.2,0,0,0-.2.2c0,.22.4.22.4,0A.2.2,0,0,0,53.59,101.57Z"/><circle class="cls-4" cx="60" cy="101.77" r="0.8"/><path class="cls-4" d="M60,103.57a1.8,1.8,0,1,1,1.8-1.8A1.8,1.8,0,0,1,60,103.57Zm0-2a.2.2,0,0,0-.2.2c0,.22.4.22.4,0A.2.2,0,0,0,60,101.57Z"/><circle class="cls-4" cx="66.42" cy="101.77" r="0.8"/><path class="cls-4" d="M66.42,103.57a1.8,1.8,0,1,1,1.8-1.8A1.8,1.8,0,0,1,66.42,103.57Zm0-2a.2.2,0,0,0-.2.2c0,.22.4.22.4,0A.2.2,0,0,0,66.42,101.57Z"/><circle class="cls-4" cx="72.83" cy="101.77" r="0.8"/><path class="cls-4" d="M72.83,103.57a1.8,1.8,0,1,1,1.8-1.8A1.8,1.8,0,0,1,72.83,103.57Zm0-2a.2.2,0,0,0-.2.2c0,.22.4.22.4,0A.2.2,0,0,0,72.83,101.57Z"/><circle class="cls-4" cx="79.24" cy="101.77" r="0.8"/><path class="cls-4" d="M79.24,103.57a1.8,1.8,0,1,1,1.8-1.8A1.8,1.8,0,0,1,79.24,103.57Zm0-2a.2.2,0,0,0-.2.2c0,.22.4.22.4,0A.2.2,0,0,0,79.24,101.57Z"/><circle class="cls-4" cx="85.65" cy="101.77" r="0.8"/><path class="cls-4" d="M85.65,103.57a1.8,1.8,0,1,1,1.8-1.8A1.8,1.8,0,0,1,85.65,103.57Zm0-2a.2.2,0,0,0-.2.2c0,.22.4.22.4,0A.2.2,0,0,0,85.65,101.57Z"/><circle class="cls-4" cx="92.06" cy="101.77" r="0.8"/><path class="cls-4" d="M92.06,103.57a1.8,1.8,0,1,1,1.8-1.8A1.8,1.8,0,0,1,92.06,103.57Zm0-2a.2.2,0,0,0-.2.2c0,.22.4.22.4,0A.2.2,0,0,0,92.06,101.57Z"/><circle class="cls-4" cx="98.48" cy="101.77" r="0.8"/><path class="cls-4" d="M98.48,103.57a1.8,1.8,0,1,1,1.8-1.8A1.8,1.8,0,0,1,98.48,103.57Zm0-2a.2.2,0,0,0-.2.2c0,.22.4.22.4,0A.2.2,0,0,0,98.48,101.57Z"/><circle class="cls-4" cx="104.89" cy="101.77" r="0.8"/><path class="cls-4" d="M104.89,103.57a1.8,1.8,0,1,1,1.8-1.8A1.8,1.8,0,0,1,104.89,103.57Zm0-2a.2.2,0,0,0-.2.2c0,.22.4.22.4,0A.2.2,0,0,0,104.89,101.57Z"/><circle class="cls-4" cx="111.3" cy="101.77" r="0.8"/><path class="cls-4" d="M111.3,103.57a1.8,1.8,0,1,1,1.8-1.8A1.8,1.8,0,0,1,111.3,103.57Zm0-2a.2.2,0,0,0-.2.2c0,.22.4.22.4,0A.2.2,0,0,0,111.3,101.57Z"/><circle class="cls-4" cx="18.33" cy="106.58" r="0.8"/><path class="cls-4" d="M18.33,108.38a1.8,1.8,0,1,1,1.8-1.8A1.8,1.8,0,0,1,18.33,108.38Zm0-2a.2.2,0,0,0-.2.2c0,.22.4.22.4,0A.2.2,0,0,0,18.33,106.38Z"/><circle class="cls-4" cx="24.74" cy="106.58" r="0.8"/><path class="cls-4" d="M24.74,108.38a1.8,1.8,0,1,1,1.8-1.8A1.8,1.8,0,0,1,24.74,108.38Zm0-2a.2.2,0,0,0-.2.2c0,.22.4.22.4,0A.2.2,0,0,0,24.74,106.38Z"/><circle class="cls-4" cx="31.15" cy="106.58" r="0.8"/><path class="cls-4" d="M31.15,108.38a1.8,1.8,0,1,1,1.8-1.8A1.8,1.8,0,0,1,31.15,108.38Zm0-2a.2.2,0,0,0-.2.2c0,.22.4.22.4,0A.2.2,0,0,0,31.15,106.38Z"/><circle class="cls-4" cx="37.56" cy="106.58" r="0.8"/><path class="cls-4" d="M37.56,108.38a1.8,1.8,0,1,1,1.8-1.8A1.8,1.8,0,0,1,37.56,108.38Zm0-2a.2.2,0,0,0-.2.2c0,.22.4.22.4,0A.2.2,0,0,0,37.56,106.38Z"/><circle class="cls-4" cx="43.97" cy="106.58" r="0.8"/><path class="cls-4" d="M44,108.38a1.8,1.8,0,1,1,1.8-1.8A1.8,1.8,0,0,1,44,108.38Zm0-2a.2.2,0,0,0-.2.2c0,.22.4.22.4,0A.2.2,0,0,0,44,106.38Z"/><circle class="cls-4" cx="50.39" cy="106.58" r="0.8"/><path class="cls-4" d="M50.39,108.38a1.8,1.8,0,1,1,1.8-1.8A1.8,1.8,0,0,1,50.39,108.38Zm0-2a.2.2,0,0,0-.2.2c0,.22.4.22.4,0A.2.2,0,0,0,50.39,106.38Z"/><circle class="cls-4" cx="56.8" cy="106.58" r="0.8"/><path class="cls-4" d="M56.8,108.38a1.8,1.8,0,1,1,1.8-1.8A1.8,1.8,0,0,1,56.8,108.38Zm0-2a.2.2,0,0,0-.2.2c0,.22.4.22.4,0A.2.2,0,0,0,56.8,106.38Z"/><circle class="cls-4" cx="63.21" cy="106.58" r="0.8"/><path class="cls-4" d="M63.21,108.38a1.8,1.8,0,1,1,1.8-1.8A1.8,1.8,0,0,1,63.21,108.38Zm0-2a.2.2,0,0,0-.2.2c0,.22.4.22.4,0A.2.2,0,0,0,63.21,106.38Z"/><circle class="cls-4" cx="69.62" cy="106.58" r="0.8"/><path class="cls-4" d="M69.62,108.38a1.8,1.8,0,1,1,1.8-1.8A1.8,1.8,0,0,1,69.62,108.38Zm0-2a.2.2,0,0,0-.2.2c0,.22.4.22.4,0A.2.2,0,0,0,69.62,106.38Z"/><circle class="cls-4" cx="76.03" cy="106.58" r="0.8"/><path class="cls-4" d="M76,108.38a1.8,1.8,0,1,1,1.8-1.8A1.8,1.8,0,0,1,76,108.38Zm0-2a.2.2,0,0,0-.2.2c0,.22.4.22.4,0A.2.2,0,0,0,76,106.38Z"/><circle class="cls-4" cx="82.45" cy="106.58" r="0.8"/><path class="cls-4" d="M82.45,108.38a1.8,1.8,0,1,1,1.8-1.8A1.8,1.8,0,0,1,82.45,108.38Zm0-2a.2.2,0,0,0-.2.2c0,.22.4.22.4,0A.2.2,0,0,0,82.45,106.38Z"/><circle class="cls-4" cx="88.86" cy="106.58" r="0.8"/><path class="cls-4" d="M88.86,108.38a1.8,1.8,0,1,1,1.8-1.8A1.8,1.8,0,0,1,88.86,108.38Zm0-2a.2.2,0,0,0-.2.2c0,.22.4.22.4,0A.2.2,0,0,0,88.86,106.38Z"/><circle class="cls-4" cx="95.27" cy="106.58" r="0.8"/><path class="cls-4" d="M95.27,108.38a1.8,1.8,0,1,1,1.8-1.8A1.8,1.8,0,0,1,95.27,108.38Zm0-2a.2.2,0,0,0-.2.2c0,.22.4.22.4,0A.2.2,0,0,0,95.27,106.38Z"/><circle class="cls-4" cx="101.68" cy="106.58" r="0.8"/><path class="cls-4" d="M101.68,108.38a1.8,1.8,0,1,1,1.8-1.8A1.8,1.8,0,0,1,101.68,108.38Zm0-2a.2.2,0,0,0-.2.2c0,.22.4.22.4,0A.2.2,0,0,0,101.68,106.38Z"/><circle class="cls-4" cx="108.09" cy="106.58" r="0.8"/><path class="cls-4" d="M108.09,108.38a1.8,1.8,0,1,1,1.8-1.8A1.8,1.8,0,0,1,108.09,108.38Zm0-2a.2.2,0,0,0-.2.2c0,.22.4.22.4,0A.2.2,0,0,0,108.09,106.38Z"/><circle class="cls-4" cx="114.51" cy="106.58" r="0.8"/><path class="cls-4" d="M114.51,108.38a1.8,1.8,0,1,1,1.8-1.8A1.8,1.8,0,0,1,114.51,108.38Zm0-2a.2.2,0,0,0-.2.2c0,.22.4.22.4,0A.2.2,0,0,0,114.51,106.38Z"/><circle class="cls-4" cx="15.12" cy="111.39" r="0.8"/><path class="cls-4" d="M15.12,113.19a1.8,1.8,0,1,1,1.8-1.8A1.8,1.8,0,0,1,15.12,113.19Zm0-2a.2.2,0,0,0-.2.2c0,.22.4.22.4,0A.2.2,0,0,0,15.12,111.19Z"/><circle class="cls-4" cx="21.53" cy="111.39" r="0.8"/><path class="cls-4" d="M21.53,113.19a1.8,1.8,0,1,1,1.8-1.8A1.8,1.8,0,0,1,21.53,113.19Zm0-2a.2.2,0,0,0-.2.2c0,.22.4.22.4,0A.2.2,0,0,0,21.53,111.19Z"/><circle class="cls-4" cx="27.94" cy="111.39" r="0.8"/><path class="cls-4" d="M27.94,113.19a1.8,1.8,0,1,1,1.8-1.8A1.8,1.8,0,0,1,27.94,113.19Zm0-2a.2.2,0,0,0-.2.2c0,.22.4.22.4,0A.2.2,0,0,0,27.94,111.19Z"/><circle class="cls-4" cx="34.36" cy="111.39" r="0.8"/><path class="cls-4" d="M34.36,113.19a1.8,1.8,0,1,1,1.8-1.8A1.8,1.8,0,0,1,34.36,113.19Zm0-2a.2.2,0,0,0-.2.2c0,.22.4.22.4,0A.2.2,0,0,0,34.36,111.19Z"/><circle class="cls-4" cx="40.77" cy="111.39" r="0.8"/><path class="cls-4" d="M40.77,113.19a1.8,1.8,0,1,1,1.8-1.8A1.8,1.8,0,0,1,40.77,113.19Zm0-2a.2.2,0,0,0-.2.2c0,.22.4.22.4,0A.2.2,0,0,0,40.77,111.19Z"/><circle class="cls-4" cx="47.18" cy="111.39" r="0.8"/><path class="cls-4" d="M47.18,113.19a1.8,1.8,0,1,1,1.8-1.8A1.8,1.8,0,0,1,47.18,113.19Zm0-2a.2.2,0,0,0-.2.2c0,.22.4.22.4,0A.2.2,0,0,0,47.18,111.19Z"/><circle class="cls-4" cx="53.59" cy="111.39" r="0.8"/><path class="cls-4" d="M53.59,113.19a1.8,1.8,0,1,1,1.8-1.8A1.8,1.8,0,0,1,53.59,113.19Zm0-2a.2.2,0,0,0-.2.2c0,.22.4.22.4,0A.2.2,0,0,0,53.59,111.19Z"/><circle class="cls-4" cx="60" cy="111.39" r="0.8"/><path class="cls-4" d="M60,113.19a1.8,1.8,0,1,1,1.8-1.8A1.8,1.8,0,0,1,60,113.19Zm0-2a.2.2,0,0,0-.2.2c0,.22.4.22.4,0A.2.2,0,0,0,60,111.19Z"/><circle class="cls-4" cx="66.42" cy="111.39" r="0.8"/><path class="cls-4" d="M66.42,113.19a1.8,1.8,0,1,1,1.8-1.8A1.8,1.8,0,0,1,66.42,113.19Zm0-2a.2.2,0,0,0-.2.2c0,.22.4.22.4,0A.2.2,0,0,0,66.42,111.19Z"/><circle class="cls-4" cx="72.83" cy="111.39" r="0.8"/><path class="cls-4" d="M72.83,113.19a1.8,1.8,0,1,1,1.8-1.8A1.8,1.8,0,0,1,72.83,113.19Zm0-2a.2.2,0,0,0-.2.2c0,.22.4.22.4,0A.2.2,0,0,0,72.83,111.19Z"/><circle class="cls-4" cx="79.24" cy="111.39" r="0.8"/><path class="cls-4" d="M79.24,113.19a1.8,1.8,0,1,1,1.8-1.8A1.8,1.8,0,0,1,79.24,113.19Zm0-2a.2.2,0,0,0-.2.2c0,.22.4.22.4,0A.2.2,0,0,0,79.24,111.19Z"/><circle class="cls-4" cx="85.65" cy="111.39" r="0.8"/><path class="cls-4" d="M85.65,113.19a1.8,1.8,0,1,1,1.8-1.8A1.8,1.8,0,0,1,85.65,113.19Zm0-2a.2.2,0,0,0-.2.2c0,.22.4.22.4,0A.2.2,0,0,0,85.65,111.19Z"/><circle class="cls-4" cx="92.06" cy="111.39" r="0.8"/><path class="cls-4" d="M92.06,113.19a1.8,1.8,0,1,1,1.8-1.8A1.8,1.8,0,0,1,92.06,113.19Zm0-2a.2.2,0,0,0-.2.2c0,.22.4.22.4,0A.2.2,0,0,0,92.06,111.19Z"/><circle class="cls-4" cx="98.48" cy="111.39" r="0.8"/><path class="cls-4" d="M98.48,113.19a1.8,1.8,0,1,1,1.8-1.8A1.8,1.8,0,0,1,98.48,113.19Zm0-2a.2.2,0,0,0-.2.2c0,.22.4.22.4,0A.2.2,0,0,0,98.48,111.19Z"/><circle class="cls-4" cx="104.89" cy="111.39" r="0.8"/><path class="cls-4" d="M104.89,113.19a1.8,1.8,0,1,1,1.8-1.8A1.8,1.8,0,0,1,104.89,113.19Zm0-2a.2.2,0,0,0-.2.2c0,.22.4.22.4,0A.2.2,0,0,0,104.89,111.19Z"/><circle class="cls-4" cx="111.3" cy="111.39" r="0.8"/><path class="cls-4" d="M111.3,113.19a1.8,1.8,0,1,1,1.8-1.8A1.8,1.8,0,0,1,111.3,113.19Zm0-2a.2.2,0,0,0-.2.2c0,.22.4.22.4,0A.2.2,0,0,0,111.3,111.19Z"/><circle class="cls-4" cx="18.33" cy="116.2" r="0.8"/><path class="cls-4" d="M18.33,118a1.8,1.8,0,1,1,1.8-1.8A1.8,1.8,0,0,1,18.33,118Zm0-2a.2.2,0,0,0-.2.2c0,.22.4.22.4,0A.2.2,0,0,0,18.33,116Z"/><circle class="cls-4" cx="24.74" cy="116.2" r="0.8"/><path class="cls-4" d="M24.74,118a1.8,1.8,0,1,1,1.8-1.8A1.8,1.8,0,0,1,24.74,118Zm0-2a.2.2,0,0,0-.2.2c0,.22.4.22.4,0A.2.2,0,0,0,24.74,116Z"/><circle class="cls-4" cx="31.15" cy="116.2" r="0.8"/><path class="cls-4" d="M31.15,118a1.8,1.8,0,1,1,1.8-1.8A1.8,1.8,0,0,1,31.15,118Zm0-2a.2.2,0,0,0-.2.2c0,.22.4.22.4,0A.2.2,0,0,0,31.15,116Z"/><circle class="cls-4" cx="37.56" cy="116.2" r="0.8"/><path class="cls-4" d="M37.56,118a1.8,1.8,0,1,1,1.8-1.8A1.8,1.8,0,0,1,37.56,118Zm0-2a.2.2,0,0,0-.2.2c0,.22.4.22.4,0A.2.2,0,0,0,37.56,116Z"/><circle class="cls-4" cx="43.97" cy="116.2" r="0.8"/><path class="cls-4" d="M44,118a1.8,1.8,0,1,1,1.8-1.8A1.8,1.8,0,0,1,44,118Zm0-2a.2.2,0,0,0-.2.2c0,.22.4.22.4,0A.2.2,0,0,0,44,116Z"/><circle class="cls-4" cx="50.39" cy="116.2" r="0.8"/><path class="cls-4" d="M50.39,118a1.8,1.8,0,1,1,1.8-1.8A1.8,1.8,0,0,1,50.39,118Zm0-2a.2.2,0,0,0-.2.2c0,.22.4.22.4,0A.2.2,0,0,0,50.39,116Z"/><circle class="cls-4" cx="56.8" cy="116.2" r="0.8"/><path class="cls-4" d="M56.8,118a1.8,1.8,0,1,1,1.8-1.8A1.8,1.8,0,0,1,56.8,118Zm0-2a.2.2,0,0,0-.2.2c0,.22.4.22.4,0A.2.2,0,0,0,56.8,116Z"/><circle class="cls-4" cx="63.21" cy="116.2" r="0.8"/><path class="cls-4" d="M63.21,118a1.8,1.8,0,1,1,1.8-1.8A1.8,1.8,0,0,1,63.21,118Zm0-2a.2.2,0,0,0-.2.2c0,.22.4.22.4,0A.2.2,0,0,0,63.21,116Z"/><circle class="cls-4" cx="69.62" cy="116.2" r="0.8"/><path class="cls-4" d="M69.62,118a1.8,1.8,0,1,1,1.8-1.8A1.8,1.8,0,0,1,69.62,118Zm0-2a.2.2,0,0,0-.2.2c0,.22.4.22.4,0A.2.2,0,0,0,69.62,116Z"/><circle class="cls-4" cx="76.03" cy="116.2" r="0.8"/><path class="cls-4" d="M76,118a1.8,1.8,0,1,1,1.8-1.8A1.8,1.8,0,0,1,76,118Zm0-2a.2.2,0,0,0-.2.2c0,.22.4.22.4,0A.2.2,0,0,0,76,116Z"/><circle class="cls-4" cx="82.45" cy="116.2" r="0.8"/><path class="cls-4" d="M82.45,118a1.8,1.8,0,1,1,1.8-1.8A1.8,1.8,0,0,1,82.45,118Zm0-2a.2.2,0,0,0-.2.2c0,.22.4.22.4,0A.2.2,0,0,0,82.45,116Z"/><circle class="cls-4" cx="88.86" cy="116.2" r="0.8"/><path class="cls-4" d="M88.86,118a1.8,1.8,0,1,1,1.8-1.8A1.8,1.8,0,0,1,88.86,118Zm0-2a.2.2,0,0,0-.2.2c0,.22.4.22.4,0A.2.2,0,0,0,88.86,116Z"/><circle class="cls-4" cx="95.27" cy="116.2" r="0.8"/><path class="cls-4" d="M95.27,118a1.8,1.8,0,1,1,1.8-1.8A1.8,1.8,0,0,1,95.27,118Zm0-2a.2.2,0,0,0-.2.2c0,.22.4.22.4,0A.2.2,0,0,0,95.27,116Z"/><circle class="cls-4" cx="101.68" cy="116.2" r="0.8"/><path class="cls-4" d="M101.68,118a1.8,1.8,0,1,1,1.8-1.8A1.8,1.8,0,0,1,101.68,118Zm0-2a.2.2,0,0,0-.2.2c0,.22.4.22.4,0A.2.2,0,0,0,101.68,116Z"/><circle class="cls-4" cx="108.09" cy="116.2" r="0.8"/><path class="cls-4" d="M108.09,118a1.8,1.8,0,1,1,1.8-1.8A1.8,1.8,0,0,1,108.09,118Zm0-2a.2.2,0,0,0-.2.2c0,.22.4.22.4,0A.2.2,0,0,0,108.09,116Z"/><circle class="cls-4" cx="114.51" cy="116.2" r="0.8"/><path class="cls-4" d="M114.51,118a1.8,1.8,0,1,1,1.8-1.8A1.8,1.8,0,0,1,114.51,118Zm0-2a.2.2,0,0,0-.2.2c0,.22.4.22.4,0A.2.2,0,0,0,114.51,116Z"/></g></g><g class="cls-11"><path class="cls-12" d="M83.63,81.24S77.8,78.87,78,79c-1.85,4-9,6-14,7.42C59,85,51.36,83,50,79.05l-5.43,2.27A22.12,22.12,0,0,0,31,101.73V113H97V101.56A22.12,22.12,0,0,0,83.63,81.24Z"/><g class="cls-9"><path class="cls-5" d="M83.63,81.24S77.8,78.87,78,79c-1.85,4-8,7.42-14,7.42S51.36,83,50,79.05l-5.43,2.27A22.12,22.12,0,0,0,31,101.73v4C31,97,38,85,49,83c1.33,3.93,9,7.42,15,7.42S77.16,87,79,83c11,3,18,13.72,18,22.56v-4A22.12,22.12,0,0,0,83.63,81.24Z"/></g><path class="cls-4" d="M84,110a1,1,0,0,1-1-1V99a1,1,0,0,1,2,0v10A1,1,0,0,1,84,110Z"/><path class="cls-4" d="M44,110a1,1,0,0,1-1-1V99a1,1,0,0,1,2,0v10A1,1,0,0,1,44,110Z"/><path class="cls-4" d="M97,110a1,1,0,0,1-1-1v-7.44a21.11,21.11,0,0,0-12.76-19.4L77.6,79.73a1,1,0,1,1,.79-1.84L84,80.32a23.1,23.1,0,0,1,14,21.24V109A1,1,0,0,1,97,110Z"/><path class="cls-4" d="M31,110a1,1,0,0,1-1-1v-7.27A23.06,23.06,0,0,1,44.21,80.4l5.41-2.26A1,1,0,0,1,50.39,80L45,82.24a21.07,21.07,0,0,0-13,19.49V109A1,1,0,0,1,31,110Z"/><path class="cls-13" d="M75.62,72.45c-1.3,3,.62,5.38,2.38,6.55-1.85,4-9,6-14,7.42C59,85,51.28,83,50,79c1.72-1,3.71-3.53,2.35-6.55Z"/><g class="cls-9"><path class="cls-14" d="M75.62,72.45H52.35a4.6,4.6,0,0,1,0,3.92l1.44,1.44A10.87,10.87,0,0,0,61.5,81h5a10.87,10.87,0,0,0,7.68-3.18l1.46-1.46A4.57,4.57,0,0,1,75.62,72.45Z"/></g><path class="cls-4" d="M64,87.42c-6.8,0-13.51-3.64-15-8.11a1,1,0,0,1,.44-1.17c1.27-.76,3.11-2.73,2-5.28A1,1,0,1,1,53.27,72a6,6,0,0,1-2,7.33c1.65,3.34,7.25,6.05,12.77,6.05,6,0,10.83-3,12.71-6.13-1.88-1.58-3.34-4.21-2-7.24a1,1,0,0,1,1.83.8c-1.28,2.93,1.46,4.94,2,5.32a1,1,0,0,1,.36,1.25C76.77,84.05,70.5,87.42,64,87.42Z"/><path class="cls-15" d="M66.5,77h-5a10.87,10.87,0,0,1-7.68-3.18l-6.63-6.63A10.87,10.87,0,0,1,44,59.5V39.87A11.88,11.88,0,0,1,55.88,28H72.13A11.88,11.88,0,0,1,84,39.87V59.5a10.87,10.87,0,0,1-3.18,7.68l-6.63,6.63A10.87,10.87,0,0,1,66.5,77Z"/><g class="cls-9"><path class="cls-14" d="M74.18,69.82A10.87,10.87,0,0,1,66.5,73h-5a10.87,10.87,0,0,1-7.68-3.18l-6.63-6.63A10.87,10.87,0,0,1,44,55.5v4a10.87,10.87,0,0,0,3.18,7.68l6.63,6.63A10.87,10.87,0,0,0,61.5,77h5a10.87,10.87,0,0,0,7.68-3.18l6.63-6.63A10.87,10.87,0,0,0,84,59.5v-4a10.87,10.87,0,0,1-3.18,7.68Z"/></g><g class="cls-9"><path class="cls-14" d="M84,45.39V39.87A11.88,11.88,0,0,0,72.13,28H55.88A11.88,11.88,0,0,0,44,39.87v3.49C46,41,48,39,49,36c11,7,25,3.37,31.65,4.08C83.43,40.38,83.93,43.7,84,45.39Z"/></g><path class="cls-4" d="M66.5,78h-5a11.79,11.79,0,0,1-8.39-3.48l-6.63-6.63A11.78,11.78,0,0,1,43,59.5V39.88a1,1,0,0,1,2,0V59.5a9.8,9.8,0,0,0,2.89,7l6.63,6.63a9.8,9.8,0,0,0,7,2.89h5a9.8,9.8,0,0,0,7-2.89l6.63-6.63a9.8,9.8,0,0,0,2.89-7V43a1,1,0,0,1,2,0V59.5a11.78,11.78,0,0,1-3.48,8.39l-6.63,6.63A11.79,11.79,0,0,1,66.5,78Z"/><path class="cls-16" d="M77,22c7.1,3.29,12,7,9.34,20C86,43.82,84,43,84,43s.39-5.88-3.35-6.28C74,36,58,40,47,31c0,4-1,6-3,9,0,0-2.78,0-3-2-1-9,2-13,6-12C57,16,73.45,20.36,77,22Z"/><g class="cls-9"><path class="cls-5" d="M47,29.82c10-10,26.45-5.64,30-4,5.3,2.45,9.37,5.15,10,11.77.76-9.5-3.77-12.71-10-15.58-3.55-1.64-20-6-30,4-3.8-1-6.7,2.63-6.11,10.72C41.34,31.34,43.86,29,47,29.82Z"/></g><path class="cls-4" d="M84.95,44.18a3.71,3.71,0,0,1-1.33-.26,1,1,0,0,1-.61-1s.28-4.93-2.46-5.22a45.68,45.68,0,0,0-6.35.07c-7.66.39-18,.92-26.29-4.84-.28,2.94-1.26,4.89-3.08,7.61A1,1,0,0,1,44,41c-1.27,0-3.74-.62-4-2.89-.64-5.75.28-10,2.59-12a4.86,4.86,0,0,1,4.08-1.15c10.48-10,27.13-5.49,30.74-3.82,7.11,3.29,12.76,7.14,9.9,21.11a2.36,2.36,0,0,1-1.19,1.71A2.51,2.51,0,0,1,84.95,44.18ZM78.6,35.63a20.41,20.41,0,0,1,2.17.1c3.3.36,4.22,3.9,4.26,6.46a.45.45,0,0,0,.18,0c.1-.05.15-.24.17-.34,2.57-12.58-2-15.76-8.78-18.89h0a34.16,34.16,0,0,0-12.17-2.27c-4.84,0-11.62,1-16.7,6.07a1,1,0,0,1-.95.26,3,3,0,0,0-2.84.61c-1.78,1.55-2.48,5.31-1.92,10.31.08.7.93,1,1.5,1.06A12.47,12.47,0,0,0,46,31a1,1,0,0,1,1.63-.77c8,6.51,18.65,6,26.46,5.56C75.75,35.7,77.27,35.63,78.6,35.63Z"/><path class="cls-4" d="M50,28a1,1,0,0,1-.42-.09A9.57,9.57,0,0,0,46.9,27a1,1,0,0,1,.2-2,11,11,0,0,1,3.32,1.09A1,1,0,0,1,50,28Z"/><path class="cls-5" d="M76.58,39.75c-7.17-.08-12.5-2.58-17.58-3.45"/><path class="cls-4" d="M76.58,40.75h0a46.54,46.54,0,0,1-12.37-2.16c-1.88-.52-3.65-1-5.37-1.31a1,1,0,1,1,.34-2,56.21,56.21,0,0,1,5.57,1.35A44.25,44.25,0,0,0,76.6,38.75a1,1,0,0,1,0,2Z"/><path class="cls-4" d="M64.21,60a3.21,3.21,0,0,1-1.88-.86,1,1,0,0,1,1.33-1.5,1.88,1.88,0,0,0,.58.36,3.18,3.18,0,0,0,.52-.36,1,1,0,0,1,1.33,1.5A3.21,3.21,0,0,1,64.21,60Z"/><path class="cls-4" d="M64,66a17.49,17.49,0,0,1-5.37-.62,1,1,0,0,1,.74-1.86A16.16,16.16,0,0,0,64,64a16.15,16.15,0,0,0,4.63-.48,1,1,0,0,1,.74,1.86A17.49,17.49,0,0,1,64,66Z"/><path class="cls-4" d="M78,48a1,1,0,0,1-.45-.11c-1.07-.54-3.19-.32-5.23-.12-1.12.11-2.27.23-3.32.23a1,1,0,0,1,0-2c1,0,2.05-.11,3.12-.22,2.43-.24,4.73-.47,6.32.32A1,1,0,0,1,78,48Z"/><circle class="cls-4" cx="54" cy="52" r="1"/><path class="cls-4" d="M54,54a2,2,0,1,1,2-2A2,2,0,0,1,54,54Zm0-2h0Z"/><path class="cls-4" d="M59,49a1,1,0,0,1-.71-.29c-1.15-1.15-6.14-1.67-7.85-.81a1,1,0,1,1-.89-1.79c2.31-1.15,8.26-.71,10.15,1.19A1,1,0,0,1,59,49Z"/><circle class="cls-4" cx="74" cy="52" r="1"/><path class="cls-4" d="M74,54a2,2,0,1,1,2-2A2,2,0,0,1,74,54Zm0-2h0Z"/><path class="cls-4" d="M77,51H71a1,1,0,0,1,0-2h6a1,1,0,0,1,0,2Z"/><path class="cls-4" d="M57,51H51a1,1,0,0,1,0-2h6a1,1,0,0,1,0,2Z"/><path class="cls-4" d="M66,73a1,1,0,0,1-.75-.34,2.43,2.43,0,0,0-2.49,0,1,1,0,1,1-1.51-1.31,4.19,4.19,0,0,1,5.51,0A1,1,0,0,1,66,73Z"/><path class="cls-15" d="M84,57.14V49c0-2.7,2-3.57,3.24-2.7,2,1.38-.54,6.68-.54,6.68C89,55,86.56,58,84,57.14Z"/><path class="cls-4" d="M84.93,58.29a3.89,3.89,0,0,1-1.25-.21,1,1,0,0,1-.68-.95V49a3.94,3.94,0,0,1,1.9-3.7,2.82,2.82,0,0,1,2.92.17c2.19,1.53.8,5.57.07,7.3a3.16,3.16,0,0,1,.29,3.62A3.81,3.81,0,0,1,84.93,58.29ZM86.22,47a.87.87,0,0,0-.4.1A2.09,2.09,0,0,0,85,49v7.26a1.77,1.77,0,0,0,1.45-.86,1.24,1.24,0,0,0-.4-1.67,1,1,0,0,1-.25-1.18c1-2.15,1.62-4.91.87-5.43A.78.78,0,0,0,86.22,47Z"/><path class="cls-15" d="M44,57.14V49c0-2.7-2-3.57-3.24-2.7-2,1.38.54,6.68.54,6.68C39,55,41.44,58,44,57.14Z"/><path class="cls-4" d="M43.08,58.29a3.81,3.81,0,0,1-3.26-1.87,3.16,3.16,0,0,1,.29-3.62c-.73-1.73-2.12-5.77.07-7.3a2.81,2.81,0,0,1,2.92-.17A3.94,3.94,0,0,1,45,49v8.11a1,1,0,0,1-.68.95A3.88,3.88,0,0,1,43.08,58.29ZM44,57.13h0ZM41.78,47a.78.78,0,0,0-.45.14c-.75.52-.14,3.28.87,5.43A1,1,0,0,1,42,53.75a1.24,1.24,0,0,0-.4,1.67,1.77,1.77,0,0,0,1.45.86V49a2.09,2.09,0,0,0-.82-1.92A.87.87,0,0,0,41.78,47Z"/></g><path class="cls-17" d="M73,10.23a9,9,0,1,0-16.46,5,14.39,14.39,0,0,1,2.62,8v1.47h9.69V23.35a14,14,0,0,1,2.56-8A8.93,8.93,0,0,0,73,10.23Z"/><g class="cls-18"><path class="cls-5" d="M62.18,15.26A13.58,13.58,0,0,1,61.28,9c.29-3.62,2-6.58,4.1-7.48a3.52,3.52,0,0,0-2-.23C60.87,1.75,58.84,5,58.51,9a13.58,13.58,0,0,0,.9,6.25,21.05,21.05,0,0,1,1.61,8v1.47h2.77V23.3A21.05,21.05,0,0,0,62.18,15.26Z"/></g><g class="cls-3"><path class="cls-19" d="M59.13,20.62c0,.2,0,.4,0,.61v1.47h9.69V21.27c0-.22,0-.44,0-.66Z"/></g><g class="cls-3"><path class="cls-4" d="M66,16H62a1,1,0,0,1,0-2h4a1,1,0,0,1,0,2Z"/><path class="cls-4" d="M66,23.69a1,1,0,0,1-1-1V15a1,1,0,0,1,2,0v7.69A1,1,0,0,1,66,23.69Z"/><path class="cls-4" d="M62,23.69a1,1,0,0,1-1-1V15a1,1,0,0,1,2,0v7.69A1,1,0,0,1,62,23.69Z"/><path class="cls-4" d="M62,16H60.5A2.5,2.5,0,1,1,63,13.5V15A1,1,0,0,1,62,16Zm-1.5-3a.5.5,0,0,0,0,1H61v-.5A.5.5,0,0,0,60.5,13Z"/><path class="cls-4" d="M67.5,16H66a1,1,0,0,1-1-1V13.5A2.5,2.5,0,1,1,67.5,16ZM67,14h.5a.5.5,0,1,0-.5-.5Z"/></g><path class="cls-4" d="M68.85,25.77H59.15a1,1,0,0,1-1-1V23.3a13.41,13.41,0,0,0-2.44-7.48A10,10,0,1,1,74,10.23a9.92,9.92,0,0,1-1.78,5.68,13,13,0,0,0-2.38,7.43v1.42A1,1,0,0,1,68.85,25.77Zm-8.69-2h7.69v-.42a15,15,0,0,1,2.73-8.58A7.93,7.93,0,0,0,72,10.23a8,8,0,0,0-2.67-6,7.93,7.93,0,0,0-6.26-2,8,8,0,0,0-5.7,12.41,15.4,15.4,0,0,1,2.79,8.6Z"/><rect class="cls-20" height="3" width="10" x="59" y="23"/><path class="cls-4" d="M69,27H59a1,1,0,0,1-1-1V23a1,1,0,0,1,1-1H69a1,1,0,0,1,1,1v3A1,1,0,0,1,69,27Zm-9-2h8V24H60Z"/><polygon class="cls-20" points="67 29 61 29 59 26 69 26 67 29"/><path class="cls-4" d="M67,30H61a1,1,0,0,1-.83-.45l-2-3A1,1,0,0,1,59,25H69a1,1,0,0,1,.83,1.55l-2,3A1,1,0,0,1,67,30Zm-5.46-2h4.93l.67-1H60.87Z"/><path class="cls-21" d="M65,32H63a2,2,0,0,1-2-2V29h6v1A2,2,0,0,1,65,32Z"/><path class="cls-4" d="M65,33H63a3,3,0,0,1-3-3V29a1,1,0,0,1,1-1h6a1,1,0,0,1,1,1v1A3,3,0,0,1,65,33Zm-3-3a1,1,0,0,0,1,1h2a1,1,0,0,0,1-1Z"/></svg>