<?xml version="1.0" encoding="UTF-8"?>
<svg width="95px" height="95px" viewBox="0 0 95 95" version="1.1" xmlns="http://www.w3.org/2000/svg" xmlns:xlink="http://www.w3.org/1999/xlink">
    <!-- Generator: Sketch 53 (72520) - https://sketchapp.com -->
    <title>facebook</title>
    <desc>Created with Sketch.</desc>
    <g id="Page-1" stroke="none" stroke-width="1" fill="none" fill-rule="evenodd">
        <g id="bundle-copy" transform="translate(-202.000000, -3031.000000)" fill="#475993" fill-rule="nonzero">
            <g id="facebook" transform="translate(202.000000, 3031.000000)">
                <path d="M82.155489,2.27373675e-13 L12.7952689,2.27373675e-13 C5.72903423,2.27373675e-13 0.000464547677,5.72833741 0.000464547677,12.7948044 L0.000464547677,82.155489 C0.000464547677,89.221956 5.72880196,94.9502934 12.7952689,94.9502934 L47.0033985,94.9502934 L47.0616993,61.0201956 L38.2466748,61.0201956 C37.1011002,61.0201956 36.1713081,60.0938875 36.1668949,58.948313 L36.124621,48.0112347 C36.1202078,46.8593888 37.0527873,45.9233252 38.2046333,45.9233252 L47.0036308,45.9233252 L47.0036308,35.3553301 C47.0036308,23.0912714 54.4937653,16.4133985 65.4340954,16.4133985 L74.4114792,16.4133985 C75.5600733,16.4133985 76.4914914,17.3445844 76.4914914,18.4934108 L76.4914914,27.7156112 C76.4914914,28.8639731 75.5607702,29.7949267 74.4126406,29.7956235 L68.9033374,29.7981785 C62.953643,29.7981785 61.8015648,32.6254156 61.8015648,36.7745232 L61.8015648,45.9235575 L74.8750978,45.9235575 C76.1207824,45.9235575 77.0872738,47.0112958 76.9404768,48.2483863 L75.6441565,59.1854645 C75.5201222,60.2320905 74.6326039,61.0206601 73.5787775,61.0206601 L61.8598655,61.0206601 L61.8015648,94.9507579 L82.1559535,94.9507579 C89.2221883,94.9507579 94.9505257,89.2224205 94.9505257,82.1561858 L94.9505257,12.7948044 C94.9502934,5.72833741 89.221956,2.27373675e-13 82.155489,2.27373675e-13 Z" id="Path"></path>
            </g>
        </g>
    </g>
</svg>