<?xml version="1.0" encoding="UTF-8"?>
<svg width="309px" height="239px" viewBox="0 0 309 239" version="1.1" xmlns="http://www.w3.org/2000/svg" xmlns:xlink="http://www.w3.org/1999/xlink">
    <!-- Generator: Sketch 53 (72520) - https://sketchapp.com -->
    <title>Group 329</title>
    <desc>Created with Sketch.</desc>
    <defs>
        <polygon id="path-1" points="0 0.102875062 1.7728172 0.102875062 1.7728172 5.76239071 0 5.76239071"></polygon>
        <polygon id="path-3" points="0.141276707 0.483065761 67.6338365 0.483065761 67.6338365 27.9266304 0.141276707 27.9266304"></polygon>
        <polygon id="path-5" points="0.016571697 0.552752446 0.846504202 0.552752446 0.846504202 1.57304864 0.016571697 1.57304864"></polygon>
        <polygon id="path-7" points="0.255767793 0.0649456522 103.965002 0.0649456522 103.965002 99.3138098 0.255767793 99.3138098"></polygon>
    </defs>
    <g id="Page-1" stroke="none" stroke-width="1" fill="none" fill-rule="evenodd">
        <g id="bundle-copy" transform="translate(-943.000000, -2143.000000)">
            <g id="Group-329" transform="translate(943.000000, 2143.000000)">
                <path d="M87.8481807,16.0211182 C87.0042731,16.4107921 85.2768592,15.3443845 85.3463193,16.8855448 C85.3943571,17.9539008 87.141895,17.5687731 88.1221261,17.5116209 C89.0328971,17.4590149 90.7499244,18.1565312 90.642813,16.6614823 C90.5597206,15.5171399 88.8310084,16.3133736 87.8481807,16.0211182 M110.66095,17.5661753 C111.624952,17.3109389 113.334838,18.0987296 113.378332,16.8576182 C113.430914,15.3924443 111.723624,16.1471128 110.823889,16.1172378 C109.882607,16.0873628 108.167527,15.5119443 108.121437,16.726428 C108.068206,18.1474389 109.775496,17.2719715 110.66095,17.5661753 M133.301042,15.9483791 C132.640197,16.6549878 130.877729,15.2216372 130.839429,16.8634633 C130.812813,18.0045584 132.404553,17.4921372 133.277672,17.5012296 C134.273483,17.5122704 136.024267,17.9461073 136.05283,16.8719062 C136.093078,15.3586726 134.355277,16.3958546 133.301042,15.9483791 M39.7941366,75.3307867 C40.7782626,75.072303 42.6803004,75.5178302 42.5400819,74.6579497 C42.288208,73.1070476 40.4822458,74.040966 39.3624454,73.9156209 C38.6490189,73.8363872 37.1936029,73.4824334 37.2572206,74.4858437 C37.3584895,76.0705177 38.9352983,75.0015122 39.7941366,75.3307867 M65.1464181,15.9678628 C64.4407815,16.6770693 62.5789916,15.1099307 62.4634412,16.9375014 C62.4037185,17.8896046 64.1045168,17.562928 64.9808824,17.5148682 C66.0188887,17.4570666 67.7651282,18.0558655 67.8670462,16.6030312 C67.9339097,15.6470312 66.2279181,16.3036318 65.1464181,15.9678628 M31.1382416,17.5934524 C32.0444685,17.3050937 33.7679874,18.1318519 33.786813,16.8407323 C33.8075861,15.3976399 32.0847164,16.1029497 31.1784895,16.121784 C30.1781345,16.143216 28.3871029,15.3742595 28.3429601,16.9219144 C28.3137479,17.9487052 30.1300966,17.3817296 31.1382416,17.5934524 M76.619666,16.0029334 C75.6381366,16.3088274 73.8841071,15.4937595 73.8049097,16.6660285 C73.7023424,18.1734171 75.4330021,17.5233111 76.3476681,17.4966834 C77.392166,17.4668084 79.2279895,18.1954986 79.2987479,16.7524062 C79.3617164,15.4775231 77.5401744,16.3406508 76.619666,16.0029334 M42.345334,16.0107269 C41.4053508,16.3114253 39.5818613,15.5489633 39.6428824,16.7394171 C39.7175357,18.1941997 41.5605,17.4856427 42.6166828,17.5408465 C43.5469286,17.5889062 45.2762899,18.0227432 45.1659328,16.6523899 C45.0737521,15.5125937 43.333355,16.278303 42.345334,16.0107269 M53.7874223,15.9295448 C53.0343971,16.6458954 51.0797773,15.1579905 51.0934097,16.8673601 C51.1018487,17.9616943 53.0824349,17.4232948 54.1775672,17.5187649 C55.0493887,17.5947514 56.6223025,17.921428 56.5775105,16.8556698 C56.514542,15.3502296 54.8591849,16.3594851 53.7874223,15.9295448 M1.75597689,52.7939959 C1.60667017,52.9998736 1.31714496,53.2154932 1.3164958,53.4304633 C1.31454832,55.1664606 1.82543697,56.7524334 2.92446429,58.1078492 C3.04261134,58.2539769 3.63204832,58.2760584 3.7047542,58.1624035 C4.42661975,57.0446889 3.44833613,56.1471399 3.12894958,55.2275095 C2.84916176,54.4234823 3.0095042,53.2505639 1.75597689,52.7939959 M51.2829643,73.7480611 C50.4857962,74.3260774 48.5506513,73.1115937 48.5104034,74.4955856 C48.4759979,75.7100693 50.4020546,75.0930856 51.4387626,75.1210122 C52.3813424,75.1469905 54.1087563,75.6912351 54.1145987,74.4812976 C54.119792,73.2830503 52.4118529,74.0175856 51.2829643,73.7480611 M122.236116,15.9944905 C121.25134,16.4237812 119.424605,15.3469823 119.282439,16.7530557 C119.160397,17.9610448 120.975447,17.547341 121.906342,17.5278573 C122.956683,17.5070747 124.810034,18.1019769 124.88988,16.7770856 C124.969078,15.4534932 123.176748,16.352341 122.236116,15.9944905 M99.3168845,17.6583981 C100.18546,17.2433954 101.955069,18.1454905 102.127097,16.7062948 C102.253683,15.6450829 100.591185,16.0516427 99.7667521,16.1023003 C98.6209853,16.173091 96.7345273,15.3599715 96.513813,16.8134552 C96.3437332,17.9311698 98.2204538,17.3323709 99.3168845,17.6583981 M2.56742647,36.1873927 C2.7407521,36.1159524 3.03547059,36.0886753 3.09843908,35.9535883 C3.80926891,34.4338601 4.49478151,32.9004932 5.13680042,31.3502405 C5.16471429,31.282697 4.59085714,30.8170367 4.50062395,30.871591 C2.8952521,31.8470747 2.72387395,33.6629552 2.07796008,35.1943736 C1.9344958,35.5359878 1.98707773,36.0458111 2.56742647,36.1873927 M28.3948929,73.7629986 C27.6003214,74.2721726 25.6203845,73.3739742 25.7865693,74.3793329 C26.0553214,75.9932323 28.1021218,75.1365992 29.3621408,75.4022269 C30.1145168,75.5600448 31.5653887,75.7165639 31.3368845,74.5702731 C31.066834,73.2142079 29.4835336,74.1526726 28.3948929,73.7629986 M10.7734538,66.8618736 C9.88540336,65.8233927 8.961,64.7862106 8.09307353,63.7029171 C7.66332983,63.1684144 7.23748109,62.6845693 6.50782563,62.9664334 C6.31502521,63.0411209 6.07938025,63.5814687 6.16377101,63.7107106 C7.16931933,65.2408302 8.37415966,66.6001427 9.93214286,67.5905639 C10.0528866,67.6678492 10.4365399,67.3606562 10.6780273,67.2008899 C10.7442416,67.1573764 10.7371008,67.0028057 10.7734538,66.8618736 M0,44.7524253 C0.389495798,45.5915231 -0.490115546,47.5730149 0.777693277,47.2210095 C2.19156303,46.8287378 1.12953782,44.5946073 1.64951471,43.2411399 C1.91502101,42.5494687 1.79297899,41.3570666 0.879611345,41.6480231 C-0.539451681,42.1006943 0.293420168,43.6639361 0,44.7524253 M22.8225063,17.824659 C22.463521,17.6181318 22.2311218,17.3817296 21.9747038,17.3531535 C20.2641681,17.1635122 18.8918445,18.1363981 17.4325336,18.7774117 C17.2410315,18.861841 17.210521,19.3106155 17.104708,19.5911807 C17.4812206,19.7152269 17.909666,20.0237187 18.2238592,19.9334443 C19.5617773,19.5502649 20.873729,19.0683682 22.1759433,18.5708845 C22.4102899,18.4806101 22.5524559,18.1474389 22.8225063,17.824659 M20.4219139,72.5011046 C20.3784202,72.6335937 20.0746134,72.1822215 19.7266639,72.099091 C18.1115546,71.7133139 16.9554013,70.105909 15.1273676,70.3923193 C15.0020798,70.411803 14.7898046,71.0339823 14.893021,71.1742649 C15.8888319,72.5303302 17.5539265,72.7608872 18.9340399,73.4772378 C19.4338929,73.7357215 19.9447815,73.861716 20.4219139,72.5011046 M8.52411555,26.7384497 C9.04409244,26.8033954 12.7936387,23.4567459 12.7215819,22.9352323 C12.6592626,22.4903546 12.254187,21.9967677 11.8731303,22.1942024 C10.2385462,23.0378465 8.81169328,24.1750448 7.94052101,25.8421997 C7.75096639,26.2052459 7.94052101,26.6903899 8.52411555,26.7384497" id="Fill-1" fill="#009CF3"></path>
                <path d="M258.554971,70.0484321 C259.542992,69.721106 261.372324,70.5212364 261.307408,69.3794918 C261.233404,68.0610951 259.399528,68.7202935 258.353732,68.6949647 C257.397519,68.6715842 255.56624,68.1695543 255.645437,69.2911658 C255.739566,70.6394375 257.580582,69.6581087 258.554971,70.0484321" id="Fill-3" fill="#0087F9"></path>
                <path d="M294.697455,73.6451872 C294.589694,72.9652062 290.556465,70.6544399 289.839793,70.8843476 C289.40161,71.0239807 288.974463,71.542247 289.336694,71.7805976 C290.820024,72.7560812 292.382551,73.6244046 293.971694,74.4186899 C294.382612,74.6245677 294.68577,74.1316302 294.697455,73.6451872 M299.255205,77.2983802 C298.647591,77.4022932 298.525549,77.9816084 298.706016,78.2374943 C299.662228,79.6000541 300.676864,80.9275432 301.764207,82.1868394 C302.03945,82.506372 302.708085,82.2563312 302.761965,81.819247 C302.92815,80.4768204 301.652551,79.8669807 301.070255,78.8999399 C300.652845,78.2063204 300.169871,77.443209 299.255205,77.2983802 M258.060831,126.069318 C258.188066,126.203755 258.315301,126.338193 258.442537,126.47263 C258.432799,126.37781 258.449028,126.268051 258.406833,126.192065 C258.334127,126.063473 258.225068,125.955663 258.132238,125.838761 C258.109518,125.914098 258.087446,125.990084 258.060831,126.069318" id="Fill-5" fill="#0081F8"></path>
                <polygon id="Fill-7" fill="#0078FA" points="256.637938 182.670817 256.436698 182.53573 256.406188 182.751999"></polygon>
                <path d="M184.439828,36.0921174 C187.468807,36.0927668 190.497786,36.0940658 193.526765,36.0953647 L194.175275,36.0953647 C196.114315,36.0934163 198.053355,36.0921174 199.992395,36.090169 C214.151217,36.1252397 228.309389,36.1752478 242.468859,36.1771962 C244.443603,36.1778457 246.349536,36.2947478 248.098372,37.3104978 C248.285979,37.4144109 248.473586,37.5189734 248.660544,37.6228864 L249.955618,38.9529734 C250.431452,39.982362 250.907935,41.0117505 251.383769,42.0417886 C251.391559,69.3189625 251.3987,96.5967859 251.40649,123.87396 C251.39091,124.259087 251.374681,124.644215 251.358452,125.028693 C251.362347,125.587876 251.365593,126.145759 251.368838,126.704941 L251.212391,134.265914 C248.863731,133.958071 246.398872,134.901082 244.142393,133.607365 C244.14499,106.016503 244.148885,78.4256418 244.149534,50.834131 C244.149534,43.9895087 243.540622,43.3660304 236.830908,43.365381 C181.565349,43.3634326 126.29979,43.3640821 71.0348805,43.3647315 C70.0617901,43.3647315 69.0848048,43.3231663 68.1156095,43.3861636 C64.9171998,43.5965875 63.694183,44.8480902 63.6786032,48.0882288 C63.6409519,55.5537315 63.6584792,63.0198837 63.6688658,70.4853864 C63.6701641,71.4452832 63.5241032,72.4499924 64.2109141,73.284544 C62.4205317,75.3264353 61.063788,77.5943375 60.4354015,80.2765929 C59.0487964,86.1944408 60.3893111,91.5524571 63.6883405,96.5240467 C63.7078153,100.126582 63.7272901,103.728468 63.7467649,107.330354 C62.1848868,116.242196 62.1946242,125.241066 62.2569435,134.242533 C60.3341326,134.239286 58.4113216,134.235389 56.4885107,134.232142 C56.4515086,126.130172 56.387891,118.027552 56.3813994,109.925582 C56.3658195,88.2032098 56.3684162,66.481487 56.3775044,44.7591147 C56.3794519,38.831525 58.9442817,36.2259054 64.8003511,36.2213592 C89.5372292,36.2031745 114.274107,36.2057723 139.010986,36.1934326 C140.30541,36.1927832 141.599185,36.127188 142.893609,36.0914679 C156.742133,36.0914679 170.591305,36.0914679 184.439828,36.0921174" id="Fill-9" fill="#BED1F1"></path>
                <path d="M56.4888353,134.232402 C58.4116462,134.235649 60.3344571,134.239546 62.2572681,134.243442 C62.4727891,134.550635 62.6876609,134.857828 62.9031819,135.165671 C58.8407408,139.013051 57.3236546,143.436499 59.609995,148.854915 C60.004684,149.790133 59.9423647,150.979287 59.8761504,152.037252 C59.6275223,156.011926 59.2886609,159.980105 58.984205,163.951532 C57.1574697,163.748902 57.1152744,162.060315 56.4407975,160.897138 C56.4563773,152.008676 56.4732555,143.120864 56.4888353,134.232402" id="Fill-11" fill="#D7E6FD"></path>
                <path d="M8.52327164,26.7390992 C7.94097542,26.6903899 7.7514208,26.2052459 7.94097542,25.8421997 C8.81149853,24.1750448 10.2390006,23.0378465 11.8729355,22.1942024 C12.2539922,21.9967677 12.6590679,22.4903546 12.7213872,22.9352323 C12.7934439,23.4567459 9.04454685,26.8033954 8.52327164,26.7390992" id="Fill-13" fill="#BBDFFA"></path>
                <path d="M20.421784,72.5010397 C19.9453008,73.8616511 19.4344122,73.7356565 18.9339101,73.4771728 C17.5537966,72.7608223 15.8893513,72.5302652 14.8928912,71.1742 C14.7896748,71.0339174 15.00195,70.411738 15.1272378,70.3922543 C16.9552714,70.105844 18.1114248,71.7132489 19.726534,72.0990261 C20.0744836,72.1821565 20.3789395,72.6335288 20.421784,72.5010397" id="Fill-15" fill="#C0E2FB"></path>
                <path d="M22.8225712,17.8249187 C22.5525208,18.1476986 22.4103548,18.4808698 22.1760082,18.5704948 C20.8737939,19.068628 19.5618422,19.5498753 18.2239242,19.9337041 C17.9097309,20.0239785 17.4806363,19.7154867 17.1047729,19.5914405 C17.2099368,19.3108753 17.2410964,18.8621008 17.4325985,18.7776715 C18.8919095,18.1360084 20.264233,17.1631226 21.9747687,17.3527639 C22.2311868,17.3813399 22.4635859,17.6183916 22.8225712,17.8249187" id="Fill-17" fill="#C4E4FC"></path>
                <g id="Group-21" transform="translate(0.000000, 41.500272)">
                    <mask id="mask-2" fill="white">
                        <use xlink:href="#path-1"></use>
                    </mask>
                    <g id="Clip-20"></g>
                    <path d="M-0.000129831933,3.25234837 C0.293290336,2.16385924 -0.539581513,0.600617391 0.879481513,0.147946196 C1.79284916,-0.143659783 1.91489118,1.04874239 1.64938487,1.74106304 C1.12940798,3.09453043 2.19143319,5.32801141 0.777563445,5.72093261 C-0.490245378,6.07293804 0.390015126,4.0914462 -0.000129831933,3.25234837" id="Fill-19" fill="#C6E5FA" mask="url(#mask-2)"></path>
                </g>
                <path d="M10.7731941,66.8620685 C10.7368412,67.0030005 10.7439819,67.1575712 10.6784168,67.2004353 C10.4362803,67.3608511 10.0532761,67.668044 9.93188319,67.5907587 C8.37454916,66.6003375 7.16905966,65.241025 6.16351134,63.710256 C6.07976975,63.5816636 6.31541471,63.0413158 6.50821513,62.9666283 C7.23787059,62.6841147 7.66371933,63.1686092 8.09281387,63.703112 C8.96074034,64.7864054 9.88579286,65.822938 10.7731941,66.8620685" id="Fill-22" fill="#C3E4FB"></path>
                <path d="M28.3949578,73.7631285 C29.4835985,74.1528024 31.0668989,73.2136883 31.3369494,74.570403 C31.5654536,75.7166937 30.1145817,75.5601747 29.3622057,75.4017073 C28.1021868,75.1367291 26.0553863,75.9933622 25.7866342,74.3794628 C25.6204494,73.3734546 27.6003863,74.2723024 28.3949578,73.7631285" id="Fill-24" fill="#C5E6FA"></path>
                <path d="M2.56736155,36.1872628 C1.98701282,36.0456812 1.93443088,35.5358579 2.07789517,35.1948932 C2.72380903,33.6628253 2.89518718,31.8469448 4.50120819,30.8714611 C4.59079223,30.8169068 5.16464937,31.2825671 5.1367355,31.3501106 C4.4947166,32.9003633 3.80920399,34.4337302 3.09837416,35.9541079 C3.03540567,36.0891948 2.74068718,36.116472 2.56736155,36.1872628" id="Fill-26" fill="#CCE6FB"></path>
                <path d="M99.3168845,17.6587228 C98.2204538,17.3320462 96.3437332,17.9314946 96.513813,16.8131304 C96.7345273,15.3602962 98.6209853,16.1734158 99.7667521,16.102625 C100.591185,16.0513179 102.253683,15.6447582 102.127097,16.7059701 C101.955069,18.1458152 100.18546,17.2430707 99.3168845,17.6587228" id="Fill-28" fill="#CBE7FE"></path>
                <path d="M122.235921,15.9944905 C123.176553,16.352341 124.968883,15.4534932 124.889686,16.7770856 C124.810488,18.1019769 122.956488,17.5070747 121.906148,17.5278573 C120.975902,17.547341 119.160851,17.9610448 119.282244,16.7530557 C119.42441,15.3469823 121.251146,16.4237812 122.235921,15.9944905" id="Fill-30" fill="#CCE7FC"></path>
                <path d="M51.2828994,73.7479312 C52.411788,74.0174557 54.1197271,73.2829204 54.1145338,74.4811677 C54.1093405,75.6911052 52.3812775,75.1468606 51.4386977,75.1208823 C50.4026389,75.0929557 48.475933,75.7099394 48.5103384,74.4954557 C48.5505863,73.1121133 50.4857313,74.326597 51.2828994,73.7479312" id="Fill-32" fill="#CEE6FB"></path>
                <path d="M1.75591197,52.7940609 C3.00943929,53.2506288 2.84974601,54.4235473 3.12888466,55.2275745 C3.44827122,56.1472049 4.42655483,57.0447538 3.70468929,58.1624685 C3.6319834,58.2754739 3.04254643,58.2540418 2.92439937,58.1079141 C1.82537206,56.7524984 1.3144834,55.1665255 1.31643088,53.4298788 C1.31708004,53.2149087 1.60725441,52.9999386 1.75591197,52.7940609" id="Fill-34" fill="#C8E5FC"></path>
                <path d="M53.787617,15.9298046 C54.8587305,16.3590954 56.5147368,15.3498399 56.5777053,16.8559296 C56.6224973,17.9210383 55.0489342,17.5943617 54.177762,17.5183753 C53.0826296,17.4235546 51.1013943,17.9619541 51.0936044,16.8669704 C51.0799721,15.1582503 53.0345918,16.6461552 53.787617,15.9298046" id="Fill-36" fill="#CAE6FC"></path>
                <path d="M42.3455288,16.0109867 C43.3329006,16.2785628 45.0739468,15.5122041 45.1661275,16.6520003 C45.2764847,18.023003 43.5471233,17.589166 42.6168775,17.5404568 C41.5606947,17.4859024 39.7177305,18.1938101 39.6430771,16.7396769 C39.5820561,15.5492231 41.4055456,16.3116851 42.3455288,16.0109867" id="Fill-38" fill="#CAE6FA"></path>
                <path d="M76.6197309,16.0027386 C77.5402393,16.3411054 79.3617813,15.4773283 79.2988128,16.7522114 C79.2280544,18.1953038 77.3915817,17.4666136 76.347733,17.497138 C75.433067,17.5231163 73.7024074,18.1738717 73.8049746,16.6658337 C73.8841721,15.4942141 75.6382015,16.3092821 76.6197309,16.0027386" id="Fill-40" fill="#CAE6FC"></path>
                <path d="M31.1379819,17.5933875 C30.129837,17.3816647 28.3134882,17.9486402 28.3427004,16.9218495 C28.3874924,15.3741946 30.1778748,16.1438005 31.1782298,16.121719 C32.0844567,16.1028848 33.8073265,15.397575 33.7865534,16.8406674 C33.7683769,18.131787 32.0442088,17.3050288 31.1379819,17.5933875" id="Fill-42" fill="#D1E7FE"></path>
                <path d="M65.1466128,15.9678628 C66.2281128,16.3036318 67.9341044,15.6470312 67.8665918,16.6036807 C67.7646737,18.0558655 66.0190834,17.4570666 64.9810771,17.5148682 C64.1047116,17.562928 62.4032641,17.8896046 62.4636359,16.9375014 C62.5791863,15.1099307 64.4409763,16.6770693 65.1466128,15.9678628" id="Fill-44" fill="#D3E8F9"></path>
                <path d="M39.7938769,75.3309815 C38.9356878,75.0017071 37.3582298,76.0707125 37.2576101,74.4860386 C37.1933433,73.4819788 38.6487592,73.8359326 39.3621857,73.9151663 C40.4826353,74.0411609 42.2885975,73.1072424 42.5398223,74.6581446 C42.6800408,75.518025 40.7786521,75.0724978 39.7938769,75.3309815" id="Fill-46" fill="#CFE9FC"></path>
                <path d="M133.300782,15.9481842 C134.355018,16.3956598 136.093467,15.3591272 136.05257,16.8717114 C136.024007,17.9459125 134.273224,17.5120755 133.278062,17.5016842 C132.404293,17.4919424 130.812553,18.0043636 130.839169,16.8632685 C130.878118,15.2214424 132.639938,16.6547929 133.300782,15.9481842" id="Fill-48" fill="#D2E8FC"></path>
                <path d="M110.66069,17.5661103 C109.775885,17.2719065 108.068595,18.1480234 108.121826,16.726363 C108.167268,15.5118793 109.882997,16.0872978 110.823629,16.1178223 C111.724013,16.1470478 113.431303,15.3923793 113.378721,16.8575533 C113.334579,18.0986647 111.624692,17.3108739 110.66069,17.5661103" id="Fill-50" fill="#D1E8FA"></path>
                <path d="M156.001701,15.9944905 C155.016926,16.4237812 153.190191,15.3469823 153.048025,16.7530557 C152.926632,17.9610448 154.741682,17.547341 155.671279,17.5278573 C156.722268,17.5070747 158.575619,18.1019769 158.654817,16.7770856 C158.734014,15.4534932 156.942333,16.352341 156.001701,15.9944905" id="Fill-52" fill="#009CF3"></path>
                <path d="M167.066563,15.9481842 C166.405718,16.6547929 164.643899,15.2214424 164.604949,16.8632685 C164.578334,18.0043636 166.169424,17.4919424 167.043842,17.5016842 C168.039004,17.5120755 169.789787,17.9459125 169.81835,16.8717114 C169.858598,15.3591272 168.120798,16.3956598 167.066563,15.9481842" id="Fill-54" fill="#009CF3"></path>
                <path d="M144.426535,17.5661103 C145.390537,17.3108739 147.100424,18.0986647 147.144567,16.8575533 C147.197149,15.3923793 145.489859,16.1470478 144.589474,16.1178223 C143.648842,16.0872978 141.932464,15.5118793 141.887672,16.726363 C141.834441,18.1480234 143.54173,17.2719065 144.426535,17.5661103" id="Fill-56" fill="#009CF3"></path>
                <path d="M156.001701,15.9944905 C156.942333,16.352341 158.734014,15.4534932 158.654817,16.7770856 C158.575619,18.1019769 156.722268,17.5070747 155.671279,17.5278573 C154.741682,17.547341 152.926632,17.9610448 153.048025,16.7530557 C153.190191,15.3469823 155.016926,16.4237812 156.001701,15.9944905" id="Fill-58" fill="#CCE7FC"></path>
                <path d="M167.066563,15.9481842 C168.120798,16.3956598 169.858598,15.3591272 169.81835,16.8717114 C169.789787,17.9459125 168.039004,17.5120755 167.043842,17.5016842 C166.169424,17.4919424 164.578334,18.0043636 164.604949,16.8632685 C164.643899,15.2214424 166.405718,16.6547929 167.066563,15.9481842" id="Fill-60" fill="#D2E8FC"></path>
                <path d="M144.426535,17.5661103 C143.54173,17.2719065 141.834441,18.1480234 141.887672,16.726363 C141.932464,15.5118793 143.648842,16.0872978 144.589474,16.1178223 C145.489859,16.1470478 147.197149,15.3923793 147.144567,16.8575533 C147.100424,18.0986647 145.390537,17.3108739 144.426535,17.5661103" id="Fill-62" fill="#D1E8FA"></path>
                <path d="M87.8481807,16.0211182 C88.8310084,16.3133736 90.5597206,15.5171399 90.642813,16.6614823 C90.7499244,18.1565312 89.0328971,17.4590149 88.1221261,17.5116209 C87.141895,17.5687731 85.3943571,17.9539008 85.3463193,16.8855448 C85.2768592,15.3443845 87.0042731,16.4107921 87.8481807,16.0211182" id="Fill-64" fill="#D2E8FE"></path>
                <path d="M248.660414,37.6231462 C248.473457,37.5192332 248.285849,37.4146707 248.098891,37.3107576 C248.285849,37.4146707 248.473457,37.5192332 248.660414,37.6231462" id="Fill-66" fill="#008BF6"></path>
                <path d="M246.758571,35.5447554 C246.975391,35.3297853 247.191561,35.1141658 247.407731,34.8991957 C247.191561,35.1141658 246.975391,35.3297853 246.758571,35.5447554" id="Fill-68" fill="#008BF6"></path>
                <path d="M211.037003,210.256808 C211.265507,207.026411 211.493362,203.796014 211.721866,200.565618 C212.700799,197.815819 212.555387,194.882224 213.103927,192.061634 C213.158457,191.986297 213.273358,191.886281 213.255182,191.840169 C213.192213,191.686248 213.081856,191.55246 212.990324,191.410879 L213.002658,191.434259 C213.951081,185.802172 214.918329,184.866305 220.458906,184.168139 C221.091188,184.088256 221.710486,183.899264 222.336276,183.76093 C227.476971,184.481177 232.635194,184.058381 237.787574,184.00058 C239.081999,184.044743 240.381616,184.033702 241.670847,184.14346 C244.815377,184.411036 246.948516,186.27043 247.382803,189.358596 C247.954713,193.420946 248.347455,197.507976 248.816148,201.583965 C249.164747,204.863071 250.424116,208.095417 249.323791,211.448561 L247.278938,211.849925 C247.96445,209.46512 247.76386,207.46999 244.978965,206.60946 C244.929629,205.74893 244.84394,204.8884 244.835501,204.027221 C244.791358,199.581691 244.798499,199.592082 240.252434,199.603123 C234.954642,199.614813 229.65685,199.608319 224.359058,199.605071 C217.230635,199.599226 217.230635,199.596629 216.684043,206.595821 C213.332432,206.588028 211.973091,208.317531 212.354148,211.564813 C211.915965,211.129028 211.476484,210.692593 211.037003,210.256808" id="Fill-70" fill="#004DD7"></path>
                <path d="M263.637956,217.592419 C263.623675,219.751213 263.623675,219.751213 264.942767,219.986965 C265.155042,219.988264 265.367967,219.989563 265.580242,219.990862 C265.79771,220.207781 266.015179,220.425349 266.232647,220.642267 C266.448817,220.643566 266.664988,220.644215 266.881158,220.644215 C272.415244,225.264449 271.644691,228.650066 265.163481,231.634319 C258.769259,234.578305 251.944643,234.909528 245.271282,236.229224 C244.665616,236.349373 244.096952,236.658514 243.51141,236.879979 C239.183462,236.880629 234.856164,236.881278 230.528217,236.881927 C220.329269,237.167039 210.416601,235.633672 200.788914,232.240911 C198.709007,231.507675 196.919922,230.262667 195.33792,228.831264 C192.880851,226.606226 194.976338,224.240256 195.468401,221.942479 C196.305168,221.508642 197.142584,221.074805 197.979351,220.640968 C198.465572,222.558164 200.168967,223.332965 201.530254,224.427949 C199.909303,224.587715 198.290299,225.27549 198.347425,226.952387 C198.406498,228.683188 200.015116,229.367715 201.735389,229.808047 C204.386557,230.486729 206.802729,230.136023 209.195532,228.998824 C210.619139,228.797493 212.043395,228.596811 213.467002,228.396129 C214.590049,232.359112 214.589399,232.357813 218.123425,230.237987 C218.392826,230.076273 218.684948,229.953525 218.967332,229.812593 C221.380908,229.952876 223.69646,229.336542 226.033435,228.887767 C233.355956,229.311862 240.66874,229.958721 248.01528,229.808696 C250.561284,231.586908 250.879372,231.458965 251.415578,228.435745 C253.538979,227.25958 255.843496,227.954498 258.064271,227.807721 C260.071473,227.673933 262.06699,227.994115 263.993046,226.820547 C265.281628,226.035354 266.48582,225.486563 266.17682,223.752514 C265.846397,221.897667 264.342294,221.452139 262.806383,221.356669 C260.059139,221.184563 257.509889,221.98924 255.113191,223.305039 C254.506227,223.255031 253.898614,223.205672 253.291649,223.155664 C253.233874,222.934199 253.176748,222.712735 253.118973,222.49127 C256.669876,220.954006 260.458372,219.926566 263.637956,217.592419" id="Fill-72" fill="#006DF3"></path>
                <path d="M230.909273,210.874571 C232.143975,210.820017 233.019691,210.317987 233.026183,208.954128 C233.032675,207.468171 231.956368,206.745976 230.740492,206.683628 C229.32013,206.611538 228.655391,207.72081 228.688498,209.059989 C228.721605,210.4219 229.684309,210.854438 230.909273,210.874571 M216.684238,206.595951 C217.23083,199.596758 217.23083,199.599356 224.359252,199.604552 C229.656395,199.608449 234.954187,199.614943 240.252628,199.603253 C244.798693,199.592212 244.791553,199.581171 244.835696,204.027351 C244.844135,204.88853 244.929824,205.748411 244.978511,206.60894 C244.938912,208.47418 244.900612,210.340068 244.861013,212.205957 C238.563515,213.738674 232.265368,215.272041 225.96787,216.804758 C222.9707,215.897468 219.820977,216.352087 216.786156,215.780565 C216.745908,215.017454 216.705011,214.254992 216.665412,213.49253 C216.671904,211.194104 216.678395,208.895027 216.684238,206.595951" id="Fill-74" fill="#D8E7FE"></path>
                <path d="M216.786286,215.780371 C219.821107,216.351892 222.97018,215.897922 225.968,216.804564 C224.552832,217.930072 222.755309,217.961246 221.130462,218.46977 C215.227004,220.314876 215.301657,220.280455 216.148811,226.383398 C216.411071,228.272017 216.585046,229.843702 218.966813,229.812528 C218.685078,229.95346 218.392956,230.076208 218.123554,230.237922 C214.589529,232.357748 214.590178,232.359047 213.467781,228.396713 C213.00558,225.963199 212.745267,223.253017 209.085304,225.183202 C206.705485,223.543974 204.117286,223.993398 201.530384,224.427884 C200.168447,223.332901 198.465701,222.558099 197.979481,220.640903 C198.41247,217.024729 201.258386,216.596737 204.020561,216.092759 C208.256977,215.320555 212.527798,215.760887 216.786286,215.780371" id="Fill-76" fill="#FD9001"></path>
                <path d="M216.684173,206.595986 C216.67833,208.895092 216.671839,211.194168 216.665347,213.492595 C215.159946,213.693927 213.857732,213.297758 212.798952,212.18394 C212.644452,211.965073 212.49125,211.746856 212.338049,211.528639 L212.354278,211.564359 C211.973221,208.317076 213.332561,206.587573 216.684173,206.595986" id="Fill-78" fill="#F89F8E"></path>
                <path d="M212.337854,211.528509 C212.491056,211.746726 212.644907,211.964943 212.798757,212.18381 C212.644907,211.965593 212.491056,211.747376 212.337854,211.528509" id="Fill-80" fill="#004DD7"></path>
                <path d="M282.464885,68.5554614 C283.152994,68.8918799 284.438979,68.7619886 284.155296,69.9472467 C283.887193,71.0610647 282.703775,70.3076951 281.968927,70.547994 C280.960133,69.4166408 278.299876,70.966244 278.423217,69.1198391 C278.499168,68.0047223 281.068542,68.9425375 282.464885,68.5554614" id="Fill-82" fill="#B9E0FC"></path>
                <path d="M258.554971,70.0484321 C257.580582,69.6581087 255.739566,70.6394375 255.645437,69.2911658 C255.56624,68.1695543 257.397519,68.6715842 258.353732,68.6949647 C259.399528,68.7202935 261.233404,68.0610951 261.307408,69.3794918 C261.372324,70.5212364 259.542992,69.721106 258.554971,70.0484321" id="Fill-84" fill="#D0E7F9"></path>
                <path d="M272.695746,69.956469 C271.102059,69.9551701 269.508372,69.9733549 267.915334,69.9389337 C267.541418,69.9304908 267.017546,69.9480261 267.018845,69.3264962 C267.020143,68.7147082 267.596597,68.612094 267.902351,68.717306 C269.475265,69.2570043 271.70383,67.2618739 272.710027,69.9434799 L272.695746,69.956469 Z" id="Fill-86" fill="#D8E7FE"></path>
                <path d="M58.9840752,163.951337 C59.2891803,159.98056 59.6273924,156.011731 59.8760206,152.037057 C59.942884,150.979093 60.0045542,149.789938 59.6098651,148.85472 C57.3235248,143.436305 58.8406109,139.013506 62.9037013,135.165476 C67.9028798,135.957163 72.9020584,136.75015 77.9018861,137.543136 C77.6233966,140.197465 77.6740311,142.847897 77.7603693,145.517163 C77.9122727,150.215332 77.8194429,154.921294 77.8278819,159.62271 C77.6733819,159.616864 77.5188819,159.619462 77.3637328,159.631152 C77.3449071,154.980394 77.3371172,150.329636 77.2884303,145.679527 C77.2838861,145.249587 77.5980794,144.664427 76.9495689,144.37347 C76.8385626,144.76834 76.6827643,145.157364 76.6230416,145.559378 C75.0702517,156.022123 71.823155,166.088699 69.4537223,176.359204 C68.4397349,180.752777 66.1410605,184.834612 66.2767349,189.503555 C65.3997202,189.871147 65.1497937,190.662185 64.8479345,191.474006 C63.63855,194.729731 62.3759345,197.965324 61.1327937,201.20871 C58.5244702,203.272033 56.0940164,203.485055 53.9686676,200.519636 C54.9118966,193.686055 55.7856655,186.842082 56.8431466,180.026685 C57.1287769,178.189373 57.1625332,176.373492 57.2443273,174.542025 C58.3784092,171.103152 58.125237,167.435671 58.9840752,163.951337" id="Fill-88" fill="#0059DF"></path>
                <path d="M153.015826,165.44119 L153.015826,165.431449 C146.752085,165.431449 140.487694,165.423006 134.223952,165.446386 C133.624778,165.448335 132.553015,165.017745 132.522505,165.584071 C132.484854,166.26665 133.550125,166.072462 134.153843,166.073112 C146.898146,166.088049 159.642448,166.088049 172.386751,166.071163 C172.826232,166.070514 173.411774,166.334193 173.68507,165.683438 C173.27545,165.602905 172.86583,165.452881 172.455562,165.452231 C165.976299,165.436644 159.495738,165.44119 153.015826,165.44119 M159.771631,151.060924 C159.743717,148.151359 157.070478,145.434682 154.242089,145.441826 C151.379295,145.44962 148.735917,148.21046 148.750847,151.177826 C148.76448,153.99322 151.335152,156.688465 154.053833,156.737824 C157.244452,156.794976 159.801492,154.25625 159.771631,151.060924 M77.8282065,159.623359 C77.8191183,154.921294 77.9125973,150.215332 77.7600447,145.517163 C77.6737065,142.847897 77.6230721,140.197465 77.9015616,137.543136 C77.9281771,137.399606 78.0138662,137.322321 78.1592779,137.310631 L78.3429901,137.155411 L78.2138074,136.933296 C78.2008242,136.046139 78.1871918,135.16028 78.1742086,134.274421 C131.57603,134.26468 184.977851,134.252989 238.380322,134.254938 C240.332994,134.254938 242.268788,134.247144 244.142263,133.60743 C246.399391,134.901147 248.863601,133.958136 251.21291,134.265979 C251.273931,142.919337 251.335601,151.572696 251.397921,160.226055 C249.982753,164.52221 247.032322,166.523835 242.510925,166.177674 C241.181446,154.860894 241.177551,154.951169 230.622864,154.454984 C225.921001,154.234169 222.833597,156.174745 220.914032,160.348152 C219.978593,162.380951 219.490425,164.648854 217.86428,166.330296 C204.829154,166.26665 191.794028,166.196508 178.758902,166.164685 C178.270085,166.163386 177.780618,166.540071 177.291801,166.741402 C161.950211,166.742052 146.60862,166.742052 131.26703,166.742701 C130.279009,165.793196 129.031973,166.106234 127.880364,166.105585 C113.527444,166.09909 99.1745237,166.100389 84.8209544,166.140655 C78.0982569,166.15884 78.0982569,166.199106 77.8282065,159.623359" id="Fill-90" fill="#D8E6FE"></path>
                <path d="M299.25488,77.2983802 C300.169546,77.443209 300.652521,78.2063204 301.07058,78.8999399 C301.652227,79.8669807 302.927825,80.4768204 302.761641,81.819247 C302.70776,82.2563312 302.039126,82.506372 301.763882,82.1868394 C300.67654,80.9275432 299.662552,79.6000541 298.705691,78.2374943 C298.525874,77.9816084 298.647267,77.4022932 299.25488,77.2983802" id="Fill-92" fill="#BAE0FB"></path>
                <path d="M306.392455,87.6941008 C306.670296,88.7117992 306.946838,89.730147 307.224029,90.7478454 C307.090951,91.3550872 307.416829,92.2409459 306.750142,92.5098209 C305.849758,92.874166 305.822493,91.9259595 305.627745,91.3765193 C305.269409,90.3659649 304.924705,89.348916 304.635829,88.3175791 C304.498208,87.8272394 304.334619,87.1141361 305.05259,87.0303562 C305.467403,86.9809976 305.943886,87.4557503 306.392455,87.6941008" id="Fill-94" fill="#C8E2F9"></path>
                <path d="M294.698104,73.6458367 C294.68577,74.1316302 294.382612,74.6245677 293.971694,74.4186899 C292.382551,73.6244046 290.820024,72.7560812 289.336694,71.7805976 C288.974463,71.542247 289.40161,71.0239807 289.839793,70.8843476 C290.556465,70.6550894 294.589694,72.9652062 294.698104,73.6458367" id="Fill-96" fill="#CBE5F9"></path>
                <path d="M266.094506,126.340596 C264.104832,126.516598 262.109964,126.80106 260.141063,126.228889 C260.055374,126.20421 260.025512,125.526827 260.093025,125.503446 C262.045697,124.816971 264.039916,125.175471 266.026993,125.318351 L266.095804,125.389791 C266.089313,125.711922 266.082172,126.034052 266.07633,126.356832 C266.07568,126.356183 266.094506,126.340596 266.094506,126.340596" id="Fill-98" fill="#CDE6FB"></path>
                <path d="M270.940353,126.265129 C270.946196,125.950792 270.951389,125.635156 270.955933,125.32017 L270.971513,125.324716 C273.055315,125.290295 275.139767,125.255873 277.224219,125.222751 C277.224219,125.222102 277.224868,125.220803 277.224868,125.220803 C277.321593,126.189142 276.831477,126.584661 275.916811,126.543746 C274.216013,126.467759 272.515214,126.382031 270.813767,126.300199 L270.940353,126.265129 Z" id="Fill-100" fill="#CBE5FC"></path>
                <path d="M251.368579,126.704616 C251.365333,126.146083 251.362087,125.587551 251.358192,125.029018 L254.481299,125.255679 C254.285253,127.54891 252.320896,126.038923 251.368579,126.704616" id="Fill-102" fill="#CFE8FC"></path>
                <path d="M258.063038,126.06659 C258.087057,125.989954 258.109128,125.914617 258.131849,125.838631 C258.225328,125.955533 258.334387,126.063343 258.406443,126.191935 C258.449288,126.268571 258.43241,126.37768 258.442796,126.4725 C258.315561,126.338063 258.187676,126.203625 258.063038,126.06659" id="Fill-104" fill="#007CF9"></path>
                <path d="M304.533132,95.2985872 C304.316962,95.5759052 304.100143,95.5759052 303.883973,95.2985872 L304.533132,95.2985872 Z" id="Fill-106" fill="#007CF9"></path>
                <path d="M303.883973,93.9990247 C303.883973,93.7827557 303.884622,93.5664867 303.88592,93.3502177 C303.950187,93.501541 304.033279,93.6483182 304.066387,93.8061361 C304.076773,93.8554948 303.948889,93.9334296 303.883973,93.9990247" id="Fill-108" fill="#007CF9"></path>
                <path d="M307.780813,90.7523916 C307.996334,90.7523916 308.211855,90.7523916 308.427376,90.753041 C308.211206,91.0316579 307.995685,91.0310084 307.780813,90.7523916" id="Fill-110" fill="#007CF9"></path>
                <path d="M254.621972,125.077857 C254.58497,124.89536 254.560302,124.710914 254.549916,124.52452 C254.627166,124.650515 254.718048,124.770664 254.773226,124.905751 C254.78621,124.937575 254.675853,125.018757 254.621972,125.077857" id="Fill-112" fill="#007CF9"></path>
                <g id="Group-116" transform="translate(31.808824, 211.008424)">
                    <mask id="mask-4" fill="white">
                        <use xlink:href="#path-3"></use>
                    </mask>
                    <g id="Clip-115"></g>
                    <path d="M27.9904664,27.823237 C23.0510105,28.487631 18.5783004,25.731987 13.7102521,25.8683728 C10.6812731,24.5694598 7.65164496,23.2711962 4.62266597,21.9722832 C3.91962605,21.1624109 3.25034244,20.3213647 2.50835294,19.5485114 C-0.909472689,15.9849435 -0.63812395,12.8298837 3.40094748,9.8332913 C7.27967647,6.95554946 11.6926639,5.33190815 16.3925798,4.43760652 C18.0589727,4.12067174 19.4325945,3.4699163 20.146021,1.82419348 C20.1726366,2.70160924 20.1992521,3.579025 20.2258676,4.4557913 C19.9759412,5.9644788 19.7266639,7.47251685 19.4767374,8.97990543 C17.5714538,11.6218946 17.7993088,12.7266201 20.7666176,13.557275 C23.4340147,14.30415 26.2013824,14.6938239 28.923958,15.2465114 C29.8951008,15.4426473 31.0603424,15.6848946 31.4452941,14.5548402 C31.9419013,13.094862 30.4916786,12.8759951 29.5809076,12.4570957 C29.1161092,12.242775 28.5364097,12.279794 28.0079937,12.2031582 C27.7236618,11.6621609 27.1997899,11.6283891 26.683708,11.5796799 L26.7025336,11.5842261 C25.988458,10.7840957 24.9485042,10.7197995 24.0228025,10.3996174 C23.6027962,10.3522071 23.1840882,10.3034978 22.7647311,10.2560875 L22.8406828,10.3132397 C21.3917584,8.41487826 23.2911996,6.83734837 23.341834,5.0831663 C23.9987836,4.19470978 24.6544349,3.30690272 25.3126828,2.41909565 C28.7863361,2.4392288 32.2593403,2.4587125 35.7323445,2.47884565 C35.8323151,3.87842446 35.6992374,5.32801141 36.6028676,6.55678315 C37.0871408,7.99532935 37.1728298,9.4540087 36.8398109,10.935419 C35.120187,13.4345277 36.2503739,14.8522913 38.7801492,15.2029978 C41.0937542,15.5238293 43.5287521,15.6420304 45.80925,15.2549543 C47.1127626,15.0347886 49.7834055,15.731006 49.6022899,13.5903973 C49.4477899,11.7693212 46.9985105,12.346688 45.4619496,12.183025 C44.731645,11.3900386 43.8001008,11.592669 42.8938739,11.6641092 C41.8539202,11.4030277 40.8146155,11.1412967 39.7746618,10.8795658 C39.7720651,9.3851663 39.7701176,7.89206576 39.767521,6.3976663 C41.2852563,4.70648152 40.4634202,2.29569891 41.5851681,0.483065761 C41.5429727,2.05150326 41.8811849,3.15298152 43.8559286,3.15817717 C50.1832878,3.17636196 55.9815819,5.38516359 61.7454706,7.68748696 C62.7295966,9.02601685 64.0460924,9.86576413 65.6423761,10.285313 L65.6417269,10.2846636 C65.8585462,10.5009326 66.0747164,10.7178511 66.2908866,10.9347696 L66.2902374,10.9347696 C68.6207206,16.641544 68.1500798,18.2418049 63.0457374,21.974881 C62.8289181,22.19115 62.6120987,22.407419 62.3959286,22.623688 C62.1797584,22.6243375 61.9635882,22.624987 61.7480672,22.6256364 C60.8437878,22.6756446 60.1946282,23.1088321 59.7992899,23.9232505 L58.5022689,23.9251989 C57.4830882,24.0492451 56.5853004,24.4187859 55.9043319,25.2221636 C55.6881618,25.2221636 55.4719916,25.2221636 55.2564706,25.222813 C55.0390021,25.4384326 54.8221828,25.6547016 54.6053634,25.8703212 C53.7400336,25.8716201 52.8753529,25.8722696 52.0100231,25.8735685 C51.5770336,26.089188 51.1440441,26.3048076 50.7110546,26.5210766 C43.2015756,28.069381 35.5914769,27.8661011 27.9904664,27.823237" id="Fill-114" fill="#007FF0" mask="url(#mask-4)"></path>
                </g>
                <path d="M52.0354053,215.46454 C52.0081405,214.587124 51.981525,213.710358 51.9549095,212.832293 C52.6254914,208.728377 53.2967225,204.623812 53.9692519,200.519246 C56.0939515,203.485314 58.5244053,203.272293 61.1327288,201.20832 C59.7948107,205.280412 58.458191,209.353804 57.1202729,213.426545 C56.4633233,214.315002 55.8076721,215.203458 55.1507225,216.091915 C54.1750355,215.571051 53.1435208,215.326855 52.0354053,215.46454" id="Fill-117" fill="#004ED7"></path>
                <path d="M242.51112,166.177479 C241.922981,169.550757 243.780227,170.325558 246.624195,170.051487 C248.664504,170.911368 250.473063,171.979724 250.629511,174.526243 C250.492538,174.694452 250.480204,174.870455 250.594456,175.054901 C249.988141,176.091433 249.938155,177.235126 249.950489,178.391808 C249.327296,179.93167 248.911834,181.470232 249.966069,183.004248 L249.977754,183.019186 C250.611983,184.224577 251.717502,184.103129 252.797704,183.99467 C253.763004,183.897901 254.725708,183.76736 255.686464,183.621882 C263.503645,182.437273 263.641267,187.365349 261.695086,192.25186 C259.445099,197.900183 255.023672,201.11824 248.816408,201.58455 C248.347065,197.507911 247.954973,193.420882 247.383063,189.358531 C246.948775,186.270365 244.815637,184.410971 241.671107,184.143395 C240.381876,184.033637 239.082258,184.044678 237.786536,184.000515 C236.251273,183.212074 234.718607,182.422985 233.185292,181.634545 C233.138553,180.559694 233.091164,179.484194 233.043775,178.409343 C235.430735,176.94417 236.939382,174.802911 238.482435,172.463569 C241.002473,168.641517 241.19008,168.431743 237.078303,166.597028 C236.159742,165.298765 236.009137,163.809561 235.932536,162.278142 C235.791668,159.445862 233.525452,158.202153 231.413086,157.993028 C229.289036,157.783903 229.786941,160.331072 229.343565,161.774814 C229.250086,162.078759 229.283842,162.420373 229.234506,162.740555 C228.539256,167.23999 226.393784,169.037036 221.940548,168.393425 C220.171588,168.138189 219.644471,169.027295 220.407233,169.984593 C222.551408,172.676591 223.27587,176.642172 227.152002,177.831977 C227.192899,179.107509 227.233796,180.383042 227.274693,181.658574 C226.224353,182.564566 224.930578,182.956838 223.649137,183.375737 C224.106145,179.378333 222.219038,177.101338 218.632431,175.439379 C215.173059,173.835871 214.881586,171.99596 216.636265,168.597354 C217.029655,167.833593 217.453557,167.08542 217.863826,166.330751 C219.49062,164.648659 219.978788,162.380757 220.913578,160.347958 C222.833792,156.175199 225.920546,154.233974 230.623059,154.454789 C241.177097,154.950974 241.181641,154.860699 242.51112,166.177479" id="Fill-119" fill="#8B3B26"></path>
                <path d="M218.967008,229.812853 C216.585241,229.844027 216.410617,228.272342 216.148356,226.383723 C215.301852,220.28013 215.22655,220.315201 221.130657,218.469445 C222.755503,217.96157 224.552377,217.929747 225.967545,216.804888 C232.265043,215.271521 238.56319,213.738804 244.861337,212.206087 C245.666945,212.087236 246.473201,211.968386 247.278808,211.850185 L249.323661,211.44882 C252.432487,211.084475 255.541961,210.72013 258.650787,210.355785 C258.908503,210.570106 259.151938,210.615568 259.36681,210.297334 C260.27823,210.91107 261.294165,210.91172 262.327627,210.812353 C266.140791,213.006217 266.346575,214.071326 263.638281,217.592679 C260.458047,219.926176 256.669552,220.953617 253.119947,222.49088 C252.62269,222.480489 252.17477,222.556475 252.03585,223.144233 C251.837207,224.554853 251.638564,225.965473 251.439272,227.376742 C251.432132,227.729396 251.423692,228.082701 251.415253,228.436005 C250.879047,231.458576 250.561608,231.586519 248.014955,229.808956 C248.05001,229.060133 248.02664,228.302867 248.128558,227.563136 C248.633604,223.885263 248.510913,223.649511 245.069068,224.645777 C238.806625,226.45906 232.394226,227.543652 226.03376,228.887377 C223.696136,229.336801 221.381232,229.953136 218.967008,229.812853" id="Fill-121" fill="#FEA500"></path>
                <path d="M249.966329,183.004378 C250.012419,182.816685 250.059159,182.629642 250.105249,182.441949 C250.191587,182.493905 250.277926,182.545212 250.364913,182.59652 C250.23573,182.737452 250.107197,182.878384 249.978014,183.018666 L249.966329,183.004378 Z" id="Fill-123" fill="#007CF9"></path>
                <path d="M266.881223,220.644345 C266.665053,220.644345 266.448882,220.643696 266.232712,220.642397 C266.449532,220.426777 266.666351,220.211158 266.883819,219.995538 C266.88317,220.211158 266.88317,220.426777 266.882521,220.642397 L266.881223,220.644345 Z" id="Fill-125" fill="#0074FA"></path>
                <path d="M266.882521,220.642462 C266.88317,220.426842 266.88317,220.211223 266.883819,219.995603 C266.948086,220.145628 267.031179,220.292405 267.064286,220.449573 C267.074672,220.498932 266.947437,220.576867 266.882521,220.642462" id="Fill-127" fill="#0071FD"></path>
                <path d="M87.7131555,236.230652 C88.3941239,235.427275 89.2919118,235.057734 90.3110924,234.933688 C89.7755357,236.028671 88.8141303,236.270269 87.7131555,236.230652" id="Fill-129" fill="#0083F8"></path>
                <path d="M91.6081134,234.931739 C92.0034517,234.117321 92.6526113,233.684133 93.5568908,233.634125 C93.1609034,234.447245 92.5110945,234.879783 91.6081134,234.931739" id="Fill-131" fill="#0083F8"></path>
                <path d="M82.5198782,237.529565 C82.9528676,237.313296 83.3858571,237.097677 83.8188466,236.882057 C83.3858571,237.097677 82.9528676,237.313296 82.5198782,237.529565" id="Fill-133" fill="#0083F8"></path>
                <path d="M94.2047521,233.632177 C94.4209223,233.415908 94.6377416,233.199639 94.8545609,232.98337 C94.6377416,233.199639 94.4209223,233.415908 94.2047521,233.632177" id="Fill-135" fill="#0083F8"></path>
                <path d="M86.414187,236.878875 C86.6310063,236.663255 86.8478256,236.446986 87.0652941,236.231367 C86.8478256,236.446986 86.6310063,236.663255 86.414187,236.878875" id="Fill-137" fill="#0083F8"></path>
                <path d="M298.611433,118.915619 C297.991486,119.490388 297.371538,120.065157 296.751591,120.638627 C295.515591,121.199108 294.640523,122.469445 293.124736,122.477239 C293.086435,122.270711 292.998799,122.087565 292.859229,121.929747 C292.92025,121.725168 292.936479,121.517991 292.907267,121.306918 L292.888441,121.325103 L294.316593,120.038529 C294.691807,119.781994 295.06767,119.524809 295.442885,119.268274 C296.122555,119.126692 296.519841,118.66363 296.803523,118.071326 L296.771714,118.107046 C296.976849,118.040152 297.182633,117.974557 297.387767,117.907663 C297.607183,117.93494 297.826599,117.961567 298.046015,117.988195 C298.046015,117.988195 298.090158,118.012225 298.090158,118.011576 L298.611433,118.915619 Z" id="Fill-139" fill="#C0E1FA"></path>
                <path d="M307.240063,103.741522 L305.973553,104.335125 C305.45812,102.140612 306.248147,100.058454 306.524689,97.9321334 L306.504565,97.9412258 C306.919378,97.961359 307.334841,97.9808427 307.749004,98.0003264 C307.779515,99.267416 307.810025,100.535155 307.839887,101.803544 C307.719792,101.982144 307.688633,102.175682 307.745759,102.382859 L307.240063,103.741522 Z" id="Fill-141" fill="#C0E0FB"></path>
                <path d="M282.641132,126.391968 C282.372379,125.665226 282.554793,125.048242 283.100087,124.520883 C283.327293,124.491008 283.553201,124.461133 283.780407,124.431258 C284.530835,124.518935 285.273474,124.574139 285.842138,123.923383 C286.038184,123.963 286.216054,123.921435 286.374449,123.799987 C287.202127,124.000019 288.672474,123.292761 288.312839,125.171639 L288.299856,125.181381 C287.849989,125.388557 287.40077,125.595734 286.951552,125.80421 C285.514961,125.999696 284.077722,126.195832 282.641132,126.391968" id="Fill-143" fill="#C0E0FC"></path>
                <g id="Group-147" transform="translate(307.701681, 101.250272)">
                    <mask id="mask-6" fill="white">
                        <use xlink:href="#path-5"></use>
                    </mask>
                    <g id="Clip-146"></g>
                    <path d="M0.0442726891,1.13271712 C-0.0128533613,0.925540489 0.0183063025,0.732002446 0.13840084,0.552752446 C0.432470168,0.835266033 1.13615924,0.885274185 0.716152941,1.57304864 C0.492192857,1.42627147 0.268232773,1.27949429 0.0442726891,1.13271712" id="Fill-145" fill="#007CF9" mask="url(#mask-6)"></path>
                </g>
                <path d="M285.841878,123.923513 C285.273214,124.574269 284.530576,124.519065 283.780147,124.431388 C284.368286,123.858568 285.100538,123.874155 285.841878,123.923513" id="Fill-148" fill="#0081F8"></path>
                <path d="M294.316463,120.038854 L292.888312,121.324778 C292.961017,120.448012 293.464765,120.051194 294.316463,120.038854" id="Fill-150" fill="#0081F8"></path>
                <path d="M296.803458,118.071455 C296.519776,118.66376 296.12249,119.126822 295.44282,119.268404 C295.44282,118.8547 295.44282,118.441646 295.443469,118.029241 L295.444767,118.028591 C295.897881,118.042879 296.350994,118.057167 296.803458,118.071455" id="Fill-152" fill="#0081F8"></path>
                <path d="M296.935303,120.739683 C297.304025,120.918283 297.672748,121.098183 298.041471,121.276783 C297.672748,121.098183 297.304025,120.918283 296.935303,120.739683" id="Fill-154" fill="#0078FA"></path>
                <path d="M307.749134,98.0004562 C307.334321,97.9809726 306.919508,97.9608394 306.504695,97.9413557 C306.94872,97.3516492 307.362235,97.3828231 307.749134,98.0004562" id="Fill-156" fill="#007CF9"></path>
                <path d="M301.936494,110.885544 L301.936494,110.236087 C302.147471,110.234788 302.358447,110.230892 302.569424,110.224397 C302.569424,110.224397 302.594742,110.24453 302.594092,110.24453 L302.610971,110.919965 L302.620059,110.916718 C302.392204,110.905677 302.164998,110.895935 301.936494,110.885544" id="Fill-158" fill="#007CF9"></path>
                <path d="M301.936494,110.885544 C302.164998,110.895935 302.392204,110.905677 302.620059,110.916068 C302.460366,111.182345 302.301321,111.447973 302.140979,111.71425 C302.140979,111.71425 301.935845,111.534351 301.935845,111.533701 C301.936494,111.317432 301.937143,111.101163 301.936494,110.885544" id="Fill-160" fill="#0081F8"></path>
                <path d="M299.338557,116.082495 C299.339206,116.298114 299.339855,116.514383 299.339855,116.730003 C299.274939,116.579979 299.189899,116.433201 299.157441,116.276033 C299.146405,116.226674 299.273641,116.14809 299.338557,116.082495" id="Fill-162" fill="#0078FA"></path>
                <path d="M297.387962,117.907792 C297.182827,117.974686 296.977044,118.040282 296.771909,118.107176 C296.977693,117.865578 297.183476,117.62333 297.38926,117.380434 C297.389909,117.556436 297.38926,117.73179 297.387962,117.907792" id="Fill-164" fill="#007CF9"></path>
                <path d="M297.387962,117.907792 C297.38926,117.73179 297.389909,117.556436 297.38926,117.380434 C297.608676,117.583064 297.827443,117.786344 298.04621,117.988325 C297.826794,117.961697 297.607378,117.93507 297.387962,117.907792" id="Fill-166" fill="#0081F8"></path>
                <path d="M288.9533,123.223984 C289.169471,123.007715 289.38629,122.792095 289.60246,122.575826 L289.60246,123.225283 L289.601162,123.225932 C289.385641,123.225283 289.17012,123.225283 288.955248,123.225932 L288.9533,123.223984 Z" id="Fill-168" fill="#0081F8"></path>
                <path d="M292.907202,121.306658 C292.936414,121.517732 292.920834,121.725558 292.859164,121.929487 C292.639099,121.928188 292.419034,121.926889 292.198969,121.92624 C292.435263,121.719712 292.671557,121.513185 292.907202,121.306658" id="Fill-170" fill="#0081F8"></path>
                <path d="M292.1978,122.575112 C292.133534,122.424438 292.049143,122.277011 292.017334,122.119193 C292.006947,122.069835 292.134183,121.99125 292.199099,121.926305 C292.19845,122.142574 292.1978,122.358843 292.1978,122.575112" id="Fill-172" fill="#0081F8"></path>
                <path d="M292.1978,122.575112 C292.1978,122.358843 292.19845,122.142574 292.199099,121.926305 C292.419164,121.926954 292.639229,121.928253 292.859294,121.929552 C292.998214,122.08737 293.0865,122.270517 293.1248,122.477693 C292.81645,122.509517 292.50745,122.542639 292.1978,122.575112" id="Fill-174" fill="#0078FA"></path>
                <path d="M298.690695,121.926305 C298.474525,122.142574 298.257706,122.358193 298.041536,122.574462 C298.257706,122.358193 298.474525,122.142574 298.690695,121.926305" id="Fill-176" fill="#0078FA"></path>
                <path d="M298.611433,118.915619 L298.090158,118.011576 C298.293345,118.01872 298.495883,118.033008 298.69842,118.055089 C298.669208,118.341499 298.640645,118.629209 298.611433,118.915619" id="Fill-178" fill="#0081F8"></path>
                <path d="M302.141239,111.71451 C302.300932,111.448233 302.459976,111.182605 302.619669,110.916328 C302.619669,110.916328 302.61123,110.919575 302.61123,110.919575 C302.760537,110.690317 302.911142,110.45976 303.060449,110.230502 C303.19093,110.06554 303.257144,109.877847 303.257144,109.667423 C303.470718,109.428423 303.684291,109.189423 303.897865,108.951073 L303.897865,108.952371 C304.312678,108.983545 304.726842,109.014719 305.141655,109.045244 C305.163726,111.326135 303.342184,112.746496 302.530734,114.638363 C302.137993,114.632518 301.745251,114.626024 301.351861,114.620179 C300.951329,113.47129 301.935455,112.698437 302.141239,111.71451" id="Fill-180" fill="#BDDEFA"></path>
                <path d="M288.957715,125.179952 C289.172587,124.964982 289.387458,124.750012 289.60233,124.534392 C289.601681,124.963683 289.601032,125.392324 289.601032,125.820965 C289.38616,125.607294 289.171937,125.393623 288.957715,125.179952" id="Fill-182" fill="#0078FA"></path>
                <path d="M305.14172,109.044984 C304.726907,109.01446 304.312743,108.983286 303.89793,108.952112 C304.326375,108.731296 304.754171,108.509182 305.181967,108.287718 C305.168984,108.540356 305.155352,108.792345 305.14172,109.044984" id="Fill-184" fill="#0081F8"></path>
                <path d="M262.327627,210.812418 C261.294165,210.911785 260.27823,210.911135 259.36681,210.297399 C260.380148,210.316883 261.442174,210.058399 262.327627,210.812418" id="Fill-186" fill="#0078FA"></path>
                <path d="M97.7624716,121.317439 C100.046864,113.836999 100.322757,105.792181 104.237839,98.7514228 C104.919457,97.5245995 105.14082,95.8002924 104.937633,94.3987652 C104.772098,93.2557217 103.653596,92.2510125 102.958346,91.1852543 C102.464984,92.0055179 101.969675,92.8251321 101.480209,93.6479935 C101.154331,94.1941864 100.966075,95.0112027 100.489591,95.2443576 C99.0679317,95.9418739 99.0237889,95.8528984 98.8348834,97.2784554 C98.4908288,100.615363 96.3291271,102.725447 93.9752742,104.805657 C91.34423,107.13136 88.892354,109.660344 86.3625788,112.101002 C84.7520137,112.457553 84.1489443,111.177474 83.3374947,110.236412 C82.5974527,105.514863 79.4983645,101.946099 77.3256271,97.9253141 C79.4821355,97.4551076 81.6386439,96.9849011 83.7951523,96.515344 C85.0960683,96.6108141 85.5251628,95.7697679 85.4965998,94.7157 C85.3706628,90.0590967 85.7147174,85.3407951 83.8866838,80.8809772 C83.8496817,80.2055424 83.8418918,79.5216647 83.2758246,79.0202842 C83.2940011,78.2818522 83.1537826,77.6103141 82.4922889,77.1595913 L82.4799548,77.1310152 C82.5247468,76.5796266 82.3046817,76.170469 81.8243036,75.8989962 L81.797688,75.8470397 C77.8806586,69.0225505 71.5039632,68.0938277 64.2093561,73.2855832 C63.5244926,72.4503821 63.6699044,71.4450234 63.6686061,70.4851266 C63.6588687,63.0196239 63.6413414,55.5534717 63.6783435,48.087969 C63.6945725,44.8484799 64.9169401,43.5963277 68.1153498,43.3865533 C69.0845452,43.3229065 70.0615305,43.3651212 71.0346208,43.3651212 C126.30018,43.3644717 181.565738,43.3638223 236.831297,43.3657707 C243.540362,43.3664201 244.149923,43.9898984 244.149923,50.8345207 C244.149274,78.4253821 244.14473,106.016243 244.142133,133.607754 C242.268659,134.24682 240.332864,134.255262 238.380192,134.255262 C184.978371,134.252665 131.5759,134.265004 78.1740788,134.274097 C77.7404401,128.654349 78.2013435,123.063828 78.7343036,117.476553 C78.8719254,117.477852 79.0101964,117.48045 79.1484674,117.483697" id="Fill-188" fill="#FEFEFE"></path>
                <path d="M78.7333298,117.476553 C78.2016681,123.064477 77.7407647,128.654349 78.1744034,134.274097 L78.2140021,136.932322 C78.1010483,137.044678 78.083521,137.170673 78.1588235,137.310306 C78.0140609,137.322646 77.9283718,137.399931 77.9017563,137.542811 C72.9025777,136.750474 67.90275,135.957488 62.9035714,135.165151 C62.6874013,134.857958 62.4725294,134.550765 62.2570084,134.242923 C62.1940399,125.240806 62.1849517,116.242586 63.7468298,107.329445 C64.979584,104.53873 65.5475987,101.430431 67.7054055,99.0858929 C67.8975567,98.8891076 68.0890588,98.6923223 68.2792626,98.4961864 C68.9173866,98.2766701 69.5548613,98.0571538 70.1936345,97.836988 C72.5754013,97.8486783 74.9571681,97.8616674 77.3389349,97.8733576 L77.3253025,97.9253141 C79.4986891,101.946099 82.5971282,105.514863 83.3378193,110.235762 C82.8808109,112.607578 80.5172206,113.846741 79.8544286,116.097757 C78.2438634,116.100355 77.0325315,115.276844 75.8205504,114.314349 C74.8240903,113.522662 73.7016933,112.841382 72.5403466,112.326363 C71.9405231,112.060086 70.9265357,111.888629 70.6363613,112.872556 C70.4111029,113.638265 71.1784097,113.96689 71.7412311,114.233817 C74.0626261,115.335295 76.4008992,116.399105 78.7333298,117.476553" id="Fill-190" fill="#FEA500"></path>
                <path d="M68.2802363,98.4964462 C68.0887342,98.6925821 67.8972321,98.8887179 67.7050809,99.0855033 C66.3665137,98.2321174 65.0272973,97.3780821 63.68873,96.5240467 C60.3897006,91.5524571 59.0485368,86.1944408 60.4351418,80.2765929 C61.0641775,77.5943375 62.4209212,75.3264353 64.2106544,73.284544 C71.5039632,68.093438 77.8806586,69.0221609 81.797688,75.84665 C81.3997532,75.8349598 81.0018183,75.823919 80.6032342,75.8115793 C78.0027006,74.1652071 73.9863498,73.8651582 72.8470746,75.2329136 C69.9492258,78.7127016 70.0900935,86.0996201 73.182041,89.604737 C74.1239716,90.6724435 75.1554863,91.6245467 74.6595284,93.2423429 C73.1554254,94.3646038 71.6513225,95.4868647 70.1472195,96.609775 C68.9748372,96.6942043 68.3509947,97.3209299 68.2802363,98.4964462" id="Fill-192" fill="#8C3B26"></path>
                <path d="M63.6885353,96.5239168 C65.0277517,97.3779522 66.3663189,98.2319875 67.7048861,99.0853734 C65.5477286,101.430561 64.9790647,104.53886 63.7469597,107.329574 C63.7274849,103.728338 63.7073609,100.126452 63.6885353,96.5239168" id="Fill-194" fill="#FAF8F3"></path>
                <path d="M213.103668,192.061894 C212.555128,194.882483 212.701189,197.815429 211.721607,200.565877 C197.8601,200.584062 183.998594,200.601598 170.137088,200.620432 C160.192611,200.546394 150.248783,200.473005 140.303657,200.399617 C140.391943,197.809584 140.345853,195.287744 138.805397,192.97503 C138.276332,192.180744 136.371048,192.513915 137.057859,190.812339 C146.000682,190.800649 154.942857,190.791557 163.885031,190.77532 C168.385655,190.766877 172.886279,190.745445 177.386254,190.729858 C187.552743,190.748693 197.718584,190.773372 207.885073,190.777918 C209.624172,190.778568 211.346392,190.82403 213.003048,191.433869 C213.003048,191.433869 212.990065,191.411138 212.990714,191.411138 C213.028365,191.628057 213.066016,191.844975 213.103668,192.061894" id="Fill-196" fill="#D7E6FE"></path>
                <path d="M222.336471,183.76106 C222.774654,183.634416 223.212187,183.507123 223.649072,183.37853 C224.930513,182.957033 226.224288,182.564761 227.274628,181.659419 C229.247425,182.250424 231.212431,180.967748 233.185876,181.63409 C234.718542,182.42253 236.251857,183.21162 237.786471,184.00071 C232.63474,184.058511 227.477166,184.480658 222.336471,183.76106" id="Fill-198" fill="#FC7457"></path>
                <path d="M247.279003,211.850055 C246.473396,211.968905 245.667139,212.087106 244.860883,212.205957 C244.900482,210.340068 244.939431,208.47418 244.978381,206.60894 C247.763925,207.47012 247.964515,209.46525 247.279003,211.850055" id="Fill-200" fill="#F8A08F"></path>
                <path d="M213.103668,192.061894 C213.066016,191.844975 213.028365,191.628057 212.990714,191.411138 C213.082245,191.55272 213.192603,191.686508 213.254922,191.83978 C213.273747,191.885891 213.158197,191.986557 213.103668,192.061894" id="Fill-202" fill="#0081F8"></path>
                <path d="M226.03363,228.887507 C232.394096,227.543782 238.807145,226.459189 245.068939,224.645907 C248.510783,223.64964 248.633474,223.885393 248.128428,227.563265 C248.02651,228.302996 248.04988,229.060263 248.014825,229.809086 C240.668934,229.958461 233.355502,229.311602 226.03363,228.887507" id="Fill-204" fill="#FD9001"></path>
                <path d="M251.415513,228.43594 C251.423952,228.082636 251.431742,227.729332 251.439532,227.376677 C256.373795,227.096111 256.373795,227.096111 255.113126,223.305234 C257.509824,221.988785 260.059074,221.184758 262.806318,221.356864 C264.342229,221.452334 265.846332,221.897861 266.176755,223.752709 C266.485755,225.486758 265.281563,226.035549 263.992982,226.820742 C262.066925,227.99366 260.071408,227.674128 258.064206,227.807266 C255.843431,227.954693 253.538914,227.259125 251.415513,228.43594" id="Fill-206" fill="#0063D4"></path>
                <path d="M201.530384,224.428209 C204.117286,223.993073 206.705485,223.544299 209.085954,225.182877 C209.121657,226.454513 209.158659,227.726799 209.195662,228.998435 C206.802859,230.136282 204.386038,230.486339 201.73487,229.807657 C200.015246,229.367326 198.406628,228.683448 198.347554,226.952646 C198.290428,225.27575 199.909433,224.587326 201.530384,224.428209" id="Fill-208" fill="#0363D1"></path>
                <path d="M209.195402,228.998499 C209.1584,227.726864 209.122047,226.454578 209.085694,225.182942 C212.745656,223.252758 213.00532,225.96294 213.467522,228.396453 C212.043265,228.597135 210.619009,228.797168 209.195402,228.998499" id="Fill-210" fill="#FCAB7D"></path>
                <path d="M255.113321,223.304974 C256.37334,227.095852 256.37334,227.095852 251.439727,227.377066 C251.63837,225.965797 251.837012,224.555178 252.035655,223.144558 C252.454363,223.148455 252.873071,223.152352 253.29113,223.156248 C253.898743,223.205607 254.505708,223.254966 255.113321,223.304974" id="Fill-212" fill="#F8AB84"></path>
                <path d="M253.291325,223.155924 L252.03585,223.144233 C252.17477,222.556475 252.62269,222.480489 253.119947,222.49088 C253.176424,222.712345 253.23355,222.93381 253.291325,223.155924" id="Fill-214" fill="#5C86CE"></path>
                <path d="M230.906092,210.873921 C229.684374,210.854438 228.72167,210.4219 228.688563,209.059989 C228.655456,207.72081 229.320195,206.611538 230.740557,206.683628 C231.956433,206.745976 233.03209,207.468171 233.026248,208.954128 C233.019756,210.317987 232.14404,210.820017 230.906092,210.873921" id="Fill-216" fill="#C0D3F2"></path>
                <path d="M77.3639924,159.630958 C77.8573538,172.237558 76.2428937,184.731153 75.3392634,197.263066 C73.9980996,199.021145 75.4684462,201.360488 74.1285807,203.118566 C72.2622466,203.038683 70.7789168,205.600789 68.580213,203.795949 C67.9187193,203.252354 67.620755,204.212901 67.6019294,204.870151 C67.5740155,205.819007 67.5655765,206.769161 67.5493475,207.718667 C66.6762277,201.678072 66.3412613,195.600458 66.2769945,189.50336 C66.1413202,184.835066 68.4399945,180.752583 69.4533328,176.359659 C71.8234147,166.088504 75.0705113,156.021928 76.6226521,145.559183 C76.6823748,145.15717 76.8381731,144.768145 76.9491794,144.373925 C77.5976899,144.664232 77.2841458,145.249392 77.2886899,145.679982 C77.3373769,150.330091 77.3451668,154.980199 77.3639924,159.630958" id="Fill-218" fill="#004DD7"></path>
                <path d="M131.319028,190.712908 C131.3015,182.939562 131.283973,174.516761 131.267095,166.742766 C146.608685,166.742117 161.950276,166.742117 177.291217,166.741467 C177.262005,174.514812 177.233442,182.936965 177.20358,190.71031 C161.908729,190.711609 146.613879,190.712258 131.319028,190.712908" id="Fill-220" fill="#FDFDFD"></path>
                <path d="M159.771761,151.061184 C159.801622,154.25651 157.243933,156.795236 154.053313,156.737434 C151.335282,156.688725 148.764609,153.99348 148.750328,151.178086 C148.736046,148.21007 151.379425,145.44923 154.24157,145.442086 C157.070607,145.434942 159.743847,148.151619 159.771761,151.061184" id="Fill-222" fill="#BED1F0"></path>
                <path d="M153.015826,165.44119 C159.495738,165.44119 165.976299,165.436644 172.455562,165.452231 C172.86583,165.452881 173.27545,165.602905 173.68507,165.683438 C173.411774,166.334193 172.826232,166.070514 172.386751,166.071163 C159.642448,166.088049 146.898146,166.088049 134.153843,166.073112 C133.550125,166.072462 132.484854,166.26665 132.522505,165.584071 C132.553015,165.017745 133.624778,165.448335 134.223952,165.446386 C140.487694,165.423006 146.752085,165.431449 153.015826,165.431449 L153.015826,165.44119 Z" id="Fill-224" fill="#CCDBF3"></path>
                <path d="M78.1589534,137.310306 C78.0836508,137.170673 78.1011782,137.044678 78.2141319,136.932322 C78.2141319,136.932972 78.3426655,137.155735 78.3426655,137.155735 L78.1589534,137.310306 Z" id="Fill-226" fill="#FEFEFE"></path>
                <path d="M286.951292,125.804015 C287.400511,125.596189 287.850378,125.388363 288.299597,125.181186 C287.850378,125.388363 287.400511,125.596189 286.951292,125.804015" id="Fill-228" fill="#0081F8"></path>
                <path d="M67.5410382,213.48701 C67.544284,211.563969 67.5475298,209.640279 67.5501265,207.717887 C67.5657063,206.769032 67.5741454,205.818877 67.6020592,204.870021 C67.6208849,204.212771 67.9188492,203.252224 68.5803429,203.79582 C70.7790466,205.600659 72.2617273,203.038553 74.1280613,203.118436 C74.1274122,203.984162 74.1261139,204.849887 74.1248155,205.715613 C73.8086748,207.632159 73.2335193,209.516233 73.3951601,211.492529 C72.2721139,213.304512 73.0945992,215.715295 71.5762147,217.40583 C70.5070487,217.180469 69.4521643,217.229178 68.4122105,217.564947 C67.5079311,216.336825 67.6410088,214.886589 67.5410382,213.48701" id="Fill-230" fill="#004BC7"></path>
                <path d="M77.270838,223.191449 C78.8073989,223.355112 81.2566784,222.777745 81.4111784,224.598821 C81.5922939,226.73943 78.9216511,226.043212 77.6181384,226.263378 C75.3369914,226.650454 72.9026426,226.532903 70.5890376,226.211422 C68.0592624,225.860715 66.9290754,224.442952 68.6486994,221.943843 C69.4653422,222.67578 70.5085418,222.582259 71.4874746,222.723191 C72.4605649,223.610348 73.6004893,223.248601 74.7047099,223.155079 C75.5596532,223.167419 76.4158947,223.179109 77.270838,223.191449" id="Fill-232" fill="#004FD8"></path>
                <path d="M59.8170769,223.211712 C60.3448437,223.288348 60.9251924,223.251329 61.3899908,223.465649 C62.3001126,223.884549 63.7509845,224.103416 63.2543773,225.563394 C62.8694256,226.692799 61.7035349,226.451201 60.7330412,226.255065 C58.0104655,225.702378 55.2430979,225.312054 52.5757008,224.565829 C49.6077429,223.735174 49.380537,222.629799 51.2851714,219.988459 C52.2770874,220.761962 53.3047071,221.441943 54.649766,221.321793 L54.5738143,221.264641 C54.6900139,222.153098 55.3625433,221.874481 55.8929067,221.894614 C56.560892,222.893478 57.5904592,222.538226 58.5109676,222.59278 L58.4927912,222.588234 C58.8102303,223.059739 59.2672387,223.233793 59.8170769,223.211712" id="Fill-234" fill="#004ED7"></path>
                <path d="M54.649766,221.321729 C53.3047071,221.442527 52.2770874,220.761897 51.2851714,219.988394 C51.5350979,218.481006 51.7850244,216.972968 52.0349508,215.46428 C53.1437155,215.327245 54.1752303,215.57144 55.1502681,216.091655 C55.0996336,217.845837 53.2008416,219.423367 54.649766,221.321729" id="Fill-236" fill="#F0916F"></path>
                <path d="M71.4873447,222.723386 C70.508412,222.581804 69.4652124,222.675975 68.6485695,221.944038 C68.9815884,220.462627 68.8958994,219.003299 68.4116263,217.565402 C69.4522292,217.228983 70.5071137,217.180274 71.5762796,217.405636 C71.5788763,218.900035 71.5814729,220.393785 71.5834204,221.888185 C71.5516116,222.166801 71.5191536,222.444769 71.4873447,222.723386" id="Fill-238" fill="#FA916B"></path>
                <path d="M93.5542941,218.695976 C95.5037206,218.584919 96.5254979,219.866946 97.4511996,221.293802 C95.854916,220.874253 94.5384202,220.034506 93.5542941,218.695976" id="Fill-240" fill="#0083F8"></path>
                <path d="M71.4873447,222.723386 C71.5191536,222.444769 71.5516116,222.166801 71.5834204,221.888185 C72.6233742,222.149915 73.6633279,222.411646 74.7026326,222.672728 C74.7149666,222.833793 74.7156158,222.994209 74.70458,223.155274 C73.6003595,223.248796 72.4604351,223.609894 71.4873447,222.723386" id="Fill-242" fill="#947BA3"></path>
                <path d="M58.5110975,222.592715 C57.5905891,222.538161 56.5610218,222.893413 55.8930366,221.894549 C55.866421,221.733484 55.8462971,221.57112 55.8313664,221.408106 C56.7577172,221.728288 57.7970218,221.792585 58.5110975,222.592715" id="Fill-244" fill="#5F7DB7"></path>
                <path d="M74.70458,223.155274 C74.7156158,222.994209 74.7149666,222.833793 74.7026326,222.672728 C75.6088595,222.600638 76.5404036,222.398657 77.2707082,223.191644 C76.4157649,223.179304 75.5595233,223.167614 74.70458,223.155274" id="Fill-246" fill="#7182B4"></path>
                <path d="M59.8170769,223.211712 C59.2672387,223.233793 58.8102303,223.059739 58.4927912,222.588234 C59.0088731,222.636943 59.532745,222.670715 59.8170769,223.211712" id="Fill-248" fill="#526EC4"></path>
                <path d="M55.8314313,221.407976 C55.8457128,221.57099 55.8664859,221.733354 55.8931015,221.894419 C55.3620889,221.874936 54.6895595,222.152903 54.574009,221.264446 C54.992717,221.312506 55.4120742,221.360566 55.8314313,221.407976" id="Fill-250" fill="#C58792"></path>
                <path d="M97.4505504,221.293152 C97.6673697,221.509421 97.8835399,221.72634 98.0997101,221.943258 C97.8835399,221.72634 97.6673697,221.509421 97.4505504,221.293152" id="Fill-252" fill="#0083F8"></path>
                <path d="M227.151872,177.832236 C223.27574,176.642432 222.551278,172.676851 220.407103,169.984853 C219.64499,169.026905 220.171458,168.137799 221.940418,168.393685 C226.393654,169.037296 228.539126,167.239601 229.234376,162.740815 C229.283713,162.420633 229.249956,162.079019 229.343435,161.774424 C229.787461,160.331332 229.288906,157.784163 231.412956,157.993288 C233.525322,158.201764 235.792187,159.445473 235.932406,162.278402 C236.009656,163.809821 236.159612,165.299024 237.078173,166.596639 C236.724381,168.005959 236.66336,169.421774 235.485784,170.629114 C233.067015,173.106791 230.883891,175.814375 228.604042,178.426489 C228.119769,178.228405 227.636145,178.03097 227.151872,177.832236" id="Fill-254" fill="#FEAC7F"></path>
                <path d="M228.604237,178.426489 C230.884086,175.814375 233.06721,173.106791 235.485979,170.629114 C236.663554,169.421774 236.724575,168.005959 237.078367,166.596639 C241.190145,168.431353 241.002538,168.641777 238.4825,172.463179 C236.939447,174.803171 235.4308,176.944429 233.04384,178.409603 C231.562458,177.981611 230.088865,179.699424 228.604237,178.426489" id="Fill-256" fill="#FDA283"></path>
                <path d="M228.604237,178.426489 C230.088865,179.699424 231.562458,177.981611 233.04384,178.409603 C233.091229,179.484454 233.137968,180.559304 233.185357,181.634155 C231.212561,180.967812 229.247554,182.250489 227.274758,181.659484 C227.233861,180.383302 227.192964,179.107769 227.152067,177.832236 C227.63634,178.03097 228.119964,178.228405 228.604237,178.426489" id="Fill-258" fill="#FE8E63"></path>
                <path d="M303.89793,108.951137 C303.684356,109.189488 303.470783,109.428488 303.257209,109.667488 C303.470783,109.428488 303.684356,109.190137 303.89793,108.951137" id="Fill-260" fill="#0081F8"></path>
                <path d="M302.569165,110.224657 C302.358837,110.231151 302.14786,110.235048 301.936234,110.236347 C302.143316,109.964225 302.353644,109.944741 302.569165,110.224657" id="Fill-262" fill="#0081F8"></path>
                <path d="M303.060449,110.230372 C302.911142,110.46028 302.760537,110.690187 302.61123,110.920095 L302.593703,110.244011 C302.749501,110.236867 302.9053,110.23232 303.060449,110.230372" id="Fill-264" fill="#0081F8"></path>
                <path d="M94.8589752,125.22944 C94.6291727,125.215802 94.3993702,125.201514 94.1695676,125.187875 C91.8507693,123.596707 89.5027588,122.056196 86.925595,120.911854 C85.9304332,119.572674 84.8963218,120.360465 83.8674038,120.862495 C84.1822462,119.909093 85.2566055,118.937506 83.2857567,118.31078 C82.1847819,117.960723 81.311013,116.894965 80.3346769,116.151337 C80.1743345,116.133802 80.0146412,116.116267 79.8542987,116.097432 C80.5170908,113.847065 82.8806811,112.607253 83.3376895,110.235438 C84.1491391,111.17715 84.7522084,112.457878 86.3627735,112.100677 C87.478679,112.815079 87.3436538,115.57462 89.7520361,114.17569 C89.4170697,116.660511 91.5028197,117.466487 93.0380824,117.791864 C94.6363134,118.130231 94.4896034,116.00521 94.8816958,114.921267 C96.0456391,111.70256 97.0206769,108.415661 98.0697189,105.155389 C98.8078134,102.577046 101.68424,100.20653 98.8350782,97.2787802 C99.0239836,95.8532231 99.0674773,95.9415492 100.489786,95.2446823 C100.96562,95.0115274 101.153876,94.1945111 101.479755,93.6476687 C101.96987,92.8248073 102.465179,92.0058427 102.95854,91.1849296 C103.65379,92.2513372 104.772292,93.2560465 104.937179,94.3984405 C105.141015,95.8006171 104.919652,97.5249242 104.237385,98.7510981 C100.322952,105.791856 100.04641,113.837324 97.7626664,121.317764 L94.1695676,125.187875 C91.8507693,123.596707 89.5027588,122.056196 86.9229983,120.908606" id="Fill-266" fill="#FEA182"></path>
                <path d="M80.6034939,75.8117092 C81.0014288,75.8240489 81.4000128,75.8350897 81.7979477,75.8467799 C81.7979477,75.8474293 81.8245632,75.8993859 81.8245632,75.8993859 C81.7797712,76.4494755 82.0335926,76.8417473 82.4802145,77.1307554 L82.4918994,77.1593315 C82.4204918,77.9198451 82.5691494,78.5874864 83.2754351,79.0200245 C83.8415023,79.5214049 83.8499414,80.2059321 83.8869435,80.8813668 C84.3705674,86.0958533 82.8891851,91.2986495 83.795412,96.5150842 C81.6389036,96.9852908 79.481746,97.4548478 77.3252376,97.9257038 L77.33887,97.8737473 C76.9844288,96.1689239 76.5650716,94.471894 76.7189225,92.7066712 C82.2595002,89.6451332 82.2919582,84.5183234 81.7791221,79.1882337 C81.8816893,78.6199592 81.7005737,78.1504022 81.2857607,77.7620272 C81.2078616,77.5795299 81.1702103,77.3892391 81.1734561,77.1905054 C81.0332376,76.9430625 80.8930191,76.6949701 80.7528006,76.4475272 C80.7028153,76.2351549 80.6534792,76.0234321 80.6034939,75.8117092" id="Fill-268" fill="#6B230D"></path>
                <path d="M89.7519063,114.17595 C87.3435239,115.57423 87.4785492,112.814689 86.3626437,112.100937 C88.8924189,109.660279 91.344295,107.131295 93.9753391,104.805592 C96.329192,102.725382 98.4908937,100.615298 98.8349483,97.2783905 C101.68411,100.20614 98.8076836,102.577306 98.0695891,105.154999 C97.8144693,105.336847 97.5580513,105.517396 97.3029315,105.698594 C97.1276584,105.881092 96.9530345,106.06229 96.7777613,106.243488 C94.4355933,108.887426 92.0934252,111.532013 89.7519063,114.17595" id="Fill-270" fill="#FE946B"></path>
                <path d="M83.7953471,96.5150842 C82.8891202,91.2986495 84.3705025,86.0958533 83.8868786,80.8813668 C85.7149122,85.3411848 85.3708576,90.0594864 85.4967945,94.7154402 C85.5253576,95.7701576 85.096263,96.6105543 83.7953471,96.5150842" id="Fill-272" fill="#934836"></path>
                <path d="M79.8541689,116.097692 C80.0145113,116.115877 80.1742046,116.134062 80.3358454,116.151597 C79.9411563,116.595825 79.5445197,117.039404 79.1485324,117.483632 C79.0102613,117.480385 78.8719903,117.477787 78.7337193,117.476488 C76.4012887,116.39904 74.0623664,115.33523 71.7416206,114.233752 C71.1787992,113.966825 70.4108433,113.6382 70.6367508,112.872491 C70.9262761,111.888564 71.9409126,112.060021 72.540087,112.326298 C73.7014336,112.841317 74.8238307,113.522597 75.8202908,114.314285 C77.0322718,115.276779 78.2442529,116.10029 79.8541689,116.097692" id="Fill-274" fill="#FE9301"></path>
                <path d="M79.1485973,117.483502 C79.5445847,117.039274 79.9412212,116.595695 80.3359103,116.151467 C81.3109481,116.895095 82.184717,117.960204 83.2856918,118.310261 C85.2565405,118.936986 84.1821813,119.908573 83.867988,120.862625 C83.4401918,121.067204 83.0136939,121.269834 82.5878452,121.473763 C80.4806729,120.973032 79.7419292,119.29029 79.1485973,117.483502" id="Fill-276" fill="#FE956C"></path>
                <path d="M83.2755649,79.0203492 C82.5692792,78.5878111 82.4206216,77.9201698 82.4920292,77.1596562 C83.1541721,77.6103791 83.2937414,78.2819171 83.2755649,79.0203492" id="Fill-278" fill="#8C3B26"></path>
                <path d="M82.4799548,77.1309503 C82.0339821,76.8419421 81.7801607,76.4496704 81.8243036,75.8995807 C82.3040326,76.1704041 82.5247468,76.5795617 82.4799548,77.1309503" id="Fill-280" fill="#8C3B26"></path>
                <path d="M76.7186628,92.7064764 C76.5654611,94.4723486 76.9841691,96.1687291 77.3386103,97.8735524 C74.9568435,97.8612128 72.5750767,97.8488731 70.1933099,97.8371829 C70.17773,97.4286747 70.1621502,97.0188677 70.1472195,96.6097101 C71.6513225,95.4867997 73.1554254,94.3645389 74.6595284,93.242278 C75.6092489,94.0748812 76.0006922,92.7636285 76.7186628,92.7064764" id="Fill-282" fill="#FA835E"></path>
                <path d="M70.1471546,96.6095802 C70.1620853,97.0187378 70.1776651,97.4285448 70.193245,97.8377024 C69.555121,98.0572187 68.9169971,98.2760856 68.2795223,98.4962514 C68.3509298,97.3213845 68.9747723,96.6940095 70.1471546,96.6095802" id="Fill-284" fill="#72290A"></path>
                <path d="M76.7186628,92.7064764 C76.0006922,92.7636285 75.6092489,94.0748812 74.6595284,93.242278 C75.1554863,91.6244818 74.1239716,90.6723785 73.182041,89.604672 C70.0900935,86.0995552 69.9492258,78.7126367 72.8470746,75.2328486 C73.9863498,73.8650932 78.0027006,74.1651421 80.6032342,75.8115144 C80.6538687,76.0238867 80.7032048,76.2356095 80.7531901,76.4473323 C80.8927595,76.6954247 81.0329779,76.9435171 81.1731964,77.1903106 C81.1699506,77.3890443 81.2076019,77.5793351 81.2855011,77.7611829 C81.4497384,78.2372345 81.614625,78.7126367 81.7788624,79.1886883 C82.2916985,84.518778 82.2592405,89.6449383 76.7186628,92.7064764" id="Fill-286" fill="#FE9268"></path>
                <path d="M91.7152248,194.722522 C93.8938046,191.220653 97.4187416,190.802403 101.031315,190.782919 C111.071218,190.726416 121.11242,190.751745 131.152973,190.744601 C133.121225,190.767332 135.089477,190.789414 137.058378,190.812145 C136.370918,192.51437 138.276851,192.180549 138.805267,192.975484 C140.345723,195.287549 140.391813,197.809389 140.304176,200.399422 C124.773032,200.436441 109.240588,200.44878 93.7094433,200.543601 C91.9508697,200.553992 91.419208,199.901289 91.5750063,198.278946 C91.6886092,197.099533 91.6736786,195.90843 91.7152248,194.722522" id="Fill-288" fill="#CDDAF3"></path>
                <path d="M89.7519063,114.17595 C92.0934252,111.532013 94.4355933,108.887426 96.7777613,106.243488 C96.9530345,106.06229 97.1276584,105.881092 97.3029315,105.698594 C97.5580513,105.517396 97.8144693,105.336847 98.0695891,105.154999 C97.0205471,108.41592 96.0455092,111.70217 94.881566,114.920877 C94.4894735,116.00482 94.6361836,118.130491 93.0379525,117.791475 C91.5026899,117.466097 89.4169399,116.660121 89.7519063,114.17595" id="Fill-290" fill="#FCF9F7"></path>
                <path d="M81.7787975,79.1884285 C81.6145601,78.7130264 81.4496735,78.2369747 81.2854361,77.7615726 C81.7008983,78.1499476 81.8813647,78.6201541 81.7787975,79.1884285" id="Fill-292" fill="#8C3B26"></path>
                <path d="M81.1733912,77.1905704 C81.0325235,76.9431274 80.892305,76.6950351 80.7533849,76.4469427 C80.8929542,76.6950351 81.0331727,76.9431274 81.1733912,77.1905704" id="Fill-294" fill="#8C3B26"></path>
                <path d="M97.3028666,105.698789 C97.1275935,105.880637 96.9529695,106.062485 96.7776964,106.243683 C96.9529695,106.062485 97.1275935,105.880637 97.3028666,105.698789" id="Fill-296" fill="#FEA182"></path>
                <path d="M188.220079,93.104788 C184.324472,93.104788 180.428865,93.1034891 176.533258,93.1054375 C173.569195,93.1067364 173.652287,93.1119321 173.538035,96.1364511 C173.48805,97.4697853 173.959989,97.6438397 175.125231,97.6373451 C183.338399,97.5892853 191.552216,97.6107174 199.765384,97.6120163 C202.895632,97.6126658 202.833962,97.6126658 202.898229,94.4452663 C202.922247,93.2652038 202.4951,93.0690679 201.455147,93.0807582 C197.043458,93.1281685 192.631768,93.1008913 188.220079,93.104788 M188.223325,88.594962 L188.223325,88.5995082 C192.165023,88.5995082 196.10672,88.6060027 200.049067,88.5975598 C202.859279,88.5904158 202.802153,88.5787255 202.898878,85.7048804 C202.941073,84.4650679 202.658039,84.0422717 201.312981,84.0533125 C193.10176,84.120856 184.889241,84.0903315 176.677371,84.0805897 C173.523754,84.0773424 173.586722,84.0637038 173.541281,87.257731 C173.523754,88.4384429 173.95155,88.6274348 174.990855,88.6157446 C179.401245,88.5663859 183.812285,88.594962 188.223325,88.594962 M188.164252,75.0635353 L188.164252,75.0706793 L176.640369,75.0706793 C173.564002,75.0706793 173.615934,75.0719783 173.549071,78.1153315 C173.524403,79.2538288 173.790558,79.6227201 174.997995,79.6149266 C183.242323,79.5564755 191.4873,79.579856 199.731628,79.5779076 C202.886544,79.5766087 202.842401,79.5766087 202.890439,76.4624647 C202.906668,75.3967065 202.669724,75.0148261 201.51422,75.0343098 C197.065529,75.10575 192.61489,75.0635353 188.164252,75.0635353 M188.218781,66.0542745 L188.218781,66.0490788 C184.277084,66.0490788 180.335386,66.0425842 176.393689,66.0516766 C173.583476,66.0575217 173.641252,66.0698614 173.543878,68.9437065 C173.501682,70.1848179 173.786014,70.6056658 175.130424,70.5952745 C183.341645,70.5270815 191.554163,70.557606 199.766033,70.5679973 C202.919002,70.571894 202.856682,70.5848832 202.902124,67.3902065 C202.919651,66.2088451 202.489907,66.0211522 201.451901,66.0321929 C197.04151,66.0828505 192.629821,66.0542745 188.218781,66.0542745 M188.222676,61.5431495 C192.118283,61.5431495 196.01389,61.5450978 199.909497,61.5431495 C202.873561,61.5412011 202.791117,61.5366549 202.90472,58.5121359 C202.954705,57.1801005 202.484065,57.0040978 201.318174,57.0112418 C193.104357,57.0593016 184.891189,57.0372201 176.678021,57.0365707 C173.546474,57.0359212 173.608794,57.0352717 173.544527,60.2026712 C173.519859,61.3827337 173.947655,61.579519 174.987609,61.5678288 C179.398649,61.519769 183.810987,61.5476957 188.222676,61.5431495 M188.256432,102.122492 C184.407565,102.122492 180.558697,102.123141 176.710479,102.121842 C173.551668,102.121193 173.60425,102.121193 173.547773,105.25612 C173.527649,106.375783 173.856124,106.662842 174.955151,106.656997 C183.168968,106.611535 191.382136,106.632967 199.595304,106.627772 C202.908615,106.625823 202.86642,106.619329 202.892386,103.346717 C202.900176,102.348503 202.612598,102.088071 201.631718,102.099761 C197.173939,102.151068 192.714861,102.121842 188.256432,102.122492 M166.818584,81.9263424 C166.868569,69.5899158 156.848789,59.368769 144.623166,59.2869375 C132.011941,59.2025082 121.820134,69.1742636 121.748077,81.6685082 C121.676021,94.0841685 131.71138,104.319603 144.012955,104.378704 C156.609899,104.439103 166.767949,94.4394212 166.818584,81.9263424 M211.926092,111.136299 C211.884546,112.307269 211.957901,113.495774 211.781979,114.646611 C211.06271,119.338935 207.388466,122.405668 202.552226,122.406318 C175.807497,122.410864 149.062768,122.408266 122.31739,122.408266 C119.502634,122.408266 116.687229,122.386834 113.872472,122.423853 C113.083743,122.434245 112.716319,122.317992 112.717617,121.374981 C112.746829,94.7589538 112.744233,68.1422772 112.748128,41.52625 C112.748128,41.4333777 112.772147,41.3405054 112.78513,41.2476332 C145.80139,41.250231 178.817651,41.2521793 211.833911,41.2547772 C211.848842,41.6288641 211.878054,42.0023016 211.878054,42.377038 C211.880651,54.8446549 211.874159,67.3129212 211.881949,79.7811875 C211.888441,90.2328913 211.910512,100.684595 211.926092,111.136299" id="Fill-298" fill="#1CD0DB"></path>
                <path d="M211.925832,111.136104 C211.910902,100.6844 211.888181,90.2326965 211.882339,79.7816421 C211.874549,67.3127264 211.88104,54.8444601 211.878444,42.3768432 C211.878444,42.0027562 211.849232,41.6293187 211.833652,41.2545823 C211.85053,35.7160171 211.830406,30.176153 211.9122,24.6375878 C211.930376,23.4529791 211.606446,23.1918976 210.447047,23.1938459 C190.783351,23.2334628 171.119656,23.2289166 151.455961,23.2217726 C140.80325,23.2178758 130.151839,23.1918976 119.499778,23.1756611 C119.499129,19.853691 119.551061,16.530422 119.469267,13.2104003 C119.442003,12.1102209 119.799689,11.9127861 120.806536,11.9270742 C124.12504,11.9757834 127.445492,11.9192807 130.765295,11.9036937 C131.327467,11.9192807 131.889639,11.9485062 132.451811,11.9485062 C162.161902,11.9504546 191.870694,11.9588976 221.580784,11.9199302 C222.860278,11.9179818 223.184208,12.2368649 223.180963,13.5156448 C223.136171,31.7816095 223.142662,50.0475742 223.149154,68.3135389 C223.1524,78.8308378 223.177717,89.3474872 223.192647,99.8654356 C223.178366,103.139346 223.11345,106.413906 223.177717,109.686517 C223.199139,110.814623 222.960897,111.208194 221.745671,111.173123 C218.475204,111.078302 215.199545,111.138052 211.925832,111.136104" id="Fill-300" fill="#D88E06"></path>
                <g id="Group-304" transform="translate(130.481092, 0.584511)">
                    <mask id="mask-8" fill="white">
                        <use xlink:href="#path-7"></use>
                    </mask>
                    <g id="Clip-303"></g>
                    <path d="M92.7118147,99.2806 C92.696884,88.7633011 92.6715668,78.2460022 92.668321,67.7293527 C92.6618294,49.463388 92.6546887,31.1974234 92.6994807,12.9314587 C92.7027265,11.6520293 92.3787958,11.3337957 91.0999513,11.335744 C61.3898609,11.374062 31.6804197,11.3662685 1.97097857,11.3643201 C1.4088063,11.3643201 0.845984874,11.3350946 0.283812605,11.3195076 C0.283812605,8.03390707 0.331201261,4.74635815 0.257197059,1.46335543 C0.231879832,0.357330978 0.536984874,0.0683228261 1.64639874,0.0702711957 C20.8349092,0.105341848 40.0240689,0.0956 59.2125794,0.0956 C73.616134,0.0956 88.0196887,0.113135326 102.423243,0.064426087 C103.657945,0.0611788043 103.966296,0.356032065 103.964997,1.59909185 C103.927995,33.7043255 103.929943,65.8102087 103.959804,97.9154424 C103.961103,99.0214668 103.667682,99.3377522 102.563462,99.3124234 C99.2806613,99.2383853 95.9959134,99.2825484 92.7118147,99.2806" id="Fill-302" fill="#1CD0DB" mask="url(#mask-8)"></path>
                </g>
                <path d="M142.031461,32.2632465 C142.042496,29.9882003 142.042496,29.9882003 139.76849,29.9914476 L139.627622,29.9914476 C137.530187,29.9901486 137.530187,29.9901486 137.530187,32.1398497 C137.530187,34.5064693 137.530187,34.5064693 139.850933,34.4947791 C142.021723,34.4843878 142.021723,34.4843878 142.031461,32.2632465 M130.673114,34.4941296 C133.033458,34.5097166 133.033458,34.5097166 133.017879,32.1593334 C133.003597,29.9817057 133.003597,29.9817057 130.793208,29.9823552 C128.508816,29.9823552 128.508816,29.9823552 128.508166,32.2567519 C128.508166,34.4791921 128.508166,34.4791921 130.673114,34.4941296 M121.688744,34.4954285 C124.004946,34.4954285 124.004946,34.4954285 124.006244,32.6756514 C124.008192,29.9856024 124.005595,30.0550943 121.172662,29.9511812 C119.879536,29.9044204 119.391368,30.1505644 119.456933,31.5845644 C119.588713,34.4915318 119.496532,34.496078 121.688744,34.4954285 M119.499778,23.1760508 C130.151839,23.1916378 140.80325,23.217616 151.455961,23.2215128 C171.119656,23.2286568 190.783351,23.2338524 210.447047,23.1935861 C211.606446,23.1916378 211.930376,23.4533687 211.9122,24.6379774 C211.829757,30.1758932 211.85053,35.7157573 211.833652,41.254972 C178.817391,41.2523742 145.80178,41.2504258 112.78487,41.247828 C112.768641,35.526116 112.768641,29.805703 112.719305,24.0852899 C112.711515,23.2533361 113.088028,23.2059258 113.735889,23.2111215 C115.656753,23.2273579 117.578265,23.1909883 119.499778,23.1760508" id="Fill-305" fill="#00C1C7"></path>
                <path d="M137.523501,81.8560062 C137.523501,84.5304682 137.535186,87.2049302 137.514413,89.8793921 C137.509869,90.5256014 137.541028,90.8678649 138.328459,90.4697481 C143.762575,87.7238459 149.208375,85.0006747 154.65872,82.2878948 C155.453291,81.8936747 155.249455,81.6644166 154.619121,81.3507291 C149.21227,78.6567834 143.804121,75.9647861 138.412201,73.2377182 C137.61698,72.8357046 137.50078,73.0506747 137.510518,73.8326204 C137.543625,76.5070823 137.523501,79.1815443 137.523501,81.8560062 M166.818778,81.9261476 C166.768144,94.4392264 156.609444,104.438908 144.01315,104.379158 C131.711575,104.319408 121.676215,94.0839736 121.747623,81.6683133 C121.820329,69.1747182 132.012136,59.2023133 144.62336,59.2867427 C156.848984,59.3685742 166.868764,69.5897209 166.818778,81.9261476" id="Fill-307" fill="#F83932"></path>
                <path d="M188.256173,102.121712 C192.714601,102.121712 197.173679,102.150938 201.631458,102.099631 C202.612339,102.087941 202.900566,102.349022 202.892126,103.346587 C202.86616,106.619199 202.908355,106.626343 199.595694,106.627642 C191.381876,106.632837 183.168708,106.611405 174.95554,106.656867 C173.855864,106.662712 173.528038,106.375653 173.548162,105.25599 C173.604639,102.121063 173.552057,102.121063 176.710219,102.121712 C180.559087,102.123011 184.407305,102.122362 188.256173,102.121712" id="Fill-309" fill="#2D4A5F"></path>
                <path d="M188.222611,61.5458772 C183.810922,61.5478255 179.398584,61.5198989 174.987544,61.5679587 C173.94759,61.5796489 173.520443,61.3828636 173.544462,60.2028011 C173.608729,57.0354016 173.547059,57.0360511 176.677956,57.0367005 C184.891124,57.03735 193.104941,57.0594315 201.318109,57.0113717 C202.484,57.0042277 202.954641,57.179581 202.904655,58.5122658 C202.791052,61.5361353 202.873496,61.541331 199.909433,61.5432793 C196.013825,61.5452277 192.118218,61.5432793 188.222611,61.5458772" id="Fill-311" fill="#2D4A5F"></path>
                <path d="M188.218781,66.0540147 C192.629821,66.0540147 197.04151,66.0825908 201.451901,66.0325826 C202.489907,66.0208924 202.919651,66.2085853 202.902124,67.3905962 C202.856682,70.5852728 202.919002,70.5716342 199.766033,70.5677375 C191.554163,70.5579957 183.341645,70.5274712 175.130424,70.5950147 C173.786014,70.6060554 173.501682,70.1845582 173.543878,68.9434467 C173.641252,66.0696016 173.583476,66.0579114 176.393689,66.0514168 C180.335386,66.0423245 184.277084,66.048819 188.218781,66.048819 L188.218781,66.0540147 Z" id="Fill-313" fill="#2D4A5F"></path>
                <path d="M188.164252,75.0633405 C192.614241,75.0633405 197.065529,75.1055552 201.51422,75.0341149 C202.669724,75.0152807 202.906668,75.3971611 202.890439,76.4622698 C202.842401,79.5764139 202.886544,79.5764139 199.731628,79.5777128 C191.4873,79.5796611 183.242323,79.5562807 174.997995,79.6147318 C173.790558,79.6231747 173.524403,79.253634 173.549071,78.1151367 C173.615934,75.0724329 173.564002,75.071134 176.640369,75.071134 L188.164252,75.071134 L188.164252,75.0633405 Z" id="Fill-315" fill="#2D4A5F"></path>
                <path d="M188.22326,88.5947671 C183.81222,88.5947671 179.40118,88.566191 174.99079,88.6155497 C173.951485,88.6278894 173.523689,88.4388976 173.541216,87.2575361 C173.586657,84.063509 173.523689,84.0771476 176.677307,84.0810443 C184.889176,84.0901367 193.101695,84.1206611 201.312916,84.0537671 C202.657975,84.0420769 202.941008,84.4655226 202.898813,85.7053351 C202.802088,88.5791802 202.859214,88.5902209 200.049002,88.5973649 C196.107304,88.6064573 192.164958,88.5993133 188.22326,88.5993133 L188.22326,88.5947671 Z" id="Fill-317" fill="#2D4A5F"></path>
                <path d="M188.220079,93.1029046 C192.631768,93.1009562 197.043458,93.1282334 201.455147,93.0808231 C202.4951,93.0691329 202.922247,93.2652687 202.898229,94.4453312 C202.833962,97.6127307 202.895632,97.6127307 199.765384,97.6120812 C191.552216,97.6107823 183.338399,97.5893503 175.125231,97.6374101 C173.959989,97.6439046 173.48805,97.4698503 173.538035,96.136516 C173.652287,93.111997 173.569195,93.1068014 176.533258,93.1055024 C180.428865,93.1035541 184.324472,93.104853 188.220079,93.1029046" id="Fill-319" fill="#2D4A5F"></path>
                <path d="M121.688809,34.4951038 C119.496597,34.4957533 119.588778,34.4912071 119.456998,31.5848891 C119.391433,30.1508891 119.879601,29.9047451 121.172727,29.951506 C124.00566,30.0547696 124.008257,29.9859272 124.006309,32.6753266 C124.005011,34.4951038 124.005011,34.4951038 121.688809,34.4951038" id="Fill-321" fill="#FBFBFB"></path>
                <path d="M130.673049,34.4938698 C128.508101,34.4795818 128.508101,34.4795818 128.508101,32.2571416 C128.508751,29.9827448 128.508751,29.9827448 130.793143,29.9827448 C133.003532,29.9820954 133.003532,29.9820954 133.017814,32.1590736 C133.033393,34.5094568 133.033393,34.5094568 130.673049,34.4938698" id="Fill-323" fill="#FBFBFB"></path>
                <path d="M142.031461,32.2632465 C142.021723,34.4843878 142.021723,34.4843878 139.850933,34.4947791 C137.530187,34.5064693 137.530187,34.5064693 137.530187,32.1398497 C137.530187,29.9901486 137.530187,29.9901486 139.627622,29.9914476 L139.76849,29.9914476 C142.042496,29.9882003 142.042496,29.9882003 142.031461,32.2632465" id="Fill-325" fill="#FBFBFB"></path>
                <path d="M137.523501,81.8560062 C137.523501,79.1815443 137.543625,76.5070823 137.510518,73.8326204 C137.50078,73.0506747 137.61698,72.8357046 138.412201,73.2377182 C143.804121,75.9647861 149.21227,78.6567834 154.619121,81.3507291 C155.249455,81.6644166 155.453291,81.8936747 154.65872,82.2878948 C149.208375,85.0006747 143.762575,87.7238459 138.328459,90.4697481 C137.541028,90.8678649 137.509869,90.5256014 137.514413,89.8793921 C137.535186,87.2049302 137.523501,84.5304682 137.523501,81.8560062" id="Fill-327" fill="#FBFBFB"></path>
            </g>
        </g>
    </g>
</svg>