<?xml version="1.0" encoding="UTF-8"?>
<svg width="64px" height="60px" viewBox="0 0 64 60" version="1.1" xmlns="http://www.w3.org/2000/svg" xmlns:xlink="http://www.w3.org/1999/xlink">
    <!-- Generator: Sketch 53 (72520) - https://sketchapp.com -->
    <title>iconfinder_x-06_4306839</title>
    <desc>Created with Sketch.</desc>
    <g id="Page-1" stroke="none" stroke-width="1" fill="none" fill-rule="evenodd">
        <g id="bundle-copy" transform="translate(-576.000000, -894.000000)">
            <g id="iconfinder_x-06_4306839" transform="translate(576.000000, 894.000000)">
                <path d="M60.95,0.361 L2.983,0.361 C1.814,0.361 0.857,1.317 0.857,2.486 L0.857,50.276 C0.857,51.45 1.809,52.402 2.983,52.402 L22.059,52.402 L22.059,57.058 L19.478,57.058 C18.044,57.058 16.88,58.205 16.88,59.639 L47.594,59.639 C47.526,58.205 46.379,57.058 44.946,57.058 L42.011,57.058 L42.011,52.402 L61.019,52.402 C62.188,52.402 63.145,51.445 63.145,50.276 L63.145,2.554 C63.143,1.343 62.161,0.361 60.95,0.361 Z M32,50.429 C30.752,50.429 29.739,49.417 29.739,48.185 C29.739,46.937 30.751,45.925 32,45.925 C33.249,45.925 34.261,46.937 34.261,48.185 C34.261,49.416 33.248,50.429 32,50.429 Z M59.163,43.312 L4.837,43.312 L4.837,4.5 L59.163,4.5 L59.163,43.312 Z" id="Shape" fill="#2EA2DB" fill-rule="nonzero"></path>
                <rect id="Rectangle" fill="#FFFFFF" x="5" y="4" width="54" height="40"></rect>
                <rect id="Rectangle" fill="#FEAB4B" x="46" y="8" width="9" height="9"></rect>
                <rect id="Rectangle-Copy-4" fill="#FEAB4B" x="46" y="20" width="9" height="8"></rect>
                <rect id="Rectangle-Copy-5" fill="#FEAB4B" x="46" y="31" width="9" height="9"></rect>
                <g id="Group" transform="translate(7.000000, 7.000000)" fill="#4FBF9F" fill-rule="nonzero">
                    <path d="M12.331,11.456 C12.431,12.236 12.651,13.006 12.981,13.726 C13.311,14.456 13.751,15.126 14.291,15.696 L14.601,16.046 C15.181,16.676 16.011,17.046 16.871,17.046 L17.331,17.046 C18.201,17.046 19.031,16.676 19.611,16.046 L19.921,15.706 C20.681,14.876 21.241,13.896 21.581,12.816 C21.711,12.376 21.811,11.926 21.871,11.466 C21.911,11.196 21.921,10.916 21.931,10.596 L21.931,9.526 C21.931,9.076 21.871,8.636 21.741,8.216 C21.151,6.156 19.251,4.716 17.101,4.716 C14.961,4.716 13.051,6.156 12.461,8.216 C12.341,8.646 12.271,9.096 12.271,9.546 L12.271,10.516 C12.271,10.556 12.271,10.596 12.281,10.656 C12.281,10.916 12.301,11.186 12.331,11.456 Z M14.131,9.546 C14.131,9.266 14.171,8.996 14.241,8.726 C14.601,7.456 15.781,6.576 17.101,6.576 C18.421,6.576 19.601,7.456 19.961,8.726 C19.961,8.736 19.961,8.736 19.961,8.736 C20.041,8.986 20.071,9.256 20.071,9.526 L20.071,10.586 C20.071,10.826 20.061,11.026 20.031,11.226 C19.991,11.586 19.911,11.936 19.811,12.266 C19.551,13.086 19.131,13.826 18.551,14.456 L18.241,14.796 C18.011,15.046 17.681,15.186 17.331,15.186 L16.871,15.186 C16.531,15.186 16.201,15.046 15.971,14.796 L15.651,14.446 C15.251,14.006 14.921,13.506 14.661,12.956 C14.411,12.406 14.251,11.826 14.171,11.226 C14.151,11.016 14.131,10.816 14.131,10.616 L14.131,9.546 L14.131,9.546 Z" id="Shape"></path>
                    <path d="M31.871,0.056 L2.331,0.056 C1.501,0.056 0.831,0.726 0.831,1.556 L0.831,25.026 C0.831,25.846 1.501,26.526 2.331,26.526 L8.031,26.526 L26.171,26.526 L31.871,26.526 C32.701,26.526 33.371,25.846 33.371,25.026 L33.371,1.556 C33.371,0.726 32.701,0.056 31.871,0.056 Z M30.371,23.526 L26.151,23.526 C26.011,21.686 24.721,20.126 22.911,19.656 L21.121,19.016 L20.851,18.336 C20.711,17.996 20.431,17.726 20.071,17.606 C19.721,17.486 19.331,17.526 19.011,17.726 L17.101,18.876 L15.191,17.726 C14.871,17.526 14.481,17.486 14.131,17.606 C13.771,17.726 13.491,17.996 13.351,18.346 L13.081,19.016 L11.291,19.656 C9.481,20.126 8.191,21.686 8.051,23.526 L3.831,23.526 L3.831,3.056 L30.371,3.056 L30.371,23.526 Z" id="Shape"></path>
                </g>
                <path d="M9.331,40.82 C8.502,40.82 7.831,40.148 7.831,39.32 L7.831,37.161 C7.831,36.333 8.502,35.661 9.331,35.661 C10.16,35.661 10.831,36.333 10.831,37.161 L10.831,39.32 C10.831,40.148 10.16,40.82 9.331,40.82 Z" id="Path" fill="#F16051" fill-rule="nonzero"></path>
                <path d="M13.974,40.82 C13.145,40.82 12.474,40.148 12.474,39.32 L12.474,37.161 C12.474,36.333 13.145,35.661 13.974,35.661 C14.803,35.661 15.474,36.333 15.474,37.161 L15.474,39.32 C15.474,40.148 14.803,40.82 13.974,40.82 Z" id="Path" fill="#F16051" fill-rule="nonzero"></path>
                <path d="M33.21,40.82 C32.381,40.82 31.71,40.148 31.71,39.32 L31.71,37.161 C31.71,36.333 32.381,35.661 33.21,35.661 C34.039,35.661 34.71,36.333 34.71,37.161 L34.71,39.32 C34.71,40.148 34.039,40.82 33.21,40.82 Z" id="Path" fill="#F16051" fill-rule="nonzero"></path>
                <g id="Group" transform="translate(18.000000, 36.000000)" fill="#193651" fill-rule="nonzero">
                    <path d="M12.71,3.32 L12.71,1.161 C12.71,1.017 12.729,0.878 12.753,0.74 L1.55,0.74 C0.721,0.74 0.05,1.411 0.05,2.24 C0.05,3.069 0.721,3.74 1.55,3.74 L12.753,3.74 C12.729,3.603 12.71,3.464 12.71,3.32 Z" id="Path"></path>
                    <path d="M20.871,0.74 L17.668,0.74 C17.691,0.877 17.71,1.017 17.71,1.161 L17.71,3.32 C17.71,3.464 17.691,3.603 17.668,3.74 L20.871,3.74 C21.699,3.74 22.371,3.069 22.371,2.24 C22.371,1.411 21.699,0.74 20.871,0.74 Z" id="Path"></path>
                </g>
            </g>
        </g>
    </g>
</svg>