<?xml version="1.0" encoding="UTF-8"?>
<svg width="58px" height="56px" viewBox="0 0 58 56" version="1.1" xmlns="http://www.w3.org/2000/svg" xmlns:xlink="http://www.w3.org/1999/xlink">
    <!-- Generator: Sketch 53 (72520) - https://sketchapp.com -->
    <title>iconfinder_x-01_2039309</title>
    <desc>Created with Sketch.</desc>
    <g id="Page-1" stroke="none" stroke-width="1" fill="none" fill-rule="evenodd">
        <g id="bundle-copy" transform="translate(-191.000000, -896.000000)">
            <g id="iconfinder_x-01_2039309" transform="translate(184.000000, 889.000000)">
                <circle id="Oval" fill="#FFFFFF" cx="26" cy="26" r="14"></circle>
                <path d="M32.123,44.191 C31.278,42.829 30.432,41.467 29.586,40.105 C29.526,40.008 29.464,39.909 29.404,39.812 C28.3,40.093 27.144,40.242 25.952,40.242 C18.234,40.242 11.977,33.985 11.977,26.267 C11.977,18.549 18.234,12.292 25.952,12.292 C33.67,12.292 39.927,18.549 39.927,26.267 C39.927,27.603 39.739,28.895 39.389,30.119 C40.587,30.047 41.673,30.443 42.724,30.828 C42.857,30.877 42.992,30.926 43.127,30.974 C43.612,30.649 44.064,30.37 44.506,30.149 C44.767,28.896 44.905,27.597 44.905,26.267 C44.905,15.8 36.42,7.315 25.953,7.315 C15.486,7.315 7,15.8 7,26.267 C7,36.734 15.485,45.219 25.952,45.219 C28.113,45.219 30.189,44.857 32.123,44.191 Z" id="Path-Copy" fill="#F16051" fill-rule="nonzero" transform="translate(25.952500, 26.267000) rotate(64.000000) translate(-25.952500, -26.267000) "></path>
                <circle id="Oval" fill="#F16051" cx="26" cy="26" r="7"></circle>
                <path d="M64.903,51.345 C64.816,50.774 64.673,50.209 64.534,49.646 C63.105,43.864 59.874,38.847 56.58,33.881 C54.734,31.099 52.913,30.995 50.268,33.223 C46.925,30.966 46.481,30.976 43.437,33.117 C41.919,32.681 40.618,31.947 39.411,32.061 C38.202,32.175 37.087,33.137 35.817,33.786 C35.688,33.599 35.404,33.225 35.16,32.828 C33.864,30.714 32.585,28.592 31.286,26.48 C30.832,25.743 30.191,25.215 29.467,24.935 C28.744,24.655 27.939,24.622 27.158,24.873 C25.475,25.416 24.515,26.83 24.889,28.413 C25.045,29.073 25.421,29.707 25.79,30.304 C28.788,35.162 31.812,40.006 34.819,44.859 C35.639,46.183 36.428,47.523 37.232,48.855 C37.142,48.926 37.052,48.997 36.961,49.068 C35.807,48.659 34.672,48.195 33.495,47.854 C31.46,47.264 29.443,47.341 27.596,48.408 C26.133,49.253 26.115,50.412 27.477,51.4 C31.051,53.993 34.549,56.686 38.247,59.118 C39.795,60.136 41.767,60.607 43.559,61.299 C44.421,61.632 45.393,61.779 46.171,62.225 C47.231,62.832 48.106,62.834 49.188,62.263 C53.713,59.875 58.279,57.553 62.83,55.205 C64.808,54.185 65.222,53.43 64.903,51.345 Z" id="Path" fill="#FEC9A3" fill-rule="nonzero"></path>
                <g id="Group" transform="translate(7.000000, 7.000000)" fill="#F16051" fill-rule="nonzero">
                    <path d="M25.123,37.191 C24.278,35.829 23.432,34.467 22.586,33.105 C22.526,33.008 22.464,32.909 22.404,32.812 C21.3,33.093 20.144,33.242 18.952,33.242 C11.234,33.242 4.977,26.985 4.977,19.267 C4.977,11.549 11.234,5.292 18.952,5.292 C26.67,5.292 32.927,11.549 32.927,19.267 C32.927,20.603 32.739,21.895 32.389,23.119 C33.587,23.047 34.673,23.443 35.724,23.828 C35.857,23.877 35.992,23.926 36.127,23.974 C36.612,23.649 37.064,23.37 37.506,23.149 C37.767,21.896 37.905,20.597 37.905,19.267 C37.905,8.8 29.42,0.315 18.953,0.315 C8.486,0.315 0,8.8 0,19.267 C0,29.734 8.485,38.219 18.952,38.219 C21.113,38.219 23.189,37.857 25.123,37.191 Z" id="Path"></path>
                </g>
            </g>
        </g>
    </g>
</svg>