<?xml version="1.0" encoding="UTF-8"?>
<svg width="95px" height="108px" viewBox="0 0 95 108" version="1.1" xmlns="http://www.w3.org/2000/svg" xmlns:xlink="http://www.w3.org/1999/xlink">
    <!-- Generator: Sketch 53 (72520) - https://sketchapp.com -->
    <title>shopify_glyph</title>
    <desc>Created with Sketch.</desc>
    <g id="Page-1" stroke="none" stroke-width="1" fill="none" fill-rule="evenodd">
        <g id="bundle-copy" transform="translate(-204.000000, -2367.000000)" fill-rule="nonzero">
            <g id="shopify_glyph" transform="translate(204.000000, 2367.000000)">
                <path d="M82.8227273,20.9088 C82.7363636,20.3904 82.3045455,20.0448 81.8727273,20.0448 C81.4409091,20.0448 73.2363636,19.44 73.2363636,19.44 C73.2363636,19.44 67.5363636,13.7376 66.8454545,13.1328 C66.2409091,12.528 64.9454545,12.7008 64.5136364,12.8736 C64.4272727,12.8736 63.2181818,13.2192 61.3181818,13.824 C59.4181818,8.2944 56.05,3.1968 50.0909091,3.1968 C49.9181818,3.1968 49.7454545,3.1968 49.5727273,3.1968 C47.8454545,0.9504 45.7727273,1.13686838e-13 43.9590909,1.13686838e-13 C30.0545455,1.13686838e-13 23.4045455,17.3664 21.3318182,26.1792 C15.9772727,27.8208 12.0909091,29.0304 11.6590909,29.2032 C8.63636364,30.1536 8.55,30.24 8.20454545,33.0912 C7.85909091,35.1648 -9.09494702e-13,96.0768 -9.09494702e-13,96.0768 L61.3181818,107.568 L94.5681818,100.3968 C94.5681818,100.3968 82.9090909,21.5136 82.8227273,20.9088 Z M57.8636364,14.8608 C56.3090909,15.3792 54.5818182,15.8976 52.6818182,16.5024 C52.6818182,16.1568 52.6818182,15.8112 52.6818182,15.3792 C52.6818182,11.9232 52.1636364,9.1584 51.4727273,6.9984 C54.5818182,7.344 56.5681818,10.8 57.8636364,14.8608 Z M47.6727273,7.6032 C48.5363636,9.7632 49.0545455,12.7872 49.0545455,16.9344 C49.0545455,17.1072 49.0545455,17.3664 49.0545455,17.5392 C45.6863636,18.576 41.9727273,19.6992 38.3454545,20.8224 C40.4181818,12.96 44.3045455,9.072 47.6727273,7.6032 Z M43.5272727,3.7152 C44.1318182,3.7152 44.7363636,3.888 45.3409091,4.32 C40.9363636,6.3936 36.1,11.664 34.1136364,22.2048 C31.1772727,23.1552 28.3272727,24.0192 25.65,24.7968 C27.9818182,16.7616 33.5954545,3.7152 43.5272727,3.7152 Z" id="Shape" fill="#95BF47"></path>
                <path d="M81.8727273,20.0448 C81.4409091,20.0448 73.2363636,19.44 73.2363636,19.44 C73.2363636,19.44 67.5363636,13.7376 66.8454545,13.1328 C66.5863636,12.8736 66.3272727,12.7872 65.9818182,12.7008 L61.3181818,107.568 L94.5681818,100.3968 C94.5681818,100.3968 82.9090909,21.5136 82.8227273,20.9952 C82.7363636,20.3904 82.2181818,20.1312 81.8727273,20.0448 Z" id="Path" fill="#5E8E3E"></path>
                <path d="M50.0045455,38.448 L45.9454545,50.6304 C45.9454545,50.6304 42.3181818,48.7296 38,48.7296 C31.5227273,48.7296 31.2636364,52.7904 31.2636364,53.8272 C31.2636364,59.3568 45.7727273,61.5168 45.7727273,74.5632 C45.7727273,84.8448 39.2954545,91.4112 30.4863636,91.4112 C19.95,91.4112 14.5954545,84.8448 14.5954545,84.8448 L17.4454545,75.5136 C17.4454545,75.5136 22.9727273,80.2656 27.6363636,80.2656 C30.6590909,80.2656 31.9545455,77.8464 31.9545455,76.1184 C31.9545455,68.8608 20.0363636,68.5152 20.0363636,56.592 C20.0363636,46.5696 27.2045455,36.8064 41.8,36.8064 C47.2409091,36.8064 50.0045455,38.448 50.0045455,38.448 Z" id="Path" fill="#FFFFFF"></path>
            </g>
        </g>
    </g>
</svg>