<?xml version="1.0" encoding="utf-8"?>
<!-- Generator: Adobe Illustrator 23.0.2, SVG Export Plug-In . SVG Version: 6.00 Build 0)  -->
<svg version="1.1" id="Layer_1" xmlns="http://www.w3.org/2000/svg" xmlns:xlink="http://www.w3.org/1999/xlink" x="0px" y="0px"
	 viewBox="0 0 905.7 256.5" style="enable-background:new 0 0 905.7 256.5;" xml:space="preserve">
<style type="text/css">
	.st0{fill:#FFFFFF;}
	.st1{enable-background:new    ;}
</style>
<title>zeroup_logo</title>
<g>
	<g id="Layer_1-2">
		<polygon class="st0" points="0,53.3 0,89 68.7,89 0,181.1 0,214.5 125.1,214.5 125.1,177.9 53.6,177.9 123,86.3 123,53.3 		"/>
		<path class="st0" d="M280.6,97.5v117.3h36.2v-74.9c0,0,13-13.8,35.9-10.3V94.5c0,0-24.3,3.4-35.7,17V97.6L280.6,97.5z"/>
		<path class="st0" d="M202.8,95.3c-57.7,0-62.3,52.5-62.3,62.9s7.3,58.9,63.5,58.9c28.1,0,46.7-13.4,48.2-14.9l-14.6-22
			c0,0-14.7,9.4-30.6,9.4s-25.6-11.3-28.4-21.9l82.5-0.4C261.1,167.3,268.4,95.3,202.8,95.3z M177.7,143.8c0,0,3.1-21.7,24.5-21.7
			s25.9,21.7,25.9,21.7H177.7z"/>
		<path class="st0" d="M427.5,92.5c-35.2,0-63.8,28.1-63.8,62.8s28.6,62.7,63.8,62.7s63.9-28.1,63.9-62.7S462.8,92.5,427.5,92.5z
			 M427.4,185.4c-14.4,0-26.1-13.1-26.1-29.2S413,127,427.4,127s26.1,13.1,26.1,29.2S441.8,185.4,427.4,185.4z"/>
		<path class="st0" d="M548.5,51.3h43v96.2c0,16.5,11.3,31.8,33.3,31.8S659,163.1,659,149V51.3h-25.6l47-51.3l47.3,51h-25.6v92.5
			c0,28.4-10.7,71.5-76.7,71.5s-77.1-44.9-77.1-64.5S548.5,51.3,548.5,51.3z"/>
		<path class="st0" d="M801.4,92.8c-28.2,0-51.1,27.4-51.1,61.3s22.9,61.2,51.1,61.2s51-20.2,51-61.2S829.6,92.8,801.4,92.8z
			 M789.2,182.9c-15.2,0-27.6-12.9-27.6-28.8s12.4-28.9,27.6-28.9s27.7,12.9,27.7,28.9S804.5,182.9,789.2,182.9z"/>
		<rect x="729.5" y="95.3" class="st0" width="36.3" height="161.2"/>
		<g class="st1">
			<path class="st0" d="M856,76.4v-22h-8v-5.2h22.9v5.2h-8v22H856z"/>
			<path class="st0" d="M902.2,76.4h-6.8v-18L890.5,70h-4.7l-4.9-11.6v18h-6.4V49.2h7.9l6,13.4l6-13.4h7.9V76.4z"/>
		</g>
	</g>
</g>
</svg>
