<svg xmlns="http://www.w3.org/2000/svg" xmlns:xlink="http://www.w3.org/1999/xlink" viewBox="0 0 120 65.63"><defs><style>.cls-1{fill:url(#New_Gradient_Swatch_1);}.cls-2{fill:url(#linear-gradient);}</style><linearGradient id="New_Gradient_Swatch_1" x1="48" y1="54.42" x2="48" y2="-11.15" gradientUnits="userSpaceOnUse"><stop offset="0" stop-color="#fff" stop-opacity="0"/><stop offset="0.02" stop-color="#fcfdfd" stop-opacity="0.04"/><stop offset="0.16" stop-color="#ecf0f2" stop-opacity="0.29"/><stop offset="0.31" stop-color="#dde5e9" stop-opacity="0.51"/><stop offset="0.45" stop-color="#d1dbe1" stop-opacity="0.68"/><stop offset="0.59" stop-color="#c8d4db" stop-opacity="0.82"/><stop offset="0.73" stop-color="#c1cfd6" stop-opacity="0.92"/><stop offset="0.87" stop-color="#bdccd4" stop-opacity="0.98"/><stop offset="1" stop-color="#bccbd3"/></linearGradient><linearGradient id="linear-gradient" x1="-15.32" y1="-18.21" x2="128.68" y2="97.82" gradientUnits="userSpaceOnUse"><stop offset="0" stop-color="#52e5e7"/><stop offset="1" stop-color="#130cb7"/></linearGradient></defs><title>IA_Icon_Primary</title><g id="Layer_2" data-name="Layer 2"><g id="IA_Icon"><g id="IA_Icon_Primary"><path class="cls-1" d="M49.61,47.57,73.61,6A12,12,0,0,1,90,1.61h0A12,12,0,0,1,94.4,18l-24,41.57A12,12,0,0,1,54,64h0A12,12,0,0,1,49.61,47.57ZM6,64H6a12,12,0,0,0,16.39-4.39L46.39,18A12,12,0,0,0,42,1.61h0A12,12,0,0,0,25.61,6l-24,41.57A12,12,0,0,0,6,64Z"/><path class="cls-2" d="M70.41,59.61A12,12,0,1,1,66,43.23,12,12,0,0,1,70.41,59.61ZM12,41.57a12,12,0,1,0,12,12A12,12,0,0,0,12,41.57Zm106.39,6.06-24-41.57A12,12,0,0,0,78,1.67h0a12,12,0,0,0-4.39,16.39l24,41.57A12,12,0,0,0,114,64h0A12,12,0,0,0,118.39,47.63ZM42,1.66A12,12,0,1,0,46.4,18,12,12,0,0,0,42,1.66Z"/></g></g></g></svg>