<?xml version="1.0" encoding="UTF-8"?>
<svg width="120px" height="51px" viewBox="0 0 120 51" version="1.1" xmlns="http://www.w3.org/2000/svg" xmlns:xlink="http://www.w3.org/1999/xlink">
    <!-- Generator: Sketch 52.2 (67145) - http://www.bohemiancoding.com/sketch -->
    <title>logo-color</title>
    <desc>Created with Sketch.</desc>
    <g id="Page-1" stroke="none" stroke-width="1" fill="none" fill-rule="evenodd">
        <g id="optin-copy" transform="translate(-580.000000, -166.000000)">
            <g id="logo-color" transform="translate(580.000000, 166.000000)">
                <g id="Group">
                    <path d="M50.0787402,42.1831978 C50.0787402,46.5435874 46.5544787,50.0783816 42.2070819,50.0783816 L7.94662643,50.0783816 C5.84597391,50.0984485 3.82447348,49.2755041 2.33199717,47.7926893 C0.83952085,46.3098746 -9.52741898e-05,44.290224 2.20268248e-13,42.1831978 L2.20268248e-13,7.89554237 C-9.52741898e-05,5.7885162 0.83952085,3.76886556 2.33199717,2.28605082 C3.82447348,0.803236071 5.84597391,-0.0197083563 7.94662643,0.000358561849 L42.2070819,0.000358561849 C46.5544787,0.000358561849 50.0787402,3.53515276 50.0787402,7.89554237 L50.0787402,42.1831978 Z" id="Path" fill="#4E69A2"></path>
                    <path d="M43.4645669,12.2834646 L43.4645669,34.5854377 L39.8568361,34.5854377 L39.5623274,32.4438575 C38.4405964,34.0951252 36.5457901,35.0453648 34.5556805,34.9546757 C29.9171694,34.9546757 26.4566929,31.9269244 26.4566929,26.7575928 C26.4566929,21.5882613 29.8435423,18.4866624 34.4084262,18.4866624 C36.1018509,18.4866624 38.6788015,19.3728335 39.5623274,20.9974806 L39.5623274,12.2834646 L43.4645669,12.2834646 Z M30.2853052,26.7575928 C30.2447757,27.9710323 30.702467,29.1479948 31.55143,30.0134586 C32.400393,30.8789224 33.5662456,31.3570597 34.776562,31.3361436 C35.9994927,31.3777593 37.1848525,30.9087546 38.0500926,30.040924 C38.9153327,29.1730935 39.3829374,27.9841848 39.341446,26.7575928 C39.3819507,25.5245663 38.9164921,24.3288342 38.0537271,23.449529 C37.1909621,22.5702237 36.0063987,22.0843008 34.776562,22.1051945 C33.5462128,22.0604388 32.3547147,22.5414209 31.4983072,23.4285555 C30.6418996,24.3156901 30.201028,25.5256453 30.2853052,26.7575928 Z" id="Shape" fill="#FFFFFF" fill-rule="nonzero"></path>
                    <path d="M19.7160083,18.3215293 L23.6220472,18.3215293 L23.6220472,34.4475299 L19.7160083,34.4475299 L19.565776,32.1019298 C18.5892663,34.0077299 16.0353178,34.9606299 14.1574144,34.9606299 C9.27486575,34.9606299 5.66929134,32.0286298 5.66929134,26.3845296 C5.66929134,20.7404294 9.42509801,17.8817293 14.3076467,17.9550293 C16.3894493,17.8995603 18.3621692,18.8620724 19.565776,20.5205294 L19.7160083,18.3215293 Z M9.72556255,26.3845296 C9.63822718,27.6983999 10.1297715,28.9861732 11.0766373,29.9241456 C12.0235031,30.862118 13.3356428,31.3610876 14.6832274,31.2956298 C21.0680987,31.2956298 21.0680987,21.4734294 14.6832274,21.4734294 C13.3356428,21.4079716 12.0235031,21.9069412 11.0766373,22.8449136 C10.1297715,23.7828861 9.63822718,25.0706594 9.72556255,26.3845296 Z" id="Shape" fill="#FFFFFF" fill-rule="nonzero"></path>
                </g>
                <path d="M59.1082677,14.1732283 L59.1082677,18.7658219 L63.6377953,18.7658219 L63.6377953,22.1538008 L59.0314961,22.1538008 L59.0314961,29.0803354 C58.9636082,29.6707572 59.1625249,30.2607518 59.5759204,30.6951182 C59.9893158,31.1294845 60.5758026,31.3647358 61.1811024,31.338988 C61.8720029,31.3322703 62.5531295,31.178124 63.1771654,30.8872575 L64.2519685,34.2752364 C63.2000675,34.6874506 62.0829637,34.9167457 60.9507874,34.9528322 C57.3425197,35.103409 55.0393701,33.0706217 55.0393701,29.0803354 L55.0393701,22.1538008 L51.9685039,22.1538008 L51.9685039,18.7658219 L55.0393701,18.7658219 L55.0393701,14.6249589 L59.1082677,14.1732283 Z" id="Path" fill="#FFFFFF"></path>
                <path d="M70.6692913,19.2679573 L70.9617548,21.1098203 C72.1316085,19.1206082 73.7401575,18.8995847 75.3487064,18.8995847 C76.8257437,18.8613397 78.2624226,19.3877602 79.3700787,20.3730751 L77.6152981,23.762103 C76.8570175,23.0681298 75.8607506,22.6982796 74.8368954,22.7306597 C72.7896513,22.7306597 70.9617548,23.8357775 70.9617548,26.7090837 L70.9617548,34.9606299 L67.0866142,34.9606299 L67.0866142,19.2679573 L70.6692913,19.2679573 Z" id="Path" fill="#FFFFFF"></path>
                <rect id="Rectangle" fill="#FFFFFF" x="82.2047244" y="18.8976378" width="3.77952756" height="16.0629921"></rect>
                <path d="M103.937008,33.3451296 C102.390935,35.0341743 100.224296,35.9639117 97.9769836,35.9026661 C93.5433071,35.9026661 89.7637795,33.1194646 89.7637795,27.4026185 C89.7637795,21.6857723 93.5433071,18.9025709 97.9769836,18.9025709 C100.092186,18.8233156 102.135698,19.7022271 103.573592,21.309664 L101.175045,23.9424221 C100.331557,23.1150291 99.2118137,22.6568792 98.0496669,22.6636539 C96.8417032,22.6412407 95.6788848,23.1384499 94.8384765,24.0367259 C93.9980682,24.9350018 93.5553883,26.1538402 93.6159903,27.4026185 C93.6159903,30.4867065 95.5784373,32.0663614 97.9769836,32.0663614 C99.2451712,32.1080944 100.476275,31.6201411 101.393095,30.7123715 L103.937008,33.3451296 Z" id="Path" fill="#FFFFFF"></path>
                <path d="M117.090758,23.6275106 C116.019903,22.6344412 114.592784,22.1209811 113.137174,22.2050592 C111.272275,22.2050592 110.302528,22.8039861 110.302528,23.7772423 C110.302528,24.7504985 111.197679,25.4242912 113.21177,25.4991571 C115.22586,25.574023 120,26.3975474 120,30.6649015 C120,33.4349384 117.762122,35.9055118 113.21177,35.9055118 C110.675508,35.9055118 108.139246,35.4563166 105.826772,33.0606091 L107.766266,30.2157064 C108.885205,31.488426 111.496063,32.3868163 113.286366,32.4616822 C115.076668,32.5365481 116.121011,31.7130236 116.121011,30.5151698 C116.121011,29.317316 115.22586,29.0178526 112.987982,28.8681209 C110.750104,28.7183891 106.423539,27.5205354 106.423539,23.926974 C106.423539,20.3334127 110.227932,18.9109613 113.137174,18.9109613 C115.39254,18.7865551 117.609249,19.5370665 119.328637,21.0072054 L117.090758,23.6275106 Z" id="Path" fill="#FFFFFF"></path>
                <path d="M86.9291339,14.6456693 C86.9291339,17.7952756 82.2047244,17.7952756 82.2047244,14.6456693 C82.2047244,11.496063 86.9291339,11.496063 86.9291339,14.6456693 Z" id="Path" fill="#4E69A2"></path>
                <path d="M91.6535433,7.57740234 C91.6535433,10.0726244 87.8740157,10.0726244 87.8740157,7.57740234 C87.8740157,6.52358173 88.7200918,5.66929134 89.7637795,5.66929134 C90.8074672,5.66929134 91.6535433,6.52358173 91.6535433,7.57740234 Z" id="Path" fill="#4E69A2"></path>
                <path d="M77.480315,14.6456693 C77.2945484,15.471127 76.505395,16.0629921 75.5905512,16.0629921 C74.6757074,16.0629921 73.8865539,15.471127 73.7007874,14.6456693 C73.8865539,13.8202115 74.6757074,13.2283465 75.5905512,13.2283465 C76.505395,13.2283465 77.2945484,13.8202115 77.480315,14.6456693 Z" id="Path" fill="#4E69A2"></path>
                <path d="M81.2598425,9.92125984 C81.074076,10.7467176 80.2849225,11.3385827 79.3700787,11.3385827 C78.455235,11.3385827 77.6660815,10.7467176 77.480315,9.92125984 C77.6660815,9.0958021 78.455235,8.50393701 79.3700787,8.50393701 C80.2849225,8.50393701 81.074076,9.0958021 81.2598425,9.92125984 Z" id="Path" fill="#4E69A2"></path>
                <polygon id="Path" fill="#4E69A2" points="84.2834646 15.1181102 79.6724409 9.94488189 76.5732283 14.5511811 75.5905512 13.984252 79.5968504 8.17322835 84.207874 13.4173228 89.8015748 6.61417323 90.7086614 7.2519685 84.2834646 15.1181102"></polygon>
            </g>
        </g>
    </g>
</svg>