<?xml version="1.0" encoding="UTF-8"?>
<svg width="80px" height="84px" viewBox="0 0 80 84" version="1.1" xmlns="http://www.w3.org/2000/svg" xmlns:xlink="http://www.w3.org/1999/xlink">
    <!-- Generator: Sketch 53 (72520) - https://sketchapp.com -->
    <title>Group 62</title>
    <desc>Created with Sketch.</desc>
    <defs>
        <polygon id="path-1" points="0.00827698574 0.00134137156 27.0789409 0.00134137156 27.0789409 29.4680071 0.00827698574 29.4680071"></polygon>
    </defs>
    <g id="Page-1" stroke="none" stroke-width="1" fill="none" fill-rule="evenodd">
        <g id="Desktop-HD-Copy-3" transform="translate(-1067.000000, -747.000000)">
            <g id="Group-62" transform="translate(1067.000000, 747.000000)">
                <path d="M43.2012383,83.4215886 L36.6839267,83.4215886 C36.6022974,83.2894501 36.4686925,83.2733198 36.3319919,83.2637067 C34.8216049,83.1592668 33.3332138,82.9111202 31.8523177,82.6035031 C26.4377352,81.4782892 21.4656782,79.3248065 16.9395682,76.1546232 C15.9710957,75.4761711 14.9851894,74.8050509 14.166778,73.9330346 C14.1762281,65.8478208 14.1895886,57.7626069 14.1876334,49.6773931 C14.1874705,49.0997963 14.0419715,48.5617923 13.3858411,48.3157637 C12.7719104,48.0858656 12.4170428,48.4400815 12.0471853,48.809613 C9.36091242,51.4953971 6.67170672,54.1784114 3.99129939,56.8697352 C3.60596334,57.2565377 3.21134012,57.6187373 2.71602444,57.8579226 C2.39032179,57.5025662 2.36669654,57.0224033 2.21305092,56.5995927 C0.391788187,51.5869654 -0.192162933,46.3939715 0.0532138493,41.0963747 C0.0861262729,40.38778 0.0625010183,39.6446436 0.330688391,38.9544603 C0.531095723,38.7752342 0.740627291,38.6051324 0.930769857,38.4154786 C3.48213442,35.871446 6.03349898,33.3275764 8.57834623,30.7771894 C9.89712424,29.4556415 11.4387943,28.4813035 13.3164318,28.3887576 C15.7754134,28.2676986 18.2440081,28.3468839 20.7083666,28.3400407 C20.3337841,28.6421181 19.9561059,28.9404481 19.5860855,29.2482281 C19.4034379,29.4002444 19.2276334,29.5266802 19.3032342,29.8484725 C19.4914216,30.6505906 19.6058004,31.4706314 19.9891813,32.2541752 C20.1337026,32.1621181 20.2803422,32.0910794 20.4005866,31.9890835 C23.8402607,29.0639511 27.7506477,27.6923829 32.2868595,28.3778411 C32.4010754,29.3627699 31.9598534,30.2843177 31.9587128,31.2562118 C30.8501181,31.2614257 29.7408717,31.2452953 28.6330916,31.2793483 C27.8865336,31.3021589 27.3975723,31.8199593 27.398387,32.4961303 C27.3993646,33.2131976 27.9191202,33.7106314 28.7039674,33.7267617 C29.6779796,33.7469654 30.6519919,33.7547862 31.6260041,33.7678208 C30.8959022,33.8160489 30.4680407,34.2264766 30.0597312,34.8272098 C29.216554,36.0676171 28.0629898,37.0025255 26.7419308,37.7221996 C26.4861263,37.8616701 26.1899145,37.9700204 26.1638452,38.3970672 C27.1471446,39.052057 28.2956578,39.1723014 29.4405866,39.2597963 C30.8812383,39.3701018 32.2692627,38.9370265 33.6848228,38.7801222 C33.0275519,40.0275356 32.799609,41.3358859 32.9216456,42.75389 C33.1407902,45.3015071 35.6908513,47.8745418 38.244334,48.0663136 C41.1807088,48.2867617 43.3718289,47.2066802 44.6721955,44.4998778 C46.312277,41.0225662 44.5177352,37.1750713 40.6725214,35.9232587 C40.5899145,35.6179226 40.8325214,35.4390224 40.959446,35.2231365 C41.4163096,34.4464358 41.8901181,33.6796741 42.3575723,32.909165 C43.3297923,31.5366191 44.1035601,30.1049287 43.7172464,28.3287984 C45.5064114,28.3718126 47.3198534,28.17222 49.0454745,28.8575153 C50.4968798,29.5872912 51.6170428,30.7375967 52.7986314,31.8103462 C54.1856782,33.2158045 55.5960244,34.5992668 56.9550468,36.031446 C59.7855153,39.0142566 62.7230305,41.8892057 65.662664,44.7631772 C66.2458004,45.3578819 66.8290998,45.951446 67.4114216,46.5461507 C68.2233157,47.3751527 68.2275519,47.9265173 67.4264114,48.7367821 C66.8414827,49.328391 66.2544358,49.9177189 65.6685295,50.5081874 C63.3776945,52.7247251 61.0865336,54.9407739 58.7961874,57.1579633 C58.0232342,57.9061507 57.3970835,57.9156008 56.6299959,57.1724644 C55.7379389,56.3081059 54.8530509,55.4365784 53.9650672,54.5683096 C52.0025418,52.5831365 50.0416456,50.5961711 48.0756986,48.6144196 C47.7257189,48.2615071 47.3169206,48.1094908 46.8209532,48.3186965 C46.2998941,48.5383299 46.0985092,48.9376782 46.1218086,49.4807332 C46.1286517,49.6431772 46.1205051,49.80611 46.1205051,49.9688798 C46.1232749,60.9507128 46.1258819,71.9325458 46.1288147,82.9145418 C45.8410754,83.0854582 45.5156986,83.054664 45.2022159,83.1019145 C44.5345173,83.2022811 43.8428676,83.1600815 43.2012383,83.4215886" id="Fill-1" fill="#00E3F6"></path>
                <path d="M50.6961466,0 C52.0890591,0.383543788 53.3939878,0.920081466 54.4036823,2.01727088 C55.7121955,3.43885947 56.1993646,5.13352342 56.1222974,7.02598778 C55.7749246,9.15258656 54.8002607,10.8588187 52.8496293,11.9113646 C51.5909735,11.4940937 51.5479593,11.4250102 51.492888,9.73832994 C52.9024196,8.8601222 53.693947,7.66386965 53.4511772,5.93498982 C53.4255967,5.72480652 53.4251079,5.50761711 53.3703625,5.30541752 C52.8279593,3.30443992 50.1382648,1.52244399 47.4402607,3.39454175 C46.5467373,2.97808554 46.0970428,2.24977597 45.965556,1.29775967 C46.7460041,0.555437882 47.8110957,0.422484725 48.7409532,0 L50.6961466,0 Z" id="Fill-3" fill="#FDCC00"></path>
                <path d="M53.4511935,5.93495723 C53.6939633,7.66383707 52.9024358,8.86008961 51.4927413,9.73829735 C49.180888,10.3092138 48.2365295,11.7110876 48.4110305,13.9729206 C48.4444318,14.4037149 48.4064684,14.8398859 48.4015804,15.2734501 C48.2283829,15.2859959 48.121499,15.4007006 47.990664,15.501556 C45.4394623,17.4671772 42.8809287,19.4235112 40.3238615,21.3818004 C38.4783218,21.3708839 36.6326191,21.3627373 34.7869165,21.3482363 C33.6700122,21.3394379 32.5659796,21.4207413 31.4971405,21.7767495 C31.4872016,21.3510061 31.5072424,20.9220041 31.4606436,20.5004969 C31.3907454,19.8691324 31.6108676,19.5157312 32.2531487,19.3526354 C32.6733523,19.2457515 33.1158778,19.0989491 33.4241466,18.7393564 C36.4750631,17.0088473 37.4093198,12.9325947 35.4617841,9.84876578 C33.5975071,6.89723829 29.4417434,6.07719756 26.5570183,8.09186151 C24.9301344,9.164611 24.0165703,10.674835 23.8168147,12.6088473 C23.7387699,13.3643666 23.614778,14.0771976 23.1430876,14.7230631 C22.6494012,15.3990713 22.7649206,16.047055 23.343332,16.5161385 C23.8803585,16.9514949 24.6133931,16.8817597 25.16378,16.3527169 C25.9439022,15.6029002 26.3632912,14.6443666 26.3748595,13.6097434 C26.3916415,12.1275438 27.0189328,11.0324725 28.111723,10.1288473 C30.470501,8.85096538 32.5830876,10.0011079 33.428057,11.5321874 C34.4234134,13.3352016 33.842558,15.3819633 31.9595438,16.6321466 C31.8096456,16.6854257 31.6615397,16.7447332 31.5093605,16.791332 C29.6077719,17.373165 28.6872016,18.5311283 28.8121711,20.7080733 C28.8423136,21.232391 28.9519674,21.7848961 28.6914379,22.296668 C28.470664,22.4483585 28.2428839,22.5905988 28.0302566,22.7527169 C25.58822,24.6134094 23.1487902,26.4770346 20.7083829,28.3400081 C18.2440244,28.3470143 15.7754297,28.267666 13.3164481,28.388888 C11.4386477,28.4812709 9.89714053,29.455609 8.57836253,30.7771568 C6.03351527,33.3275438 3.48198778,35.8714134 0.930786151,38.415609 C0.740643585,38.6052627 0.531112016,38.7753646 0.330704684,38.9544277 C0.642720978,35.2530835 1.57730346,31.6947943 3.0448391,28.3035112 C8.0058167,16.8385825 16.4344929,9.13300204 28.3463462,5.31776782 C33.3915601,3.70196334 38.5816212,3.28192261 43.8497271,3.78864358 C43.6916823,4.49512016 43.4617841,5.1949165 43.3959593,5.91002851 C43.3343707,6.57772709 43.1888717,7.16053768 42.788057,7.71125051 C42.3170183,8.35825662 42.4496456,9.14587373 43.0236578,9.58057841 C43.5606843,9.98709572 44.3150631,9.91019145 44.8403585,9.34823625 C45.5217434,8.61976375 45.8971405,7.75801222 45.9815397,6.74505906 C46.0566517,5.8429002 46.1009695,4.905222 46.8009287,4.19255397 C49.0710713,4.56958045 51.2763666,5.19410183 53.4511935,5.93495723" id="Fill-5" fill="#410292"></path>
                <g id="Group-9" transform="translate(52.790224, 21.344196)">
                    <mask id="mask-2" fill="white">
                        <use xlink:href="#path-1"></use>
                    </mask>
                    <g id="Clip-8"></g>
                    <path d="M24.51011,8.19468839 C25.5173605,10.6259715 26.1335723,13.1703299 26.536668,15.7555845 C27.0459959,19.0240163 27.256668,22.319169 26.9047332,25.6239348 C26.8198452,26.4226314 26.8327169,27.2382729 26.5861996,28.0167658 C26.4015967,28.1728554 26.2077067,28.319332 26.0340204,28.486664 C24.6702729,29.8008798 24.4183788,29.8002281 23.0696212,28.4537515 C20.3862811,25.7751365 17.7044073,23.0953809 15.0209043,20.4174175 C14.6389898,20.0363177 14.2218819,19.756888 13.6478697,19.9985173 C13.0644073,20.2438941 12.8890916,20.7155845 12.8936538,21.3073564 C12.8993564,22.0110631 12.8806191,22.7147699 12.8723096,23.4186395 C9.9328391,20.5449939 6.99532383,17.6700448 4.1648554,14.6872342 C2.80583299,13.255055 1.39548676,11.8715927 0.00827698574,10.4658086 C0.390517312,10.3393727 0.786769857,10.2445458 1.1527169,10.0814501 C3.95336864,8.8317556 6.02440733,6.87281466 7.07239104,3.93252953 C7.55695316,3.09049287 7.58318534,2.1216945 7.8254664,1.2123666 C7.83817515,0.819698574 7.85088391,0.427356415 7.86342974,0.0348513238 C9.51426477,0.0260529532 11.1664033,-0.0260855397 12.815609,0.0203503055 C14.7009043,0.0736293279 16.4578086,0.579535642 17.8543055,1.92731568 C19.8595193,3.86263136 21.8270957,5.83656212 23.8246517,7.78002444 C24.0087658,7.95925051 24.114835,8.33855804 24.51011,8.19468839" id="Fill-7" fill="#5482FE" mask="url(#mask-2)"></path>
                </g>
                <path d="M65.6950224,73.9579633 C65.1245947,74.6191446 64.3684236,75.0554786 63.6801955,75.5639919 C60.7927006,77.696945 57.6933931,79.4571079 54.3135153,80.6986558 C53.2821507,79.4764969 52.6719674,78.0604481 52.6639837,76.4692464 C52.6336782,70.3920163 52.6281385,64.3142974 52.6773442,58.2372301 C52.6880978,56.9124236 53.0129857,55.607169 53.965002,54.5683096 C54.8529857,55.4365784 55.7380367,56.3081059 56.6299308,57.1724644 C57.3970183,57.9156008 58.023169,57.9061507 58.7961222,57.1579633 C61.0864684,54.9407739 63.3776293,52.7247251 65.6684644,50.5080244 C65.6746558,50.8334012 65.6858982,51.1589409 65.6860611,51.4843177 C65.6898086,58.9756415 65.6922525,66.4666395 65.6950224,73.9579633" id="Fill-10" fill="#5482FE"></path>
                <path d="M65.6950224,73.9579633 C65.6922525,66.4666395 65.6898086,58.9756415 65.6860611,51.4843177 C65.6858982,51.1589409 65.6746558,50.8334012 65.6684644,50.5080244 C66.2545336,49.9177189 66.8414175,49.328391 67.4263462,48.7367821 C68.2274868,47.9265173 68.2234134,47.3751527 67.4113564,46.5461507 C66.8290346,45.951446 66.2457352,45.3578819 65.6627617,44.7631772 C65.6709084,44.0589817 65.6896456,43.3552749 65.683943,42.6514053 C65.6792179,42.0597963 65.8545336,41.5881059 66.4381589,41.3427291 C67.0121711,41.1010998 67.429279,41.3805295 67.8110305,41.7616293 C70.4946965,44.4395927 73.1765703,47.1193483 75.8599104,49.7979633 C77.2085051,51.144277 77.4605621,51.1450916 78.8241466,49.8308758 C78.997833,49.6635438 79.1918859,49.5170672 79.3764888,49.3609776 C79.0441059,52.4487169 78.1748595,55.4018737 77.0287902,58.2686762 C74.6256945,64.2804073 70.9805621,69.4246843 66.0803585,73.6685947 C65.9592994,73.7733605 65.8237393,73.861833 65.6950224,73.9579633" id="Fill-12" fill="#410292"></path>
                <path d="M53.9649857,54.5683259 C53.0129695,55.6071853 52.6880815,56.9124399 52.6774908,58.2372464 C52.6281222,64.3141507 52.6336619,70.3920326 52.6641303,76.4692627 C52.6719511,78.0604644 53.2822974,79.4765132 54.3136619,80.6986721 C52.053947,81.7212383 49.6542729,82.2664114 47.2412383,82.7627047 C46.8756171,82.8379796 46.500057,82.8650265 46.1287332,82.914558 C46.1259633,71.9325621 46.1231935,60.9507291 46.1204236,49.9688961 C46.1204236,49.8059633 46.1285703,49.6430305 46.1217271,49.4805866 C46.0985906,48.9376945 46.2998126,48.5383462 46.8208717,48.3187128 C47.3168391,48.1095071 47.7256375,48.2615234 48.0756171,48.6144358 C50.0417271,50.5961874 52.0024603,52.5829898 53.9649857,54.5683259" id="Fill-14" fill="#2D70F1"></path>
                <path d="M14.1667291,73.9329857 C8.96591446,69.5603585 5.16762525,64.1887902 2.71613849,57.8578737 C3.21129124,57.6186884 3.60607739,57.2564888 3.99125051,56.8696864 C6.67165784,54.1783625 9.36086354,51.4953483 12.0471365,48.8097271 C12.4169939,48.4400326 12.7718615,48.0858167 13.3857923,48.3157149 C14.0419226,48.5617434 14.1874216,49.0997475 14.1875845,49.6773442 C14.1897026,57.762558 14.1763422,65.8477719 14.1667291,73.9329857" id="Fill-16" fill="#3E028D"></path>
                <path d="M59.8628595,25.2768554 C58.8145499,28.2169776 56.7435112,30.1759185 53.9428595,31.425613 C53.5770754,31.5887088 53.1806599,31.6835356 52.7985825,31.8101344 C51.6171568,30.7377108 50.4969939,29.5872424 49.0455886,28.8576293 C49.4921874,28.2050835 50.1704766,27.709279 50.3738167,26.8924969 C50.5351202,26.8801141 50.6964236,26.8569776 50.8577271,26.8574664 C51.5531242,26.8592587 52.1825336,26.6916008 52.4316578,25.9698086 C52.6943055,25.2082607 52.3120652,24.6713971 51.6715764,24.2826395 C51.7851405,23.34822 51.8985418,22.4138004 52.0121059,21.4793809 C52.1696619,21.4792179 52.3273809,21.4792179 52.4850998,21.479055 C55.3347943,21.9864277 57.6828187,23.4684644 59.8628595,25.2768554" id="Fill-18" fill="#005CDE"></path>
                <path d="M20.7083829,28.3399593 C23.1487902,26.4769857 25.58822,24.6133605 28.0302566,22.752668 C28.2428839,22.5905499 28.470664,22.4483096 28.6914379,22.2966191 C28.7473238,22.5033809 28.8428024,22.7081874 28.8520896,22.9167413 C28.885165,23.6455397 29.3421914,24.0010591 29.9745336,24.0841548 C30.6031283,24.1667617 31.0480978,23.7978819 31.2975479,23.225499 C31.4252872,22.9325458 31.5157149,22.6234623 31.6229246,22.3215479 C32.3893605,22.9139715 33.1557963,23.5063951 33.922558,24.0986558 C33.8102974,24.2110794 33.7143299,24.3487576 33.5836578,24.4320163 C31.8652057,25.52611 31.6296049,26.9333605 32.9180774,28.4541752 C32.7075682,28.4287576 32.497222,28.4033401 32.2868758,28.3777597 C27.750664,27.6923014 23.840277,29.0638697 20.4004399,31.989002 C20.2803585,32.090998 20.1337189,32.1620367 19.9891976,32.2540937 C19.6056538,31.4707128 19.4914379,30.6506721 19.3032505,29.848554 C19.2276497,29.5265988 19.4034542,29.4003259 19.5861018,29.2481466 C19.9561222,28.9405295 20.3338004,28.6420367 20.7083829,28.3399593" id="Fill-20" fill="#FAC800"></path>
                <path d="M40.6721141,35.9228676 C44.5178167,37.175169 46.3121955,41.022664 44.6724399,44.4998126 C43.5649857,44.5340285 42.5372057,44.9931731 41.3645784,44.848 C39.040668,44.5605866 36.8161466,42.7381833 36.1543136,40.479446 C35.7544766,39.1143951 35.9801385,37.8166354 36.1908106,36.4897108 C36.5758208,36.1286517 37.1170835,36.123112 37.5578167,35.8897923 C37.8533768,36.3275927 37.6930509,36.8370835 37.7808717,37.3076334 C37.6477556,37.1966762 37.5045377,36.9640081 37.3710957,37.2908513 C37.217613,37.6669002 37.11578,38.0550061 37.2081629,38.4726029 C37.3805458,39.2523992 38.0699145,39.9477963 38.8886517,40.0093849 C39.6182648,40.0641303 40.2561466,39.7975723 40.6753727,39.1394868 C41.101442,38.4704847 41.0224196,37.6040081 40.453947,36.8290998 C40.4721955,36.5139878 40.255332,36.1421752 40.6721141,35.9228676" id="Fill-22" fill="#FE206E"></path>
                <path d="M36.1908269,36.4896293 C35.9801548,37.8167169 35.7544929,39.1143136 36.1543299,40.4793646 C36.8161629,42.7382648 39.0406843,44.5605051 41.3645947,44.8480815 C42.537222,44.9930916 43.565002,44.533947 44.6724562,44.4997312 C43.3717637,47.2066965 41.1806436,48.286778 38.2444318,48.0663299 C35.6909491,47.874558 33.1407251,45.3015234 32.9217434,42.7539063 C32.7997067,41.3359022 33.0274868,40.0275519 33.6845947,38.7804644 C34.3599511,37.8419715 35.048668,36.9178167 36.1908269,36.4896293" id="Fill-24" fill="#FD0766"></path>
                <path d="M36.1908269,36.4896293 C35.048668,36.9178167 34.3599511,37.8419715 33.6845947,38.7804644 C32.2693605,38.9370428 30.8811731,39.3701181 29.4405214,39.2598126 C28.2955927,39.1723177 27.1470794,39.0520733 26.16378,38.3970835 C26.1898493,37.9700367 26.4860611,37.8616864 26.7420285,37.722053 C28.0629246,37.0023788 29.2164888,36.0676334 30.059666,34.8272261 C30.4679756,34.2264929 30.8958371,33.8160652 31.6261018,33.7678371 C32.2651242,33.67578 32.7115601,33.3670224 32.8177923,32.6903625 C32.92989,31.976554 32.5502566,31.5512994 31.9586477,31.2562281 C31.9597882,30.284334 32.4010102,29.3627862 32.2867943,28.3778574 C32.4971405,28.4032749 32.7074868,28.4286925 32.9181589,28.4542729 C33.4155927,28.5966762 33.9127006,28.7389165 34.4098086,28.8813198 C34.2344929,30.0409124 34.629442,31.0460448 35.2133931,32.0190794 C35.9896049,33.3124399 36.8852464,34.5336212 37.5579959,35.8895479 C37.1170998,36.1231935 36.5758371,36.1285703 36.1908269,36.4896293" id="Fill-26" fill="#00C1EF"></path>
                <path d="M50.3737678,26.8924969 C50.1704277,27.709279 49.4921385,28.2050835 49.0457026,28.8576293 C47.3199185,28.1721711 45.5064766,28.3717637 43.7173116,28.3289124 C43.2676171,26.5428432 42.157556,25.3544114 40.4438289,24.7124562 C41.8087169,23.6001141 43.2822811,22.6705825 44.9520163,22.0846762 C47.2518126,21.277833 49.6022811,21.0218656 52.01222,21.4793809 C51.8984929,22.4138004 51.7850916,23.34822 51.6715275,24.2826395 C50.6171894,24.2735153 49.5628513,24.2494012 48.509002,24.259666 C47.5938086,24.2684644 47.0282688,24.7522118 46.9997556,25.5007251 C46.9707536,26.264554 47.5664358,26.8063055 48.5109572,26.8501344 C49.1312424,26.8789735 49.752668,26.8792994 50.3737678,26.8924969" id="Fill-28" fill="#2D70F1"></path>
                <path d="M37.8254012,34.2674379 C37.8120407,35.0775397 38.3145255,35.6504114 39.0628758,35.6782729 C39.6460122,35.7001059 40.3862159,35.0022648 40.4119593,34.4062566 C40.4432424,33.6807169 39.9119185,33.101002 39.1969695,33.0804725 C38.2721629,33.0539145 37.8392505,33.4288228 37.8254012,34.2674379 M40.2482118,31.4394134 C40.626053,32.3959919 41.2083747,33.0594542 42.3575397,32.9092301 C41.8900855,33.6797393 41.416277,34.446501 40.9594134,35.2230387 C40.8324888,35.4389246 40.5898819,35.6179878 40.6726517,35.9231609 C40.2553809,36.1421426 40.4722444,36.5139552 40.4539959,36.8292301 C40.3067047,37.8902485 39.9278859,38.4031609 39.1982729,38.4398208 C38.4132627,38.4794134 37.9445051,38.0717556 37.7809206,37.3076008 C37.6930998,36.8370509 37.8534257,36.327723 37.5577026,35.8897597 C36.8851161,34.5336701 35.9894745,33.3124888 35.2134257,32.0189654 C34.6294745,31.0460937 34.2345255,30.0409613 34.4098411,28.8812057 C35.3946069,29.1467862 36.3117556,29.5629165 37.1661752,30.1186802 C37.5813279,30.8008798 37.9906151,31.4868269 38.4130998,32.1644644 C39.0384358,33.1669898 39.1621018,33.166664 39.7525703,32.182387 C39.7926517,32.1155845 39.8014501,32.0298819 39.8247495,31.9529776 C39.9658493,31.7817352 40.107112,31.6104929 40.2482118,31.4394134" id="Fill-30" fill="#C1EAFC"></path>
                <path d="M46.8008635,4.1924888 C46.1009043,4.90515682 46.0567495,5.84283503 45.9816375,6.74499389 C45.8970754,7.75810998 45.5216782,8.61969857 44.8404562,9.34833401 C44.314998,9.91028921 43.5606191,9.98703055 43.0235927,9.58051324 C42.4495804,9.14580855 42.3169532,8.35819145 42.7879919,7.71134827 C43.1888065,7.16063544 43.3344684,6.57782485 43.396057,5.90996334 C43.4618819,5.19485132 43.6916171,4.49505499 43.8498248,3.78857841 C44.4807006,2.89505499 44.9683585,1.88014664 45.9655071,1.29766191 C46.0971568,2.24967821 46.5466884,2.97815071 47.4400489,3.39460692 C47.1700692,3.61489206 46.962167,3.88503462 46.8008635,4.1924888" id="Fill-32" fill="#FAAE00"></path>
                <path d="M77.300334,29.5388839 C76.9050591,29.6827536 76.7989898,29.303446 76.6148758,29.12422 C74.6173198,27.1807576 72.6497434,25.2068269 70.6445295,23.2715112 C69.2480326,21.9237312 67.4911283,21.4178248 65.605833,21.3645458 C63.9566273,21.31811 62.3044888,21.3702485 60.6536538,21.3788839 C60.1529613,21.3793727 59.6521059,21.3798615 59.1510876,21.3803503 L53.649336,17.221165 C52.936668,16.5660122 52.1583381,15.9962363 51.3547536,15.4593727 C50.8478697,14.6629572 51.0839593,13.7876823 51.1611894,12.9586802 C51.2157719,12.3734257 51.9240407,12.4835682 52.3132872,12.2385173 C52.4903951,12.1269084 52.6707617,12.0201874 52.8496619,11.9115112 C54.8002933,10.8589654 55.7749572,9.15257026 56.1223299,7.02597149 C63.4243259,10.282835 69.2100692,15.3190876 73.5644481,21.9973768 C75.1026965,24.3561548 76.3724318,26.8677637 77.300334,29.5388839" id="Fill-34" fill="#410292"></path>
                <path d="M52.8495804,11.9114297 C52.6706802,12.0202688 52.4903136,12.1268269 52.3132057,12.2385988 C51.9239593,12.4836497 51.2158534,12.3735071 51.1612709,12.9587617 C51.0838778,13.7877637 50.8479511,14.6630387 51.3546721,15.4592912 C51.2499063,15.7059715 51.1009857,15.9435275 51.0483585,16.2007984 C50.9067699,16.8953809 50.4223707,17.0620611 49.8103951,17.1146884 C49.1695804,17.1695967 48.7922281,16.8873971 48.6022485,16.2956253 C48.4948758,15.961776 48.3904358,15.629556 48.4015153,15.2735479 C48.4064033,14.8399837 48.4443666,14.4036497 48.4111283,13.9728554 C48.2366273,11.7111853 49.1808228,10.3091487 51.4928391,9.73823218 C51.5479104,11.4250754 51.5909246,11.4939959 52.8495804,11.9114297" id="Fill-36" fill="#FEB100"></path>
                <path d="M48.4015479,15.2735153 C48.3904684,15.6296864 48.4949084,15.9619063 48.6021181,16.2955927 C48.7920978,16.8873646 49.169613,17.1697271 49.8102648,17.1146558 C50.4222403,17.0621914 50.9068024,16.8953483 51.048391,16.2007658 C51.1008554,15.9434949 51.249776,15.7059389 51.3547047,15.4594216 C52.1584521,15.9962851 52.9366191,16.5660611 53.6492872,17.2212138 C51.5687984,18.5439022 51.2474949,19.7189735 52.4849695,21.4791365 C52.3274134,21.4792994 52.1696945,21.4792994 52.0121385,21.4794623 C49.6021996,21.0217841 47.2517312,21.2779145 44.9519348,22.0847576 C43.2821996,22.670501 41.8086354,23.6000326 40.4437475,24.7125377 C40.059389,24.6494827 39.6747047,24.5865906 39.2903462,24.5238615 C38.8100204,23.274167 38.8051324,22.1707862 40.2164562,21.4988513 C40.2607739,21.4776701 40.2884725,21.4214582 40.3238289,21.3817026 C42.8808961,19.4235764 45.4394297,17.4672424 47.9907943,15.5014582 C48.1214664,15.4006029 48.2285132,15.2858982 48.4015479,15.2735153" id="Fill-38" fill="#FCCA00"></path>
                <path d="M26.5570998,8.09191039 C29.4416619,6.07724644 33.5975886,6.89728717 35.4617026,9.84881466 C37.4092383,12.9326436 36.4749817,17.0088961 33.4240652,18.7394053 C31.945776,18.6134582 31.5788513,18.085556 31.9594623,16.6321955 C33.8426395,15.3820122 34.423332,13.3352505 33.4281385,11.5320733 C32.5830061,10.0011568 30.4705825,8.85101426 28.1118045,10.1288961 C26.7175886,9.85256212 26.4992587,9.56645214 26.5570998,8.09191039" id="Fill-40" fill="#FDCB00"></path>
                <path d="M40.3238126,21.3817515 C40.2884562,21.4215071 40.2607576,21.4777189 40.2164399,21.4989002 C38.8051161,22.170835 38.8100041,23.2742159 39.2903299,24.5239104 C38.0885377,24.5390631 36.9735886,24.8105092 36.0419389,25.6235438 C35.3354623,25.1151935 34.6289857,24.6070061 33.9225092,24.0986558 C33.1559104,23.5063951 32.3894745,22.9139715 31.6230387,22.3217108 C31.4926925,22.1604073 31.4343625,21.9826477 31.4970916,21.7767006 C32.5660937,21.4206925 33.6699633,21.339389 34.7870305,21.3481874 C36.6327332,21.3626884 38.4782729,21.370998 40.3238126,21.3817515" id="Fill-42" fill="#5482FE"></path>
                <path d="M26.5570998,8.09191039 C26.4992587,9.56645214 26.7175886,9.85256212 28.1118045,10.1288961 C27.0190143,11.0325214 26.3915601,12.1275927 26.3749409,13.6097923 C26.3633727,14.6444155 25.9438208,15.6029491 25.1636986,16.3527658 C24.6133116,16.8816456 23.880277,16.9515438 23.3432505,16.5161874 C22.765002,16.0471039 22.6494827,15.3991202 23.143169,14.7229491 C23.6146965,14.0770835 23.7386884,13.3642525 23.8168961,12.6088961 C24.0164888,10.6748839 24.9302159,9.16465988 26.5570998,8.09191039" id="Fill-44" fill="#F6AB00"></path>
                <path d="M31.4971242,21.776668 C31.4343951,21.9826151 31.4927251,22.1603747 31.6229084,22.3216782 C31.5156986,22.6234297 31.4254338,22.9326762 31.2975316,23.2256293 C31.0480815,23.7978493 30.6032749,24.1667291 29.9745173,24.0841222 C29.3421752,24.0010265 28.8851487,23.6456701 28.8522363,22.9167088 C28.8427862,22.7081548 28.7473075,22.5033483 28.6914216,22.2965866 C28.9519511,21.7849776 28.8422974,21.2323096 28.8121548,20.7079919 C28.6871853,18.5310468 29.6077556,17.3732464 31.5093442,16.7912505 C31.6615234,16.7446517 31.8096293,16.6855071 31.9595275,16.6322281 C31.5789165,18.0855886 31.9458411,18.6134908 33.4241303,18.7392749 C33.1160244,19.0988676 32.673336,19.245833 32.2532953,19.352554 C31.6108513,19.5156497 31.3907291,19.8692138 31.4606273,20.5005784 C31.5072261,20.9220855 31.4871853,21.3510876 31.4971242,21.776668" id="Fill-46" fill="#FAAE00"></path>
                <path d="M52.4850509,21.4791202 C51.2474134,19.7189572 51.5688798,18.5438859 53.6493686,17.2211976 C55.4831772,18.6075927 57.3171487,19.9939878 59.1511202,21.38022 C59.6392668,21.7722363 60.1274134,22.1644155 60.6155601,22.5564318 C60.373442,23.4657597 60.3472098,24.434721 59.8624847,25.2767576 C57.6827699,23.4685295 55.3347454,21.9863299 52.4850509,21.4791202" id="Fill-48" fill="#FDE400"></path>
                <path d="M60.6156253,22.5564807 C60.1274786,22.1644644 59.639332,21.7722851 59.1511853,21.3801059 C59.6520407,21.37978 60.1528961,21.3792912 60.6535886,21.3788024 C60.6410428,21.7716334 60.628334,22.1639756 60.6156253,22.5564807" id="Fill-50" fill="#055BD2"></path>
                <path d="M33.9224929,24.0986232 C34.6289695,24.6069735 35.335446,25.1151609 36.0419226,25.6235112 C36.717442,26.3006599 37.4856701,26.8583788 38.2899063,27.3699878 C38.6727984,27.6828187 39.0560163,27.9956497 39.4389084,28.3083177 C39.7867699,28.5866069 40.1207821,28.8850998 40.4864033,29.1376456 C40.8593564,29.3954053 41.0268513,29.6952016 40.8479511,30.1370754 C40.7690916,30.6268513 40.4947128,31.0266884 40.2481955,31.4393971 C40.1070957,31.6104766 39.965833,31.7817189 39.8247332,31.9529613 C38.9844888,31.2746721 38.1874216,30.5343055 37.1661589,30.118664 C36.3117393,29.5629002 35.3945906,29.1467699 34.4098248,28.8813523 C33.912554,28.7387862 33.415609,28.5965458 32.9181752,28.4541426 C31.6297026,26.9333279 31.8651405,25.5262403 33.5837556,24.4319837 C33.7144277,24.3487251 33.8103951,24.2110468 33.9224929,24.0986232" id="Fill-52" fill="#FDE300"></path>
                <path d="M37.7808554,37.3076334 C37.9446029,38.0716253 38.4133605,38.4792831 39.1982077,38.4398534 C39.9279837,38.4031935 40.3066395,37.8902811 40.4539308,36.8290998 C41.0225662,37.6040081 41.1014257,38.4704847 40.6753564,39.1394868 C40.2561303,39.7975723 39.6182485,40.0641303 38.8886354,40.0093849 C38.0698982,39.9477963 37.3805295,39.2523992 37.2081466,38.4726029 C37.1157637,38.0550061 37.2175967,37.6669002 37.3710794,37.2906884 C37.5045214,36.9640081 37.6477393,37.1966762 37.7808554,37.3076334" id="Fill-54" fill="#FD0766"></path>
                <path d="M39.4389735,28.3083014 C39.0559185,27.9956334 38.6728635,27.6828024 38.2898086,27.3699715 C39.3812953,26.9269572 40.1764073,27.1791772 40.8843503,28.1926191 C40.4033727,28.2423136 39.9062648,28.0894827 39.4389735,28.3083014" id="Fill-56" fill="#537EF2"></path>
                <path d="M39.4389735,28.3083014 C39.9062648,28.0894827 40.4033727,28.2423136 40.8843503,28.1926191 C41.2276497,28.847446 41.430501,29.4995031 40.8478534,30.1370591 C41.0267536,29.6951853 40.8594216,29.395389 40.4864684,29.1376293 C40.1208473,28.8850835 39.786835,28.5865906 39.4389735,28.3083014" id="Fill-58" fill="#0BC6ED"></path>
                <path d="M37.1661914,30.1186965 C38.1874542,30.5343381 38.9845214,31.2747047 39.8246029,31.9529939 C39.8014664,32.0297352 39.792668,32.1156008 39.7525866,32.1824033 C39.1621181,33.1666802 39.0384521,33.1670061 38.4131161,32.1644807 C37.9906314,31.4866802 37.5813442,30.8008961 37.1661914,30.1186965" id="Fill-60" fill="#01C5F0"></path>
            </g>
        </g>
    </g>
</svg>