<svg xmlns="http://www.w3.org/2000/svg" xmlns:xlink="http://www.w3.org/1999/xlink" viewBox="0 0 392.51 281.36"><defs><style>.cls-1{fill:url(#New_Gradient_Swatch_1);}.cls-2{fill:#e6e6e6;}.cls-3{fill:#ccc;}.cls-4{fill:#f2f2f2;}.cls-5{fill:#4d4d4d;}</style><linearGradient id="New_Gradient_Swatch_1" x1="196.83" x2="196.83" y2="235.87" gradientUnits="userSpaceOnUse"><stop offset="0" stop-color="#094a80"/><stop offset="1" stop-color="#00091a"/></linearGradient></defs><title>OnlineProfitMachine_Dark_1</title><g id="Layer_2" data-name="Layer 2"><g id="Layer_1-2" data-name="Layer 1"><g id="OnlineProfitMachine_Dark"><path class="cls-1" d="M299.92,63.93V178.56l-33.09,19.11V121.25L250.29,149.9l-16.55-9.55v76.42l-33.09,19.1V121.25l33.09-19.11,16.55,9.56L266.83,83Zm-3.81-6.62-99.27,57.32L97.57,57.31,196.84,0ZM196.84,76.42l33.09-19.11-33.09-19.1-33.09,19.1ZM193,121.23v76.42l-66.18-38.21v38.21L93.74,178.54V63.91L126.83,83Zm-33.09,0-33.09-19.11v38.21l33.09,19.11Z"/><polygon class="cls-2" points="266.83 197.67 233.74 178.56 233.74 140.35 250.29 149.91 266.83 121.25 266.83 197.67"/><polygon class="cls-2" points="196.84 38.21 196.84 76.42 229.93 57.31 196.84 38.21"/><polygon class="cls-3" points="163.75 57.31 196.84 38.21 196.84 76.42 163.75 57.31"/><polygon class="cls-4" points="126.83 140.33 159.92 121.23 159.92 159.44 126.83 140.33"/><polygon class="cls-3" points="126.83 102.12 126.83 140.33 159.92 121.23 126.83 102.12"/><polygon class="cls-3" points="126.83 197.65 159.92 178.54 126.83 159.44 126.83 197.65"/><polygon class="cls-4" points="299.92 63.93 296.11 61.72 263.01 80.87 266.83 83.04 299.92 63.93"/><polygon class="cls-4" points="229.93 100 233.74 102.14 200.65 121.25 196.84 119.16 229.93 100"/><polygon class="cls-2" points="196.84 119.16 200.65 121.25 200.65 235.87 196.84 233.66 196.84 119.16"/><polygon class="cls-2" points="263.01 80.87 266.83 83.04 250.29 111.7 246.5 109.51 263.01 80.87"/><path class="cls-2" d="M196.84,114.63v4.53L97.57,61.72V57.31Z"/><path class="cls-3" d="M296.11,57.31v4.41L263,80.87,246.5,109.51,229.94,100l-33.1,19.16v-4.53Z"/><polygon class="cls-4" points="93.74 63.91 97.57 61.72 196.84 119.16 193.01 121.23 93.74 63.91"/><polygon class="cls-3" points="193.01 121.23 196.84 119.16 196.84 195.45 193.01 197.65 193.01 121.23"/><path class="cls-5" d="M9.29,281.36a9.7,9.7,0,0,1-3.57-.63A7.68,7.68,0,0,1,3.07,279a10,10,0,0,1-1.75-2.5,11.35,11.35,0,0,1-1-2.95,16.85,16.85,0,0,1,0-6.33,11.35,11.35,0,0,1,1-2.95,10,10,0,0,1,1.75-2.5,7.4,7.4,0,0,1,2.65-1.71,9.7,9.7,0,0,1,3.57-.64,9.29,9.29,0,0,1,4.32,1,7.26,7.26,0,0,1,2.9,2.57,12.37,12.37,0,0,1,1.56,3.5,15.15,15.15,0,0,1,0,7.87,12.19,12.19,0,0,1-1.56,3.49,7.28,7.28,0,0,1-2.9,2.58A9.42,9.42,0,0,1,9.29,281.36Zm0-3.48a4.75,4.75,0,0,0,2.58-.7,4.93,4.93,0,0,0,1.74-1.83,9.62,9.62,0,0,0,.92-2.39,11,11,0,0,0,.3-2.56,11.39,11.39,0,0,0-.3-2.65,9.48,9.48,0,0,0-.92-2.37,4.79,4.79,0,0,0-1.73-1.79,4.94,4.94,0,0,0-2.59-.67,4.5,4.5,0,0,0-3.23,1.23A6.58,6.58,0,0,0,4.25,267a11.54,11.54,0,0,0-.5,3.42A11,11,0,0,0,4.06,273,9.62,9.62,0,0,0,5,275.43a4.62,4.62,0,0,0,1.73,1.78A4.84,4.84,0,0,0,9.29,277.88Z"/><path class="cls-5" d="M41,281h-3.3l-8.78-13.38A15.25,15.25,0,0,1,28,266a13,13,0,0,1,.09,1.58V281h-3.6V259.81H28L36.57,273a15.5,15.5,0,0,1,.88,1.6,14.57,14.57,0,0,1-.09-1.6V259.81H41Z"/><path class="cls-5" d="M47.62,281V259.81h3.63v17.71h10.3V281Z"/><path class="cls-5" d="M66.39,281V259.81H70V281Z"/><path class="cls-5" d="M93.31,281H90l-8.77-13.38a12.26,12.26,0,0,1-.88-1.58,13,13,0,0,1,.09,1.58V281h-3.6V259.81h3.51L88.92,273a16,16,0,0,1,.87,1.6,14.57,14.57,0,0,1-.09-1.6V259.81h3.61Z"/><path class="cls-5" d="M100,281V259.81h13.8v3.42H103.6v5.11h6.27v3.43H103.6v5.81h10.84V281Z"/><path class="cls-5" d="M129,281V259.81h8.81q3.66,0,5.39,1.9A6.7,6.7,0,0,1,137.78,273H132.6v8Zm9-11.47a3,3,0,0,0,2.39-.94,3.33,3.33,0,0,0,.79-2.21,3.48,3.48,0,0,0-.74-2.17,2.93,2.93,0,0,0-2.44-.95H132.6v6.27Z"/><path class="cls-5" d="M149.74,281V259.81h9.38q3.66,0,5.31,1.81A7,7,0,0,1,165,270a5.59,5.59,0,0,1-3.24,2.36L166,281h-4.08l-4.09-8.3h-4.42V281Zm3.63-11.75h5.81a3,3,0,0,0,2.39-.85,3.07,3.07,0,0,0,.76-2.15,3.19,3.19,0,0,0-.73-2.13,3,3,0,0,0-2.42-.86h-5.81Z"/><path class="cls-5" d="M180.37,281.36a9.7,9.7,0,0,1-3.57-.63,7.68,7.68,0,0,1-2.65-1.71,10,10,0,0,1-1.75-2.5,11.35,11.35,0,0,1-1-2.95,16.85,16.85,0,0,1,0-6.33,11.35,11.35,0,0,1,1-2.95,10,10,0,0,1,1.75-2.5,7.4,7.4,0,0,1,2.65-1.71,9.7,9.7,0,0,1,3.57-.64,9.29,9.29,0,0,1,4.32,1,7.26,7.26,0,0,1,2.9,2.57,12.37,12.37,0,0,1,1.56,3.5,15.15,15.15,0,0,1,0,7.87,12.19,12.19,0,0,1-1.56,3.49,7.28,7.28,0,0,1-2.9,2.58A9.42,9.42,0,0,1,180.37,281.36Zm0-3.48a4.75,4.75,0,0,0,2.58-.7,4.93,4.93,0,0,0,1.74-1.83,9.62,9.62,0,0,0,.92-2.39,11,11,0,0,0,.3-2.56,11.39,11.39,0,0,0-.3-2.65,9.48,9.48,0,0,0-.92-2.37,4.79,4.79,0,0,0-1.73-1.79,4.94,4.94,0,0,0-2.59-.67,4.5,4.5,0,0,0-3.23,1.23,6.58,6.58,0,0,0-1.81,2.83,11.7,11.7,0,0,0-.19,6.06,9.62,9.62,0,0,0,.92,2.39,4.62,4.62,0,0,0,1.73,1.78A4.84,4.84,0,0,0,180.37,277.88Z"/><path class="cls-5" d="M195.57,281V259.81h13.69v3.42h-10v5.11h6.41v3.43h-6.41V281Z"/><path class="cls-5" d="M214.4,281V259.81H218V281Z"/><path class="cls-5" d="M233.14,263.29V281h-3.63V263.29h-6v-3.48h15.69v3.48Z"/><path class="cls-5" d="M272.08,281h-3.64V269.74a24.81,24.81,0,0,1,.12-2.55c-.24.73-.56,1.6-1,2.61l-5.14,11.56-5.15-11.62c-.36-.81-.7-1.66-1-2.55a24.81,24.81,0,0,1,.12,2.55V281h-3.63V259.81h3.66l5.45,12.44c.22.56.42,1.09.58,1.57.16-.48.35-1,.57-1.57l5.48-12.44h3.55Z"/><path class="cls-5" d="M292.39,281l-1.67-4.63h-8.38L280.67,281h-3.84l7.9-21.19h3.6L296.2,281Zm-2.82-7.9-2.33-6.36a16.53,16.53,0,0,1-.69-2.15c-.17.59-.4,1.3-.7,2.15l-2.36,6.36Z"/><path class="cls-5" d="M308.22,281.36a9.06,9.06,0,0,1-3.45-.63,7.13,7.13,0,0,1-2.53-1.7,9.59,9.59,0,0,1-1.65-2.51,13,13,0,0,1-.95-3,17,17,0,0,1-.29-3.15,14.52,14.52,0,0,1,.49-3.78,13,13,0,0,1,1.48-3.5,7.52,7.52,0,0,1,2.79-2.66,9,9,0,0,1,8.84.3,7.09,7.09,0,0,1,2.66,3.19l-3.27,1.49a6.36,6.36,0,0,0-1.77-1.91,4.72,4.72,0,0,0-4.78.08,4.47,4.47,0,0,0-1.61,1.81,10.55,10.55,0,0,0-.82,2.39,13,13,0,0,0-.25,2.59,10.15,10.15,0,0,0,1.31,5.21,4.19,4.19,0,0,0,3.8,2.24q2.43,0,4.06-2.72l3.36,1.27A7.6,7.6,0,0,1,308.22,281.36Z"/><path class="cls-5" d="M334.05,281v-9.2h-9.27V281h-3.63V259.81h3.63v8.56h9.27v-8.56h3.6V281Z"/><path class="cls-5" d="M344.46,281V259.81h3.63V281Z"/><path class="cls-5" d="M371.38,281h-3.3l-8.79-13.38a13.67,13.67,0,0,1-.87-1.58,13,13,0,0,1,.09,1.58V281h-3.6V259.81h3.51L367,273a16,16,0,0,1,.87,1.6,14.57,14.57,0,0,1-.09-1.6V259.81h3.61Z"/><path class="cls-5" d="M378,281V259.81h13.8v3.42H381.67v5.11h6.27v3.43h-6.27v5.81h10.84V281Z"/></g></g></g></svg>