<svg id="Layer_1" data-name="Layer 1" xmlns="http://www.w3.org/2000/svg" viewBox="0 0 172.33 75"><defs><style>.cls-1{fill:#4e69a2;}.cls-2{fill:#fff;}.cls-3{fill:#a2aab3;}</style></defs><title>Artboard 3</title><path class="cls-1" d="M73,60.48A10.53,10.53,0,0,1,62.46,71H16.74A10.53,10.53,0,0,1,6.19,60.48V14.91A10.53,10.53,0,0,1,16.74,4.39H62.46A10.53,10.53,0,0,1,73,14.91Z"/><path class="cls-2" d="M64.58,21V51.22H59.66l-.35-2.94a7.75,7.75,0,0,1-6.87,3.41c-6.27,0-11-4.15-11-11.15,0-7.34,4.63-11.14,10.85-11.14,2.25,0,5.75,1.21,7,3.41V21ZM46.74,40.54a6.11,6.11,0,1,0,12.22,0,6.08,6.08,0,0,0-6.17-6.22A5.88,5.88,0,0,0,46.74,40.54Z"/><path d="M85.58,23.91V30h5.87V34.5H85.53v9.2c0,2,1.13,3,2.77,3a6.16,6.16,0,0,0,2.55-.64l1.47,4.49a12.08,12.08,0,0,1-4.37.91c-4.62.17-7.65-2.47-7.65-7.78V34.5h-4V30h4V24.47Z"/><path d="M101.4,29.92l.39,2.46c1.64-2.64,3.84-3,6-3a8.12,8.12,0,0,1,5.49,2L110.9,36a5.29,5.29,0,0,0-3.8-1.38c-2.76,0-5.31,1.47-5.31,5.4V51.22H96.52V29.92Z"/><rect x="116.4" y="29.83" width="5.27" height="21.39"/><path d="M145.83,48.49a11,11,0,0,1-8.21,3.38c-6.18,0-11.32-3.72-11.32-11.28s5.14-11.28,11.32-11.28a10.07,10.07,0,0,1,7.69,3.16L142,36a6.45,6.45,0,0,0-4.27-1.68,6,6,0,0,0-6.14,6.31,5.81,5.81,0,0,0,6.05,6.22A6.39,6.39,0,0,0,142.29,45Z"/><path d="M163.21,35.58a7.17,7.17,0,0,0-5.27-1.9c-2.51,0-3.89.77-3.89,2.11s1.25,2.16,4,2.34c4,.25,9.12,1.16,9.12,6.82,0,3.76-3.07,7-9.16,7-3.37,0-6.74-.56-9.85-3.8l2.59-3.76c1.51,1.69,5,2.94,7.34,3,2,0,3.85-1,3.85-2.55s-1.21-2.07-4.23-2.24c-4-.31-8.82-1.78-8.82-6.62s5.1-6.65,9-6.65c3.33,0,5.83.65,8.29,2.81Z"/><path class="cls-1" d="M122.14,23.91c0,4.1-6.22,4.1-6.22,0S122.14,19.81,122.14,23.91Z"/><path class="cls-1" d="M128.75,14.86c0,3.44-5.21,3.44-5.21,0S128.75,11.43,128.75,14.86Z"/><path class="cls-1" d="M110.59,24.09a2.36,2.36,0,0,1-4.71,0A2.36,2.36,0,0,1,110.59,24.09Z"/><path class="cls-1" d="M115.29,17.19a2.35,2.35,0,0,1-4.7,0A2.35,2.35,0,0,1,115.29,17.19Z"/><polygon class="cls-1" points="119.06 25.3 113.02 18 108.86 24.5 107.6 23.69 112.86 15.46 119.01 22.89 126.4 13.27 127.59 14.18 119.06 25.3 119.06 25.3"/><path class="cls-2" d="M32.44,29.31h5.22v22H32.53l-.27-3.21C31,50.7,27.57,52,25.11,52c-6.52,0-11.34-4-11.34-11.7s5.05-11.56,11.48-11.52c2.95,0,5.76,1.38,7,3.57Zm-13.22,11A6.3,6.3,0,0,0,25.74,47c8.57,0,8.57-13.35,0-13.35A6.26,6.26,0,0,0,19.22,40.29Z"/><path class="cls-3" d="M87.49,68.28H86.43a.45.45,0,0,1-.3-.09A.46.46,0,0,1,86,68l-.83-2.17H81L80.17,68a.57.57,0,0,1-.16.23.54.54,0,0,1-.3.1H78.64l3.72-9.36h1.41Zm-2.74-3.49-1.39-3.63a8.15,8.15,0,0,1-.3-.94c0,.19-.09.36-.14.52s-.1.31-.15.43l-1.38,3.62Z"/><path class="cls-3" d="M98.8,66.27a.25.25,0,0,1,.2.09l.55.6A4,4,0,0,1,98.15,68a5.25,5.25,0,0,1-3.82,0,4,4,0,0,1-1.41-1,4.44,4.44,0,0,1-.9-1.52,5.43,5.43,0,0,1-.32-1.93A5.49,5.49,0,0,1,92,61.66a4.51,4.51,0,0,1,1-1.51,4.09,4.09,0,0,1,1.45-1,4.67,4.67,0,0,1,1.86-.36,4.52,4.52,0,0,1,1.78.33,4.74,4.74,0,0,1,1.35.87l-.46.64a.34.34,0,0,1-.12.12.29.29,0,0,1-.17,0,.52.52,0,0,1-.29-.13l-.44-.28a3.32,3.32,0,0,0-.67-.27,3.08,3.08,0,0,0-1-.13,3.18,3.18,0,0,0-1.28.25,2.92,2.92,0,0,0-1,.7,3.14,3.14,0,0,0-.65,1.13,4.7,4.7,0,0,0-.23,1.51,4.49,4.49,0,0,0,.24,1.52A3.13,3.13,0,0,0,94,66.24,2.78,2.78,0,0,0,95,67a3.19,3.19,0,0,0,1.24.24,5.35,5.35,0,0,0,.73,0,2.68,2.68,0,0,0,.59-.15,2,2,0,0,0,.51-.25,3.09,3.09,0,0,0,.48-.37.41.41,0,0,1,.11-.07A.27.27,0,0,1,98.8,66.27Z"/><path class="cls-3" d="M112.53,68.28h-1.07a.49.49,0,0,1-.3-.09A.46.46,0,0,1,111,68l-.83-2.17H106L105.21,68a.6.6,0,0,1-.17.23.49.49,0,0,1-.3.1h-1.07l3.73-9.36h1.4Zm-2.75-3.49-1.38-3.63a8.15,8.15,0,0,1-.3-.94c0,.19-.1.36-.15.52s-.1.31-.15.43l-1.38,3.62Z"/><path class="cls-3" d="M125.72,63.6a5.11,5.11,0,0,1-.34,1.91,4.31,4.31,0,0,1-.94,1.47,4.36,4.36,0,0,1-1.47,1,5.22,5.22,0,0,1-1.9.34h-3.52V58.92h3.52a5,5,0,0,1,1.9.34,4.19,4.19,0,0,1,1.47,1,4.35,4.35,0,0,1,.94,1.48A5.11,5.11,0,0,1,125.72,63.6Zm-1.42,0a4.63,4.63,0,0,0-.23-1.5,3.18,3.18,0,0,0-.65-1.12,2.82,2.82,0,0,0-1-.7,3.5,3.5,0,0,0-1.33-.24H119v7.12h2.12a3.5,3.5,0,0,0,1.33-.24,2.84,2.84,0,0,0,1-.71,3,3,0,0,0,.65-1.11A4.63,4.63,0,0,0,124.3,63.6Z"/><path class="cls-3" d="M137.13,67.15v1.13h-5.81V58.92h5.81v1.13h-4.41v3h3.54V64.1h-3.54v3.05Z"/><path class="cls-3" d="M152.55,58.92v9.36h-1.22V61.62c0-.1,0-.21,0-.32l0-.35-3.12,5.72a.53.53,0,0,1-.5.32h-.2a.52.52,0,0,1-.49-.32l-3.18-5.74a5.64,5.64,0,0,1,0,.69v6.66H142.7V58.92h1a1.07,1.07,0,0,1,.29,0,.46.46,0,0,1,.19.2l3.13,5.61a3,3,0,0,1,.17.36l.15.37a6.88,6.88,0,0,1,.32-.74l3.07-5.6a.4.4,0,0,1,.18-.2,1.07,1.07,0,0,1,.29,0Z"/><path class="cls-3" d="M162.36,64.58v3.7H161v-3.7l-3.43-5.66h1.22a.44.44,0,0,1,.29.09.55.55,0,0,1,.19.23l2,3.5c.08.16.16.31.22.45s.13.29.18.43c0-.14.11-.28.17-.43s.14-.29.22-.45l2-3.5a.87.87,0,0,1,.17-.22.43.43,0,0,1,.29-.1h1.23Z"/></svg>