<svg id="Layer_1" data-name="Layer 1" xmlns="http://www.w3.org/2000/svg" viewBox="0 0 172.33 75"><defs><style>.cls-1{fill:#4e69a2;}.cls-2{fill:#fff;}.cls-3{fill:#a2aab3;}</style></defs><title>Artboard 3 copy</title><path class="cls-1" d="M72.51,60.29A10.53,10.53,0,0,1,62,70.8H16.24A10.54,10.54,0,0,1,5.69,60.29V14.71A10.54,10.54,0,0,1,16.24,4.2H62A10.53,10.53,0,0,1,72.51,14.71Z"/><path class="cls-2" d="M64.08,20.82V51H59.16l-.35-2.94a7.74,7.74,0,0,1-6.87,3.41c-6.26,0-11-4.14-11-11.14C41,33,45.59,29.2,51.81,29.2c2.25,0,5.75,1.21,7,3.41V20.82ZM46.24,40.35a6.12,6.12,0,1,0,12.23,0,6.07,6.07,0,0,0-6.18-6.22A5.87,5.87,0,0,0,46.24,40.35Z"/><path class="cls-2" d="M85.08,23.71v6.05H91V34.3H85v9.2c0,2,1.12,3,2.76,3a6,6,0,0,0,2.55-.65l1.47,4.49a11.62,11.62,0,0,1-4.36.91c-4.63.17-7.65-2.46-7.65-7.78V34.3h-4V29.76h4V24.27Z"/><path class="cls-2" d="M100.9,29.72l.39,2.46c1.64-2.63,3.84-3,6-3a8,8,0,0,1,5.48,2l-2.37,4.58a5.27,5.27,0,0,0-3.81-1.38c-2.76,0-5.31,1.46-5.31,5.4V51H96V29.72Z"/><rect class="cls-2" x="115.9" y="29.63" width="5.27" height="21.39"/><path class="cls-2" d="M145.33,48.3a11,11,0,0,1-8.21,3.37c-6.18,0-11.32-3.72-11.32-11.28s5.14-11.28,11.32-11.28a10.11,10.11,0,0,1,7.69,3.16l-3.32,3.5a6.46,6.46,0,0,0-4.28-1.69,6,6,0,0,0-6.14,6.31,5.81,5.81,0,0,0,6.05,6.22,6.39,6.39,0,0,0,4.67-1.77Z"/><path class="cls-2" d="M162.71,35.38a7.16,7.16,0,0,0-5.27-1.9c-2.51,0-3.89.78-3.89,2.12s1.25,2.15,4,2.33c4,.26,9.12,1.16,9.12,6.82,0,3.76-3.07,7-9.16,7-3.37,0-6.74-.56-9.85-3.8l2.59-3.76c1.51,1.69,5,2.94,7.35,3,2,0,3.84-1,3.84-2.54s-1.21-2.08-4.23-2.25c-4-.3-8.82-1.77-8.82-6.61s5.1-6.66,9-6.66c3.33,0,5.83.65,8.3,2.81Z"/><path class="cls-1" d="M121.65,23.71c0,4.11-6.22,4.11-6.22,0S121.65,19.61,121.65,23.71Z"/><path class="cls-1" d="M128.26,14.67c0,3.43-5.21,3.43-5.21,0S128.26,11.23,128.26,14.67Z"/><path class="cls-1" d="M110.09,23.9a2.36,2.36,0,0,1-4.71,0A2.36,2.36,0,0,1,110.09,23.9Z"/><path class="cls-1" d="M114.79,17a2.35,2.35,0,0,1-4.7,0A2.35,2.35,0,0,1,114.79,17Z"/><polygon class="cls-1" points="118.56 25.1 112.52 17.8 108.37 24.3 107.1 23.49 112.36 15.26 118.52 22.69 125.91 13.07 127.1 13.98 118.56 25.1 118.56 25.1"/><path class="cls-2" d="M31.94,29.11h5.23v22H32l-.27-3.22c-1.25,2.59-4.69,3.84-7.14,3.89-6.52,0-11.35-4-11.35-11.71s5.05-11.56,11.48-11.52a8.09,8.09,0,0,1,7,3.57Zm-13.22,11a6.31,6.31,0,0,0,6.52,6.7c8.58,0,8.58-13.35,0-13.35A6.27,6.27,0,0,0,18.72,40.09Z"/><path class="cls-3" d="M87.49,68.28H86.43a.45.45,0,0,1-.3-.09A.46.46,0,0,1,86,68l-.83-2.17H81L80.17,68a.57.57,0,0,1-.16.23.54.54,0,0,1-.3.1H78.64l3.72-9.36h1.41Zm-2.74-3.49-1.39-3.63a8.15,8.15,0,0,1-.3-.94c0,.19-.09.36-.14.52s-.1.31-.15.43l-1.38,3.62Z"/><path class="cls-3" d="M98.8,66.27a.25.25,0,0,1,.2.09l.55.6A4,4,0,0,1,98.15,68a5.25,5.25,0,0,1-3.82,0,4,4,0,0,1-1.41-1,4.44,4.44,0,0,1-.9-1.52,5.43,5.43,0,0,1-.32-1.93A5.49,5.49,0,0,1,92,61.66a4.51,4.51,0,0,1,1-1.51,4.09,4.09,0,0,1,1.45-1,4.67,4.67,0,0,1,1.86-.36,4.52,4.52,0,0,1,1.78.33,4.74,4.74,0,0,1,1.35.87l-.46.64a.34.34,0,0,1-.12.12.29.29,0,0,1-.17,0,.52.52,0,0,1-.29-.13l-.44-.28a3.32,3.32,0,0,0-.67-.27,3.08,3.08,0,0,0-1-.13,3.18,3.18,0,0,0-1.28.25,2.92,2.92,0,0,0-1,.7,3.14,3.14,0,0,0-.65,1.13,4.7,4.7,0,0,0-.23,1.51,4.49,4.49,0,0,0,.24,1.52A3.13,3.13,0,0,0,94,66.24,2.78,2.78,0,0,0,95,67a3.19,3.19,0,0,0,1.24.24,5.35,5.35,0,0,0,.73,0,2.68,2.68,0,0,0,.59-.15,2,2,0,0,0,.51-.25,3.09,3.09,0,0,0,.48-.37.41.41,0,0,1,.11-.07A.27.27,0,0,1,98.8,66.27Z"/><path class="cls-3" d="M112.53,68.28h-1.07a.49.49,0,0,1-.3-.09A.46.46,0,0,1,111,68l-.83-2.17H106L105.21,68a.6.6,0,0,1-.17.23.49.49,0,0,1-.3.1h-1.07l3.73-9.36h1.4Zm-2.75-3.49-1.38-3.63a8.15,8.15,0,0,1-.3-.94c0,.19-.1.36-.15.52s-.1.31-.15.43l-1.38,3.62Z"/><path class="cls-3" d="M125.72,63.6a5.11,5.11,0,0,1-.34,1.91,4.31,4.31,0,0,1-.94,1.47,4.36,4.36,0,0,1-1.47,1,5.22,5.22,0,0,1-1.9.34h-3.52V58.92h3.52a5,5,0,0,1,1.9.34,4.19,4.19,0,0,1,1.47,1,4.35,4.35,0,0,1,.94,1.48A5.11,5.11,0,0,1,125.72,63.6Zm-1.42,0a4.63,4.63,0,0,0-.23-1.5,3.18,3.18,0,0,0-.65-1.12,2.82,2.82,0,0,0-1-.7,3.5,3.5,0,0,0-1.33-.24H119v7.12h2.12a3.5,3.5,0,0,0,1.33-.24,2.84,2.84,0,0,0,1-.71,3,3,0,0,0,.65-1.11A4.63,4.63,0,0,0,124.3,63.6Z"/><path class="cls-3" d="M137.13,67.15v1.13h-5.81V58.92h5.81v1.13h-4.41v3h3.54V64.1h-3.54v3.05Z"/><path class="cls-3" d="M152.55,58.92v9.36h-1.22V61.62c0-.1,0-.21,0-.32l0-.35-3.12,5.72a.53.53,0,0,1-.5.32h-.2a.52.52,0,0,1-.49-.32l-3.18-5.74a5.64,5.64,0,0,1,0,.69v6.66H142.7V58.92h1a1.07,1.07,0,0,1,.29,0,.46.46,0,0,1,.19.2l3.13,5.61a3,3,0,0,1,.17.36l.15.37a6.88,6.88,0,0,1,.32-.74l3.07-5.6a.4.4,0,0,1,.18-.2,1.07,1.07,0,0,1,.29,0Z"/><path class="cls-3" d="M162.36,64.58v3.7H161v-3.7l-3.43-5.66h1.22a.44.44,0,0,1,.29.09.55.55,0,0,1,.19.23l2,3.5c.08.16.16.31.22.45s.13.29.18.43c0-.14.11-.28.17-.43s.14-.29.22-.45l2-3.5a.87.87,0,0,1,.17-.22.43.43,0,0,1,.29-.1h1.23Z"/></svg>