<svg xmlns="http://www.w3.org/2000/svg" viewBox="0 0 996.07 283.21"><defs><style>.cls-1{fill:#fff;}</style></defs><title>Light-Logo</title><g id="Layer_2" data-name="Layer 2"><g id="Logo"><g id="Light-Logo"><polygon class="cls-1" points="0 58.83 0 98.28 75.86 98.28 0 199.94 0 236.85 138.07 236.85 138.07 196.39 59.17 196.39 135.79 95.24 135.79 58.83 0 58.83"/><path class="cls-1" d="M309.77,107.64V237.11h40V154.42s14.41-15.17,39.7-11.38V104.35s-26.8,3.79-39.45,18.71V107.72Z"/><path class="cls-1" d="M223.87,105.19c-63.72,0-68.78,58-68.78,69.46s8.09,65.07,70.13,65.07c31,0,51.59-14.84,53.27-16.52l-16.18-24.28s-16.18,10.46-33.72,10.46-28.32-12.48-31.35-24.28l91-.34S296.36,105.19,223.87,105.19ZM196.23,158.8s3.37-23.94,27-23.94,28.66,23.94,28.66,23.94Z"/><path class="cls-1" d="M472,102.16c-38.91,0-70.46,31-70.46,69.28s31.55,69.29,70.46,69.29,70.47-31,70.47-69.29S510.94,102.16,472,102.16Zm-.16,102.49c-15.92,0-28.83-14.41-28.83-32.19s12.91-32.2,28.83-32.2,28.82,14.41,28.82,32.2S487.78,204.65,471.86,204.65Z"/><path class="cls-1" d="M605.54,56.64h47.54V162.85c0,18.2,12.48,35.06,36.75,35.06s37.76-17.87,37.76-33.38V56.64H699.27L751.2,0l52.25,56.3H775.13V158.46c0,31.36-11.8,78.9-84.62,78.9s-85.14-49.56-85.14-71.14S605.54,56.64,605.54,56.64Z"/><path class="cls-1" d="M884.78,102.49c-31.14,0-56.38,30.27-56.38,67.6s25.24,67.61,56.38,67.61,56.37-22.26,56.37-67.61C941.15,124.41,915.91,102.49,884.78,102.49ZM871.39,202c-16.85,0-30.51-14.27-30.51-31.87s13.66-31.86,30.51-31.86,30.51,14.27,30.51,31.86S888.24,202,871.39,202Z"/><rect class="cls-1" x="805.48" y="105.19" width="40.12" height="178.02"/><path class="cls-1" d="M945.09,84.35V60.06h-8.87V54.34h25.27v5.72h-8.87V84.35Z"/><path class="cls-1" d="M996.07,84.35h-7.49V64.46l-5.47,12.83H978l-5.47-12.83V84.35h-7.09v-30h8.69l6.65,14.81,6.63-14.81h8.68Z"/></g></g></g></svg>