<?xml version="1.0" encoding="UTF-8"?>
<svg width="141px" height="70px" viewBox="0 0 141 70" version="1.1" xmlns="http://www.w3.org/2000/svg" xmlns:xlink="http://www.w3.org/1999/xlink">
    <!-- Generator: Sketch 52.4 (67378) - http://www.bohemiancoding.com/sketch -->
    <title>logo</title>
    <desc>Created with Sketch.</desc>
    <defs>
        <filter x="-19.0%" y="-46.0%" width="138.0%" height="192.0%" filterUnits="objectBoundingBox" id="filter-1">
            <feOffset dx="0" dy="2" in="SourceAlpha" result="shadowOffsetOuter1"></feOffset>
            <feGaussianBlur stdDeviation="5" in="shadowOffsetOuter1" result="shadowBlurOuter1"></feGaussianBlur>
            <feColorMatrix values="0 0 0 0 0   0 0 0 0 0   0 0 0 0 0  0 0 0 0.2 0" type="matrix" in="shadowBlurOuter1" result="shadowMatrixOuter1"></feColorMatrix>
            <feMerge>
                <feMergeNode in="shadowMatrixOuter1"></feMergeNode>
                <feMergeNode in="SourceGraphic"></feMergeNode>
            </feMerge>
        </filter>
    </defs>
    <g id="Page-1" stroke="none" stroke-width="1" fill="none" fill-rule="evenodd">
        <g id="Landing" transform="translate(-457.000000, -15.000000)" fill="#FFFFFF">
            <g id="Navbar">
                <g id="Group-4" transform="translate(467.000000, 23.000000)">
                    <g id="logo" filter="url(#filter-1)">
                        <path d="M50.4241358,42.0074627 C50.4159156,46.335782 46.9061339,49.8425331 42.5740741,49.8507463 L8.39530864,49.8507463 C4.05328475,49.8548798 0.527727107,46.3457219 0.51537037,42.0074627 L0.51537037,7.99253731 C0.527727107,3.65427815 4.05328475,0.145120152 8.39530864,0.149253731 L42.5740741,0.149253731 C46.9061339,0.157466883 50.4159156,3.66421797 50.4241358,7.99253731 L50.4241358,42.0074627 Z M44.1276543,12.5522388 L40.1914198,12.5522388 L40.1914198,21.3507463 C39.2577778,19.7089552 36.6435802,18.8059701 34.9630247,18.8059701 C30.3172222,18.8059701 26.8888889,21.641791 26.8440741,27.1119403 C26.8440741,32.3358209 30.3844444,35.4253731 35.0601235,35.4253731 C37.1005224,35.5429982 39.0514513,34.5754694 40.1914198,32.880597 L40.4528395,35.0746269 L44.1276543,35.0746269 L44.1276543,12.5522388 Z M30.802716,27.1268657 C30.7285254,25.8967897 31.1763208,24.6923816 32.0362809,23.8090207 C32.8962411,22.9256597 34.0888214,22.4450552 35.3215432,22.4850746 C36.5578259,22.4623039 37.7497809,22.945026 38.6212884,23.8214168 C39.4927958,24.6978077 39.968235,25.8918231 39.9374691,27.1268657 C40.0052518,28.8012419 39.1498434,30.3782436 37.708783,31.2355951 C36.2677226,32.0929467 34.4724626,32.0929467 33.0314022,31.2355951 C31.5903418,30.3782436 30.7349334,28.8012419 30.802716,27.1268657 Z M20.1218519,18.738806 L19.9575309,20.9850746 C18.7924005,19.2542057 16.8155512,18.246883 14.7291358,18.3208955 C9.92648148,18.2910448 6.1545679,21.1641791 6.1545679,26.9179104 C6.1545679,32.6716418 9.76216049,35.6567164 14.632037,35.6567164 C16.4619753,35.619403 19.031358,34.6865672 19.965,32.7537313 L20.1666667,35.1567164 L24.0282099,35.1567164 L24.0282099,18.738806 L20.1218519,18.738806 Z M10.2476543,26.9477612 L10.2476543,26.9328358 C10.1705307,25.6129137 10.6559094,24.3220016 11.5837726,23.379299 C12.5116357,22.4365964 13.7953628,21.9301092 15.1175309,21.9850746 C21.5260494,21.9850746 21.5260494,31.9477612 15.1175309,31.9477612 C13.7884009,31.9945764 12.5013418,31.4781361 11.5738117,30.5258223 C10.6462816,29.5735085 10.1646286,28.2739766 10.2476543,26.9477612 Z" id="Combined-Shape"></path>
                        <path d="M59.8128395,14.7089552 L59.8128395,19.2238806 L64.2345679,19.2238806 L64.2345679,22.6119403 L59.7530864,22.6119403 L59.7530864,29.4776119 C59.7530864,30.9701493 60.5896296,31.7164179 61.8145679,31.7164179 C62.4775484,31.6975374 63.1280691,31.5318616 63.7191975,31.2313433 L64.8171605,34.5820896 C63.7856284,35.0161441 62.6798039,35.2467476 61.5606173,35.261194 C58.1024074,35.3880597 55.8467284,33.4253731 55.8467284,29.4552239 L55.8467284,22.6119403 L52.8590741,22.6119403 L52.8590741,19.2238806 L55.8467284,19.2238806 L55.8467284,15.1268657 L59.8128395,14.7089552 Z" id="Path"></path>
                        <path d="M71.6290123,19.1940299 L71.9203086,21.0298507 C73.1452469,19.0671642 74.7884568,18.7910448 76.4017901,18.7910448 C77.9055404,18.7560948 79.3671656,19.2890741 80.4948765,20.2835821 L78.7246914,23.7014925 C77.9513938,22.9929885 76.926993,22.622266 75.8789506,22.6716418 C73.8174691,22.6716418 71.9128395,23.761194 71.9128395,26.7014925 L71.9128395,35.0746269 L67.9691358,35.0746269 L67.9691358,19.1940299 L71.6290123,19.1940299 Z" id="Path"></path>
                        <rect id="Rectangle" x="82.832716" y="19.1268657" width="3.93623457" height="15.9626866"></rect>
                        <path d="M104.814383,33.0597015 C103.214512,34.7212221 100.989057,35.6339268 98.6822222,35.5746269 C94.0662963,35.5746269 90.2271605,32.7985075 90.2271605,27.1567164 C90.2271605,21.5149254 94.0662963,18.738806 98.6822222,18.738806 C100.846685,18.6655641 102.938441,19.524373 104.425988,21.0970149 L101.946235,23.7089552 C101.071698,22.9107597 99.9338567,22.4618597 98.7494444,22.4477612 C97.5016054,22.4169758 96.297455,22.9075622 95.4269637,23.8013826 C94.5564723,24.6952031 94.0985234,25.9112602 94.1633951,27.1567164 C94.0748397,28.3904835 94.517903,29.6033027 95.381093,30.4899814 C96.244283,31.37666 97.4454095,31.8527715 98.6822222,31.7985075 C99.9761162,31.8492019 101.235093,31.3724429 102.170309,30.4776119 L104.814383,33.0597015 Z" id="Path"></path>
                        <path d="M117.795741,23.4179104 C116.730854,22.4307575 115.309868,21.9188901 113.859506,22 C111.984753,22 110.954012,22.5820896 110.954012,23.5820896 C110.954012,24.5820896 111.887654,25.1865672 113.941667,25.3208955 C116.929321,25.5149254 120.753519,26.1865672 120.753519,30.4104478 C120.753519,33.2164179 118.460494,35.6343284 113.91179,35.6343284 C111.394691,35.6343284 108.877593,35.2164179 106.554691,32.7985075 L108.489198,29.9925373 C109.617037,31.2537313 112.223765,32.1865672 113.979012,32.2313433 C115.47284,32.2313433 116.84716,31.4850746 116.84716,30.3358209 C116.84716,29.1865672 115.943395,28.7835821 113.687716,28.6567164 C110.700062,28.4328358 107.099938,27.3358209 107.099938,23.7238806 C107.099938,20.1119403 110.909198,18.7537313 113.82216,18.7537313 C116.309383,18.7537313 118.176667,19.238806 120.021543,20.8507463 L117.795741,23.4179104 Z" id="Path"></path>
                        <path d="M87.1274691,14.7089552 C87.1274691,17.7761194 82.4816667,17.7761194 82.4816667,14.7089552 C82.4816667,11.641791 87.1274691,11.6492537 87.1274691,14.7089552 Z" id="Path"></path>
                        <path d="M92.0645679,7.96268657 C92.0645679,10.5223881 88.1731481,10.5223881 88.1731481,7.96268657 C88.1731481,5.40298507 92.0645679,5.39552239 92.0645679,7.96268657 Z" id="Path"></path>
                        <path d="M78.4931481,14.8507463 C78.4327075,15.7769772 77.6631662,16.4973571 76.7341667,16.4973571 C75.8051671,16.4973571 75.0356259,15.7769772 74.9751852,14.8507463 C75.0356259,13.9245154 75.8051671,13.2041355 76.7341667,13.2041355 C77.6631662,13.2041355 78.4327075,13.9245154 78.4931481,14.8507463 Z" id="Path"></path>
                        <path d="M82.003642,9.70149254 C82.003642,10.6700516 81.2177912,11.4552239 80.2483951,11.4552239 C79.278999,11.4552239 78.4931481,10.6700516 78.4931481,9.70149254 C78.4931481,8.73293346 79.278999,7.94776119 80.2483951,7.94776119 C81.2177912,7.94776119 82.003642,8.73293346 82.003642,9.70149254 Z" id="Path"></path>
                        <polygon id="Path" points="84.8195062 15.7462687 80.3081481 10.2985075 77.2084568 15.1492537 76.2598765 14.5447761 80.188642 8.40298507 84.7896296 13.9477612 90.309321 6.76865672 91.1981481 7.44776119 84.8195062 15.7462687"></polygon>
                        <path d="M61.6129012,47.9701493 L60.8211728,47.9701493 C60.7408417,47.9752923 60.6613308,47.9514596 60.5970988,47.9029851 C60.5532271,47.8647084 60.5198144,47.8159167 60.5,47.761194 L59.8800617,46.141791 L56.7654321,46.141791 L56.1454938,47.761194 C56.1205717,47.8274511 56.0794955,47.8864473 56.0259877,47.9328358 C55.960423,47.9794947 55.8823848,48.005485 55.8019136,48.0074627 L55.002716,48.0074627 L57.7812346,41.0223881 L58.8343827,41.0223881 L61.6129012,47.9701493 Z M59.566358,45.3656716 L58.5281481,42.6567164 C58.4393453,42.4276218 58.3645168,42.1933618 58.3040741,41.9552239 C58.3040741,42.0970149 58.2368519,42.2238806 58.1995062,42.3432836 C58.1621605,42.4626866 58.1248148,42.5746269 58.0874691,42.6641791 L57.0567284,45.3656716 L59.566358,45.3656716 Z" id="Shape" fill-rule="nonzero"></path>
                        <path d="M70.0604938,46.4701493 C70.1179837,46.4683551 70.1730931,46.493133 70.2098765,46.5373134 L70.620679,46.9850746 C70.3334965,47.3174774 69.9764513,47.5824819 69.575,47.761194 C68.657673,48.119169 67.6391171,48.119169 66.7217901,47.761194 C66.320497,47.5921051 65.9610554,47.3374021 65.668642,47.0149254 C65.3707889,46.6856177 65.1421913,46.2998752 64.9964198,45.880597 C64.830131,45.418915 64.7491461,44.9308965 64.7574074,44.4402985 C64.7488791,43.9606681 64.8247224,43.4832677 64.9814815,43.0298507 C65.1516295,42.607632 65.4057232,42.2242818 65.7283951,41.9029851 C66.0308717,41.578591 66.4004491,41.3239301 66.8114198,41.1567164 C67.251271,40.973268 67.7240851,40.8818346 68.200679,40.8880597 C68.6559349,40.8797306 69.1081726,40.9635 69.5301852,41.1343284 C69.9008126,41.2918635 70.2418176,41.5114326 70.5385185,41.7835821 L70.1949383,42.261194 C70.1731181,42.2981344 70.142281,42.3289449 70.1053086,42.3507463 C70.0639339,42.3634195 70.0197081,42.3634195 69.9783333,42.3507463 C69.897768,42.341785 69.822028,42.3078619 69.7617284,42.2537313 L69.4330864,42.0447761 C69.274107,41.9596264 69.1063033,41.8920624 68.9326543,41.8432836 C68.6907084,41.770166 68.4383556,41.7373885 68.1857407,41.7462687 C67.8575795,41.7417957 67.5320514,41.8053205 67.2296914,41.9328358 C66.9466664,42.0524459 66.6921345,42.2304643 66.4827778,42.4552239 C66.263685,42.6992896 66.0982899,42.9865744 65.997284,43.2985075 C65.878907,43.6622577 65.8208775,44.042905 65.8254938,44.4253731 C65.8194689,44.8109721 65.8801124,45.1947161 66.0047531,45.5597015 C66.0952663,45.8863236 66.255833,46.1893543 66.4753086,46.4477612 C66.6777149,46.6912712 66.9332063,46.885277 67.2222222,47.0149254 C67.5159138,47.1357041 67.8308091,47.1965989 68.1483951,47.1940299 C68.329932,47.2064333 68.512105,47.2064333 68.693642,47.1940299 C68.8443135,47.1735608 68.9921601,47.1360051 69.134321,47.0820896 C69.2695329,47.0383232 69.3978013,46.9755008 69.5152469,46.8955224 C69.64352,46.8154427 69.7636036,46.7229582 69.8737654,46.619403 C69.8981881,46.5977228 69.9259255,46.5800869 69.9559259,46.5671642 C69.9777833,46.5231736 70.014969,46.4886738 70.0604938,46.4701493 Z" id="Path"></path>
                        <path d="M80.3156173,47.9701493 L79.5164198,47.9701493 C79.4363856,47.9728573 79.3576713,47.9492634 79.2923457,47.9029851 C79.2402504,47.867565 79.1989076,47.8185128 79.1728395,47.761194 L78.5529012,46.141791 L75.4382716,46.141791 L74.8482099,47.761194 C74.8203512,47.8277979 74.7767885,47.8866847 74.7212346,47.9328358 C74.6568504,47.9817703 74.5780539,48.0080131 74.4971605,48.0074627 L73.697963,48.0074712 L76.4839506,41.0223881 L77.5296296,41.0223881 L80.3156173,47.9701493 Z M78.2616049,45.3656716 L77.2308642,42.6567164 C77.1420613,42.4276218 77.0672329,42.1933618 77.0067901,41.9552239 C77.0067901,42.0970149 76.9320988,42.2238806 76.8947531,42.3432836 C76.8574074,42.4626866 76.8200617,42.5746269 76.782716,42.6641791 L75.7519753,45.3656716 L78.2616049,45.3656716 Z" id="Shape" fill-rule="nonzero"></path>
                        <path d="M90.1674074,44.4776119 C90.1746311,44.9645795 90.0884276,45.448422 89.9134568,45.9029851 C89.7567291,46.312659 89.5178008,46.6859796 89.211358,47 C88.9005558,47.3214628 88.5267988,47.5754997 88.1133951,47.7462687 C87.6602493,47.9182528 87.178978,48.0043007 86.6942593,48 L84.0651235,48 L84.0651235,40.9850746 L86.6942593,40.9850746 C87.1793087,40.9767556 87.6613339,41.0629383 88.1133951,41.238806 C88.5285986,41.4062244 88.9030138,41.6607087 89.211358,41.9850746 C89.517993,42.3018063 89.7568773,42.6775973 89.9134568,43.0895522 C90.0837924,43.5324262 90.1699167,44.00317 90.1674074,44.4776119 Z M89.1067901,44.4776119 C89.1115352,44.0975771 89.0534924,43.7193637 88.935,43.358209 C88.8322585,43.0492807 88.6670013,42.7647758 88.4495062,42.5223881 C88.2416923,42.2958635 87.9867494,42.1175575 87.7025926,42 C87.3862516,41.8763829 87.0488306,41.8155475 86.7091975,41.8208955 L85.1481481,41.8208955 L85.1481481,47.1343284 L86.7316049,47.1343284 C87.071238,47.1396764 87.408659,47.078841 87.725,46.9552239 C88.0096231,46.835067 88.2645372,46.6542342 88.4719136,46.4253731 C88.6917854,46.1875735 88.8574236,45.9049586 88.9574074,45.5970149 C89.0683082,45.2345911 89.1187764,44.8564066 89.1067901,44.4776119 Z" id="Shape" fill-rule="nonzero"></path>
                        <polygon id="Path" points="98.6896914 47.1268657 98.6896914 47.9701493 94.3501235 47.9701493 94.3501235 40.9850746 98.6896914 40.9850746 98.6896914 41.8283582 95.3958025 41.8283582 95.3958025 44.0671642 98.0398765 44.0671642 98.0398765 44.8507463 95.3958025 44.8507463 95.3958025 47.1268657"></polygon>
                        <path d="M110.207099,40.9850746 L110.207099,47.9701493 L109.295864,47.9701493 L109.295864,43 C109.295864,42.9253731 109.295864,42.8432836 109.295864,42.761194 L109.295864,42.5 L106.965494,46.7686567 C106.90149,46.9169812 106.753648,47.0115181 106.592037,47.0074627 L106.442654,47.0074627 C106.283149,47.0105158 106.137997,46.9158047 106.076667,46.7686567 L103.701481,42.4850746 C103.712,42.6565556 103.712,42.8285191 103.701481,43 L103.701481,47.9701493 L102.85,47.9701493 L102.85,40.9850746 L103.596914,40.9850746 C103.668781,40.9752534 103.741651,40.9752534 103.813519,40.9850746 C103.874992,41.0191485 103.924524,41.0712429 103.955432,41.1343284 L106.293272,45.3208955 C106.341504,45.4075399 106.383922,45.4972897 106.420247,45.5895522 L106.532284,45.8656716 C106.601082,45.6770823 106.68089,45.4926861 106.771296,45.3134328 L109.064321,41.1343284 C109.090541,41.070558 109.138045,41.0178213 109.198765,40.9850746 C109.270633,40.9752534 109.343503,40.9752534 109.41537,40.9850746 L110.207099,40.9850746 Z" id="Path"></path>
                        <path d="M117.534321,45.2089552 L117.534321,47.9701493 L116.518519,47.9701493 L116.518519,45.2089552 L113.956605,40.9850746 L114.86784,40.9850746 C114.94573,40.9810731 115.022507,41.0048797 115.084444,41.0522388 C115.146672,41.095297 115.195784,41.1546962 115.226358,41.2238806 L116.720185,43.8358209 C116.779938,43.9552239 116.839691,44.0671642 116.884506,44.1716418 C116.929321,44.2761194 116.981605,44.3880597 117.018951,44.4925373 C117.018951,44.3880597 117.101111,44.2835821 117.145926,44.1716418 C117.190741,44.0597015 117.250494,43.9552239 117.310247,43.8358209 L118.804074,41.2238806 C118.837317,41.1627072 118.880189,41.1072732 118.931049,41.0597015 C118.991613,41.0090651 119.068725,40.9824975 119.147654,40.9850746 L120.066358,40.9850746 L117.534321,45.2089552 Z" id="Path"></path>
                    </g>
                </g>
            </g>
        </g>
    </g>
</svg>