<svg xmlns="http://www.w3.org/2000/svg" viewBox="0 0 629.97 260.7"><defs><style>.cls-1{fill:#fff;}.cls-2{fill:#4e69a2;}</style></defs><g id="Layer_2" data-name="Layer 2"><g id="Layer_1-2" data-name="Layer 1"><path class="cls-1" d="M310.73,76.39v23.67h23v17.76H310.56v36c0,7.95,4.4,11.84,10.82,11.84a23.58,23.58,0,0,0,10-2.54l5.75,17.59A46.26,46.26,0,0,1,320,184.29c-18.1.67-29.94-9.65-29.94-30.45v-36H274.53V100.06h15.56V78.59Z"/><path class="cls-1" d="M372.65,99.89l1.53,9.65c6.42-10.32,15.05-11.84,23.5-11.84,8.63,0,16.92,3.38,21.48,7.94l-9.3,17.93c-4.23-3.55-8.12-5.41-14.88-5.41-10.82,0-20.8,5.75-20.8,21.14v44H353.55V99.89Z"/><rect class="cls-1" x="431.37" y="99.56" width="20.63" height="83.71"/><path class="cls-1" d="M546.57,172.61c-9.65,9.47-19.79,13.2-32.14,13.2-24.18,0-44.31-14.55-44.31-44.14s20.13-44.14,44.31-44.14c11.84,0,21,3.38,30.1,12.34l-13,13.7a25.3,25.3,0,0,0-16.74-6.6c-13.86,0-24,10.15-24,24.7,0,15.89,10.83,24.35,23.68,24.35,6.6,0,13.19-1.86,18.27-6.93Z"/><path class="cls-1" d="M614.58,122.05c-5.92-5.58-12.68-7.44-20.63-7.44-9.81,0-15.22,3-15.22,8.28,0,5.42,4.9,8.46,15.56,9.14C610,133,630,136.59,630,158.74c0,14.72-12,27.41-35.86,27.41-13.18,0-26.38-2.21-38.55-14.89l10.14-14.71c5.92,6.59,19.45,11.5,28.75,11.67,7.78.17,15-3.89,15-10,0-5.75-4.73-8.12-16.56-8.8-15.74-1.18-34.51-6.93-34.51-25.87,0-19.28,20-26,35.18-26,13,0,22.83,2.53,32.47,11Z"/><path class="cls-2" d="M459.33,41a10.1,10.1,0,0,0,1.79,6L447,65.42a13.51,13.51,0,0,0-11,.19L426.3,53.92a9.72,9.72,0,0,0,.73-3.83c0-12.15-18.42-12.15-18.42,0a9.44,9.44,0,0,0,1.35,5l-8.37,13.11c-5.21-1.12-11.4,1.83-11.4,8.88,0,12.15,18.42,12.15,18.42,0a9,9,0,0,0-2-5.89l8-12.52a10.23,10.23,0,0,0,7.59-.5l9.28,11.21a12.23,12.23,0,0,0-2,7c0,16.06,24.36,16.06,24.36,0A12.11,12.11,0,0,0,451.59,69l14.26-18.56c6,2.06,13.88-1.1,13.88-9.48C479.73,27.52,459.33,27.52,459.33,41Z"/><path class="cls-1" d="M219.3.35H41.4A41.05,41.05,0,0,0,.35,41.4V219.3A41.05,41.05,0,0,0,41.4,260.35H219.3a41.05,41.05,0,0,0,41.05-41.05V41.4A41.05,41.05,0,0,0,219.3.35Z"/><path class="cls-2" d="M182.38,117.14c-13.19,0-23.67,9.31-23.67,24.36,0,14.54,10.48,24.52,23.67,24.52,13,0,24.18-9.47,24.18-24.52C206.56,127,195.4,117.14,182.38,117.14Z"/><path class="cls-2" d="M76.52,114.46c-14.16,0-25.52,9.61-25.52,26.05s11.36,26.22,25.52,26.22C110.09,166.73,110.09,114.46,76.52,114.46Z"/><path class="cls-2" d="M219.54,0H41.16A41.16,41.16,0,0,0,0,41.16V219.54A41.16,41.16,0,0,0,41.16,260.7H219.54a41.16,41.16,0,0,0,41.16-41.16V41.16A41.16,41.16,0,0,0,219.54,0ZM123.19,183.69h-20.1l-1-12.59c-4.9,10.14-18.36,15-28,15.2-25.52.18-44.4-15.56-44.4-45.79,0-29.72,19.75-45.28,44.92-45.1,11.54,0,22.55,5.42,27.45,14l.69-11.89h20.45Zm105.36-.42H209.27l-1.35-11.5c-6.43,10-16.74,13.36-26.89,13.36-24.52,0-43-16.23-43-43.63,0-28.75,18.1-43.63,42.45-43.63,8.8,0,22.49,4.73,27.4,13.35V65.05h20.63Z"/></g></g></svg>