<?xml version="1.0" ?><svg data-name="005" id="_005" viewBox="0 0 128 128" xmlns="http://www.w3.org/2000/svg"><defs><style>.cls-1{opacity:0.3;}.cls-2{fill:#d6b5b0;}.cls-3{fill:#fff;}.cls-4{fill:#6d6daa;}.cls-5{opacity:0.5;}.cls-6{fill:#c7e9ff;}.cls-7{fill:#e0f3ff;}.cls-8{fill:#0070b8;}.cls-9{fill:#eef6ff;}.cls-10{fill:#80d880;}.cls-11{fill:#939fc6;}.cls-12{fill:#ff9797;}.cls-13{fill:#b1f1a8;}.cls-14{fill:#ced8ee;}.cls-15{fill:#fff27d;}.cls-16{fill:#f7a706;}.cls-17{fill:#fff9e0;}.cls-18{fill:#96d7ff;}.cls-19{fill:#fff2cc;}.cls-20{fill:#c1a29f;}.cls-21{fill:#97c1ff;}.cls-22{fill:#1c64ba;}.cls-23{fill:#7690a8;}</style></defs><title/><g class="cls-1"><path class="cls-2" d="M29.38,115.71a30,30,0,0,0,33.93,5.35A19.69,19.69,0,0,1,76,119.52,37,37,0,0,0,117.26,68a21,21,0,0,1,.2-17.47c6.67-14.5.55-33.94-20.64-40.17a16.6,16.6,0,0,0-8,0A20.58,20.58,0,0,1,74.21,7.89,28.49,28.49,0,0,0,32.8,24.07,20.06,20.06,0,0,1,21.48,36.59a29,29,0,0,0-7.72,48.8,20.08,20.08,0,0,1,6.69,12.7A29.83,29.83,0,0,0,29.38,115.71Z"/><rect class="cls-3" height="22" width="34" x="54" y="25"/><path class="cls-4" d="M88,48H54a1,1,0,0,1-1-1V25a1,1,0,0,1,1-1H88a1,1,0,0,1,1,1V47A1,1,0,0,1,88,48ZM55,46H87V26H55Z"/><g class="cls-5"><path class="cls-4" d="M71,31H59a1,1,0,0,1,0-2H71a1,1,0,0,1,0,2Z"/></g><g class="cls-5"><path class="cls-4" d="M66,35H59a1,1,0,0,1,0-2h7a1,1,0,0,1,0,2Z"/></g><path class="cls-4" d="M121,16.18a1,1,0,0,1-.5-.13l-6.81-3.89-40.79-4a1,1,0,1,1,.19-2l41,4a1,1,0,0,1,.4.13l7,4a1,1,0,0,1-.5,1.87Z"/><path class="cls-4" d="M66,16.18a1,1,0,0,1-.5-1.87l7-4a1,1,0,0,1,.4-.13l41-4a1,1,0,1,1,.19,2l-40.79,4L66.5,16.05A1,1,0,0,1,66,16.18Z"/><path class="cls-6" d="M74.12,5.09h0a2.89,2.89,0,0,0-2,3.1l.45,4.23a8.29,8.29,0,0,0,6.71,7.39h0a13.29,13.29,0,0,0,4.55,0h0a8.29,8.29,0,0,0,6.71-7.39L91,8.18a2.89,2.89,0,0,0-2-3.1h0A26,26,0,0,0,74.12,5.09Z"/><path class="cls-6" d="M97.39,5.09h0a2.89,2.89,0,0,0-2,3.1l.45,4.23a8.29,8.29,0,0,0,6.71,7.39h0a13.29,13.29,0,0,0,4.55,0h0a8.29,8.29,0,0,0,6.71-7.39l.45-4.23a2.89,2.89,0,0,0-2-3.1h0A26,26,0,0,0,97.39,5.09Z"/><path class="cls-7" d="M73.43,15.31,90.26,5.89A2.74,2.74,0,0,0,89,5.09h0c-.42-.13-.85-.23-1.28-.33l-15,8.4A8.63,8.63,0,0,0,73.43,15.31Z"/><path class="cls-7" d="M83.84,19.8a8.29,8.29,0,0,0,6.71-7.39l.43-4-16.11,9a8,8,0,0,0,4.42,2.4A13.29,13.29,0,0,0,83.84,19.8Z"/><path class="cls-7" d="M96.64,15.2l16.8-9.41a2.73,2.73,0,0,0-1.16-.7h0c-.49-.14-1-.26-1.47-.38L96,13A8.66,8.66,0,0,0,96.64,15.2Z"/><path class="cls-7" d="M107.11,19.8a8.29,8.29,0,0,0,6.71-7.39l.45-4.2L98,17.31a8,8,0,0,0,4.52,2.5A13.29,13.29,0,0,0,107.11,19.8Z"/><g class="cls-1"><path class="cls-8" d="M95.67,10.77a2.79,2.79,0,0,1,1.72-1.5h0a26,26,0,0,1,14.89,0h0a2.79,2.79,0,0,1,1.72,1.5l.28-2.59a2.89,2.89,0,0,0-2-3.1h0a26,26,0,0,0-14.89,0h0a2.89,2.89,0,0,0-2,3.1Z"/></g><g class="cls-1"><path class="cls-8" d="M72.41,10.77a2.79,2.79,0,0,1,1.72-1.5h0A26,26,0,0,1,89,9.27h0a2.79,2.79,0,0,1,1.72,1.5L91,8.18a2.89,2.89,0,0,0-2-3.1h0a26,26,0,0,0-14.89,0h0a2.89,2.89,0,0,0-2,3.1Z"/></g><path class="cls-4" d="M95.44,9.36H91a1,1,0,1,1,0-2h4.44a1,1,0,0,1,0,2Z"/><path class="cls-4" d="M81.56,21a14.29,14.29,0,0,1-2.45-.21,9.33,9.33,0,0,1-7.53-8.27l-.45-4.23a3.88,3.88,0,0,1,2.7-4.16h0a27,27,0,0,1,15.46,0A3.88,3.88,0,0,1,92,8.29l-.45,4.23A9.33,9.33,0,0,1,84,20.79,14.29,14.29,0,0,1,81.56,21ZM74.4,6a1.88,1.88,0,0,0-1.28,2l.45,4.23a7.32,7.32,0,0,0,5.89,6.51,12.26,12.26,0,0,0,4.21,0,7.32,7.32,0,0,0,5.89-6.51L90,8.08a1.88,1.88,0,0,0-1.28-2A25,25,0,0,0,74.4,6Zm-.29-1h0Z"/><path class="cls-4" d="M104.83,21a14.27,14.27,0,0,1-2.45-.21,9.33,9.33,0,0,1-7.53-8.27L94.4,8.29a3.88,3.88,0,0,1,2.7-4.16l.29,1-.29-1a27,27,0,0,1,15.46,0,3.88,3.88,0,0,1,2.7,4.16l-.45,4.23a9.33,9.33,0,0,1-7.53,8.27A14.29,14.29,0,0,1,104.83,21ZM97.68,6a1.88,1.88,0,0,0-1.28,2l.45,4.23a7.32,7.32,0,0,0,5.89,6.51,12.23,12.23,0,0,0,4.21,0,7.32,7.32,0,0,0,5.89-6.51l.45-4.23A1.88,1.88,0,0,0,112,6,25,25,0,0,0,97.67,6Z"/><polygon class="cls-9" points="31 97 29 97 27 96 25 97 23 96 21 97 19 96 17 97 15 96 13 97 11 97 11 95 12 93 11 91 12 89 11 87 12 85 11 83 12 81 11 79 11 77 13 77 15 78 17 77 19 78 21 77 23 78 25 77 27 78 29 77 31 77 31 79 30 81 31 83 30 85 31 87 30 89 31 91 30 93 31 95 31 97"/><path class="cls-4" d="M31,98H29a1,1,0,0,1-.45-.11L27,97.12l-1.55.78a1,1,0,0,1-.89,0L23,97.12l-1.55.78a1,1,0,0,1-.89,0L19,97.12l-1.55.78a1,1,0,0,1-.89,0L15,97.12l-1.55.78A1,1,0,0,1,13,98H11a1,1,0,0,1-1-1V95a1,1,0,0,1,.11-.45L10.88,93l-.78-1.55a1,1,0,0,1,0-.89L10.88,89l-.78-1.55a1,1,0,0,1,0-.89L10.88,85l-.78-1.55a1,1,0,0,1,0-.89L10.88,81l-.78-1.55A1,1,0,0,1,10,79V77a1,1,0,0,1,1-1h2a1,1,0,0,1,.45.11l1.55.78,1.55-.78a1,1,0,0,1,.89,0l1.55.78,1.55-.78a1,1,0,0,1,.89,0l1.55.78,1.55-.78a1,1,0,0,1,.89,0l1.55.78,1.55-.78A1,1,0,0,1,29,76h2a1,1,0,0,1,1,1v2a1,1,0,0,1-.11.45L31.12,81l.78,1.55a1,1,0,0,1,0,.89L31.12,85l.78,1.55a1,1,0,0,1,0,.89L31.12,89l.78,1.55a1,1,0,0,1,0,.89L31.12,93l.78,1.55A1,1,0,0,1,32,95v2A1,1,0,0,1,31,98Zm-1.76-2H30v-.76l-.89-1.79a1,1,0,0,1,0-.89L29.88,91l-.78-1.55a1,1,0,0,1,0-.89L29.88,87l-.78-1.55a1,1,0,0,1,0-.89L29.88,83l-.78-1.55a1,1,0,0,1,0-.89L30,78.76V78h-.76l-1.79.89a1,1,0,0,1-.89,0L25,78.12l-1.55.78a1,1,0,0,1-.89,0L21,78.12l-1.55.78a1,1,0,0,1-.89,0L17,78.12l-1.55.78a1,1,0,0,1-.89,0L12.76,78H12v.76l.89,1.79a1,1,0,0,1,0,.89L12.12,83l.78,1.55a1,1,0,0,1,0,.89L12.12,87l.78,1.55a1,1,0,0,1,0,.89L12.12,91l.78,1.55a1,1,0,0,1,0,.89L12,95.24V96h.76l1.79-.89a1,1,0,0,1,.89,0l1.55.78,1.55-.78a1,1,0,0,1,.89,0l1.55.78,1.55-.78a1,1,0,0,1,.89,0l1.55.78,1.55-.78a1,1,0,0,1,.89,0Z"/><rect class="cls-10" height="10" width="10" x="16" y="82"/><path class="cls-4" d="M26,93H16a1,1,0,0,1-1-1V82a1,1,0,0,1,1-1H26a1,1,0,0,1,1,1V92A1,1,0,0,1,26,93Zm-9-2h8V83H17Z"/><path class="cls-11" d="M11,9H43a4,4,0,0,1,4,4V57a4,4,0,0,1-4,4H11a0,0,0,0,1,0,0V9A0,0,0,0,1,11,9Z"/><path class="cls-4" d="M43,62H11a1,1,0,0,1-1-1V9a1,1,0,0,1,1-1H43a5,5,0,0,1,5,5V57A5,5,0,0,1,43,62ZM12,60H43a3,3,0,0,0,3-3V13a3,3,0,0,0-3-3H12Z"/><rect class="cls-11" height="52" width="4" x="7" y="9"/><path class="cls-4" d="M11,62H7a1,1,0,0,1-1-1V9A1,1,0,0,1,7,8h4a1,1,0,0,1,1,1V61A1,1,0,0,1,11,62ZM8,60h2V10H8Z"/><polygon class="cls-12" points="12 61 12 65 18 67 18 61 12 61"/><path class="cls-4" d="M18,68a1,1,0,0,1-.32-.05l-6-2A1,1,0,0,1,11,65V61a1,1,0,0,1,1-1h6a1,1,0,0,1,1,1v6a1,1,0,0,1-1,1Zm-5-3.72,4,1.33V62H13Z"/><rect class="cls-13" height="20" width="40" x="7" y="25"/><g class="cls-1"><path class="cls-4" d="M9,33l-.2,0-.18-.06a.76.76,0,0,1-.18-.09,1.53,1.53,0,0,1-.15-.12,1.68,1.68,0,0,1-.12-.15.74.74,0,0,1-.09-.18A.65.65,0,0,1,8,32.2,1.38,1.38,0,0,1,8,32a.83.83,0,0,1,.08-.38,1.15,1.15,0,0,1,.21-.33,1,1,0,0,1,1.09-.21,1,1,0,0,1,.33.21,1.15,1.15,0,0,1,.21.33A1,1,0,0,1,10,32a1,1,0,0,1-.29.71,1.17,1.17,0,0,1-.33.21A1,1,0,0,1,9,33Z"/><path class="cls-4" d="M9,27l-.2,0-.18-.06a.76.76,0,0,1-.18-.09l-.15-.12a1.15,1.15,0,0,1-.21-.33A.83.83,0,0,1,8,26a1.38,1.38,0,0,1,0-.2.65.65,0,0,1,.06-.18.74.74,0,0,1,.09-.18,1.55,1.55,0,0,1,.12-.15,1.53,1.53,0,0,1,.15-.12.76.76,0,0,1,.18-.09A.63.63,0,0,1,8.8,25a1,1,0,0,1,.58.06,1.16,1.16,0,0,1,.33.21A1,1,0,0,1,10,26a1,1,0,0,1-.08.38,1.15,1.15,0,0,1-.21.33,1.17,1.17,0,0,1-.33.21A.84.84,0,0,1,9,27Z"/><path class="cls-4" d="M12,30a1,1,0,0,1-.38-.08.9.9,0,0,1-.54-.54.94.94,0,0,1,0-.76,1,1,0,0,1,.21-.33A1,1,0,0,1,12.2,28l.18.06a.76.76,0,0,1,.18.09l.15.12a1.15,1.15,0,0,1,.21.33.94.94,0,0,1,0,.76,1.15,1.15,0,0,1-.21.33l-.15.12a.76.76,0,0,1-.18.09L12.2,30Z"/><path class="cls-4" d="M15,33a1.05,1.05,0,0,1-.71-.29,1.68,1.68,0,0,1-.12-.15.74.74,0,0,1-.09-.18.62.62,0,0,1-.06-.19A1.25,1.25,0,0,1,14,32a1,1,0,1,1,1.71.71l-.15.12a.76.76,0,0,1-.18.09L15.2,33Z"/><path class="cls-4" d="M15,27a1,1,0,0,1-1-1,1.25,1.25,0,0,1,0-.19.62.62,0,0,1,.06-.19.74.74,0,0,1,.09-.18,1.55,1.55,0,0,1,.12-.15A1,1,0,0,1,15.2,25l.18.06a.76.76,0,0,1,.18.09l.15.12a1,1,0,0,1,0,1.42l-.15.12a.76.76,0,0,1-.18.09L15.2,27Z"/><path class="cls-4" d="M18,30l-.2,0-.18-.06a.76.76,0,0,1-.18-.09l-.15-.12A1,1,0,0,1,17,29a.83.83,0,0,1,.08-.38,1.15,1.15,0,0,1,.21-.33l.15-.12a.76.76,0,0,1,.18-.09A.63.63,0,0,1,17.8,28a.85.85,0,0,1,.39,0,.61.61,0,0,1,.19.06.56.56,0,0,1,.17.09l.15.12a.91.91,0,0,1,.22.33,1,1,0,0,1-.22,1.09l-.15.12a.56.56,0,0,1-.17.09.62.62,0,0,1-.19.06Z"/><path class="cls-4" d="M21,33a1.05,1.05,0,0,1-.71-.29,1,1,0,0,1-.21-.33.94.94,0,0,1,0-.76,1.15,1.15,0,0,1,.21-.33,1,1,0,0,1,.9-.27.61.61,0,0,1,.19.06.76.76,0,0,1,.18.09l.15.12a1.15,1.15,0,0,1,.21.33.94.94,0,0,1,0,.76,1,1,0,0,1-.21.33l-.15.12a.76.76,0,0,1-.18.09.62.62,0,0,1-.19.06Z"/><path class="cls-4" d="M21,27a1.05,1.05,0,0,1-.71-.29,1,1,0,0,1,0-1.42,1,1,0,0,1,1.42,1.42l-.15.12a.76.76,0,0,1-.18.09.62.62,0,0,1-.19.06Z"/><path class="cls-4" d="M24,30a1,1,0,0,1-.38-.08,1.16,1.16,0,0,1-.33-.21A1,1,0,0,1,23,29a1,1,0,0,1,.08-.38.9.9,0,0,1,.54-.54.93.93,0,0,1,.57-.06.61.61,0,0,1,.19.06.56.56,0,0,1,.17.09l.15.12a.91.91,0,0,1,.22.33.94.94,0,0,1,0,.76.84.84,0,0,1-.22.33.61.61,0,0,1-.15.12.56.56,0,0,1-.17.09.62.62,0,0,1-.19.06Z"/><path class="cls-4" d="M27,33a1,1,0,0,1-1-1,.83.83,0,0,1,.08-.38,1.15,1.15,0,0,1,.21-.33,1,1,0,0,1,.33-.21.93.93,0,0,1,.57-.06.61.61,0,0,1,.19.06.76.76,0,0,1,.18.09l.15.12a1.15,1.15,0,0,1,.21.33A1,1,0,0,1,28,32a1.05,1.05,0,0,1-.29.71l-.15.12a.76.76,0,0,1-.18.09.62.62,0,0,1-.19.06Z"/><path class="cls-4" d="M27,27a1,1,0,0,1-.38-.08,1,1,0,0,1-.33-.21,1,1,0,0,1,0-1.42,1,1,0,0,1,1.42,0,1,1,0,0,1,0,1.42l-.15.12a.76.76,0,0,1-.18.09.62.62,0,0,1-.19.06Z"/><path class="cls-4" d="M30,30a1.05,1.05,0,0,1-.71-.29,1.68,1.68,0,0,1-.12-.15.74.74,0,0,1-.09-.18A.65.65,0,0,1,29,29.2a1.53,1.53,0,0,1,0-.2,1,1,0,0,1,.08-.38,1,1,0,0,1,.21-.33A1,1,0,0,1,31,29a1.39,1.39,0,0,1,0,.2.62.62,0,0,1-.06.18.78.78,0,0,1-.09.18l-.12.15A1.05,1.05,0,0,1,30,30Z"/><path class="cls-4" d="M33,33l-.2,0-.18-.06a.76.76,0,0,1-.18-.09,1.53,1.53,0,0,1-.15-.12A1,1,0,0,1,32,32a1.54,1.54,0,0,1,0-.2.65.65,0,0,1,.06-.18.74.74,0,0,1,.09-.18l.12-.15.15-.12a.76.76,0,0,1,.18-.09A.63.63,0,0,1,32.8,31a1,1,0,0,1,.91.27l.12.15a.78.78,0,0,1,.09.18.62.62,0,0,1,.06.18,1.39,1.39,0,0,1,0,.2,1,1,0,0,1-1,1Z"/><path class="cls-4" d="M33,27l-.2,0-.18-.06a.76.76,0,0,1-.18-.09l-.15-.12a1,1,0,0,1,0-1.42,1,1,0,0,1,1.42,0A1,1,0,0,1,33,27Z"/><path class="cls-4" d="M36,30a1,1,0,0,1-.38-.08.94.94,0,0,1-.33-.21,1,1,0,0,1,0-1.42,1,1,0,0,1,.33-.21,1,1,0,0,1,.76,0,1.16,1.16,0,0,1,.33.21A1.05,1.05,0,0,1,37,29a1,1,0,0,1-.08.38,1,1,0,0,1-.21.33,1,1,0,0,1-.33.21A1,1,0,0,1,36,30Z"/><path class="cls-4" d="M39,33a1,1,0,0,1-.38-.08,1,1,0,0,1-.33-.21,1,1,0,0,1,0-1.42,1,1,0,0,1,.33-.21.92.92,0,0,1,.76,0,1.16,1.16,0,0,1,.33.21,1,1,0,0,1,.21.33.94.94,0,0,1,0,.76.94.94,0,0,1-.21.33,1,1,0,0,1-.33.21A1,1,0,0,1,39,33Z"/><path class="cls-4" d="M39,27a1,1,0,0,1-.38-.08,1,1,0,0,1-.33-.21,1,1,0,0,1,0-1.42,1,1,0,0,1,1.42,0,.93.93,0,0,1,.21.33.94.94,0,0,1,0,.76,1.15,1.15,0,0,1-.21.33,1.17,1.17,0,0,1-.33.21A1,1,0,0,1,39,27Z"/><path class="cls-4" d="M42,30l-.19,0a.61.61,0,0,1-.19-.06.76.76,0,0,1-.18-.09l-.15-.12a1,1,0,0,1,0-1.42l.15-.12a.76.76,0,0,1,.18-.09.6.6,0,0,1,.19-.06,1,1,0,0,1,.9.27A1,1,0,0,1,42,30Z"/><path class="cls-4" d="M9,39l-.2,0-.18-.06a.76.76,0,0,1-.18-.09l-.15-.12a1.68,1.68,0,0,1-.12-.15.74.74,0,0,1-.09-.18A.65.65,0,0,1,8,38.2a1,1,0,0,1,0-.4.65.65,0,0,1,.06-.18.74.74,0,0,1,.09-.18,1.55,1.55,0,0,1,.12-.15l.15-.12a.76.76,0,0,1,.18-.09A.63.63,0,0,1,8.8,37a1,1,0,0,1,.58.06,1.16,1.16,0,0,1,.33.21,1,1,0,0,1,0,1.42,1.17,1.17,0,0,1-.33.21A1,1,0,0,1,9,39Z"/><path class="cls-4" d="M12,36a1,1,0,0,1-.38-.08A1,1,0,0,1,11,35a1,1,0,0,1,.08-.38,1,1,0,0,1,.21-.33A1,1,0,0,1,12.2,34l.18.06a.76.76,0,0,1,.18.09l.15.12a1,1,0,0,1,.21.33A1,1,0,0,1,13,35a1.05,1.05,0,0,1-.29.71l-.15.12a.76.76,0,0,1-.18.09L12.2,36Z"/><path class="cls-4" d="M15,39a1,1,0,0,1-1-1,1,1,0,0,1,.08-.38,1.15,1.15,0,0,1,.21-.33A1,1,0,0,1,15.2,37l.18.06a.76.76,0,0,1,.18.09l.15.12a1.15,1.15,0,0,1,.21.33.94.94,0,0,1,0,.76,1.15,1.15,0,0,1-.21.33A1.05,1.05,0,0,1,15,39Z"/><path class="cls-4" d="M18,36l-.2,0-.18-.06a.76.76,0,0,1-.18-.09,1.53,1.53,0,0,1-.15-.12,1,1,0,0,1,0-1.42,1.53,1.53,0,0,1,.15-.12.76.76,0,0,1,.18-.09A.63.63,0,0,1,17.8,34a.85.85,0,0,1,.39,0,.61.61,0,0,1,.19.06.56.56,0,0,1,.17.09.61.61,0,0,1,.15.12,1,1,0,0,1,0,1.42.61.61,0,0,1-.15.12.56.56,0,0,1-.17.09.62.62,0,0,1-.19.06Z"/><path class="cls-4" d="M21,39a1.05,1.05,0,0,1-.71-.29,1.15,1.15,0,0,1-.21-.33A1,1,0,0,1,20,38a1,1,0,0,1,.29-.71,1,1,0,0,1,.9-.27.61.61,0,0,1,.19.06.76.76,0,0,1,.18.09l.15.12A1.05,1.05,0,0,1,22,38a1,1,0,0,1-.08.38,1.15,1.15,0,0,1-.21.33l-.15.12a.76.76,0,0,1-.18.09.62.62,0,0,1-.19.06Z"/><path class="cls-4" d="M24,36a1,1,0,0,1-.38-.08,1.16,1.16,0,0,1-.33-.21,1,1,0,0,1,0-1.42,1,1,0,0,1,.33-.21.93.93,0,0,1,.57-.06.61.61,0,0,1,.19.06.56.56,0,0,1,.17.09.61.61,0,0,1,.15.12,1,1,0,0,1,0,1.42l-.15.12a.56.56,0,0,1-.17.09.62.62,0,0,1-.19.06Z"/><path class="cls-4" d="M27,39a1,1,0,0,1-.38-.08,1,1,0,0,1-.33-.21A1,1,0,0,1,26,38a.83.83,0,0,1,.08-.38,1,1,0,0,1,1.84,0A1,1,0,0,1,28,38a1.05,1.05,0,0,1-.29.71l-.15.12a.76.76,0,0,1-.18.09.62.62,0,0,1-.19.06Z"/><path class="cls-4" d="M30,36l-.2,0-.18-.06a.76.76,0,0,1-.18-.09,1.53,1.53,0,0,1-.15-.12,1,1,0,0,1-.21-.33A1,1,0,0,1,29,35a1,1,0,1,1,1,1Z"/><path class="cls-4" d="M33,39l-.2,0-.18-.06a.76.76,0,0,1-.18-.09l-.15-.12a1,1,0,0,1,0-1.42l.15-.12a.76.76,0,0,1,.18-.09A.63.63,0,0,1,32.8,37a1,1,0,1,1,.2,2Z"/><path class="cls-4" d="M36,36a1,1,0,0,1-.38-.08,1,1,0,0,1-.33-.21,1,1,0,0,1,0-1.42,1,1,0,0,1,.33-.21,1,1,0,0,1,.76,0,1,1,0,0,1,.33.21,1,1,0,0,1,.21.33A1,1,0,0,1,37,35a1.05,1.05,0,0,1-.29.71,1.17,1.17,0,0,1-.33.21A1,1,0,0,1,36,36Z"/><path class="cls-4" d="M39,39a1.05,1.05,0,0,1-.71-.29,1,1,0,0,1,0-1.42,1,1,0,0,1,1.42,0,.93.93,0,0,1,.21.33.94.94,0,0,1,0,.76,1.15,1.15,0,0,1-.21.33A1.05,1.05,0,0,1,39,39Z"/><path class="cls-4" d="M42,36l-.19,0a.61.61,0,0,1-.19-.06.76.76,0,0,1-.18-.09l-.15-.12a1,1,0,0,1,0-1.42,1.53,1.53,0,0,1,.15-.12.76.76,0,0,1,.18-.09.6.6,0,0,1,.19-.06.81.81,0,0,1,.38,0,.61.61,0,0,1,.19.06.56.56,0,0,1,.17.09,1,1,0,0,1,.16.12A1,1,0,0,1,42,36Z"/><path class="cls-4" d="M9,45l-.2,0-.18-.06a.76.76,0,0,1-.18-.09l-.15-.12a1.15,1.15,0,0,1-.21-.33A.83.83,0,0,1,8,44a1.38,1.38,0,0,1,0-.2.65.65,0,0,1,.06-.18.74.74,0,0,1,.09-.18,1.55,1.55,0,0,1,.12-.15,1.53,1.53,0,0,1,.15-.12.76.76,0,0,1,.18-.09A.63.63,0,0,1,8.8,43a1,1,0,0,1,.58.06,1.16,1.16,0,0,1,.33.21A1,1,0,0,1,10,44a1,1,0,0,1-.08.38,1.15,1.15,0,0,1-.21.33,1.17,1.17,0,0,1-.33.21A.84.84,0,0,1,9,45Z"/><path class="cls-4" d="M12,42a1.05,1.05,0,0,1-.71-.29,1,1,0,0,1,.33-1.63A1,1,0,0,1,12.2,40l.18.06a.76.76,0,0,1,.18.09l.15.12a1,1,0,0,1,0,1.42l-.15.12a.76.76,0,0,1-.18.09L12.2,42Z"/><path class="cls-4" d="M15,45a1,1,0,0,1-.71-1.71A1,1,0,0,1,15.2,43l.18.06a.76.76,0,0,1,.18.09l.15.12a1,1,0,0,1,0,1.42l-.15.12a.76.76,0,0,1-.18.09L15.2,45Z"/><path class="cls-4" d="M18,42l-.2,0-.18-.06a.76.76,0,0,1-.18-.09l-.15-.12a1,1,0,0,1-.21-.33.94.94,0,0,1,0-.76,1.15,1.15,0,0,1,.21-.33l.15-.12a.76.76,0,0,1,.18-.09A.63.63,0,0,1,17.8,40a.85.85,0,0,1,.39,0,.61.61,0,0,1,.19.06.56.56,0,0,1,.17.09l.15.12a1,1,0,0,1,.22,1.09.92.92,0,0,1-.22.33l-.15.12a.56.56,0,0,1-.17.09.62.62,0,0,1-.19.06Z"/><path class="cls-4" d="M21,45a1.05,1.05,0,0,1-.71-.29A1,1,0,0,1,20,44a1,1,0,0,1,.08-.38,1.15,1.15,0,0,1,.21-.33,1,1,0,0,1,1.42,0,1.15,1.15,0,0,1,.21.33A1,1,0,0,1,22,44a1.05,1.05,0,0,1-.29.71l-.15.12a.76.76,0,0,1-.18.09.62.62,0,0,1-.19.06Z"/><path class="cls-4" d="M24,42a.84.84,0,0,1-.38-.08,1.16,1.16,0,0,1-.33-.21A1,1,0,0,1,23,41a1,1,0,0,1,.08-.38.9.9,0,0,1,.54-.54.93.93,0,0,1,.57-.06.61.61,0,0,1,.19.06.56.56,0,0,1,.17.09l.15.12a1,1,0,0,1,0,1.42.61.61,0,0,1-.15.12.56.56,0,0,1-.17.09.62.62,0,0,1-.19.06Z"/><path class="cls-4" d="M27,45a1,1,0,0,1-.38-.08,1,1,0,0,1-.33-.21,1,1,0,0,1,0-1.42,1,1,0,0,1,.33-.21.93.93,0,0,1,.57-.06.61.61,0,0,1,.19.06.76.76,0,0,1,.18.09l.15.12a1,1,0,0,1,0,1.42l-.15.12a.76.76,0,0,1-.18.09.62.62,0,0,1-.19.06Z"/><path class="cls-4" d="M30,42a1.05,1.05,0,0,1-.71-.29,1.15,1.15,0,0,1-.21-.33.94.94,0,0,1,0-.76,1.15,1.15,0,0,1,.21-.33A1,1,0,1,1,30,42Z"/><path class="cls-4" d="M33,45a1,1,0,0,1-.71-.29A1,1,0,0,1,32,44a1,1,0,0,1,.08-.38.93.93,0,0,1,.21-.33l.15-.12a.76.76,0,0,1,.18-.09A.63.63,0,0,1,32.8,43a1,1,0,0,1,.91.27.93.93,0,0,1,.21.33A1,1,0,0,1,34,44a1,1,0,0,1-.62.92A1,1,0,0,1,33,45Z"/><path class="cls-4" d="M36,42a1,1,0,0,1-1-1,1.25,1.25,0,0,1,0-.19.62.62,0,0,1,.06-.19.74.74,0,0,1,.09-.18,1.55,1.55,0,0,1,.12-.15,1,1,0,0,1,1.42,0l.12.15a.78.78,0,0,1,.09.18.59.59,0,0,1,.06.19A1.14,1.14,0,0,1,37,41a1,1,0,0,1-1,1Z"/><path class="cls-4" d="M39,45a1.05,1.05,0,0,1-.71-.29,1,1,0,0,1,0-1.42,1,1,0,0,1,.33-.21.92.92,0,0,1,.76,0,.9.9,0,0,1,.54.54.94.94,0,0,1,0,.76.94.94,0,0,1-.21.33A1.05,1.05,0,0,1,39,45Z"/><path class="cls-4" d="M45,33a1,1,0,0,1-.71-1.71,1,1,0,0,1,1.42,0,1,1,0,0,1,.21.33A1,1,0,0,1,46,32a1,1,0,0,1-.29.71A1.05,1.05,0,0,1,45,33Z"/><path class="cls-4" d="M45,27a1,1,0,0,1-.71-.29,1,1,0,0,1,1.42-1.42A1,1,0,0,1,46,26a1,1,0,0,1-.08.38,1,1,0,0,1-.21.33,1,1,0,0,1-.33.21A1,1,0,0,1,45,27Z"/><path class="cls-4" d="M45,39a1,1,0,0,1-.71-.29,1,1,0,0,1,1.42-1.42A1,1,0,0,1,46,38a1,1,0,0,1-.08.38,1,1,0,0,1-.21.33,1,1,0,0,1-.33.21A1,1,0,0,1,45,39Z"/><path class="cls-4" d="M45,45a1,1,0,0,1-.71-1.71,1,1,0,0,1,1.42,0,1,1,0,0,1,.21.33A1,1,0,0,1,46,44a1,1,0,0,1-.29.71A1.05,1.05,0,0,1,45,45Z"/><path class="cls-4" d="M42,42l-.19,0a.61.61,0,0,1-.19-.06.76.76,0,0,1-.18-.09,1.53,1.53,0,0,1-.15-.12A1,1,0,0,1,41,41a1,1,0,0,1,.08-.38,1.15,1.15,0,0,1,.21-.33l.15-.12a.76.76,0,0,1,.18-.09.6.6,0,0,1,.19-.06,1,1,0,0,1,.9.27,1,1,0,0,1,0,1.42,1,1,0,0,1-.16.12.56.56,0,0,1-.17.09.62.62,0,0,1-.19.06Z"/></g><g class="cls-1"><path class="cls-4" d="M11,46a1,1,0,0,1-1-1V25a1,1,0,0,1,2,0V45A1,1,0,0,1,11,46Z"/></g><path class="cls-4" d="M47,46H7a1,1,0,0,1-1-1V25a1,1,0,0,1,1-1H47a1,1,0,0,1,1,1V45A1,1,0,0,1,47,46ZM8,44H46V26H8Z"/><rect class="cls-14" height="54" width="4" x="37" y="8"/><path class="cls-4" d="M41,63H37a1,1,0,0,1-1-1V8a1,1,0,0,1,1-1h4a1,1,0,0,1,1,1V62A1,1,0,0,1,41,63Zm-3-2h2V9H38Z"/><polygon class="cls-2" points="41 119 34 116 41 113 43 116 41 119"/><path class="cls-4" d="M41,120a1,1,0,0,1-.39-.08l-7-3a1,1,0,0,1,0-1.84l7-3a1,1,0,0,1,1.23.36l2,3a1,1,0,0,1,0,1.11l-2,3A1,1,0,0,1,41,120Zm-4.46-4,4.09,1.75L41.8,116l-1.17-1.75Z"/><polygon class="cls-15" points="79 119 41 119 43 116 41 113 79 113 79 119"/><g class="cls-5"><polygon class="cls-16" points="79 116 43 116 42 117.5 43 119 79 119 79 116"/></g><path class="cls-4" d="M79,120H41a1,1,0,0,1-.83-1.55L41.8,116l-1.63-2.45A1,1,0,0,1,41,112H79a1,1,0,0,1,1,1v6A1,1,0,0,1,79,120Zm-36.13-2H78v-4H42.87l1,1.45a1,1,0,0,1,0,1.11Z"/><rect class="cls-9" height="6" width="4" x="79" y="113"/><path class="cls-4" d="M83,120H79a1,1,0,0,1-1-1v-6a1,1,0,0,1,1-1h4a1,1,0,0,1,1,1v6A1,1,0,0,1,83,120Zm-3-2h2v-4H80Z"/><path class="cls-12" d="M87,119H83v-6h4a3,3,0,0,1,3,3h0A3,3,0,0,1,87,119Z"/><g class="cls-1"><path class="cls-17" d="M90,116a3,3,0,0,0-3-3H84a3,3,0,0,1,0,6h3A3,3,0,0,0,90,116Z"/></g><path class="cls-4" d="M87,120H83a1,1,0,0,1-1-1v-6a1,1,0,0,1,1-1h4a4,4,0,0,1,0,8Zm-3-2h3a2,2,0,0,0,0-4H84Z"/><rect class="cls-18" height="8" width="7" x="101" y="109"/><path class="cls-4" d="M108,118h-7a1,1,0,0,1-1-1v-8a1,1,0,0,1,1-1h7a1,1,0,0,1,1,1v8A1,1,0,0,1,108,118Zm-6-2h5v-6h-5Z"/><rect class="cls-3" height="8" width="5" x="96" y="109"/><path class="cls-4" d="M101,118H96a1,1,0,0,1-1-1v-8a1,1,0,0,1,1-1h5a1,1,0,0,1,1,1v8A1,1,0,0,1,101,118Zm-4-2h3v-6H97Z"/><rect class="cls-3" height="8" width="4" x="108" y="109"/><path class="cls-4" d="M112,118h-4a1,1,0,0,1-1-1v-8a1,1,0,0,1,1-1h4a1,1,0,0,1,1,1v8A1,1,0,0,1,112,118Zm-3-2h2v-6h-2Z"/><polygon class="cls-3" points="116 84 116 76 124 76 116 84"/><polygon class="cls-19" points="116 84 90 84 90 50 124 50 124 76 116 76 116 84"/><g class="cls-1"><rect class="cls-20" height="5" width="34" x="90" y="50"/></g><path class="cls-4" d="M116,85a1,1,0,0,1-1-1V76a1,1,0,0,1,1-1h8a1,1,0,0,1,.71,1.71l-8,8A1,1,0,0,1,116,85Zm1-8v4.59L121.59,77Z"/><path class="cls-4" d="M116,85H90a1,1,0,0,1-1-1V50a1,1,0,0,1,1-1h34a1,1,0,0,1,1,1V76a1,1,0,0,1-1,1h-7v7A1,1,0,0,1,116,85ZM91,83h24V76a1,1,0,0,1,1-1h7V51H91Z"/></g><path class="cls-3" d="M94.5,85.55a1,1,0,0,1,1-1h0a1,1,0,0,1,1,1h0a1,1,0,0,1-1,1h0A1,1,0,0,1,94.5,85.55Zm-4,0a1,1,0,0,1,1-1h0a1,1,0,0,1,1,1h0a1,1,0,0,1-1,1h0A1,1,0,0,1,90.5,85.55Zm-4,0a1,1,0,0,1,1-1h0a1,1,0,0,1,1,1h0a1,1,0,0,1-1,1h0A1,1,0,0,1,86.5,85.55Zm-4,0a1,1,0,0,1,1-1h0a1,1,0,0,1,1,1h0a1,1,0,0,1-1,1h0A1,1,0,0,1,82.5,85.55Zm-4,0a1,1,0,0,1,1-1h0a1,1,0,0,1,1,1h0a1,1,0,0,1-1,1h0A1,1,0,0,1,78.5,85.55Zm-4,0a1,1,0,0,1,1-1h0a1,1,0,0,1,1,1h0a1,1,0,0,1-1,1h0A1,1,0,0,1,74.5,85.55Zm-4,0a1,1,0,0,1,1-1h0a1,1,0,0,1,1,1h0a1,1,0,0,1-1,1h0A1,1,0,0,1,70.5,85.55Zm-4,0a1,1,0,0,1,1-1h0a1,1,0,0,1,1,1h0a1,1,0,0,1-1,1h0A1,1,0,0,1,66.5,85.55Zm-4,0a1,1,0,0,1,1-1h0a1,1,0,0,1,1,1h0a1,1,0,0,1-1,1h0A1,1,0,0,1,62.5,85.55Zm-4,0a1,1,0,0,1,1-1h0a1,1,0,0,1,1,1h0a1,1,0,0,1-1,1h0A1,1,0,0,1,58.5,85.55Zm-4,0a1,1,0,0,1,1-1h0a1,1,0,0,1,1,1h0a1,1,0,0,1-1,1h0A1,1,0,0,1,54.5,85.55Zm-4,0a1,1,0,0,1,1-1h0a1,1,0,0,1,1,1h0a1,1,0,0,1-1,1h0A1,1,0,0,1,50.5,85.55Zm-4,0a1,1,0,0,1,1-1h0a1,1,0,0,1,1,1h0a1,1,0,0,1-1,1h0A1,1,0,0,1,46.5,85.55Zm-4,0a1,1,0,0,1,1-1h0a1,1,0,0,1,1,1h0a1,1,0,0,1-1,1h0A1,1,0,0,1,42.5,85.55Zm-4,0a1,1,0,0,1,1-1h0a1,1,0,0,1,1,1h0a1,1,0,0,1-1,1h0A1,1,0,0,1,38.5,85.55Zm-4,0a1,1,0,0,1,1-1h0a1,1,0,0,1,1,1h0a1,1,0,0,1-1,1h0A1,1,0,0,1,34.5,85.55Z"/><path class="cls-21" d="M36,27H97a0,0,0,0,1,0,0v86a0,0,0,0,1,0,0H36a5,5,0,0,1-5-5V32A5,5,0,0,1,36,27Z" transform="translate(-6 134) rotate(-90)"/><g class="cls-1"><path class="cls-22" d="M25,98V37H21V98a5,5,0,0,0,5,5h4A5,5,0,0,1,25,98Z"/></g><g class="cls-1"><path class="cls-22" d="M103,98V37h4V98a5,5,0,0,1-5,5H98A5,5,0,0,0,103,98Z"/></g><path class="cls-4" d="M102,104H26a6,6,0,0,1-6-6V37a1,1,0,0,1,1-1h86a1,1,0,0,1,1,1V98A6,6,0,0,1,102,104ZM22,38V98a4,4,0,0,0,4,4h76a4,4,0,0,0,4-4V38Z"/><path class="cls-3" d="M83,100a1,1,0,0,1,1-1h0a1,1,0,0,1,1,1h0a1,1,0,0,1-1,1h0A1,1,0,0,1,83,100Zm0-4a1,1,0,0,1,1-1h0a1,1,0,0,1,1,1h0a1,1,0,0,1-1,1h0A1,1,0,0,1,83,96Zm0-4a1,1,0,0,1,1-1h0a1,1,0,0,1,1,1h0a1,1,0,0,1-1,1h0A1,1,0,0,1,83,92Zm0-4a1,1,0,0,1,1-1h0a1,1,0,0,1,1,1h0a1,1,0,0,1-1,1h0A1,1,0,0,1,83,88Zm0-4a1,1,0,0,1,1-1h0a1,1,0,0,1,1,1h0a1,1,0,0,1-1,1h0A1,1,0,0,1,83,84Zm0-4a1,1,0,0,1,1-1h0a1,1,0,0,1,1,1h0a1,1,0,0,1-1,1h0A1,1,0,0,1,83,80Zm0-4a1,1,0,0,1,1-1h0a1,1,0,0,1,1,1h0a1,1,0,0,1-1,1h0A1,1,0,0,1,83,76Zm0-4a1,1,0,0,1,1-1h0a1,1,0,0,1,1,1h0a1,1,0,0,1-1,1h0A1,1,0,0,1,83,72Zm0-4a1,1,0,0,1,1-1h0a1,1,0,0,1,1,1h0a1,1,0,0,1-1,1h0A1,1,0,0,1,83,68Zm0-4a1,1,0,0,1,1-1h0a1,1,0,0,1,1,1h0a1,1,0,0,1-1,1h0A1,1,0,0,1,83,64Zm0-4a1,1,0,0,1,1-1h0a1,1,0,0,1,1,1h0a1,1,0,0,1-1,1h0A1,1,0,0,1,83,60Zm0-4a1,1,0,0,1,1-1h0a1,1,0,0,1,1,1h0a1,1,0,0,1-1,1h0A1,1,0,0,1,83,56Zm0-4a1,1,0,0,1,1-1h0a1,1,0,0,1,1,1h0a1,1,0,0,1-1,1h0A1,1,0,0,1,83,52Zm0-4a1,1,0,0,1,1-1h0a1,1,0,0,1,1,1h0a1,1,0,0,1-1,1h0A1,1,0,0,1,83,48Zm0-4a1,1,0,0,1,1-1h0a1,1,0,0,1,1,1h0a1,1,0,0,1-1,1h0A1,1,0,0,1,83,44Zm0-4a1,1,0,0,1,1-1h0a1,1,0,0,1,1,1h0a1,1,0,0,1-1,1h0A1,1,0,0,1,83,40Z"/><path class="cls-3" d="M63,100a1,1,0,0,1,1-1h0a1,1,0,0,1,1,1h0a1,1,0,0,1-1,1h0A1,1,0,0,1,63,100Zm0-4a1,1,0,0,1,1-1h0a1,1,0,0,1,1,1h0a1,1,0,0,1-1,1h0A1,1,0,0,1,63,96Zm0-4a1,1,0,0,1,1-1h0a1,1,0,0,1,1,1h0a1,1,0,0,1-1,1h0A1,1,0,0,1,63,92Zm0-4a1,1,0,0,1,1-1h0a1,1,0,0,1,1,1h0a1,1,0,0,1-1,1h0A1,1,0,0,1,63,88Zm0-4a1,1,0,0,1,1-1h0a1,1,0,0,1,1,1h0a1,1,0,0,1-1,1h0A1,1,0,0,1,63,84Zm0-4a1,1,0,0,1,1-1h0a1,1,0,0,1,1,1h0a1,1,0,0,1-1,1h0A1,1,0,0,1,63,80Zm0-4a1,1,0,0,1,1-1h0a1,1,0,0,1,1,1h0a1,1,0,0,1-1,1h0A1,1,0,0,1,63,76Zm0-4a1,1,0,0,1,1-1h0a1,1,0,0,1,1,1h0a1,1,0,0,1-1,1h0A1,1,0,0,1,63,72Zm0-4a1,1,0,0,1,1-1h0a1,1,0,0,1,1,1h0a1,1,0,0,1-1,1h0A1,1,0,0,1,63,68Zm0-4a1,1,0,0,1,1-1h0a1,1,0,0,1,1,1h0a1,1,0,0,1-1,1h0A1,1,0,0,1,63,64Zm0-4a1,1,0,0,1,1-1h0a1,1,0,0,1,1,1h0a1,1,0,0,1-1,1h0A1,1,0,0,1,63,60Zm0-4a1,1,0,0,1,1-1h0a1,1,0,0,1,1,1h0a1,1,0,0,1-1,1h0A1,1,0,0,1,63,56Zm0-4a1,1,0,0,1,1-1h0a1,1,0,0,1,1,1h0a1,1,0,0,1-1,1h0A1,1,0,0,1,63,52Zm0-4a1,1,0,0,1,1-1h0a1,1,0,0,1,1,1h0a1,1,0,0,1-1,1h0A1,1,0,0,1,63,48Zm0-4a1,1,0,0,1,1-1h0a1,1,0,0,1,1,1h0a1,1,0,0,1-1,1h0A1,1,0,0,1,63,44Zm0-4a1,1,0,0,1,1-1h0a1,1,0,0,1,1,1h0a1,1,0,0,1-1,1h0A1,1,0,0,1,63,40Z"/><path class="cls-3" d="M43,100a1,1,0,0,1,1-1h0a1,1,0,0,1,1,1h0a1,1,0,0,1-1,1h0A1,1,0,0,1,43,100Zm0-4a1,1,0,0,1,1-1h0a1,1,0,0,1,1,1h0a1,1,0,0,1-1,1h0A1,1,0,0,1,43,96Zm0-4a1,1,0,0,1,1-1h0a1,1,0,0,1,1,1h0a1,1,0,0,1-1,1h0A1,1,0,0,1,43,92Zm0-4a1,1,0,0,1,1-1h0a1,1,0,0,1,1,1h0a1,1,0,0,1-1,1h0A1,1,0,0,1,43,88Zm0-4a1,1,0,0,1,1-1h0a1,1,0,0,1,1,1h0a1,1,0,0,1-1,1h0A1,1,0,0,1,43,84Zm0-4a1,1,0,0,1,1-1h0a1,1,0,0,1,1,1h0a1,1,0,0,1-1,1h0A1,1,0,0,1,43,80Zm0-4a1,1,0,0,1,1-1h0a1,1,0,0,1,1,1h0a1,1,0,0,1-1,1h0A1,1,0,0,1,43,76Zm0-4a1,1,0,0,1,1-1h0a1,1,0,0,1,1,1h0a1,1,0,0,1-1,1h0A1,1,0,0,1,43,72Zm0-4a1,1,0,0,1,1-1h0a1,1,0,0,1,1,1h0a1,1,0,0,1-1,1h0A1,1,0,0,1,43,68Zm0-4a1,1,0,0,1,1-1h0a1,1,0,0,1,1,1h0a1,1,0,0,1-1,1h0A1,1,0,0,1,43,64Zm0-4a1,1,0,0,1,1-1h0a1,1,0,0,1,1,1h0a1,1,0,0,1-1,1h0A1,1,0,0,1,43,60Zm0-4a1,1,0,0,1,1-1h0a1,1,0,0,1,1,1h0a1,1,0,0,1-1,1h0A1,1,0,0,1,43,56Zm0-4a1,1,0,0,1,1-1h0a1,1,0,0,1,1,1h0a1,1,0,0,1-1,1h0A1,1,0,0,1,43,52Zm0-4a1,1,0,0,1,1-1h0a1,1,0,0,1,1,1h0a1,1,0,0,1-1,1h0A1,1,0,0,1,43,48Zm0-4a1,1,0,0,1,1-1h0a1,1,0,0,1,1,1h0a1,1,0,0,1-1,1h0A1,1,0,0,1,43,44Zm0-4a1,1,0,0,1,1-1h0a1,1,0,0,1,1,1h0a1,1,0,0,1-1,1h0A1,1,0,0,1,43,40Z"/><path class="cls-3" d="M103,60a1,1,0,0,1,1-1h0a1,1,0,0,1,1,1h0a1,1,0,0,1-1,1h0A1,1,0,0,1,103,60Zm-4,0a1,1,0,0,1,1-1h0a1,1,0,0,1,1,1h0a1,1,0,0,1-1,1h0A1,1,0,0,1,99,60Zm-4,0a1,1,0,0,1,1-1h0a1,1,0,0,1,1,1h0a1,1,0,0,1-1,1h0A1,1,0,0,1,95,60Zm-4,0a1,1,0,0,1,1-1h0a1,1,0,0,1,1,1h0a1,1,0,0,1-1,1h0A1,1,0,0,1,91,60Zm-4,0a1,1,0,0,1,1-1h0a1,1,0,0,1,1,1h0a1,1,0,0,1-1,1h0A1,1,0,0,1,87,60Zm-4,0a1,1,0,0,1,1-1h0a1,1,0,0,1,1,1h0a1,1,0,0,1-1,1h0A1,1,0,0,1,83,60Zm-4,0a1,1,0,0,1,1-1h0a1,1,0,0,1,1,1h0a1,1,0,0,1-1,1h0A1,1,0,0,1,79,60Zm-4,0a1,1,0,0,1,1-1h0a1,1,0,0,1,1,1h0a1,1,0,0,1-1,1h0A1,1,0,0,1,75,60Zm-4,0a1,1,0,0,1,1-1h0a1,1,0,0,1,1,1h0a1,1,0,0,1-1,1h0A1,1,0,0,1,71,60Zm-4,0a1,1,0,0,1,1-1h0a1,1,0,0,1,1,1h0a1,1,0,0,1-1,1h0A1,1,0,0,1,67,60Zm-4,0a1,1,0,0,1,1-1h0a1,1,0,0,1,1,1h0a1,1,0,0,1-1,1h0A1,1,0,0,1,63,60Zm-4,0a1,1,0,0,1,1-1h0a1,1,0,0,1,1,1h0a1,1,0,0,1-1,1h0A1,1,0,0,1,59,60Zm-4,0a1,1,0,0,1,1-1h0a1,1,0,0,1,1,1h0a1,1,0,0,1-1,1h0A1,1,0,0,1,55,60Zm-4,0a1,1,0,0,1,1-1h0a1,1,0,0,1,1,1h0a1,1,0,0,1-1,1h0A1,1,0,0,1,51,60Zm-4,0a1,1,0,0,1,1-1h0a1,1,0,0,1,1,1h0a1,1,0,0,1-1,1h0A1,1,0,0,1,47,60Zm-4,0a1,1,0,0,1,1-1h0a1,1,0,0,1,1,1h0a1,1,0,0,1-1,1h0A1,1,0,0,1,43,60Zm-4,0a1,1,0,0,1,1-1h0a1,1,0,0,1,1,1h0a1,1,0,0,1-1,1h0A1,1,0,0,1,39,60Zm-4,0a1,1,0,0,1,1-1h0a1,1,0,0,1,1,1h0a1,1,0,0,1-1,1h0A1,1,0,0,1,35,60Zm-4,0a1,1,0,0,1,1-1h0a1,1,0,0,1,1,1h0a1,1,0,0,1-1,1h0A1,1,0,0,1,31,60Zm-4,0a1,1,0,0,1,1-1h0a1,1,0,0,1,1,1h0a1,1,0,0,1-1,1h0A1,1,0,0,1,27,60Zm-4,0a1,1,0,0,1,1-1h0a1,1,0,0,1,1,1h0a1,1,0,0,1-1,1h0A1,1,0,0,1,23,60Z"/><path class="cls-3" d="M103,80a1,1,0,0,1,1-1h0a1,1,0,0,1,1,1h0a1,1,0,0,1-1,1h0A1,1,0,0,1,103,80Zm-4,0a1,1,0,0,1,1-1h0a1,1,0,0,1,1,1h0a1,1,0,0,1-1,1h0A1,1,0,0,1,99,80Zm-4,0a1,1,0,0,1,1-1h0a1,1,0,0,1,1,1h0a1,1,0,0,1-1,1h0A1,1,0,0,1,95,80Zm-4,0a1,1,0,0,1,1-1h0a1,1,0,0,1,1,1h0a1,1,0,0,1-1,1h0A1,1,0,0,1,91,80Zm-4,0a1,1,0,0,1,1-1h0a1,1,0,0,1,1,1h0a1,1,0,0,1-1,1h0A1,1,0,0,1,87,80Zm-4,0a1,1,0,0,1,1-1h0a1,1,0,0,1,1,1h0a1,1,0,0,1-1,1h0A1,1,0,0,1,83,80Zm-4,0a1,1,0,0,1,1-1h0a1,1,0,0,1,1,1h0a1,1,0,0,1-1,1h0A1,1,0,0,1,79,80Zm-4,0a1,1,0,0,1,1-1h0a1,1,0,0,1,1,1h0a1,1,0,0,1-1,1h0A1,1,0,0,1,75,80Zm-4,0a1,1,0,0,1,1-1h0a1,1,0,0,1,1,1h0a1,1,0,0,1-1,1h0A1,1,0,0,1,71,80Zm-4,0a1,1,0,0,1,1-1h0a1,1,0,0,1,1,1h0a1,1,0,0,1-1,1h0A1,1,0,0,1,67,80Zm-4,0a1,1,0,0,1,1-1h0a1,1,0,0,1,1,1h0a1,1,0,0,1-1,1h0A1,1,0,0,1,63,80Zm-4,0a1,1,0,0,1,1-1h0a1,1,0,0,1,1,1h0a1,1,0,0,1-1,1h0A1,1,0,0,1,59,80Zm-4,0a1,1,0,0,1,1-1h0a1,1,0,0,1,1,1h0a1,1,0,0,1-1,1h0A1,1,0,0,1,55,80Zm-4,0a1,1,0,0,1,1-1h0a1,1,0,0,1,1,1h0a1,1,0,0,1-1,1h0A1,1,0,0,1,51,80Zm-4,0a1,1,0,0,1,1-1h0a1,1,0,0,1,1,1h0a1,1,0,0,1-1,1h0A1,1,0,0,1,47,80Zm-4,0a1,1,0,0,1,1-1h0a1,1,0,0,1,1,1h0a1,1,0,0,1-1,1h0A1,1,0,0,1,43,80Zm-4,0a1,1,0,0,1,1-1h0a1,1,0,0,1,1,1h0a1,1,0,0,1-1,1h0A1,1,0,0,1,39,80Zm-4,0a1,1,0,0,1,1-1h0a1,1,0,0,1,1,1h0a1,1,0,0,1-1,1h0A1,1,0,0,1,35,80Zm-4,0a1,1,0,0,1,1-1h0a1,1,0,0,1,1,1h0a1,1,0,0,1-1,1h0A1,1,0,0,1,31,80Zm-4,0a1,1,0,0,1,1-1h0a1,1,0,0,1,1,1h0a1,1,0,0,1-1,1h0A1,1,0,0,1,27,80Zm-4,0a1,1,0,0,1,1-1h0a1,1,0,0,1,1,1h0a1,1,0,0,1-1,1h0A1,1,0,0,1,23,80Z"/><path class="cls-9" d="M26,31h0a5,5,0,0,0-5,5V98a5,5,0,0,1,5-5h0a5,5,0,0,1,5,5V36A5,5,0,0,0,26,31Z"/><g class="cls-1"><path class="cls-23" d="M26,31h0a4.94,4.94,0,0,0-1.53.24A5,5,0,0,1,28,36V93.43A5,5,0,0,1,31,98V36A5,5,0,0,0,26,31Z"/></g><path class="cls-3" d="M24,36a5,5,0,0,1,3.5-4.75A5,5,0,0,0,26,31h0a5,5,0,0,0-5,5V98a5,5,0,0,1,3-4.58Z"/><path class="cls-4" d="M31,99a1,1,0,0,1-1-1,4,4,0,0,0-8,0,1,1,0,0,1-2,0V36a6,6,0,0,1,12,0V98A1,1,0,0,1,31,99Zm-5-7a6,6,0,0,1,4,1.53V36a4,4,0,0,0-8,0V93.53A6,6,0,0,1,26,92Z"/><path class="cls-9" d="M102,31h0a5,5,0,0,0-5,5V98a5,5,0,0,1,5-5h0a5,5,0,0,1,5,5V36A5,5,0,0,0,102,31Z"/><path class="cls-3" d="M102,31h0a4.94,4.94,0,0,0-1.53.24A5,5,0,0,1,104,36V93.43A5,5,0,0,1,107,98V36A5,5,0,0,0,102,31Z"/><g class="cls-1"><path class="cls-23" d="M100,36a5,5,0,0,1,3.5-4.75A5,5,0,0,0,102,31h0a5,5,0,0,0-5,5V98a5,5,0,0,1,3-4.58Z"/></g><path class="cls-4" d="M107,99a1,1,0,0,1-1-1,4,4,0,0,0-8,0,1,1,0,1,1-2,0V36a6,6,0,0,1,12,0V98A1,1,0,0,1,107,99Zm-5-7a6,6,0,0,1,4,1.53V36a4,4,0,0,0-8,0V93.53A6,6,0,0,1,102,92Z"/><path class="cls-11" d="M79,56V68H73V56a2,2,0,0,1,2-2h2A2,2,0,0,1,79,56Z"/><polygon class="cls-9" points="79 99 77 105 75 105 73 99 79 99"/><polygon class="cls-3" points="76 99 73 99 75 105 76 105 76 99"/><path class="cls-4" d="M77,106H75a1,1,0,0,1-.95-.68l-2-6A1,1,0,0,1,73,98h6a1,1,0,0,1,.95,1.32l-2,6A1,1,0,0,1,77,106Zm-1.28-2h.56l1.33-4H74.39Z"/><polygon class="cls-11" points="79 68 73 68 73 81 74 84 73 87 73 99 79 99 79 87 78 84 79 81 79 68"/><g class="cls-1"><path class="cls-3" d="M76,81V54H75a2,2,0,0,0-2,2V81l1,3-1,3V99h3V81Z"/></g><path class="cls-4" d="M79,69H73a1,1,0,0,1-1-1V56a3,3,0,0,1,3-3h2a3,3,0,0,1,3,3V68A1,1,0,0,1,79,69Zm-5-2h4V56a1,1,0,0,0-1-1H75a1,1,0,0,0-1,1Z"/><path class="cls-4" d="M79,100H73a1,1,0,0,1-1-1V87a1,1,0,0,1,1-1h6a1,1,0,0,1,1,1V99A1,1,0,0,1,79,100Zm-5-2h4V88H74Z"/><path class="cls-4" d="M79,96H73a1,1,0,0,1,0-2h6a1,1,0,0,1,0,2Z"/><path class="cls-4" d="M79,92H73a1,1,0,0,1,0-2h6a1,1,0,0,1,0,2Z"/><path class="cls-4" d="M79,82H73a1,1,0,0,1-1-1V68a1,1,0,0,1,1-1h6a1,1,0,0,1,1,1V81A1,1,0,0,1,79,82Zm-5-2h4V69H74Z"/><path class="cls-4" d="M79,88H73a1,1,0,0,1-.95-1.32l1-3A1,1,0,0,1,74,83h4a1,1,0,0,1,.95.68l1,3A1,1,0,0,1,79,88Zm-4.61-2h3.22l-.33-1H74.72Z"/><path class="cls-4" d="M78,85H74a1,1,0,0,1-.95-.68l-1-3A1,1,0,0,1,73,80h6a1,1,0,0,1,.95,1.32l-1,3A1,1,0,0,1,78,85Zm-3.28-2h2.56l.33-1H74.39Z"/><path class="cls-4" d="M76,108a1,1,0,0,1-1-1v-2a1,1,0,0,1,2,0v2A1,1,0,0,1,76,108Z"/><path class="cls-4" d="M82,70a1,1,0,0,1-1-1V59H78a1,1,0,0,1,0-2h4a1,1,0,0,1,1,1V69A1,1,0,0,1,82,70Z"/><rect class="cls-9" height="3" width="2" x="75" y="51"/><path class="cls-4" d="M77,55H75a1,1,0,0,1-1-1V51a1,1,0,0,1,1-1h2a1,1,0,0,1,1,1v3A1,1,0,0,1,77,55Zm-1-2v0Z"/></svg>