<?xml version="1.0" encoding="UTF-8"?>
<svg width="56px" height="102px" viewBox="0 0 56 102" version="1.1" xmlns="http://www.w3.org/2000/svg" xmlns:xlink="http://www.w3.org/1999/xlink">
    <!-- Generator: Sketch 52.2 (67145) - http://www.bohemiancoding.com/sketch -->
    <title>gift copy 2</title>
    <desc>Created with Sketch.</desc>
    <g id="offer" stroke="none" stroke-width="1" fill="none" fill-rule="evenodd">
        <g transform="translate(-277.000000, -2608.000000)" fill="#D3EDFF" id="gift-copy-2">
            <g transform="translate(277.000000, 2608.000000)">
                <path d="M56,43.3333333 L56,100.666667 C56,101.4 55.4,102 54.6666667,102 L1.33333333,102 C0.6,102 0,101.4 0,100.666667 L0,43.3333333 C0,42.6 0.6,42 1.33333333,42 L54.6666667,42 C55.4,42 56,42.6 56,43.3333333 Z M24.7568359,70.4609375 L24.7568359,73.7714844 L26.9980469,73.7714844 C29.3418086,73.7714844 30.5136719,74.8359269 30.5136719,76.9648438 C30.5136719,77.8437544 30.2280302,78.5493137 29.6567383,79.081543 C29.0854464,79.6137722 28.29688,79.8798828 27.2910156,79.8798828 C26.412105,79.8798828 25.6723663,79.6259791 25.0717773,79.1181641 C24.4711884,78.610349 24.1708984,77.9560587 24.1708984,77.1552734 L19.9375,77.1552734 C19.9375,79.0009858 20.6137628,80.4853459 21.9663086,81.6083984 C23.3188544,82.7314509 25.0595597,83.2929688 27.1884766,83.2929688 C29.4638786,83.2929688 31.2924736,82.7216854 32.6743164,81.5791016 C34.0561593,80.4365177 34.7470703,78.9179782 34.7470703,77.0234375 C34.7470703,75.8515566 34.4516631,74.8359418 33.8608398,73.9765625 C33.2700166,73.1171832 32.3740294,72.4726584 31.1728516,72.0429688 C32.1396533,71.6035134 32.9208955,70.9736369 33.5166016,70.1533203 C34.1123077,69.3330037 34.4101562,68.4345752 34.4101562,67.4580078 C34.4101562,65.5634671 33.7705142,64.0766656 32.4912109,62.9975586 C31.2119077,61.9184516 29.4443472,61.3789062 27.1884766,61.3789062 C25.8896419,61.3789062 24.700689,61.6279272 23.621582,62.1259766 C22.5424751,62.6240259 21.7026397,63.314937 21.1020508,64.1987305 C20.5014618,65.082524 20.2011719,66.0810491 20.2011719,67.1943359 L24.4345703,67.1943359 C24.4345703,66.4814417 24.7080051,65.9028343 25.2548828,65.4584961 C25.8017605,65.0141579 26.4804647,64.7919922 27.2910156,64.7919922 C28.1894576,64.7919922 28.895017,65.0312476 29.4077148,65.5097656 C29.9204127,65.9882836 30.1767578,66.6572223 30.1767578,67.5166016 C30.1767578,68.4052779 29.9179713,69.1181614 29.4003906,69.6552734 C28.8828099,70.1923855 28.0869194,70.4609375 27.0126953,70.4609375 L24.7568359,70.4609375 Z" id="Combined-Shape"></path>
                <g id="Group" transform="translate(9.000000, 0.000000)">
                    <path d="M16.0285517,0.961793103 L18.7536207,1.93581609 C18.8132414,1.95721839 18.8795862,1.94848276 18.9315862,1.91222989 L21.2998276,0.276482759 C21.4302759,0.18737931 21.6091379,0.280850575 21.6033103,0.436781609 L21.497069,3.26275862 C21.4948276,3.32521839 21.523069,3.38505747 21.5732759,3.42087356 L23.902069,5.1085977 C24.0307241,5.20250575 23.9948621,5.39862069 23.8397586,5.44098851 L21.0483448,6.21496552 C20.9860345,6.23112644 20.938069,6.27786207 20.9187931,6.3363908 L19.9895172,9.0156092 C19.9375172,9.16324138 19.7344483,9.18857471 19.6456897,9.0605977 L18.0278621,6.71245977 C17.992,6.6596092 17.9337241,6.6285977 17.8696207,6.6285977 L14.9665862,6.59583908 C14.8074483,6.59452874 14.7186897,6.41413793 14.8173103,6.29183908 L16.6099655,4.06643678 C16.6494138,4.01795402 16.661069,3.95331034 16.6422414,3.89478161 L15.7779655,1.19547126 C15.7308966,1.04609195 15.877931,0.908505747 16.0285517,0.961793103 Z" id="Path"></path>
                    <ellipse id="Oval" cx="7.41582759" cy="13.0628276" rx="3.16124138" ry="3.08018391"></ellipse>
                    <path d="M26.9306207,13.5703678 C28.6775517,13.5703678 30.0936552,14.9497241 30.0936552,16.6492414 C30.0936552,18.3509425 28.678,19.7302989 26.9306207,19.7302989 C25.1863793,19.7302989 23.7693793,18.3509425 23.7693793,16.6492414 C23.7693793,14.9497241 25.1868276,13.5703678 26.9306207,13.5703678 Z" id="Path"></path>
                    <g transform="translate(0.000000, 13.103448)" id="Path">
                        <path d="M18.6688966,24.5956092 C18.6312414,24.5956092 18.5904483,24.5947356 18.5514483,24.5912414 C17.8678276,24.5274713 17.3662069,23.9391264 17.4307586,23.2734713 C17.7947586,19.4926897 17.8176207,15.656 17.4988966,11.873908 C17.212,8.45478161 16.6413448,5.03172414 15.803069,1.69733333 C15.6403448,1.04914943 16.0478276,0.394413793 16.7139655,0.234988506 C17.3792069,0.0764367816 18.0511724,0.473908046 18.2147931,1.12165517 C19.0835517,4.5814023 19.6752759,8.13068966 19.9738276,11.6756092 C20.3033103,15.5983448 20.2795517,19.5765517 19.9038966,23.4992874 C19.8420345,24.1251954 19.3018621,24.5956092 18.6688966,24.5956092 Z"></path>
                        <path d="M15.0208276,24.6711724 C14.3883103,24.6711724 13.8467931,24.2003218 13.7867241,23.5735402 C13.5823103,21.449908 12.8502759,18.2771264 10.5259655,15.2266437 C7.44317241,11.1802989 3.30155172,9.62885057 1.10589655,9.06365517 C0.443344828,8.89287356 0.0484137931,8.23158621 0.223241379,7.58514943 C0.398965517,6.94045977 1.0772069,6.55434483 1.7402069,6.72556322 C4.24875862,7.37156322 8.98389655,9.14664368 12.5185517,13.7857011 C15.184,17.2851954 16.024069,20.9174713 16.258069,23.3477241 C16.3226207,24.0125057 15.821,24.6025977 15.1391724,24.6668046 C15.1001724,24.6689885 15.0598276,24.6711724 15.0208276,24.6711724 Z"></path>
                        <path d="M22.3954138,24.5235402 C22.3452069,24.5235402 22.2954483,24.520046 22.2456897,24.5148046 C21.5652069,24.4348736 21.0788276,23.8329885 21.1613103,23.1695172 C21.4244483,21.0205517 22.4102069,16.8885977 26.0506552,13.3685747 C30.2532414,9.30388506 35.3384828,8.67186207 37.327931,8.58887356 C38.016931,8.55567816 38.5925172,9.07850575 38.6221034,9.74547126 C38.6498966,10.412 38.120931,10.9767586 37.4346207,11.0051494 C35.7325172,11.0763448 31.3860345,11.6166437 27.798931,15.0851264 C24.6932759,18.0893103 23.850069,21.6189425 23.6250345,23.4569195 C23.5497241,24.0710345 23.0153793,24.5235402 22.3954138,24.5235402 Z"></path>
                    </g>
                </g>
            </g>
        </g>
    </g>
</svg>