<?xml version="1.0" encoding="UTF-8"?>
<svg width="25px" height="21px" viewBox="0 0 25 21" version="1.1" xmlns="http://www.w3.org/2000/svg" xmlns:xlink="http://www.w3.org/1999/xlink">
    <!-- Generator: Sketch 52.2 (67145) - http://www.bohemiancoding.com/sketch -->
    <title>Shape</title>
    <desc>Created with Sketch.</desc>
    <g id="offer" stroke="none" stroke-width="1" fill="none" fill-rule="evenodd">
        <g transform="translate(-378.000000, -291.000000)" fill="#D3EDFF" fill-rule="nonzero" id="Group-2">
            <g transform="translate(378.000000, 278.000000)">
                <g id="checkmark" transform="translate(0.000000, 13.000000)">
                    <path d="M21.1665185,16.7045272 C21.1665185,19.0761114 19.2273499,21 16.8369299,21 L4.32958862,21 C1.93916862,20.9997327 0,19.0758442 0,16.7045272 L0,4.29547277 C0,1.92388856 1.93916862,0 4.32958862,0 L16.8369299,0 C17.4382392,0 18.0398179,0.119207321 18.5958673,0.372856979 C18.7311081,0.43246064 18.8364449,0.566902977 18.8663488,0.716045769 C18.896522,0.880156296 18.8515316,1.02903181 18.7311081,1.14850641 L17.994558,1.87925263 C17.9045772,1.96879176 17.7690671,2.02839542 17.648913,2.02839542 C17.6036531,2.02839542 17.5586627,2.01342769 17.5136722,1.99872723 C17.2879119,1.93912357 17.0626903,1.9091881 16.8369299,1.9091881 L4.32958862,1.9091881 C3.00654651,1.9091881 1.92435141,2.98312311 1.92435141,4.29547277 L1.92435141,16.7045272 C1.92435141,18.0171442 3.00681592,19.0908119 4.32958862,19.0908119 L16.8369299,19.0908119 C18.159972,19.0908119 19.2424365,18.0168769 19.2424365,16.7045272 L19.2424365,12.9160865 C19.2424365,12.7966119 19.2874269,12.6774046 19.3779466,12.5878654 L20.3397182,11.633405 C20.4450551,11.5288982 20.5654786,11.4842622 20.6853633,11.4842622 C20.7457097,11.4842622 20.8057868,11.49923 20.8658638,11.5288982 C21.0463644,11.6034696 21.1665185,11.7675801 21.1665185,11.9616261 L21.1665185,16.7045272 Z M12.4022738,16.8087668 C11.921388,17.2861307 11.1694819,17.2861307 10.6885961,16.8087668 L4.22425173,10.3956268 C3.74309653,9.91826293 3.74309653,9.17254897 4.22425173,8.6954524 L5.87785231,7.0548817 C6.35900752,6.57751785 7.11037474,6.57751785 7.59152994,7.0548817 L11.5453003,10.9772302 L21.2718554,1.32731739 C21.7530106,0.849953544 22.5043778,0.849953544 22.985533,1.32731739 L24.6391336,2.9678881 C25.1202888,3.44525194 25.1202888,4.1909659 24.6391336,4.66806247 L12.4022738,16.8087668 Z" id="Shape"></path>
                </g>
            </g>
        </g>
    </g>
</svg>