<!--?xml version="1.0" encoding="UTF-8"?-->
<svg width="64px" height="64px" viewBox="0 0 64 64" version="1.1" xmlns="http://www.w3.org/2000/svg" xmlns:xlink="http://www.w3.org/1999/xlink" style="">
    <!-- Generator: Sketch 52.2 (67145) - http://www.bohemiancoding.com/sketch -->
    <title>Group 2</title>
    <desc>Created with Sketch.</desc>
    <g id="Page-1" stroke="none" stroke-width="1" fill="none" fill-rule="evenodd">
        <g id="optin-copy" transform="translate(-690.000000, -393.000000)" fill-rule="nonzero">
            <g id="Group-2" transform="translate(690.000000, 393.000000)">
                <path id="Oval" fill="#E26474" d="M0,32A32,32 0,1,1 64,32A32,32 0,1,1 0,32" class="jCYIdiZX_0"></path>
                <path d="M46.7997644,14.3934389 C42.7998523,11.0276883 37.6367221,9 32,9 C19.2974508,9 9,19.2974508 9,32 C9,44.7025492 19.2974508,55 32,55 C44.7025492,55 55,44.7025492 55,32 C55,28.6046606 54.264277,25.3811584 52.9435553,22.480218" id="Path" stroke="#FFFFFF" stroke-width="4" stroke-linecap="round" class="jCYIdiZX_1"></path>
                <path id="Path-2" stroke="#FFFFFF" stroke-width="4" stroke-linecap="round" stroke-linejoin="round" d="M20,29L33,39.8116536L61,13" class="jCYIdiZX_2"></path>
            </g>
        </g>
    </g>
<style data-made-with="vivus-instant">.jCYIdiZX_0{stroke-dasharray:202 204;stroke-dashoffset:203;animation:jCYIdiZX_draw 1000ms ease 0ms forwards;}.jCYIdiZX_1{stroke-dasharray:135 137;stroke-dashoffset:136;animation:jCYIdiZX_draw 1000ms ease 250ms forwards;}.jCYIdiZX_2{stroke-dasharray:56 58;stroke-dashoffset:57;animation:jCYIdiZX_draw 1000ms ease 500ms forwards;}@keyframes jCYIdiZX_draw{100%{stroke-dashoffset:0;}}@keyframes jCYIdiZX_fade{0%{stroke-opacity:1;}92.98245614035088%{stroke-opacity:1;}100%{stroke-opacity:0;}}</style></svg>