<?xml version="1.0" encoding="UTF-8"?>
<svg width="1440px" height="352px" viewBox="0 0 1440 352" version="1.1" xmlns="http://www.w3.org/2000/svg" xmlns:xlink="http://www.w3.org/1999/xlink">
    <!-- Generator: Sketch 52.2 (67145) - http://www.bohemiancoding.com/sketch -->
    <title>Group 5</title>
    <desc>Created with Sketch.</desc>
    <g id="web-reg1" stroke="none" stroke-width="1" fill="none" fill-rule="evenodd" opacity="0.547991071">
        <g transform="translate(0.000000, -377.000000)" id="Group-5">
            <g transform="translate(0.000000, 377.000000)">
                <g id="Group-3" transform="translate(0.000000, 16.000000)">
                    <rect id="Rectangle" fill="#445462" x="113" y="183" width="2" height="6"></rect>
                    <rect id="Rectangle" fill="#445462" x="116" y="192" width="6" height="2"></rect>
                    <rect id="Rectangle" fill="#445462" x="113" y="197" width="2" height="6"></rect>
                    <rect id="Rectangle" fill="#445462" x="104" y="192" width="6" height="2"></rect>
                    <rect id="Rectangle" fill="#445462" x="262" y="257" width="2" height="6"></rect>
                    <rect id="Rectangle" fill="#445462" x="266" y="266" width="6" height="2"></rect>
                    <rect id="Rectangle" fill="#445462" x="262" y="271" width="2" height="6"></rect>
                    <rect id="Rectangle" fill="#445462" x="254" y="266" width="6" height="2"></rect>
                    <path d="M186,143 L119.692736,143 C117.100934,142.991451 115.002931,140.548154 115,137.534921 L115,76 L116.468984,76 L116.468984,137.534921 C116.471925,139.608571 117.917114,141.288744 119.700749,141.292163 L184.531016,141.292163 L184.531016,123.036937 L186,123.036937 L186,143 Z" id="Path" fill="#445462"></path>
                    <path d="M188.935191,124 L177.844728,124 C171.857818,123.993215 167.005954,118.464124 167,111.641556 L167,111.358444 C167.005954,104.535876 171.857818,99.0067853 177.844728,99 L189,99 L188.935191,124 Z M177.844728,100.692516 C172.678076,100.699299 168.491162,105.470627 168.485209,111.358444 L168.485209,111.641556 C168.491162,117.529373 172.678076,122.300701 177.844728,122.307484 L187.455382,122.307484 L187.50939,100.692516 L177.844728,100.692516 Z" id="Shape" fill="#445462" fill-rule="nonzero"></path>
                    <path d="M178.002442,114.999999 C176.346548,115.001569 175.002708,113.437589 175.000004,111.505716 C174.9973,109.573843 176.336753,108.00475 177.992643,108.000011 C179.648534,107.995271 180.99457,109.556677 180.999991,111.488542 C181.001946,112.418056 180.687154,113.310363 180.124934,113.968972 C179.562714,114.627581 178.799171,114.998482 178.002442,114.999999 Z M178.002442,109.57815 C177.334733,109.576991 176.732263,110.045508 176.476283,110.764983 C176.220303,111.484459 176.361293,112.313006 176.833435,112.863839 C177.305578,113.414672 178.015763,113.57916 178.632457,113.280516 C179.249151,112.981873 179.650737,112.278993 179.649744,111.499999 C179.648392,110.439245 178.911661,109.579727 178.002442,109.57815 Z" id="Shape" fill="#445462" fill-rule="nonzero"></path>
                    <path d="M186,100 L184.531182,100 L184.531182,82.972761 L119.526631,82.972761 C117.026642,82.972761 115,80.7402824 115,77.9863805 C115,75.2324786 117.026642,73 119.526631,73 L185.265591,73 L185.265591,74.6238832 L119.526631,74.6238832 C117.837847,74.6238833 116.468818,76.1319588 116.468818,77.9922641 C116.468818,79.8525694 117.837847,81.3606449 119.526631,81.360645 L186,81.360645 L186,100 Z" id="Path" fill="#445462"></path>
                    <rect id="Rectangle" fill="#445462" x="120" y="88" width="4" height="2"></rect>
                    <rect id="Rectangle" fill="#445462" x="126" y="88" width="4" height="2"></rect>
                    <rect id="Rectangle" fill="#445462" x="132" y="88" width="4" height="2"></rect>
                    <rect id="Rectangle" fill="#445462" x="139" y="88" width="4" height="2"></rect>
                    <rect id="Rectangle" fill="#445462" x="146" y="88" width="4" height="2"></rect>
                    <rect id="Rectangle" fill="#445462" x="152" y="88" width="4" height="2"></rect>
                    <rect id="Rectangle" fill="#445462" x="159" y="88" width="4" height="2"></rect>
                    <rect id="Rectangle" fill="#445462" x="164" y="88" width="4" height="2"></rect>
                    <rect id="Rectangle" fill="#445462" x="171" y="88" width="4" height="2"></rect>
                    <rect id="Rectangle" fill="#445462" x="177" y="88" width="4" height="2"></rect>
                    <rect id="Rectangle" fill="#445462" x="120" y="132" width="4" height="2"></rect>
                    <rect id="Rectangle" fill="#445462" x="126" y="132" width="4" height="2"></rect>
                    <rect id="Rectangle" fill="#445462" x="132" y="132" width="4" height="2"></rect>
                    <rect id="Rectangle" fill="#445462" x="139" y="132" width="4" height="2"></rect>
                    <rect id="Rectangle" fill="#445462" x="146" y="132" width="4" height="2"></rect>
                    <rect id="Rectangle" fill="#445462" x="152" y="132" width="4" height="2"></rect>
                    <rect id="Rectangle" fill="#445462" x="159" y="132" width="4" height="2"></rect>
                    <rect id="Rectangle" fill="#445462" x="164" y="132" width="4" height="2"></rect>
                    <rect id="Rectangle" fill="#445462" x="171" y="132" width="4" height="2"></rect>
                    <rect id="Rectangle" fill="#445462" x="177" y="132" width="4" height="2"></rect>
                    <polygon id="Rectangle" fill="#445462" points="209.341907 124.396873 210.655427 124.371081 211.027751 142.647921 209.71423 142.673713"></polygon>
                    <polygon id="Rectangle" fill="#445462" points="192.516912 171.903801 199.749724 164.802824 200.678524 165.714694 193.445711 172.81567"></polygon>
                    <polygon id="Rectangle" fill="#445462" points="225.233061 156.612359 225.265841 155.323183 243.87621 155.779293 243.84343 157.068469"></polygon>
                    <path d="M207.999569,155.667601 C204.000144,155.667601 204.000144,150 207.999569,150 C211.998995,150 212.001478,155.667601 207.999569,155.667601 Z M216.830083,150.634324 L208.590422,162.944102 L206.055714,162.944102 L214.312753,150.634324 L216.830083,150.634324 Z M207.989639,154.007665 C209.576003,154.007665 209.576003,151.642924 207.989639,151.642924 C206.403275,151.642924 206.415687,154.007665 207.999569,154.007665 L207.989639,154.007665 Z M214.995461,163 C210.996035,163 210.996035,157.334829 214.995461,157.334829 C218.994887,157.334829 219.004817,162.995139 215.005391,162.995139 L214.995461,163 Z M214.995461,161.357076 C216.581825,161.357076 216.581825,158.994765 214.995461,158.994765 C213.409097,158.994765 213.421509,161.352215 215.005391,161.352215 L214.995461,161.357076 Z" id="Shape" fill="#445462" fill-rule="nonzero"></path>
                    <polygon id="Rectangle" fill="#445462" points="221.062262 166.46605 221.991061 165.55418 234.778093 178.108136 233.849294 179.020006"></polygon>
                    <path d="M211.497545,170 C202.937451,169.998688 195.999096,163.282378 196,154.998416 C196.000904,146.714454 202.940724,139.999563 211.500818,140 C220.060912,140.000437 227,146.716038 227,155 C226.990527,163.281398 220.054992,169.992144 211.497545,170 Z M211.497545,141.30662 C203.683132,141.307932 197.34927,147.439248 197.350174,155.001583 C197.351078,162.563919 203.686405,168.693817 211.500818,168.69338 C219.315232,168.692942 225.649826,162.562336 225.649826,155 C225.640355,147.440227 219.309311,141.314474 211.497545,141.30662 Z" id="Shape" fill="#445462" fill-rule="nonzero"></path>
                    <path d="M229.328976,184 L228.566343,182.944597 C237.403312,176.897132 242.665029,167.053548 242.675047,156.550134 C242.675047,138.765417 227.786817,124.297011 209.488461,124.297011 C205.032213,124.289164 200.620438,125.157967 196.51888,126.851087 L196,125.664344 C200.264712,123.899644 204.853244,122.993295 209.488461,123.000037 C228.520489,123.000037 244,138.047742 244,156.538407 C243.994738,167.465819 238.522718,177.708483 229.328976,184 Z" id="Path" fill="#53A8E2"></path>
                    <path d="M176,157.055234 L177.317319,157 C177.763252,167.746295 183.390932,177.604711 192.406608,183.433004 C207.677926,193.27904 228.093973,188.848324 237.928358,173.536537 C240.329255,169.812975 241.952309,165.640016 242.699447,161.269817 L244,161.493154 C243.221694,166.038435 241.533543,170.378644 239.037301,174.252176 C228.814906,190.176338 207.577331,194.794369 191.69286,184.544886 C182.318518,178.481912 176.466331,168.230461 176,157.055234 Z" id="Path" fill="#53A8E2"></path>
                    <path d="M81.8976685,19 C81.7123207,18.7401144 81.5245342,18.484954 81.3343088,18.2297936 L82.41713,17.4643124 C82.6146717,17.7265606 82.8073359,17.9911714 83,18.2557821 L81.8976685,19 Z M80.1661301,16.7531709 C79.7710467,16.2806516 79.3540142,15.8081323 78.9321042,15.335613 L79.9466394,14.4709028 C80.3831821,14.943422 80.8124085,15.4466551 81.2196859,15.9404377 L80.1661301,16.7531709 Z M77.6273534,13.9582193 C77.1859331,13.5140512 76.7274412,13.0722457 76.2640718,12.6469784 L77.1883719,11.7019398 C77.6761292,12.1413827 78.1394986,12.5973638 78.5931129,13.0557075 L77.6273534,13.9582193 Z M74.8446981,11.3948023 C74.3569408,10.9884357 73.8691835,10.5891569 73.3667935,10.2135041 L74.1984197,9.19522507 C74.7154424,9.58977866 75.2275876,10.003233 75.7226612,10.4214126 L74.8446981,11.3948023 Z M71.8352356,9.08182044 C71.3206516,8.72270579 70.7889962,8.37304153 70.2524632,8.02573987 L70.9840991,6.94130813 C71.5352649,7.29097239 72.0864306,7.65008704 72.6156473,8.02810246 L71.8352356,9.08182044 Z M68.6233538,7.04053718 C68.0721881,6.72394927 67.5088284,6.41681174 66.9479075,6.12857498 L67.5795532,4.98271574 C68.1575456,5.28040288 68.7379768,5.5969908 69.306214,5.92775429 L68.6233538,7.04053718 Z M65.2334406,5.28985327 C64.6554482,5.02287988 64.0652619,4.76535688 63.482392,4.52673464 L64.0018535,3.32889828 C64.6066725,3.5769709 65.2212467,3.8415817 65.811433,4.11564287 L65.2334406,5.28985327 Z M61.6947615,3.8415817 C61.0972588,3.62894802 60.4753683,3.42340214 59.8778656,3.23675703 L60.2851429,1.99875653 C60.911911,2.19248943 61.5411179,2.40276051 62.1605697,2.62248197 L61.6947615,3.8415817 Z M33.4267876,3.42340214 L33,2.19012683 C33.6218905,1.98930614 34.2584138,1.79793584 34.8924983,1.62310371 L35.260755,2.87291718 C34.6461809,3.04066153 34.0291679,3.22730664 33.4267876,3.42340214 Z M58.034143,2.71462323 C57.4146912,2.55396667 56.7879231,2.4051231 56.1660326,2.27045511 L56.4562482,1.00174086 C57.0952102,1.13877145 57.7439274,1.29234021 58.3828895,1.46008456 L58.034143,2.71462323 Z M37.1191103,2.4051231 L36.8093845,1.14113405 C37.4483465,0.994653071 38.1019413,0.859985078 38.7482197,0.74185526 L38.9920983,2.0176573 C38.3702078,2.12633673 37.7385621,2.26100473 37.1191103,2.40276051 L37.1191103,2.4051231 Z M54.2808506,1.91134046 C53.6516437,1.80502363 53.0126817,1.71288237 52.381036,1.63491669 L52.551751,0.34493907 C53.202907,0.425267346 53.8613794,0.522133798 54.5027802,0.630813231 L54.2808506,1.91134046 Z M40.891913,1.71524496 L40.7016876,0.427629943 C41.3504048,0.340213877 42.011316,0.262248197 42.6697883,0.191370306 L42.799044,1.48371052 C42.1600819,1.55222581 41.5186811,1.6254663 40.891913,1.71288237 L40.891913,1.71524496 Z M50.4714662,1.44118379 C49.8349429,1.38920667 49.1911033,1.35376772 48.55458,1.33014176 L48.6033558,0.0307137528 C49.2618281,0.0543397165 49.925178,0.0921412584 50.5812116,0.144118379 L50.4714662,1.44118379 Z M44.7134914,1.35613032 L44.6452053,0.0567023129 C45.3012389,0.0236259637 45.9670276,0 46.6230612,0 L46.6230612,1.299428 C45.996293,1.3041532 45.3500146,1.32305397 44.7134914,1.35376772 L44.7134914,1.35613032 Z" id="Shape" fill="#53A8E2" fill-rule="nonzero"></path>
                    <path d="M1.82129743,58 C1.63280294,57.3560443 1.45410037,56.6971128 1.29498164,56.0456692 L2.5997552,55.7112115 C2.75642595,56.3451835 2.92778458,56.9816514 3.11138311,57.6056395 L1.82129743,58 Z M0.856793146,54.0663788 C0.727050184,53.4074474 0.611995104,52.7360362 0.506731946,52.0696168 L1.83598531,51.8574609 C1.93635251,52.5039126 2.04895961,53.1553562 2.17625459,53.7918241 L0.856793146,54.0663788 Z M0.244798042,50.0728548 C0.17380661,49.4039396 0.11505508,48.7250405 0.0734394125,48.0536292 L1.41738066,47.9662709 C1.45899633,48.6177145 1.51529988,49.276646 1.58384333,49.9255936 L0.244798042,50.0728548 Z M0,46.0294118 C0,45.7298975 0,45.4278872 0,45.125877 C0,44.7489881 0,44.3770912 0.0146878825,44.0002024 L1.36107711,44.0351457 C1.36107711,44.3970588 1.34638923,44.7614679 1.34638923,45.125877 C1.34638923,45.4179034 1.34638923,45.7099298 1.34638923,46.0019563 L0,46.0294118 Z M1.43206854,42.0508635 L0.088127295,41.9560173 C0.134638923,41.2821101 0.195838433,40.6007151 0.269277846,39.9342957 L1.60832313,40.0915407 C1.53488372,40.7454803 1.47613219,41.4044118 1.43206854,42.0508635 Z M1.88004896,38.1521856 L0.550795594,37.9325418 C0.656058752,37.2686185 0.776009792,36.5972072 0.910648715,35.9357798 L2.23011016,36.2153265 C2.08812729,36.8567863 1.97307222,37.5057339 1.88004896,38.1521856 Z M2.65361077,34.3134107 L1.34883721,33.9714652 C1.5128519,33.3150297 1.69400245,32.6585942 1.88494492,32.0196303 L3.17258262,32.4189827 C2.98898409,33.0279951 2.8127295,33.666959 2.65361077,34.3134107 Z M3.77723378,30.5520103 L2.50917993,30.092755 C2.72949816,29.4562871 2.96940024,28.8173233 3.21664627,28.198327 L4.4626683,28.7149892 C4.22276622,29.30653 3.99265606,29.9255262 3.77723378,30.5420264 L3.77723378,30.5520103 Z M5.23133415,26.9129115 L4.00734394,26.3363465 C4.28396573,25.7273341 4.57772338,25.1158257 4.88127295,24.5143011 L6.07588739,25.1457771 C5.78212974,25.7173502 5.49816401,26.3113869 5.23133415,26.9029277 L5.23133415,26.9129115 Z M7.00122399,23.418578 L5.83353733,22.732191 C6.16401469,22.1481382 6.51162791,21.5640853 6.86658507,21 L8,21.7487858 C7.65728274,22.2779277 7.32190942,22.8445089 7.00122399,23.4110901 L7.00122399,23.418578 Z" id="Shape" fill="#53A8E2" fill-rule="nonzero"></path>
                    <path d="M47.539823,91 C47.1132425,91 46.6817869,91 46.257644,90.9811598 L46.2966456,89.5008564 C46.9304223,89.5223881 47.5788247,89.5250795 48.2174766,89.5143137 L48.2369774,90.9946171 L47.539823,91 Z M50.2211859,90.9111818 L50.1383075,89.4335699 C50.7769594,89.3905065 51.4204865,89.3312943 52.0518256,89.2586249 L52.1932065,90.7281625 C51.5350538,90.8062148 50.8720259,90.8681184 50.2163107,90.9111818 L50.2211859,90.9111818 Z M44.2856234,90.8681184 C43.6274707,90.8169807 42.9644428,90.7470027 42.3136029,90.6608759 L42.4720471,89.1913384 C43.1009485,89.2720822 43.7444757,89.3420602 44.3831276,89.3931979 L44.2856234,90.8681184 Z M54.1554767,90.450942 L53.9531556,88.9867874 C54.5869323,88.8791289 55.2231466,88.7553218 55.8447353,88.6207487 L56.1055588,90.071446 C55.4571565,90.211402 54.803879,90.3405921 54.1506015,90.450942 L54.1554767,90.450942 Z M40.3440199,90.3567409 C39.6907424,90.2383166 39.0350273,90.1010521 38.3939378,89.9530218 L38.6718245,88.5050159 C39.2909756,88.6503548 39.9247523,88.774162 40.558529,88.8952777 L40.3440199,90.3567409 Z M58.0288273,89.5950575 L57.7070637,88.1578175 C58.3237772,87.9909469 58.9478035,87.8052361 59.5596418,87.6033766 L59.9399078,89.0244678 C59.3134439,89.2290188 58.6699168,89.422804 58.0337025,89.5950575 L58.0288273,89.5950575 Z M36.4682317,89.4524101 C35.8320174,89.2720822 35.1909279,89.0729141 34.5620264,88.8575973 L34.956918,87.4445804 C35.5663187,87.6518229 36.1879074,87.845608 36.8046208,88.020553 L36.4682317,89.4524101 Z M61.8192995,88.3569856 L61.3829686,86.957426 C61.9850564,86.7286518 62.6017699,86.478346 63.1819193,86.2199657 L63.6694399,87.5953022 C63.0771024,87.8671397 62.4530761,88.120137 61.8290499,88.3569856 L61.8192995,88.3569856 Z M32.6777595,88.1685833 C32.061046,87.9236604 31.4394574,87.6598972 30.8276191,87.3826768 L31.3370781,86.0154147 C31.9294155,86.2845608 32.5315034,86.5375581 33.128716,86.7744067 L32.6777595,88.1685833 Z M65.5000795,86.7421091 L64.9491813,85.3963788 C65.5293307,85.105701 66.1119178,84.7988745 66.6798792,84.4812821 L67.2844046,85.8027893 C66.7091304,86.1257646 66.1094802,86.443357 65.5098299,86.7421091 L65.5000795,86.7421091 Z M29.0237931,86.5214093 C28.6809037,86.3419786 28.3396393,86.1625479 28,85.9831172 L28.5947751,84.6373868 C28.9197887,84.8168176 29.2513027,84.9962483 29.5893169,85.175679 L29.0237931,86.5214093 Z M69.0394786,84.7800343 L68.3813258,83.4908246 C68.9370993,83.1463176 69.4904351,82.7802789 70.0315829,82.4142403 L70.7409252,83.668461 C70.1851518,84.0344996 69.6123152,84.4086127 69.0394786,84.766577 L69.0394786,84.7800343 Z M72.3960574,82.4626866 L71.6355254,81.2434549 C72.1620476,80.8424272 72.6836946,80.4360166 73.1907159,80 L74,81.1788598 C73.478353,81.6041106 72.9396428,82.0347443 72.3960574,82.4492293 L72.3960574,82.4626866 Z" id="Shape" fill="#53A8E2" fill-rule="nonzero"></path>
                    <path d="M25.5027434,34.9999998 C19.2334412,35.0010179 13.5808889,31.2252649 11.1810253,25.4334772 C8.78116179,19.6416895 10.1066353,12.9745479 14.5393414,8.54112185 C18.9720476,4.10769582 25.638974,2.78113962 31.4311515,5.18006248 C37.2233289,7.57898534 40.9999999,13.2309243 41,19.5002265 C40.9916773,28.0560826 34.0585983,34.9902876 25.5027434,34.9999998 Z M25.5027434,5.38732795 C19.7933616,5.38732804 14.6462096,8.82671103 12.461559,14.1015893 C10.2769084,19.3764676 11.4850249,25.4479569 15.5225274,29.4847395 C19.56003,33.521522 25.6317347,34.7285556 30.9062235,32.5429644 C36.1807122,30.3573732 39.6191773,25.2096081 39.6181592,19.5002265 C39.6098332,11.7083566 33.2946148,5.39426442 25.5027434,5.38732795 Z" id="Shape" fill="#445462" fill-rule="nonzero"></path>
                    <path d="M87,46 L46,46 L46,36 L87,36 L87,46 Z M47.3165577,44.5368449 L85.6762611,44.5368449 L85.6762611,37.4631551 L47.3165577,37.4631551 L47.3165577,44.5368449 Z" id="Shape" fill="#445462" fill-rule="nonzero"></path>
                    <path d="M87,39 L46,39 L46,29 L87,29 L87,39 Z M47.3165577,37.5380117 L85.6762611,37.5380117 L85.6762611,30.4699628 L47.3165577,30.4699628 L47.3165577,37.5380117 Z" id="Shape" fill="#445462" fill-rule="nonzero"></path>
                    <path d="M87,32 L46,32 L46,22 L87,22 L87,32 Z M47.3165577,30.5265121 L85.6762611,30.5265121 L85.6762611,23.4521716 L47.3165577,23.4521716 L47.3165577,30.5265121 Z" id="Shape" fill="#445462" fill-rule="nonzero"></path>
                    <path d="M22.501694,75.9926217 L22.501694,73.338908 L21.9737436,73.2946385 C20.0539243,73.1298574 16.667843,72.3846532 15,69.3054599 L17.3997741,68.3216921 C18.5564653,70.1785539 21.2538114,71.1475652 23.5,71.1475652 C26.9868718,71.1475652 29.1538679,69.7407772 29.1538679,67.4756517 C29.1538679,64.9768815 25.9141728,64.317757 23.478402,64.0324643 C19.0676172,63.5528775 15.6935347,62.8568618 15.6935347,58.7201181 C15.6935347,54.5391048 20.5098814,53.6389572 21.9857425,53.4643384 L22.4968944,53.4053123 L22.4968944,51 L25.0646527,51 L25.0646527,53.3930152 L25.5446076,53.4667978 C28.1843591,53.8553861 29.864201,54.8071815 30.9201016,56.5238564 L28.7603049,57.5076242 C27.728402,56.3320216 25.6405985,55.4884407 23.6175889,55.4884407 C20.2891022,55.4884407 18.378882,56.6689621 18.378882,58.7324152 C18.378882,61.1918347 21.3138058,61.5312346 23.6583851,61.8017708 C28.217956,62.3477619 32,63.1495327 32,67.4805706 C32,71.0909985 28.7795031,72.9355632 25.5902033,73.1593704 L25.0526539,73.1987211 L25.0526539,76 L22.501694,75.9926217 Z" id="Path" fill="#445462"></path>
                    <path d="M23.5002996,86 C15.2089448,86 7.73401011,80.883589 4.56104598,73.0365415 C1.38808185,65.189494 3.14194921,56.1571517 9.00482244,50.1512815 C14.8676957,44.1454114 23.6849823,42.3487668 31.3451953,45.5991203 C39.0054083,48.8494738 44,56.5067239 44,65.0003069 C43.991827,76.5946474 34.8185844,85.9916276 23.5002996,86 Z M23.5002996,45.4098703 C15.7611441,45.408847 8.78348024,50.1837205 5.82114141,57.5078656 C2.85880258,64.8320107 4.49520618,73.2629746 9.96726234,78.8692192 C15.4393185,84.4754638 23.6693339,86.152868 30.8194769,83.1192225 C37.9696199,80.085577 42.6317067,72.9383427 42.6317067,65.0104272 C42.6208183,54.1909497 34.0621691,45.422421 23.5002996,45.4098703 Z" id="Shape" fill="#445462" fill-rule="nonzero"></path>
                    <rect id="Rectangle" fill="#445462" x="39" y="45" width="8" height="1"></rect>
                    <polygon id="Path" fill="#445462" points="82 79 44 79 44 77.615455 80.6294183 77.615455 80.6294183 46 82 46"></polygon>
                    <rect id="Rectangle" fill="#445462" x="47" y="53" width="21" height="1"></rect>
                    <rect id="Rectangle" fill="#445462" x="76" y="53" width="5" height="1"></rect>
                    <rect id="Rectangle" fill="#445462" x="47" y="61" width="33" height="1"></rect>
                    <rect id="Rectangle" fill="#445462" x="47" y="68" width="33" height="1"></rect>
                    <path d="M45.4930252,172 L45.4930252,169.454968 L44.9656465,169.409646 C43.0401832,169.25276 39.6564647,168.538059 38,165.574666 L40.4032896,164.629866 C41.5500729,166.418361 44.2506767,167.33527 46.5053092,167.33527 C49.9881324,167.33527 52.1507391,165.986055 52.1507391,163.810575 C52.1507391,161.41197 48.9156777,160.777455 46.4876119,160.512493 C42.080991,160.052295 38.700812,159.382917 38.700812,155.41197 C38.700812,151.441023 43.5109307,150.531087 44.9833437,150.370715 L45.4930252,150.311447 L45.4930252,148 L48.0555903,148 L48.0555903,150.297501 L48.5475744,150.367228 C51.1738497,150.740267 52.85863,151.65369 53.9169269,153.302731 L51.7472413,154.237071 C50.71726,153.107496 48.6254424,152.298664 46.6114928,152.298664 C43.287945,152.298664 41.3801791,153.435212 41.3801791,155.41197 C41.3801791,157.772225 44.3108474,158.099942 46.6645846,158.361418 C51.2198626,158.894829 55,159.665311 55,163.824521 C55,167.289948 51.7826359,169.054038 48.5971268,169.273678 L48.0591297,169.312028 L48.0591297,172 L45.4930252,172 Z" id="Path" fill="#445462"></path>
                    <path d="M94,185 L0,185 L0,134 L94,134 L94,185 Z M1.94214876,183.088195 L92.0578512,183.088195 L92.0578512,135.911805 L1.94214876,135.911805 L1.94214876,183.088195 Z" id="Shape" fill="#445462" fill-rule="nonzero"></path>
                    <path d="M94,149 L93.0153557,149 C89.1833839,148.998322 85.519045,147.39078 82.8744484,144.551193 C80.2298517,141.711607 78.8354519,137.887422 79.015504,133.967919 L79.0334067,133.560953 L79.6098712,133 L80.0144704,133 L94,133 L94,149 Z M80.9740511,135.0055 C81.1570763,141.285521 85.9159998,146.423643 92.0307114,146.943171 L92.0307114,135.0055 L80.9740511,135.0055 Z" id="Shape" fill="#445462" fill-rule="nonzero"></path>
                    <path d="M1.10847643,148.999963 L0.529368551,148.999963 L0.277119107,148.699529 L0,148.428405 L0,133 L14.3959823,133 L14.9821958,133.589877 L14.9821958,133.981908 C15.1765756,137.924962 13.7724761,141.773848 11.1060812,144.607026 C8.49722064,147.420999 4.88364395,149.008801 1.10847643,148.999963 Z M1.95404499,135.015109 L1.95404499,146.95188 C4.90285657,146.748495 7.67098564,145.41398 9.71338,143.211106 C11.7859337,141.009074 12.9782817,138.082867 13.0530205,135.015109 L1.95404499,135.015109 Z" id="Shape" fill="#445462" fill-rule="nonzero"></path>
                    <path d="M94,185 L78.630318,185 L78.0028316,184.392405 L78.0028316,183.97609 C77.9256155,180.033583 79.430396,176.225496 82.1785527,173.40876 C84.9267094,170.592025 88.6873798,169.003265 92.6143008,169 L92.9878047,169 L93.3613085,169 L93.708667,169.330052 L93.9850598,169.626348 L94,185 Z M80.0645726,182.937178 L91.945729,182.937178 L91.945729,171.077825 C85.5573124,171.41964 80.4432363,176.524331 80.0645726,182.937178 Z" id="Shape" fill="#445462" fill-rule="nonzero"></path>
                    <path d="M13.9697821,184.996252 L0,184.996252 L0,169 L1.01235564,169.01874 C4.79251887,169.072805 8.39315282,170.69335 11.0052855,173.51628 C13.640854,176.311634 15.078959,180.083305 14.9966518,183.984305 L14.9966518,184.400328 L14.3979469,185 L13.9697821,184.996252 Z M1.99568316,182.934879 L12.9646835,182.934879 C12.8021118,179.934084 11.5975796,177.094425 9.57202213,174.936753 C7.5665343,172.777295 4.87903188,171.430527 1.99568316,171.14008 L1.99568316,182.934879 Z" id="Shape" fill="#445462" fill-rule="nonzero"></path>
                    <path d="M45.9947339,179 C45.6720119,179 45.3352585,179 45.0090286,178.97897 L45.1002326,177.051174 C45.3983997,177.051174 45.6860433,177.072205 45.9947339,177.072205 C46.5840524,177.072205 47.1768787,177.044164 47.7486579,176.988083 L47.9380817,178.905363 C47.3031612,178.968454 46.6471936,179 45.9947339,179 Z M42.0869912,178.621451 C41.1207089,178.431368 40.1698252,178.17011 39.2421264,177.839818 L39.8945861,176.024185 C40.7310361,176.320166 41.5880793,176.554466 42.4588231,176.725202 L42.0869912,178.621451 Z M50.8566113,178.404136 L50.3760361,176.535927 C51.2366935,176.318196 52.0807174,176.039419 52.9016867,175.701718 L53.6418426,177.482299 C52.7360556,177.857257 51.8039781,178.165362 50.8531034,178.404136 L50.8566113,178.404136 Z M36.5516069,176.651595 C35.6853333,176.186911 34.8541096,175.659752 34.0645427,175.074308 L35.2151168,173.528567 C35.9295369,174.056138 36.6809832,174.531718 37.4636474,174.95163 L36.5516069,176.651595 Z M56.2797444,176.164388 L55.2870234,174.502979 C56.0480323,174.045534 56.7748886,173.533622 57.4618892,172.971259 L58.6861281,174.460918 C57.9245786,175.083411 57.1192032,175.65036 56.2762365,176.157378 L56.2797444,176.164388 Z M31.8370592,173.153523 C31.1432593,172.458049 30.4997079,171.714273 29.9112506,170.927796 L31.4582116,169.771118 C31.9918805,170.485573 32.5781488,171.15925 33.2121356,171.786541 L31.8370592,173.153523 Z M60.8188998,172.452506 L59.3876977,171.159131 C59.984755,170.498417 60.5333994,169.795581 61.0293706,169.056082 L62.6324572,170.128637 C62.0842678,170.939854 61.4769311,171.709556 60.8153919,172.431476 L60.8188998,172.452506 Z M28.332719,168.456713 C27.8689635,167.591387 27.4703062,166.692772 27.1400506,165.768314 L28.9536081,165.119874 C29.2535264,165.946493 29.6134533,166.750126 30.0305174,167.524361 L28.332719,168.456713 Z M64.0882141,167.573432 L62.3342901,166.749737 C62.7162304,165.947676 63.0375125,165.118156 63.2954405,164.268139 L65.1405685,164.825447 C64.8543694,165.758506 64.5015085,166.669832 64.0847063,167.552401 L64.0882141,167.573432 Z M26.3507848,162.911672 C26.1634711,161.948165 26.0462362,160.972369 26,159.991939 L27.9293164,159.897302 C27.9715412,160.783831 28.0794102,161.666019 28.2520384,162.536629 L26.3507848,162.911672 Z M65.7860126,161.933754 L63.8777433,161.653348 C64.0070279,160.774817 64.0715121,159.887978 64.0706749,159.000001 C64.0706749,158.404137 64.0426121,157.801262 63.9829787,157.208904 L65.9052794,157.019629 C65.9684207,157.67508 65.9999913,158.341045 65.9999913,159.000001 C66.0009068,159.981844 65.9293868,160.962419 65.7860126,161.933754 Z M27.9819341,157.236944 L26.0596334,157.051175 C26.1552542,156.07417 26.3217299,155.105389 26.5577478,154.152472 L28.4309387,154.618648 C28.2163861,155.479057 28.0663023,156.354246 27.9819341,157.236944 Z M63.5304663,154.590607 C63.31297,153.730085 63.0327636,152.886614 62.6920906,152.066948 L64.4740774,151.327376 C64.8512905,152.238062 65.1608195,153.175289 65.4001493,154.131441 L63.5304663,154.590607 Z M29.2658065,152.091483 L27.4838197,151.355416 C27.8589179,150.452156 28.3009654,149.578131 28.8062784,148.740625 L30.4619827,149.732563 C30.0057197,150.488394 29.6059083,151.276842 29.2658065,152.091483 Z M61.4924066,149.694007 C61.0345706,148.934729 60.5222514,148.209614 59.959477,147.524361 L61.4468046,146.301088 C62.0726964,147.058161 62.6413671,147.860702 63.1481109,148.702069 L61.4924066,149.694007 Z M31.9949123,147.541887 L30.5040769,146.318613 C31.127932,145.558403 31.806769,144.844956 32.5351209,144.184018 L33.8295168,145.610586 C33.1718928,146.209019 32.5587377,146.854492 31.9949123,147.541887 Z M58.1213646,145.586051 C57.4608877,144.989626 56.7574221,144.442527 56.0166558,143.949177 L57.0900573,142.347355 C57.9078765,142.891938 58.6840776,143.496476 59.4122527,144.155977 L58.1213646,145.586051 Z M35.92721,143.963198 L34.8538085,142.361375 C35.6685241,141.813148 36.5233408,141.326908 37.4110297,140.906766 L38.2388818,142.659307 C37.436681,143.040719 36.6639911,143.481238 35.92721,143.977218 L35.92721,143.963198 Z M53.7049839,142.638277 C52.9020606,142.258133 52.0719113,141.938286 51.2214275,141.681389 L51.7791753,139.837716 C52.7207654,140.119464 53.6400294,140.470946 54.5293282,140.889241 L53.7049839,142.638277 Z M40.7259461,141.688399 L40.1646904,139.844726 C41.1063756,139.559552 42.0677825,139.343991 43.0411258,139.199791 L43.3217537,141.106556 C42.4406828,141.24106 41.5707221,141.44022 40.7189304,141.70242 L40.7259461,141.688399 Z M48.6221121,141.117071 C47.7473209,140.990797 46.8645746,140.927542 45.9807025,140.927796 L45.9807025,139.000001 C46.9573455,138.999763 47.932729,139.070048 48.8992321,139.210306 L48.6221121,141.117071 Z" id="Shape" fill="#445462" fill-rule="nonzero"></path>
                    <path d="M75,163 C72.790861,163 71,161.209139 71,159 C71,156.790861 72.790861,155 75,155 C77.209139,155 79,156.790861 79,159 C78.9981309,161.208364 77.2083643,162.998131 75,163 Z M75,156.864407 C73.8205444,156.864407 72.8644068,157.820544 72.8644068,159 C72.8644068,160.179456 73.8205444,161.135593 75,161.135593 C76.1794556,161.135593 77.1355932,160.179456 77.1355932,159 C77.1337267,157.821318 76.1786816,156.866273 75,156.864407 Z" id="Shape" fill="#445462" fill-rule="nonzero"></path>
                    <path d="M17,163 C14.790861,163 13,161.209139 13,159 C13,156.790861 14.790861,155 17,155 C19.209139,155 21,156.790861 21,159 C20.9981309,161.208364 19.2083643,162.998131 17,163 Z M17,156.864407 C15.8205444,156.864407 14.8644068,157.820544 14.8644068,159 C14.8644068,160.179456 15.8205444,161.135593 17,161.135593 C18.1794556,161.135593 19.1355932,160.179456 19.1355932,159 C19.1337267,157.821318 18.1786816,156.866273 17,156.864407 Z" id="Shape" fill="#445462" fill-rule="nonzero"></path>
                    <path d="M157,332 L6.75922391,332 C3.58089129,331.993977 1.00578406,329.31261 1,326.003127 L1,318 L144.076778,318 L144.076778,320.006253 L2.92674766,320.006253 L2.92674766,326.003127 C2.93823572,328.202111 4.64738254,329.981785 6.75922391,329.993747 L157,329.993747 L157,332 Z" id="Path" fill="#445462"></path>
                    <path d="M12.9282847,314 L11,314 L11,219.75964 C11.0115756,216.578012 13.5876104,214.003845 16.7638184,214 L150.236182,214 C153.418649,214.001937 155.998066,216.585771 156,219.773688 L156,244.006322 L154.075221,244.006322 L154.075221,219.773688 C154.063724,217.656543 152.353214,215.943104 150.239688,215.931587 L16.7638184,215.931587 C14.655715,215.943018 12.9474187,217.647983 12.9282847,219.75964 L12.9282847,314 Z" id="Path" fill="#4E69A2"></path>
                    <path d="M96.6885897,325 L72.318252,325 C70.4864136,324.998068 69.0018856,323.476922 69,321.5999 L69,318 L70.8814831,318 L70.8814831,321.5999 C70.8833638,322.412178 71.5255268,323.070181 72.318252,323.072108 L96.6885897,323.072108 C97.481315,323.070181 98.1234779,322.412178 98.1253586,321.5999 L98.1253586,318 L100,318 L100,321.5999 C99.9981249,323.474192 98.5177557,324.99421 96.6885897,325 Z" id="Path" fill="#445462"></path>
                    <polygon id="Path" fill="#445462" points="23.9254467 320 22 320 22 224 147 224 147 249.501491 145.074553 249.501491 145.074553 225.94425 23.9254467 225.94425"></polygon>
                    <polygon id="Path" fill="#53A8E2" points="126 273 124.067093 273 124.067093 264.903773 115 264.903773 115 263 126 263"></polygon>
                    <polygon id="Rectangle" fill="#53A8E2" transform="translate(53.196738, 290.648381) rotate(-45.000000) translate(-53.196738, -290.648381) " points="37.4714534 289.656134 68.9185711 289.712433 68.9220232 291.640629 37.4749055 291.584329"></polygon>
                    <polygon id="Rectangle" fill="#53A8E2" transform="translate(79.866746, 287.646623) rotate(-45.000000) translate(-79.866746, -287.646623) " points="78.8820429 276.135322 80.8102385 276.138774 80.8514498 299.157924 78.9232541 299.154472"></polygon>
                    <polygon id="Rectangle" fill="#53A8E2" transform="translate(109.393746, 279.796001) rotate(-45.000000) translate(-109.393746, -279.796001) " points="87.3527444 278.792447 131.431296 278.871361 131.434748 280.799556 87.3561965 280.720642"></polygon>
                    <path d="M40.5,310 C38.0147186,310 36,307.985281 36,305.5 C36,303.014719 38.0147186,301 40.5,301 C42.9852814,301 45,303.014719 45,305.5 C44.996421,307.983797 42.9837974,309.996421 40.5,310 Z M40.5,302.787004 C39.4026954,302.787004 38.4134385,303.448004 37.9935182,304.461781 C37.5735979,305.475558 37.8057103,306.642467 38.5816219,307.418378 C39.3575334,308.19429 40.5244415,308.426402 41.5382188,308.006482 C42.551996,307.586562 43.2129964,306.597305 43.2129964,305.5 C43.2112061,304.002396 41.9976043,302.788794 40.5,302.787004 Z" id="Shape" fill="#53A8E2" fill-rule="nonzero"></path>
                    <path d="M68.5130613,281.999981 C66.691834,282.005241 65.04701,280.912209 64.3464089,279.231122 C63.6458077,277.550035 64.0275886,275.612406 65.3135324,274.322738 C66.5994762,273.03307 68.5359939,272.645687 70.2191004,273.341422 C71.9022069,274.037158 72.9999924,275.678813 73,277.500048 C72.996449,279.978752 70.9917459,281.989261 68.5130613,281.999981 Z M68.5130613,274.787091 C67.0147364,274.787091 65.8001041,276.001723 65.8001041,277.500048 C65.8001041,278.998372 67.0147364,280.213004 68.5130613,280.213004 C70.0113861,280.213004 71.2260184,278.998372 71.2260184,277.500048 C71.2260184,276.001723 70.0113861,274.787091 68.5130613,274.787091 Z" id="Shape" fill="#53A8E2" fill-rule="nonzero"></path>
                    <path d="M91.4999883,303 C89.0163971,302.99999 87.0023862,300.987906 87.0000021,298.50432 C86.9976181,296.020734 89.0077625,294.004787 91.491349,294.000009 C93.9749356,293.99523 95.9928225,296.003427 95.9999953,298.487004 C96.00172,299.682202 95.5285821,300.829132 94.6846668,301.675484 C93.8407515,302.521835 92.6951882,302.998278 91.4999883,303 Z M91.4999883,295.787004 C90.0016394,295.787004 88.7869877,297.001654 88.7869877,298.5 C88.7869877,299.998347 90.0016394,301.212996 91.4999883,301.212996 C92.9983372,301.212996 94.2129889,299.998347 94.2129889,298.5 C94.2111986,297.002396 92.997595,295.788794 91.4999883,295.787004 Z" id="Shape" fill="#53A8E2" fill-rule="nonzero"></path>
                    <rect id="Rectangle" fill="#445462" x="30" y="240" width="42" height="2"></rect>
                    <rect id="Rectangle" fill="#445462" x="30" y="251" width="42" height="2"></rect>
                    <rect id="Rectangle" fill="#445462" x="90" y="240" width="42" height="2"></rect>
                    <rect id="Rectangle" fill="#445462" x="90" y="251" width="42" height="2"></rect>
                    <rect id="Rectangle" fill="#445462" x="30" y="260" width="20" height="2"></rect>
                    <path d="M25.7992224,26.9999975 C22.706177,26.9916582 20.0060718,24.6922095 19.2227803,21.3994042 C18.4394889,18.1065989 19.769445,14.6462066 22.4620539,12.9711885 C25.1546627,11.2961705 28.534672,11.8265875 30.6944866,14.2630853 L29.766196,15.2535903 C28.1742084,13.4521732 25.7394881,12.9134477 23.6385089,13.8977297 C21.5375298,14.8820118 20.202807,17.1866735 20.2792881,19.6980862 C20.3557691,22.2094989 21.8277092,24.410654 23.9838567,25.237938 C26.1400042,26.065222 28.5364866,25.3483271 30.0153069,23.4336621 L31,24.3543404 C29.7038244,26.0342521 27.8018383,27.0018003 25.7992224,26.9999975 Z" id="Path" fill="#445462"></path>
                    <rect id="Rectangle" fill="#445462" x="17" y="17" width="10" height="1"></rect>
                    <rect id="Rectangle" fill="#445462" x="17" y="20" width="10" height="1"></rect>
                    <path d="M181.416124,333.999999 C173.278033,334.001422 165.277716,331.899379 158.191296,327.897792 C135.366653,315.045263 127.24965,286.018166 140.101571,263.192442 C152.953492,240.366718 181.975673,232.24933 204.803858,245.10186 C223.62935,255.704628 232.928386,277.676743 227.433972,298.573153 C221.939559,319.469564 203.035991,334.025503 181.430289,333.996458 L181.416124,333.999999 Z M181.564865,240.91921 C177.394807,240.921975 173.244721,241.495127 169.229995,242.622728 C157.578529,245.84689 147.700784,253.597959 141.797926,264.148679 C129.47368,286.039416 137.257787,313.876529 159.151029,326.201358 C173.334349,334.186654 190.700179,333.998302 204.70698,325.707254 C218.713782,317.416205 227.233588,302.282067 227.05707,286.005722 C226.880552,269.729378 218.034527,254.783591 203.851208,246.798295 C197.057193,242.953445 189.38544,240.928367 181.57903,240.91921 L181.564865,240.91921 Z" id="Shape" fill="#445462" fill-rule="nonzero"></path>
                    <path d="M181.009136,323.999998 C161.557744,324.006048 145.423644,308.947852 144.08849,289.541408 C142.753336,270.134964 156.673173,253.008874 175.942103,250.35073 C195.211033,247.692586 213.247424,260.410323 217.215878,279.453504 C221.184333,298.496686 209.729358,317.360787 191.002759,322.621381 C187.749862,323.533846 184.387574,323.997672 181.009136,323.999998 Z M181.124893,252.118951 C163.540432,252.097471 148.676826,265.141782 146.414365,282.580935 C144.151904,300.020088 155.194837,316.425695 172.202591,320.892451 C189.210346,325.359206 206.888818,316.496717 213.486591,300.196149 C220.084363,283.895581 213.547708,265.230908 198.221739,256.609104 C193.000814,253.674172 187.114131,252.128149 181.124893,252.118951 Z" id="Shape" fill="#53A8E2" fill-rule="nonzero"></path>
                    <path d="M245.360531,336 L226,321.673631 L234.046742,307 L268.405986,321.939394 C273.534057,324.184389 276.592758,329.64294 275.903615,335.319648 L274.021438,335.075147 C274.604107,330.264486 272.012129,325.639272 267.666929,323.735948 L234.858323,309.473363 L228.486547,321.113759 L246.479477,334.416056 L245.360531,336 Z" id="Path" fill="#445462"></path>
                    <polygon id="Rectangle" fill="#445462" transform="translate(238.826320, 319.036033) rotate(-60.610000) translate(-238.826320, -319.036033) " points="229.809262 318.057224 247.840425 318.084856 247.843377 320.014841 229.812214 319.987209"></polygon>
                    <polygon id="Rectangle" fill="#445462" transform="translate(225.734604, 317.447743) rotate(-60.620000) translate(-225.734604, -317.447743) " points="224.766499 314.240736 226.692904 314.243687 226.702709 320.65475 224.776303 320.651798"></polygon>
                    <polygon id="Rectangle" fill="#445462" transform="translate(230.576519, 308.875253) rotate(-60.620000) translate(-230.576519, -308.875253) " points="229.608414 305.668246 231.534819 305.671198 231.544624 312.08226 229.618218 312.079308"></polygon>
                    <path d="M167.987753,310 C167.081802,309.535947 166.205596,309.025061 165.363409,308.469833 L166.570607,306.943089 C167.350981,307.45628 168.162033,307.929412 169,308.360291 L167.987753,310 Z M162.945264,306.679504 C162.175914,306.04041 161.447396,305.3615 160.763309,304.646128 L162.315421,303.406932 C162.948407,304.0676 163.621815,304.695046 164.332417,305.286264 L162.945264,306.679504 Z M158.851287,302.400513 C158.262418,301.618444 157.721715,300.807032 157.231692,299.970047 L159.049988,299.08344 C159.502797,299.857351 160.003482,300.607101 160.549613,301.329054 L158.851287,302.400513 Z M155.923269,297.38896 C155.539288,296.507805 155.211324,295.607149 154.941015,294.691485 L156.928018,294.201968 C157.180844,295.048567 157.484986,295.881686 157.83904,296.697475 L155.923269,297.38896 Z M154.296176,291.911853 C154.137559,290.974218 154.038668,290.02897 154,289.080873 L156.058235,289.008986 C156.097028,289.885808 156.188392,290.760031 156.331917,291.627728 L154.296176,291.911853 Z M156.110722,286.379974 L154.052487,286.239623 C154.132115,285.293271 154.268536,284.35162 154.461135,283.418913 L156.489378,283.761232 C156.308436,284.626819 156.18201,285.501169 156.110722,286.379974 Z M157.209198,281.221224 L155.24094,280.65982 C155.550104,279.75491 155.915607,278.866858 156.335666,278 L158.210197,278.759949 C157.826948,279.562844 157.492768,280.384531 157.209198,281.221224 Z" id="Shape" fill="#445462" fill-rule="nonzero"></path>
                    <path d="M203.67933,297 L201.804799,296.240051 C202.193486,295.437575 202.532682,294.615865 202.820795,293.778776 L204.789053,294.34018 C204.474318,295.245167 204.103819,296.13319 203.67933,297 Z M205.535116,291.581087 L203.510622,291.238768 C203.686206,290.375969 203.811352,289.505245 203.885529,288.630295 L205.940015,288.770646 C205.863053,289.713668 205.727872,290.651973 205.535116,291.581087 Z M203.938015,285.991014 C203.901084,285.114078 203.809711,284.23976 203.664334,283.372272 L205.703824,283.088147 C205.860585,284.025992 205.959466,284.971144 206,285.919127 L203.938015,285.991014 Z M203.068233,280.798032 C202.816672,279.951492 202.513781,279.118372 202.16096,278.302525 L204.076731,277.617886 C204.459018,278.499605 204.786949,279.400172 205.058985,280.315362 L203.068233,280.798032 Z M200.946263,275.91656 C200.493517,275.142616 199.99283,274.392862 199.446638,273.670946 L201.144964,272.599487 C201.732489,273.382349 202.273146,274.193693 202.764559,275.029953 L200.946263,275.91656 Z M197.68083,271.593068 C197.048843,270.931555 196.375381,270.304058 195.663834,269.713736 L197.054736,268.320496 C197.82194,268.960504 198.549154,269.639366 199.232942,270.353872 L197.68083,271.593068 Z M193.429393,268.056911 C192.648455,267.544479 191.83745,267.071374 191,266.639709 L192.012247,265 C192.918261,265.463957 193.794473,265.974847 194.636591,266.530167 L193.429393,268.056911 Z" id="Shape" fill="#445462" fill-rule="nonzero"></path>
                </g>
                <g id="Asset-1" transform="translate(1188.000000, 0.000000)">
                    <rect id="Rectangle" fill="#445462" x="212" y="0" width="2" height="6"></rect>
                    <rect id="Rectangle" fill="#445462" x="217" y="8" width="6" height="2"></rect>
                    <rect id="Rectangle" fill="#445462" x="212" y="13" width="2" height="6"></rect>
                    <rect id="Rectangle" fill="#445462" x="205" y="8" width="6" height="2"></rect>
                    <rect id="Rectangle" fill="#445462" x="81" y="100" width="2" height="6"></rect>
                    <rect id="Rectangle" fill="#445462" x="86" y="107" width="6" height="2"></rect>
                    <rect id="Rectangle" fill="#445462" x="81" y="112" width="2" height="6"></rect>
                    <rect id="Rectangle" fill="#445462" x="74" y="107" width="6" height="2"></rect>
                    <rect id="Rectangle" fill="#0093E2" x="106" y="205" width="2" height="15"></rect>
                    <rect id="Rectangle-Copy" fill="#0093E2" x="108" y="262" width="2" height="15"></rect>
                    <path d="M1.62376183,351 L0,351 L0,189.749584 C0,181.603614 6.66180725,175 14.879563,175 L92.4215711,175 C99.477904,175.017114 105.55861,179.929025 107,186.776255 L105.396904,187.11573 C104.118053,181.011451 98.6962642,176.632514 92.4068096,176.62421 L14.879563,176.62421 C7.55858614,176.62421 1.62376183,182.507192 1.62376183,189.764217 L1.62376183,351 Z" id="Path" fill="#0093E2"></path>
                    <rect id="Rectangle" fill="#0093E2" x="106" y="318" width="2" height="34"></rect>
                    <polygon id="Path" fill="#445462" points="17.6360827 292 16 292 16 187 93 187 92.9732277 199.748386 91.3371451 199.745247 91.3609426 188.726148 17.6360827 188.726148"></polygon>
                    <polygon id="Path" fill="#445462" points="93 329 16 329 16 291 17.6360827 291 17.6360827 327.310565 91.3639173 327.310565 91.3639173 312.093364 93 312.093364"></polygon>
                    <path d="M60,351 L48,351 L48,338 L60,338 L60,351 Z M49.5460295,349.324742 L58.4539705,349.324742 L58.4539705,339.675258 L49.5460295,339.675258 L49.5460295,349.324742 Z" id="Shape" fill="#445462" fill-rule="nonzero"></path>
                    <path d="M160.767389,262 C159.952731,262 159.12605,261.944687 158.314398,261.880155 L158.443661,260.196183 C159.222245,260.257642 160.012854,260.294517 160.794444,260.309882 L160.767389,262 Z M163.223386,261.960052 L163.148233,260.273007 C163.929823,260.236131 164.717425,260.1716 165.493003,260.085557 L165.67337,261.766456 C164.864725,261.855572 164.038043,261.923176 163.223386,261.960052 Z M155.870426,261.60359 C155.061781,261.486819 154.247123,261.339317 153.447497,261.170306 L153.784182,259.517063 C154.547735,259.679929 155.329325,259.824357 156.101897,259.93191 L155.870426,261.60359 Z M168.102312,261.416141 L167.819737,259.750607 C168.589302,259.612324 169.361874,259.443312 170.122421,259.262009 L170.51021,260.906033 C169.71359,261.102701 168.904945,261.271713 168.102312,261.416141 Z M151.057634,260.580301 C150.273038,260.359049 149.48243,260.110141 148.709858,259.836649 L149.250959,258.238719 C149.987457,258.499919 150.754017,258.739609 151.499534,258.951642 L151.057634,260.580301 Z M172.87903,260.242277 L172.392039,258.62591 C173.13455,258.392366 173.895097,258.131166 174.613559,257.845383 L175.214782,259.424875 C174.439204,259.72295 173.657614,259.996442 172.87903,260.242277 Z M146.42521,258.93935 C145.673681,258.632056 144.922152,258.269448 144.18866,257.897623 L144.922152,256.382662 C145.622577,256.739123 146.344045,257.074074 147.062506,257.381368 L146.42521,258.93935 Z M177.478387,258.459971 L176.792993,256.9235 C177.505442,256.591622 178.214885,256.235161 178.897274,255.860262 L179.669846,257.350639 C178.95439,257.73783 178.211879,258.112728 177.469369,258.459971 L177.478387,258.459971 Z M142.00622,256.711467 C141.299782,256.29662 140.599357,255.851043 139.919975,255.390102 L140.82181,253.982694 C141.474137,254.422125 142.144501,254.849264 142.820877,255.248747 L142.00622,256.711467 Z M181.795169,256.096879 L180.926402,254.658742 C181.590754,254.237749 182.252099,253.792172 182.88639,253.331231 L183.842334,254.707909 C183.183995,255.199579 182.495594,255.657448 181.801182,256.096879 L181.795169,256.096879 Z M137.905877,253.945819 C137.256556,253.441857 136.616254,252.907165 136,252.363254 L137.079196,251.08491 C137.680419,251.60731 138.281642,252.117419 138.906914,252.599871 L137.905877,253.945819 Z M185.793304,253.20524 L184.753188,251.890021 C185.354411,251.389131 185.955634,250.860585 186.535814,250.319748 L187.654089,251.548924 C187.067897,252.126638 186.442625,252.667475 185.808334,253.192948 L185.793304,253.20524 Z M189.400643,249.809639 L188.198196,248.638848 C188.742303,248.061135 189.27138,247.458839 189.776407,246.853469 L191.03597,247.944364 C190.545973,248.568171 189.992848,249.195051 189.424692,249.797348 L189.400643,249.809639 Z M192.596144,245.980754 L191.270447,244.972829 C191.736395,244.333657 192.187312,243.669901 192.614181,243 L194,243.921883 C193.555095,244.607149 193.083135,245.298561 192.596144,245.980754 Z" id="Shape" fill="#445462" fill-rule="nonzero"></path>
                    <path d="M131.386107,204 L130,203.078117 C130.444997,202.377487 130.902022,201.686075 131.404147,201.016173 L132.730119,202.027171 C132.264075,202.666343 131.813064,203.330099 131.386107,204 Z M134.194401,200.143458 L132.931571,199.052563 C133.45775,198.416464 134.01099,197.786511 134.576257,197.187288 L135.778953,198.358079 C135.22872,198.932719 134.696527,199.535015 134.194401,200.143458 Z M137.4507,196.677179 L136.332193,195.432638 C136.933541,194.867217 137.561949,194.31716 138.193364,193.791687 L139.233696,195.106906 C138.626335,195.620087 138.027994,196.136342 137.4507,196.677179 Z M186.917574,195.927382 C186.316226,195.404981 185.714878,194.894873 185.089476,194.412421 L186.090721,193.066473 C186.740176,193.570435 187.380612,194.102054 188,194.649038 L186.917574,195.927382 Z M141.109902,193.668769 L140.153758,192.292091 C140.818248,191.809639 141.506791,191.342552 142.201348,190.903121 L143.070295,192.341258 C142.405806,192.746887 141.74733,193.192463 141.109902,193.653404 L141.109902,193.668769 Z M183.171177,193.017306 C182.521721,192.577875 181.848212,192.150736 181.171695,191.751253 L181.998548,190.288533 C182.705132,190.70338 183.405702,191.148957 184.088232,191.609898 L183.171177,193.017306 Z M145.108865,191.142811 L144.330119,189.652434 C145.04873,189.259098 145.791395,188.887272 146.534059,188.540029 L147.219596,190.0765 C146.506998,190.396086 145.797408,190.752547 145.108865,191.127446 L145.108865,191.142811 Z M179.085018,190.617338 C178.384448,190.260877 177.66283,189.925926 176.94422,189.618632 L177.584655,188.057577 C178.333333,188.380236 179.088025,188.730552 179.818663,189.102377 L179.085018,190.617338 Z M149.378434,189.154617 L148.777087,187.575125 C149.543805,187.267831 150.325557,187.003558 151.101296,186.757723 L151.588388,188.37409 C150.869777,188.592269 150.121099,188.859615 149.390461,189.139253 L149.378434,189.154617 Z M174.746293,188.761281 C174.009642,188.500081 173.242924,188.260391 172.500259,188.048358 L172.939243,186.419699 C173.727009,186.640951 174.514774,186.889859 175.287506,187.163351 L174.746293,188.761281 Z M153.870503,187.734918 L153.482633,186.093967 C154.279419,185.897299 155.088232,185.725214 155.888025,185.583859 L156.170658,187.249393 C155.415967,187.369238 154.643235,187.535177 153.88253,187.719554 L153.870503,187.734918 Z M170.212131,187.482937 C169.448419,187.320071 168.666667,187.175643 167.893935,187.06809 L168.125454,185.39641 C168.934266,185.513181 169.749093,185.660683 170.548885,185.829694 L170.212131,187.482937 Z M158.485848,186.914443 L158.30845,185.233544 C159.117263,185.144428 159.941109,185.076824 160.755936,185.039948 L160.834111,186.726993 C160.076413,186.748504 159.288647,186.809963 158.512908,186.899078 L158.485848,186.914443 Z M165.536651,186.803817 C164.757906,186.742358 163.967133,186.70241 163.185381,186.690118 L163.212442,185 C164.027268,185.015365 164.854121,185.055313 165.665941,185.119845 L165.536651,186.803817 Z" id="Shape" fill="#445462" fill-rule="nonzero"></path>
                    <path d="M196.212575,239 L186.506632,239 L186.506632,237.312757 L196.212575,237.312757 C196.509409,237.312757 196.794086,237.193495 197.00398,236.981206 C197.213874,236.768917 197.331791,236.480992 197.331791,236.180771 L197.331791,200.819229 C197.331791,200.519008 197.213874,200.231083 197.00398,200.018794 C196.794086,199.806505 196.509409,199.687243 196.212575,199.687243 L142.787425,199.687243 C142.490591,199.687243 142.205914,199.806505 141.99602,200.018794 C141.786126,200.231083 141.668209,200.519008 141.668209,200.819229 L141.668209,209.654246 L140,209.654246 L140,200.819229 C140.001672,199.262913 141.248666,198.001691 142.787425,198 L196.212575,198 C197.751334,198.001691 198.998328,199.262913 199,200.819229 L199,236.196109 C198.990004,237.746432 197.74544,238.998348 196.212575,239 Z" id="Path" fill="#445462"></path>
                    <polygon id="Path" fill="#445462" points="198 217 186.324486 217 186.324486 215.388386 196.309678 215.388386 196.309678 207.611614 143 207.611614 143 206 198 206"></polygon>
                    <path d="M181.934879,254 L127.062089,254 C125.923431,253.996622 125.001665,253.062567 125,251.910418 L125,215.089582 C125.001665,213.937433 125.923431,213.003378 127.062089,213 L181.934879,213 C183.074721,213.00169 183.99833,213.936239 184,215.089582 L184,251.910418 C183.99833,253.063761 183.074721,253.99831 181.934879,254 Z M127.062089,214.675348 C126.843876,214.677034 126.66786,214.856505 126.667866,215.077309 L126.667866,251.898144 C126.66786,252.118948 126.843876,252.298419 127.062089,252.300105 L181.934879,252.300105 C182.154277,252.300105 182.332134,252.120141 182.332134,251.898144 L182.332134,215.077309 C182.332134,214.855312 182.154277,214.675348 181.934879,214.675348 L127.062089,214.675348 Z" id="Shape" fill="#445462" fill-rule="nonzero"></path>
                    <path d="M149.28569,231 L133.71431,231 C132.767523,231 132,230.286557 132,229.40648 L132,220.59352 C132,219.713443 132.767523,219 133.71431,219 L149.28569,219 C150.231754,219.001621 150.998256,219.714115 151,220.59352 L151,229.40648 C151,229.829108 150.819386,230.234426 150.49789,230.533269 C150.176395,230.832112 149.740354,231 149.28569,231 Z M133.758672,229.379971 L149.28569,229.379971 L149.28569,220.620029 L133.758672,220.620029 L133.758672,229.379971 Z" id="Shape" fill="#445462" fill-rule="nonzero"></path>
                    <rect id="Rectangle" fill="#445462" x="137" y="222" width="2" height="9"></rect>
                    <rect id="Rectangle" fill="#445462" x="143" y="222" width="2" height="9"></rect>
                    <rect id="Rectangle" fill="#445462" x="143" y="225" width="4" height="2"></rect>
                    <rect id="Rectangle" fill="#445462" x="132" y="224" width="6" height="2"></rect>
                    <path d="M178,226 L164,226 L164,218 L178,218 L178,226 Z M165.633086,224.223301 L176.366914,224.223301 L176.366914,219.779935 L165.633086,219.779935 L165.633086,224.223301 Z" id="Shape" fill="#445462" fill-rule="nonzero"></path>
                    <rect id="Rectangle" fill="#445462" x="134" y="241" width="3" height="2"></rect>
                    <rect id="Rectangle" fill="#445462" x="140" y="241" width="3" height="2"></rect>
                    <rect id="Rectangle" fill="#445462" x="144" y="241" width="3" height="2"></rect>
                    <rect id="Rectangle" fill="#445462" x="149" y="241" width="3" height="2"></rect>
                    <rect id="Rectangle" fill="#445462" x="154" y="241" width="3" height="2"></rect>
                    <rect id="Rectangle" fill="#445462" x="158" y="241" width="3" height="2"></rect>
                    <rect id="Rectangle" fill="#445462" x="164" y="241" width="3" height="2"></rect>
                    <rect id="Rectangle" fill="#445462" x="168" y="241" width="3" height="2"></rect>
                    <rect id="Rectangle" fill="#445462" x="173" y="241" width="3" height="2"></rect>
                    <polygon id="Path" fill="#445462" points="184.87463 352 183 352 183 288 252 288 252 289.886085 184.87463 289.886085"></polygon>
                    <polygon id="Path" fill="#445462" points="252 315 193 315 193 297 252 297 252 298.79218 194.888494 298.79218 194.888494 313.20782 252 313.20782"></polygon>
                    <polygon id="Path" fill="#445462" points="195.870317 352 194 352 194 325 253 325 253 326.867925 195.870317 326.867925"></polygon>
                    <rect id="Rectangle" fill="#445462" x="208" y="326" width="2" height="26"></rect>
                    <rect id="Rectangle" fill="#445462" x="224" y="326" width="2" height="26"></rect>
                    <rect id="Rectangle" fill="#445462" x="239" y="326" width="2" height="26"></rect>
                    <rect id="Rectangle" fill="#445462" x="194" y="339" width="46" height="2"></rect>
                    <rect id="Rectangle" fill="#445462" x="225" y="306" width="4" height="2"></rect>
                    <rect id="Rectangle" fill="#445462" x="231" y="306" width="4" height="2"></rect>
                    <rect id="Rectangle" fill="#445462" x="238" y="306" width="4" height="2"></rect>
                    <rect id="Rectangle" fill="#445462" x="244" y="306" width="4" height="2"></rect>
                    <path d="M218.236196,68.6560388 C217.370083,68.4176763 215.729881,67.9730902 215.226453,67.2472899 C214.498376,66.269736 214.980152,64.1003699 218.850595,64.6869022 C220.379827,64.9279429 221.903645,65.908175 222.328582,66.9259023 L222.328582,66.9553628 L225,66.1947456 C224.29899,64.0521617 222.970047,63.14692 220.788524,62.3755898 L221.088957,60.4419079 L219.53266,60.2062237 L218.160411,60 L217.859978,61.9310037 C217.237382,61.9210747 216.615124,61.965888 216.000541,62.0649152 C213.886684,62.4371891 212.260014,63.6075756 211.940635,65.7421247 C211.331649,69.6764443 214.963912,70.6459635 217.624504,71.3664073 L217.813966,71.4199719 C219.437929,71.8806275 221.440816,72.6599923 221.208048,74.1731922 C220.937387,75.9756409 218.94262,76.2006122 217.104836,75.9943885 C214.620173,75.6167581 213.204619,74.1812269 212.898773,72.9894146 L212.898773,72.9519194 L210,73.6830761 L210,73.7178931 C210.576507,75.9327892 212.314147,77.5691876 214.888127,78.3217702 L215.321184,78.447647 L214.993685,80.5554139 L216.365933,80.7643158 L217.92223,81 L218.265969,78.7851039 C219.584085,78.8038515 220.883255,78.7181482 222.182425,77.9307486 C223.368453,77.2186936 224.164636,76.0133049 224.347708,74.6525953 C224.964814,70.710241 221.600505,69.6416273 218.236196,68.6560388 Z" id="Path" fill="#445462"></path>
                    <path d="M179.571946,144 L178.050021,144 L178.050021,134.864474 C174.571733,131.904694 170.703278,127.693957 170.324181,121.112127 C166.704768,121.188438 164.139634,120.460757 162.490421,118.915458 C160,116.563441 160,112.739711 160,108.692499 L160,103.977564 C160.021171,101.953725 161.689004,100.321977 163.743934,100.314632 C169.803959,100.26285 173.373563,97.4992984 176.054917,90.7757472 C176.838016,87.7260294 175.205407,83.163717 172.07301,79.6561327 L171.339719,78.838514 L172.380162,78.459684 C176.702427,76.8953068 182.419327,75.6579772 188.471052,79.8850659 C189.790975,79.5607438 194.619625,78.3969999 198.762026,77.7510811 L199,79.2309709 C194.248829,79.975004 188.5596,81.4112875 188.50149,81.4112875 L188.152831,81.4985002 L187.859515,81.2886447 C182.751384,77.5739304 177.994679,78.170792 173.92699,79.5007851 C176.915496,83.253655 178.37931,87.9304341 177.524266,91.1845565 L177.496594,91.2690438 C174.585568,98.5949075 170.47914,101.745465 163.766071,101.802698 C163.177999,101.79689 162.611751,102.021792 162.192283,102.427775 C161.772815,102.833757 161.534607,103.387449 161.530226,103.966662 L161.530226,108.681597 C161.530226,112.559835 161.530226,115.909346 163.558536,117.819849 C165.00298,119.182547 167.449127,119.749429 171.0298,119.577729 L171.815666,119.539574 L171.815666,120.316311 C171.920817,126.911769 175.869519,131.059821 179.286931,133.94329 L179.563644,134.166772 L179.571946,144 Z" id="Path" fill="#0093E2"></path>
                    <path d="M223.894564,149 L217.889848,149 C215.816317,148.996974 214.136146,147.323503 214.133108,145.258242 L214.133108,140.862637 C206.727048,142.951701 198.872575,142.863929 191.515437,140.60989 L191.515437,145.25 C191.512396,147.316332 189.830547,148.990246 187.755939,148.991758 L181.75674,148.991758 C179.683209,148.988732 178.003038,147.315261 178,145.25 L178,144.524725 L179.517039,144.524725 L179.517039,145.258242 C179.518559,146.489634 180.520417,147.487497 181.75674,147.489011 L187.755939,147.489011 C188.993339,147.489012 189.996876,146.490706 189.998398,145.258242 L189.998398,138.524725 L190.999644,138.862637 C198.657533,141.434778 206.935629,141.530931 214.651659,139.137363 L215.636356,138.82967 L215.636356,145.260989 C215.637875,146.492381 216.639734,147.490245 217.876057,147.491758 L223.875256,147.491758 C225.112656,147.491759 226.116193,146.493453 226.117715,145.260989 L226.117715,135.321429 L226.39354,135.093407 C234.075274,128.986264 238.482961,120.167582 238.482961,110.898352 C238.482961,102.777473 235.148234,95.0274725 229.091111,89.0769231 L230.158555,88 C236.502536,94.239011 240,102.370879 240,110.898352 C240,120.513736 235.493015,129.659341 227.626479,136.046703 L227.626479,145.258242 C227.62352,147.313905 225.958393,148.983424 223.894564,149 Z" id="Path" fill="#0093E2"></path>
                    <path d="M241.730209,97.9999789 C238.732446,98.0057302 235.891899,96.8349344 234,94.8137981 L235.230594,93.9400464 C238.149938,97.0530908 243.418054,97.523785 247.005007,94.9920635 C249.80336,93.0108513 250.224915,89.4333708 247.946729,87.0002483 C246.17906,85.1135418 242.987079,84.8281268 240.814485,86.3625099 C239.144885,87.5457003 238.894049,89.680934 240.254074,91.1329934 C241.286885,92.2324618 243.148339,92.3986322 244.416716,91.504589 L245.419101,92.5741816 C244.484086,93.2370205 243.284154,93.5494207 242.083862,93.4425047 C240.88357,93.3355887 239.781485,92.8181362 239.020591,92.0042344 C237.110834,89.9617655 237.465016,86.9608588 239.8121,85.2979389 C242.66479,83.282328 246.856587,83.6553161 249.180212,86.1315181 C252.007404,89.1579393 251.482758,93.6023137 248.007392,96.0666777 C246.233946,97.3207453 244.016444,98.0037106 241.730209,97.9999789 Z" id="Path" fill="#0093E2"></path>
                    <path d="M218.81446,96.9999987 C218.166311,97.0005982 217.535913,96.7970354 217.020259,96.4206307 C214.420166,94.5155016 207.659923,90.1415339 201.128379,90.6582676 C200.038143,90.7200536 199.001297,90.2002028 198.432408,89.3065691 C197.863518,88.4129354 197.855419,87.2913452 198.411348,86.3902482 C198.967277,85.4891513 199.996516,84.9555917 201.08754,85.0029049 L201.011307,86.4356664 C200.559744,86.4150207 200.123696,86.5961475 199.830631,86.9260982 C199.537567,87.256049 199.42058,87.6975636 199.51387,88.1215751 C199.648428,88.7985925 200.288409,89.2732369 201.005861,89.2281159 C208.057424,88.6748455 215.190665,93.2758628 217.929611,95.280163 C218.450885,95.6572848 219.169867,95.6572848 219.691141,95.280163 L219.922563,95.1131379 C220.287191,94.8538345 220.502271,94.4444073 220.502479,94.009207 C220.505053,93.5606984 220.287176,93.1372034 219.914395,92.8661295 L220.826469,91.7282716 C221.572117,92.2712461 222.006998,93.1194662 221.999915,94.0170363 C221.998632,94.9002837 221.562696,95.7311819 220.823747,96.2588252 L220.592325,96.4258502 C220.080436,96.7971528 219.45639,96.9986842 218.81446,96.9999987 Z" id="Path" fill="#445462"></path>
                    <path d="M185,106 C182.790861,106 181,104.209139 181,102 C181,99.790861 182.790861,98 185,98 C187.209139,98 189,99.790861 189,102 C188.996816,104.207819 187.207819,105.996816 185,106 Z M185,99.5895954 C184.025082,99.5895954 183.146161,100.176872 182.773077,101.077578 C182.399992,101.978285 182.606216,103.015043 183.295587,103.704413 C183.984957,104.393784 185.021715,104.600008 185.922422,104.226923 C186.823128,103.853839 187.410405,102.974918 187.410405,102 C187.408812,100.66943 186.33057,99.5911879 185,99.5895954 Z" id="Shape" fill="#445462" fill-rule="nonzero"></path>
                    <path d="M218.053826,87.9999208 C209.204285,88.025624 201.648524,81.7928387 200.233291,73.2996716 C198.818059,64.8065045 203.963308,56.5732041 212.368548,53.8811356 C220.773787,51.189067 229.94486,54.8370702 233.998854,62.4850828 C238.052847,70.1330954 235.786787,79.5116587 228.654268,84.6047628 C225.579548,86.7989432 221.867884,87.987732 218.053826,87.9999208 Z M217.982108,54.4935191 C209.212754,54.5091831 201.993283,61.201511 201.559511,69.7169903 C201.125739,78.2324697 207.629746,85.585585 216.354596,86.4435976 C225.079446,87.3016102 232.966219,81.363702 234.295148,72.9362536 C234.956299,68.7373197 233.87463,64.4550187 231.288118,61.0314987 C228.701607,57.6079787 224.822149,55.3237068 220.503264,54.681245 C219.668978,54.5567104 218.826169,54.4939546 217.982108,54.4935191 Z" id="Shape" fill="#445462" fill-rule="nonzero"></path>
                    <path d="M218.053826,87.9999208 C209.204285,88.025624 201.648524,81.7928387 200.233291,73.2996716 C198.818059,64.8065045 203.963308,56.5732041 212.368548,53.8811356 C220.773787,51.189067 229.94486,54.8370702 233.998854,62.4850828 C238.052847,70.1330954 235.786787,79.5116587 228.654268,84.6047628 C225.579548,86.7989432 221.867884,87.987732 218.053826,87.9999208 Z M217.982108,54.4935191 C209.212754,54.5091831 201.993283,61.201511 201.559511,69.7169903 C201.125739,78.2324697 207.629746,85.585585 216.354596,86.4435976 C225.079446,87.3016102 232.966219,81.363702 234.295148,72.9362536 C234.956299,68.7373197 233.87463,64.4550187 231.288118,61.0314987 C228.701607,57.6079787 224.822149,55.3237068 220.503264,54.681245 C219.668978,54.5567104 218.826169,54.4939546 217.982108,54.4935191 Z" id="Shape" fill="#445462" fill-rule="nonzero"></path>
                    <path d="M237.524666,83 L236.220725,82.2228024 C236.588149,81.6137221 236.927947,80.9825936 237.234594,80.343197 L238.615888,80.9963737 C238.278852,81.6660865 237.919716,82.3523354 237.524666,83 Z M239.491628,78.8990427 L238.06337,78.3781549 C238.309241,77.7139542 238.524722,77.0277053 238.707053,76.3414564 L240.176749,76.7300552 C239.983368,77.4631564 239.751311,78.1907456 239.491628,78.9100667 L239.491628,78.8990427 Z M240.657439,74.5087033 L239.160117,74.2551494 C239.179455,74.1421526 239.196031,74.0291558 239.215369,73.916159 C239.303772,73.3263708 239.372836,72.7283145 239.417038,72.1357703 L240.933698,72.2515231 C240.886734,72.8798956 240.812144,73.5165362 240.715454,74.1449087 C240.693353,74.2661735 240.674015,74.3846824 240.657439,74.5004352 L240.657439,74.5087033 Z M192.196144,73.6984335 C192.096691,72.9487961 192.030388,72.1881347 192,71.4329853 L193.51666,71.3723528 C193.547049,72.0806499 193.607825,72.794459 193.701753,73.497244 L192.196144,73.6984335 Z M239.480577,70.002611 C239.466764,69.294314 239.4198,68.5777488 239.342448,67.8749638 L240.85082,67.7068466 C240.936461,68.456484 240.986187,69.2199014 241,69.9778069 L239.480577,70.002611 Z M193.533236,69.2391936 L192.016576,69.156513 C192.055252,68.4041196 192.132604,67.6434582 192.243108,66.8938208 L193.745955,67.1143024 C193.643739,67.8198434 193.571912,68.5336525 193.533236,69.2391936 Z M239.005412,65.7693648 C238.858995,65.0776038 238.679427,64.3913549 238.472233,63.705106 L239.922591,63.2586308 C240.146361,63.980708 240.336979,64.7220773 240.491684,65.4634466 L239.005412,65.7693648 Z M194.154818,65.0197274 L192.676834,64.6642008 C192.856402,63.9255876 193.069121,63.1924863 193.314991,62.4814332 L194.751536,62.9720047 C194.522242,63.6389615 194.320573,64.3279664 194.154818,65.0197274 Z M237.748435,61.7125037 C237.472177,61.056571 237.171055,60.4089064 236.839544,59.7832899 L238.195975,59.0667248 C238.549586,59.7336816 238.875571,60.4281985 239.16288,61.1254715 L237.748435,61.7125037 Z M195.538874,60.9959386 L194.15758,60.3703221 C194.469752,59.6813172 194.817838,58.9923123 195.19355,58.3446476 L196.514067,59.094285 C196.157693,59.7033654 195.831708,60.3427619 195.538874,60.9959386 Z M235.75661,57.9340007 C235.369848,57.3414565 234.949935,56.7571803 234.507921,56.2004643 L235.698596,55.2606616 C236.168236,55.8532058 236.615775,56.4733103 237.030163,57.1071948 L235.75661,57.9340007 Z M197.655015,57.2918481 L196.409088,56.4209459 C196.842814,55.8035975 197.312454,55.2000291 197.790382,54.621265 L198.947906,55.605164 C198.500366,56.1398319 198.061115,56.7075719 197.655015,57.2863361 L197.655015,57.2918481 Z M233.104527,54.5909488 C232.612787,54.0783291 232.093421,53.5850016 231.557479,53.1192343 L232.55201,51.9754861 C233.123865,52.4715696 233.679145,52.9979694 234.209562,53.5464173 L233.104527,54.5909488 Z M200.420364,54.0397448 L199.359531,52.9538731 C199.912048,52.4274733 200.464566,51.9203657 201.064047,51.4435743 L202.019902,52.6203947 C201.467385,53.0668699 200.92868,53.5546854 200.420364,54.0397448 Z M229.880589,51.7908328 C229.303208,51.3774298 228.698201,50.988831 228.084907,50.6305485 L228.852906,49.3214391 C229.504877,49.7017698 230.14856,50.1179288 230.764616,50.558892 L229.880589,51.7908328 Z M203.743756,51.3498696 L202.898404,50.0876126 C203.528274,49.6686976 204.18577,49.2608067 204.851553,48.9163042 L205.575351,50.2502177 C204.948244,50.5947202 204.332187,50.9640268 203.743756,51.3498696 Z M226.189773,49.6328693 C225.548853,49.3352192 224.883069,49.0651293 224.211761,48.8253556 L224.720077,47.3977373 C225.435587,47.6512912 226.145571,47.9489413 226.830693,48.2576155 L226.189773,49.6328693 Z M207.500874,49.3214391 L206.904155,47.9268931 C207.600327,47.631999 208.3186,47.3756892 209.039635,47.1359155 L209.503749,48.5773138 C208.826915,48.8033074 208.152844,49.0541052 207.500874,49.3297072 L207.500874,49.3214391 Z M222.167447,48.2190312 C221.479562,48.045402 220.786153,47.8993329 220.070643,47.7890921 L220.308226,46.2925734 C221.056887,46.4110823 221.80831,46.5681754 222.540396,46.7473167 L222.167447,48.2190312 Z M211.567401,48.042646 L211.241416,46.5626634 C211.981789,46.4000582 212.738738,46.2732813 213.490162,46.1795766 L213.675255,47.6843634 C212.970796,47.767044 212.260811,47.8800408 211.567401,48.042646 Z M217.943452,47.5630985 C217.230704,47.5162462 216.512432,47.5052221 215.805209,47.5245142 L215.761008,46.0087034 C216.515194,45.9866552 217.283193,46.0087034 218.042905,46.0500437 L217.943452,47.5630985 Z" id="Shape" fill="#445462" fill-rule="nonzero"></path>
                    <path d="M203.042422,159.999987 C177.548638,160.016017 154.557958,144.79139 144.799722,121.431168 C135.041487,98.0709457 140.439374,71.1802203 158.474287,53.3084123 C177.690146,34.2596549 207.04648,29.5592953 231.329432,41.6432848 C239.799868,45.8898227 247.204439,51.9632064 253,59.4179375 L251.803263,60.3320469 C240.201404,45.2621409 222.159214,36.443846 203.042422,36.499714 C169.129373,36.499714 141.541147,63.8656937 141.541147,97.4994624 C141.541147,131.133231 169.129373,158.499211 203.042422,158.499211 C221.140099,158.510401 238.321726,150.605151 250.00128,136.893485 L251.15675,137.864896 C239.188996,151.912615 221.584905,160.011411 203.042422,159.999987 Z" id="Path" fill="#445462"></path>
                    <path d="M153.196437,351 C152.399255,346.675032 151.998785,342.286469 152.000003,337.888852 C152.000003,298.250738 184.293454,266.000054 223.991773,266.000054 C233.614421,265.988268 243.140543,267.915218 252,271.665576 L251.26637,273.401177 C242.636645,269.754475 233.358961,267.883429 223.988345,267.899972 C185.332192,267.899972 153.885502,299.301684 153.885502,337.902546 C153.884936,342.18631 154.273917,346.461277 155.047654,350.674789 L153.196437,351 Z" id="Path" fill="#0093E2"></path>
                    <path d="M150.024588,318 L147.671923,316.585885 L148.647334,314.973179 L151,316.387293 L150.024588,318 Z M145.319257,315.168347 L142.966591,313.754232 L143.945438,312.141526 L146.298103,313.55564 L145.319257,315.168347 Z M140.61736,312.336694 L138.264694,310.922579 L139.240106,309.309873 L141.592772,310.723987 L140.61736,312.336694 Z M135.912029,309.505041 L133.559363,308.090926 L134.534775,306.47822 L136.88744,307.892334 L135.912029,309.505041 Z M131.206697,306.673388 L128.854032,305.255849 L129.832878,303.646566 L132.185544,305.060681 L131.206697,306.673388 Z M126.504801,303.852007 L124.152135,302.434468 L125.127547,300.821761 L127.480212,302.2393 L126.504801,303.852007 Z M121.813207,301.010082 L119.460542,299.592543 L120.439388,297.979836 L122.788619,299.397375 L121.813207,301.010082 Z M117.107876,298.178429 L114.758645,296.76089 L115.734057,295.148183 L118.086722,296.565722 L117.107876,298.178429 Z M112.405979,295.346776 L110.053314,293.929237 L111.028725,292.31653 L113.381391,293.734069 L112.405979,295.346776 Z M107.700648,292.511699 L105.347982,291.097584 L106.326829,289.484877 L108.67606,290.902416 L107.700648,292.511699 Z M102.995317,289.680046 L100.646085,288.265931 L101.621497,286.653224 L103.974163,288.070763 L102.995317,289.680046 Z M98.2934197,286.848393 L95.940754,285.434278 L96.9161658,283.821571 L99.2688315,285.235686 L98.2934197,286.848393 Z M93.5880884,284.01674 L91.2354227,282.602625 L92.214269,280.989918 L94.5635001,282.404033 L93.5880884,284.01674 Z M88.8861916,281.185087 L86.5335259,279.770972 L87.5089376,278.158265 L89.8616033,279.57238 L88.8861916,281.185087 Z M84.1808602,278.353434 L81.8281945,276.935895 L82.8036063,275.326612 L85.156272,276.740727 L84.1808602,278.353434 Z" id="Shape" fill="#445462" fill-rule="nonzero"></path>
                    <path d="M109.961864,242 L107.188323,241.951429 L107.22646,240.38 L110,240.428571 L109.961864,242 Z M104.414783,241.902857 L101.641243,241.857143 L101.682846,240.285714 L104.456386,240.334286 L104.414783,241.902857 Z M98.8677021,241.808571 L96.0941617,241.76 L96.1357648,240.188571 L98.9093052,240.237143 L98.8677021,241.808571 Z M93.3206213,241.714286 L90.5470808,241.665714 L90.585217,240.094286 L93.3587575,240.142857 L93.3206213,241.714286 Z M87.7735404,241.617143 L85,241.568571 L85.0416031,240 L87.8151435,240.045714 L87.7735404,241.617143 Z" id="Shape" fill="#445462" fill-rule="nonzero"></path>
                    <path d="M96.2972179,205 L95,203.654252 L96.3455186,202.429622 L97.6427365,203.77537 L96.2972179,205 Z M99.6575644,201.93506 L98.3637965,200.589312 L100.378624,198.749002 L101.675842,200.09475 L99.6575644,201.93506 Z M103.69067,198.261169 L102.396902,196.915421 L104.41173,195.078476 L105.708948,196.424223 L103.69067,198.261169 Z M107.723776,194.583914 L106.430008,193.238166 L108.444836,191.397856 L109.742054,192.743604 L107.723776,194.583914 Z M111.756882,190.910023 L110.463114,189.564275 L112.477942,187.72733 L113.77516,189.073077 L111.756882,190.910023 Z M115.789988,187.236132 L114.49622,185.890384 L116.511047,184.050074 L117.808265,185.395822 L115.789988,187.236132 Z M119.823093,183.558876 L118.529325,182.213129 L120.544153,180.376183 L121.841371,181.721931 L119.823093,183.558876 Z M123.873449,179.884986 L122.579681,178.539238 L124.594509,176.702292 L125.891727,178.04804 L123.873449,179.884986 Z M127.906555,176.20773 L126.612787,174.861983 L128.627615,173.025037 L129.924833,174.370785 L127.906555,176.20773 Z M131.939661,172.533839 L130.645893,171.188092 L132.660721,169.351146 L133.957939,170.696894 L131.939661,172.533839 Z M135.948616,168.856584 L134.654848,167.510836 L136.669676,165.673891 L137.966894,167.019639 L135.948616,168.856584 Z M139.981722,165.182693 L138.687954,163.836945 L140.702782,162 L142,163.345748 L139.981722,165.182693 Z" id="Shape" fill="#445462" fill-rule="nonzero"></path>
                    <path d="M82,221 L23,221 L23,205 L82,205 L82,221 Z M25.1326236,219.206278 L79.8673764,219.206278 L79.8673764,206.793722 L25.1326236,206.793722 L25.1326236,219.206278 Z" id="Shape" fill="#0093E2" fill-rule="nonzero"></path>
                    <path d="M82,260 L23,260 L23,244 L82,244 L82,260 Z M25.1326236,258.204082 L79.8673764,258.204082 L79.8673764,245.795918 L25.1326236,245.795918 L25.1326236,258.204082 Z" id="Shape" fill="#0093E2" fill-rule="nonzero"></path>
                    <polygon id="Path" fill="#445462" points="82 240 23 240 23 224 69.8207808 224 69.8207808 225.794088 25.1326236 225.794088 25.1326236 238.205912 82 238.205912"></polygon>
                    <polygon id="Path" fill="#445462" points="48.68 281 23 281 23 265 69 265 69 266.794088 25.0952381 266.794088 25.0952381 279.205912 48.68 279.205912"></polygon>
                    <polygon id="Path" fill="#0093E2" points="82 302 23 302 23 286 62.876183 286 62.876183 287.794088 25.1326236 287.794088 25.1326236 300.205912 79.8673764 300.205912 79.8673764 293.998369 82 293.998369"></polygon>
                    <path d="M82,321 L23,321 L23,305 L82,305 L82,321 Z M25.1326236,319.204082 L79.8673764,319.204082 L79.8673764,306.795918 L25.1326236,306.795918 L25.1326236,319.204082 Z" id="Shape" fill="#445462" fill-rule="nonzero"></path>
                    <path d="M234,198 L220,198 L220,184 L234,184 L234,198 Z M221.977401,196.022091 L232.022599,196.022091 L232.022599,185.970717 L221.977401,185.970717 L221.977401,196.022091 Z" id="Shape" fill="#445462" fill-rule="nonzero"></path>
                    <path d="M234,217 L220,217 L220,203 L234,203 L234,217 Z M221.977401,215.025641 L232.022599,215.025641 L232.022599,204.974359 L221.977401,204.974359 L221.977401,215.025641 Z" id="Shape" fill="#445462" fill-rule="nonzero"></path>
                    <path d="M234,236 L220,236 L220,222 L234,222 L234,236 Z M221.977401,234.023107 L232.022599,234.023107 L232.022599,223.976893 L221.977401,223.976893 L221.977401,234.023107 Z" id="Shape" fill="#445462" fill-rule="nonzero"></path>
                    <path d="M218.69733,131 L218,129.702143 C233.159229,122.450036 230.229882,109.452926 230.199077,109.32314 L231.702957,109 C231.736564,109.145678 232.543114,112.620756 231.347291,117.089092 C230.243885,121.202504 227.152108,126.955454 218.69733,131 Z" id="Path" fill="#445462"></path>
                    <polygon id="Rectangle" fill="#445462" points="228.692713 105.345195 230.103727 104.784521 230.656804 106.15827 229.245791 106.718943"></polygon>
                </g>
            </g>
        </g>
    </g>
</svg>