<?xml version="1.0" ?><svg data-name="002" id="_002" viewBox="0 0 128 128" xmlns="http://www.w3.org/2000/svg"><defs><style>.cls-1{opacity:0.3;}.cls-2{fill:#97c1ff;}.cls-3{fill:#eef6ff;}.cls-4{fill:#5cbeff;}.cls-5{fill:#fff;}.cls-6{fill:#6d6daa;}.cls-7{fill:#ced8ee;}.cls-8{opacity:0.5;}.cls-9{fill:#7690a8;}.cls-10{fill:#d4edff;}.cls-11{fill:#939fc6;}.cls-12{fill:#ff9797;}.cls-13{fill:#fff27d;}.cls-14{fill:#b1f1a8;}.cls-15{fill:#48bc33;}</style></defs><title/><g class="cls-1"><path class="cls-2" d="M126.19,47.69a30,30,0,0,0-23.51-25,19.69,19.69,0,0,1-10.93-6.55A37,37,0,0,0,27.42,31.78,19.57,19.57,0,0,1,17,44.94,28,28,0,1,0,54.66,82.29,9.41,9.41,0,0,1,63.17,77H64a12.39,12.39,0,0,1,12,9.74,20,20,0,0,0,26.06,14.14A20,20,0,0,0,115.47,83,21.38,21.38,0,0,1,120,70.65,29.91,29.91,0,0,0,126.19,47.69Z"/><path class="cls-3" d="M44.74,23.49A11.29,11.29,0,0,0,23,18.3,6,6,0,0,0,13.19,23c0,.17,0,.34,0,.51A9,9,0,0,0,16.2,41H41.8a9,9,0,0,0,2.94-17.5Z"/><g class="cls-1"><path class="cls-4" d="M41.8,38H16.2a9,9,0,0,1-8.91-7.52A9,9,0,0,0,16.2,41H41.8a9,9,0,0,0,8.91-10.52A9,9,0,0,1,41.8,38Z"/></g><path class="cls-5" d="M13.21,26.51c0-.17,0-.34,0-.51A6,6,0,0,1,23,21.3a11.28,11.28,0,0,1,21.79,5.19,9,9,0,0,1,6,7,8.91,8.91,0,0,0-6-10A11.29,11.29,0,0,0,23,18.3,6,6,0,0,0,13.19,23c0,.17,0,.34,0,.51a8.9,8.9,0,0,0-5.92,10A9,9,0,0,1,13.21,26.51Z"/><path class="cls-6" d="M41.8,42H16.2a10,10,0,0,1-4-19.16,7,7,0,0,1,10.32-6,12.3,12.3,0,0,1,23.31,5.43q0,.29,0,.58A10,10,0,0,1,41.8,42ZM19.21,18a5,5,0,0,0-5,5c0,.14,0,.29,0,.43a1,1,0,0,1-.67,1A8,8,0,0,0,16.2,40H41.8a8,8,0,0,0,2.61-15.56,1,1,0,0,1-.67-1.06,10.18,10.18,0,0,0,.07-1.14,10.3,10.3,0,0,0-19.93-3.59,1,1,0,0,1-1.56.43A5,5,0,0,0,19.21,18Z"/><path class="cls-3" d="M41.8,23a9.06,9.06,0,0,1,3,.5"/><path class="cls-6" d="M44.77,24.49a1,1,0,0,1-.33-.05A8.08,8.08,0,0,0,41.8,24a1,1,0,0,1,0-2,10.06,10.06,0,0,1,3.29.55,1,1,0,0,1-.33,1.95Z"/><path class="cls-3" d="M13.21,23.5a9.06,9.06,0,0,1,3-.5"/><path class="cls-6" d="M13.21,24.5a1,1,0,0,1-.33-1.94A10.06,10.06,0,0,1,16.2,22a1,1,0,0,1,0,2,8,8,0,0,0-2.66.45A1,1,0,0,1,13.21,24.5Z"/><path class="cls-3" d="M22.91,18.26a6,6,0,0,1,1.64,2"/><path class="cls-6" d="M24.55,21.22a1,1,0,0,1-.89-.54,5.08,5.08,0,0,0-1.37-1.63,1,1,0,1,1,1.23-1.58,7.08,7.08,0,0,1,1.91,2.28,1,1,0,0,1-.88,1.46Z"/><path class="cls-3" d="M94.61,19.66a6,6,0,0,1,11.62-2.77,3.21,3.21,0,0,1,5.21,2.51c0,.09,0,.18,0,.27A4.79,4.79,0,0,1,109.84,29H96.18a4.8,4.8,0,0,1-1.57-9.34Z"/><path class="cls-5" d="M94.61,21.66a6,6,0,0,1,11.62-2.77,3.21,3.21,0,0,1,5.21,2.51c0,.09,0,.18,0,.27a4.81,4.81,0,0,1,3.11,3.54,4.76,4.76,0,0,0-3.11-5.54c0-.09,0-.18,0-.27a3.21,3.21,0,0,0-5.21-2.51,6,6,0,0,0-11.62,2.77,4.76,4.76,0,0,0-3.14,5.55A4.81,4.81,0,0,1,94.61,21.66Z"/><g class="cls-1"><path class="cls-4" d="M109.84,27H96.18a4.81,4.81,0,0,1-4.71-3.78,4.75,4.75,0,0,0-.11,1A4.81,4.81,0,0,0,96.18,29h13.66a4.81,4.81,0,0,0,4.82-4.8,4.75,4.75,0,0,0-.11-1A4.81,4.81,0,0,1,109.84,27Z"/></g><path class="cls-6" d="M109.84,30H96.18a5.79,5.79,0,0,1-2.61-11v0a7,7,0,0,1,13.1-3.5A4.22,4.22,0,0,1,112.42,19a5.79,5.79,0,0,1-2.59,11ZM100.6,14a5,5,0,0,0-5,5.55,1,1,0,0,1-.67,1.06A3.8,3.8,0,0,0,96.18,28h13.66a3.79,3.79,0,0,0,1.26-7.38,1,1,0,0,1-.67-1c0-.06,0-.12,0-.19a2.21,2.21,0,0,0-3.59-1.72,1,1,0,0,1-1.56-.43A5,5,0,0,0,100.6,14Z"/><path class="cls-3" d="M96.18,19.4a4.83,4.83,0,0,0-1.58.26"/><path class="cls-6" d="M94.6,20.66a1,1,0,0,1-.33-1.94,5.79,5.79,0,0,1,1.91-.32,1,1,0,0,1,0,2,3.81,3.81,0,0,0-1.25.21A1,1,0,0,1,94.6,20.66Z"/><path class="cls-3" d="M111.43,19.67a4.83,4.83,0,0,0-1.59-.27"/><path class="cls-6" d="M111.43,20.67a1,1,0,0,1-.33-.06,3.82,3.82,0,0,0-1.26-.21,1,1,0,0,1,0-2,5.83,5.83,0,0,1,1.92.32,1,1,0,0,1-.33,1.94Z"/><path class="cls-3" d="M106.26,16.87a3.22,3.22,0,0,0-.87,1"/><path class="cls-6" d="M105.38,18.91a1,1,0,0,1-.88-1.47,4.25,4.25,0,0,1,1.15-1.37,1,1,0,0,1,1.23,1.58,2.23,2.23,0,0,0-.6.72A1,1,0,0,1,105.38,18.91Z"/><path class="cls-3" d="M90.77,56a8,8,0,0,1,11.88-8.85,10.49,10.49,0,0,1,18.8,5.25A7.5,7.5,0,0,1,119,67H91a5.5,5.5,0,0,1-.23-11Z"/><path class="cls-5" d="M90.77,59a7.62,7.62,0,0,1-.2-3,5.47,5.47,0,0,0-4.84,7A5.48,5.48,0,0,1,90.77,59Z"/><path class="cls-5" d="M98.51,49a8,8,0,0,1,4.14,1.16,10.49,10.49,0,0,1,18.8,5.25,7.5,7.5,0,0,1,4.9,5.62,7.49,7.49,0,0,0-4.9-8.62,10.49,10.49,0,0,0-18.8-5.25A8,8,0,0,0,90.51,54a7.72,7.72,0,0,0,.15,1.45A8,8,0,0,1,98.51,49Z"/><path class="cls-4" d="M90.77,53c0-.18-.08-.38-.11-.57,0,.2-.07.39-.09.59Z"/><g class="cls-1"><path class="cls-4" d="M119,64H91a5.5,5.5,0,0,1-5.28-4,5.44,5.44,0,0,0-.22,1.46A5.5,5.5,0,0,0,91,67h28a7.43,7.43,0,0,0,7.34-9A7.5,7.5,0,0,1,119,64Z"/></g><path class="cls-6" d="M119,68H91a6.5,6.5,0,0,1-1.42-12.84A8.67,8.67,0,0,1,89.51,54,9,9,0,0,1,102.4,45.9a11.49,11.49,0,0,1,20,5.8A8.5,8.5,0,0,1,119,68ZM98.51,47a7,7,0,0,0-6.77,8.76A1,1,0,0,1,90.81,57,4.5,4.5,0,0,0,91,66h28a6.5,6.5,0,0,0,2.12-12.64,1,1,0,0,1-.67-.84,9.49,9.49,0,0,0-17-4.75,1,1,0,0,1-1.32.25A7,7,0,0,0,98.51,47Z"/><path class="cls-6" d="M121,57.75a1,1,0,0,1-1-1.31A9.51,9.51,0,0,0,111,44a1,1,0,0,1,0-2,11.51,11.51,0,0,1,10.94,15.06A1,1,0,0,1,121,57.75Z"/><path class="cls-6" d="M94.63,58.37a1,1,0,0,1-.66-.25A4.49,4.49,0,0,0,91,57a1,1,0,1,1,0-2,6.49,6.49,0,0,1,4.28,1.61,1,1,0,0,1-.66,1.75Z"/><path class="cls-6" d="M105,50.34a1,1,0,0,1-.81-.42A7,7,0,0,0,98.51,47a1,1,0,1,1,0-2,9,9,0,0,1,7.32,3.76,1,1,0,0,1-.81,1.58Z"/><path class="cls-5" d="M122,84a1,1,0,0,1-.39-.08.88.88,0,0,1-.32-.22A1,1,0,0,1,121,83a.93.93,0,0,1,.29-.71,1,1,0,0,1,1.41,0,.88.88,0,0,1,.22.32A1,1,0,0,1,123,83a1,1,0,0,1-.3.7.88.88,0,0,1-.32.22A1,1,0,0,1,122,84Z"/><path class="cls-5" d="M120,88h-6a1,1,0,0,1,0-2h6a1,1,0,1,1,0,2Z"/><path class="cls-5" d="M118,84h-7a1,1,0,0,1,0-2h7a1,1,0,1,1,0,2Z"/><path class="cls-5" d="M110,88h-2a1,1,0,1,1,0-2h2a1,1,0,1,1,0,2Z"/><path class="cls-5" d="M118,92h-8a1,1,0,0,1,0-2h8a1,1,0,0,1,0,2Z"/><path class="cls-5" d="M16,76a1,1,0,0,1-.93-1.38,1,1,0,0,1,1.31-.54.87.87,0,0,1,.32.22.88.88,0,0,1,.22.32A1,1,0,0,1,17,75a1,1,0,0,1-.08.39.87.87,0,0,1-.22.32A1,1,0,0,1,16,76Z"/><path class="cls-5" d="M17,72H15a1,1,0,0,1,0-2h2a1,1,0,0,1,0,2Z"/><path class="cls-5" d="M20,68H10a1,1,0,1,1,0-2H20a1,1,0,0,1,0,2Z"/><path class="cls-5" d="M11,72H7a1,1,0,0,1,0-2h4a1,1,0,0,1,0,2Z"/><path class="cls-5" d="M12,76H4a1,1,0,0,1,0-2h8a1,1,0,0,1,0,2Z"/><path class="cls-6" d="M69,118H59a1,1,0,0,1,0-2H69a1,1,0,0,1,0,2Z"/><path class="cls-6" d="M56,118H55a1,1,0,0,1,0-2h1a1,1,0,0,1,0,2Z"/><path class="cls-6" d="M106,126H27a1,1,0,0,1,0-2h79a1,1,0,1,1,0,2Z"/><path class="cls-6" d="M110,126h-1a1,1,0,0,1,0-2h1a1,1,0,1,1,0,2Z"/><path class="cls-6" d="M24,126H21a1,1,0,0,1,0-2h3a1,1,0,0,1,0,2Z"/></g><path class="cls-7" d="M64,117h0a1.59,1.59,0,0,1-1.59-1.5L60.6,83.68A1.59,1.59,0,0,1,62.18,82h3.64a1.59,1.59,0,0,1,1.59,1.68L65.59,115.5A1.59,1.59,0,0,1,64,117Z"/><g class="cls-8"><path class="cls-5" d="M62.18,82a1.59,1.59,0,0,0-1.59,1.68l1.82,31.82A1.59,1.59,0,0,0,64,117V82Z"/></g><g class="cls-1"><path class="cls-9" d="M65.82,82H62.18a1.59,1.59,0,0,0-1.59,1.68l1.33,23.27c.69,0,1.38.05,2.07.05s1.39,0,2.07-.05L67.4,83.68A1.59,1.59,0,0,0,65.82,82Z"/></g><path class="cls-6" d="M64,118a2.59,2.59,0,0,1-2.58-2.44L59.6,83.73A2.59,2.59,0,0,1,62.18,81h3.64a2.59,2.59,0,0,1,2.58,2.74l-1.82,31.82A2.59,2.59,0,0,1,64,118ZM62.18,83a.59.59,0,0,0-.59.62l1.82,31.82a.59.59,0,0,0,1.17,0l1.82-31.82a.59.59,0,0,0-.59-.62Z"/><path class="cls-10" d="M42.16,125h0a1.55,1.55,0,0,1-1.27-1.71l3.65-30.9A1.55,1.55,0,0,1,46.34,91l3.5.62a1.55,1.55,0,0,1,1.24,1.88l-7.14,30.28A1.55,1.55,0,0,1,42.16,125Z"/><path class="cls-5" d="M48,91.32,46.34,91a1.55,1.55,0,0,0-1.81,1.34l-3.65,30.9A1.55,1.55,0,0,0,42.16,125Z"/><g class="cls-1"><path class="cls-9" d="M49.84,91.64,46.34,91a1.55,1.55,0,0,0-1.81,1.34l-1.09,9.25a41.8,41.8,0,0,0,5.15,2.45l2.49-10.55A1.55,1.55,0,0,0,49.84,91.64Z"/></g><path class="cls-6" d="M42.43,126a2.54,2.54,0,0,1-.44,0h0a2.55,2.55,0,0,1-2.09-2.81l3.65-30.9a2.55,2.55,0,0,1,3-2.21l3.5.62a2.55,2.55,0,0,1,2,3.1L44.91,124A2.55,2.55,0,0,1,42.43,126Zm3.64-34a.55.55,0,0,0-.54.49l-3.65,30.9a.55.55,0,0,0,.45.61h0a.56.56,0,0,0,.63-.42l7.14-30.28a.55.55,0,0,0-.44-.67L46.17,92Z"/><path class="cls-10" d="M85.84,125h0a1.55,1.55,0,0,0,1.27-1.71l-3.65-30.9A1.55,1.55,0,0,0,81.66,91l-3.5.62a1.55,1.55,0,0,0-1.24,1.88l7.14,30.28A1.55,1.55,0,0,0,85.84,125Z"/><path class="cls-5" d="M87.11,123.27l-3.65-30.9A1.55,1.55,0,0,0,81.66,91l-1.73.3L85.84,125A1.55,1.55,0,0,0,87.11,123.27Z"/><g class="cls-1"><path class="cls-9" d="M83.46,92.37A1.55,1.55,0,0,0,81.66,91l-3.5.62a1.55,1.55,0,0,0-1.24,1.88l2.49,10.55a41.8,41.8,0,0,0,5.15-2.45Z"/></g><path class="cls-6" d="M85.57,126a2.55,2.55,0,0,1-2.48-2L75.95,93.75a2.55,2.55,0,0,1,2-3.1l3.5-.62a2.55,2.55,0,0,1,3,2.21l3.65,30.9A2.55,2.55,0,0,1,85.57,126ZM81.93,92h-.1l-3.5.62a.55.55,0,0,0-.44.67L85,123.58a.56.56,0,0,0,.63.42h0a.55.55,0,0,0,.45-.61l-3.65-30.9a.55.55,0,0,0-.54-.49Z"/><circle class="cls-3" cx="64" cy="61" r="42"/><circle class="cls-11" cx="64" cy="61" r="34"/><circle class="cls-2" cx="64" cy="61" r="25.5"/><circle class="cls-12" cx="64" cy="61" r="17"/><circle class="cls-13" cx="64" cy="61" r="8.5"/><g class="cls-1"><path class="cls-9" d="M95.74,88.49,68.22,81.06A1,1,0,0,0,67.7,83l26.53,7.16Q95,89.34,95.74,88.49Z"/></g><g class="cls-1"><path class="cls-9" d="M104.79,71l-40.57-11A1,1,0,1,0,63.7,62l40.57,11Q104.55,72,104.79,71Z"/></g><path class="cls-6" d="M64,70.5A9.5,9.5,0,1,1,73.5,61,9.51,9.51,0,0,1,64,70.5Zm0-17A7.5,7.5,0,1,0,71.5,61,7.51,7.51,0,0,0,64,53.5Z"/><path class="cls-6" d="M64,79A18,18,0,1,1,82,61,18,18,0,0,1,64,79Zm0-34A16,16,0,1,0,80,61,16,16,0,0,0,64,45Z"/><path class="cls-6" d="M64,87.5A26.5,26.5,0,1,1,90.5,61,26.53,26.53,0,0,1,64,87.5Zm0-51A24.5,24.5,0,1,0,88.5,61,24.53,24.53,0,0,0,64,36.5Z"/><path class="cls-6" d="M64,96A35,35,0,1,1,99,61,35,35,0,0,1,64,96Zm0-68A33,33,0,1,0,97,61,33,33,0,0,0,64,28Z"/><g class="cls-1"><path class="cls-9" d="M64,99A42,42,0,0,1,22.05,59c0,.66-.05,1.33-.05,2a42,42,0,1,0,84,0c0-.67,0-1.34-.05-2A42,42,0,0,1,64,99Z"/></g><path class="cls-5" d="M64,23a42,42,0,0,1,41.95,40c0-.66.05-1.33.05-2a42,42,0,0,0-84,0c0,.67,0,1.34.05,2A42,42,0,0,1,64,23Z"/><path class="cls-6" d="M64,104a43,43,0,1,1,43-43A43,43,0,0,1,64,104Zm0-84a41,41,0,1,0,41,41A41,41,0,0,0,64,20Z"/><path class="cls-14" d="M111.17,86.26l-5-4.76,5-4.76a4.64,4.64,0,0,1,3.18-1.24h12.11l-6.36,6,6.36,6H114.35A4.64,4.64,0,0,1,111.17,86.26Z"/><g class="cls-1"><path class="cls-15" d="M111.17,86.26l-5-4.76h14l6.36,6H114.35A4.64,4.64,0,0,1,111.17,86.26Z"/></g><path class="cls-6" d="M126.46,88.5H114.35A5.62,5.62,0,0,1,110.48,87h0l-5-4.76a1,1,0,0,1,0-1.46l5-4.76a5.61,5.61,0,0,1,3.87-1.51h12.11a1,1,0,0,1,.69,1.73l-5.59,5.27,5.59,5.27a1,1,0,0,1-.69,1.73Zm-14.6-3a3.67,3.67,0,0,0,2.5,1h9.59l-4.53-4.27a1,1,0,0,1,0-1.46l4.53-4.27h-9.59a3.67,3.67,0,0,0-2.5,1l-4.27,4Z"/><path class="cls-6" d="M68.5,84a2.5,2.5,0,0,1-1.77-4.27,2.56,2.56,0,0,1,3.54,0,2.5,2.5,0,0,1,0,3.54h0A2.48,2.48,0,0,1,68.5,84Zm0-3a.49.49,0,0,0-.35.15.5.5,0,0,0,.35.85.49.49,0,0,0,.35-.15h0A.5.5,0,0,0,68.5,81Z"/><path class="cls-6" d="M113.73,82.5H68.5a1,1,0,1,1,0-2h45.23a1,1,0,1,1,0,2Z"/><path class="cls-14" d="M108.87,36.59,102,35.46l1.53-6.76a4.64,4.64,0,0,1,1.95-2.81l10-6.76-1.93,8.53,8.63,1.43-10,6.76A4.64,4.64,0,0,1,108.87,36.59Z"/><g class="cls-1"><path class="cls-15" d="M108.87,36.59,102,35.46l11.59-7.8,8.63,1.43-10,6.76A4.64,4.64,0,0,1,108.87,36.59Z"/></g><path class="cls-6" d="M109.6,37.65a5.48,5.48,0,0,1-.9-.07l-6.84-1.13a1,1,0,0,1-.81-1.21l1.53-6.76a5.61,5.61,0,0,1,2.36-3.42l10-6.76a1,1,0,0,1,1.53,1.05l-1.7,7.5,7.58,1.25a1,1,0,0,1,.4,1.82l-10,6.76A5.65,5.65,0,0,1,109.6,37.65Zm-6.37-3,5.8,1h0a3.66,3.66,0,0,0,2.61-.59l8-5.35-6.14-1a1,1,0,0,1-.81-1.21L114,21.37l-8,5.35a3.67,3.67,0,0,0-1.53,2.2Z"/><path class="cls-6" d="M64,63.55a2.54,2.54,0,0,1-.48,0,2.5,2.5,0,1,1,2.93-2h0A2.5,2.5,0,0,1,64,63.55Zm0-3a.5.5,0,1,0,.1,0Zm1.47.79h0Z"/><path class="cls-6" d="M64,62.05a1,1,0,0,1-.56-1.83l44.37-29.84A1,1,0,0,1,108.89,32L64.52,61.88A1,1,0,0,1,64,62.05Z"/></svg>