<?xml version="1.0" encoding="UTF-8"?>
<svg width="35px" height="35px" viewBox="0 0 35 35" version="1.1" xmlns="http://www.w3.org/2000/svg" xmlns:xlink="http://www.w3.org/1999/xlink">
    <!-- Generator: Sketch 52.4 (67378) - http://www.bohemiancoding.com/sketch -->
    <title>check-circle</title>
    <desc>Created with Sketch.</desc>
    <g id="Page-1" stroke="none" stroke-width="1" fill="none" fill-rule="evenodd">
        <g id="web-reg2" transform="translate(-713.000000, -454.000000)" fill="#4E69A2">
            <g id="points" transform="translate(269.000000, 399.000000)">
                <path d="M479,72.5 C479,75.6518821 478.212029,78.5685484 476.636089,81.25 C475.060148,83.9314516 472.931452,86.0601482 470.25,87.6360887 C467.568548,89.2120292 464.651882,90 461.5,90 C458.348118,90 455.431452,89.2120292 452.75,87.6360887 C450.068548,86.0601482 447.939852,83.9314516 446.363911,81.25 C444.787971,78.5685484 444,75.6518821 444,72.5 C444,69.3481179 444.787971,66.4314516 446.363911,63.75 C447.939852,61.0685484 450.068548,58.9398518 452.75,57.3639113 C455.431452,55.7879708 458.348118,55 461.5,55 C464.651882,55 467.568548,55.7879708 470.25,57.3639113 C472.931452,58.9398518 475.060148,61.0685484 476.636089,63.75 C478.212029,66.4314516 479,69.3481179 479,72.5 Z M459.453629,81.7439516 L472.4375,68.7600806 C472.672715,68.5719082 472.790323,68.3131724 472.790323,67.983871 C472.790323,67.6545695 472.672715,67.3958337 472.4375,67.2076613 L470.885081,65.5846774 C470.649866,65.3494627 470.379368,65.2318548 470.073589,65.2318548 C469.767809,65.2318548 469.497311,65.3494627 469.262097,65.5846774 L458.677419,76.1693548 L453.737903,71.2298387 C453.502689,70.994624 453.232191,70.8770161 452.926411,70.8770161 C452.620632,70.8770161 452.350134,70.994624 452.114919,71.2298387 L450.5625,72.8528226 C450.327285,73.040995 450.209677,73.2997308 450.209677,73.6290323 C450.209677,73.9583337 450.327285,74.2170695 450.5625,74.4052419 L457.90121,81.7439516 C458.089382,81.9791663 458.348118,82.0967742 458.677419,82.0967742 C459.006721,82.0967742 459.265457,81.9791663 459.453629,81.7439516 Z" id="check-circle"></path>
            </g>
        </g>
    </g>
</svg>