<?xml version="1.0" encoding="UTF-8"?>
<svg width="119px" height="175px" viewBox="0 0 119 175" version="1.1" xmlns="http://www.w3.org/2000/svg" xmlns:xlink="http://www.w3.org/1999/xlink">
    <!-- Generator: Sketch 53 (72520) - https://sketchapp.com -->
    <title>2</title>
    <desc>Created with Sketch.</desc>
    <g id="Page-1" stroke="none" stroke-width="1" fill="none" fill-rule="evenodd" opacity="0.06">
        <g id="bundle-copy-3" transform="translate(-761.000000, -319.000000)" fill="#FFFFFF" fill-rule="nonzero">
            <path d="M761.027588,494 C761.3466,481.558532 764.018285,470.193899 769.042725,459.905762 C773.907658,448.341576 785.391918,436.099674 803.49585,423.179688 C819.207191,411.934514 829.375547,403.879582 834.001221,399.014648 C841.099238,391.438113 844.648193,383.143925 844.648193,374.131836 C844.648193,366.79456 842.614522,360.693546 838.547119,355.828613 C834.479716,350.96368 828.657834,348.53125 821.081299,348.53125 C810.713408,348.53125 803.655374,352.399213 799.906982,360.135254 C797.753651,364.601422 796.477622,371.699333 796.078857,381.429199 L762.94165,381.429199 C763.499921,366.674894 766.171607,354.751999 770.956787,345.660156 C780.048629,328.353755 796.19837,319.700684 819.406494,319.700684 C837.749685,319.700684 852.344265,324.784861 863.190674,334.953369 C874.037082,345.121877 879.460205,358.579994 879.460205,375.328125 C879.460205,388.168358 875.632118,399.572867 867.97583,409.541992 C862.951391,416.161491 854.697079,423.538534 843.212646,431.67334 L829.574951,441.363281 C821.04138,447.424509 815.19956,451.810859 812.049316,454.522461 C808.899073,457.234063 806.247325,460.384259 804.093994,463.973145 L879.819092,463.973145 L879.819092,494 L761.027588,494 Z" id="2"></path>
        </g>
    </g>
</svg>