<?xml version="1.0" encoding="UTF-8"?>
<svg width="121px" height="180px" viewBox="0 0 121 180" version="1.1" xmlns="http://www.w3.org/2000/svg" xmlns:xlink="http://www.w3.org/1999/xlink">
    <!-- Generator: Sketch 53 (72520) - https://sketchapp.com -->
    <title>3</title>
    <desc>Created with Sketch.</desc>
    <g id="Page-1" stroke="none" stroke-width="1" fill="none" fill-rule="evenodd" opacity="0.0628952753">
        <g id="bundle-copy-3" transform="translate(-1153.000000, -320.000000)" fill="#FFFFFF" fill-rule="nonzero">
            <path d="M1187.32739,441.765137 C1187.32739,448.703648 1188.44392,454.445778 1190.677,458.991699 C1194.82416,467.365765 1202.3607,471.552734 1213.28687,471.552734 C1219.98612,471.552734 1225.82794,469.25987 1230.8125,464.674072 C1235.79706,460.088275 1238.28931,453.488813 1238.28931,444.875488 C1238.28931,433.470809 1233.6637,425.854511 1224.41235,422.026367 C1219.14866,419.873036 1210.85447,418.796387 1199.52954,418.796387 L1199.52954,394.39209 C1210.61521,394.232584 1218.35113,393.155934 1222.73755,391.162109 C1230.31408,387.812483 1234.10229,381.03358 1234.10229,370.825195 C1234.10229,364.205696 1232.16831,358.822449 1228.30029,354.675293 C1224.43227,350.528137 1218.98921,348.45459 1211.97095,348.45459 C1203.91589,348.45459 1197.99432,351.006648 1194.20605,356.11084 C1190.41779,361.215032 1188.60343,368.033811 1188.76294,376.567383 L1156.94165,376.567383 C1157.26066,367.954058 1158.73607,359.779498 1161.36792,352.043457 C1164.15928,345.264452 1168.54562,339.003935 1174.5271,333.261719 C1178.99327,329.194316 1184.29676,326.083995 1190.43774,323.930664 C1196.57873,321.777333 1204.11527,320.700684 1213.04761,320.700684 C1229.63623,320.700684 1243.0146,324.987343 1253.18311,333.560791 C1263.35161,342.134239 1268.43579,353.638437 1268.43579,368.07373 C1268.43579,378.282115 1265.40522,386.89531 1259.34399,393.913574 C1255.51585,398.299989 1251.52826,401.290682 1247.3811,402.885742 C1250.49147,402.885742 1254.95757,405.557428 1260.77954,410.900879 C1269.47262,418.955932 1273.81909,429.961682 1273.81909,443.918457 C1273.81909,458.59301 1268.73491,471.492864 1258.56641,482.618408 C1248.3979,493.743952 1233.34474,499.306641 1213.40649,499.306641 C1188.84257,499.306641 1171.77568,491.291584 1162.20532,475.26123 C1157.18088,466.727659 1154.38957,455.562406 1153.8313,441.765137 L1187.32739,441.765137 Z" id="3"></path>
        </g>
    </g>
</svg>