<?xml version="1.0" encoding="UTF-8"?>
<svg width="95px" height="89px" viewBox="0 0 95 89" version="1.1" xmlns="http://www.w3.org/2000/svg" xmlns:xlink="http://www.w3.org/1999/xlink">
    <!-- Generator: Sketch 53 (72520) - https://sketchapp.com -->
    <title>ads</title>
    <desc>Created with Sketch.</desc>
    <g id="Page-1" stroke="none" stroke-width="1" fill="none" fill-rule="evenodd">
        <g id="bundle-copy" transform="translate(-206.000000, -3199.000000)" fill-rule="nonzero">
            <g id="ads" transform="translate(206.000000, 3199.000000)">
                <path d="M95,5.20038609 L95,82.9097367 C95,85.730629 92.7132797,88.0173493 89.8902131,88.0173493 L5.10978689,88.0173493 C2.28672032,88.0173493 -9.09494702e-13,85.730629 -9.09494702e-13,82.9097367 L-9.09494702e-13,5.20038609 C-9.09494702e-13,2.37949376 2.28672032,0.0927734375 5.10978689,0.0927734375 L89.8902131,0.0927734375 C92.7132797,0.0927734375 95,2.37949376 95,5.20038609 Z" id="Path" fill="#4172CC"></path>
                <path d="M95,12.3062516 L95,82.9097367 C95,85.730629 92.7132797,88.0173493 89.8902131,88.0173493 L5.10978689,88.0173493 C2.28672032,88.0173493 -9.09494702e-13,85.730629 -9.09494702e-13,82.9097367 L-9.09494702e-13,12.3062516 L95,12.3062516 Z" id="Path" fill="#A2ABB8"></path>
                <path d="M95,12.3062516 L95,82.9097367 C95,85.730629 92.7132797,88.0173493 89.8902131,88.0173493 L11.1647034,88.0173493 C8.34163661,88.0173493 6.05491629,85.730629 6.05491629,82.9097367 L6.05491629,12.3062516 L95,12.3062516 Z" id="Path" fill="#C8D2DC"></path>
                <path d="M76.401825,5.15762329 L7.89371495,5.15762329 C7.09716797,5.15762329 6.45210275,5.80268869 6.45210275,6.59851074 C6.45210275,7.39433279 7.09716797,8.03939819 7.89371495,8.03939819 L76.4025497,8.03939819 C77.1983719,8.03939819 77.8434371,7.39433279 77.8434371,6.59851074 C77.8434371,5.80268869 77.1983719,5.15762329 76.401825,5.15762329 L76.401825,5.15762329 Z" id="Path" fill="#BACBEC"></path>
                <path d="M90.8005525,7.4798584 L89.7568513,6.55502319 L90.8005525,5.63018799 C91.3963318,5.10253906 91.451416,4.19219971 90.9237671,3.59569545 C90.3961182,2.99991612 89.4850541,2.94483189 88.8899993,3.47248082 L87.5831986,4.62997437 L86.2763977,3.47248082 C85.6806184,2.94483189 84.770279,2.99991612 84.2426301,3.59569545 C83.7149812,4.19219971 83.7700652,5.10253906 84.3658447,5.63018799 L85.4095459,6.55502319 L84.3658447,7.4798584 C83.3707047,8.36048131 84.0048982,9.99996181 85.3218461,9.99996181 C86.0096741,9.99996181 86.212616,9.69409947 87.5831986,8.48007202 L88.8899993,9.63756557 C89.4857788,10.1652145 90.3968429,10.1094055 90.9244918,9.51362619 C91.451416,8.91857143 91.3963318,8.00750732 90.8005525,7.4798584 L90.8005525,7.4798584 Z" id="Path" fill="#BACBEC"></path>
                <path d="M5.10978689,0.0927734375 C2.28672032,0.0927734375 -9.09494702e-13,2.37949376 -9.09494702e-13,5.20038609 L-9.09494702e-13,12.3062516 L6.05491629,12.3062516 L6.05491629,0.0927734375 L5.10978689,0.0927734375 Z" id="Path" fill="#2E5AAC"></path>
                <path d="M84.9833679,57.3144149 L10.0166321,57.3144149 C8.24089041,57.3144149 6.80145264,55.8749772 6.80145264,54.0992355 L6.80145264,23.8906096 C6.80145264,22.1148682 8.24089041,20.6754304 10.0166321,20.6754304 L84.9833679,20.6754304 C86.7591096,20.6754304 88.1985474,22.1148682 88.1985474,23.8906096 L88.1985474,54.0992355 C88.1985474,55.8749772 86.7591096,57.3144149 84.9833679,57.3144149 Z" id="Path" fill="#6990D7"></path>
                <g id="Group" transform="translate(17.812500, 24.677734)">
                    <path d="M11.6249466,1.25968924 C11.1719514,-0.175399687 8.16768642,-0.206565811 7.72773752,1.25968924 C7.70236974,1.34304042 0.00869750976,26.3918685 0.00869750976,26.4788436 C0.00869750976,27.6798249 2.67158518,28.4104157 3.08109288,27.0782471 L4.72999582,21.4944458 L14.5857239,21.4944458 L16.2346268,27.0782471 C16.6535568,28.4408569 19.3077469,27.6312638 19.3077469,26.4411544 C19.3077469,26.3665008 19.2700577,26.2911223 19.2700577,26.1787796 L11.6249466,1.25968924 Z M5.44246669,18.909111 L9.67670445,4.8198699 L13.8362884,18.909111 L5.44246669,18.909111 Z" id="Shape" fill="#274C91"></path>
                    <path d="M30.6985856,0.397911025 L24.0660095,0.397911025 C23.2042313,0.397911025 22.6425171,0.922660781 22.6425171,1.484375 L22.6425171,26.7035294 C22.6425171,27.2652434 23.2042313,27.7899934 24.0660095,27.7899934 L30.6985856,27.7899934 C35.2328873,27.7899934 38.793068,25.5793762 38.793068,19.6208573 L38.793068,8.56632237 C38.793068,2.60852818 35.2328873,0.397911025 30.6985856,0.397911025 Z M35.6452942,19.621582 C35.6452942,23.2564164 33.7717057,24.9422836 30.6985856,24.9422836 L25.7902909,24.9422836 L25.7902909,3.24562082 L30.6985856,3.24562082 C33.7717057,3.24562082 35.6452942,4.93221278 35.6452942,8.56704712 L35.6452942,19.621582 Z" id="Shape" fill="#274C91"></path>
                    <path d="M46.2504578,6.99279785 C46.2504578,4.10812378 48.5734176,3.09631348 51.3464737,3.09631348 C54.6065902,3.09631348 55.6930542,4.51980591 56.5548324,4.51980591 C57.4166106,4.51980591 57.9043961,3.39565272 57.9043961,2.7962493 C57.9043961,1.10965733 54.0071868,0.323257539 51.3464737,0.323257539 C47.636261,0.323257539 43.102684,1.78443918 43.102684,7.29286203 C43.102684,16.3984298 55.4306794,12.9882813 55.4306794,20.5210495 C55.4306794,23.631134 53.3700943,25.1676941 50.2223206,25.1676941 C45.8003617,25.1676941 44.9385833,22.1322632 43.8144303,22.1322632 C43.102684,22.1322632 42.4279021,23.1063843 42.4279021,23.8558196 C42.4279021,28.329239 58.578453,31.8843461 58.578453,20.2209855 C58.578453,10.0282288 46.2504578,13.3260345 46.2504578,6.99279785 L46.2504578,6.99279785 Z" id="Path" fill="#274C91"></path>
                    <path d="M50.8572388,30.9500886 L45.5553817,51.7356873 C44.9320602,54.1804122 47.9312516,55.8865738 49.7142411,54.1021347 L56.0880661,47.7217864 C56.7295075,47.0803451 57.6702881,46.839714 58.5407638,47.094841 L67.195511,49.6294402 C69.6170426,50.3390121 71.428299,47.4014282 69.7069169,45.5568314 L55.0748063,29.8708725 C53.7368392,28.437233 51.3421249,29.0496826 50.8572388,30.9500886 L50.8572388,30.9500886 Z" id="Path" fill="#5BD1DD"></path>
                </g>
            </g>
        </g>
    </g>
</svg>