<?xml version="1.0" encoding="UTF-8"?>
<svg width="68px" height="42px" viewBox="0 0 68 42" version="1.1" xmlns="http://www.w3.org/2000/svg" xmlns:xlink="http://www.w3.org/1999/xlink">
    <!-- Generator: Sketch 53 (72520) - https://sketchapp.com -->
    <title>Combined Shape Copy</title>
    <desc>Created with Sketch.</desc>
    <g id="Page-1" stroke="none" stroke-width="1" fill="none" fill-rule="evenodd">
        <g id="web-reg" transform="translate(-934.000000, -630.000000)" fill="#207505">
            <path d="M964.5,639.50107 L964.5,631 C964.5,630.447715 964.947715,630 965.5,630 C965.674023,630 965.845033,630.045413 965.996128,630.13175 L1000.99889,650.132734 C1001.47841,650.406738 1001.64502,651.017591 1001.37101,651.497112 C1001.28242,651.652152 1001.15393,651.780642 1000.99889,651.869233 L965.996128,671.870217 C965.516607,672.144221 964.905754,671.977616 964.63175,671.498096 C964.545413,671.347 964.5,671.17599 964.5,671.001968 L964.5,663.50107 L935,663.50107 C934.447715,663.50107 934,663.053355 934,662.50107 L934,640.50107 C934,639.948785 934.447715,639.50107 935,639.50107 L964.5,639.50107 Z" id="Combined-Shape-Copy" transform="translate(967.751468, 651.001069) scale(-1, 1) translate(-967.751468, -651.001069) "></path>
        </g>
    </g>
</svg>