<?xml version="1.0" encoding="UTF-8"?>
<svg width="68px" height="42px" viewBox="0 0 68 42" version="1.1" xmlns="http://www.w3.org/2000/svg" xmlns:xlink="http://www.w3.org/1999/xlink">
    <!-- Generator: Sketch 53 (72520) - https://sketchapp.com -->
    <title>Combined Shape</title>
    <desc>Created with Sketch.</desc>
    <g id="Page-1" stroke="none" stroke-width="1" fill="none" fill-rule="evenodd">
        <g id="web-reg" transform="translate(-438.000000, -630.000000)" fill="#207505">
            <path d="M468.5,639.50107 L468.5,631 C468.5,630.447715 468.947715,630 469.5,630 C469.674023,630 469.845033,630.045413 469.996128,630.13175 L504.998893,650.132734 C505.478414,650.406738 505.645018,651.017591 505.371014,651.497112 C505.282423,651.652152 505.153933,651.780642 504.998893,651.869233 L469.996128,671.870217 C469.516607,672.144221 468.905754,671.977616 468.63175,671.498096 C468.545413,671.347 468.5,671.17599 468.5,671.001968 L468.5,663.50107 L439,663.50107 C438.447715,663.50107 438,663.053355 438,662.50107 L438,640.50107 C438,639.948785 438.447715,639.50107 439,639.50107 L468.5,639.50107 Z" id="Combined-Shape"></path>
        </g>
    </g>
</svg>