<?xml version="1.0" encoding="UTF-8"?>
<svg width="95px" height="95px" viewBox="0 0 95 95" version="1.1" xmlns="http://www.w3.org/2000/svg" xmlns:xlink="http://www.w3.org/1999/xlink">
    <!-- Generator: Sketch 53 (72520) - https://sketchapp.com -->
    <title>chess</title>
    <desc>Created with Sketch.</desc>
    <g id="Page-1" stroke="none" stroke-width="1" fill="none" fill-rule="evenodd">
        <g id="bundle-copy" transform="translate(-202.000000, -2718.000000)" fill-rule="nonzero">
            <g id="chess" transform="translate(202.000000, 2718.000000)">
                <polygon id="Path" fill="#537983" points="55.8496094 5.56640625 55.8496094 11.1328125 50.2832031 11.1328125 50.2832031 19.4824219 44.7167969 19.4824219 44.7167969 11.1328125 38.9648437 11.1328125 38.9648437 5.56640625 44.7167969 5.56640625 44.7167969 1.13686838e-13 50.2832031 1.13686838e-13 50.2832031 5.56640625"></polygon>
                <polygon id="Path" fill="#3E5959" points="50.2832031 19.4824219 47.5 19.4824219 47.5 1.13686838e-13 50.2832031 1.13686838e-13 50.2832031 5.56640625 55.8496094 5.56640625 55.8496094 11.1328125 50.2832031 11.1328125"></polygon>
                <path d="M61.5979386,30.8007813 L61.5979386,30.8029557 L33.4020614,30.8029557 C33.4020614,23.1042099 39.8019791,16.7050171 47.5,16.7050171 C55.1980209,16.7050171 61.5957642,23.1027604 61.5979386,30.8007813 L61.5979386,30.8007813 Z" id="Path" fill="#3E5959"></path>
                <path d="M61.5979386,30.8007813 L47.5,30.8007813 L47.5,16.7050171 C55.1980209,16.7050171 61.5957642,23.1027604 61.5979386,30.8007813 L61.5979386,30.8007813 Z" id="Path" fill="#293939"></path>
                <polygon id="Path" fill="#537983" points="67.1679687 89.2480469 27.8320312 89.2480469 33.3984375 50.2832031 47.5 44.7167969 61.6015625 50.2832031"></polygon>
                <polygon id="Path" fill="#3E5959" points="61.6015625 50.2832031 67.1679687 89.2480469 47.5 89.2480469 47.5 44.7167969"></polygon>
                <polygon id="Path" fill="#3E5959" points="61.6015625 39.1503906 61.6015625 50.2832031 33.3984375 50.2832031 33.3984375 39.1503906 47.5 33.5839844"></polygon>
                <polygon id="Path" fill="#293939" points="61.6015625 50.2832031 47.5 50.2832031 47.5 33.5839844 61.6015625 39.1503906"></polygon>
                <polygon id="Path" fill="#25D9F8" points="94.1650391 27.1826172 47.5 73.439598 25.3271484 56.7403793 3.89648437 77.7441406 -9.09494702e-13 73.8476563 24.7705078 49.3924332 47.5 66.091652 90.2685547 23.2861328"></polygon>
                <polygon id="Path" fill="#3E5959" points="22.265625 83.6816406 72.734375 83.6816406 72.734375 95 22.265625 95"></polygon>
                <polygon id="Path" fill="#293939" points="47.5 83.6816406 72.734375 83.6816406 72.734375 95 47.5 95"></polygon>
                <polygon id="Path" fill="#537983" points="67.1679687 28.0175781 61.6015625 39.1503906 33.3984375 39.1503906 27.8320312 28.0175781"></polygon>
                <polygon id="Path" fill="#3E5959" points="61.6015625 39.1503906 47.5 39.1503906 47.5 28.0175781 67.1679687 28.0175781"></polygon>
                <g id="Group" transform="translate(47.500000, 22.451172)" fill="#00C0F1">
                    <polygon id="Path" points="46.6650391 4.73144531 -9.09494702e-13 50.9884262 -9.09494702e-13 43.6404801 42.7685547 0.834960938"></polygon>
                    <polygon id="Path" points="47.5 22.265625 41.9335937 22.265625 41.9335937 5.56640625 25.234375 5.56640625 25.234375 1.13686838e-13 47.5 1.13686838e-13"></polygon>
                </g>
            </g>
        </g>
    </g>
</svg>