<?xml version="1.0" encoding="UTF-8"?>
<svg width="95px" height="95px" viewBox="0 0 95 95" version="1.1" xmlns="http://www.w3.org/2000/svg" xmlns:xlink="http://www.w3.org/1999/xlink">
    <!-- Generator: Sketch 53 (72520) - https://sketchapp.com -->
    <title>full-screen</title>
    <desc>Created with Sketch.</desc>
    <g id="Page-1" stroke="none" stroke-width="1" fill="none" fill-rule="evenodd">
        <g id="bundle-copy" transform="translate(-206.000000, -3680.000000)" fill-rule="nonzero">
            <g id="full-screen" transform="translate(206.000000, 3680.000000)">
                <path d="M94.8368976,83.8241466 C94.8368976,84.9204618 93.9399297,85.8174297 92.8436145,85.8174297 L11.1724197,85.8174297 C10.0761044,85.8174297 9.17913655,84.9204618 9.17913655,83.8241466 L9.17913655,2.15295181 C9.17913655,1.05663655 10.0761044,0.159668675 11.1724197,0.159668675 L92.8436145,0.159668675 C93.9399297,0.159668675 94.8368976,1.05663655 94.8368976,2.15295181 L94.8368976,83.8241466 Z" id="Path" fill="#54DEE2"></path>
                <path d="M14.3615964,83.8241466 L14.3615964,2.15295181 C14.3615964,1.05663655 15.2585643,0.159668675 16.3548795,0.159668675 L11.1724197,0.159668675 C10.0761044,0.159668675 9.17913655,1.05663655 9.17913655,2.15295181 L9.17913655,83.8241466 C9.17913655,84.9204618 10.0761044,85.8174297 11.1724197,85.8174297 L16.3548795,85.8174297 C15.2585643,85.8174297 14.3615964,84.9204618 14.3615964,83.8241466 Z" id="Path" fill="#000000" opacity="0.1"></path>
                <path d="M40.7658735,92.8470482 C40.7658735,93.9433635 39.8689056,94.8403313 38.7725904,94.8403313 L2.15619478,94.8403313 C1.05987952,94.8403313 0.162911647,93.9433635 0.162911647,92.8470482 L0.162911647,56.2308434 C0.162911647,55.1345281 1.05987952,54.2375602 2.15619478,54.2375602 L38.7725904,54.2375602 C39.8689056,54.2375602 40.7658735,55.1345281 40.7658735,56.2308434 L40.7658735,92.8470482 Z" id="Path" fill="#54DEE2"></path>
                <path d="M38.7725904,54.2375602 L9.17913655,54.2375602 L9.17913655,83.8243373 C9.17913655,84.9206526 10.0761044,85.8176205 11.1724197,85.8176205 L40.7658735,85.8176205 L40.7658735,56.2308434 C40.7658735,55.1345281 39.8689056,54.2375602 38.7725904,54.2375602 Z" id="Path" fill="#00ADE4"></path>
                <path d="M5.98976908,92.8470482 L5.98976908,56.2308434 C5.98976908,55.1345281 6.88673695,54.2375602 7.98305221,54.2375602 L2.15619478,54.2375602 C1.05987952,54.2375602 0.162911647,55.1345281 0.162911647,56.2308434 L0.162911647,92.847239 C0.162911647,93.9435542 1.05987952,94.8405221 2.15619478,94.8405221 L7.98305221,94.8405221 C6.88692771,94.8403313 5.98976908,93.9433635 5.98976908,92.8470482 Z" id="Path" fill="#000000" opacity="0.1"></path>
                <path d="M78.7971586,17.6276506 C78.7969679,16.8459036 78.1573394,16.2066566 77.3755924,16.2060843 L72.7669478,16.2060843 L54.4674297,34.5054116 C53.9145984,35.0578614 53.9145984,35.9626506 54.4674297,36.5154819 L58.4879518,40.536004 C59.0404016,41.0886446 59.945,41.0886446 60.4980221,40.536004 L78.7973494,22.2366767 L78.7971586,17.6276506 L78.7971586,17.6276506 Z" id="Path" fill="#F16A5D"></path>
                <path d="M85.9034639,7.67859438 C86.6852108,7.67859438 87.3246486,8.31803213 87.3246486,9.09977912 L87.3246486,31.1163153 C87.3250301,31.898253 86.6852108,32.5375 85.9034639,32.5375 L80.2183434,32.5375 C79.4362149,32.5375 78.7969679,31.898253 78.7969679,31.1163153 L78.7969679,17.6276506 C78.7967771,16.8459036 78.1571486,16.2066566 77.3754016,16.2060843 L63.8867369,16.2060843 C63.1047992,16.2060843 62.4655522,15.5668373 62.4655522,14.7848996 L62.4655522,9.09977912 C62.4655522,8.31803213 63.1047992,7.67821285 63.8867369,7.67859438 L85.9034639,7.67859438 Z" id="Path" fill="#EA3939"></path>
            </g>
        </g>
    </g>
</svg>