<?xml version="1.0" encoding="UTF-8"?>
<svg width="64px" height="58px" viewBox="0 0 64 58" version="1.1" xmlns="http://www.w3.org/2000/svg" xmlns:xlink="http://www.w3.org/1999/xlink">
    <!-- Generator: Sketch 53 (72520) - https://sketchapp.com -->
    <title>iconfinder_x-21_4306823</title>
    <desc>Created with Sketch.</desc>
    <g id="Page-1" stroke="none" stroke-width="1" fill="none" fill-rule="evenodd">
        <g id="bundle-copy" transform="translate(-965.000000, -895.000000)">
            <g id="iconfinder_x-21_4306823" transform="translate(965.000000, 895.000000)">
                <rect id="Rectangle" fill="#FFFFFF" x="5" y="13" width="54" height="39"></rect>
                <path d="M58.313,57.458 C61.069,57.458 63.303,55.224 63.303,52.468 L63.303,12.016 L63.333,12.016 L63.333,3.35 C63.333,1.805 62.069,0.542 60.525,0.542 L3.475,0.542 C1.931,0.542 0.667,1.806 0.667,3.35 L0.667,12.016 L0.697,12.016 L0.697,52.251 C0.697,55.127 3.028,57.458 5.904,57.458 L58.313,57.458 Z M56.443,5.101 C57.482,5.101 58.332,5.951 58.332,6.99 C58.332,8.028 57.482,8.878 56.443,8.878 C55.405,8.878 54.555,8.028 54.555,6.99 C54.555,5.951 55.405,5.101 56.443,5.101 Z M50.555,5.101 C51.593,5.101 52.443,5.951 52.443,6.99 C52.443,8.028 51.593,8.878 50.555,8.878 C49.516,8.878 48.666,8.028 48.666,6.99 C48.666,5.951 49.516,5.101 50.555,5.101 Z M44.666,5.101 C45.704,5.101 46.554,5.951 46.554,6.99 C46.554,8.028 45.704,8.878 44.666,8.878 C43.627,8.878 42.778,8.028 42.778,6.99 C42.778,5.951 43.627,5.101 44.666,5.101 Z M7.997,5.101 L32.328,5.101 C33.367,5.101 34.217,5.951 34.217,6.989 C34.217,8.028 33.367,8.878 32.328,8.878 L7.997,8.878 C6.959,8.878 6.109,8.028 6.109,6.989 C6.109,5.951 6.959,5.101 7.997,5.101 Z M5.272,52.183 L5.272,13.467 L58.729,13.467 L58.729,52.183 L5.272,52.183 Z" id="Shape" fill="#2EA2DB" fill-rule="nonzero"></path>
                <g id="Group" transform="translate(13.000000, 17.000000)" fill-rule="nonzero">
                    <path d="M26.599,0.64 L11.401,0.64 C8.603,0.64 6.335,2.908 6.335,5.706 L6.335,15.839 C6.335,18.637 8.603,20.905 11.401,20.905 L26.6,20.905 C29.398,20.905 31.666,18.637 31.666,15.839 L31.666,5.706 C31.666,2.908 29.397,0.64 26.599,0.64 Z M23.607,12.101 L16.527,15.641 C15.539,16.135 14.376,15.417 14.376,14.312 L14.376,7.232 C14.376,6.127 15.538,5.409 16.527,5.903 L23.607,9.443 C24.702,9.991 24.702,11.554 23.607,12.101 Z" id="Shape" fill="#F16051"></path>
                    <g transform="translate(0.000000, 23.000000)" id="Path">
                        <path d="M13.754,8.011 C12.724,8.011 11.889,7.176 11.889,6.146 L11.889,2.515 C11.889,1.485 12.724,0.65 13.754,0.65 C14.784,0.65 15.619,1.485 15.619,2.515 L15.619,6.146 C15.619,7.176 14.784,8.011 13.754,8.011 Z" fill="#F16051"></path>
                        <g transform="translate(0.000000, 2.000000)" fill="#193651">
                            <path d="M35.707,0.466 L16.733,0.466 C16.733,0.483 16.738,0.499 16.738,0.515 L16.738,4.146 C16.738,4.163 16.733,4.179 16.733,4.196 L35.706,4.196 C36.736,4.196 37.571,3.361 37.571,2.331 C37.571,1.3 36.737,0.466 35.707,0.466 Z"></path>
                            <path d="M10.77,4.146 L10.77,0.515 C10.77,0.498 10.775,0.482 10.775,0.466 L2.293,0.466 C1.263,0.466 0.428,1.301 0.428,2.331 C0.428,3.361 1.263,4.196 2.293,4.196 L10.775,4.196 C10.775,4.179 10.77,4.163 10.77,4.146 Z"></path>
                        </g>
                    </g>
                </g>
            </g>
        </g>
    </g>
</svg>