<?xml version="1.0" encoding="UTF-8"?>
<svg width="120px" height="34px" viewBox="0 0 120 34" version="1.1" xmlns="http://www.w3.org/2000/svg" xmlns:xlink="http://www.w3.org/1999/xlink">
    <!-- Generator: Sketch 53 (72520) - https://sketchapp.com -->
    <title>zeroup_logo</title>
    <desc>Created with Sketch.</desc>
    <g id="Page-1" stroke="none" stroke-width="1" fill="none" fill-rule="evenodd">
        <g id="bundle-copy" transform="translate(-130.000000, -25.000000)" fill="#FFFFFF" fill-rule="nonzero">
            <g id="zeroup_logo" transform="translate(130.000000, 25.000000)">
                <polygon id="Path" points="0 7 0 11.6507444 9.33573141 11.6507444 0 23.6488834 0 28 17 28 17 23.2320099 7.28377298 23.2320099 16.7146283 11.2990074 16.7146283 7"></polygon>
                <path d="M37,12.3990025 L37,28 L42.0208044,28 L42.0208044,18.0382377 C42.0208044,18.0382377 43.8238558,16.2028263 47,16.6683292 L47,12 C47,12 43.629681,12.4522028 42.0485437,14.2610141 L42.0485437,12.4123026 L37,12.3990025 Z" id="Path"></path>
                <path d="M27.2487928,13 C19.6090601,13 19,19.8965517 19,21.2627258 C19,22.6288998 19.966552,29 27.4076781,29 C31.1282411,29 33.5909626,27.2397373 33.7895692,27.0426929 L31.8564652,24.1527094 C31.8564652,24.1527094 29.9101209,25.3875205 27.8048912,25.3875205 C25.6996616,25.3875205 24.4153391,23.9031199 24.0446068,22.5106732 L34.9679681,22.4581281 C34.9679681,22.4581281 35.9345201,13 27.2487928,13 Z M23.9254429,19.3711002 C23.9254429,19.3711002 24.3358965,16.5205255 27.1693502,16.5205255 C30.0028039,16.5205255 30.5986236,19.3711002 30.5986236,19.3711002 L23.9254429,19.3711002 Z" id="Shape"></path>
                <path d="M57.4933438,12 C52.807361,12 49,15.8063745 49,20.5067729 C49,25.2071713 52.807361,29 57.4933438,29 C62.1793265,29 66,25.1936255 66,20.5067729 C66,15.8199203 62.192639,12 57.4933438,12 Z M57.4800313,24.5840637 C55.5630384,24.5840637 54.0054816,22.8095618 54.0054816,20.6286853 C54.0054816,18.4478088 55.5630384,16.6733068 57.4800313,16.6733068 C59.3970243,16.6733068 60.954581,18.4478088 60.954581,20.6286853 C60.954581,22.8095618 59.3970243,24.5840637 57.4800313,24.5840637 Z" id="Shape"></path>
                <path d="M73.0267559,6.68093023 L78.7792642,6.68093023 L78.7792642,19.2093023 C78.7792642,21.3581395 80.2909699,23.3506977 83.2341137,23.3506977 C86.1772575,23.3506977 87.8093645,21.2409302 87.8093645,19.4046512 L87.8093645,6.68093023 L84.3846154,6.68093023 L90.6722408,0 L97,6.64186047 L93.5752508,6.64186047 L93.5752508,18.6883721 C93.5752508,22.3869767 92.1438127,28 83.3143813,28 C74.4849498,28 73,22.1525581 73,19.6 C73,17.0474419 73.0267559,6.68093023 73.0267559,6.68093023 Z" id="Path"></path>
                <path d="M107.006856,12 C103.140059,12 100,15.5787755 100,20.0065306 C100,24.4342857 103.140059,28 107.006856,28 C110.873653,28 114,25.3616327 114,20.0065306 C114,14.6514286 110.873653,12 107.006856,12 Z M105.333986,23.7681633 C103.249755,23.7681633 101.549461,22.0832653 101.549461,20.0065306 C101.549461,17.9297959 103.249755,16.2318367 105.333986,16.2318367 C107.418217,16.2318367 109.132223,17.9167347 109.132223,20.0065306 C109.132223,22.0963265 107.431929,23.7681633 105.333986,23.7681633 L105.333986,23.7681633 Z" id="Shape"></path>
                <rect id="Rectangle" x="97" y="13" width="5" height="21"></rect>
                <path d="M114.051553,10 L114.051553,6.76292814 L113,6.76292814 L113,6 L115.996927,6 L115.996927,6.76292814 L114.945374,6.76292814 L114.945374,10 L114.051553,10 Z M120,10 L119.110959,10 L119.110959,7.34855608 L118.463298,9.05977166 L117.853875,9.05977166 L117.206214,7.34855608 L117.206214,10 L116.364971,10 L116.364971,6 L117.395015,6 L118.18368,7.97447952 L118.969956,6 L120,6 L120,10 Z" id="TM"></path>
            </g>
        </g>
    </g>
</svg>