<?xml version="1.0" encoding="UTF-8"?>
<svg width="70px" height="70px" viewBox="0 0 70 70" version="1.1" xmlns="http://www.w3.org/2000/svg" xmlns:xlink="http://www.w3.org/1999/xlink">
    <!-- Generator: Sketch 53 (72520) - https://sketchapp.com -->
    <title>online-education copy 2</title>
    <desc>Created with Sketch.</desc>
    <g id="Page-1" stroke="none" stroke-width="1" fill="none" fill-rule="evenodd">
        <g id="bundle-copy" transform="translate(-969.000000, -881.000000)" fill-rule="nonzero">
            <g id="online-education-copy-2" transform="translate(969.000000, 881.000000)">
                <circle id="Oval" fill="#FDBF5E" cx="38.5" cy="12.5" r="6.5"></circle>
                <path d="M0,64 C0,67.346191 2.59671621,70 5.87091892,70 L64.1290811,70 C67.4032838,70 70,67.346191 70,64 L0,64 Z" id="Path" fill="#E1E6E9"></path>
                <rect id="Rectangle" fill="#2EA2DB" x="4" y="29" width="62" height="35"></rect>
                <rect id="Rectangle" fill="#FFFFFF" x="9" y="33" width="53" height="27"></rect>
                <polygon id="Path" fill="#4FBF9F" points="28 0 0 0 0 18.1818581 14.7251111 18.1818581 22.5338777 25 22.5338777 18.1818581 28 18.1818581"></polygon>
                <rect id="Rectangle" fill="#FFFFFF" x="5" y="4" width="19" height="9"></rect>
                <g id="Group" transform="translate(8.000000, 8.000000)" fill="#193651">
                    <rect id="Rectangle" x="0.103576087" y="0.007625" width="2.19233696" height="1.939375"></rect>
                    <rect id="Rectangle" x="5.47483696" y="0.007625" width="2.19233696" height="1.939375"></rect>
                    <rect id="Rectangle" x="10.736587" y="0.007625" width="2.19233696" height="1.939375"></rect>
                </g>
                <path d="M57.7083641,0 L51.2916359,0 C50.0312731,0 49,0.940318609 49,2.08952209 L49,7 L60,7 L60,2.08952209 C60,0.940183931 58.9687269,0 57.7083641,0 Z" id="Path" fill="#F16051"></path>
                <polygon id="Path" fill="#FDBF5E" points="60 35 49 35 54.4433547 45"></polygon>
                <rect id="Rectangle" fill="#E1E6E9" x="49" y="7" width="11" height="28"></rect>
                <rect id="Rectangle" fill="#FFFFFF" x="53" y="11" width="4" height="21"></rect>
                <path d="M39.2558384,15.202815 L37.8604791,15.202815 L37.8604791,14.4730259 C37.8604791,14.1082098 37.8604791,13.8648945 37.9767965,13.7432369 C38.0931139,13.6215792 38.2094313,13.3784208 38.4419162,13.1351055 L39.3721558,12.1621579 C39.6047906,11.9188426 39.6047906,11.6756842 39.6047906,11.4323689 C39.6047906,11.1890536 39.4884732,10.8242375 39.3721558,10.7025798 C39.1395209,10.4592645 38.907036,10.3377637 38.6744012,10.3377637 C38.3255988,10.3377637 38.092964,10.4594213 37.8604791,10.581079 C37.6278442,10.8243942 37.5116767,11.0675527 37.5116767,11.310868 L36,11.310868 C36.1163174,10.581079 36.3488024,9.97310433 36.8139221,9.60813141 C37.2790419,9.24331528 37.8604791,9 38.5580838,9 C39.2556885,9 39.8371256,9.24331528 40.3022454,9.60813141 C40.7673652,9.97294755 41,10.581079 41,11.310868 C41,11.7973418 40.8836826,12.2838156 40.6511976,12.5271308 C40.5348802,12.7704461 40.4185628,12.891947 40.3023953,13.0136046 C40.1860779,13.1352623 40.0697605,13.2569199 39.9535929,13.3784208 C39.8372755,13.5000784 39.7209581,13.621736 39.6047906,13.7432369 C39.4884732,13.8648945 39.4884732,13.8648945 39.3721558,13.9865522 C39.2558384,14.2298674 39.1395209,14.4730259 39.1395209,14.7163412 L39.1395209,15.202815 L39.2558384,15.202815 L39.2558384,15.202815 Z M38.6744012,18 C38.4417663,18 38.2092814,17.8783424 37.9766466,17.7566847 C37.7440118,17.6350271 37.7440118,17.3918686 37.7440118,17.1485533 C37.7440118,16.905238 37.8603292,16.6620795 37.9766466,16.5404219 C38.2092814,16.2971066 38.3254489,16.2971066 38.6744012,16.2971066 C38.907036,16.2971066 39.1395209,16.4187643 39.3721558,16.5404219 C39.6047906,16.6620795 39.6047906,16.905238 39.6047906,17.1485533 C39.6047906,17.3918686 39.4884732,17.6350271 39.3721558,17.7566847 C39.1395209,17.8784991 38.907036,18 38.6744012,18 Z" id="Shape" fill="#193651"></path>
                <rect id="Rectangle" fill="#F16051" x="11" y="35" width="21" height="15"></rect>
                <polygon id="Path" fill="#FFFFFF" points="19 40 19 46 24 42.9999284"></polygon>
                <rect id="Rectangle" fill="#F16051" x="38" y="54" width="8" height="5"></rect>
                <polygon id="Path" fill="#FFFFFF" points="41 56 41 58 43 56.9999355"></polygon>
                <rect id="Rectangle" fill="#F16051" x="38" y="47" width="8" height="5"></rect>
                <polygon id="Path" fill="#FFFFFF" points="41 48 41 50 43 48.9999355"></polygon>
                <rect id="Rectangle" fill="#F16051" x="38" y="40" width="8" height="5"></rect>
                <polygon id="Path" fill="#FFFFFF" points="41 41 41 43 43 42.0526459"></polygon>
                <g id="Group" transform="translate(50.000000, 48.000000)" fill="#193651">
                    <rect id="Rectangle" x="0.0111086957" y="7.60925373" width="6.965" height="2.31567164"></rect>
                    <rect id="Rectangle" x="0.0111086957" y="0.0832835821" width="6.965" height="2.31567164"></rect>
                </g>
            </g>
        </g>
    </g>
</svg>