<?xml version="1.0" encoding="UTF-8"?>
<svg width="1440px" height="2108px" viewBox="0 0 1440 2108" version="1.1" xmlns="http://www.w3.org/2000/svg" xmlns:xlink="http://www.w3.org/1999/xlink">
    <!-- Generator: Sketch 53 (72520) - https://sketchapp.com -->
    <title>Group 6</title>
    <desc>Created with Sketch.</desc>
    <g id="Page-1" stroke="none" stroke-width="1" fill="none" fill-rule="evenodd">
        <g id="bundle-copy-3" transform="translate(0.000000, -1194.000000)" fill="#F7F9FD">
            <g id="Group-6" transform="translate(-887.587426, 882.549687)">
                <path d="M909.519777,262.331615 L1446.67939,991.699363 C1479.43023,1036.16921 1469.9301,1098.76894 1425.46025,1131.51978 C1408.27812,1144.17395 1387.49864,1151 1366.15961,1151 L291.840386,1151 C236.611911,1151 191.840386,1106.22847 191.840386,1051 C191.840386,1029.66098 198.666434,1008.8815 211.32061,991.699363 L748.480223,262.331615 C781.231061,217.86177 843.830792,208.361638 888.300637,241.112476 C896.400716,247.077964 903.554288,254.231536 909.519777,262.331615 Z" id="Triangle" transform="translate(829.000000, 652.000000) rotate(-13.000000) translate(-829.000000, -652.000000) "></path>
                <path d="M2566.34585,846.435616 L2998.42546,1382.99625 C3033.06463,1426.0115 3026.27447,1488.96285 2983.25921,1523.60203 C2965.48778,1537.91294 2943.35668,1545.71601 2920.53944,1545.71601 L2056.38024,1545.71601 C2001.15176,1545.71601 1956.38024,1500.94449 1956.38024,1445.71601 C1956.38024,1422.89878 1964.18331,1400.76768 1978.49423,1382.99625 L2410.57383,846.435616 C2445.213,803.420359 2508.16435,796.6302 2551.17961,831.26937 C2556.76412,835.766448 2561.84878,840.851102 2566.34585,846.435616 Z" id="Triangle-Copy" transform="translate(2488.459841, 1147.716013) rotate(16.000000) translate(-2488.459841, -1147.716013) "></path>
                <path d="M1114.34585,1612.43562 L1546.42546,2148.99625 C1581.06463,2192.0115 1574.27447,2254.96285 1531.25921,2289.60203 C1513.48778,2303.91294 1491.35668,2311.71601 1468.53944,2311.71601 L604.380238,2311.71601 C549.151763,2311.71601 504.380238,2266.94449 504.380238,2211.71601 C504.380238,2188.89878 512.183309,2166.76768 526.494226,2148.99625 L958.573829,1612.43562 C993.212999,1569.42036 1056.16435,1562.6302 1099.17961,1597.26937 C1104.76412,1601.76645 1109.84878,1606.8511 1114.34585,1612.43562 Z" id="Triangle-Copy-2" transform="translate(1036.459841, 1913.716013) rotate(16.000000) translate(-1036.459841, -1913.716013) "></path>
            </g>
        </g>
    </g>
</svg>