<?xml version="1.0" encoding="UTF-8"?>
<svg width="59px" height="38px" viewBox="0 0 59 38" version="1.1" xmlns="http://www.w3.org/2000/svg" xmlns:xlink="http://www.w3.org/1999/xlink">
    <!-- Generator: Sketch 53 (72520) - https://sketchapp.com -->
    <title>Group 9</title>
    <desc>Created with Sketch.</desc>
    <g id="Page-1" stroke="none" stroke-width="1" fill="none" fill-rule="evenodd" stroke-linecap="round" stroke-linejoin="round">
        <g id="web1-copy" transform="translate(-717.000000, -794.000000)" stroke="#32AE2F" stroke-width="3">
            <g id="Group-9" transform="translate(720.000000, 797.000000)">
                <path d="M-0.693823475,-1.5 L13.96828,-1.5 L21.5,13.482016 L21.5,28.3806762 L15.3234245,33.5 L-1.5,33.5 L-1.5,12.3378378 L5.45171363,12.3378378 C5.727856,12.3378378 5.95171363,12.1139802 5.95171363,11.8378378 C5.95171363,11.7598484 5.93346991,11.6829404 5.8984406,11.6132604 L-0.693823475,-1.5 Z" id="Path-2"></path>
                <path d="M32.3061765,-1.5 L46.96828,-1.5 L54.5,13.482016 L54.5,28.3806762 L48.3234245,33.5 L31.5,33.5 L31.5,12.3378378 L38.4517136,12.3378378 C38.727856,12.3378378 38.9517136,12.1139802 38.9517136,11.8378378 C38.9517136,11.7598484 38.9334699,11.6829404 38.8984406,11.6132604 L32.3061765,-1.5 Z" id="Path-2-Copy"></path>
            </g>
        </g>
    </g>
</svg>