<?xml version="1.0" encoding="UTF-8"?>
<svg width="95px" height="89px" viewBox="0 0 95 89" version="1.1" xmlns="http://www.w3.org/2000/svg" xmlns:xlink="http://www.w3.org/1999/xlink">
    <!-- Generator: Sketch 53 (72520) - https://sketchapp.com -->
    <title>ads copy 2</title>
    <desc>Created with Sketch.</desc>
    <g id="Page-1" stroke="none" stroke-width="1" fill="none" fill-rule="evenodd">
        <g id="bundle-copy" transform="translate(-206.000000, -3498.000000)" fill-rule="nonzero">
            <g id="ads-copy-2" transform="translate(206.000000, 3498.000000)">
                <path d="M95,5.20038609 L95,82.9097367 C95,85.730629 92.7132797,88.0173493 89.8902131,88.0173493 L5.10978689,88.0173493 C2.28672032,88.0173493 0,85.730629 0,82.9097367 L0,5.20038609 C0,2.37949376 2.28672032,0.0927734375 5.10978689,0.0927734375 L89.8902131,0.0927734375 C92.7132797,0.0927734375 95,2.37949376 95,5.20038609 Z" id="Path" fill="#4172CC"></path>
                <path d="M95,12.3062516 L95,82.9097367 C95,85.730629 92.7132797,88.0173493 89.8902131,88.0173493 L5.10978689,88.0173493 C2.28672032,88.0173493 0,85.730629 0,82.9097367 L0,12.3062516 L95,12.3062516 Z" id="Path" fill="#A2ABB8"></path>
                <path d="M95,12.3062516 L95,82.9097367 C95,85.730629 92.7132797,88.0173493 89.8902131,88.0173493 L11.1647034,88.0173493 C8.34163661,88.0173493 6.05491629,85.730629 6.05491629,82.9097367 L6.05491629,12.3062516 L95,12.3062516 Z" id="Path" fill="#C8D2DC"></path>
                <path d="M76.401825,5.15762329 L7.89371495,5.15762329 C7.09716797,5.15762329 6.45210275,5.80268869 6.45210275,6.59851074 C6.45210275,7.39433279 7.09716797,8.03939819 7.89371495,8.03939819 L76.4025497,8.03939819 C77.1983719,8.03939819 77.8434371,7.39433279 77.8434371,6.59851074 C77.8434371,5.80268869 77.1983719,5.15762329 76.401825,5.15762329 L76.401825,5.15762329 Z" id="Path" fill="#BACBEC"></path>
                <path d="M90.8005525,7.4798584 L89.7568513,6.55502319 L90.8005525,5.63018799 C91.3963318,5.10253906 91.451416,4.19219971 90.9237671,3.59569545 C90.3961182,2.99991612 89.4850541,2.94483189 88.8899993,3.47248082 L87.5831986,4.62997437 L86.2763977,3.47248082 C85.6806184,2.94483189 84.770279,2.99991612 84.2426301,3.59569545 C83.7149812,4.19219971 83.7700652,5.10253906 84.3658447,5.63018799 L85.4095459,6.55502319 L84.3658447,7.4798584 C83.3707047,8.36048131 84.0048982,9.99996181 85.3218461,9.99996181 C86.0096741,9.99996181 86.212616,9.69409947 87.5831986,8.48007202 L88.8899993,9.63756557 C89.4857788,10.1652145 90.3968429,10.1094055 90.9244918,9.51362619 C91.451416,8.91857143 91.3963318,8.00750732 90.8005525,7.4798584 L90.8005525,7.4798584 Z" id="Path" fill="#BACBEC"></path>
                <path d="M5.10978689,0.0927734375 C2.28672032,0.0927734375 0,2.37949376 0,5.20038609 L0,12.3062516 L6.05491629,12.3062516 L6.05491629,0.0927734375 L5.10978689,0.0927734375 Z" id="Path" fill="#2E5AAC"></path>
                <path d="M84.9833679,57.3144149 L10.0166321,57.3144149 C8.24089041,57.3144149 6.80145264,55.8749772 6.80145264,54.0992355 L6.80145264,23.8906096 C6.80145264,22.1148682 8.24089041,20.6754304 10.0166321,20.6754304 L84.9833679,20.6754304 C86.7591096,20.6754304 88.1985474,22.1148682 88.1985474,23.8906096 L88.1985474,54.0992355 C88.1985474,55.8749772 86.7591096,57.3144149 84.9833679,57.3144149 Z" id="Path" fill="#6990D7"></path>
                <g id="Group" transform="translate(17.812500, 24.677734)" fill="#274C91">
                    <path d="M11.6249466,1.25968924 C11.1719514,-0.175399688 8.16768642,-0.206565811 7.72773752,1.25968924 C7.70236974,1.34304042 0.00869750977,26.3918685 0.00869750977,26.4788436 C0.00869750977,27.6798249 2.67158518,28.4104157 3.08109288,27.0782471 L4.72999582,21.4944458 L14.5857239,21.4944458 L16.2346268,27.0782471 C16.6535568,28.4408569 19.3077469,27.6312638 19.3077469,26.4411544 C19.3077469,26.3665008 19.2700577,26.2911223 19.2700577,26.1787796 L11.6249466,1.25968924 Z M5.44246669,18.909111 L9.67670445,4.8198699 L13.8362884,18.909111 L5.44246669,18.909111 Z" id="Shape"></path>
                    <path d="M30.6985856,0.397911025 L24.0660095,0.397911025 C23.2042313,0.397911025 22.6425171,0.922660781 22.6425171,1.484375 L22.6425171,26.7035294 C22.6425171,27.2652434 23.2042313,27.7899934 24.0660095,27.7899934 L30.6985856,27.7899934 C35.2328873,27.7899934 38.793068,25.5793762 38.793068,19.6208573 L38.793068,8.56632237 C38.793068,2.60852818 35.2328873,0.397911025 30.6985856,0.397911025 Z M35.6452942,19.621582 C35.6452942,23.2564164 33.7717057,24.9422836 30.6985856,24.9422836 L25.7902909,24.9422836 L25.7902909,3.24562082 L30.6985856,3.24562082 C33.7717057,3.24562082 35.6452942,4.93221278 35.6452942,8.56704712 L35.6452942,19.621582 Z" id="Shape"></path>
                    <path d="M46.2504578,6.99279785 C46.2504578,4.10812378 48.5734176,3.09631348 51.3464737,3.09631348 C54.6065902,3.09631348 55.6930542,4.51980591 56.5548324,4.51980591 C57.4166106,4.51980591 57.9043961,3.39565272 57.9043961,2.7962493 C57.9043961,1.10965733 54.0071868,0.323257539 51.3464737,0.323257539 C47.636261,0.323257539 43.102684,1.78443918 43.102684,7.29286203 C43.102684,16.3984298 55.4306794,12.9882812 55.4306794,20.5210495 C55.4306794,23.631134 53.3700943,25.1676941 50.2223206,25.1676941 C45.8003617,25.1676941 44.9385833,22.1322632 43.8144303,22.1322632 C43.102684,22.1322632 42.4279021,23.1063843 42.4279021,23.8558196 C42.4279021,28.329239 58.578453,31.8843461 58.578453,20.2209855 C58.578453,10.0282288 46.2504578,13.3260345 46.2504578,6.99279785 L46.2504578,6.99279785 Z" id="Path"></path>
                </g>
                <g id="settings" transform="translate(62.000000, 45.000000)">
                    <path d="M29.1352308,13.6507308 C26.3672885,13.1183654 25.0980769,9.88423077 26.7649231,7.61169231 L27.9357692,6.01519231 L25.4062885,3.48571154 L23.8336346,4.55103846 C21.5002885,6.13203846 18.3156346,4.74240385 17.8875962,1.95717308 L17.5865385,0 L14.0096154,0 L13.5464038,2.40905769 C13.0259615,5.11559615 9.90688462,6.40805769 7.62480769,4.86223077 L5.59371154,3.48571154 L3.06423077,6.01519231 L4.23507692,7.61169231 C5.90192308,9.88423077 4.63211538,13.1183654 1.86476923,13.6507308 L0,14.0096154 L0,17.5865385 L1.95717308,17.8875962 C4.743,18.3162308 6.13203846,21.5008846 4.55103846,23.8342308 L3.48571154,25.4062885 L6.01519231,27.9357692 L7.61169231,26.7649231 C9.88423077,25.0980769 13.1183654,26.3672885 13.6507308,29.1352308 L14.0096154,31 L17.5865385,31 L17.7981731,29.6234808 C18.2363462,26.77625 21.5384423,25.4080769 23.8616538,27.1118846 L24.9848077,27.9357692 L27.5142885,25.4062885 L26.4489615,23.8342308 C24.8685577,21.5008846 26.2575962,18.3162308 29.0428269,17.8875962 L31,17.5865385 L31,14.0096154 L29.1352308,13.6507308 Z M15.7980769,18.4807692 C14.3166346,18.4807692 13.1153846,17.2795192 13.1153846,15.7980769 C13.1153846,14.3166346 14.3166346,13.1153846 15.7980769,13.1153846 C17.2795192,13.1153846 18.4807692,14.3166346 18.4807692,15.7980769 C18.4807692,17.2795192 17.2795192,18.4807692 15.7980769,18.4807692 Z" id="Shape" fill="#FFDF77"></path>
                    <path d="M15.5,10 C12.4622632,10 10,12.4622632 10,15.5 C10,18.5377368 12.4622632,21 15.5,21 C18.5377368,21 21,18.5377368 21,15.5 C21,12.4622632 18.5377368,10 15.5,10 Z M15.5,18.1052632 C14.0613158,18.1052632 12.8947368,16.9386842 12.8947368,15.5 C12.8947368,14.0613158 14.0613158,12.8947368 15.5,12.8947368 C16.9386842,12.8947368 18.1052632,14.0613158 18.1052632,15.5 C18.1052632,16.9386842 16.9386842,18.1052632 15.5,18.1052632 Z" id="Shape" fill="#556080"></path>
                </g>
            </g>
        </g>
    </g>
</svg>