<?xml version="1.0" encoding="UTF-8"?>
<svg width="30px" height="16px" viewBox="0 0 30 16" version="1.1" xmlns="http://www.w3.org/2000/svg" xmlns:xlink="http://www.w3.org/1999/xlink">
    <!-- Generator: Sketch 52.2 (67145) - http://www.bohemiancoding.com/sketch -->
    <title>Combined Shape</title>
    <desc>Created with Sketch.</desc>
    <g id="offer" stroke="none" stroke-width="1" fill="none" fill-rule="evenodd">
        <path d="M16.0088894,5.1838964 L16.0088894,1.52441934 C16.0088894,0.695992217 16.6804623,0.0244193417 17.5088894,0.0244193417 C17.7970662,0.0244193417 18.0791433,0.107430872 18.3213836,0.263525538 L28.3705469,6.73900101 C29.0669194,7.18772916 29.2676747,8.11601659 28.8189465,8.81238901 C28.7031428,8.99210251 28.5502604,9.14498491 28.3705469,9.26078862 L18.3213836,15.7362641 C17.6250112,16.1849922 16.6967237,15.9842369 16.2479956,15.2878645 C16.0919009,15.0456242 16.0088894,14.7635471 16.0088894,14.4753703 L16.0088894,11.3004443 C15.9345294,11.3117862 15.8583738,11.3176681 15.7808444,11.3176681 L1.5,11.3176681 C0.671572875,11.3176681 1.01453063e-16,10.6460952 0,9.81766811 L0,6.6666726 C-1.01453063e-16,5.83824547 0.671572875,5.1666726 1.5,5.1666726 L15.7808444,5.1666726 C15.8583738,5.1666726 15.9345294,5.1725545 16.0088894,5.1838964 Z" id="Combined-Shape" fill="#E26474" fill-rule="nonzero"></path>
    </g>
</svg>