<?xml version="1.0" encoding="UTF-8"?>
<svg width="197px" height="94px" viewBox="0 0 197 94" version="1.1" xmlns="http://www.w3.org/2000/svg" xmlns:xlink="http://www.w3.org/1999/xlink">
    <!-- Generator: Sketch 52.2 (67145) - http://www.bohemiancoding.com/sketch -->
    <title>MIB-Light</title>
    <desc>Created with Sketch.</desc>
    <defs>
        <filter x="-6.5%" y="-14.7%" width="113.0%" height="130.0%" filterUnits="objectBoundingBox" id="filter-1">
            <feOffset dx="0" dy="0" in="SourceAlpha" result="shadowOffsetOuter1"></feOffset>
            <feGaussianBlur stdDeviation="3" in="shadowOffsetOuter1" result="shadowBlurOuter1"></feGaussianBlur>
            <feColorMatrix values="0 0 0 0 0   0 0 0 0 0   0 0 0 0 0  0 0 0 0.0132189764 0" type="matrix" in="shadowBlurOuter1" result="shadowMatrixOuter1"></feColorMatrix>
            <feMerge>
                <feMergeNode in="shadowMatrixOuter1"></feMergeNode>
                <feMergeNode in="SourceGraphic"></feMergeNode>
            </feMerge>
        </filter>
    </defs>
    <g id="offer" stroke="none" stroke-width="1" fill="none" fill-rule="evenodd">
        <g id="MIB-Light" filter="url(#filter-1)" transform="translate(6.000000, 6.000000)" fill="#FFFFFF">
            <polygon id="Path" points="85.4312877 0 106.101408 0 95.7682093 10.3294769 106.101408 41.3179074 95.7682093 51.6473843 85.4312877 41.3179074 95.7682093 10.3294769"></polygon>
            <path d="M24.038833,0.104225352 L39.6130785,0.104225352 L46.2239437,26.1307847 C46.591214,27.4187123 47.0168008,29.3133803 47.5007042,31.8147887 C47.9846076,34.3161972 48.2948021,35.9800805 48.4312877,36.8064386 L48.7625755,36.8064386 C48.9015426,35.9354125 49.1894031,34.2256204 49.6261569,31.6770624 C50.0629108,29.1285044 50.4190141,27.2797451 50.6944668,26.1307847 L57.3239437,0.104225352 L72.2132797,0.104225352 L72.2132797,47.3406439 L62.2113682,47.3406439 L62.2113682,17.2492958 C62.2113682,16.3782696 62.2672032,15.045674 62.3863179,13.2552314 C62.5054326,11.4647887 62.5798793,10.2773642 62.6245473,9.67434608 L62.2820926,9.67434608 L60.8341046,15.2578471 L52.7045272,47.3443662 L43.1790744,47.3443662 L35.0643863,15.2615694 L33.6163984,9.67806841 L33.2702213,9.67806841 C33.3186117,10.2773642 33.3967807,11.4908451 33.512173,13.3296781 C33.6275654,15.1685111 33.6871227,16.4750503 33.6871227,17.2530181 L33.6871227,47.3443662 L24.038833,47.3443662 L24.038833,0.104225352 Z" id="Path"></path>
            <path d="M119.334306,0.104225352 L146.414286,0.104225352 C148.749533,0.0754123172 151.060035,0.584894666 153.1666,1.59315895 C155.099601,2.509056 156.743889,3.93831144 157.92002,5.7249497 C160.37106,9.71818895 160.195146,14.7903912 157.47334,18.6042254 C156.080414,20.4696421 154.140316,21.8541254 151.92334,22.5647887 L151.92334,22.8402414 C154.499349,23.2911875 156.818636,24.6761337 158.437425,26.7300805 C160.116008,28.8276656 161.005203,31.4478284 160.95,34.1338028 C160.95,38.3995976 159.585144,41.6702884 156.855433,43.9458753 C154.125721,46.2214621 150.651543,47.356774 146.432897,47.3518109 L119.334306,47.3518271 L119.334306,0.104225352 Z M143.585312,18.9839034 C145.424145,18.9839034 146.848558,18.5124078 147.858551,17.5694165 C148.863918,16.6414104 149.416728,15.3225433 149.373541,13.9550302 C149.373541,12.217941 148.903286,10.8865862 147.962777,9.96096579 C147.022267,9.03534541 145.71945,8.56881288 144.054326,8.56136821 L129.392052,8.56136821 L129.392052,18.9839034 L143.585312,18.9839034 Z M144.757847,38.883501 C146.324219,38.947721 147.854959,38.4050285 149.031087,37.3685111 C150.132897,36.3609993 150.683803,34.915493 150.683803,33.031992 C150.745004,31.4824591 150.144048,29.980069 149.031087,28.9002012 C147.929276,27.8430584 146.316264,27.3144869 144.192052,27.3144869 L129.377163,27.3144869 L129.377163,38.883501 L144.757847,38.883501 Z" id="Shape" fill-rule="nonzero"></path>
            <path d="M16.3782696,71.5283702 L16.3782696,81.0575453 L13.2738431,81.0575453 L13.2738431,72.3807847 C13.2738431,70.6238431 12.782495,69.9798793 11.7514085,69.9798793 C10.7203219,69.9798793 9.86418511,70.9849095 9.86418511,72.4812877 L9.86418511,81.0426559 L6.81559356,81.0426559 L6.81559356,72.3807847 C6.81559356,70.6238431 6.29818913,69.9798793 5.26338028,69.9798793 C4.22857143,69.9798793 3.40221328,71.0965795 3.40221328,72.6897384 L3.40221328,81.0575453 L0.305231388,81.0575453 L0.305231388,67.4747485 L2.88853119,67.4747485 L3.19748491,69.1535211 L3.3501006,69.1535211 C3.99406439,68.0926559 5.08098592,67.1620724 6.58108652,67.1620724 C7.89634959,67.0747732 9.10118668,67.8969515 9.49939638,69.1535211 C10.2543196,67.9264139 11.5874893,67.1740449 13.028169,67.1620724 C14.9526157,67.1620724 16.3782696,68.248994 16.3782696,71.5283702 Z" id="Path"></path>
            <path d="M27.951006,71.1673038 L27.951006,77.867505 C27.951006,78.5151911 28.3232394,78.7720322 28.6954728,78.7720322 L29.2947686,78.7720322 L29.2947686,80.9682093 C28.7293516,81.2593693 28.0990399,81.4015737 27.4633803,81.3813883 C26.3423267,81.4263273 25.3414037,80.6841569 25.0587525,79.5983903 L24.9396378,79.5983903 C24.1653924,80.6815895 23.3129779,81.3813883 21.5039235,81.3813883 C20.23833,81.3813883 18.0942656,80.7076459 18.0942656,77.5585513 C18.0942656,73.8920523 20.8822938,72.8088531 24.8391348,72.8088531 L24.8391348,71.3869215 C24.8391348,70.4600604 24.6046278,69.7081489 23.4172032,69.7081489 C22.1516097,69.7081489 21.7868209,70.4823944 21.7868209,71.1300805 L21.7868209,71.5023139 L18.7531187,71.5023139 C18.729513,71.3134518 18.7208007,71.1230254 18.7270624,70.9327968 C18.7270624,68.662173 20.5361167,67.1620724 23.3278672,67.1620724 C26.4806841,67.1620724 27.951006,68.6361167 27.951006,71.1673038 Z M24.8279678,75.0385312 C23.0189135,75.0385312 21.2582495,75.5038229 21.2582495,77.2719316 C21.2582495,78.1987928 21.7235412,78.7943662 22.7844064,78.7943662 C24.27334,78.7943662 24.8279678,77.4245473 24.8279678,75.816499 L24.8279678,75.0385312 Z" id="Shape" fill-rule="nonzero"></path>
            <path d="M37.6662978,67.3742455 L37.6662978,70.3521127 L36.5495976,70.3521127 C35.205835,70.3521127 34.0146881,71.0742455 34.0146881,73.4751509 L34.0146881,81.0426559 L30.9251509,81.0426559 L30.9251509,67.4747485 L33.501006,67.4747485 L33.8732394,69.4624748 L34.0258551,69.4624748 C34.3980885,68.327163 35.0085513,67.1620724 36.3783702,67.1620724 C36.8170345,67.1535471 37.2535492,67.2254584 37.6662978,67.3742455 Z" id="Path"></path>
            <polygon id="Path" points="42.2410463 72.8721328 46.037827 67.4747485 49.3469819 67.4747485 45.3156942 72.9986922 49.5517103 81.0575453 46.115996 81.0575453 43.3763581 75.4256539 42.2596579 76.8215292 42.2596579 81.0575453 39.1589537 81.0575453 39.1589537 62.3863179 42.2596579 62.3863179"></polygon>
            <path d="M60.4581489,74.2642857 L60.4581489,75.0385312 L53.5569416,75.0385312 C53.582998,77.465493 54.1264588,78.8353119 55.6488934,78.8353119 C56.7097586,78.8353119 57.383501,77.878672 57.383501,76.2520121 L60.4581489,76.2520121 C60.4581489,79.739839 58.4145875,81.366499 55.6488934,81.366499 C52.1610664,81.366499 50.3296781,79.1330986 50.3296781,74.2642857 C50.3296781,69.3954728 52.1908451,67.1620724 55.5409457,67.1620724 C58.8128773,67.1620724 60.4581489,69.3843058 60.4581489,74.2642857 Z M53.6016097,72.7939638 L57.2197183,72.7939638 C57.2197183,70.8285714 56.7023139,69.6932596 55.567002,69.6932596 C54.2306841,69.6932596 53.6872233,70.8285714 53.6016097,72.7939638 Z" id="Shape" fill-rule="nonzero"></path>
            <path d="M66.0118712,67.4747485 L67.9772636,67.4747485 L67.9772636,70.0803823 L66.0118712,70.0803823 L66.0118712,77.6478873 C65.969727,77.9496657 66.0694154,78.2539823 66.2819447,78.4723343 C66.4944741,78.6906864 66.7959858,78.7985617 67.0987928,78.7645875 L67.9772636,78.7645875 L67.9772636,81.0649899 C67.3743896,81.2545643 66.7478868,81.3585638 66.1160966,81.3739437 C63.6370221,81.3739437 62.911167,79.538833 62.911167,77.733501 L62.911167,70.0803823 L61.5413481,70.0803823 L61.5413481,67.4747485 L62.9074447,67.4747485 L63.3764588,63.6519115 L66.0118712,63.6519115 L66.0118712,67.4747485 Z" id="Path"></path>
            <path d="M79.2857143,74.2642857 L79.2857143,75.0385312 L72.395674,75.0385312 C72.4217304,77.465493 72.9614688,78.8353119 74.4876258,78.8353119 C75.5484909,78.8353119 76.2185111,77.878672 76.2185111,76.2520121 L79.2857143,76.2520121 C79.2857143,79.739839 77.2458753,81.366499 74.4801811,81.366499 C70.9923541,81.366499 69.1572435,79.1330986 69.1572435,74.2642857 C69.1572435,69.3954728 71.0184105,67.1620724 74.3685111,67.1620724 C77.666499,67.1620724 79.2857143,69.3843058 79.2857143,74.2642857 Z M72.4142857,72.7939638 L76.028672,72.7939638 C76.028672,70.8285714 75.5149899,69.6932596 74.3759557,69.6932596 C73.0656942,69.6932596 72.5222334,70.8285714 72.4217304,72.7939638 L72.4142857,72.7939638 Z" id="Shape" fill-rule="nonzero"></path>
            <path d="M88.3123742,67.3742455 L88.3123742,70.3521127 L87.195674,70.3521127 C85.8519115,70.3521127 84.6644869,71.0742455 84.6644869,73.4751509 L84.6644869,81.0426559 L81.5637827,81.0426559 L81.5637827,67.4747485 L84.1470825,67.4747485 L84.5193159,69.4624748 L84.6756539,69.4624748 C85.0478873,68.327163 85.6583501,67.1620724 87.028169,67.1620724 C87.4655863,67.1540022 87.9007984,67.2259068 88.3123742,67.3742455 Z" id="Path"></path>
            <path d="M98.9061368,70.8546278 C98.9061368,71.1412475 98.8800805,71.4241449 98.8800805,71.4502012 L95.7272636,71.4502012 C95.7613597,70.966493 95.614057,70.4874277 95.3140845,70.1064386 C95.0177929,69.8157855 94.6115039,69.6654586 94.1973843,69.6932596 C93.2407445,69.6932596 92.5967807,70.210664 92.5967807,71.0370221 C92.5967807,73.6724346 99.2374245,71.6065392 99.2374245,76.9927565 C99.2374245,80.2944668 97.0673038,81.3813883 94.171328,81.3813883 C91.0445674,81.3813883 89.2355131,79.650503 89.2355131,77.0672032 C89.2383514,76.9638089 89.2470508,76.8606587 89.2615694,76.7582495 L92.4143863,76.7582495 L92.4143863,76.9406439 C92.4404427,78.3849095 93.3970825,78.8502012 94.2755533,78.8502012 C95.1540241,78.8502012 96.0846076,78.4779678 96.0846076,77.3612676 C96.0846076,74.4987928 89.4439638,76.5386318 89.4439638,71.2938632 C89.4439638,68.5318913 91.5880282,67.1620724 94.3016097,67.1620724 C96.8886318,67.1620724 98.9061368,68.5318913 98.9061368,70.8546278 Z" id="Path"></path>
            <path d="M110.55332,65.2004024 L107.456338,65.2004024 L107.456338,62.3863179 L110.55332,62.3863179 L110.55332,65.2004024 Z M110.55332,81.0575453 L107.456338,81.0575453 L107.456338,67.4747485 L110.55332,67.4747485 L110.55332,81.0575453 Z" id="Shape" fill-rule="nonzero"></path>
            <path d="M123.477264,71.5283702 L123.477264,81.0575453 L120.376559,81.0575453 L120.376559,72.3807847 C120.376559,70.6238431 119.706539,69.9798793 118.593561,69.9798793 C117.38008,69.9798793 116.475553,71.1673038 116.475553,72.6897384 L116.475553,81.0575453 L113.374849,81.0575453 L113.374849,67.4747485 L115.958149,67.4747485 L116.267103,69.1535211 L116.423441,69.1535211 C117.142833,67.9357794 118.44492,67.1810482 119.859155,67.1620724 C121.954829,67.1620724 123.477264,68.327163 123.477264,71.5283702 Z" id="Path"></path>
            <path d="M135.120724,79.3787726 L134.808048,81.0575453 L132.228471,81.0575453 L132.228471,62.3863179 L135.325453,62.3863179 L135.325453,68.8631791 L135.455734,68.8631791 C135.947082,67.7799799 137.112173,67.1583501 138.47827,67.1583501 C140.882897,67.1583501 142.688229,69.3024145 142.688229,74.2307847 C142.688229,79.1591549 141.013179,81.3590543 138.325654,81.3590543 C136.997334,81.3646297 135.791182,80.5848657 135.251006,79.371328 L135.120724,79.3787726 Z M135.325453,74.7556338 C135.325453,77.2086519 135.89497,78.5524145 137.39507,78.5524145 C138.895171,78.5524145 139.460966,77.2086519 139.460966,74.7556338 L139.460966,73.7729376 C139.460966,71.3199195 138.891449,69.9798793 137.39507,69.9798793 C135.898692,69.9798793 135.325453,71.3720322 135.325453,73.8250503 L135.325453,74.7556338 Z" id="Shape" fill-rule="nonzero"></path>
            <polygon id="Path" points="148.230785 81.0575453 145.13008 81.0575453 145.13008 62.3863179 148.230785 62.3863179"></polygon>
            <path d="M159.859356,71.1673038 L159.859356,77.867505 C159.859356,78.5151911 160.23159,78.7720322 160.581489,78.7720322 L161.203119,78.7720322 L161.203119,80.9682093 C160.636478,81.259677 160.004887,81.4018809 159.368008,81.3813883 C158.248323,81.4245394 157.24946,80.6827476 156.967103,79.5983903 L156.836821,79.5983903 C156.062575,80.6815895 155.206439,81.3813883 153.397384,81.3813883 C152.131791,81.3813883 149.987726,80.7076459 149.987726,77.5585513 C149.987726,73.8920523 152.779477,72.8088531 156.732596,72.8088531 L156.732596,71.3869215 C156.732596,70.4600604 156.501811,69.7081489 155.310664,69.7081489 C154.04507,69.7081489 153.684004,70.4823944 153.684004,71.1300805 L153.684004,71.5023139 L150.661469,71.5023139 C150.637863,71.3134518 150.629151,71.1230254 150.635412,70.9327968 C150.635412,68.662173 152.444467,67.1620724 155.232495,67.1620724 C158.385312,67.1620724 159.859356,68.6361167 159.859356,71.1673038 Z M156.732596,75.0385312 C154.923541,75.0385312 153.1666,75.5038229 153.1666,77.2719316 C153.1666,78.1987928 153.631891,78.7943662 154.692757,78.7943662 C156.163078,78.7943662 156.732596,77.4245473 156.732596,75.816499 L156.732596,75.0385312 Z" id="Shape" fill-rule="nonzero"></path>
            <path d="M172.262173,72.5855131 L169.0833,72.5855131 C169.0833,70.6759557 168.565895,69.7714286 167.50503,69.7714286 C166.191046,69.7714286 165.699698,71.1673038 165.699698,73.7729376 L165.699698,74.7556338 C165.699698,77.3612676 166.217103,78.7571429 167.609256,78.7571429 C168.725956,78.7571429 169.187525,77.800503 169.187525,75.9430584 L172.262173,75.9430584 C172.262173,79.739839 170.453119,81.366499 167.609256,81.366499 C164.069316,81.366499 162.468712,79.1330986 162.468712,74.2642857 C162.468712,69.3954728 164.15493,67.1620724 167.50503,67.1620724 C170.401006,67.1620724 172.262173,68.7924547 172.262173,72.5855131 Z" id="Path"></path>
            <polygon id="Path" points="177.689336 72.8721328 181.486117 67.4747485 184.791549 67.4747485 180.763984 72.9986922 185 81.0575453 181.564286 81.0575453 178.824648 75.4256539 177.689336 76.8215292 177.689336 81.0575453 174.577465 81.0575453 174.577465 62.3863179 177.678169 62.3863179"></polygon>
        </g>
    </g>
</svg>