<?xml version="1.0" encoding="iso-8859-1"?>
<!-- Generator: Adobe Illustrator 19.0.0, SVG Export Plug-In . SVG Version: 6.00 Build 0)  -->
<svg version="1.1" id="Capa_1" xmlns="http://www.w3.org/2000/svg" xmlns:xlink="http://www.w3.org/1999/xlink" x="0px" y="0px"
	 viewBox="0 0 512 512" style="enable-background:new 0 0 512 512;" xml:space="preserve">
<circle style="fill:#F24976;" cx="250.5" cy="267" r="245"/>
<path style="fill:#C3DDF4;" d="M427.396,157.205c-32.48,0-60.383-19.934-72.144-48.205H56.5v55.486
	c13.443-11.986,31.147-19.289,50.531-19.289h9.438c41.921,0,76.026,34.105,76.026,76.026v69.384
	c0,18.939-7.006,37.083-19.727,51.093c-0.215,0.236-0.304,0.561-0.239,0.873c0.064,0.313,0.274,0.576,0.564,0.708
	c11.787,5.383,19.403,17.224,19.403,30.166V441h230.469c18.249-18.089,33.671-39.023,45.536-62.09V145.475
	C456.552,152.9,442.47,157.205,427.396,157.205z"/>
<path style="fill:#293D7C;" d="M436.602,391.569H192.495v15h244.107c4.142,0,7.5-3.357,7.5-7.5
	C444.102,394.927,440.744,391.569,436.602,391.569z"/>
<path style="fill:#FFFFFF;" d="M272.002,333.52H179.23c-1.954,2.853-4.109,5.589-6.463,8.181c-0.215,0.236-0.304,0.561-0.239,0.873
	c0.064,0.313,0.274,0.576,0.564,0.708c11.503,5.253,19.013,16.66,19.369,29.236h79.541c1.65,0,3-1.35,3-3V336.52
	C275.002,334.869,273.652,333.52,272.002,333.52z"/>
<path style="fill:#293D7C;" d="M349.293,79.103c0-10.284,2.017-20.102,5.646-29.103H66.5c-5.5,0-10,4.5-10,10v50h299.179
	C351.577,100.518,349.293,90.073,349.293,79.103z"/>
<path style="fill:#E26693;" d="M86.852,88.287c-2.139,0-4.224-0.865-5.735-2.366c-1.502-1.513-2.366-3.597-2.366-5.735
	c0-2.129,0.864-4.213,2.366-5.725c1.512-1.514,3.597-2.377,5.735-2.377c2.128,0,4.224,0.863,5.725,2.377
	c1.513,1.512,2.377,3.596,2.377,5.725c0,2.139-0.864,4.223-2.377,5.735C91.076,87.422,88.98,88.287,86.852,88.287z"/>
<path style="fill:#FFD00D;" d="M113.42,88.287c-2.128,0-4.224-0.865-5.726-2.377c-1.512-1.502-2.376-3.586-2.376-5.725
	c0-2.129,0.864-4.213,2.376-5.725c1.513-1.514,3.598-2.377,5.726-2.377c2.139,0,4.223,0.863,5.736,2.377
	c1.501,1.512,2.365,3.596,2.365,5.725c0,2.128-0.864,4.223-2.365,5.725C117.643,87.422,115.559,88.287,113.42,88.287z"/>
<path style="fill:#02AF8E;" d="M139.998,88.287c-2.139,0-4.224-0.865-5.725-2.366c-1.513-1.513-2.377-3.597-2.377-5.735
	c0-2.129,0.864-4.213,2.377-5.725c1.501-1.514,3.586-2.377,5.725-2.377c2.128,0,4.224,0.863,5.725,2.377
	c1.513,1.512,2.377,3.596,2.377,5.725c0,2.139-0.864,4.223-2.377,5.735C144.211,87.422,142.126,88.287,139.998,88.287z"/>
<g>
	<path style="fill:#293D7C;" d="M270.059,226.738h-77.564v15h77.564c4.142,0,7.5-3.357,7.5-7.5
		C277.559,230.096,274.201,226.738,270.059,226.738z"/>
	<path style="fill:#293D7C;" d="M270.059,251.935h-77.564v15h77.564c4.142,0,7.5-3.358,7.5-7.5
		C277.559,255.292,274.201,251.935,270.059,251.935z"/>
	<path style="fill:#293D7C;" d="M270.059,277.132h-77.564v13.476c0,0.51-0.024,1.016-0.035,1.524h77.598c4.142,0,7.5-3.357,7.5-7.5
		C277.559,280.489,274.201,277.132,270.059,277.132z"/>
	<path style="fill:#293D7C;" d="M270.059,302.328h-78.485c-0.799,5.139-2.108,10.164-3.922,15h82.408c4.142,0,7.5-3.357,7.5-7.5
		S274.201,302.328,270.059,302.328z"/>
</g>
<path style="fill:#FFFFFF;" d="M272.51,128.498H84.998c-1.65,0-3,1.35-3,3v17.954c7.845-2.745,16.264-4.255,25.033-4.255h9.438
	c36.712,0,67.428,26.157,74.495,60.813h81.546c1.65,0,3-1.35,3-3v-71.513C275.51,129.848,274.16,128.498,272.51,128.498z"/>
<path style="fill:#D9EAFC;" d="M101.84,145.395v-13.896c0-1.65,1.35-3,3-3H84.998c-1.65,0-3,1.35-3,3v17.954
	C88.28,147.254,94.934,145.863,101.84,145.395z"/>
<path style="fill:#52BBEF;" d="M159.342,339.294h-28.328v6.972c0,10.621-8.642,19.263-19.264,19.263s-19.263-8.642-19.263-19.263
	v-6.972H64.158c-18.862,0-34.152,15.291-34.152,34.153v0.467c31.67,65.193,91.4,114.223,163.489,131.403v-131.87
	C193.495,354.585,178.205,339.294,159.342,339.294z"/>
<path style="fill:#1E99D6;" d="M49.848,373.447c0-18.862,15.29-34.153,34.152-34.153H64.158c-18.862,0-34.152,15.291-34.152,34.153
	v0.467c5.724,11.783,12.377,23.029,19.842,33.664C49.848,407.578,49.848,373.447,49.848,373.447z"/>
<path style="fill:#FFDD8D;" d="M114.409,334.271c-0.871,0.202-1.765,0.305-2.659,0.305c-0.893,0-1.788-0.103-2.658-0.305
	c-6.095-1.417-11.996-3.527-17.604-6.235v18.23c0,11.191,9.071,20.263,20.263,20.263c11.191,0,20.264-9.071,20.264-20.263v-18.23
	C126.405,330.743,120.504,332.853,114.409,334.271z"/>
<path style="fill:#FFE2B8;" d="M146.131,207.362c-7.111,14.262-21.834,24.063-38.854,24.063H42.131v19.714
	c0,19.614,6.759,38.82,19.029,54.079c12.081,15.021,29.023,25.684,47.705,30.026c0.949,0.221,1.917,0.331,2.885,0.331
	c0.969,0,1.936-0.11,2.886-0.331c18.683-4.343,35.624-15.006,47.704-30.026c12.271-15.259,19.029-34.465,19.029-54.079V231.27
	C165.898,229.993,152.734,220.604,146.131,207.362z"/>
<path style="fill:#FFC987;" d="M81.002,305.218c-12.271-15.259-19.029-34.465-19.029-54.079v-19.714H42.131v19.714
	c0,19.614,6.759,38.82,19.029,54.079c12.081,15.021,29.023,25.684,47.705,30.026c0.949,0.221,1.917,0.331,2.885,0.331
	c0.969,0,1.936-0.11,2.886-0.331c2.376-0.553,4.723-1.209,7.036-1.962C105.796,328.116,91.547,318.328,81.002,305.218z"/>
<g>
	<path style="fill:#A53535;" d="M77.369,271.388c-3.746,0-6.783-3.035-6.783-6.783v-11.756c0-3.746,3.037-6.782,6.783-6.782
		c3.746,0,6.783,3.036,6.783,6.782v11.756C84.152,268.353,81.115,271.388,77.369,271.388z"/>
	<path style="fill:#A53535;" d="M146.132,271.388c-3.747,0-6.782-3.035-6.782-6.783v-11.756c0-3.746,3.035-6.782,6.782-6.782
		c3.745,0,6.782,3.036,6.782,6.782v11.756C152.914,268.353,149.877,271.388,146.132,271.388z"/>
	<path style="fill:#A53535;" d="M117.629,286.009h-8.14c-5.735,0-10.4-4.666-10.4-10.401v-19.292c0-3.745,3.037-6.782,6.782-6.782
		c3.747,0,6.782,3.037,6.782,6.782v16.127h4.975c3.746,0,6.783,3.037,6.783,6.782C124.412,282.972,121.375,286.009,117.629,286.009z
		"/>
</g>
<path style="fill:#FFFFFF;" d="M138.37,426.224l-19.834-42.14c-1.237-2.628-3.881-4.306-6.786-4.306
	c-2.905,0-5.549,1.678-6.786,4.307l-19.833,42.14c-1.764,3.747-0.155,8.216,3.592,9.979c3.746,1.762,8.216,0.155,9.98-3.593
	l3.003-6.381h20.088l3.004,6.382c1.278,2.715,3.976,4.308,6.791,4.308c1.07,0,2.157-0.23,3.189-0.716
	C138.526,434.44,140.134,429.972,138.37,426.224z M108.766,411.23l2.984-6.341l2.984,6.341H108.766z"/>
<path style="fill:#A53535;" d="M111.75,317.843c-12.821,0-23.252-10.431-23.252-23.253c0-3.01,2.439-5.449,5.449-5.449
	c3.01,0,5.45,2.44,5.45,5.449c0,6.812,5.542,12.354,12.353,12.354c6.812,0,12.353-5.542,12.353-12.354c0-3.01,2.44-5.449,5.45-5.449
	c3.01,0,5.45,2.44,5.45,5.449C135.004,307.412,124.572,317.843,111.75,317.843z"/>
<path style="fill:#52BBEF;" d="M291.51,369.518c0,1.65,1.35,3,3,3h145.492c1.65,0,3-1.35,3-3V336.52c0-1.65-1.35-3-3-3H294.51
	c-1.65,0-3,1.35-3,3V369.518z"/>
<path style="fill:#1E99D6;" d="M311.352,369.518V336.52c0-1.65,1.35-3,3-3H294.51c-1.65,0-3,1.35-3,3v32.998c0,1.65,1.35,3,3,3
	h19.842C312.702,372.518,311.352,371.168,311.352,369.518z"/>
<path style="fill:#52BBEF;" d="M427.396,157.205c-24.342,0-46.113-11.197-60.448-28.707H294.51c-1.65,0-3,1.35-3,3V320.99
	c0,1.65,1.35,3,3,3h145.492c1.65,0,3-1.35,3-3V155.636C437.958,156.663,432.739,157.205,427.396,157.205z"/>
<path style="fill:#1E99D6;" d="M311.352,320.99V131.498c0-1.65,1.35-3,3-3H294.51c-1.65,0-3,1.35-3,3V320.99c0,1.65,1.35,3,3,3
	h19.842C312.702,323.99,311.352,322.641,311.352,320.99z"/>
<path style="fill:#FFFFFF;" d="M388.919,147.028H311.99c-1.65,0-3,1.35-3,3v23.998c0,1.65,1.35,3,3,3h110.53c1.65,0,3-1.35,3-3
	v-16.869C412.24,156.842,399.774,153.201,388.919,147.028z"/>
<circle style="fill:#FFAF10;" cx="367.25" cy="248.75" r="54.75"/>
<path style="fill:#DB722C;" d="M360.152,274.68c-1.919,0-3.839-0.732-5.303-2.196l-20.652-20.651c-2.929-2.929-2.929-7.678,0-10.606
	c2.929-2.93,7.678-2.929,10.606-0.001l15.349,15.349l29.814-29.815c2.929-2.928,7.678-2.928,10.607,0
	c2.929,2.93,2.929,7.678,0,10.607l-35.117,35.119C363.991,273.947,362.072,274.68,360.152,274.68z"/>
<circle style="fill:#EF9614;" cx="427.4" cy="79.1" r="79.1"/>
<circle style="fill:#FFD00D;" cx="427.4" cy="79.1" r="56.22"/>
<path style="fill:#FFAF10;" d="M391.02,79.103c0-27.661,19.983-50.64,46.297-55.327c-3.222-0.574-6.534-0.891-9.921-0.891
	c-31.05,0-56.219,25.169-56.219,56.218c0,31.05,25.169,56.221,56.219,56.221c3.387,0,6.699-0.316,9.921-0.891
	C411.003,129.744,391.02,106.765,391.02,79.103z"/>
<path style="fill:#DB722C;" d="M438.441,71.887h-18.839v-6.524h23.087c4.142,0,7.5-3.357,7.5-7.5s-3.358-7.5-7.5-7.5h-7.793v-4.394
	c0-4.143-3.358-7.5-7.5-7.5s-7.5,3.357-7.5,7.5v4.394h-3.545c-6.479,0-11.749,5.271-11.749,11.749v13.027
	c0,6.478,5.271,11.748,11.749,11.748h18.838v6.522h-23.087c-4.142,0-7.5,3.357-7.5,7.5s3.358,7.5,7.5,7.5h7.794v3.829
	c0,4.143,3.358,7.5,7.5,7.5s7.5-3.357,7.5-7.5v-3.829h3.545c6.478,0,11.748-5.271,11.748-11.748V83.635
	C450.189,77.157,444.919,71.887,438.441,71.887z"/>
<path style="fill:#A53535;" d="M116.469,144.197h-9.438c-42.54,0-77.025,34.485-77.025,77.026v69.384
	c0,19.928,7.568,38.088,19.987,51.765c4.316-1.972,9.11-3.078,14.165-3.078h27.329v-10.145
	c-11.695-5.566-22.132-13.742-30.327-23.932c-12.271-15.259-19.029-34.465-19.029-54.079v-19.714h65.146
	c17.02,0,31.742-9.801,38.854-24.063c6.604,13.241,19.768,22.631,35.238,23.908v19.868c0,19.614-6.758,38.82-19.029,54.079
	c-8.195,10.189-18.631,18.366-30.326,23.932v10.145h27.328c5.056,0,9.85,1.106,14.166,3.078
	c12.419-13.676,19.987-31.837,19.987-51.765v-69.384C193.495,178.683,159.01,144.197,116.469,144.197z"/>
<g>
</g>
<g>
</g>
<g>
</g>
<g>
</g>
<g>
</g>
<g>
</g>
<g>
</g>
<g>
</g>
<g>
</g>
<g>
</g>
<g>
</g>
<g>
</g>
<g>
</g>
<g>
</g>
<g>
</g>
</svg>
