<?xml version="1.0" encoding="UTF-8"?>
<svg width="80px" height="84px" viewBox="0 0 80 84" version="1.1" xmlns="http://www.w3.org/2000/svg" xmlns:xlink="http://www.w3.org/1999/xlink">
    <!-- Generator: Sketch 53 (72520) - https://sketchapp.com -->
    <title>Group 27</title>
    <desc>Created with Sketch.</desc>
    <defs>
        <polygon id="path-1" points="0.120016327 0.154758363 24.1134694 0.154758363 24.1134694 57.3989045 0.120016327 57.3989045"></polygon>
        <polygon id="path-3" points="0.130146894 0.0315146891 15.9803703 0.0315146891 15.9803703 46.7385563 0.130146894 46.7385563"></polygon>
    </defs>
    <g id="Page-1" stroke="none" stroke-width="1" fill="none" fill-rule="evenodd">
        <g id="Desktop-HD-Copy-3" transform="translate(-680.000000, -747.000000)">
            <g id="Group-27" transform="translate(680.000000, 747.000000)">
                <path d="M42.9201633,83.3802817 L37.0426122,83.3802817 C36.8716735,83.2022843 36.6434286,83.230132 36.4311837,83.2215009 C34.746449,83.1524516 33.0912653,82.8552465 31.4545306,82.4914349 C23.8011429,80.7901188 17.1877551,77.1752905 11.6372245,71.6472755 C10.2948571,70.3104225 8.9915102,68.9333451 7.9755102,67.3185035 C8.02383673,64.746743 8.07395918,62.1751452 8.11983673,59.6033847 C8.14726531,58.066875 8.70906122,57.4957526 10.232,57.493147 C14.0889796,57.4869586 17.9462857,57.507478 21.8027755,57.4683935 C22.6819592,57.4594366 23.3996735,57.6631646 23.9748571,58.3253213 C23.9774694,59.8986356 23.947102,61.4727641 23.9898776,63.0447755 C24.0587755,65.5727289 24.778449,67.8327905 26.8202449,69.5155414 C28.4594286,70.8663996 30.3539592,71.558684 32.4568163,71.446316 C34.792,71.3212456 36.7222857,70.2436532 38.1990204,68.4441373 C39.1004082,67.3456998 39.8132245,66.118772 39.8143673,64.6317694 C39.8202449,55.5991769 39.8151837,46.5664217 39.8140408,37.5338292 C39.9278367,33.9027157 39.7454694,30.267368 39.9595102,26.6380458 C42.24,28.0416681 44.7033469,28.8767738 47.3915102,28.9816505 C50.4989388,29.1026496 53.3353469,28.230088 55.956898,26.6002641 C55.9647347,27.9008011 55.9779592,29.2015009 55.9799184,30.5020379 C55.9890612,36.653125 55.995102,42.8042121 56.0022857,48.9551364 C55.9952653,53.945088 56.0628571,58.9365053 55.9577143,63.9243398 C55.8741224,67.8933715 59.6878367,71.5967914 64.0342857,71.4533187 C68.2342857,71.3145687 71.544,68.0002025 71.8533878,63.842588 C72.0871837,64.9993266 71.8604082,66.1721875 71.9756735,67.3329974 C71.9459592,67.6275968 71.7121633,67.7954974 71.5497143,68.0052509 C69.8659592,70.1790009 67.973551,72.1573283 65.8651429,73.9219938 C60.1364898,78.7165229 53.5980408,81.7589261 46.1926531,82.9039393 C45.1033469,83.0723283 44.011102,83.2219894 42.9201633,83.3802817" id="Fill-1" fill="#00E2F6"></path>
                <path d="M49.2875102,0 C50.5498776,0.284502641 51.8370612,0.458754401 53.0533878,0.939819542 C57.0524082,2.52111356 59.8607347,5.28894806 61.4631837,9.27247359 C61.5737143,9.54704225 61.6958367,9.81672535 61.8125714,10.0886884 C61.8741224,10.3505546 61.9377959,10.6116065 61.9967347,10.8737984 C63.1462857,15.9982658 62.027102,20.5322315 58.4497959,24.4256998 C57.8759184,24.4414965 57.3113469,24.4138116 56.7779592,24.1607394 C55.7167347,23.6575264 55.0174694,22.29136 55.9732245,21.1787544 C58.0977959,18.7053565 58.8821224,15.7570819 58.2466939,12.5361928 C57.1443265,6.94629401 52.0638367,3.30198944 46.2731429,4.13709507 C45.5807347,4.23708627 44.9288163,4.39016725 44.4486531,3.68387764 C43.9284898,2.91847271 43.684898,2.14378521 44.1578776,1.25184419 C44.2793469,1.02271127 44.6524082,0.830545775 44.3933061,0.474388204 C45.0644898,0.160083627 45.8328163,0.278314261 46.512,0 L49.2875102,0 Z" id="Fill-3" fill="#FEE500"></path>
                <path d="M7.97547755,67.3185198 C4.92306939,63.393621 2.81792653,58.9959626 1.47539592,54.2309098 C0.214008163,49.7539423 -0.226644898,45.1906633 0.107885714,40.5466096 C0.657926531,32.9130797 3.19768163,25.9965876 7.76225306,19.8709054 C14.0842122,11.3867989 22.5026612,6.17439129 32.9304163,4.20827773 C34.6718041,3.87980502 36.4285388,3.73177245 38.1924571,3.6278728 C38.0091102,3.82508671 37.8275592,4.02409199 37.6424163,4.21935167 C34.0435592,8.01592298 32.6982531,12.4795365 33.7612735,17.6036783 C34.5611102,21.4578992 36.7514776,24.4055224 39.9593143,26.6375735 C39.7454367,30.2673842 39.9278041,33.902732 39.8140082,37.5335198 C39.2411102,36.7715348 38.4158041,36.6901087 37.5527837,36.6801747 C33.8623347,36.6376703 30.1728653,36.8094793 26.4812735,36.6945057 C24.5921306,36.635879 23.9834776,37.2900559 23.9826612,39.1485242 C23.9795592,45.5407953 23.9774367,51.9330665 23.9748245,58.3253376 C23.3996408,57.6631809 22.6819265,57.4594529 21.8027429,57.4684098 C17.9462531,57.5074943 14.0889469,57.4869749 10.2319673,57.4931633 C8.70902857,57.4957689 8.14723265,58.0667284 8.11980408,59.603401 C8.0740898,62.1751615 8.02380408,64.7467592 7.97547755,67.3185198" id="Fill-5" fill="#2D70F1"></path>
                <g id="Group-9" transform="translate(55.836735, 9.933979)">
                    <mask id="mask-2" fill="white">
                        <use xlink:href="#path-1"></use>
                    </mask>
                    <g id="Clip-8"></g>
                    <path d="M2.61307755,14.4917698 C6.19038367,10.5983015 7.30956735,6.06433583 6.16001633,0.939868398 C6.10107755,0.677676496 6.03740408,0.416461708 5.97585306,0.154758363 C10.7557714,3.18266769 14.6339755,7.12515449 17.7036898,11.845423 C21.4225469,17.5641378 23.5619755,23.8331298 24.0153633,30.6520735 C24.6661388,40.4381827 22.0795265,49.2926149 16.3103837,57.2277469 C16.2636898,57.2920735 16.196751,57.3419063 16.1391184,57.3989045 C16.0236898,56.2382575 16.2504653,55.0653966 16.0165061,53.9084952 C16.0137306,49.3862548 16.0143837,44.8640145 16.0070367,40.3417742 C16.0042612,38.7505462 15.3907102,38.1271483 13.7959347,38.123077 C9.91397551,38.1134688 6.03185306,38.1222628 2.14989388,38.1183543 C1.34515918,38.1175401 0.658791837,38.3526985 0.165567347,39.0212064 C0.158383673,32.8702821 0.152342857,26.719195 0.1432,20.5681078 C0.141240816,19.267408 0.128016327,17.966871 0.120016327,16.6663341 C0.994628571,15.9909864 1.92540408,15.3799652 2.61307755,14.4917698" id="Fill-7" fill="#2D70F1" mask="url(#mask-2)"></path>
                </g>
                <path d="M42.9230204,13.6722654 C43.0977143,14.9332293 43.9032653,15.9108305 44.4502041,17.0019397 C44.6314286,17.3633085 44.7235102,17.6281061 44.3899592,17.913423 C41.1693878,13.4089335 42.1786939,9.00932086 44.7865306,4.63185607 C40.8539592,5.58046963 37.9933878,8.94825132 37.2271837,14.338982 C36.7866939,17.4378948 40.5321633,23.1582381 43.6511837,24.1977232 C48.5057143,25.8156589 52.6952653,24.5800999 54.9026122,22.1190788 C54.3891429,21.7881633 53.8936327,22.1303156 53.4092245,22.1623974 C52.0023673,22.2560374 50.6683265,21.8443473 49.3016327,21.6665128 C49.3179592,21.0782909 49.6626122,20.8444353 50.2066122,20.7141536 C51.6067755,20.379004 52.5883265,19.4968341 53.0137959,18.1432073 C53.7078367,15.9349327 52.5486531,13.8919529 50.2905306,13.1745893 C49.8596735,13.0377936 49.4185306,13.0008261 49.4309388,12.3277584 C49.4518367,11.1967504 49.4035102,11.1998446 50.5837551,11.0562091 C50.8250612,11.0267328 51.0715918,10.9812971 51.2980408,10.8962883 C51.9439184,10.6541272 52.3306939,10.1914643 52.3021224,9.48468618 C52.2720816,8.73686928 51.7561633,8.2263279 51.0137959,8.15092738 C50.8250612,8.13171083 50.6297959,8.11917121 50.4435102,8.1453904 C49.806449,8.23512192 49.449551,8.02618266 49.2970612,7.35018354 C49.1465306,6.68200132 48.6307755,6.28643354 47.9362449,6.26721699 C47.215102,6.24718618 46.6461224,6.77596699 46.532,7.58680766 C46.4733878,8.00387192 46.2818776,8.09392914 45.9187755,8.17763512 C43.3835918,8.7616228 42.0555918,11.0058878 42.9230204,13.6722654 M58.4498776,24.4257161 C57.7622041,25.3139115 56.8312653,25.9249327 55.9568163,26.6002804 C53.3352653,28.2301043 50.4988571,29.1026659 47.3914286,28.9816668 C44.7032653,28.8767901 42.2399184,28.0416844 39.9595918,26.6380621 C36.7514286,24.4055224 34.5610612,21.4578992 33.7613878,17.6036783 C32.6982041,12.4795365 34.0435102,8.01592298 37.6423673,4.21935167 C37.8275102,4.02409199 38.0090612,3.82508671 38.1924082,3.6278728 C39.7702041,2.4450779 41.3853878,1.32612104 43.302449,0.743110475 C43.6601633,0.634488116 44.0291429,0.563158891 44.3932245,0.474567342 C44.6524898,0.83056206 44.2794286,1.02272755 44.1577959,1.25169762 C43.6848163,2.1438015 43.9284082,2.918489 44.4487347,3.68389393 C44.9287347,4.39018354 45.5806531,4.2369397 46.2732245,4.13711136 C52.0637551,3.30200572 57.1442449,6.9463103 58.2466122,12.5360462 C58.8820408,15.7570982 58.0977143,18.7053728 55.9733061,21.1787707 C55.0173878,22.2913763 55.7166531,23.6573798 56.7778776,24.1607557 C57.3112653,24.4138279 57.876,24.4415128 58.4498776,24.4257161" id="Fill-10" fill="#FEB100"></path>
                <path d="M49.301698,21.6664802 C50.6683918,21.8443147 52.0024327,22.2560048 53.4091265,22.1623649 C53.893698,22.130283 54.3892082,21.7881307 54.9026776,22.1190462 C52.6953306,24.5802302 48.5057796,25.8157892 43.651249,24.1976906 C40.5322286,23.1582055 36.7867592,17.4378622 37.227249,14.3389494 C37.9932898,8.94821875 40.8540245,5.58043706 44.7865959,4.6318235 C42.1787592,9.00928829 41.1692898,13.408901 44.3900245,17.9133904 C44.3882286,17.9635489 44.3857796,18.0135445 44.3825143,18.0635401 C43.7508408,18.4639934 43.405698,19.0198077 43.6034122,19.7700673 C43.7514939,20.3323957 44.1901878,20.6841563 44.7498612,20.8010841 C45.1145959,20.877136 45.5051265,20.8409828 45.883902,20.8360973 C46.2535347,20.8315374 46.5051265,20.9082408 46.5255347,21.3590154 C46.557698,22.0693763 46.9407184,22.5173825 47.6577796,22.6276334 C48.4577796,22.7507496 49.0262694,22.4509388 49.301698,21.6664802" id="Fill-12" fill="#FC9700"></path>
                <path d="M49.4692571,15.9582368 C49.4899918,16.6754375 49.2958694,17.263985 49.6090122,17.8556268 C50.5383184,17.1978671 50.5285224,16.6181136 49.4692571,15.9582368 L49.4692571,15.9582368 Z M46.4704,11.1584965 C45.7489306,11.132603 45.5672163,11.6009657 45.5734204,12.0836593 C45.5796245,12.5554419 45.8349714,12.9414014 46.4704,12.9057368 L46.4704,11.1584965 Z M49.3017469,21.666529 C49.0263184,22.4509877 48.4578286,22.7507984 47.6576653,22.6276822 C46.9407673,22.5172685 46.5577469,22.0692623 46.5255837,21.3590643 C46.5051755,20.9082896 46.2535837,20.8315863 45.883951,20.8361461 C45.5051755,20.8408688 45.1144816,20.8771849 44.7499102,20.8009701 C44.1902367,20.6842051 43.7515429,20.3322817 43.603298,19.7701162 C43.4055837,19.0198565 43.7508898,18.4640423 44.3825633,18.0637518 C44.8307265,17.9569208 45.2813388,17.8929199 45.7458286,17.9092051 C46.0921143,17.9215819 46.5477878,17.963272 46.4881959,17.4349798 C46.4284408,16.9070132 46.8944,16.0997553 46.0428082,15.9154067 C44.6442776,15.6129903 43.6558694,14.8448169 42.9229714,13.6722817 C42.0555429,11.005904 43.3837061,8.76163908 45.9187265,8.17765141 C46.2819918,8.09394542 46.4733388,8.0038882 46.5321143,7.58682394 C46.6460735,6.77598327 47.2150531,6.24720246 47.9361959,6.26723327 C48.6307265,6.28644982 49.1464816,6.68201761 49.2970122,7.35019982 C49.449502,8.02619894 49.8064,8.2351382 50.4434612,8.14540669 C50.6297469,8.1191875 50.8251755,8.13156426 51.0137469,8.15094366 C51.7561143,8.22618134 52.2720327,8.73688556 52.3022367,9.48470246 C52.3306449,10.1914806 51.9438694,10.6541435 51.2979918,10.8963046 C51.0715429,10.9811505 50.8251755,11.0267491 50.5837061,11.0560625 C49.4036245,11.1998609 49.451951,11.1967667 49.4310531,12.3277746 C49.4184816,13.0008424 49.8597878,13.037647 50.2904816,13.1746056 C52.5486041,13.8919692 53.7077878,15.9347861 53.0137469,18.1432236 C52.5882776,19.4968504 51.6068898,20.3790202 50.2067265,20.7141699 C49.6627265,20.8444516 49.3179102,21.0781444 49.3017469,21.666529 L49.3017469,21.666529 Z" id="Fill-14" fill="#FEE400"></path>
                <path d="M42.9230204,13.6722654 C43.6557551,14.8448006 44.6443265,15.612974 46.0426939,15.9153904 C46.8942857,16.099739 46.4284898,16.9069969 46.4882449,17.4349635 C46.5478367,17.9632557 46.0921633,17.9215656 45.7458776,17.9093517 C45.2812245,17.8929036 44.8307755,17.9570673 44.382449,18.0637355 C44.3857143,18.013577 44.3883265,17.9635814 44.3899592,17.913423 C44.7235102,17.6281061 44.6314286,17.3633085 44.4502041,17.0019397 C43.9032653,15.9108305 43.0977143,14.9332293 42.9230204,13.6722654" id="Fill-16" fill="#FEB100"></path>
                <path d="M46.4703837,11.1585453 L46.4703837,12.9057857 C45.8349551,12.9412874 45.5796082,12.5554908 45.5734041,12.0837082 C45.5672,11.6010145 45.7489143,11.1326518 46.4703837,11.1585453" id="Fill-18" fill="#FEB500"></path>
                <path d="M49.4692571,15.9582368 C50.5285224,16.6181136 50.5383184,17.1978671 49.6090122,17.8556268 C49.2958694,17.263985 49.4899918,16.6754375 49.4692571,15.9582368" id="Fill-20" fill="#F3AA00"></path>
                <g id="Group-24" transform="translate(23.836735, 36.641725)">
                    <mask id="mask-4" fill="white">
                        <use xlink:href="#path-3"></use>
                    </mask>
                    <g id="Clip-23"></g>
                    <path d="M13.7160653,0.0384819542 C10.0256163,-0.0041852993 6.33614694,0.167786532 2.6445551,0.0528129401 C0.755412245,-0.00581382042 0.146759184,0.648363116 0.145942857,2.50683143 C0.142677551,8.89910255 0.140718367,15.2913737 0.138269388,21.6836448 C0.140065306,22.8480374 0.123902041,36.0587636 0.132881633,43.4815629 C4.99198367,45.5755154 10.3490449,46.7382795 15.9789224,46.7386052 C15.9825143,35.0917478 15.9784327,9.04273812 15.9772898,0.891664173 C15.4042286,0.129841989 14.5790857,0.0484159331 13.7160653,0.0384819542" id="Fill-22" fill="#60EEF9" mask="url(#mask-4)"></path>
                </g>
                <path d="M71.8508082,67.3805339 C71.8496653,60.5953006 71.8480327,52.9332716 71.8437878,50.2758508 C71.8410122,48.6844599 71.2274612,48.0610621 69.6326857,48.0571536 C65.7507265,48.0473825 61.8686041,48.0563393 57.9866449,48.052268 C57.1819102,48.0516166 56.4955429,48.2866122 56.0023184,48.9551202 C55.9954612,53.9450717 56.0628898,73.430327 55.9577469,78.4181615 C55.9469714,78.9287029 56.0018286,79.4346844 56.1126857,79.9286149 C62.3744,77.1389582 67.7859918,72.7924353 71.8508082,67.3805339" id="Fill-25" fill="#60EEF9"></path>
            </g>
        </g>
    </g>
</svg>