<?xml version="1.0" encoding="UTF-8"?>
<svg width="80px" height="84px" viewBox="0 0 80 84" version="1.1" xmlns="http://www.w3.org/2000/svg" xmlns:xlink="http://www.w3.org/1999/xlink">
    <!-- Generator: Sketch 53 (72520) - https://sketchapp.com -->
    <title>Group 138</title>
    <desc>Created with Sketch.</desc>
    <defs>
        <polygon id="path-1" points="0 0.113546556 1.80931638 0.113546556 1.80931638 23.2238973 0 23.2238973"></polygon>
    </defs>
    <g id="Page-1" stroke="none" stroke-width="1" fill="none" fill-rule="evenodd">
        <g id="Desktop-HD-Copy-3" transform="translate(-293.000000, -747.000000)">
            <g id="Group-138" transform="translate(293.000000, 747.000000)">
                <path d="M69.8924969,56.7570153 L6.67457434,56.7570153 C6.40573523,56.7570153 6.18577597,56.5374681 6.18577597,56.2691327 L6.18577597,13.6607143 C6.18577597,13.3923788 6.40573523,13.1728316 6.67457434,13.1728316 L69.8924969,13.1728316 C70.161336,13.1728316 70.3812953,13.3923788 70.3812953,13.6607143 L70.3812953,56.2691327 C70.3812953,56.5374681 70.161336,56.7570153 69.8924969,56.7570153" id="Fill-1" fill="#00D7F3"></path>
                <path d="M72.98822,56.7570153 L12.5401548,56.7570153 C12.2713157,56.7570153 12.0513564,56.5374681 12.0513564,56.2691327 L12.0513564,13.6607143 C12.0513564,13.3923788 12.2713157,13.1728316 12.5401548,13.1728316 L72.98822,13.1728316 C73.2570591,13.1728316 73.4770183,13.3923788 73.4770183,13.6607143 L73.4770183,56.2691327 C73.4770183,56.5374681 73.2570591,56.7570153 72.98822,56.7570153" id="Fill-3" fill="#00E3F6"></path>
                <path d="M40.7275275,0 C41.3557963,0.127337372 41.9873238,0.240688776 42.6116823,0.384288903 C45.6855723,1.09171875 48.2237393,2.69961735 50.3509898,4.99266582 C51.2735153,6.22050383 52.1499308,7.47615115 52.7343707,8.90873724 C53.2987699,10.2868431 53.6453279,11.7184534 53.7970183,13.1982015 C53.8004399,13.3593654 53.8009287,13.520692 53.8079348,13.6816932 C53.9896049,17.8049522 52.7004807,21.3887755 49.8612138,24.4042156 C47.8066314,24.3648597 47.2720489,23.9433291 46.7635356,21.9607366 C46.8808473,21.8135587 46.9935967,21.6624777 47.1161222,21.5198533 C49.6194216,18.6024777 50.4241466,15.3250446 49.4103788,11.5702997 C48.2564888,7.29595982 43.9386069,3.93379783 39.5671202,4.04536033 C38.5368961,4.07154337 37.5206843,4.2263648 36.4932301,4.23563457 C36.4401141,4.23124362 36.386835,4.22750319 36.333556,4.22490115 C36.2209695,4.01088329 36.0577108,3.8474426 35.8429654,3.73539222 C35.2368554,2.76694515 35.2023136,1.78776467 35.7942485,0.800615434 C35.8618656,0.687751913 35.9731487,0.591801658 35.8255316,0.464139031 C36.4818248,0.30948023 37.138444,0.154658801 37.7947373,0 L40.7275275,0 Z" id="Fill-5" fill="#FEE500"></path>
                <path d="M48.0599919,79.0382583 C48.1137597,79.0369573 48.1676904,79.0363068 48.2216212,79.0363068 C49.8022322,79.0345179 51.3830061,79.0324037 52.9636171,79.0304522 C53.557833,79.0441129 54.1523747,79.0577736 54.7467536,79.0714343 C54.8417434,79.187713 54.9702974,79.1974707 55.1060204,79.1834847 C55.2044318,79.2078788 55.3025173,79.232273 55.4009287,79.2568297 C55.4494827,79.2922825 55.4980367,79.3277353 55.5467536,79.3631881 C55.7947373,79.4259624 55.9609287,79.5871263 56.0808473,79.8043967 L56.0285458,79.8613163 C55.9011324,79.8551365 55.7891976,79.8818074 55.7253279,80.0071932 L55.7091976,80.0179267 C55.5795031,80.0166256 55.4639837,80.0441097 55.3950631,80.1685198 C55.291112,80.1960038 55.1822729,80.2117787 55.0838615,80.2525982 C52.0847576,81.4986505 48.9909898,82.3913131 45.759055,82.7912143 C44.7832505,82.9118839 43.8165703,83.1052481 42.8456538,83.2652736 L37.1430061,83.2652736 C36.4107862,83.0075089 35.6345743,83.0540204 34.881336,82.9411569 C34.5999511,82.8988737 34.2853279,83.0367819 34.0436986,82.7835708 C34.0625988,82.7133157 34.1157149,82.6308635 34.0955112,82.5744318 C33.4165703,80.685838 33.5834134,80.1415236 35.1904196,79.0397219 C35.3484644,79.0364694 35.5066721,79.0332168 35.6647169,79.0299643 C38.3738004,79.0324037 41.082721,79.032729 43.7918045,79.0403724 L48.0599919,79.0382583 Z" id="Fill-7" fill="#DDFAFE"></path>
                <path d="M1.78023625,31.825919 C1.79278208,26.1350931 1.80402444,20.4441046 1.81819959,14.7532787 C1.82422811,12.3429758 2.73485947,10.4482022 4.9665499,9.32753571 C5.60068432,9.00894834 6.2853279,8.8056639 6.99506314,8.80241135 C9.81803666,8.78907589 12.6411731,8.80322449 15.4643096,8.80712755 C15.3043096,8.90177679 15.1555519,9.0317162 14.9826802,9.0860338 C12.9513971,9.72499745 11.7869165,11.1518916 11.2407658,13.1496084 C10.0748187,13.1577398 8.90887169,13.1686358 7.74308758,13.1728642 C6.61396334,13.1767672 6.20467617,13.5508106 6.20435031,14.6511486 C6.20076578,28.1352494 6.20043992,41.6195128 6.2048391,55.1037761 C6.2053279,56.2777844 6.70748676,56.745176 7.91090835,56.75347 C8.96850509,56.7607883 10.0259389,56.766155 11.0836986,56.7724974 C11.0781589,58.1847551 11.0727821,59.5970128 11.0675682,61.0092704 C9.8872831,61.0091078 8.70699796,61.0091078 7.52671283,61.0089452 C6.38732383,60.9990249 5.24826069,60.988942 4.10903462,60.9790217 C3.13127495,59.0422902 2.23481874,57.0741716 1.78137678,54.9362698 C1.79115275,53.0175899 1.81070468,51.0985848 1.80923829,49.1797423 C1.80402444,43.3950804 1.79050102,37.6104184 1.78023625,31.825919" id="Fill-9" fill="#5523AA"></path>
                <path d="M36.3336049,4.22481983 C36.3868839,4.2275845 36.44,4.23116231 36.4931161,4.23539062 C36.6614257,4.50730389 36.6684318,4.7375845 36.3270876,4.87841996 C36.1850102,4.27230708 35.7991853,4.65513233 35.5678208,4.7357956 C30.9700204,6.34206792 28.2628921,11.2877344 28.9778411,15.8590322 C29.6734012,20.3062452 32.216945,23.1369404 36.4543381,24.5278938 C36.6783707,24.6014015 36.8931161,24.7036942 37.1119348,24.7924888 C36.8849695,24.980161 36.6203666,24.8591661 36.3748269,24.8728268 C35.9153564,24.898522 35.4540937,24.89283 34.9934827,24.9001483 C33.0511609,24.89283 31.1086762,24.8855118 29.1663544,24.8783562 C29.048391,24.7352439 28.9375967,24.585464 28.8114868,24.4501578 C26.5252138,21.9972465 25.1829735,19.1203651 24.8901833,15.7707254 C24.9134827,15.5846795 24.8870876,15.4092044 24.7774338,15.2519436 L24.7469654,14.7988632 C24.7886762,14.2646317 24.830387,13.7307254 24.8720978,13.1968192 C24.9586151,11.6751132 25.4676171,10.2522848 25.9023218,8.81205517 C26.5517719,7.70862723 27.201222,6.60503667 27.850835,5.50160874 C27.850835,5.50160874 27.8360081,5.52453922 27.8360081,5.52437659 C27.889613,5.48274394 27.9432179,5.44111129 27.9966599,5.39980389 C29.9331161,3.10512915 32.2971079,1.4479544 35.1974745,0.593671875 C35.4016293,0.533499681 35.6158859,0.506666135 35.8254175,0.464382972 C35.9731976,0.591720344 35.8617515,0.687670599 35.7941344,0.80053412 C35.2023625,1.78784598 35.2369043,2.76686384 35.8428513,3.73531091 C35.7820774,3.9324155 35.5204073,4.14009088 35.6699796,4.31068718 C35.8594705,4.52665657 36.1152749,4.31312659 36.3336049,4.22481983" id="Fill-11" fill="#FCB000"></path>
                <path d="M22.7990387,79.3686036 C18.471055,77.4008103 14.6884073,74.6707816 11.4046599,71.2437312 C17.2343951,71.2281189 23.0639674,71.2123441 28.8935397,71.200147 C29.0266558,71.1999844 29.159446,71.2419423 29.2925621,71.2642223 C27.9899145,73.8500003 26.6875927,76.435941 25.3851079,79.0217191 C24.5284073,79.1763779 23.5908921,78.7315915 22.7990387,79.3686036" id="Fill-13" fill="#9CC100"></path>
                <path d="M25.9022403,8.81205517 C25.4675356,10.2522848 24.9585336,11.6749506 24.8721792,13.1968192 C24.1287169,13.1994212 23.3852546,13.2018607 22.6417923,13.2044627 C22.2621589,13.1950303 21.8826884,13.1784423 21.503055,13.1771413 C18.082444,13.1664078 14.6616701,13.1586017 11.2408961,13.1496572 C11.7868839,11.1519404 12.9515275,9.72488361 14.9826477,9.08608259 C15.1555193,9.03176499 15.304277,8.90182557 15.4644399,8.80717634 C17.0852953,8.79319037 18.7063136,8.77936703 20.327332,8.76538106 C22.1855804,8.7809933 24.0439919,8.79644292 25.9022403,8.81205517" id="Fill-15" fill="#693FC3"></path>
                <path d="M29.2924807,71.2642223 C29.1595275,71.2419423 29.0265743,71.1998217 28.8936212,71.200147 C23.0638859,71.2123441 17.2343136,71.2281189 11.4047413,71.2437312 C10.2071853,70.2289353 9.28449695,68.9721496 8.32384521,67.7495156 C6.69370265,65.6750386 5.30176782,63.4493179 4.10241955,61.1021145 C5.24327495,61.0546272 6.38999593,61.2151406 7.52661507,61.0089289 C8.7069002,61.0090915 9.88718534,61.0090915 11.0676334,61.0092541 C11.0676334,61.0503989 11.0708921,61.0913811 11.0775723,61.1320379 C11.0762688,62.5654372 11.0464521,63.9993243 11.0840896,65.4314225 C11.1082037,66.3453893 11.2590794,67.241955 11.6836823,68.0855041 C11.8933768,68.5023186 12.3846191,68.5927395 12.5653116,69.009066 C13.2411568,70.5637854 14.5961059,71.0373568 16.1169206,71.0537822 C20.2071853,71.0981795 24.2985906,71.0663045 28.3893442,71.0742733 C28.7023381,71.0747612 29.0441711,70.9628734 29.3237637,71.2142956 L29.2924807,71.2642223 Z" id="Fill-17" fill="#C2EBFE"></path>
                <g id="Group-21" transform="translate(0.000000, 31.712372)">
                    <mask id="mask-2" fill="white">
                        <use xlink:href="#path-1"></use>
                    </mask>
                    <g id="Clip-20"></g>
                    <path d="M1.78023625,0.113546556 C1.79050102,5.89804592 1.80402444,11.6827079 1.80923829,17.4673699 C1.81070468,19.3862124 1.79115275,21.3052175 1.78137678,23.2238973 C0.996203666,21.2237411 0.651763747,19.1198284 0.368749491,17.0095733 C-0.381881874,11.4127462 0.00329124236,5.89479337 1.61616293,0.472790816 C1.65347454,0.34773023 1.7248391,0.233077806 1.78023625,0.113546556" id="Fill-19" fill="#9CC100" mask="url(#mask-2)"></path>
                </g>
                <path d="M25.9022403,8.81205517 C24.0439919,8.79644292 22.1855804,8.7809933 20.327332,8.76538106 C22.6872505,7.33783642 25.1866395,6.23083068 27.8507536,5.50177136 C27.2013035,6.60503667 26.5516904,7.70862723 25.9022403,8.81205517" id="Fill-22" fill="#9DC100"></path>
                <path d="M35.1903707,79.039852 C34.9723666,79.0392015 34.7541996,79.0387136 34.5360326,79.0380631 L28.9585173,79.0435925 C27.7676415,79.0185478 26.576277,79.0266792 25.3850754,79.0218004 C24.5283747,79.1764592 23.5910224,78.7315102 22.799169,79.3685223 C23.2196986,79.7871256 23.8016945,79.8933214 24.3181914,80.1022978 C26.4172546,80.9508884 28.520554,81.7998042 30.782224,82.1398584 C31.8284155,82.5607385 32.9389654,82.6573393 34.0436497,82.7837009 C34.0625499,82.7132832 34.115666,82.630831 34.0952994,82.5743992 C33.4165214,80.6858055 33.5836904,80.1414911 35.1903707,79.039852" id="Fill-24" fill="#C2EBFE"></path>
                <path d="M7.52663136,61.0089939 C6.38984929,61.2152057 5.24329124,61.0545297 4.10227291,61.1020169 C4.0967332,61.0605469 4.09901426,61.0195647 4.10895316,60.9789078 C5.24834216,60.9889908 6.3874053,60.998911 7.52663136,61.0089939" id="Fill-26" fill="#693FC3"></path>
                <path d="M27.9966599,5.39973884 C27.9432179,5.44120886 27.889613,5.48284152 27.8360081,5.52447417 C27.8322607,5.40965912 27.9101426,5.3989257 27.9966599,5.39973884" id="Fill-28" fill="#9DC100"></path>
                <path d="M11.0775886,61.1320705 C11.0709084,61.0914136 11.0674868,61.0504314 11.0674868,61.0092867 C11.0728635,59.597029 11.0782403,58.1847714 11.0834542,56.7725137 C11.3534338,56.7578772 11.6235764,56.7303932 11.8937189,56.7303932 C31.8173035,56.7290922 51.740888,56.7305558 71.6647984,56.7273033 C71.9549817,56.7271406 72.2647169,56.8104059 72.5316008,56.6110246 C73.1790957,56.5687414 73.474167,56.1730686 73.505613,55.5757376 C73.5333116,55.0483364 73.5018656,54.5178453 73.4964888,53.9886553 C73.4956741,52.9052305 73.4948595,51.8216432 73.4940448,50.7380558 C73.4948595,46.9428166 73.4956741,43.1475775 73.4964888,39.3521757 C73.4956741,38.2685883 73.4950224,37.185001 73.4943707,36.1014136 C73.5041466,28.8464359 73.5189735,21.5912956 73.5162037,14.3361553 C73.5158778,13.51017 73.1157149,13.1841017 72.1871609,13.1839391 C66.0571405,13.1834512 59.9269572,13.1923957 53.7969369,13.1982503 C53.6454094,11.7183396 53.2988513,10.2868919 52.7346151,8.90927392 C53.0005214,8.70842889 53.3087902,8.80275287 53.5970183,8.79966295 C55.568831,8.77868399 57.5408065,8.7699021 59.5127821,8.75737978 C63.743332,8.76681218 67.9738819,8.76534853 72.2044318,8.78974267 C74.5413768,8.80324075 76.3233727,9.78388489 77.4075275,11.9030845 C77.8244725,12.7183364 77.9380367,13.5986393 77.9403177,14.4979697 C77.9531894,19.4787637 77.9616619,24.4595577 77.9743707,29.4403517 C77.9751853,29.7639805 77.9992994,30.0876094 78.0126599,30.4114008 C78.0173849,30.6829888 78.02211,30.9545768 78.026835,31.2260022 C78.0266721,31.3855399 78.0265092,31.5449149 78.0265092,31.7044525 C78.0102159,31.9197714 77.9800733,32.1349276 77.9795845,32.3504091 C77.9647576,39.619698 77.9512342,46.8889869 77.9435764,54.1582758 C77.9432505,54.4534448 77.9984847,54.7486138 78.0276497,55.0437828 C77.6907047,56.637045 77.0018248,58.103295 76.3748595,59.5914997 C76.1762444,60.0627943 75.9644318,60.5285596 75.7586477,60.9967643 C75.4577108,61.1699627 75.1264684,61.1055622 74.8067943,61.1075137 C71.8650428,61.124427 68.9232912,61.1358109 65.9817026,61.1489837 L62.7238615,61.1475201 L51.3177515,61.1489837 C51.1553075,61.1486585 50.9927006,61.1483332 50.8300937,61.148008 C49.9611731,61.1471948 49.0922525,61.1463817 48.223332,61.1454059 C47.8448391,61.1335341 47.4661833,61.1114168 47.0876904,61.1112541 C42.5353483,61.1106036 37.983332,61.1120673 33.4309898,61.1151572 C25.9799104,61.120036 18.528668,61.1263785 11.0775886,61.1320705" id="Fill-30" fill="#693FC3"></path>
                <path d="M59.5127006,8.75742857 C57.5407251,8.76995089 55.5689124,8.77873278 53.5969369,8.79971173 C53.3088717,8.80263903 53.0004399,8.70831505 52.7345336,8.9093227 C52.1500937,7.4760861 51.2735153,6.22043878 50.3511527,4.99276339 C53.5790143,5.82574171 56.6468758,7.04642411 59.5127006,8.75742857" id="Fill-32" fill="#9CC100"></path>
                <path d="M78.0276823,55.0438642 C77.9983544,54.7486952 77.9431202,54.4533635 77.943446,54.1583571 C77.9512668,46.8889056 77.9646273,39.6196167 77.9796171,32.3503278 C77.9801059,32.1350089 78.0102485,31.9198527 78.0265418,31.7055096 C78.2456864,32.3600855 78.464668,33.0131977 78.6834868,33.6664726 C78.743446,34.4074037 78.9445051,35.1179235 79.1558289,35.8258412 C79.1291079,35.8702385 79.1357882,35.9082934 79.1761955,35.9406563 C79.1760326,36.2229777 79.1440978,36.5108284 79.3236497,36.760787 C79.3317963,36.8128278 79.339943,36.8651939 79.3479267,36.9172347 C79.3418982,37.2151684 79.3272342,37.5145657 79.4888635,37.7855032 C79.497336,37.8752736 79.5056456,37.965044 79.5141181,38.0548144 C79.5043422,38.4002353 79.4737108,38.7484209 79.650167,39.0691224 C79.6618982,39.2187398 79.6739552,39.3686824 79.6858493,39.518625 C79.6724888,40.0287876 79.6328961,40.541227 79.8163585,41.0344764 C79.8302077,41.776058 79.84422,42.517477 79.8582322,43.258896 C79.7619389,47.103574 79.342224,50.9012526 78.2010428,54.5935485 C78.1536293,54.7469063 78.0858493,54.8939216 78.0276823,55.0438642" id="Fill-34" fill="#9BBF03"></path>
                <path d="M36.3270713,4.87835491 C36.6684155,4.73768208 36.6614094,4.50740147 36.4932627,4.2354882 C37.5207169,4.22638106 38.5369287,4.07155963 39.5671527,4.04537659 C43.9386395,3.93381409 48.2565214,7.29597608 49.4104114,11.5701534 C50.4241792,15.3250609 49.6194542,18.6024939 47.1161548,21.5198696 C46.9936293,21.6624939 46.8807169,21.8135749 46.7634053,21.9607529 C46.7634053,21.9605902 46.7459715,21.95067 46.7459715,21.95067 C46.5470305,21.7094933 46.31811,21.8195922 46.0794134,21.8773249 C45.3704929,22.048897 44.6535886,22.1225673 43.9189246,22.1271209 C42.8262974,22.1337886 41.7981914,21.7937344 40.7376619,21.634522 C40.5634868,20.80008 41.2302077,20.811464 41.7238941,20.6816872 C43.341165,20.2567414 44.6188839,18.6599015 44.6374582,17.0141107 C44.6579878,15.1972357 43.4193727,13.626904 41.6447088,13.15008 C41.3250346,13.0642127 40.8495967,13.1853702 40.7306558,12.6591075 C40.4753401,11.5296591 40.7634053,11.126668 41.8843829,11.0476311 C42.1509409,11.0286036 42.4165214,10.9601374 42.6767251,10.892647 C43.1868676,10.7602682 43.5661752,10.438103 43.6388432,9.92127264 C43.7225906,9.3260558 43.6761548,8.76320185 43.0509817,8.36232494 C42.5563177,8.04520121 42.0582322,8.14635555 41.5585173,8.14066358 C41.0604318,8.13480899 40.7427128,8.06292761 40.7115927,7.44673182 C40.6765621,6.74954751 40.0303707,6.25759917 39.3199837,6.26882047 C38.5962363,6.2802044 37.9850754,6.78353667 37.973833,7.4932433 C37.9660122,8.0014544 37.7486599,8.07805198 37.3098819,8.1720507 C34.9426314,8.67879815 33.6038126,10.8464608 34.2201874,13.0936483 C34.4425906,13.9035335 34.9739145,14.5145252 35.5161548,15.1196623 C35.2836497,15.4767924 35.0390876,15.8163587 34.5380692,15.7744008 C33.8149735,13.8300258 33.4553809,11.8425545 33.8915519,9.77783514 C34.2798208,7.93900542 34.9633238,6.23808386 36.3270713,4.87835491" id="Fill-36" fill="#FEB100"></path>
                <path d="M49.861165,24.4041342 C49.7260937,24.5755437 49.5908595,24.7467905 49.4559511,24.9181999 C47.0381914,25.1053842 44.6184766,25.0074825 42.1990876,24.9676387 C42.2289043,24.7599633 42.3463788,24.6305118 42.5464603,24.5675749 C44.1722037,24.0565992 45.4794134,23.0361113 46.746053,21.9505724 C46.746053,21.9505724 46.7633238,21.9606553 46.7633238,21.9608179 C47.272,23.9432478 47.8067454,24.364941 49.861165,24.4041342" id="Fill-38" fill="#FEB100"></path>
                <path d="M36.3336049,4.22481983 C36.1152749,4.31312659 35.8594705,4.52665657 35.6699796,4.31068718 C35.5204073,4.14009088 35.7820774,3.9324155 35.8428513,3.73531091 C36.0577597,3.84752392 36.2210183,4.0109646 36.3336049,4.22481983" id="Fill-40" fill="#FEB100"></path>
                <path d="M49.0479185,71.2432596 C50.5664521,71.2242321 52.0851487,71.1905682 53.6036823,71.1884541 C58.2992424,71.1821116 62.9949654,71.1866652 67.6905255,71.1926824 C67.8959837,71.1930077 68.1938248,71.0772168 68.2883259,71.2770861 C68.3927658,71.4987474 68.0875927,71.6194171 67.9474705,71.7617162 C66.018998,73.7176378 63.8352098,75.3616397 61.5846191,76.9231894 C61.3602607,77.0641875 61.1360652,77.2053482 60.9117067,77.3463463 C60.8628269,77.376595 60.813947,77.4068438 60.7649043,77.4372551 C60.7013605,77.4787251 60.6379796,77.5203578 60.5744358,77.5619904 C60.5177352,77.5561358 60.4716253,77.5758138 60.4365947,77.6208616 C60.3829898,77.6585912 60.3293849,77.696646 60.27578,77.7345383 C60.1674297,77.7956862 60.0590794,77.8569968 59.9507291,77.9181448 L59.7503218,78.0458074 C59.6970428,78.0393023 59.6546802,78.0575166 59.6225825,78.1006129 C59.5649043,78.1396435 59.5070631,78.1788367 59.4493849,78.2181926 C59.3975723,78.2404726 59.3455967,78.2627526 59.293947,78.2851952 L59.1477963,78.3886263 C59.0356986,78.4455459 58.9234379,78.5024656 58.8113401,78.5592226 C58.7347617,78.601831 58.6583462,78.644602 58.5819308,78.6870478 C58.5392424,78.6759892 58.5068187,78.6894872 58.4848228,78.7275421 C58.4113401,78.7690121 58.3378574,78.8106448 58.2642118,78.8521148 C58.2189165,78.8418693 58.1835601,78.8561805 58.1583055,78.8952111 C58.0877556,78.9360306 58.0175316,78.9768501 57.9469817,79.0176696 C57.8990794,79.0077494 57.8607902,79.0227111 57.8321141,79.062067 C57.7641711,79.102236 57.6960652,79.142405 57.6281222,79.182574 C57.2017271,79.3710593 56.775332,79.559382 56.3490998,79.7477047 C56.2875112,79.7735625 56.2257597,79.7995829 56.1638452,79.8256033 L56.1257189,79.8015344 L56.0807495,79.8044617 C55.9609939,79.5871913 55.7946395,79.4258648 55.5468187,79.3632532 C55.4981018,79.3278004 55.4493849,79.2923476 55.400831,79.2567321 C55.3025825,79.232338 55.204334,79.2079439 55.1060855,79.1833871 C55.0122363,79.0630427 54.8858004,79.0471052 54.7468187,79.0714994 C54.152277,79.0578386 53.5578982,79.0441779 52.9635193,79.0305172 C52.4618493,78.0562156 51.9601792,77.0815886 51.4586721,76.107287 C51.4181018,76.0441875 51.3776945,75.9809254 51.3372872,75.9175006 L51.3418493,75.9135976 C51.0285295,75.119162 50.6462892,74.3596913 50.1936619,73.6353482 C49.8117475,72.838148 49.429833,72.0406224 49.0479185,71.2432596" id="Fill-42" fill="#9CC100"></path>
                <path d="M48.2216538,79.0363555 C49.193222,77.9272357 50.2457678,76.8986164 51.3418167,75.9135813 C51.3418167,75.9135813 51.3372546,75.9174844 51.3372546,75.917647 C51.3776619,75.9810717 51.4180692,76.0441712 51.4586395,76.1072707 C51.9601466,77.0815724 52.4618167,78.0561993 52.9636497,79.030501 C51.3828758,79.0324525 49.8022648,79.034404 48.2216538,79.0363555" id="Fill-44" fill="#D5F5FD"></path>
                <path d="M56.0285784,79.8612513 C55.9660122,79.989727 55.8498411,80.0072908 55.7253605,80.0072908 C55.7892301,79.8817423 55.901165,79.8552341 56.0285784,79.8612513" id="Fill-46" fill="#D5F5FD"></path>
                <path d="M54.7467536,79.0714506 C54.8858982,79.0472191 55.012334,79.0629939 55.1060204,79.1833383 C54.9702974,79.1973243 54.8417434,79.1877293 54.7467536,79.0714506" id="Fill-48" fill="#D5F5FD"></path>
                <path d="M55.7092301,80.0179917 C55.6427536,80.1477685 55.525442,80.1721626 55.3949328,80.1687474 C55.4640163,80.0440121 55.5795356,80.0165281 55.7092301,80.0179917" id="Fill-50" fill="#D5F5FD"></path>
                <path d="M55.4008798,79.2567972 C55.4494338,79.2924126 55.4981507,79.3278654 55.5468676,79.3631556 C55.4981507,79.3278654 55.4494338,79.29225 55.4008798,79.2567972" id="Fill-52" fill="#D5F5FD"></path>
                <path d="M56.1638289,79.8256684 C56.2257434,79.799648 56.2874949,79.7736276 56.3490835,79.7477698 C56.287169,79.7737902 56.2255804,79.799648 56.1638289,79.8256684" id="Fill-54" fill="#D5F5FD"></path>
                <path d="M46.7460204,21.9505886 C45.4795438,23.0361276 44.1721711,24.0566154 42.5465906,24.5675912 C42.3463462,24.6305281 42.2288717,24.7599796 42.199055,24.9678176 C40.2761222,24.9861945 38.3533523,25.0153048 36.4304196,25.0149796 C35.9523747,25.014817 35.4552668,25.1416665 34.9935153,24.9001645 C35.4539633,24.8928463 35.9152261,24.8985383 36.3748595,24.8728431 C36.6203992,24.8591824 36.885002,24.9801773 37.1119674,24.7925051 C36.8929857,24.7037105 36.6784033,24.6014177 36.4543707,24.5279101 C32.2169776,23.1369566 29.6734338,20.3062615 28.9778737,15.8590485 C28.2629246,11.2877506 30.970053,6.34192156 35.5678534,4.73581186 C35.799055,4.65498597 36.1850428,4.27232334 36.3271202,4.8782736 C34.9633727,6.23816518 34.2797067,7.93908673 33.8914379,9.77775383 C33.4554297,11.8426358 33.8150224,13.8299445 34.5379552,15.7743195 L35.8368554,18.0489911 C35.0787291,18.4908501 34.8180367,19.1506301 35.100888,19.9636052 C35.3835764,20.7752793 36.0843503,20.8650497 36.8274868,20.819514 C37.0153483,20.8081301 37.205165,20.8281333 37.3930265,20.8164241 C37.7451242,20.7949573 37.9668758,20.8974126 37.9509084,21.3026805 C37.9168554,22.1787551 38.4983625,22.6063029 39.2242281,22.6954228 C39.9455316,22.7838922 40.4934745,22.3604101 40.7377108,21.6346033 C41.7982403,21.7936531 42.8261833,22.1337073 43.9188106,22.1270395 C44.6534745,22.1226486 45.3705418,22.0488157 46.0792994,21.8774062 C46.3181589,21.8195108 46.5469165,21.7095746 46.7460204,21.9505886" id="Fill-56" fill="#FC9800"></path>
                <path d="M34.9935316,24.9001158 C35.4552831,25.1416177 35.952391,25.0147682 36.4304358,25.0149308 C38.3533686,25.0152561 40.2761385,24.9861457 42.1990713,24.9677688 C44.6184603,25.0074499 47.0381752,25.1055143 49.4559348,24.9181674 C50.8094175,24.9271119 52.1635519,24.9210947 53.5168717,24.9508555 C54.2728798,24.9674436 54.9014745,25.2588721 55.149947,26.0357439 C55.360945,26.6948734 55.1740611,27.2712254 54.6090102,27.6821853 C54.352391,27.8690443 54.0480326,27.9900392 53.7653442,28.1409576 C53.5274623,27.871809 53.2084399,27.9767038 52.9233075,27.9765411 C46.902778,27.9713371 40.8822485,27.9732886 34.8617189,27.9739391 C33.7280326,27.4554825 33.397442,26.5803836 34.0261996,25.5948607 C34.4056701,25.000457 34.0869735,25.0407886 33.6459145,25.0425775 C31.0751609,25.0521725 28.5047332,25.0466432 25.9339796,25.0463179 C25.9132872,25.0028964 25.9035112,24.9570354 25.9051405,24.908735 C26.9922281,24.8984895 28.0791527,24.8884066 29.1662403,24.8783237 C31.1085621,24.8854793 33.0510468,24.8927975 34.9935316,24.9001158" id="Fill-58" fill="#FE2272"></path>
                <path d="M29.1663055,24.8783562 C28.0792179,24.8884391 26.9921303,24.898522 25.9052057,24.9087675 C25.6730265,24.5664365 25.6598289,24.1590545 25.5692383,23.7752535 C25.2060611,22.2395615 24.9012138,20.6754098 23.4775071,19.6799665 C23.0804399,18.7137962 22.0788921,18.6658211 21.3131079,18.2597401 C21.4177108,17.6664748 21.923943,17.3742331 22.3109084,17.0213313 C23.1226395,16.2805628 23.7217434,15.3047975 24.7469165,14.7988632 L24.7773849,15.2519436 C24.7583218,15.4368511 24.7254094,15.6253364 24.8901344,15.7707254 C25.1830876,19.1203651 26.525165,21.9972465 28.8114379,24.4501578 C28.9377108,24.585464 29.0483422,24.7352439 29.1663055,24.8783562" id="Fill-60" fill="#00E3F6"></path>
                <path d="M24.8901181,15.7707417 C24.7253931,15.6251901 24.7583055,15.4368673 24.7775316,15.2519598 C24.8870224,15.4092207 24.9135804,15.5845332 24.8901181,15.7707417" id="Fill-62" fill="#00D8EB"></path>
                <path d="M39.1274786,68.3026119 C37.907112,68.2741521 36.9344033,67.2432561 36.981165,66.0277777 C37.0220611,64.9684219 38.1329369,63.9072771 39.1911853,63.9165469 C40.2937515,63.9263045 41.3894745,65.0357497 41.3782322,66.1316967 C41.3658493,67.3525418 40.3512668,68.3310717 39.1274786,68.3026119 M75.7586802,60.9967318 C75.4577434,61.1700928 75.1263381,61.1055297 74.8068269,61.1074812 C72.9752994,61.1178893 71.1439348,61.1252076 69.3124073,61.133339 C61.1841792,61.1226055 47.3565621,61.1113842 47.0875601,61.1112216 C42.5353809,61.1105711 37.9833646,61.1120348 33.4310224,61.1151247 C25.979943,61.1200035 18.5287006,61.126346 11.0776212,61.1320379 C11.0763177,62.5654372 11.0463381,63.9993243 11.0841385,65.4314225 C11.1080896,66.3453893 11.2592912,67.241955 11.6835682,68.0855041 C11.8934257,68.5023186 12.3845051,68.5927395 12.5653605,69.009066 C13.2412057,70.5637854 14.5959919,71.0373568 16.1168065,71.0537822 C20.2072342,71.0980169 24.2984766,71.0663045 28.389556,71.0742733 C28.702387,71.0749238 29.044057,70.9628734 29.3239756,71.2142956 C30.4084562,71.2162471 35.7958289,71.2183613 42.2430794,71.2204754 C42.3760326,71.2357624 42.5190876,71.2300705 42.6507373,71.2300705 C44.5185988,71.2312089 46.3864603,71.2277937 48.2543218,71.2334857 C48.3366029,71.2338109 48.4172546,71.2295826 48.4969287,71.222427 C57.6102485,71.2253543 67.0155438,71.9779946 68.2631202,71.2308836 C71.521776,69.279353 75.7586802,60.9967318 75.7586802,60.9967318" id="Fill-64" fill="#DDFAFE"></path>
                <path d="M34.8617841,27.9740041 C40.8821507,27.9733536 46.9026802,27.9712395 52.9233727,27.9766062 C53.2085051,27.9767688 53.5275275,27.871874 53.7654094,28.14086 C52.7513157,31.4734238 51.7442281,34.8077765 50.7180774,38.1362746 C50.4943707,38.8617561 49.9568554,39.2452318 49.1915601,39.2440934 C45.3401548,39.239052 41.4885866,39.2240902 37.6370183,39.2123811 C37.3979959,37.3363096 36.8831283,35.517971 36.3940041,33.7009334 C36.1729043,32.8798268 36.3187291,32.3677127 36.9346151,31.8126649 C37.9405621,30.9058536 38.8749817,29.9187044 39.8186884,28.9452159 C40.0099715,28.747786 40.4217026,28.4649767 39.9294827,28.1803785 C39.3471609,27.8434142 37.1661426,28.243478 36.6224358,28.7364021 C35.6259389,29.6401234 35.6259389,29.6401234 35.0252057,28.4594474 C35.0214582,28.3257675 34.9916415,28.2052605 34.86211,28.1343549 C34.86211,28.0808504 34.861947,28.0275086 34.8617841,27.9740041" id="Fill-66" fill="#FE0766"></path>
                <path d="M23.4775071,19.679999 C24.9012138,20.6754423 25.2060611,22.2395941 25.5692383,23.775286 C25.6599919,24.1590871 25.6730265,24.5664691 25.9052057,24.9086374 C25.9035764,24.9569378 25.9131894,25.0027988 25.9340448,25.046383 C26.0635764,26.1652605 26.3615804,27.244457 26.7073238,28.3122695 L26.7694012,28.7925086 C26.8021507,28.854795 26.8347373,28.9170813 26.8674868,28.9793677 L26.9256538,29.4418804 C26.9592179,29.5083951 26.9927821,29.5747471 27.0265092,29.6412618 C27.0450835,29.791367 27.0638208,29.9416349 27.082558,30.0915775 C27.1167739,30.1628084 27.1509898,30.2338766 27.1852057,30.3049448 C27.2036171,30.4504965 27.2220285,30.5960482 27.2406029,30.7415998 C27.2756334,30.8173842 27.3103381,30.8931687 27.3453686,30.9689531 L27.3960407,31.39211 C27.4393809,31.501721 27.4830468,31.6116572 27.5265499,31.7215934 C27.5475682,31.8838957 27.5687495,32.0463607 27.5897678,32.2086629 C27.6220285,32.2670462 27.6539633,32.3255922 27.6858982,32.3838128 C27.7061018,32.5420494 27.7263055,32.7001234 27.7465092,32.8581974 C27.7792587,32.9206464 27.8121711,32.9830953 27.8450835,33.0455443 C27.8641466,33.1995526 27.8832098,33.3535609 27.9024358,33.5074066 C27.9361629,33.5745717 27.96989,33.6414117 28.0036171,33.7084142 C28.0223544,33.8580316 28.0410916,34.0076489 28.0598289,34.1572663 C28.0940448,34.2288224 28.1282607,34.3003785 28.1626395,34.3720973 C28.180888,34.5169984 28.1991365,34.6622248 28.2175479,34.8072886 L28.3224766,35.0359429 C28.5896864,36.4439723 28.8326191,37.8580188 29.3709491,39.1982325 C29.368831,39.2372631 29.3642688,39.2761311 29.3572627,39.3145112 C29.3574257,39.8893996 29.5294827,40.429323 29.7381996,40.9508696 C30.0515193,41.7337586 30.6916823,41.9671291 31.4962444,41.9666413 C37.5509898,41.9624129 43.6057352,41.9715201 49.6604807,41.9832293 C50.006224,41.9837172 50.3692383,41.8983377 50.6939633,42.1038989 C47.4265092,42.1154455 44.1595438,42.126992 40.8922525,42.138376 C39.948057,42.1334971 39.0030468,42.1500851 38.0599919,42.1165839 C37.4478534,42.0946291 36.9049613,42.147971 36.7146558,42.8430411 C36.530053,43.5174576 36.7302974,44.0614467 37.3465092,44.428985 C35.5951446,44.6638192 33.8351446,44.4824895 32.0798697,44.5359939 C29.7668758,44.6064117 28.0467943,43.722043 27.1874868,41.4737172 C27.0401955,40.6407388 26.8770998,39.8116636 26.5825173,39.0149512 C26.5629654,38.8282548 26.5642688,38.6365169 26.5206029,38.4558377 C25.8195031,35.5566763 25.1127006,32.658816 24.4072016,29.7606304 C24.1909898,28.8948013 23.9746151,28.0289723 23.7582403,27.1631432 C23.4250428,25.7097408 23.0918452,24.2566636 22.7584847,22.8032612 C22.6328635,22.2563447 22.3065092,21.9214946 21.7375479,21.8424576 C23.1470794,21.750573 23.6873646,21.0795717 23.4775071,19.679999" id="Fill-68" fill="#C1EAFD"></path>
                <path d="M37.303723,42.1360992 C40.2471039,42.1299193 48.062664,42.1131687 50.6940285,42.1038989 C52.3228676,42.2800246 53.5792424,43.6743932 53.5629491,45.288309 C53.5453523,47.0424098 52.1904033,48.3822982 50.3350876,48.4808504 C49.897776,47.3450596 49.1930916,46.5076904 47.9103218,46.3148141 C48.1682444,46.0967305 48.4765132,46.222279 48.7616456,46.1905666 C49.2854745,46.1321834 49.8296701,46.323596 50.3367169,46.061603 C50.8471853,45.975573 51.1104847,45.6473906 51.0673075,45.1591827 C51.020057,44.6269027 50.5907291,44.4859047 50.1268595,44.4559812 C49.8844155,44.4403689 49.6401792,44.4501266 49.3967576,44.4491508 C46.6399348,44.4397184 39.9771242,44.4228052 37.3035601,44.4161374 C36.6739878,44.4146738 36.1654745,43.9046738 36.1654745,43.2761183 C36.1654745,42.6475628 36.6739878,42.1375628 37.303723,42.1360992" id="Fill-70" fill="#DDFBFD"></path>
                <path d="M37.303723,48.4484062 C40.2471039,48.4545861 48.062664,48.4714994 50.6940285,48.4807691 C52.3228676,48.3046435 53.5792424,46.9102749 53.5629491,45.2961964 C53.5453523,43.5422583 52.1904033,42.2022073 50.3350876,42.1038176 C49.897776,43.2396084 49.1930916,44.0768151 47.9103218,44.269854 C48.1682444,44.4877749 48.4765132,44.362389 48.7616456,44.3941014 C49.2854745,44.4524847 49.8296701,44.2610721 50.3367169,44.5230651 C50.8471853,44.6089324 51.1104847,44.9372774 51.0673075,45.4254853 C51.020057,45.9577653 50.5907291,46.0987634 50.1268595,46.1286869 C49.8844155,46.1442991 49.6401792,46.1345415 49.3967576,46.1353546 C46.6399348,46.1449496 39.9771242,46.1617003 37.3035601,46.168368 C36.6739878,46.1699943 36.1654745,46.6799943 36.1654745,47.3083871 C36.1654745,47.9371052 36.6739878,48.4471052 37.303723,48.4484062" id="Fill-72" fill="#DDFBFD"></path>
                <path d="M46.1386884,51.8600883 C45.5048798,51.4501043 45.0151039,50.9103434 44.6735967,50.237228 C44.5874053,49.6594123 44.3930265,49.0856623 44.6023951,48.4956496 C44.9593809,47.3349767 45.7059389,46.5854263 46.9090346,46.3175788 C47.0755519,46.326198 47.2419063,46.3346547 47.4085866,46.3432739 C47.2018248,46.920927 46.9895234,47.4976043 47.0809287,48.1297376 C46.4873646,48.5010163 46.1758371,49.0266285 46.5196253,49.6794155 C46.8885051,50.3795271 47.5201955,50.3847312 48.1792587,50.0635418 C48.6990143,50.4032707 49.305776,50.5317465 49.8718045,50.7590998 C49.1107454,52.0098683 47.9232912,52.3600054 46.1386884,51.8600883" id="Fill-74" fill="#5423A9"></path>
                <path d="M29.3572464,39.3145762 C29.3642525,39.2761961 29.3688147,39.2371655 29.3709328,39.1979723 C31.8398534,39.1960207 34.3092627,39.1875641 36.7783462,39.1978096 C37.2842525,39.2000864 37.5056782,39.1509729 37.3481222,38.5178638 C36.8216864,36.4030552 36.3164318,34.279302 35.9221344,32.1371719 C35.6923992,30.8886802 35.1128473,29.7353256 35.0245377,28.4601629 L35.0251894,28.4595124 C35.6260855,29.6401885 35.6260855,29.6401885 36.6224196,28.7364672 C37.1661263,28.243543 39.3471446,27.8434793 39.9294664,28.1802809 C40.4216864,28.4648791 40.0099552,28.7476885 39.8186721,28.9451183 C38.8749654,29.9187695 37.9407088,30.9059187 36.9345988,31.8127299 C36.3188758,32.3676151 36.172888,32.8798919 36.3939878,33.7008358 C36.883112,35.5178734 37.3981426,37.3363747 37.637002,39.2124461 C36.7550468,39.4258135 35.8595682,39.2866043 34.9712587,39.2996145 C33.1004644,39.3270985 31.2286925,39.3121368 29.3572464,39.3145762" id="Fill-76" fill="#FA0564"></path>
                <path d="M47.0809613,48.1296562 C46.9893931,47.497523 47.2018574,46.9208457 47.4086191,46.3433552 C47.5757882,46.3337602 47.7429572,46.3243278 47.9102892,46.3148954 C49.1930591,46.5076091 49.8977434,47.3451409 50.3352179,48.4807691 C50.3534664,49.2753673 50.446501,50.0849273 49.8716741,50.7591811 C49.3058086,50.5318278 48.6990468,50.4031894 48.1792912,50.0636231 C48.5142811,49.6393278 48.701165,49.1945415 48.4034868,48.6661645 C48.1033646,48.1332341 47.6083747,48.0953418 47.0809613,48.1296562" id="Fill-78" fill="#653EBD"></path>
                <path d="M38.0192587,12.0136387 C37.7510713,11.7633549 38.2724562,11.1567541 37.6578737,11.126668 C37.2627617,11.1073154 36.9950631,11.5223409 36.976,11.9944487 C36.9544929,12.5228256 37.2463055,12.9191489 37.6976293,12.9014225 C38.2398697,12.8799557 37.8120081,12.3284857 38.0192587,12.0136387 M40.6975479,16.8576629 C40.8857352,17.1700705 40.4238208,17.7848026 41.0522525,17.8184665 C41.4227617,17.8383071 41.7059389,17.4128734 41.7095234,16.939302 C41.7134338,16.4371081 41.4599104,16.0080966 41.0170591,16.0087471 C40.4775886,16.0095603 40.8538004,16.5670475 40.6975479,16.8576629 M40.7377923,21.634522 C40.493556,22.3603288 39.9454501,22.7839735 39.2243096,22.6955041 C38.4982811,22.6063842 37.9167739,22.1788364 37.9509898,21.3025992 C37.9669572,20.8974939 37.7450428,20.794876 37.392945,20.8165054 C37.2052464,20.828052 37.0154297,20.8080488 36.8275682,20.8194327 C36.0844318,20.8651311 35.3834949,20.7753607 35.1009695,19.9636865 C34.8181181,19.1507114 35.0786477,18.4907688 35.8367739,18.0489098 C36.2789735,17.9218976 36.7270387,17.8713205 37.189442,17.8814034 C37.5112342,17.888559 38.0179552,18.0027235 37.9276904,17.4468626 C37.8426395,16.9249908 38.4096456,16.1770666 37.4574664,15.9028766 C36.7850428,15.7095124 36.1256538,15.4733772 35.5162851,15.1196623 C34.9740448,14.5145252 34.442558,13.9035335 34.2203177,13.0936483 C33.60378,10.8464608 34.9425988,8.67879815 37.3098493,8.1720507 C37.7486273,8.07805198 37.9659796,8.0014544 37.9739633,7.4932433 C37.9850428,6.78353667 38.5962037,6.2802044 39.3199511,6.26882047 C40.030501,6.25759917 40.6766925,6.74954751 40.7115601,7.44673182 C40.7426802,8.06292761 41.0603992,8.13480899 41.5586477,8.14066358 C42.0581996,8.14635555 42.5564481,8.04520121 43.0509491,8.36232494 C43.6761222,8.76320185 43.722558,9.3260558 43.6388106,9.92127264 C43.5661426,10.438103 43.186835,10.7602682 42.6766925,10.892647 C42.4164888,10.9601374 42.1509084,11.0286036 41.8845132,11.0476311 C40.7633727,11.126668 40.4753075,11.5296591 40.7307862,12.6591075 C40.8495642,13.1853702 41.325002,13.0642127 41.6446762,13.15008 C43.4195031,13.626904 44.6579552,15.1972357 44.6374257,17.0141107 C44.6188513,18.6599015 43.3411324,20.2567414 41.7238615,20.6816872 C41.2301752,20.811464 40.5634542,20.80008 40.7377923,21.634522" id="Fill-80" fill="#FEE500"></path>
                <path d="M35.5162363,15.1195973 C36.1256049,15.4734748 36.7849939,15.7094474 37.4574175,15.9028115 C38.4095967,16.1770016 37.8425906,16.9250883 37.9276415,17.4469601 C38.0179063,18.0028211 37.5111853,17.8884939 37.189556,17.8813383 C36.7271527,17.8712554 36.2790876,17.9218326 35.836888,18.0490073 L34.5379878,15.7743358 C35.0390061,15.8162937 35.2835682,15.4767274 35.5162363,15.1195973" id="Fill-82" fill="#F6AB00"></path>
                <path d="M51.4586558,76.1073195 C51.4180855,76.0440574 51.3776782,75.9811205 51.3372709,75.9176958 C51.3776782,75.9809579 51.4180855,76.0440574 51.4586558,76.1073195" id="Fill-84" fill="#C7E8F2"></path>
                <path d="M15.968277,20.0036604 C14.7749572,19.3328217 14.4736945,18.8755131 14.6433075,17.9924455 C14.8293768,17.0243237 15.6352424,16.470089 16.593776,16.7081757 C17.3701507,16.901052 18.1295804,17.1628823 18.8963422,17.3941387 C19.1687658,17.5167599 19.4408635,17.6393811 19.7129613,17.7621649 C19.8169124,17.8060743 19.9208635,17.8501464 20.0246517,17.8938932 C20.0789084,17.904464 20.133165,17.9148721 20.1875845,17.9254429 C19.2461589,18.5878249 18.5414745,19.3485966 18.9818819,20.6336795 C19.0284807,20.7699614 18.8130835,20.799397 18.6872994,20.829971 C18.5414745,20.8156598 18.3953238,20.8013485 18.249499,20.7871999 C17.5180937,20.4421043 16.7625743,20.1667758 15.968277,20.0036604" id="Fill-86" fill="#FD0866"></path>
                <path d="M35.6832912,50.7470979 C34.845165,52.1180482 33.4986884,52.4322446 31.6513564,51.6885488 C31.0043503,51.1678154 30.5803992,50.4984404 30.3281792,49.7139251 C30.3405621,49.3426464 30.3527821,48.9715303 30.3648391,48.6005768 C30.9549817,47.003249 31.8020692,46.3356629 33.2379959,46.3359882 C32.9377108,46.8983543 32.866835,47.5030035 32.905613,48.1279812 C32.2545336,48.5143842 31.9708676,49.0767503 32.3669572,49.7510041 C32.7493605,50.4015143 33.3727413,50.3763071 33.9972627,50.0586955 C34.5140855,50.3984244 35.1144929,50.5340558 35.6832912,50.7470979" id="Fill-88" fill="#5323A6"></path>
                <path d="M26.7073564,28.3122857 C26.361613,27.2444732 26.063609,26.1652768 25.9340774,25.0463992 C28.504668,25.0467245 31.0752587,25.0520912 33.6458493,25.0426588 C34.0869084,25.0408699 34.4056049,25.0005383 34.0262974,25.594942 C33.3975397,26.5804649 33.7281303,27.4554011 34.8618167,27.9740204 C34.8619796,28.0275249 34.8621426,28.0808667 34.8621426,28.1343712 L34.8614908,28.1351843 C32.422387,28.1350217 29.9832831,28.1316065 27.5443422,28.13925 C27.2600244,28.1400631 26.9396986,28.0333795 26.7073564,28.3122857" id="Fill-90" fill="#FA0564"></path>
                <path d="M18.6873809,20.8299872 C18.813002,20.7994133 19.0285621,20.7699777 18.9819633,20.6336958 C18.5413931,19.3486129 19.2462403,18.5878412 20.1875031,17.9254592 C20.5627373,18.0368591 20.9379715,18.1484216 21.3130428,18.2598214 C22.0788269,18.6657398 23.0805377,18.7137149 23.477442,19.6800478 C23.6872994,21.0796205 23.1470143,21.7506218 21.7376456,21.8425064 C20.6883585,21.6039318 19.6868106,21.220456 18.6873809,20.8299872" id="Fill-92" fill="#FE2273"></path>
                <path d="M20.0245703,17.8939582 C19.9207821,17.8500488 19.8169939,17.8061393 19.7130428,17.7620673 C19.8486029,17.7316559 19.9468513,17.7885756 20.0245703,17.8939582" id="Fill-94" fill="#FE2273"></path>
                <path d="M39.1274786,68.3026119 C37.907112,68.2741521 36.9344033,67.2432561 36.981165,66.0277777 C37.0220611,64.9684219 38.1329369,63.9072771 39.1911853,63.9165469 C40.2939145,63.9263045 41.3896375,65.0357497 41.3782322,66.1316967 C41.3658493,67.3523791 40.3512668,68.3310717 39.1274786,68.3026119" id="Fill-96" fill="#C2EBFE"></path>
                <path d="M34.86211,28.1344037 C34.9916415,28.2053093 35.0216212,28.3258163 35.0252057,28.4594962 L35.024554,28.4601467 C34.8950224,28.3892411 34.8652057,28.2687341 34.8614582,28.1352168 L34.86211,28.1344037 Z" id="Fill-98" fill="#FA0564"></path>
                <path d="M34.8614745,28.1352006 C34.8650591,28.2687178 34.8950387,28.3892248 35.0245703,28.4601304 C35.1128798,29.735293 35.6924318,30.8888103 35.922167,32.1371393 C36.3164644,34.2792695 36.821556,36.4030226 37.3481548,38.5178313 C37.5057108,39.1509404 37.2842851,39.2000539 36.7783788,39.1977771 C34.3091324,39.1875316 31.8398859,39.1961508 29.3709654,39.1979397 C28.8326354,37.8580513 28.5897026,36.4440048 28.3224929,35.0358128 C28.2874623,34.9595405 28.2524318,34.8832682 28.2175642,34.8071585 C28.1991527,34.6622573 28.1809043,34.5170309 28.1626558,34.3719672 C28.128277,34.3002484 28.0940611,34.2288549 28.0598452,34.1572988 C28.0411079,34.0075188 28.0222077,33.8579015 28.0036334,33.7082841 C27.9699063,33.6412816 27.9361792,33.5744416 27.9024521,33.5074391 C27.8832261,33.3535934 27.8641629,33.1995851 27.8450998,33.0454142 C27.8121874,32.9831279 27.7792749,32.9206789 27.7465255,32.8582299 C27.7263218,32.6999933 27.7061181,32.542082 27.6859145,32.3838453 C27.6539796,32.3254621 27.6218819,32.2670788 27.5897841,32.2086955 C27.5687658,32.0463932 27.5475845,31.8839283 27.5264033,31.721626 C27.4830631,31.6116897 27.4393971,31.5017535 27.396057,31.3919799 C27.379112,31.2509818 27.3623299,31.1099837 27.3453849,30.968823 C27.3103544,30.8930386 27.2753238,30.8172541 27.2406191,30.7414697 C27.2220448,30.5960807 27.2036334,30.4503664 27.185222,30.3049774 C27.1510061,30.2337465 27.1167902,30.1626783 27.0825743,30.09161 C27.0638371,29.9415048 27.0450998,29.7913996 27.0265255,29.6411317 C26.9927984,29.5747797 26.9592342,29.508265 26.9256701,29.4419129 C26.9062811,29.287742 26.8868921,29.1335711 26.8675031,28.9790749 C26.8347536,28.9169512 26.802167,28.8548275 26.7694175,28.7925411 L26.7073401,28.312302 C26.9396823,28.0333957 27.2600081,28.1400794 27.5443259,28.1391036 C29.9834297,28.1316228 32.4223707,28.1350379 34.8614745,28.1352006" id="Fill-100" fill="#EF015B"></path>
                <path d="M27.3960081,31.392045 C27.4395112,31.5018186 27.4830143,31.6117548 27.5265173,31.7215284 C27.4830143,31.6117548 27.4395112,31.5018186 27.3960081,31.392045" id="Fill-102" fill="#FA0564"></path>
                <path d="M26.7694175,28.7925411 C26.802167,28.8548275 26.8347536,28.9169512 26.8675031,28.9790749 C26.8347536,28.9171138 26.802167,28.8548275 26.7694175,28.7925411" id="Fill-104" fill="#FA0564"></path>
                <path d="M26.9256538,29.4419455 C26.9592179,29.5082975 26.9927821,29.5746496 27.0265092,29.6411642 C26.9927821,29.5746496 26.9592179,29.5082975 26.9256538,29.4419455" id="Fill-106" fill="#FA0564"></path>
                <path d="M27.5898004,32.2086792 C27.6218982,32.2670625 27.6539959,32.3254458 27.6859308,32.3838291 C27.6539959,32.3256084 27.6218982,32.2670625 27.5898004,32.2086792" id="Fill-108" fill="#FA0564"></path>
                <path d="M27.7465255,32.8582299 C27.7792749,32.9206789 27.8121874,32.9831279 27.8449369,33.0454142 C27.8120244,32.9831279 27.7792749,32.9206789 27.7465255,32.8582299" id="Fill-110" fill="#FA0564"></path>
                <path d="M27.9024684,33.5074716 C27.9361955,33.5744742 27.9699226,33.6413141 28.0036497,33.708154 C27.9699226,33.6413141 27.9361955,33.5744742 27.9024684,33.5074716" id="Fill-112" fill="#FA0564"></path>
                <path d="M27.0825418,30.0916588 C27.1167576,30.162727 27.1509735,30.2337953 27.1851894,30.3050261 C27.1509735,30.2337953 27.1167576,30.162727 27.0825418,30.0916588" id="Fill-114" fill="#FA0564"></path>
                <path d="M28.0598289,34.1573476 C28.0940448,34.2287411 28.1282607,34.3002972 28.1626395,34.3718533 C28.1282607,34.3004598 28.0940448,34.2287411 28.0598289,34.1573476" id="Fill-116" fill="#FA0564"></path>
                <path d="M28.2175153,34.8072235 C28.2525458,34.8833332 28.2875764,34.9596055 28.3226069,35.0357152 C28.2875764,34.9596055 28.2525458,34.8834959 28.2175153,34.8072235" id="Fill-118" fill="#FA0564"></path>
                <path d="M27.240554,30.7415348 C27.2754216,30.8173192 27.3104521,30.8931036 27.3454827,30.9687254 C27.3104521,30.8932663 27.2755845,30.8174818 27.240554,30.7415348" id="Fill-120" fill="#FA0564"></path>
                <path d="M33.2380285,46.3359882 C31.8021018,46.3356629 30.9550143,47.0034117 30.3648717,48.6005768 C29.801776,48.53764 29.2311853,48.6165143 28.669556,48.4732395 C28.0409613,48.3125635 27.7064603,47.9630768 27.6849532,47.2917503 C27.6626314,46.5929397 28.0743625,46.2645947 28.6473971,46.0634244 C28.8188024,46.0034149 29.0219796,46.0243938 29.2104929,46.0245564 C36.1177026,46.0266706 43.0247495,46.030411 49.9319593,46.0354525 C50.0668676,46.0356151 50.201776,46.0525284 50.3366843,46.0616355 C49.8296375,46.3236285 49.285442,46.1322159 48.761613,46.1904365 C48.4764807,46.2223115 48.1682118,46.0967631 47.9102892,46.3148466 C47.7429572,46.3244416 47.5757882,46.3337114 47.4086191,46.3433064 C47.2419389,46.3346872 47.0755845,46.3260679 46.9089043,46.3176113 C46.8119593,46.275816 46.7151772,46.1979174 46.6180692,46.1975922 C43.6051161,46.1901113 40.592,46.1839314 37.5790468,46.1932012 C36.9178656,46.1953154 36.7409206,46.6849869 36.6561955,47.2276751 C36.5765214,47.7381629 36.9118371,48.0892758 37.142387,48.4805577 C36.8264603,48.6231821 36.4908187,48.5582937 36.162998,48.5747191 C35.6557882,47.2198689 34.8479674,46.2559754 33.2380285,46.3359882" id="Fill-122" fill="#BFEAFC"></path>
                <path d="M47.0809613,48.1296563 C47.6083747,48.0953418 48.1033646,48.1332341 48.4034868,48.6661645 C48.701165,49.1945415 48.5142811,49.6393278 48.1792912,50.0636231 C47.5202281,50.3846499 46.8883747,50.3796084 46.5196578,49.6793342 C46.1757067,49.0267098 46.4872342,48.5009349 47.0809613,48.1296563" id="Fill-124" fill="#D2EEF2"></path>
                <path d="M40.697613,16.8576792 C40.8538656,16.5670638 40.4774908,16.0095765 41.0171242,16.0087634 C41.4599756,16.0081129 41.713336,16.4371244 41.7095886,16.9393182 C41.7058411,17.4128897 41.422664,17.8383233 41.0523177,17.8184828 C40.423723,17.7848189 40.8856375,17.1700867 40.697613,16.8576792" id="Fill-126" fill="#FEB700"></path>
                <path d="M38.0192587,12.0136387 C37.8120081,12.3284857 38.2398697,12.8799557 37.6976293,12.9014225 C37.2463055,12.9191489 36.9544929,12.5228256 36.976,11.9944487 C36.9950631,11.5223409 37.2627617,11.1073154 37.6578737,11.126668 C38.2724562,11.1567541 37.7510713,11.7633549 38.0192587,12.0136387" id="Fill-128" fill="#FEB600"></path>
                <path d="M33.2380285,46.3359882 C34.8479674,46.2559754 35.6557882,47.2198689 36.162998,48.5747191 C36.1735886,49.3361413 36.2240978,50.1068332 35.6833238,50.7472605 C35.1145255,50.5340558 34.5141181,50.3984244 33.9974582,50.0586955 C34.3140367,49.6342376 34.526664,49.201323 34.2190468,48.6693683 C33.9150143,48.1442439 33.4302892,48.0978951 32.9056456,48.1279812 C32.8668676,47.5030035 32.9377434,46.8983543 33.2380285,46.3359882" id="Fill-130" fill="#663EBE"></path>
                <path d="M32.9056456,48.1279161 C33.4302892,48.09783 33.9150143,48.1443415 34.2190468,48.6693033 C34.526664,49.2014206 34.3140367,49.6343351 33.9974582,50.0586304 C33.3727739,50.376242 32.7493931,50.4014493 32.3669898,49.7509391 C31.9709002,49.0768479 32.2545662,48.5143192 32.9056456,48.1279161" id="Fill-132" fill="#D3EEF2"></path>
                <polygon id="Fill-134" fill="#D5F5FD" points="37.9586314 71.2300705 49.048 71.2432433 52.9474705 79.0370061 35.6765947 79.0370061"></polygon>
                <polygon id="Fill-136" fill="#ABDFF5" points="29.3222322 71.2308673 37.9576701 71.2308673 35.676611 79.0369898 25.4118452 79.0369898"></polygon>
            </g>
        </g>
    </g>
</svg>