<?xml version="1.0" encoding="UTF-8"?>
<svg width="44px" height="43px" viewBox="0 0 44 43" version="1.1" xmlns="http://www.w3.org/2000/svg" xmlns:xlink="http://www.w3.org/1999/xlink">
    <!-- Generator: Sketch 52.4 (67378) - http://www.bohemiancoding.com/sketch -->
    <title>check</title>
    <desc>Created with Sketch.</desc>
    <g id="Page-1" stroke="none" stroke-width="1" fill="none" fill-rule="evenodd">
        <g id="Landing" transform="translate(-270.000000, -324.000000)" fill="#804D84" fill-rule="nonzero">
            <g id="check" transform="translate(270.000000, 324.000000)">
                <path d="M43.3123967,21.5000393 C43.3123967,25.3385723 42.3527632,28.8906467 40.4334973,32.1562639 C38.5142315,35.4218811 35.9217894,38.0143233 32.6561721,39.9335891 C29.3905549,41.852855 25.8384805,42.8124885 21.9999475,42.8124885 C18.1614146,42.8124885 14.6093402,41.852855 11.343723,39.9335891 C8.07810574,38.0143233 5.48566357,35.4218811 3.56639775,32.1562639 C1.64713193,28.8906467 0.687498361,25.3385723 0.687498361,21.5000393 C0.687498361,17.6615064 1.64713193,14.109432 3.56639775,10.8438147 C5.48566357,7.57819753 8.07810574,4.98575536 11.343723,3.06648954 C14.6093402,1.14722372 18.1614146,0.18759015 21.9999475,0.18759015 C25.8384805,0.18759015 29.3905549,1.14722372 32.6561721,3.06648954 C35.9217894,4.98575536 38.5142315,7.57819753 40.4334973,10.8438147 C42.3527632,14.109432 43.3123967,17.6615064 43.3123967,21.5000393 Z M19.507766,32.757825 L35.3202283,16.9453627 C35.6066855,16.7161961 35.7499148,16.4010936 35.7499148,16.0000525 C35.7499148,15.5990113 35.6066855,15.2839088 35.3202283,15.0547422 L33.4296078,13.0781844 C33.1431506,12.7917272 32.8137234,12.6484979 32.4413289,12.6484979 C32.0689344,12.6484979 31.7395072,12.7917272 31.45305,13.0781844 L18.5624557,25.9687787 L12.5468451,19.953168 C12.2603879,19.6667108 11.9309607,19.5234816 11.5585662,19.5234816 C11.1861717,19.5234816 10.8567445,19.6667108 10.5702873,19.953168 L8.67966681,21.9297258 C8.39320959,22.1588924 8.24998033,22.4739949 8.24998033,22.8750361 C8.24998033,23.2760772 8.39320959,23.5911797 8.67966681,23.8203463 L17.6171455,32.757825 C17.8463121,33.0442822 18.1614146,33.1875115 18.5624557,33.1875115 C18.9634969,33.1875115 19.2785994,33.0442822 19.507766,32.757825 Z" id="check-circle"></path>
            </g>
        </g>
    </g>
</svg>