<?xml version="1.0" encoding="UTF-8"?>
<svg width="29px" height="29px" viewBox="0 0 29 29" version="1.1" xmlns="http://www.w3.org/2000/svg" xmlns:xlink="http://www.w3.org/1999/xlink">
    <!-- Generator: Sketch 52.4 (67378) - http://www.bohemiancoding.com/sketch -->
    <title>2-icon</title>
    <desc>Created with Sketch.</desc>
    <g id="Page-1" stroke="none" stroke-width="1" fill="none" fill-rule="evenodd">
        <g id="MiniSite" transform="translate(-397.000000, -1320.000000)">
            <g id="program" transform="translate(250.000000, 951.000000)">
                <g id="Group-6" transform="translate(57.000000, 133.000000)">
                    <g id="weeks" transform="translate(90.000000, 176.000000)">
                        <g id="2-icon" transform="translate(0.000000, 60.000000)">
                            <circle id="Oval-Copy" fill="#4E69A2" fill-rule="nonzero" cx="14.5" cy="14.5" r="14.5"></circle>
                            <path d="M19.0263672,20.9726562 L10.2548828,20.9726562 L10.2548828,19.2324219 L14.3945312,14.8203125 C14.7050797,14.4804671 14.9672841,14.1699233 15.1811523,13.8886719 C15.3950206,13.6074205 15.5678704,13.3496105 15.699707,13.1152344 C15.8315436,12.8808582 15.9252927,12.6625987 15.980957,12.4604492 C16.0366214,12.2582998 16.0644531,12.0634775 16.0644531,11.8759766 C16.0644531,11.3076143 15.9208999,10.8608415 15.6337891,10.5356445 C15.3466783,10.2104476 14.9365261,10.0478516 14.4033203,10.0478516 C14.1044907,10.0478516 13.8393566,10.1020502 13.6079102,10.2104492 C13.3764637,10.3188482 13.1831062,10.4682608 13.027832,10.6586914 C12.8725578,10.849122 12.7539067,11.0761706 12.671875,11.3398438 C12.5898433,11.6035169 12.5488281,11.8906234 12.5488281,12.2011719 L10,12.2011719 C10,11.6269503 10.102538,11.0849635 10.3076172,10.5751953 C10.5126963,10.0654271 10.8085918,9.62011909 11.1953125,9.23925781 C11.5820332,8.85839653 12.0493137,8.55664174 12.597168,8.33398438 C13.1450223,8.11132701 13.7617153,8 14.4472656,8 C15.1210971,8 15.7172826,8.08349526 16.2358398,8.25048828 C16.7543971,8.4174813 17.1894514,8.65624845 17.5410156,8.96679688 C17.8925799,9.2773453 18.1591788,9.65820087 18.3408203,10.109375 C18.5224618,10.5605491 18.6132812,11.06738 18.6132812,11.6298828 C18.6132812,12.0576193 18.5458991,12.4707011 18.4111328,12.8691406 C18.2763665,13.2675801 18.0859387,13.6660136 17.8398438,14.0644531 C17.5937488,14.4628926 17.2963885,14.8657206 16.9477539,15.2729492 C16.5991194,15.6801778 16.2109396,16.1035134 15.7832031,16.5429688 L13.5244141,18.9248047 L19.0263672,18.9248047 L19.0263672,20.9726562 Z" id="2" fill="#FFFFFF"></path>
                        </g>
                    </g>
                </g>
            </g>
        </g>
    </g>
</svg>