<?xml version="1.0" encoding="UTF-8"?>
<svg width="29px" height="29px" viewBox="0 0 29 29" version="1.1" xmlns="http://www.w3.org/2000/svg" xmlns:xlink="http://www.w3.org/1999/xlink">
    <!-- Generator: Sketch 52.4 (67378) - http://www.bohemiancoding.com/sketch -->
    <title>3-icon</title>
    <desc>Created with Sketch.</desc>
    <g id="Page-1" stroke="none" stroke-width="1" fill="none" fill-rule="evenodd">
        <g id="MiniSite" transform="translate(-397.000000, -1377.000000)">
            <g id="program" transform="translate(250.000000, 951.000000)">
                <g id="Group-6" transform="translate(57.000000, 133.000000)">
                    <g id="weeks" transform="translate(90.000000, 176.000000)">
                        <g id="3-icon" transform="translate(0.000000, 117.000000)">
                            <circle id="Oval-Copy-2" fill="#4E69A2" fill-rule="nonzero" cx="14.5" cy="14.5" r="14.5"></circle>
                            <path d="M12.8916016,13.4492188 L14.2451172,13.4492188 C14.8896517,13.4492188 15.3671859,13.2880875 15.6777344,12.9658203 C15.9882828,12.6435531 16.1435547,12.215823 16.1435547,11.6826172 C16.1435547,11.448241 16.1083988,11.2299815 16.0380859,11.027832 C15.9677731,10.8256826 15.8608406,10.6528327 15.7172852,10.5092773 C15.5737298,10.3657219 15.3935558,10.2529301 15.1767578,10.1708984 C14.9599599,10.0888668 14.7050796,10.0478516 14.4121094,10.0478516 C14.1777332,10.0478516 13.956544,10.0815426 13.7485352,10.1489258 C13.5405263,10.2163089 13.3588875,10.3115228 13.2036133,10.4345703 C13.0483391,10.5576178 12.9252934,10.7084952 12.8344727,10.887207 C12.7436519,11.0659189 12.6982422,11.2666004 12.6982422,11.4892578 L10.1582031,11.4892578 C10.1582031,10.9619114 10.2680653,10.4829123 10.487793,10.0522461 C10.7075206,9.62157988 11.0063458,9.2553726 11.3842773,8.95361328 C11.7622089,8.65185396 12.2060521,8.4174813 12.7158203,8.25048828 C13.2255885,8.08349526 13.7705049,8 14.3505859,8 C14.9951204,8 15.5825169,8.07763594 16.112793,8.23291016 C16.6430691,8.38818437 17.0986309,8.61962737 17.4794922,8.92724609 C17.8603535,9.23486482 18.1562489,9.61572039 18.3671875,10.0698242 C18.5781261,10.5239281 18.6835938,11.0498017 18.6835938,11.6474609 C18.6835938,11.9228529 18.6411137,12.1953112 18.5561523,12.4648438 C18.471191,12.7343763 18.3452157,12.9877918 18.1782227,13.2250977 C18.0112296,13.4624035 17.8076184,13.6821279 17.5673828,13.8842773 C17.3271472,14.0864268 17.0517594,14.2578118 16.7412109,14.3984375 C17.4619177,14.6562513 17.9995099,15.0429662 18.3540039,15.5585938 C18.7084979,16.0742213 18.8857422,16.6835902 18.8857422,17.3867188 C18.8857422,17.984378 18.7700207,18.5175758 18.5385742,18.9863281 C18.3071277,19.4550805 17.9892598,19.8491195 17.5849609,20.168457 C17.180662,20.4877946 16.7016629,20.7309562 16.1479492,20.8979492 C15.5942355,21.0649422 14.9951204,21.1484375 14.3505859,21.1484375 C13.8056613,21.1484375 13.2724635,21.075196 12.7509766,20.9287109 C12.2294896,20.7822258 11.7651388,20.5566421 11.3579102,20.2519531 C10.9506816,19.9472641 10.6225598,19.5649437 10.3735352,19.1049805 C10.1245105,18.6450172 10,18.098636 10,17.4658203 L12.5400391,17.4658203 C12.5400391,17.7060559 12.5869136,17.9257803 12.6806641,18.125 C12.7744145,18.3242197 12.9047843,18.4956048 13.0717773,18.6391602 C13.2387704,18.7827156 13.4365223,18.8955074 13.6650391,18.9775391 C13.8935558,19.0595707 14.1425768,19.1005859 14.4121094,19.1005859 C14.710939,19.1005859 14.9804675,19.0595707 15.2207031,18.9775391 C15.4609387,18.8955074 15.6645499,18.7768562 15.831543,18.621582 C15.998536,18.4663078 16.1259761,18.2817394 16.2138672,18.0678711 C16.3017583,17.8540028 16.3457031,17.6152357 16.3457031,17.3515625 C16.3457031,17.0117171 16.2973638,16.7202161 16.2006836,16.4770508 C16.1040034,16.2338855 15.9648447,16.0361336 15.7832031,15.8837891 C15.6015616,15.7314446 15.3803724,15.6186527 15.1196289,15.5454102 C14.8588854,15.4721676 14.5673844,15.4355469 14.2451172,15.4355469 L12.8916016,15.4355469 L12.8916016,13.4492188 Z" id="3" fill="#FFFFFF"></path>
                        </g>
                    </g>
                </g>
            </g>
        </g>
    </g>
</svg>