<?xml version="1.0" encoding="UTF-8"?>
<svg width="29px" height="29px" viewBox="0 0 29 29" version="1.1" xmlns="http://www.w3.org/2000/svg" xmlns:xlink="http://www.w3.org/1999/xlink">
    <!-- Generator: Sketch 52.4 (67378) - http://www.bohemiancoding.com/sketch -->
    <title>5-icon</title>
    <desc>Created with Sketch.</desc>
    <g id="Page-1" stroke="none" stroke-width="1" fill="none" fill-rule="evenodd">
        <g id="MiniSite" transform="translate(-767.000000, -1260.000000)">
            <g id="program" transform="translate(250.000000, 951.000000)">
                <g id="Group-6" transform="translate(57.000000, 133.000000)">
                    <g id="weeks" transform="translate(90.000000, 176.000000)">
                        <g id="5-icon" transform="translate(370.000000, 0.000000)">
                            <circle id="Oval-Copy-18" fill="#4E69A2" fill-rule="nonzero" cx="14.5" cy="14.5" r="14.5"></circle>
                            <path d="M10.3251953,14.5039062 L11.0634766,8 L18.2353516,8 L18.2353516,10.1181641 L13.1464844,10.1181641 L12.8300781,12.8691406 C12.9179692,12.8222654 13.0263665,12.7709964 13.1552734,12.715332 C13.2841803,12.6596677 13.4321281,12.6069338 13.5991211,12.5571289 C13.7661141,12.507324 13.9477529,12.4663088 14.144043,12.434082 C14.340333,12.4018553 14.5439443,12.3857422 14.7548828,12.3857422 C15.3701203,12.3857422 15.9194312,12.4838857 16.402832,12.6801758 C16.8862329,12.8764658 17.2949202,13.1591778 17.6289062,13.5283203 C17.9628923,13.8974628 18.2177726,14.3486301 18.3935547,14.8818359 C18.5693368,15.4150417 18.6572266,16.0185513 18.6572266,16.6923828 C18.6572266,17.260745 18.5693368,17.8027318 18.3935547,18.3183594 C18.2177726,18.833987 17.9511737,19.288084 17.59375,19.6806641 C17.2363263,20.0732442 16.7866238,20.3867176 16.2446289,20.6210938 C15.702634,20.8554699 15.0654333,20.9726562 14.3330078,20.9726562 C13.7822238,20.9726562 13.249026,20.889161 12.7333984,20.722168 C12.2177709,20.5551749 11.7607442,20.3120133 11.3623047,19.9926758 C10.9638652,19.6733382 10.6416028,19.2822289 10.3955078,18.8193359 C10.1494128,18.356443 10.0175782,17.8291045 10,17.2373047 L12.5136719,17.2373047 C12.5664065,17.7705105 12.7524398,18.1850571 13.0717773,18.480957 C13.3911149,18.7768569 13.8085912,18.9248047 14.3242188,18.9248047 C14.646486,18.9248047 14.920409,18.8632819 15.1459961,18.7402344 C15.3715832,18.6171869 15.5561516,18.4501964 15.699707,18.2392578 C15.8432624,18.0283193 15.9487301,17.7778335 16.0161133,17.487793 C16.0834964,17.1977525 16.1171875,16.8857439 16.1171875,16.5517578 C16.1171875,16.2177718 16.0761723,15.9116225 15.9941406,15.6333008 C15.912109,15.3549791 15.7861337,15.1176768 15.6162109,14.9213867 C15.4462882,14.7250967 15.2324232,14.5727544 14.9746094,14.4643555 C14.7167956,14.3559565 14.4121111,14.3017578 14.0605469,14.3017578 C13.8261707,14.3017578 13.6225595,14.3222654 13.449707,14.3632812 C13.2768546,14.4042971 13.1230475,14.4570309 12.9882812,14.5214844 C12.853515,14.5859378 12.7348638,14.6606441 12.6323242,14.7456055 C12.5297846,14.8305668 12.4345708,14.9169917 12.3466797,15.0048828 L10.3251953,14.5039062 Z" id="5-copy" fill="#FFFFFF"></path>
                        </g>
                    </g>
                </g>
            </g>
        </g>
    </g>
</svg>