<?xml version="1.0" encoding="UTF-8"?>
<svg width="29px" height="29px" viewBox="0 0 29 29" version="1.1" xmlns="http://www.w3.org/2000/svg" xmlns:xlink="http://www.w3.org/1999/xlink">
    <!-- Generator: Sketch 52.4 (67378) - http://www.bohemiancoding.com/sketch -->
    <title>6-icon</title>
    <desc>Created with Sketch.</desc>
    <g id="Page-1" stroke="none" stroke-width="1" fill="none" fill-rule="evenodd">
        <g id="MiniSite" transform="translate(-767.000000, -1324.000000)">
            <g id="program" transform="translate(250.000000, 951.000000)">
                <g id="Group-6" transform="translate(57.000000, 133.000000)">
                    <g id="weeks" transform="translate(90.000000, 176.000000)">
                        <g id="6-icon" transform="translate(370.000000, 64.000000)">
                            <circle id="Oval-Copy-6" fill="#4E69A2" fill-rule="nonzero" cx="14.5" cy="14.5" r="14.5"></circle>
                            <path d="M16.8818359,8 L16.8818359,10.0917969 L16.7324219,10.0917969 C16.1289032,10.0917969 15.5869165,10.1694328 15.1064453,10.324707 C14.6259742,10.4799812 14.2114275,10.7011704 13.862793,10.9882812 C13.5141584,11.2753921 13.2329112,11.6240214 13.019043,12.0341797 C12.8051747,12.444338 12.6630863,12.9042943 12.5927734,13.4140625 C12.9033219,13.0976547 13.2739236,12.8442392 13.7045898,12.6538086 C14.1352561,12.463378 14.6259738,12.3681641 15.1767578,12.3681641 C15.7802765,12.3681641 16.3090798,12.4838856 16.7631836,12.715332 C17.2172874,12.9467785 17.5966782,13.2602519 17.9013672,13.6557617 C18.2060562,14.0512715 18.4345696,14.5112278 18.5869141,15.0356445 C18.7392586,15.5600612 18.8154297,16.1181611 18.8154297,16.7099609 C18.8154297,17.3310578 18.7143565,17.9096653 18.512207,18.4458008 C18.3100576,18.9819363 18.0214863,19.4462871 17.6464844,19.8388672 C17.2714825,20.2314473 16.8188503,20.5405262 16.2885742,20.7661133 C15.7582981,20.9917003 15.1650423,21.1044922 14.5087891,21.1044922 C13.8232388,21.1044922 13.2021512,20.9799817 12.6455078,20.730957 C12.0888644,20.4819323 11.6157246,20.133303 11.2260742,19.6850586 C10.8364238,19.2368142 10.534669,18.7006867 10.3208008,18.0766602 C10.1069325,17.4526336 10,16.7656288 10,16.015625 L10,15.03125 C10,13.9999948 10.1464829,13.0537152 10.4394531,12.1923828 C10.7324233,11.3310504 11.1572238,10.5898469 11.7138672,9.96875 C12.2705106,9.34765314 12.953121,8.86425954 13.7617188,8.51855469 C14.5703165,8.17284983 15.4902292,8 16.5214844,8 L16.8818359,8 Z M14.4033203,14.4072266 C14.1748035,14.4072266 13.9638682,14.437988 13.7705078,14.4995117 C13.5771475,14.5610355 13.401368,14.6459956 13.2431641,14.7543945 C13.0849601,14.8627935 12.9458014,14.9887688 12.8256836,15.1323242 C12.7055658,15.2758796 12.6103519,15.426757 12.5400391,15.5849609 L12.5400391,16.3496094 C12.5400391,16.8007835 12.5869136,17.1962874 12.6806641,17.5361328 C12.7744145,17.8759783 12.9047843,18.1586903 13.0717773,18.3842773 C13.2387704,18.6098644 13.4409168,18.7783198 13.6782227,18.8896484 C13.9155285,19.0009771 14.1748033,19.0566406 14.4560547,19.0566406 C14.7314467,19.0566406 14.9819325,18.9980475 15.2075195,18.8808594 C15.4331066,18.7636713 15.6249992,18.6025401 15.7832031,18.3974609 C15.941407,18.1923818 16.0644527,17.9477553 16.1523438,17.6635742 C16.2402348,17.3793931 16.2841797,17.0703142 16.2841797,16.7363281 C16.2841797,16.3964827 16.2416996,16.0844741 16.1567383,15.800293 C16.0717769,15.5161119 15.9472664,15.2700206 15.7832031,15.0620117 C15.6191398,14.8540029 15.4213879,14.6928717 15.1899414,14.5786133 C14.9584949,14.4643549 14.6962905,14.4072266 14.4033203,14.4072266 Z" id="6" fill="#FFFFFF"></path>
                        </g>
                    </g>
                </g>
            </g>
        </g>
    </g>
</svg>