<?xml version="1.0" encoding="UTF-8"?>
<svg width="29px" height="29px" viewBox="0 0 29 29" version="1.1" xmlns="http://www.w3.org/2000/svg" xmlns:xlink="http://www.w3.org/1999/xlink">
    <!-- Generator: Sketch 52.4 (67378) - http://www.bohemiancoding.com/sketch -->
    <title>8-icon</title>
    <desc>Created with Sketch.</desc>
    <g id="Page-1" stroke="none" stroke-width="1" fill="none" fill-rule="evenodd">
        <g id="MiniSite" transform="translate(-767.000000, -1435.000000)">
            <g id="program" transform="translate(250.000000, 951.000000)">
                <g id="Group-6" transform="translate(57.000000, 133.000000)">
                    <g id="weeks" transform="translate(90.000000, 176.000000)">
                        <g id="8-icon" transform="translate(370.000000, 175.000000)">
                            <circle id="Oval-Copy-9" fill="#4E69A2" fill-rule="nonzero" cx="14.5" cy="14.5" r="14.5"></circle>
                            <path d="M18.3759766,11.5771484 C18.3759766,12.1982453 18.2207047,12.749021 17.9101562,13.2294922 C17.5996078,13.7099633 17.1718777,14.0937486 16.6269531,14.3808594 C17.24805,14.679689 17.7402326,15.091306 18.1035156,15.6157227 C18.4667987,16.1401393 18.6484375,16.7568324 18.6484375,17.4658203 C18.6484375,18.0751984 18.5400401,18.6083962 18.3232422,19.0654297 C18.1064442,19.5224632 17.8061543,19.9062484 17.4223633,20.2167969 C17.0385723,20.5273453 16.5830104,20.7602531 16.0556641,20.9155273 C15.5283177,21.0708016 14.9541047,21.1484375 14.3330078,21.1484375 C13.7177704,21.1484375 13.1450222,21.0708016 12.6147461,20.9155273 C12.08447,20.7602531 11.6259785,20.5273453 11.2392578,20.2167969 C10.8525371,19.9062484 10.5493175,19.5224632 10.3295898,19.0654297 C10.1098622,18.6083962 10,18.0751984 10,17.4658203 C10,16.7568324 10.1816388,16.1386745 10.5449219,15.6113281 C10.9082049,15.0839817 11.3974579,14.6738296 12.0126953,14.3808594 C11.4677707,14.0937486 11.0415054,13.7099633 10.7338867,13.2294922 C10.426268,12.749021 10.2724609,12.1982453 10.2724609,11.5771484 C10.2724609,10.9970674 10.3735341,10.4858421 10.5756836,10.043457 C10.777833,9.60107201 11.0576154,9.22754059 11.4150391,8.92285156 C11.7724627,8.61816254 12.198728,8.38818437 12.6938477,8.23291016 C13.1889673,8.07763594 13.7324189,8 14.3242188,8 C14.9160186,8 15.4594702,8.07763594 15.9545898,8.23291016 C16.4497095,8.38818437 16.8774396,8.61816254 17.237793,8.92285156 C17.5981463,9.22754059 17.8779287,9.60107201 18.0771484,10.043457 C18.2763682,10.4858421 18.3759766,10.9970674 18.3759766,11.5771484 Z M16.0996094,17.28125 C16.0996094,16.9999986 16.0571293,16.7451183 15.972168,16.5166016 C15.8872066,16.2880848 15.7670906,16.0947274 15.6118164,15.9365234 C15.4565422,15.7783195 15.2690441,15.6567387 15.0493164,15.5717773 C14.8295887,15.486816 14.5849623,15.4443359 14.3154297,15.4443359 C14.0458971,15.4443359 13.8027355,15.486816 13.5859375,15.5717773 C13.3691395,15.6567387 13.1831062,15.7783195 13.027832,15.9365234 C12.8725578,16.0947274 12.7524418,16.2880848 12.6674805,16.5166016 C12.5825191,16.7451183 12.5400391,16.9999986 12.5400391,17.28125 C12.5400391,17.5625014 12.5825191,17.8159168 12.6674805,18.0415039 C12.7524418,18.267091 12.8725578,18.4589836 13.027832,18.6171875 C13.1831062,18.7753914 13.3706044,18.8955074 13.590332,18.9775391 C13.8100597,19.0595707 14.0576158,19.1005859 14.3330078,19.1005859 C14.8837918,19.1005859 15.3159164,18.9394547 15.6293945,18.6171875 C15.9428727,18.2949203 16.0996094,17.8496122 16.0996094,17.28125 Z M15.8359375,11.7001953 C15.8359375,11.2021459 15.7041029,10.8022476 15.4404297,10.5004883 C15.1767565,10.198729 14.8046899,10.0478516 14.3242188,10.0478516 C13.849607,10.0478516 13.4804701,10.1943345 13.2167969,10.4873047 C12.9531237,10.7802749 12.8212891,11.1845677 12.8212891,11.7001953 C12.8212891,12.2099635 12.9531237,12.6201156 13.2167969,12.9306641 C13.4804701,13.2412125 13.8525367,13.3964844 14.3330078,13.3964844 C14.813479,13.3964844 15.1840807,13.2412125 15.4448242,12.9306641 C15.7055677,12.6201156 15.8359375,12.2099635 15.8359375,11.7001953 Z" id="8" fill="#FFFFFF"></path>
                        </g>
                    </g>
                </g>
            </g>
        </g>
    </g>
</svg>