<?xml version="1.0" encoding="UTF-8"?>
<svg width="70px" height="60px" viewBox="0 0 70 60" version="1.1" xmlns="http://www.w3.org/2000/svg" xmlns:xlink="http://www.w3.org/1999/xlink">
    <!-- Generator: Sketch 52.4 (67378) - http://www.bohemiancoding.com/sketch -->
    <title>banker</title>
    <desc>Created with Sketch.</desc>
    <g id="Page-1" stroke="none" stroke-width="1" fill="none" fill-rule="evenodd">
        <g id="MiniSite" transform="translate(-746.000000, -1860.000000)">
            <g id="program" transform="translate(250.000000, 951.000000)">
                <g id="Group-2" transform="translate(496.000000, 905.000000)">
                    <g id="banker" transform="translate(0.000000, 4.000000)">
                        <path d="M63.8735075,5.99110624 L51.8918281,5.99110624 C48.5828613,5.99110624 45.9007219,8.67324561 45.9007219,11.9816795 L45.9007219,23.963359 C45.9007219,25.9483126 47.5104319,27.5580227 49.4953856,27.5580227 L49.4953856,33.5485958 L57.8824012,27.5580227 L63.8735075,27.5580227 C67.1819414,27.5580227 69.8640807,24.8758834 69.8640807,21.5669165 L69.8640807,11.9816795 C69.8640807,8.67324561 67.1819414,5.99110624 63.8735075,5.99110624 Z" id="Path" fill="#99D8AA"></path>
                        <path d="M49.4953856,59.9078642 L15.9473228,59.9078642 L15.9473228,49.1244061 C15.9473228,45.1544987 19.1656767,41.9356116 23.1361173,41.9356116 L42.3065911,41.9356116 C46.2770315,41.9356116 49.4953856,45.1544987 49.4953856,49.1244061 L49.4953856,59.9078642 Z" id="Path" fill="#34768B"></path>
                        <polygon id="Path" fill="#3B869E" points="45.9007219 45.5302753 53.0900494 45.5302753 53.0900494 59.9078642 45.9007219 59.9078642"></polygon>
                        <path d="M59.0806225,38.3409479 L59.0806225,39.5391691 C59.0806225,42.848136 56.3984831,45.5302753 53.0900494,45.5302753 L45.9007219,45.5302753 L45.9007219,41.9356116 C45.9007219,39.9506579 47.5104319,38.3409479 49.4953856,38.3409479 L59.0806225,38.3409479 Z" id="Path" fill="#FDC9A6"></path>
                        <path d="M32.7213541,59.9078642 L20.7396748,59.9078642 L20.7396748,55.1155123 L30.3249116,55.1155123 C31.6483918,55.1155123 32.7213541,56.1879417 32.7213541,57.5114217 L32.7213541,59.9078642 Z" id="Path" fill="#B9B9B9"></path>
                        <path d="M59.7431621,16.3646748 L57.0951358,15.0406615 C56.7289535,14.8589029 56.5797089,14.4143671 56.7614675,14.0481847 C56.8334246,13.9032042 56.9506884,13.7859405 57.0951358,13.7145163 L57.5519311,13.4863853 C57.7603405,13.383513 58.0049951,13.383513 58.2134046,13.4863853 L59.7431621,14.2523301 C60.3353436,14.5481543 61.055449,14.3077638 61.3512732,13.7155824 C61.6470973,13.1234009 61.4067069,12.4032956 60.8145255,12.1074714 L59.2853009,11.3431256 C59.2197399,11.3095455 59.1477827,11.2962201 59.0806225,11.2690364 L59.0806225,10.7834582 C59.0806225,10.1219847 58.5444079,9.585237 57.8824012,9.585237 C57.2209277,9.585237 56.68418,10.1219847 56.68418,10.7834582 L56.68418,11.2701023 C56.6159539,11.2978192 56.5439967,11.3106116 56.4784357,11.3441917 L56.0205744,11.5717898 C54.4705622,12.3478619 53.8432018,14.2331415 54.6192739,15.7826205 C54.9225603,16.3891935 55.4140016,16.8806348 56.0205744,17.1844542 L58.6686007,18.5079344 C59.0347831,18.690226 59.1840278,19.1342287 59.0022692,19.5009441 C58.9303119,19.6453917 58.8130482,19.7626553 58.6686007,19.8346126 L58.2118056,20.0622107 C58.003396,20.1650828 57.7587414,20.1650828 57.550332,20.0622107 L56.0205744,19.2967989 C55.4283931,19.0009747 54.7082877,19.2413652 54.4124635,19.8335465 C54.1166392,20.4257279 54.3570297,21.1453004 54.9492112,21.4411244 L56.4784357,22.2054703 C56.5439967,22.2390504 56.6159539,22.2513096 56.683114,22.2800926 L56.683114,22.7651377 C56.683114,23.4271442 57.2193288,23.963359 57.8813353,23.963359 C58.5428088,23.963359 59.0795565,23.4271442 59.0795565,22.7651377 L59.0795565,22.2790266 C59.1477827,22.2513096 59.2197399,22.2379842 59.2853009,22.2044042 L59.7431621,21.9768062 C61.2931743,21.2012671 61.9205348,19.3159875 61.1449958,17.7659753 C60.8411763,17.1599354 60.349735,16.6679612 59.7431621,16.3646748 Z" id="Path" fill="#55785F"></path>
                        <polygon id="Path" fill="#55785F" points="49.4953856 15.5763432 51.8918281 15.5763432 51.8918281 17.9727857 49.4953856 17.9727857"></polygon>
                        <polygon id="Path" fill="#55785F" points="63.8735075 15.5763432 66.269417 15.5763432 66.269417 17.9727857 63.8735075 17.9727857"></polygon>
                        <path d="M10.6272843,20.3686952 C9.30380425,20.3686952 8.23084179,19.2962658 8.23084179,17.9727857 L8.23084179,14.378122 L13.0237268,14.378122 L13.0237268,17.9727857 C13.0237268,19.2957328 11.9507645,20.3686952 10.6272843,20.3686952 Z" id="Path" fill="#A8A8A8"></path>
                        <path d="M10.6272843,5.99110624 C13.2742446,5.99110624 15.4201693,8.13649789 15.4201693,10.7834582 C15.4201693,13.4304185 13.2742446,15.5763432 10.6272843,15.5763432 C7.98032407,15.5763432 5.8343993,13.4304185 5.8343993,10.7834582 C5.8343993,8.13649789 7.98032407,5.99110624 10.6272843,5.99110624 Z" id="Path" fill="#F7BA61"></path>
                        <g id="Group" fill="#FBEDBF">
                            <polygon id="Path" points="9.42906304 0 11.8255055 0 11.8255055 2.3964425 9.42906304 2.3964425"></polygon>
                            <polygon id="Path" points="3.31962719 2.76422386 5.25714246 1.35599415 6.66590515 3.29457538 4.72839002 4.70280522"></polygon>
                            <polygon id="Path" points="0 8.59169411 0.740893099 6.31304825 3.01953883 7.05394121 2.27864587 9.33258708"></polygon>
                            <polygon id="Path" points="0.000533016569 12.9757554 2.28024495 12.2364613 3.01953883 14.5156402 0.740359981 15.2554672"></polygon>
                            <polygon id="Path" points="18.2328978 14.5167063 18.9732578 12.2375274 21.2524366 12.9784204 20.5115435 15.2570663"></polygon>
                            <polygon id="Path" points="18.2339638 7.05234226 20.5131426 6.31304825 21.2524366 8.5922271 18.9732578 9.33205409"></polygon>
                            <polygon id="Path" points="14.5881304 3.2940424 15.9974263 1.35599415 17.9349415 2.76475698 16.5256457 4.70280522"></polygon>
                        </g>
                        <polygon id="Path" fill="#CDCDCD" points="0.370979532 40.7373904 21.937896 40.7373904 21.937896 59.9078642 0.370979532 59.9078642"></polygon>
                        <path d="M12.352659,49.1244061 C12.352659,50.4478863 11.2796966,51.5208486 9.95621653,51.5208486 C8.63273635,51.5208486 7.55977404,50.4478863 7.55977404,49.1244061 C7.55977404,47.8009259 8.63273635,46.7284966 9.95621653,46.7284966 C11.2796966,46.7284966 12.352659,47.8009259 12.352659,49.1244061 Z" id="Path" fill="#B3E4E8"></path>
                        <polygon id="Path" fill="#3B869E" points="31.5231329 47.9261849 33.9195754 47.9261849 33.9195754 59.9078642 31.5231329 59.9078642"></polygon>
                        <polygon id="Path" fill="#3B869E" points="36.3154849 52.7190698 42.3065911 52.7190698 42.3065911 55.1155123 36.3154849 55.1155123"></polygon>
                        <polygon id="Path" fill="#3B869E" points="29.1266904 41.9356116 26.7302479 46.7284966 32.7213541 49.1244061"></polygon>
                        <polygon id="Path" fill="#3B869E" points="36.3154849 41.9356116 38.7119274 46.7284966 32.7213541 49.1244061"></polygon>
                        <polygon id="Path" fill="#D9D9D9" points="29.1266904 41.9356116 32.7213541 49.1244061 36.3154849 41.9356116 35.1177966 41.9356116 35.1177966 40.7373904 30.3249116 40.7373904 30.3249116 41.9356116"></polygon>
                        <polygon id="Path" fill="#F6BB92" points="30.3249116 35.9450383 35.1177966 35.9450383 35.1177966 41.9356116 30.3249116 41.9356116"></polygon>
                        <path d="M39.9101486,20.3686952 L38.7119274,21.5669165 L26.7302479,21.5669165 L25.5325598,20.3686952 L25.5325598,19.9939846 C25.5325598,16.2308876 28.5830135,13.1799007 32.3461105,13.1799007 L41.1083699,13.1799007 L39.9101486,20.3686952 Z" id="Path" fill="#A45E14"></path>
                        <path d="M32.7213541,37.1432596 C28.7509137,37.1432596 25.5325598,33.9243726 25.5325598,29.9539321 L25.5325598,20.3686952 L39.9101486,20.3686952 L39.9101486,29.9539321 C39.9101486,33.9243726 36.6917947,37.1432596 32.7213541,37.1432596 Z" id="Path" fill="#FDC9A6"></path>
                        <polygon id="Path" fill="#B3E4E8" points="25.5325598 25.1615802 30.3249116 25.1615802 30.3249116 29.9539321 25.5325598 29.9539321"></polygon>
                        <polygon id="Path" fill="#B3E4E8" points="35.1177966 25.1615802 39.9101486 25.1615802 39.9101486 29.9539321 35.1177966 29.9539321"></polygon>
                        <path d="M39.9101486,23.963359 L24.3343385,23.963359 L24.3343385,31.1521534 L31.5231329,31.1521534 L31.5231329,26.3598015 L33.9195754,26.3598015 L33.9195754,31.1521534 L41.1083699,31.1521534 L41.1083699,23.963359 L39.9101486,23.963359 Z M29.1266904,28.7557109 L26.7302479,28.7557109 L26.7302479,26.3598015 L29.1266904,26.3598015 L29.1266904,28.7557109 Z M38.7119274,28.7557109 L36.3154849,28.7557109 L36.3154849,26.3598015 L38.7119274,26.3598015 L38.7119274,28.7557109 Z" id="Shape" fill="#60A0AA" fill-rule="nonzero"></path>
                    </g>
                </g>
            </g>
        </g>
    </g>
</svg>