<?xml version="1.0" encoding="UTF-8"?>
<svg width="70px" height="72px" viewBox="0 0 70 72" version="1.1" xmlns="http://www.w3.org/2000/svg" xmlns:xlink="http://www.w3.org/1999/xlink">
    <!-- Generator: Sketch 52.4 (67378) - http://www.bohemiancoding.com/sketch -->
    <title>communication</title>
    <desc>Created with Sketch.</desc>
    <g id="Page-1" stroke="none" stroke-width="1" fill="none" fill-rule="evenodd">
        <g id="MiniSite" transform="translate(-307.000000, -1084.000000)">
            <g id="program" transform="translate(250.000000, 951.000000)">
                <g id="Group-6" transform="translate(57.000000, 133.000000)">
                    <g id="communication" transform="translate(0.000000, 0.000000)">
                        <path d="M8.65180125,31.8771701 C8.32682292,31.8771701 8.01486542,31.7480469 7.78483069,31.5180122 L2.88085944,26.6140408 C2.41048181,26.1268446 2.42404514,25.3504775 2.91069875,24.8800999 C3.38595917,24.4216581 4.13954,24.4216581 4.61425778,24.8800999 L8.65180125,28.9176432 L12.6893446,24.8800999 C13.1759983,24.4097222 13.9523654,24.4232856 14.4227431,24.9104818 C14.8817275,25.3857422 14.8817275,26.1387804 14.4227431,26.6140408 L9.51877167,31.5180122 C9.28873694,31.7480469 8.97677944,31.8771701 8.65180125,31.8771701 Z" id="Path" fill="#69B0BB"></path>
                        <path d="M50.3374567,28.1993272 L69.9544271,28.1993272 L69.9544271,44.1379124 C69.9544271,45.492079 68.8568793,46.5901693 67.5021701,46.5901693 L52.7897136,46.5901693 C51.4355469,46.5901693 50.3374567,45.492079 50.3374567,44.1379124 L50.3374567,28.1993272 Z" id="Path" fill="#D9D9D9"></path>
                        <path d="M24.5903863,8.58235681 L46.6596138,8.58235681 L46.6596138,18.3908419 C46.6596138,20.4220919 45.0124783,22.0692275 42.9812283,22.0692275 L27.0426432,22.0692275 C25.6884765,22.0692275 24.5903863,20.9711372 24.5903863,19.6169706 L24.5903863,8.58235681 Z" id="Path" fill="#CDCDCD"></path>
                        <path d="M24.5903863,0 L41.7550999,0 L41.7550999,22.0692275 L27.0426432,22.0692275 C25.6884765,22.0692275 24.5903863,20.9711372 24.5903863,19.6169706 L24.5903863,0 Z" id="Path" fill="#D9D9D9"></path>
                        <polygon id="Path" fill="#EA9D2D" points="28.2687717 31.8771701 38.0772569 31.8771701 38.0772569 41.6856554 28.2687717 41.6856554"></polygon>
                        <polygon id="Path" fill="#B3E4E8" points="0.0694444444 30.6515842 16.0080294 30.6515842 16.0080294 46.5901693 0.0694444444 46.5901693"></polygon>
                        <polygon id="Path" fill="#FBB540" points="28.2687717 31.8771701 38.0772569 31.8771701 38.0772569 36.781684 28.2687717 36.781684"></polygon>
                        <g id="Group" transform="translate(22.083333, 25.694444)" fill="#99D8AA">
                            <polygon id="Path" points="9.86328125 0.0526258333 12.3155382 0.0526258333 12.3155382 2.50488278 9.86328125 2.50488278"></polygon>
                            <polygon id="Path" points="9.86328125 19.6695964 12.3155382 19.6695964 12.3155382 22.1218533 9.86328125 22.1218533"></polygon>
                            <polygon id="Path" points="19.6717665 8.63498264 22.1240235 8.63498264 22.1240235 11.0872396 19.6717665 11.0872396"></polygon>
                            <polygon id="Path" points="0.0547959722 8.63498264 2.50705292 8.63498264 2.50705292 11.0872396 0.0547959722 11.0872396"></polygon>
                        </g>
                        <polygon id="Path" fill="#EA6B65" points="0.0694444444 41.6856554 16.0080294 41.6856554 16.0080294 46.5901693 0.0694444444 46.5901693"></polygon>
                        <polygon id="Path" fill="#CDCDCD" points="28.2687717 12.2607422 38.0772569 12.2607422 38.0772569 14.7124567 28.2687717 14.7124567"></polygon>
                        <polygon id="Path" fill="#CDCDCD" points="28.2687717 15.938585 38.0772569 15.938585 38.0772569 18.3908419 28.2687717 18.3908419"></polygon>
                        <polygon id="Path" fill="#FBB540" points="28.2687717 3.67838542 38.0772569 3.67838542 38.0772569 9.80848528 28.2687717 9.80848528"></polygon>
                        <polygon id="Path" fill="#F7BA61" points="63.8243272 36.781684 66.2760417 36.781684 66.2760417 39.233941 63.8243272 39.233941"></polygon>
                        <polygon id="Path" fill="#E78244" points="58.9198133 36.781684 61.3720703 36.781684 61.3720703 39.233941 58.9198133 39.233941"></polygon>
                        <polygon id="Path" fill="#EA6B65" points="54.0158419 36.781684 56.4680989 36.781684 56.4680989 39.233941 54.0158419 39.233941"></polygon>
                        <polygon id="Path" fill="#69B0BB" points="50.3374567 28.1993272 69.9544271 28.1993272 69.9544271 33.1032986 50.3374567 33.1032986"></polygon>
                        <path d="M30.7210286,61.3026258 L35.625,61.3026258 C37.65625,61.3026258 39.3033854,62.9492187 39.3033854,64.9810112 L39.3033854,71.1111111 L27.0426432,71.1111111 L27.0426432,64.9810112 C27.0426432,62.9492187 28.6892361,61.3026258 30.7210286,61.3026258 Z" id="Path" fill="#FFB1B5"></path>
                        <path d="M38.0772569,56.3986544 C38.0772569,59.1069878 35.8816189,61.3026258 33.1727431,61.3026258 C30.4644097,61.3026258 28.2687717,59.1069878 28.2687717,56.3986544 C28.2687717,53.6897786 30.4644097,51.4941406 33.1727431,51.4941406 C35.8816189,51.4941406 38.0772569,53.6897786 38.0772569,56.3986544 Z" id="Path" fill="#FFB1B5"></path>
                        <polygon id="Path" fill="#FFB1B5" points="31.9466146 60.0764974 34.3988715 60.0764974 34.3988715 62.5287543 31.9466146 62.5287543"></polygon>
                    </g>
                </g>
            </g>
        </g>
    </g>
</svg>