<?xml version="1.0" encoding="UTF-8"?>
<svg width="70px" height="69px" viewBox="0 0 70 69" version="1.1" xmlns="http://www.w3.org/2000/svg" xmlns:xlink="http://www.w3.org/1999/xlink">
    <!-- Generator: Sketch 52.4 (67378) - http://www.bohemiancoding.com/sketch -->
    <title>plant</title>
    <desc>Created with Sketch.</desc>
    <g id="Page-1" stroke="none" stroke-width="1" fill="none" fill-rule="evenodd">
        <g id="MiniSite" transform="translate(-306.000000, -1856.000000)">
            <g id="program" transform="translate(250.000000, 951.000000)">
                <g id="Group-3" transform="translate(56.000000, 905.000000)">
                    <g id="plant">
                        <path d="M29.5819855,20.6995392 C27.0836639,19.4984437 25.1642609,17.3547363 24.2451478,14.7389222 L23.8830566,13.6889648 L24.933014,13.319397 C27.5493621,12.4018861 30.4225921,12.5610352 32.9219818,13.7610627 C35.4208374,14.9616242 37.3407746,17.1058655 38.2588196,19.7222137 L38.6209106,20.7721711 L37.5704193,21.1342621 C34.9556732,22.0544434 32.0819092,21.8979645 29.5819855,20.6995392 Z" id="Path" fill="#6B9777"></path>
                        <path d="M31.2188721,6.39427182 C29.151535,5.40092465 27.5632477,3.62731934 26.8038177,1.46278385 L26.5517425,0.746078457 L27.2684479,0.494003262 C29.4324494,-0.266494785 31.8095397,-0.136184727 33.8774108,0.856094395 C35.9447479,1.84944156 37.5330353,3.62304688 38.2924652,5.78704834 L38.5445404,6.50428775 L37.8278351,6.75636295 C35.6638337,7.516861 33.2867432,7.38655094 31.2188721,6.39427182 Z" id="Path" fill="#85BC94"></path>
                        <path d="M47.6593018,20.6995392 C50.1576234,19.4984437 52.0770264,17.3547363 52.9961395,14.7389222 L53.3582306,13.6889648 L52.3082733,13.319397 C49.6919251,12.4018861 46.818695,12.5610352 44.3198395,13.7610627 C41.8204499,14.9616242 39.9005127,17.1058655 38.9824676,19.7222137 L38.6209106,20.7721711 L39.6708679,21.1342621 C42.2856139,22.0544434 45.1593781,21.8979645 47.6593018,20.6995392 Z" id="Path" fill="#6B9777"></path>
                        <path d="M46.4485931,6.39427182 C48.5159302,5.40092465 50.1042175,3.62731934 50.8636475,1.46278385 L51.1157227,0.746078457 L50.3990173,0.489196777 C48.2350159,-0.27130127 45.8579254,-0.140991211 43.7900544,0.851287773 C41.7221833,1.84463508 40.1338958,3.61824039 39.373932,5.78277588 L39.1229248,6.49948113 L39.8396302,6.75155633 C42.0030975,7.51365658 44.380188,7.38494873 46.4485931,6.39427182 Z" id="Path" fill="#85BC94"></path>
                        <path d="M38.6209106,32.5924683 C37.9538727,32.5924683 37.4139404,32.052002 37.4139404,31.385498 L37.4139404,6.04072574 C37.4139404,5.37422184 37.9538727,4.83375553 38.6209106,4.83375553 C39.2874146,4.83375553 39.8273468,5.37422184 39.8273468,6.04072574 L39.8273468,31.385498 C39.8273468,32.052002 39.2874146,32.5924683 38.6209106,32.5924683 Z" id="Path" fill="#5E8569"></path>
                        <polygon id="Path" fill="#F3AF3E" points="28.9656829 30.1785278 48.2756042 30.1785278 48.2756042 51.9029235 28.9656829 51.9029235"></polygon>
                        <polygon id="Path" fill="#60A0AA" points="0 51.9029235 22.9308319 51.9029235 22.9308319 68.7994385 0 68.7994385"></polygon>
                        <polygon id="Path" fill="#EAEAE8" points="15.6895446 51.9029235 22.9308319 51.9029235 22.9308319 68.7994385 15.6895446 68.7994385"></polygon>
                        <path d="M37.3162079,67.0963288 L22.9308319,65.1785278 L22.9308319,51.9029235 L31.1003112,47.8184509 C33.4998322,46.6189575 36.3655853,46.8437957 38.5482788,48.40271 L42.2412873,51.9029235 L42.2412873,55.5986022 L57.3145295,50.9373473 C59.6243286,50.3215789 61.9966126,51.6951751 62.612381,54.0049743 C62.7095794,54.3702698 62.7587127,54.7462464 62.7587127,55.123825 C62.7581787,56.8349456 61.750946,58.3847809 60.1877594,59.0801239 L44.4618988,66.0693359 C42.220459,67.0653534 39.7472381,67.4210358 37.3162079,67.0963288 Z" id="Path" fill="#FDC9A6"></path>
                        <path d="M32.5860596,48.644104 C34.6720886,48.1559753 36.8670654,48.616333 38.5808563,49.9018097 L41.3819886,52.0027923 C43.1342316,53.3171081 43.4893799,55.8031463 42.1750641,57.5553893 C42.1504974,57.588501 42.1248626,57.6210785 42.0986938,57.6536559 C40.8132171,59.2595672 38.5135651,59.6163177 36.8019105,58.4755706 L32.5860596,55.6669616 L32.5860596,48.644104 Z" id="Path" fill="#F6BB92"></path>
                        <polygon id="Path" fill="#EA9D2D" points="28.9656829 37.4203491 48.2756042 37.4203491 48.2756042 44.6616364 28.9656829 44.6616364"></polygon>
                        <polygon id="Path" fill="#EA9D2D" points="28.9656829 37.4203491 48.2756042 37.4203491 48.2756042 44.6616364 28.9656829 44.6616364"></polygon>
                        <polygon id="Path" fill="#EA9D2D" points="32.5860596 30.1785278 35 30.1785278 35 37.4203491 32.5860596 37.4203491"></polygon>
                        <polygon id="Path" fill="#DA922A" points="42.2412873 37.4203491 44.6552277 37.4203491 44.6552277 44.6616364 42.2412873 44.6616364"></polygon>
                        <polygon id="Path" fill="#EA9D2D" points="35 44.6616364 37.4139404 44.6616364 37.4139404 51.9029235 35 51.9029235"></polygon>
                        <path d="M20.5174255,35.0064087 C20.5174255,39.0054321 17.2751618,42.247696 13.2756042,42.247696 C9.27658074,42.247696 6.03431705,39.0054321 6.03431705,35.0064087 C6.03431705,31.0068512 9.27658074,27.7651214 13.2756042,27.7651214 C17.2751618,27.7651214 20.5174255,31.0068512 20.5174255,35.0064087 Z" id="Path" fill="#F3AF3E"></path>
                        <path d="M13.5896302,38.6064911 C12.9231263,38.6027526 12.3858643,38.059082 12.3896027,37.3925781 C12.3933411,36.7912292 12.8392791,36.2838745 13.4352874,36.2037659 C13.6451722,36.1759948 13.8438415,36.092682 14.0110016,35.9623718 C14.1792298,35.8336639 14.3106079,35.6627655 14.3923187,35.4673004 C14.6652222,34.8590088 15.3792572,34.5871735 15.9875488,34.8600768 C16.5707397,35.1217651 16.8489837,35.7930755 16.6214753,36.390686 C16.1264038,37.5869751 15.0299836,38.4275817 13.7466431,38.5958099 C13.6943054,38.6027526 13.6419678,38.6064911 13.5896302,38.6064911 Z" id="Path" fill="#EA9D2D"></path>
                        <path d="M11.0443115,35.2899933 C10.3778076,35.2889251 9.83787533,34.7479248 9.83894352,34.0814209 C9.83894352,33.9238739 9.86991879,33.767929 9.93026727,33.6221313 C10.4253387,32.4253083 11.5212249,31.5841675 12.8050995,31.4159393 C13.4662629,31.3299561 14.0718841,31.7961883 14.1578675,32.4573517 C14.2438507,33.118515 13.7776185,33.7241364 13.1164551,33.8101196 C12.9065705,33.8373566 12.7073669,33.9206696 12.5407409,34.0515137 C12.3719788,34.1796875 12.2406006,34.3505859 12.1594238,34.5465851 C11.9719696,34.9967956 11.5319061,35.2899933 11.0443115,35.2899933 Z" id="Path" fill="#EA9D2D"></path>
                        <path d="M70,26.5581512 C70,30.5571746 66.7577362,33.7994385 62.7587127,33.7994385 C58.7591553,33.7994385 55.5174255,30.5571746 55.5174255,26.5581512 C55.5174255,22.5585938 58.7591553,19.3168639 62.7587127,19.3168639 C66.7577362,19.3168639 70,22.5585938 70,26.5581512 Z" id="Path" fill="#F3AF3E"></path>
                        <path d="M62.4713898,30.161972 C62.4238587,30.161438 62.3763275,30.1587677 62.3287964,30.1534271 C61.0449219,29.9974823 59.9415589,29.169693 59.4326019,27.9808807 C59.1703796,27.3677826 59.4550324,26.65802 60.0686646,26.3963317 C60.6817627,26.1341095 61.3909912,26.4192962 61.6532135,27.0323944 C61.8225098,27.4286652 62.1904754,27.7047729 62.6187897,27.7565765 C63.280487,27.835083 63.7531281,28.4353638 63.6746216,29.0975952 C63.6025238,29.7037506 63.0892944,30.1603698 62.4783325,30.161972 L62.4713898,30.161972 Z" id="Path" fill="#EA9D2D"></path>
                        <path d="M64.9793244,26.8177033 C64.4954681,26.8177033 64.058609,26.528778 63.8690186,26.083908 C63.6997223,25.6871032 63.3317565,25.4109954 62.9034424,25.3597259 C62.2401429,25.2924347 61.7573548,24.7001647 61.824646,24.0368652 C61.8919372,23.3740998 62.4842072,22.8907777 63.1469727,22.9580688 C63.15979,22.959137 63.1731414,22.9607391 63.1859588,22.9628753 C64.4698333,23.1188202 65.5731964,23.9460755 66.0826873,25.1348877 C66.3449097,25.7474518 66.061325,26.4572144 65.4487611,26.7199707 C65.2981567,26.7845916 65.1358032,26.8177033 64.9718475,26.8177033 L64.9793244,26.8177033 Z" id="Path" fill="#EA9D2D"></path>
                        <g id="Group" transform="translate(1.093750, 0.000000)" fill="#F3AF3E">
                            <polygon id="Path" points="3.73359684 13.282013 6.14753727 13.282013 6.14753727 15.6959534 3.73359684 15.6959534"></polygon>
                            <polygon id="Path" points="3.73359684 20.5238343 6.14753727 20.5238343 6.14753727 22.9372406 3.73359684 22.9372406"></polygon>
                            <polygon id="Path" points="7.35450748 16.9029235 9.76844791 16.9029235 9.76844791 19.3168639 7.35450748 19.3168639"></polygon>
                            <polygon id="Path" points="0.113220215 16.9029235 2.52716064 16.9029235 2.52716064 19.3168639 0.113220215 19.3168639"></polygon>
                            <polygon id="Path" points="61.6649627 0.00640869141 64.0789032 0.00640869141 64.0789032 2.4198151 61.6649627 2.4198151"></polygon>
                            <polygon id="Path" points="61.6649627 7.24769596 64.0789032 7.24769596 64.0789032 9.66163639 61.6649627 9.66163639"></polygon>
                            <polygon id="Path" points="65.2853394 3.62678531 67.6992798 3.62678531 67.6992798 6.04072574 65.2853394 6.04072574"></polygon>
                            <polygon id="Path" points="58.0440521 3.62678531 60.4579925 3.62678531 60.4579925 6.04072574 58.0440521 6.04072574"></polygon>
                        </g>
                        <path d="M32.5860596,54.3168639 L36.8019105,57.1276092 C38.5140991,58.2678223 40.8137513,57.9105378 42.0986938,56.3046265 C43.4674836,54.5951081 43.1908416,52.0999909 41.4813232,50.7317352 C41.4487458,50.7055664 41.4156341,50.6799316 41.3819886,50.6548309 L38.5808563,48.5538483 C36.3864136,46.9073486 33.4501647,46.6424561 30.9967041,47.8697204 L22.9308319,51.9029235 L22.9308319,54.3168639 L32.5860596,54.3168639 Z" id="Path" fill="#FDC9A6"></path>
                    </g>
                </g>
            </g>
        </g>
    </g>
</svg>