<?xml version="1.0" encoding="UTF-8"?>
<svg width="70px" height="70px" viewBox="0 0 70 70" version="1.1" xmlns="http://www.w3.org/2000/svg" xmlns:xlink="http://www.w3.org/1999/xlink">
    <!-- Generator: Sketch 52.4 (67378) - http://www.bohemiancoding.com/sketch -->
    <title>strategy</title>
    <desc>Created with Sketch.</desc>
    <g id="Page-1" stroke="none" stroke-width="1" fill="none" fill-rule="evenodd">
        <g id="MiniSite" transform="translate(-307.000000, -1538.000000)">
            <g id="program" transform="translate(250.000000, 951.000000)">
                <g id="Group-4" transform="translate(57.000000, 587.000000)">
                    <g id="strategy">
                        <path d="M70,20.5174255 C70,25.8494567 65.6773376,30.1721191 60.3447723,30.1721191 C55.012207,30.1721191 50.6895446,25.8494567 50.6895446,20.5174255 C50.6895446,15.1848602 55.012207,10.8621979 60.3447723,10.8621979 C65.6773376,10.8621979 70,15.1848602 70,20.5174255 Z" id="Path" fill="#99D8AA"></path>
                        <path d="M19.3104554,20.5174255 C19.3104554,25.8494567 14.987793,30.1721191 9.6552277,30.1721191 C4.32266242,30.1721191 0,25.8494567 0,20.5174255 C0,15.1848602 4.32266242,10.8621979 9.6552277,10.8621979 C14.987793,10.8621979 19.3104554,15.1848602 19.3104554,20.5174255 Z" id="Path" fill="#FBB540"></path>
                        <path d="M44.0517425,9.05174252 C44.0517425,14.051056 39.9993133,18.103485 35,18.103485 C30.0006867,18.103485 25.9482575,14.051056 25.9482575,9.05174252 C25.9482575,4.0524292 30.0006867,0 35,0 C39.9993133,0 44.0517425,4.0524292 44.0517425,9.05174252 Z" id="Path" fill="#FBEDBF"></path>
                        <path d="M7.94517514,25.3447723 C7.44476318,25.3447723 6.99615479,25.0360871 6.81777961,24.5687866 L5.51094059,21.1497497 C5.28129574,20.5238343 5.6027985,19.8306274 6.22871402,19.6015168 C6.84234619,19.3766784 7.52326969,19.6810913 7.76519775,20.2877808 L9.07363898,23.7068177 C9.31129459,24.3295288 8.99940494,25.0275421 8.37722785,25.2651978 C8.23890689,25.3180695 8.09257504,25.3447723 7.94517514,25.3447723 Z" id="Path" fill="#A83B32"></path>
                        <path d="M61.9319915,19.0471649 L60.925293,20.7235718 L59.4892121,19.5748138 C58.9695739,19.1571808 58.20961,19.2399596 57.7925111,19.7601318 C57.7775573,19.7782897 57.7636719,19.7969818 57.7497864,19.8162079 L55.33638,23.2352448 C54.9406432,23.7719727 55.0549316,24.5271302 55.5916595,24.9228669 C56.1283874,25.3180695 56.8835449,25.2037811 57.2792816,24.6675872 C57.2888947,24.6542358 57.2979736,24.6414185 57.3070526,24.6280671 L58.9823913,22.255249 L60.4959106,23.4622192 C61.0160827,23.8782502 61.7755127,23.793869 62.1920776,23.2736969 C62.2257233,23.2315063 62.2566986,23.1871795 62.2844696,23.1412506 L64.2754364,19.8220825 L63.8059997,18.4137726 L61.9319915,19.0471649 Z" id="Path" fill="#EA6B65"></path>
                        <path d="M66.9211579,20.1355744 L65.7141877,16.5151978 C65.5032349,15.8828735 64.8196411,15.5416107 64.1873169,15.7525635 L60.5669403,16.9595337 C59.933548,17.1699525 59.5912171,17.8540802 59.8016357,18.4874725 C60.0125885,19.1203307 60.6961823,19.4631958 61.3295746,19.252243 L61.9330597,19.0519714 L63.2340241,16.8794251 C63.567276,16.3021087 64.3048096,16.1039733 64.8826598,16.4372253 C65.4599762,16.7699432 65.6581116,17.5080109 65.3253937,18.0853271 C65.3179168,18.0981445 65.3104401,18.1104279 65.3029632,18.1227113 L64.2770386,19.8327637 L64.6316528,20.8998109 C64.8420716,21.5332031 65.5261994,21.875534 66.1595916,21.6651154 C66.792984,21.4541626 67.1353149,20.7700348 66.9248962,20.1371764 L66.9211579,20.1355744 Z" id="Path" fill="#EA6B65"></path>
                        <path d="M64.8885345,16.4655304 C64.317627,16.1226654 63.576355,16.3074494 63.2329559,16.8783569 L61.9319915,19.0509033 L63.8059997,18.42659 L64.2754364,19.8354339 L65.301361,18.1248473 C65.6463623,17.5544739 65.4631805,16.8126678 64.892807,16.4682007 C64.8912048,16.4671325 64.8901367,16.4665985 64.8885345,16.4655304 Z" id="Path" fill="#EA6B65"></path>
                        <polygon id="Path" fill="#F55648" points="37.4139404 12.2705078 30.0722503 8.64959717 37.4139404 4.82734684"></polygon>
                        <path d="M49.4825745,57.9308319 L49.4825745,59.1378021 L24.1378021,59.1378021 L24.1378021,57.9308319 C24.1383363,54.0962982 25.7939147,50.4481507 28.6794281,47.9220581 L33.9815521,43.4674836 L28.9656829,43.4482575 L28.4828949,43.6896515 C27.2673797,44.297943 25.8361053,44.297943 24.6205902,43.6896515 L24.1378021,43.4482575 L22.9308319,43.4482575 L20.9169007,41.4337921 C20.0864411,40.6027985 20.0875091,39.2564391 20.9185028,38.4265137 C20.9510804,38.393402 20.9852601,38.3618927 21.0205078,38.3309173 L28.9656829,31.3790894 L37.4139404,28.9656829 L39.8273468,24.1378021 L43.4482575,30.1721191 L47.0691681,36.2069702 L49.4825745,57.9308319 Z" id="Path" fill="#6CBAE5"></path>
                        <polygon id="Path" fill="#A45E14" points="50.6895446 62.7587127 50.6895446 63.9656829 22.9308319 63.9656829 22.9308319 62.7587127 24.1378021 57.9308319 49.4825745 57.9308319"></polygon>
                        <path d="M28.6997223,43.5812378 L28.9656829,43.4482575 L33.9815521,43.4674836 L32.5860596,44.6418763 C35.5698395,44.5211792 39.0006256,43.7259674 40.0954437,39.347229 C40.246048,38.6978149 39.8417663,38.0494691 39.1923522,37.8988647 C38.55896,37.7519989 37.9228973,38.1338501 37.7541351,38.7619019 C36.9311523,42.0602417 34.396515,42.2872162 30.6442261,42.2412873 L29.8789215,42.2412873 C29.2124176,42.2412873 28.6724854,42.7817536 28.6724854,43.4482575 C28.67836,43.4931183 28.687973,43.537445 28.6997223,43.5812378 Z" id="Path" fill="#277BAA"></path>
                        <path d="M43.4482575,44.6552277 C42.7817536,44.6514893 42.2439575,44.1083527 42.247696,43.4418488 C42.2492982,43.1230163 42.377472,42.8175355 42.6033783,42.5926971 L46.5260316,38.6956787 C46.9831849,38.2107544 47.7468872,38.1883239 48.2318115,38.6454772 C48.7167358,39.1031647 48.7391663,39.866867 48.282013,40.3517913 C48.264389,40.3704834 48.2462311,40.3881073 48.2275391,40.4057311 L44.3048859,44.3038177 C44.0773773,44.5302581 43.7692261,44.6568298 43.4482575,44.6552277 Z" id="Path" fill="#277BAA"></path>
                        <path d="M44.5040894,49.4825745 C43.8375854,49.4793701 43.3003236,48.9362336 43.3035278,48.2697296 C43.30513,47.9557038 43.4290314,47.6550293 43.648529,47.4312591 L47.1183014,43.9310456 C47.5802612,43.4503937 48.3444977,43.4349059 48.8251496,43.8968659 C49.3058014,44.3588257 49.320755,45.122528 48.8593293,45.60318 C48.8497162,45.613327 48.839569,45.6229401 48.8299561,45.6325531 L45.3601837,49.1204834 C45.1342773,49.3506623 44.8266602,49.4809723 44.5040894,49.4825745 Z" id="Path" fill="#277BAA"></path>
                        <path d="M45.8621979,54.3104554 C45.195694,54.307785 44.6573639,53.7651825 44.6600342,53.0986786 C44.6616364,52.7841187 44.7850036,52.4829102 45.0050355,52.258606 L47.745819,49.4825745 C48.2232666,49.0174103 48.9875031,49.0270233 49.4526673,49.5044709 C49.9071502,49.9701691 49.9103546,50.7125091 49.45961,51.1819458 L46.7188263,53.9483643 C46.4929199,54.1785431 46.1847687,54.3088532 45.8621979,54.3104554 Z" id="Path" fill="#277BAA"></path>
                        <g id="Group" transform="translate(8.339844, 4.785156)" fill="#B3E4E8">
                            <polygon id="Path" points="25.453186 16.9392396 27.8671265 16.9392396 27.8671265 19.3526458 25.453186 19.3526458"></polygon>
                            <polygon id="Path" points="0.10841373 38.6631012 2.52235416 38.6631012 2.52235416 41.0770417 0.10841373 41.0770417"></polygon>
                            <polygon id="Path" points="4.93576043 38.6631012 7.34970086 38.6631012 7.34970086 41.0770417 4.93576043 41.0770417"></polygon>
                            <polygon id="Path" points="0.10841373 29.0078735 2.52235416 29.0078735 2.52235416 31.421814 0.10841373 31.421814"></polygon>
                            <polygon id="Path" points="0.10841373 33.8357544 2.52235416 33.8357544 2.52235416 36.2491608 0.10841373 36.2491608"></polygon>
                            <polygon id="Path" points="4.93576043 0.0421905859 7.34970086 0.0421905859 7.34970086 2.45613102 4.93576043 2.45613102"></polygon>
                            <polygon id="Path" points="9.76364129 0.0421905859 12.1775817 0.0421905859 12.1775817 2.45613102 9.76364129 2.45613102"></polygon>
                            <polygon id="Path" points="0.10841373 0.0421905859 2.52235416 0.0421905859 2.52235416 2.45613102 0.10841373 2.45613102"></polygon>
                            <polygon id="Path" points="50.7979583 29.0078735 53.2118988 29.0078735 53.2118988 31.421814 50.7979583 31.421814"></polygon>
                            <polygon id="Path" points="50.7979583 33.8357544 53.2118988 33.8357544 53.2118988 36.2491608 50.7979583 36.2491608"></polygon>
                            <polygon id="Path" points="50.7979583 38.6631012 53.2118988 38.6631012 53.2118988 41.0770417 50.7979583 41.0770417"></polygon>
                            <polygon id="Path" points="45.9706116 38.6631012 48.3840179 38.6631012 48.3840179 41.0770417 45.9706116 41.0770417"></polygon>
                        </g>
                        <polygon id="Path" fill="#277BAA" points="33.7930298 33.7930298 36.2069702 33.7930298 36.2069702 36.2069702 33.7930298 36.2069702"></polygon>
                        <polygon id="Path" fill="#B3E4E8" points="59.1378021 4.82734684 61.5517425 4.82734684 61.5517425 7.24128727 59.1378021 7.24128727"></polygon>
                        <polygon id="Path" fill="#B3E4E8" points="54.3104554 4.82734684 56.7238617 4.82734684 56.7238617 7.24128727 54.3104554 7.24128727"></polygon>
                        <polygon id="Path" fill="#B3E4E8" points="49.4825745 4.82734684 51.896515 4.82734684 51.896515 7.24128727 49.4825745 7.24128727"></polygon>
                        <polygon id="Path" fill="#D85021" points="12.6726532 21.7243958 5.43083187 20.5174255 5.43083187 18.103485 12.6726532 16.896515"></polygon>
                        <polygon id="Path" fill="#834B10" points="22.9308319 62.7587127 50.6895446 62.7587127 50.6895446 70 22.9308319 70"></polygon>
                    </g>
                </g>
            </g>
        </g>
    </g>
</svg>