<?xml version="1.0" encoding="UTF-8"?>
<svg width="70px" height="70px" viewBox="0 0 70 70" version="1.1" xmlns="http://www.w3.org/2000/svg" xmlns:xlink="http://www.w3.org/1999/xlink">
    <!-- Generator: Sketch 52.4 (67378) - http://www.bohemiancoding.com/sketch -->
    <title>target</title>
    <desc>Created with Sketch.</desc>
    <g id="Page-1" stroke="none" stroke-width="1" fill="none" fill-rule="evenodd">
        <g id="MiniSite" transform="translate(-746.000000, -1541.000000)">
            <g id="program" transform="translate(250.000000, 951.000000)">
                <g id="Group-5" transform="translate(496.000000, 587.000000)">
                    <g id="target" transform="translate(0.000000, 3.000000)">
                        <path d="M56.6458893,36.9151305 C56.6458893,49.9210358 46.1019897,60.4644012 33.0960846,60.4644012 C20.0901794,60.4644012 9.54681396,49.9210358 9.54681396,36.9151305 C9.54681396,23.9092254 20.0901794,13.36586 33.0960846,13.36586 C46.1019897,13.36586 56.6458893,23.9092254 56.6458893,36.9151305 Z" id="Path" fill="#D9D9D9"></path>
                        <g id="Group" transform="translate(8.886719, 12.714844)" fill="#EA6B65">
                            <path d="M28.0284118,24.1890716 C28.0284118,26.2980651 26.3188934,28.0075837 24.2093659,28.0075837 C22.1003724,28.0075837 20.3908538,26.2980651 20.3908538,24.1890716 C20.3908538,22.0795441 22.1003724,20.3700257 24.2093659,20.3700257 C26.3188934,20.3700257 28.0284118,22.0795441 28.0284118,24.1890716 Z" id="Path"></path>
                            <path d="M24.2093659,10.1866149 C16.4762116,10.1866149 10.2074432,16.4553833 10.2074432,24.1890716 C10.2074432,31.9222259 16.4762116,38.1909943 24.2093659,38.1909943 C31.9430542,38.1909943 38.2118226,31.9222259 38.2118226,24.1890716 C38.2118226,16.4553833 31.9430542,10.1866149 24.2093659,10.1866149 Z M24.2093659,33.0992889 C19.2885589,33.0992889 15.2991486,29.1098786 15.2991486,24.1890716 C15.2991486,19.2677308 19.2885589,15.2783203 24.2093659,15.2783203 C29.1307067,15.2783203 33.1201172,19.2677308 33.1201172,24.1890716 C33.1201172,29.1098786 29.1307067,33.0992889 24.2093659,33.0992889 Z" id="Shape" fill-rule="nonzero"></path>
                            <path d="M24.2093659,0.00320441406 C10.8520508,0.00320441406 0.0240325586,10.8312225 0.0240325586,24.1890716 C0.0240325586,37.5463867 10.8520508,48.3744049 24.2093659,48.3744049 C37.567215,48.3744049 48.3952331,37.5463867 48.3952331,24.1890716 C48.3952331,10.8312225 37.567215,0.00320441406 24.2093659,0.00320441406 Z M24.2093659,43.2826996 C13.6643981,43.2826996 5.11573795,34.7340394 5.11573795,24.1890716 C5.11573795,13.64357 13.6643981,5.09490967 24.2093659,5.09490967 C34.7548675,5.09490967 43.3035278,13.64357 43.3035278,24.1890716 C43.3035278,34.7340394 34.7548675,43.2826996 24.2093659,43.2826996 Z" id="Shape" fill-rule="nonzero"></path>
                            <path d="M24.2093659,0.00320441406 C10.8520508,0.00320441406 0.0240325586,10.8312225 0.0240325586,24.1890716 C0.0240325586,37.5463867 10.8520508,48.3744049 24.2093659,48.3744049 C37.567215,48.3744049 48.3952331,37.5463867 48.3952331,24.1890716 C48.3952331,10.8312225 37.567215,0.00320441406 24.2093659,0.00320441406 Z M24.2093659,43.2826996 C13.6643981,43.2826996 5.11573795,34.7340394 5.11573795,24.1890716 C5.11573795,13.64357 13.6643981,5.09490967 24.2093659,5.09490967 C34.7548675,5.09490967 43.3035278,13.64357 43.3035278,24.1890716 C43.3035278,34.7340394 34.7548675,43.2826996 24.2093659,43.2826996 Z" id="Shape" fill-rule="nonzero"></path>
                        </g>
                        <path d="M33.0960846,35.630722 C32.3932648,35.630722 31.8234253,36.2005615 31.8234253,36.9039154 L31.8234253,61.037445 C32.2474671,61.0588073 32.6661683,61.1009979 33.0960846,61.1009979 C33.526535,61.1009979 33.9452362,61.0588073 34.369278,61.037445 L34.369278,36.9039154 C34.369278,36.2005615 33.7994385,35.630722 33.0960846,35.630722 Z" id="Path" fill="#B6534F"></path>
                        <polygon id="Path" fill="#69B0BB" points="31.8234253 3.80729672 34.369278 3.80729672 34.369278 8.89900211 31.8234253 8.89900211"></polygon>
                        <polygon id="Path" fill="#69B0BB" points="0 35.630722 5.09170539 35.630722 5.09170539 38.1765747 0 38.1765747"></polygon>
                        <polygon id="Path" fill="#69B0BB" points="31.8234253 64.9082946 34.369278 64.9082946 34.369278 70 31.8234253 70"></polygon>
                        <polygon id="Path" fill="#69B0BB" points="61.1009979 35.630722 66.1927033 35.630722 66.1927033 38.1765747 61.1009979 38.1765747"></polygon>
                        <path d="M33.0960846,38.1765747 C32.3932648,38.1765747 31.8234253,37.6062012 31.8234253,36.9033813 C31.8239593,36.5658569 31.9580078,36.2422181 32.1961976,36.0034943 L55.1094056,13.097229 C55.5628205,12.5599671 56.3655091,12.4921418 56.902771,12.9455566 C57.4400329,13.3989715 57.5083923,14.2021942 57.0549774,14.7394562 C57.0079803,14.7949982 56.9561768,14.8468018 56.9001007,14.8932648 L33.9874268,37.8064728 C33.7508392,38.0425262 33.4304046,38.1760407 33.0960846,38.1765747 Z" id="Path" fill="#F3AF3E"></path>
                        <polygon id="Path" fill="#69B0BB" points="60.9989929 16.2017059 54.6992493 15.3018188 53.7982941 9.00100715 62.8003693 0 63.7002563 6.30081184 70 7.20123291"></polygon>
                        <polyline id="Path" fill="#DC4D41" points="53.7982941 9.00100715 54.6992493 15.3018188 60.9989929 16.2017059 65.5000306 11.7006683 59.1992188 10.8007812 58.2993317 4.5010376"></polyline>
                        <polygon id="Path" fill="#69B0BB" points="63.7077331 6.30241391 54.6992493 15.3018188 60.9989929 16.2017059 70 7.20123291"></polygon>
                        <polygon id="Path" fill="#60A0AA" points="63.7077331 6.30241391 54.6992493 15.3018188 60.9989929 16.2017059 70 7.20123291"></polygon>
                        <polygon id="Path" fill="#C7463B" points="59.2029572 10.8023835 54.6992493 15.3018188 60.9989929 16.2017059 65.5000306 11.7006683"></polygon>
                    </g>
                </g>
            </g>
        </g>
    </g>
</svg>